<?xml version="1.0" encoding="utf-8"?>
<!-- Generator: Adobe Illustrator 22.0.1, SVG Export Plug-In . SVG Version: 6.00 Build 0)  -->
<svg version="1.1" id="Слой_1" xmlns="http://www.w3.org/2000/svg" xmlns:xlink="http://www.w3.org/1999/xlink" x="0px" y="0px"
	 viewBox="0 0 182.8975372 185.626236" style="enable-background:new 0 0 182.8975372 185.626236;" xml:space="preserve">
<style type="text/css">
	.st0{fill-rule:evenodd;clip-rule:evenodd;fill:#DA8B47;}
	.st1{fill-rule:evenodd;clip-rule:evenodd;fill:#D67E33;}
	.st2{fill-rule:evenodd;clip-rule:evenodd;fill:#E4AA79;}
	
		.st3{fill-rule:evenodd;clip-rule:evenodd;fill:none;stroke:#BC582C;stroke-width:1.9171154;stroke-linecap:round;stroke-linejoin:round;stroke-miterlimit:22.9256001;}
	
		.st4{fill-rule:evenodd;clip-rule:evenodd;fill:none;stroke:#BC582C;stroke-width:2.5564096;stroke-linecap:round;stroke-linejoin:round;stroke-miterlimit:22.9256001;}
	.st5{fill-rule:evenodd;clip-rule:evenodd;fill:none;stroke:#BC582C;stroke-width:1.4490837;stroke-miterlimit:22.9256001;}
	
		.st6{fill-rule:evenodd;clip-rule:evenodd;fill:none;stroke:#E4AA79;stroke-width:1.9171154;stroke-linecap:round;stroke-linejoin:round;stroke-miterlimit:22.9256001;}
</style>
<g>
	<g>
		<path class="st0" d="M102.6463165,102.2742767L92.5433807,92.0228195l81.7601166-91.0642624l7.6354828,7.715239
			L102.6463165,102.2742767L102.6463165,102.2742767z M181.9389801,8.6737967l-78.800087,94.2742767L181.9389801,8.6737967z"/>
		<polygon class="st1" points="102.6463165,176.8973541 181.9389801,71.4861679 181.9389801,8.6737967 103.1388931,102.9480743 		
			"/>
		<path class="st2" d="M11.9245853,91.9251709h6.8594398l1.5252571,8.0383377h0.4197197h3.2199879h0.4186974l1.5252571-8.0383377
			H30.91502l1.5260239,8.0383377h0.4186974h3.219986h0.4197197l1.5252571-8.0383377h4.9044952l1.5252571,8.0383377h0.4189529
			h3.2207527h0.4186974l1.5252571-8.0383377h5.0220757l1.5260239,8.0383377h0.4186974h3.2199898h0.4197197l1.5252571-8.0383377
			h5.1307106l1.5252609,8.0383377h0.4194641h3.219986h0.4186935l1.5252609-8.0383377h5.0220718l1.5260239,8.0383377h0.4189529
			h3.2199936h0.4194641l1.5252533-8.0383377h5.7551804l10.3501205,10.3491058v74.6235809l-6.8364334,6.836441l-4.3728104-5.3842773
			c-1.6551056,0-3.3099594,0-4.9648132,0l-1.1385117,5.9980164h-5.6406631l-1.1390228-5.9980164h-0.4189529h-3.2199936h-0.4186935
			l-1.1385117,5.9980164h-5.7965927l-1.1382523-5.9980164h-0.4194641h-3.2199898h-0.4189529l-1.1382561,5.9980164H55.320919
			l-1.1382523-5.9980164h-0.4186974h-3.2199898h-0.4189529l-1.1382561,5.9980164h-5.7965889l-1.1382561-5.9980164H41.632206
			H38.41222h-0.4187012l-1.1382523,5.9980164h-5.6787529l-1.1382542-5.9980164h-0.419466h-3.219986h-0.4189548l-1.1382542,5.9980164
			h-6.2508202l-1.1385098-5.9980164c-1.6548538,0-3.3097086,0-4.964818,0l-4.2393808,5.2206879l-6.9698648-6.9698639v-74.0295486
			L11.9245853,91.9251709z"/>
		<polygon class="st1" points="161.7080383,0.9608583 161.7095795,0.9593246 161.7080383,0.9593246 156.7554932,0.9593246 
			150.0721741,8.3013659 151.5314789,2.0134826 151.1066589,0.9608583 151.1081848,0.9593246 151.1066589,0.9593246 
			145.903595,0.9593246 139.8756714,7.4841633 139.316391,0.9608583 139.3179321,0.9593246 139.316391,0.9593246 
			134.205368,0.9593246 129.7745209,5.7291079 128.9368744,0.9608583 128.9381561,0.9593246 128.9368744,0.9593246 
			123.825592,0.9593246 118.8868408,6.1690221 118.8868408,0.9608583 118.8883743,0.9593246 118.8868408,0.9593246 
			113.7765808,0.9593246 106.6633148,8.0102196 107.4631348,0.9593246 101.9970551,0.9593246 11.3144321,92.1156082 
			11.7338963,92.1156082 11.9245853,91.9251709 18.7840252,91.9251709 18.8210888,92.1207199 19.1022663,92.1207199 
			19.0501194,93.3256912 20.3092823,99.9635086 20.729002,99.9635086 23.9489899,99.9635086 24.3676872,99.9635086 
			25.8929443,91.9251709 30.91502,91.9251709 32.4410439,99.9635086 32.8597412,99.9635086 36.0797272,99.9635086 
			36.4994469,99.9635086 38.024704,91.9251709 42.9291992,91.9251709 44.4544563,99.9635086 44.8734093,99.9635086 
			48.094162,99.9635086 48.5128593,99.9635086 50.0381165,91.9251709 55.0601921,91.9251709 56.586216,99.9635086 
			57.0049133,99.9635086 60.2249031,99.9635086 60.6446228,99.9635086 62.1698799,91.9251709 67.3005905,91.9251709 
			68.8258514,99.9635086 69.2453156,99.9635086 72.4653015,99.9635086 72.8839951,99.9635086 74.409256,91.9251709 
			79.4313278,91.9251709 80.9573517,99.9635086 81.3763046,99.9635086 84.5962982,99.9635086 85.0157623,99.9635086 
			86.5410156,91.9251709 92.4983902,91.8694534 92.4983902,91.8694534 162.7297363,13.6662216 174.0578461,0.9593246 
			168.9197235,0.9593246 162.2593994,8.2586775 161.7080383,1.9258064 		"/>
		<path class="st2" d="M72.5015945,80.1926804l-0.0797501-24.8913116l5.3546295,0.2282639l1.3961716,5.6682701
			c1.284729,0,1.76017,0,3.0441284,0l1.4483109-5.4090767h5.5765076l1.4483185,5.4090767c1.2839584,0,2.2238541,0,3.5078125,0
			l1.4483109-5.4090767h5.2148132l1.294693,4.8367538l-28.3237228,31.428421l-1.1571655,7.9095078H69.035965l-1.3550186-7.9636917
			l11.3598022-12.7056198L72.5015945,80.1926804L72.5015945,80.1926804z M111.9606857,37.2613106l5.4415436,0.3356247
			l-16.2594376,17.6732483l1.4649277,5.1726303l37.7382889-41.5147476l-1.2563477-5.077033h-5.0611877l-1.4056244,5.6777296
			c-1.2463837,0-2.1586761,0-3.4042816,0l-1.405632-5.6777296h-5.4118881l-1.405632,5.6777296c-1.2461243,0-1.7070007,0-2.9541473,0
			l-1.1888657-5.8167849l-4.9438553-0.2507582L111.9606857,37.2613106z"/>
		<path class="st0" d="M86.275177,91.5345917l82.6445465-90.575264h5.1381226L92.7905579,92.1207199L86.275177,91.5345917
			L86.275177,91.5345917z M19.1022663,92.1207199l88.3608704-91.1613922h-5.4660797L11.3144321,92.1156082h0.4194641
			l0.1906891-0.1904373h6.8594398l0.0370636,0.195549H19.1022663L19.1022663,92.1207199z M30.9888916,92.1207199
			l87.8994827-91.1613922h-5.1117935L25.5603886,91.848999l1.5201454,0.0761719h3.8352528l0.0370636,0.1935043
			L30.9888916,92.1207199L30.9888916,92.1207199z M67.3018723,92.0540009H61.746582l11.7882156-12.7598038h5.5059509
			L67.3018723,92.0540009L67.3018723,92.0540009z M101.1427917,55.2701836l16.2594376-17.6732483h-5.3459396L95.7293701,55.2701836
			H101.1427917L101.1427917,55.2701836z M139.5040131,13.5726662l11.6041718-12.6133413h-5.2045898l-11.6527405,12.6133413
			H139.5040131L139.5040131,13.5726662z M49.580822,92.0540009l11.8533974-12.7598038h5.4655685L55.1036491,92.0540009H49.580822
			L49.580822,92.0540009z M83.7519989,55.2701836h5.3576965l16.3384247-17.6732483h-5.2776871L83.7519989,55.2701836
			L83.7519989,55.2701836z M122.487442,13.5726662h5.1698227l11.6606674-12.6133413h-5.1125641L122.487442,13.5726662
			L122.487442,13.5726662z M43.1503067,92.1207199l-0.1840439,0.0007706l-0.0370636-0.1963196
			c-1.9237633,0-3.6560669-0.0761719-5.2661896-0.0725937l11.9047775-12.5583801h5.6531868L43.1503067,92.1207199
			L43.1503067,92.1207199z M77.8286209,55.2701836l16.6313629-17.6732483h-5.3648605L72.3413239,55.2701836H77.8286209
			L77.8286209,55.2701836z M117.0681381,13.5726662l11.870018-12.6133413h-5.1125641l-11.9569244,12.6133413H117.0681381
			L117.0681381,13.5726662z M79.877121,92.0540009l81.8324585-91.0946732h-4.9540863L73.8318176,92.0540009H79.877121z"/>
	</g>
	<g>
		<polyline class="st3" points="102.6463165,176.8973541 181.9389801,71.4861679 181.9389801,8.6737967 103.1388931,102.9480743 		
			"/>
		<polyline class="st3" points="92.7905579,92.1207199 174.3034973,0.9585577 181.9389801,8.6737967 		"/>
		<polyline class="st3" points="86.275177,91.5345917 168.9197235,0.9593246 173.812973,0.9600915 		"/>
		<polygon class="st3" points="79.877121,92.0540009 161.7095795,0.9593246 156.7554932,0.9593246 73.8318176,92.0540009 		"/>
		<g>
			<path class="st3" d="M67.3018723,92.0540009l11.7388763-12.7598038h-5.5059509L61.746582,92.0540009H67.3018723
				L67.3018723,92.0540009z M101.1427917,55.2701836l16.2594376-17.6732483h-5.3459396L95.7293701,55.2701836H101.1427917
				L101.1427917,55.2701836z M139.5040131,13.5726662l11.6041718-12.6133413h-5.2045898l-11.6527405,12.6133413H139.5040131z"/>
			<path class="st3" d="M49.580822,92.0540009l11.8533974-12.7598038h5.4655685L55.1036491,92.0540009H49.580822
				L49.580822,92.0540009z M83.7519989,55.2701836l16.4184341-17.6732483h5.2776871L89.1096954,55.2701836H83.7519989
				L83.7519989,55.2701836z M122.487442,13.5726662l11.717926-12.6133413h5.1125641l-11.6606674,12.6133413H122.487442z"/>
			<path class="st3" d="M43.1503067,92.1207199L55.220974,79.2941971h-5.6531868L37.6630096,91.8525772
				c1.6101227-0.0035782,3.3424263,0.0725937,5.2661896,0.0725937l0.0370636,0.1963196L43.1503067,92.1207199L43.1503067,92.1207199
				z M77.8286209,55.2701836l16.6313629-17.6732483h-5.3648605L72.3413239,55.2701836H77.8286209L77.8286209,55.2701836z
				 M117.0681381,13.5726662l11.870018-12.6133413h-5.1125641l-11.9569244,12.6133413H117.0681381z"/>
		</g>
		<polygon class="st3" points="30.9888916,92.1207199 118.8883743,0.9593246 113.7765808,0.9593246 25.5603886,91.848999 
			27.080534,91.9251709 30.9157867,91.9251709 30.9528503,92.1186752 		"/>
		<polygon class="st3" points="19.1022663,92.1207199 107.4631348,0.9593246 101.9970551,0.9593246 11.3144321,92.1156082 
			11.7338963,92.1156082 11.9245853,91.9251709 18.7840252,91.9251709 18.8210888,92.1207199 		"/>
		<line class="st3" x1="107.6993256" y1="0.9593246" x2="107.6993256" y2="7.0493612"/>
		<line class="st3" x1="118.8868408" y1="0.9593246" x2="118.8868408" y2="6.2160549"/>
		<line class="st3" x1="128.9368744" y1="0.9593246" x2="128.9368744" y2="6.4075112"/>
		<line class="st3" x1="139.316391" y1="0.9593246" x2="139.316391" y2="7.6086478"/>
		<line class="st3" x1="161.7080383" y1="0.9593246" x2="161.7080383" y2="8.384696"/>
		<line class="st3" x1="151.1066589" y1="0.9593246" x2="151.1066589" y2="6.8870454"/>
		<line class="st3" x1="72.5015945" y1="55.3317871" x2="72.5015945" y2="80.1926804"/>
		<line class="st3" x1="111.9606857" y1="13.5887699" x2="111.9606857" y2="37.2613106"/>
		<path class="st3" d="M77.7250977,55.788826l1.4475479,5.4090767c1.284729,0,1.76017,0,3.0441284,0l1.4483109-5.4090767h5.5765076
			l1.4483185,5.4090767c1.2839584,0,2.2238541,0,3.5078125,0l1.4483109-5.4090767h5.2148132l1.294693,4.8367538"/>
		<path class="st3" d="M116.6364059,13.8510313l1.4048615,5.6777296c1.2471466,0,1.7080231,0,2.9541473,0l1.405632-5.6777296
			h5.4118881l1.405632,5.6777296c1.2456055,0,2.1578979,0,3.4042816,0l1.4056244-5.6777296h5.0611877l1.2563477,5.077033"/>
		<line class="st3" x1="94.5185165" y1="37.7635956" x2="94.5185165" y2="43.0203247"/>
		<line class="st3" x1="105.5271072" y1="37.7635956" x2="105.5271072" y2="44.2419128"/>
		<line class="st3" x1="117.5855026" y1="37.7635956" x2="117.5855026" y2="43.5522614"/>
		<g>
			<path class="st4" d="M11.9245853,91.9251709h6.8594398l1.5252571,8.0383377h0.4197197h3.2199879h0.4186974l1.5252571-8.0383377
				H30.91502l1.5260239,8.0383377h0.4186974h3.219986h0.4197197l1.5252571-8.0383377h4.9044952l1.5252571,8.0383377h0.4189529
				h3.2207527h0.4186974l1.5252571-8.0383377h5.0220757l1.5260239,8.0383377h0.4186974h3.2199898h0.4197197l1.5252571-8.0383377
				h5.1307106l1.5252609,8.0383377h0.4194641h3.219986h0.4186935l1.5252609-8.0383377h5.0220718l1.5260239,8.0383377h0.4189529
				h3.2199936h0.4194641l1.5252533-8.0383377h5.7551804l10.3501205,10.3491058v74.6235809l-6.8364334,6.836441l-4.3728104-5.3842773
				c-1.6551056,0-3.3099594,0-4.9648132,0l-1.1385117,5.9980164h-5.6406631l-1.1390228-5.9980164h-0.4189529h-3.2199936h-0.4186935
				l-1.1385117,5.9980164h-5.7965927l-1.1382523-5.9980164h-0.4194641h-3.2199898h-0.4189529l-1.1382561,5.9980164H55.320919
				l-1.1382523-5.9980164h-0.4186974h-3.2199898h-0.4189529l-1.1382561,5.9980164h-5.7965889l-1.1382561-5.9980164H41.632206
				H38.41222h-0.4187012l-1.1382523,5.9980164h-5.6787529l-1.1382542-5.9980164h-0.419466h-3.219986h-0.4189548
				l-1.1382542,5.9980164h-6.2508202l-1.1385098-5.9980164c-1.6548538,0-3.3097086,0-4.964818,0l-4.2393808,5.2206879
				l-6.9698648-6.9698639v-74.0295486L11.9245853,91.9251709z"/>
			<line class="st5" x1="88.2922363" y1="92.5946274" x2="88.2922363" y2="176.9791565"/>
			<path class="st5" d="M102.4919281,168.1972351c-8.4572906-7.8059845-13.7546616-18.985321-13.7546616-31.4018402
				c0-12.4505234,5.3262558-23.6567001,13.8241882-31.4654922"/>
			<path class="st5" d="M102.7656937,156.6313934c-3.9009476-5.6342621-6.1915207-12.4931946-6.1864014-19.8359985
				c0.0051117-7.3123932,2.3700638-13.7873917,6.1575165-19.7013092"/>
			<path class="st5" d="M87.5568314,140.8435669c-5.8300781,0-10.5564041-4.7270966-10.5564041-10.5571747
				c0-5.8290482,4.726326-10.5563965,10.5564041-10.5563965"/>
			<path class="st5" d="M53.3639297,131.9632416c4.1780319,0,7.564682,3.3866425,7.564682,7.5644226
				c0,4.1780243-3.3866501,7.5654449-7.564682,7.5654449c-4.1777763,0-7.5651932-3.3874207-7.5651932-7.5654449
				C45.7987366,135.349884,49.1861534,131.9632416,53.3639297,131.9632416z"/>
			<g>
				<path class="st5" d="M17.0944061,170.9542999c-3.7756939,3.6619415-8.2732468,6.442276-13.1836185,7.9020844
					 M3.5490918,100.4591522c5.0409913,1.3925934,9.645647,4.1606522,13.5302334,7.9588394"/>
				<path class="st5" d="M1.2782048,115.3093796c9.0160656,2.794136,15.6791925,12.6621628,15.6791925,24.4066696
					c0,11.7447662-6.6631269,21.612793-15.6791925,24.4069214"/>
				<path class="st5" d="M1.2782048,126.841217c3.9469571,2.329422,6.6649156,7.2196045,6.6649156,12.8748322
					c0,5.6554871-2.7179585,10.5456696-6.6649156,12.8750916"/>
			</g>
			<path class="st5" d="M32.1969299,157.9335022c-6.7313747-6.4565887-10.9630871-15.7993317-10.9630871-26.1921387
				c0-10.4040604,4.2416821-19.7562637,10.9868603-26.2136154"/>
			<line class="st5" x1="72.2965927" y1="99.9635086" x2="72.2965927" y2="184.3480377"/>
			<line class="st5" x1="32.2155914" y1="99.9635086" x2="32.2155914" y2="184.3480377"/>
			<line class="st5" x1="17.1785049" y1="92.4141693" x2="17.1785049" y2="178.3500214"/>
			<path class="st5" d="M32.1396713,173.7583923c-6.7081127-4.1808472-11.8664322-9.5326538-14.8054981-15.5899811"/>
			<path class="st5" d="M88.2953033,152.9911804c-7.1337128-0.9391327-13.1360703-5.4755402-16.1242142-11.7258453"/>
			<path class="st5" d="M88.2953033,171.5041199c-7.1337128-0.5600433-13.1360703-3.2657318-16.1242142-6.9936371"/>
			<path class="st5" d="M88.2953033,105.5037231c-7.1337128,0.560051-13.1360703,3.2657394-16.1242142,6.9936371"/>
			<path class="st5" d="M69.3519058,130.6647034c1.4562378,2.625946,2.2903137,5.6480865,2.2903137,8.862442
				c0,8.9064178-6.3740234,16.3276978-14.8047333,17.9498291 M49.260025,157.3437958
				c-8.1175766-1.8621521-14.1771965-9.1310883-14.1771965-17.8166504c0-10.0950165,8.184803-18.2798157,18.2795677-18.2798157
				c2.6246567,0,5.1163979,0.555191,7.3711815,1.5477448"/>
			<path class="st5" d="M32.1496429,104.906601c2.1208382-1.2911148,4.3976059-2.4048309,6.81036-3.3135452
				c1.7606773-0.6635742,3.5389938-1.1903992,5.3170547-1.5991287 M61.0656204,99.7628555
				c4.011116,0.7957306,7.8839493,2.2057037,11.4663925,4.1532364"/>
			<path class="st5" d="M72.2523727,163.822876c-2.3672562,1.8376312-5.0453339,3.3641663-7.995903,4.4758301
				c-11.2974358,4.2554932-23.5414124,1.3803253-31.7683945-6.3834839 M32.1496429,117.8013763
				c2.9308853-2.8549652,6.4857292-5.1705856,10.5622826-6.7060699c10.3419418-3.8953247,21.4722023-1.8194733,29.5874825,4.5111008
				"/>
		</g>
	</g>
	<line class="st6" x1="171.1036987" y1="47.9554939" x2="123.71772" y2="104.5559006"/>
	<line class="st6" x1="108.8391113" y1="153.2708282" x2="161.7399902" y2="82.9461746"/>
</g>
</svg>
