<?xml version="1.0" encoding="utf-8"?>
<!-- Generator: Adobe Illustrator 22.0.1, SVG Export Plug-In . SVG Version: 6.00 Build 0)  -->
<svg version="1.1" id="Слой_1" xmlns="http://www.w3.org/2000/svg" xmlns:xlink="http://www.w3.org/1999/xlink" x="0px" y="0px"
	 viewBox="0 0 182.8975372 185.6264954" style="enable-background:new 0 0 182.8975372 185.6264954;" xml:space="preserve">
<style type="text/css">
	.st0{fill-rule:evenodd;clip-rule:evenodd;fill:#D67E33;}
	.st1{fill-rule:evenodd;clip-rule:evenodd;fill:#E4AA79;}
	.st2{fill-rule:evenodd;clip-rule:evenodd;fill:#DA8B47;}
	
		.st3{fill-rule:evenodd;clip-rule:evenodd;fill:none;stroke:#BC582C;stroke-width:2.5564096;stroke-linecap:round;stroke-linejoin:round;stroke-miterlimit:22.9256001;}
	.st4{fill-rule:evenodd;clip-rule:evenodd;fill:none;stroke:#BC582C;stroke-width:1.4490837;stroke-miterlimit:22.9256001;}
	
		.st5{fill-rule:evenodd;clip-rule:evenodd;fill:none;stroke:#BC582C;stroke-width:1.9171154;stroke-linecap:round;stroke-linejoin:round;stroke-miterlimit:22.9256001;}
	
		.st6{fill-rule:evenodd;clip-rule:evenodd;fill:none;stroke:#E4AA79;stroke-width:1.9171154;stroke-linecap:round;stroke-linejoin:round;stroke-miterlimit:22.9256001;}
</style>
<g>
	<g>
		<polygon class="st0" points="161.7080383,0.9608583 161.7095795,0.9593246 161.7080383,0.9593246 156.7554932,0.9593246 
			150.0721741,8.3016214 151.5314789,2.0137382 151.1066589,0.9608583 151.1081848,0.9593246 151.1066589,0.9593246 
			145.903595,0.9593246 139.8756714,7.4841633 139.316391,0.9608583 139.3179321,0.9593246 139.316391,0.9593246 
			134.205368,0.9593246 129.7745209,5.7293634 128.9368744,0.9608583 128.9381561,0.9593246 128.9368744,0.9593246 
			123.825592,0.9593246 118.8868408,6.1690221 118.8868408,0.9608583 118.8883743,0.9593246 118.8868408,0.9593246 
			113.7765808,0.9593246 106.6633148,8.0102196 107.4631348,0.9593246 101.9970551,0.9593246 11.3144321,92.11586 
			11.7338963,92.11586 11.9245853,91.9251709 18.7840252,91.9251709 18.8210888,92.1207199 19.1022663,92.1207199 
			19.0501194,93.3256912 20.3092823,99.963768 20.729002,99.963768 23.9489899,99.963768 24.3676872,99.963768 
			25.8929443,91.9251709 30.91502,91.9251709 32.4410439,99.963768 32.8597412,99.963768 36.0797272,99.963768 
			36.4994469,99.963768 38.024704,91.9251709 42.9291992,91.9251709 44.4544563,99.963768 44.8734093,99.963768 
			48.094162,99.963768 48.5128593,99.963768 50.0381165,91.9251709 55.0601921,91.9251709 56.586216,99.963768 
			57.0049133,99.963768 60.2249031,99.963768 60.6446228,99.963768 62.1698799,91.9251709 67.3005905,91.9251709 
			68.8258514,99.963768 69.2453156,99.963768 72.4653015,99.963768 72.8839951,99.963768 74.409256,91.9251709 
			79.4313278,91.9251709 80.9573517,99.963768 81.3763046,99.963768 84.5962982,99.963768 85.0157623,99.963768 
			86.5410156,91.9251709 92.4983902,91.8694534 92.4983902,91.8694534 162.7297363,13.6662216 174.0578461,0.9593246 
			168.9197235,0.9593246 162.2593994,8.2586775 161.7080383,1.926062 		"/>
		<path class="st1" d="M11.9245853,91.9251709h6.8594398l1.5252571,8.0385971h0.4197197h3.2199879h0.4186974l1.5252571-8.0385971
			H30.91502l1.5260239,8.0385971h0.4186974h3.219986h0.4197197l1.5252571-8.0385971h4.9044952l1.5252571,8.0385971h0.4189529
			h3.2207527h0.4186974l1.5252571-8.0385971h5.0220757l1.5260239,8.0385971h0.4186974h3.2199898h0.4197197l1.5252571-8.0385971
			h5.1307106l1.5252609,8.0385971h0.4194641h3.219986h0.4186935l1.5252609-8.0385971h5.0220718l1.5260239,8.0385971h0.4189529
			h3.2199936h0.4194641l1.5252533-8.0385971h5.7551804l10.3501205,10.3491058v74.6238403l-6.8364334,6.836441l-4.3728104-5.3845367
			c-1.6551056,0-3.3099594,0-4.9648132,0l-1.1385117,5.9982605h-5.6406631l-1.1390228-5.9982605h-0.4189529h-3.2199936h-0.4186935
			l-1.1385117,5.9982605h-5.7965927l-1.1382523-5.9982605h-0.4194641h-3.2199898h-0.4189529l-1.1382561,5.9982605H55.320919
			l-1.1382523-5.9982605h-0.4186974h-3.2199898h-0.4189529l-1.1382561,5.9982605h-5.7965889l-1.1382561-5.9982605H41.632206
			H38.41222h-0.4187012l-1.1382523,5.9982605h-5.6787529l-1.1382542-5.9982605h-0.419466h-3.219986h-0.4189548l-1.1382542,5.9982605
			h-6.2508202l-1.1385098-5.9982605c-1.6548538,0-3.3097086,0-4.964818,0l-4.2393808,5.2206879l-6.9698648-6.9698639v-74.0292892
			L11.9245853,91.9251709z"/>
		<polygon class="st0" points="102.6463165,176.8973541 181.9389801,71.4861679 181.9389801,8.6740532 103.1388931,102.9483337 		
			"/>
		<path class="st2" d="M102.6463165,102.2742767L92.5433807,92.0230713l81.7601166-91.0645142l7.6354828,7.7154956
			L102.6463165,102.2742767L102.6463165,102.2742767z M181.9389801,8.6740532l-78.800087,94.2742767L181.9389801,8.6740532z"/>
		<g>
			<polygon class="st1" points="86.275177,91.5345917 168.9197235,0.9593246 173.812973,0.9600915 92.296196,91.9251709 			"/>
			<polygon class="st1" points="79.877121,92.0542603 161.7095795,0.9593246 156.7554932,0.9593246 73.8318176,92.0542603 			"/>
			<polygon class="st1" points="49.580822,92.0542603 133.852356,0.9593246 139.3179321,0.9593246 55.1036491,92.0542603 			"/>
			<path class="st1" d="M43.1503067,92.1207199l85.7878494-91.1613922h-5.6529388L37.6630096,91.8528366
				c1.6101227-0.0038376,3.3424263,0.0723343,5.2661896,0.0723343l0.0370636,0.1963196L43.1503067,92.1207199z"/>
			<polygon class="st1" points="67.3018723,92.0542603 151.1081848,0.9593246 145.6022339,0.9593246 61.746582,92.0542603 			"/>
			<polygon class="st1" points="30.9888916,92.1207199 118.8883743,0.9593246 113.7765808,0.9593246 25.5603886,91.848999 
				27.080534,91.9251709 30.9157867,91.9251709 30.9528503,92.1186752 			"/>
			<polygon class="st1" points="19.1022663,92.1207199 107.4631348,0.9593246 101.9970551,0.9593246 11.3144321,92.11586 
				11.7338963,92.11586 11.9245853,91.9251709 18.7840252,91.9251709 18.8210888,92.1207199 			"/>
		</g>
	</g>
	<g>
		<g>
			<path class="st3" d="M11.9245853,91.9251709h6.8594398l1.5252571,8.0385971h0.4197197h3.2199879h0.4186974l1.5252571-8.0385971
				H30.91502l1.5260239,8.0385971h0.4186974h3.219986h0.4197197l1.5252571-8.0385971h4.9044952l1.5252571,8.0385971h0.4189529
				h3.2207527h0.4186974l1.5252571-8.0385971h5.0220757l1.5260239,8.0385971h0.4186974h3.2199898h0.4197197l1.5252571-8.0385971
				h5.1307106l1.5252609,8.0385971h0.4194641h3.219986h0.4186935l1.5252609-8.0385971h5.0220718l1.5260239,8.0385971h0.4189529
				h3.2199936h0.4194641l1.5252533-8.0385971h5.7551804l10.3501205,10.3491058v74.6238403l-6.8364334,6.836441l-4.3728104-5.3845367
				c-1.6551056,0-3.3099594,0-4.9648132,0l-1.1385117,5.9982605h-5.6406631l-1.1390228-5.9982605h-0.4189529h-3.2199936h-0.4186935
				l-1.1385117,5.9982605h-5.7965927l-1.1382523-5.9982605h-0.4194641h-3.2199898h-0.4189529l-1.1382561,5.9982605H55.320919
				l-1.1382523-5.9982605h-0.4186974h-3.2199898h-0.4189529l-1.1382561,5.9982605h-5.7965889l-1.1382561-5.9982605H41.632206
				H38.41222h-0.4187012l-1.1382523,5.9982605h-5.6787529l-1.1382542-5.9982605h-0.419466h-3.219986h-0.4189548
				l-1.1382542,5.9982605h-6.2508202l-1.1385098-5.9982605c-1.6548538,0-3.3097086,0-4.964818,0l-4.2393808,5.2206879
				l-6.9698648-6.9698639v-74.0292892L11.9245853,91.9251709z"/>
			<line class="st4" x1="22.3388672" y1="99.963768" x2="22.3388672" y2="184.3482819"/>
			<line class="st4" x1="62.3626137" y1="91.9251709" x2="62.3626137" y2="178.6805267"/>
			<line class="st4" x1="43.2336349" y1="93.9772568" x2="43.2336349" y2="184.1003418"/>
			<line class="st4" x1="82.907959" y1="99.963768" x2="82.907959" y2="184.3482819"/>
			<g>
				<path class="st4" d="M102.6463165,169.0957184c-9.0406036-7.8333282-14.7597427-19.3991699-14.7597427-32.3003235
					c0-12.9009171,5.7191391-24.4667435,14.7597427-32.3000793V169.0957184z"/>
				<path class="st4" d="M102.6463165,157.6482391c-4.3446884-5.8170471-6.917717-13.0345917-6.917717-20.8528442
					c0-7.8187714,2.5730286-15.0355606,6.917717-20.8526001V157.6482391z"/>
			</g>
			<g>
				<path class="st4" d="M74.6390533,106.0067673c2.9896774,0,5.8870773,0.3977432,8.642868,1.1374893v64.178894
					c-2.7557907,0.740509-5.6531906,1.1382599-8.642868,1.1382599c-4.3017502,0-8.4130707-0.817215-12.1859512-2.3056641
					v-61.8435822C66.2259827,106.8239746,70.3373032,106.0067673,74.6390533,106.0067673z"/>
				<path class="st4" d="M74.6390533,116.8768158c3.0643158,0,5.9834442,0.6180801,8.642868,1.7330704v41.2473831
					c-2.6594238,1.1160126-5.5785522,1.7333221-8.642868,1.7333221c-4.4960175,0-8.6804428-1.3281708-12.1859512-3.6113281
					v-37.4903488C65.9586105,118.2049942,70.1430359,116.8768158,74.6390533,116.8768158z"/>
				<path class="st4" d="M74.6390533,128.6773071c3.5735016,0,6.7329102,1.7772827,8.642868,4.4952393v12.1230774
					c-1.9099579,2.7176971-5.0693665,4.4952545-8.642868,4.4952545c-5.8300781,0-10.5564041-4.7270966-10.5564041-10.5571747
					C64.0826492,133.4043884,68.8089752,128.6773071,74.6390533,128.6773071z"/>
				<circle class="st4" cx="74.6390533" cy="139.2337036" r="3.7547345"/>
			</g>
			<g>
				<path class="st4" d="M22.3388672,165.6699524c-5.3957844,5.845932-12.5916138,9.9311829-20.6815853,11.3194275
					l-0.3790777-0.3885345v-74.0292892l0.1638495-0.1674271c8.1768799,1.3519516,15.453228,5.4566193,20.8968124,11.3554535"/>
				<path class="st4" d="M1.2782048,116.8093338c9.9631205,2.6223602,17.3248444,11.8833084,17.3248444,22.9054337
					c0,11.0223999-7.3617229,20.2838593-17.3248444,22.9062042V116.8093338z"/>
				<path class="st4" d="M1.2782048,127.6318359c4.3613095,2.1867828,7.36479,6.7753448,7.36479,12.0829315
					c0,5.3083649-3.0034804,9.897171-7.36479,12.0839691V127.6318359z"/>
			</g>
			<g>
				<path class="st4" d="M22.3388672,123.1544724c2.979454-1.010704,6.1800137-1.5612946,9.5129833-1.5612946
					c4.0374432,0,7.8821545,0.8069763,11.3738613,2.26194"/>
				<path class="st4" d="M43.2257118,165.3090363c-3.2013283,2.2471161-7.1283455,3.5714569-11.3738613,3.5714569
					c-3.4546432,0-6.6994247-0.8780365-9.5129833-2.4155731 M22.3388672,133.2574158
					c2.8135586-1.5375214,6.0583401-2.4158173,9.5129833-2.4158173c4.2455158,0,8.172533,1.3246002,11.3738613,3.5714569"/>
				<path class="st4" d="M31.8518505,140.8798676c5.0836773,0,9.2057323,4.0215912,9.2057323,8.981308
					c0,4.9597015-4.1220551,8.9810333-9.2057323,8.9810333s-9.2057323-4.0213318-9.2057323-8.9810333
					C22.6461182,144.9014587,26.7681713,140.8798676,31.8518505,140.8798676z"/>
				<ellipse class="st4" cx="31.8518505" cy="149.8611755" rx="3.2736661" ry="3.1939144"/>
				<path class="st4" d="M22.3388672,109.865799c3.0563946-0.6899109,5.9059944-1.0541611,9.5129833-1.0541611
					s7.8008709,0.4953842,11.4185925,1.4838486"/>
			</g>
			<path class="st4" d="M62.2544899,164.2801819c-10.4252739-5.9517517-17.5129776-17.6448822-17.5129776-31.095871
				c0-13.5309982,7.1725655-25.2829208,17.7005959-31.2019501"/>
			<path class="st4" d="M55.3500595,129.9257202c0.020195-7.0986938,2.7097816-13.5148926,7.0478287-18.1614685"/>
			<path class="st4" d="M62.1928864,175.4084015c-8.2188034-3.6496887-14.8676147-10.1420593-18.9592514-18.5942383"/>
		</g>
		<polyline class="st5" points="102.6463165,176.8973541 181.9389801,71.4861679 181.9389801,8.6740532 103.1388931,102.9483337 		
			"/>
		<polyline class="st5" points="92.7905579,92.1207199 174.3034973,0.9585577 181.9389801,8.6740532 		"/>
		<polyline class="st5" points="86.275177,91.5345917 168.9197235,0.9593246 173.812973,0.9600915 		"/>
		<polygon class="st5" points="79.877121,92.0542603 161.7095795,0.9593246 156.7554932,0.9593246 73.8318176,92.0542603 		"/>
		<polygon class="st5" points="49.580822,92.0542603 133.852356,0.9593246 139.3179321,0.9593246 55.1036491,92.0542603 		"/>
		<path class="st5" d="M43.1503067,92.1207199l85.7878494-91.1613922h-5.6529388L37.6630096,91.8528366
			c1.6101227-0.0038376,3.3424263,0.0723343,5.2661896,0.0723343l0.0370636,0.1963196L43.1503067,92.1207199z"/>
		<polygon class="st5" points="67.3018723,92.0542603 151.1081848,0.9593246 145.6022339,0.9593246 61.746582,92.0542603 		"/>
		<polygon class="st5" points="30.9888916,92.1207199 118.8883743,0.9593246 113.7765808,0.9593246 25.5603886,91.848999 
			27.080534,91.9251709 30.9157867,91.9251709 30.9528503,92.1186752 		"/>
		<polygon class="st5" points="19.1022663,92.1207199 107.4631348,0.9593246 101.9970551,0.9593246 11.3144321,92.11586 
			11.7338963,92.11586 11.9245853,91.9251709 18.7840252,91.9251709 18.8210888,92.1207199 		"/>
		<line class="st5" x1="107.6993256" y1="0.9593246" x2="107.6993256" y2="7.0493612"/>
		<line class="st5" x1="118.8868408" y1="0.9593246" x2="118.8868408" y2="6.216311"/>
		<line class="st5" x1="128.9368744" y1="0.9593246" x2="128.9368744" y2="6.4075112"/>
		<line class="st5" x1="139.316391" y1="0.9593246" x2="139.316391" y2="7.6089034"/>
		<line class="st5" x1="161.7080383" y1="0.9593246" x2="161.7080383" y2="8.3849516"/>
		<line class="st5" x1="151.1066589" y1="0.9593246" x2="151.1066589" y2="6.8870454"/>
	</g>
	<line class="st6" x1="176.7632751" y1="30.1506023" x2="129.3773041" y2="86.7510071"/>
	<line class="st6" x1="108.7153931" y1="153.4492493" x2="161.6160278" y2="83.124588"/>
</g>
</svg>
