<?xml version="1.0" encoding="utf-8"?>
<!-- Generator: Adobe Illustrator 22.0.1, SVG Export Plug-In . SVG Version: 6.00 Build 0)  -->
<svg version="1.1" id="Слой_1" xmlns="http://www.w3.org/2000/svg" xmlns:xlink="http://www.w3.org/1999/xlink" x="0px" y="0px"
	 viewBox="0 0 182.8975372 185.6269989" style="enable-background:new 0 0 182.8975372 185.6269989;" xml:space="preserve">
<style type="text/css">
	.st0{fill-rule:evenodd;clip-rule:evenodd;fill:#D67E33;}
	.st1{fill-rule:evenodd;clip-rule:evenodd;fill:#E4AA79;}
	.st2{fill-rule:evenodd;clip-rule:evenodd;fill:#DA8B47;}
	
		.st3{fill-rule:evenodd;clip-rule:evenodd;fill:none;stroke:#BC582C;stroke-width:1.9171154;stroke-linecap:round;stroke-linejoin:round;stroke-miterlimit:22.9256001;}
	
		.st4{fill-rule:evenodd;clip-rule:evenodd;fill:none;stroke:#BC582C;stroke-width:2.5564096;stroke-linecap:round;stroke-linejoin:round;stroke-miterlimit:22.9256001;}
	.st5{fill-rule:evenodd;clip-rule:evenodd;fill:none;stroke:#BC582C;stroke-width:1.4490837;stroke-miterlimit:22.9256001;}
	
		.st6{fill-rule:evenodd;clip-rule:evenodd;fill:none;stroke:#E4AA79;stroke-width:1.9171154;stroke-linecap:round;stroke-linejoin:round;stroke-miterlimit:22.9256001;}
</style>
<g>
	<g>
		<polygon class="st0" points="161.7080383,0.9613695 161.7095795,0.9598358 161.7080383,0.9598358 156.7554932,0.9598358 
			150.0721741,8.3021326 151.5314789,2.0142493 151.1066589,0.9613695 151.1081848,0.9598358 151.1066589,0.9598358 
			145.903595,0.9598358 139.8756714,7.4846745 139.316391,0.9613695 139.3179321,0.9598358 139.316391,0.9598358 
			134.205368,0.9598358 129.7745209,5.7298746 128.9368744,0.9613695 128.9381561,0.9598358 128.9368744,0.9598358 
			123.825592,0.9598358 118.8868408,6.1695333 118.8868408,0.9613695 118.8883743,0.9598358 118.8868408,0.9598358 
			113.7765808,0.9598358 106.6633148,8.0107307 107.4631348,0.9598358 101.9970551,0.9598358 11.3144321,92.1163712 
			11.7338963,92.1163712 11.9245853,91.9256821 18.7840252,91.9256821 18.8210888,92.1214905 19.1022663,92.1214905 
			19.0501194,93.3264542 20.3092823,99.9642792 20.729002,99.9642792 23.9489899,99.9642792 24.3676872,99.9642792 
			25.8929443,91.9256821 30.91502,91.9256821 32.4410439,99.9642792 32.8597412,99.9642792 36.0797272,99.9642792 
			36.4994469,99.9642792 38.024704,91.9256821 42.9291992,91.9256821 44.4544563,99.9642792 44.8734093,99.9642792 
			48.094162,99.9642792 48.5128593,99.9642792 50.0381165,91.9256821 55.0601921,91.9256821 56.586216,99.9642792 
			57.0049133,99.9642792 60.2249031,99.9642792 60.6446228,99.9642792 62.1698799,91.9256821 67.3005905,91.9256821 
			68.8258514,99.9642792 69.2453156,99.9642792 72.4653015,99.9642792 72.8839951,99.9642792 74.409256,91.9256821 
			79.4313278,91.9256821 80.9573517,99.9642792 81.3763046,99.9642792 84.5962982,99.9642792 85.0157623,99.9642792 
			86.5410156,91.9256821 92.4983902,91.8699646 92.4983902,91.8699646 162.7297363,13.6669884 174.0578461,0.9598358 
			168.9197235,0.9598358 162.2593994,8.2594442 161.7080383,1.9265733 		"/>
		<path class="st1" d="M11.9245853,91.9256821h6.8594398l1.5252571,8.0385971h0.4197197h3.2199879h0.4186974l1.5252571-8.0385971
			H30.91502l1.5260239,8.0385971h0.4186974h3.219986h0.4197197l1.5252571-8.0385971h4.9044952l1.5252571,8.0385971h0.4189529
			h3.2207527h0.4186974l1.5252571-8.0385971h5.0220757l1.5260239,8.0385971h0.4186974h3.2199898h0.4197197l1.5252571-8.0385971
			h5.1307106l1.5252609,8.0385971h0.4194641h3.219986h0.4186935l1.5252609-8.0385971h5.0220718l1.5260239,8.0385971h0.4189529
			h3.2199936h0.4194641l1.5252533-8.0385971h5.7551804l10.3501205,10.3493576v74.6235962l-6.8364334,6.8364258l-4.3728104-5.3845367
			c-1.6551056,0-3.3099594,0-4.9648132,0l-1.1385117,5.9982758h-5.6406631l-1.1390228-5.9982758h-0.4189529h-3.2199936h-0.4186935
			l-1.1385117,5.9982758h-5.7965927l-1.1382523-5.9982758h-0.4194641h-3.2199898h-0.4189529l-1.1382561,5.9982758H55.320919
			l-1.1382523-5.9982758h-0.4186974h-3.2199898h-0.4189529l-1.1382561,5.9982758h-5.7965889l-1.1382561-5.9982758H41.632206
			H38.41222h-0.4187012l-1.1382523,5.9982758h-5.6787529l-1.1382542-5.9982758h-0.419466h-3.219986h-0.4189548l-1.1382542,5.9982758
			h-6.2508202l-1.1385098-5.9982758c-1.6548538,0-3.3097086,0-4.964818,0l-4.2393808,5.2206879l-6.9698648-6.9696045v-74.029541
			L11.9245853,91.9256821z"/>
		<polygon class="st0" points="102.6463165,176.8978577 181.9389801,71.4869308 181.9389801,8.6745644 103.1388931,102.9488449 		
			"/>
		<path class="st2" d="M102.6463165,102.2750397L92.5433807,92.0235825l81.7601166-91.0642548l7.6354828,7.7152395
			L102.6463165,102.2750397L102.6463165,102.2750397z M181.9389801,8.6745644l-78.800087,94.2742767L181.9389801,8.6745644z"/>
		<g>
			<polygon class="st1" points="86.275177,91.5351028 168.9197235,0.9598358 173.812973,0.9606027 92.296196,91.9256821 			"/>
			<polygon class="st1" points="79.877121,92.0547714 161.7095795,0.9598358 156.7554932,0.9598358 73.8318176,92.0547714 			"/>
			<polygon class="st1" points="49.580822,92.0547714 133.852356,0.9598358 139.3179321,0.9598358 55.1036491,92.0547714 			"/>
			<path class="st1" d="M43.1503067,92.1214905l85.7878494-91.1616516h-5.6529388L37.6630096,91.8533478
				c1.6101227-0.0035782,3.3424263,0.0723343,5.2661896,0.0723343l0.0370636,0.1963196L43.1503067,92.1214905z"/>
			<polygon class="st1" points="67.3018723,92.0547714 151.1081848,0.9598358 145.6022339,0.9598358 61.746582,92.0547714 			"/>
			<polygon class="st1" points="30.9888916,92.1214905 118.8883743,0.9598358 113.7765808,0.9598358 25.5603886,91.8497696 
				27.080534,91.9256821 30.9157867,91.9256821 30.9528503,92.1191864 			"/>
			<polygon class="st1" points="19.1022663,92.1214905 107.4631348,0.9598358 101.9970551,0.9598358 11.3144321,92.1163712 
				11.7338963,92.1163712 11.9245853,91.9256821 18.7840252,91.9256821 18.8210888,92.1214905 			"/>
		</g>
	</g>
	<g>
		<polyline class="st3" points="102.6463165,176.8970947 181.9389801,71.4861679 181.9389801,8.6737967 103.1388931,102.9480743 		
			"/>
		<polyline class="st3" points="92.7905579,92.1207199 174.3034973,0.9585577 181.9389801,8.6737967 		"/>
		<polyline class="st3" points="86.275177,91.5345917 168.9197235,0.9593246 173.812973,0.9598358 		"/>
		<polygon class="st3" points="79.877121,92.0540009 161.7095795,0.9593246 156.7554932,0.9593246 73.8318176,92.0540009 		"/>
		<polygon class="st3" points="30.9888916,92.1207199 118.8883743,0.9593246 113.7765808,0.9593246 25.5603886,91.848999 
			27.080534,91.9249191 30.9157867,91.9249191 30.9528503,92.1184158 		"/>
		<polygon class="st3" points="19.1022663,92.1207199 107.4631348,0.9593246 101.9970551,0.9593246 11.3144321,92.1156082 
			11.7338963,92.1156082 11.9245853,91.9249191 18.7840252,91.9249191 18.8210888,92.1207199 		"/>
		<line class="st3" x1="107.6993256" y1="0.9593246" x2="107.6993256" y2="7.0493612"/>
		<line class="st3" x1="118.8868408" y1="0.9593246" x2="118.8868408" y2="6.2160549"/>
		<line class="st3" x1="128.9368744" y1="0.9593246" x2="128.9368744" y2="6.4072556"/>
		<line class="st3" x1="139.316391" y1="0.9593246" x2="139.316391" y2="7.6086478"/>
		<line class="st3" x1="161.7080383" y1="0.9593246" x2="161.7080383" y2="8.384696"/>
		<line class="st3" x1="151.1066589" y1="0.9593246" x2="151.1066589" y2="6.8870454"/>
		<g>
			<path class="st4" d="M11.9245853,91.9249191h6.8594398l1.5252571,8.0385895h0.4197197h3.2199879h0.4186974l1.5252571-8.0385895
				h5.0228424l1.5252571,8.0385895h0.4186974h3.2207527h0.4189529l1.5252571-8.0385895h4.9044952l1.5252571,8.0385895h0.4197197
				h3.219986h0.4186974l1.5260239-8.0385895h5.0220757l1.5252571,8.0385895h0.4194641h3.2199898h0.4189529l1.5252571-8.0385895
				h5.1307106l1.5257721,8.0385895h0.4189529h3.219986h0.4186935l1.5260239-8.0385895h5.0220795l1.5260239,8.0385895h0.4186935
				h3.2202454h0.4187012l1.5260239-8.0385895h5.7551804l10.3498611,10.3493576v74.6243591l-6.8364334,6.8356628
				l-4.3733215-5.3837738c-1.6551056,0-3.3091965,0-4.9643021,0l-1.1382599,5.9982758h-5.6414261l-1.1385117-5.9982758h-0.4187012
				h-3.219986h-0.4194641l-1.1385117,5.9982758h-5.7965927l-1.1382523-5.9982758H66.004364h-3.2202415h-0.4186974
				l-1.1390228,5.9982758h-5.9047165l-1.1382523-5.9982758h-0.4194641h-3.2199898h-0.4189529l-1.1382561,5.9982758h-5.7965889
				l-1.1382561-5.9982758h-0.4189529H38.41222h-0.4187012l-1.1382523,5.9982758h-5.6787529l-1.1382542-5.9982758h-0.419466
				h-3.219986h-0.4189548l-1.1382542,5.9982758h-6.2508202l-1.1385098-5.9982758c-1.6548538,0-3.3097086,0-4.964818,0
				l-4.2393808,5.2206879l-6.9698648-6.9696045v-74.0310745L11.9245853,91.9249191z"/>
			<path class="st5" d="M52.1822205,132.535553c3.6938972,0,6.6884308,2.9953003,6.6884308,6.689209
				c0,3.6946564-2.9945335,6.6894531-6.6884308,6.6894531c-3.694664,0-6.6894569-2.9947968-6.6894569-6.6894531
				C45.4927635,135.5308533,48.4875565,132.535553,52.1822205,132.535553z"/>
			<path class="st5" d="M68.6903687,134.588913c0.4107742,1.473114,0.6339264,3.0303192,0.6339264,4.635849
				c0,9.4674835-7.6756172,17.1420746-17.1420746,17.1420746c-9.4667168,0-17.1420784-7.6745911-17.1420784-17.1420746
				c0-9.4664612,7.6753616-17.1420822,17.1420784-17.1420822c1.5664101,0,3.088089,0.211647,4.5279694,0.6042709"/>
			<path class="st5" d="M36.1203728,115.2896957c4.5844612-3.0814438,10.1159782-4.8871078,16.0618477-4.8871078
				c15.9174271,0,28.8221664,12.904747,28.8221664,28.8221741c0,15.9176788-12.9047394,28.8224182-28.8221664,28.8224182
				 M35.5414009,162.7584991c-7.3668346-5.2155762-12.1808376-13.815506-12.1808376-23.5337372
				c0-6.5414581,2.1803989-12.5757675,5.8502693-17.4102249"/>
			<path class="st5" d="M84.2685928,122.1877365c2.6934204,5.0742188,4.244751,10.879509,4.2779846,17.0370255
				c0.1168137,20.0780792-16.2811661,36.3646088-36.364357,36.3646088c-7.0828476,0-13.6968956-2.025238-19.2818375-5.5271759
				 M21.5354691,158.809494c-3.613636-5.6473083-5.7178612-12.3735657-5.7178612-19.5847321
				c0-20.082428,16.2821884-36.3643646,36.3646126-36.3643646c7.8673286,0,15.1661682,2.4810028,21.1033478,6.74646"/>
			<path class="st5" d="M83.6216354,102.7044754c10.2542648,8.8304901,16.7479172,21.9223404,16.7479172,36.5202866
				c0,16.7254181-8.5275803,31.4613953-21.4647903,40.1047668 M25.6472969,179.4555511
				c-13.0473757-8.6157684-21.6519012-23.4225464-21.6519012-40.2307892c0-14.4386978,6.3612442-27.3983994,16.4176655-36.2288818"
				/>
		</g>
		<polygon class="st3" points="49.580822,92.0547714 133.852356,0.9598358 139.3179321,0.9598358 55.1036491,92.0547714 		"/>
		<path class="st3" d="M43.1503067,92.1214905l85.7878494-91.1616516h-5.6529388L37.6630096,91.8533478
			c1.6101227-0.0035782,3.3424263,0.0723343,5.2661896,0.0723343l0.0370636,0.1963196L43.1503067,92.1214905z"/>
		<polygon class="st3" points="67.3018723,92.0547714 151.1081848,0.9598358 145.6022339,0.9598358 61.746582,92.0547714 		"/>
	</g>
	<line class="st6" x1="106.1206436" y1="158.2696381" x2="159.0212708" y2="87.9449844"/>
	<line class="st6" x1="119.9788361" y1="120.9096603" x2="172.879715" y2="54.2331505"/>
</g>
</svg>
