<?xml version="1.0" encoding="utf-8"?>
<!-- Generator: Adobe Illustrator 22.0.1, SVG Export Plug-In . SVG Version: 6.00 Build 0)  -->
<svg version="1.1" id="Слой_1" xmlns="http://www.w3.org/2000/svg" xmlns:xlink="http://www.w3.org/1999/xlink" x="0px" y="0px"
	 viewBox="0 0 167.4225769 175.1909943" style="enable-background:new 0 0 167.4225769 175.1909943;" xml:space="preserve">
<style type="text/css">
	.st0{fill-rule:evenodd;clip-rule:evenodd;fill:#E4AA79;}
	.st1{fill-rule:evenodd;clip-rule:evenodd;fill:#D67E33;}
	.st2{fill-rule:evenodd;clip-rule:evenodd;fill:none;stroke:#BC582C;stroke-width:1.4490837;stroke-miterlimit:22.9256001;}
	
		.st3{fill-rule:evenodd;clip-rule:evenodd;fill:none;stroke:#BC582C;stroke-width:2.5564096;stroke-linecap:round;stroke-linejoin:round;stroke-miterlimit:22.9256001;}
	
		.st4{fill-rule:evenodd;clip-rule:evenodd;fill:none;stroke:#BC582C;stroke-width:1.9171154;stroke-linecap:round;stroke-linejoin:round;stroke-miterlimit:22.9256001;}
	
		.st5{fill-rule:evenodd;clip-rule:evenodd;fill:none;stroke:#E4AA79;stroke-width:1.9171154;stroke-linecap:round;stroke-linejoin:round;stroke-miterlimit:22.9256001;}
</style>
<g>
	<g>
		<path class="st0" d="M23.809679,92.7584839c8.0521393-5.3886337,17.7361279-8.5326996,28.1527119-8.5326996
			c27.9911613,0,50.6844368,22.6930237,50.6844368,50.68367c0,15.6855927-7.1270676,29.7063446-18.3173981,39.0033417
			c-8.7798767-7.2942505-20.0614624-11.6824036-32.3670387-11.6824036s-23.5871658,4.3881531-32.366787,11.6824036
			c-11.190587-9.2969971-18.3174-23.317749-18.3174-39.0033417c0-15.3047104,6.7847986-29.0251236,17.5101662-38.3187866
			L23.809679,92.7584839z"/>
		<path class="st1" d="M93.9142456,163.5774841l62.8338318-85.9113007
			c5.9663239-7.6646271,9.7159424-17.8399124,9.7159424-28.8904228c0-26.4078808-21.4098358-47.8172035-47.8171997-47.8172035
			c-9.8273849,0-18.9635925,2.9659052-26.7064362,8.2067871l-78.3987732,92.6894684
			c1.6180449-1.8803101,3.3723335-3.6394577,5.2467613-5.2641449l5.0213089-3.8321838
			c8.0521393-5.3886337,17.7361279-8.5326996,28.1527119-8.5326996c27.9911613,0,50.6844368,22.6930237,50.6844368,50.68367
			c0,10.6077881-3.2606277,20.4548645-8.832016,28.593399L93.9142456,163.5774841L93.9142456,163.5774841z M12.9641733,102.5373001
			l-0.0593023,0.0702972l0.0005112,0.0007629L12.9641733,102.5373001z"/>
	</g>
	<g>
		<g>
			<path class="st2" d="M51.9616241,128.9612885c3.28619,0,5.9497032,2.6635132,5.9497032,5.9494476
				c0,3.2854309-2.6635132,5.949707-5.9497032,5.949707c-3.2859383,0-5.9494476-2.6642761-5.9494476-5.949707
				C46.0121765,131.6248016,48.6756859,128.9612885,51.9616241,128.9612885z"/>
			<path class="st2" d="M69.7125778,134.9102325c0,9.80336-7.9481049,17.7506866-17.7509537,17.7506866
				s-17.7506981-7.9473267-17.7506981-17.7506866c0-9.8028564,7.9478455-17.7509613,17.7506981-17.7509613"/>
			<path class="st2" d="M34.9154015,112.1331024c4.7500992-3.5773315,10.6599274-5.7104492,17.0462227-5.7234802
				c15.6850739-0.0327225,28.5013733,12.7605743,28.5013733,28.5006104c0,13.4837036-9.3657532,24.7798615-21.9445839,27.7419281
				 M34.8238907,157.6873474c-6.9238548-5.2097015-11.408371-13.4959869-11.3628712-22.7771149
				c0.0291405-6.24086,2.0651169-12.0259476,5.4924068-16.7256927"/>
			<path class="st2" d="M85.8350067,112.6213303c4.2143326,6.3885956,6.6705399,14.0539932,6.6705399,22.2889023
				c0,13.6480713-6.7444153,25.7218018-17.0827789,33.0697174 M28.5020103,167.97995
				c-10.3383636-7.3479156-17.0832863-19.4216461-17.0832863-33.0697174c0-22.3911514,18.1527824-40.5439301,40.5436668-40.5439301
				c11.2506561,0,21.4374428,4.585228,28.778965,11.986824"/>
			<path class="st3" d="M23.809679,92.7584839c8.0521393-5.3886337,17.7361279-8.5326996,28.1527119-8.5326996
				c27.9911613,0,50.6844368,22.6930237,50.6844368,50.68367c0,15.6855927-7.1270676,29.7063446-18.3173981,39.0033417
				c-8.7798767-7.2942505-20.0614624-11.6824036-32.3670387-11.6824036s-23.5871658,4.3881531-32.366787,11.6824036
				c-11.190587-9.2969971-18.3174-23.317749-18.3174-39.0033417c0-15.3047104,6.7847986-29.0251236,17.5101662-38.3187866"/>
		</g>
		<path class="st4" d="M93.9142456,163.5774841l63.1628113-86.344574 M91.7939148,9.3225489L12.904871,102.6075974"/>
		<path class="st4" d="M92.0860825,9.0078869c7.5971451-5.0834236,16.7333527-8.0493288,26.5607376-8.0493288
			c26.4073639,0,47.8171997,21.4093227,47.8171997,47.8172035c0,11.0505104-3.7496185,21.2257957-10.0449066,29.3229179"/>
		<line class="st4" x1="103.0721741" y1="128.8664551" x2="152.7599792" y2="60.9422874"/>
		<line class="st4" x1="54.4970741" y1="71.392868" x2="102.1744537" y2="14.3581724"/>
		<line class="st4" x1="120.2170639" y1="89.0970459" x2="153.9593201" y2="42.9712486"/>
		<line class="st4" x1="99.0362625" y1="78.3995438" x2="123.7241058" y2="48.8670158"/>
	</g>
	<line class="st5" x1="72.8057785" y1="76.7017441" x2="125.7064056" y2="13.2482901"/>
	<line class="st5" x1="96.7942581" y1="99.9934158" x2="127.0389328" y2="62.4573212"/>
</g>
</svg>
