<?xml version="1.0" encoding="utf-8"?>
<!-- Generator: Adobe Illustrator 22.0.1, SVG Export Plug-In . SVG Version: 6.00 Build 0)  -->
<svg version="1.1" id="Слой_1" xmlns="http://www.w3.org/2000/svg" xmlns:xlink="http://www.w3.org/1999/xlink" x="0px" y="0px"
	 viewBox="0 0 182.8975372 185.6269989" style="enable-background:new 0 0 182.8975372 185.6269989;" xml:space="preserve">
<style type="text/css">
	.st0{fill-rule:evenodd;clip-rule:evenodd;fill:#D67E33;}
	.st1{fill-rule:evenodd;clip-rule:evenodd;fill:#DA8B47;}
	.st2{fill-rule:evenodd;clip-rule:evenodd;fill:#E4AA79;}
	
		.st3{fill-rule:evenodd;clip-rule:evenodd;fill:none;stroke:#BC582C;stroke-width:1.9171154;stroke-linecap:round;stroke-linejoin:round;stroke-miterlimit:22.9256001;}
	
		.st4{fill-rule:evenodd;clip-rule:evenodd;fill:none;stroke:#E4AA79;stroke-width:1.9171154;stroke-linecap:round;stroke-linejoin:round;stroke-miterlimit:22.9256001;}
	.st5{fill-rule:evenodd;clip-rule:evenodd;fill:#BC582C;}
	.st6{fill-rule:evenodd;clip-rule:evenodd;fill:#E1C7A4;stroke:#BC582C;stroke-width:1.4490837;stroke-miterlimit:22.9256001;}
	
		.st7{fill-rule:evenodd;clip-rule:evenodd;fill:#E4AA79;stroke:#BC582C;stroke-width:2.5564096;stroke-linecap:round;stroke-linejoin:round;stroke-miterlimit:22.9256001;}
	.st8{fill-rule:evenodd;clip-rule:evenodd;fill:none;stroke:#BC582C;stroke-width:1.4490837;stroke-miterlimit:22.9256001;}
	.st9{fill-rule:evenodd;clip-rule:evenodd;fill:#BC582C;stroke:#BC582C;stroke-width:1.4490837;stroke-miterlimit:22.9256001;}
</style>
<g>
	<g>
		<g>
			<polygon class="st0" points="161.7080383,0.9616252 161.7095795,0.9600915 161.7080383,0.9600915 156.7554932,0.9600915 
				150.0721741,8.3021326 151.5314789,2.0142493 151.1066589,0.9616252 151.1081848,0.9600915 151.1066589,0.9600915 
				145.903595,0.9600915 139.8756714,7.48493 139.316391,0.9616252 139.3179321,0.9600915 139.316391,0.9600915 
				134.205368,0.9600915 129.7745209,5.7298746 128.9368744,0.9616252 128.9381561,0.9600915 128.9368744,0.9600915 
				123.825592,0.9600915 118.8868408,6.1697888 118.8868408,0.9616252 118.8883743,0.9600915 118.8868408,0.9600915 
				113.7765808,0.9600915 106.6633148,8.0109863 107.4631348,0.9600915 101.9970551,0.9600915 11.3144321,92.1163712 
				11.7338963,92.1163712 11.9245853,91.9259415 18.7840252,91.9259415 18.8210888,92.1214905 19.1022663,92.1214905 
				19.0501194,93.3264542 20.3092823,99.9642792 20.729002,99.9642792 23.9489899,99.9642792 24.3676872,99.9642792 
				25.8929443,91.9259415 30.91502,91.9259415 32.4410439,99.9642792 32.8597412,99.9642792 36.0797272,99.9642792 
				36.4994469,99.9642792 38.024704,91.9259415 42.9291992,91.9259415 44.4544563,99.9642792 44.8734093,99.9642792 
				48.094162,99.9642792 48.5128593,99.9642792 50.0381165,91.9259415 55.0601921,91.9259415 56.586216,99.9642792 
				57.0049133,99.9642792 60.2249031,99.9642792 60.6446228,99.9642792 62.1698799,91.9259415 67.3005905,91.9259415 
				68.8258514,99.9642792 69.2453156,99.9642792 72.4653015,99.9642792 72.8839951,99.9642792 74.409256,91.9259415 
				79.4313278,91.9259415 80.9573517,99.9642792 81.3763046,99.9642792 84.5962982,99.9642792 85.0157623,99.9642792 
				86.5410156,91.9259415 92.4983902,91.8702164 92.4983902,91.8702164 162.7297363,13.6669884 174.0578461,0.9600915 
				168.9197235,0.9600915 162.2593994,8.2594442 161.7080383,1.9265733 			"/>
			<polygon class="st0" points="102.6463165,176.8981171 181.9389801,71.4869308 181.9389801,8.6745644 103.1388931,102.9488449 			
				"/>
			<path class="st1" d="M102.6463165,102.2750397L92.5433807,92.0238419l81.7601166-91.0645142l7.6354828,7.7152395
				L102.6463165,102.2750397L102.6463165,102.2750397z M181.9389801,8.6745644l-78.800087,94.2742767L181.9389801,8.6745644z"/>
			<g>
				<polygon class="st2" points="86.275177,91.5353622 168.9197235,0.9600915 173.812973,0.9608583 92.296196,91.9259415 				"/>
				<polygon class="st2" points="79.877121,92.0547714 161.7095795,0.9600915 156.7554932,0.9600915 73.8318176,92.0547714 				"/>
				<polygon class="st2" points="49.580822,92.0547714 133.852356,0.9600915 139.3179321,0.9600915 55.1036491,92.0547714 				"/>
				<path class="st2" d="M43.1503067,92.1214905l85.7878494-91.1613998h-5.6529388L37.6630096,91.8533478
					c1.6101227-0.0035782,3.3424263,0.0725937,5.2661896,0.0725937l0.0370636,0.196312L43.1503067,92.1214905z"/>
				<polygon class="st2" points="67.3018723,92.0547714 151.1081848,0.9600915 145.6022339,0.9600915 61.746582,92.0547714 				"/>
				<polygon class="st2" points="30.9888916,92.1214905 118.8883743,0.9600915 113.7765808,0.9600915 25.5603886,91.8497696 
					27.080534,91.9259415 30.9157867,91.9259415 30.9528503,92.1194382 				"/>
				<polygon class="st2" points="19.1022663,92.1214905 107.4631348,0.9600915 101.9970551,0.9600915 11.3144321,92.1163712 
					11.7338963,92.1163712 11.9245853,91.9259415 18.7840252,91.9259415 18.8210888,92.1214905 				"/>
			</g>
		</g>
		<g>
			<polyline class="st3" points="102.6463165,176.8973541 181.9389801,71.4861679 181.9389801,8.6740532 103.1388931,102.9483337 
							"/>
			<polyline class="st3" points="92.7905579,92.1207199 174.3034973,0.9585577 181.9389801,8.6740532 			"/>
			<polyline class="st3" points="86.275177,91.5345917 168.9197235,0.9593246 173.812973,0.9600915 			"/>
			<polygon class="st3" points="79.877121,92.0542603 161.7095795,0.9593246 156.7554932,0.9593246 73.8318176,92.0542603 			"/>
			<polygon class="st3" points="30.9888916,92.1207199 118.8883743,0.9593246 113.7765808,0.9593246 25.5603886,91.848999 
				27.080534,91.9251709 30.9157867,91.9251709 30.9528503,92.1186752 			"/>
			<polygon class="st3" points="19.1022663,92.1207199 107.4631348,0.9593246 101.9970551,0.9593246 11.3144321,92.11586 
				11.7338963,92.11586 11.9245853,91.9251709 18.7840252,91.9251709 18.8210888,92.1207199 			"/>
			<line class="st3" x1="107.6993256" y1="0.9593246" x2="107.6993256" y2="7.0493612"/>
			<line class="st3" x1="118.8868408" y1="0.9593246" x2="118.8868408" y2="6.216311"/>
			<line class="st3" x1="128.9368744" y1="0.9593246" x2="128.9368744" y2="6.4075112"/>
			<line class="st3" x1="139.316391" y1="0.9593246" x2="139.316391" y2="7.6089034"/>
			<line class="st3" x1="161.7080383" y1="0.9593246" x2="161.7080383" y2="8.3849516"/>
			<line class="st3" x1="151.1066589" y1="0.9593246" x2="151.1066589" y2="6.8870454"/>
			<polygon class="st3" points="49.580822,92.0547714 133.852356,0.9600915 139.3179321,0.9600915 55.1036491,92.0547714 			"/>
			<path class="st3" d="M43.1503067,92.1214905l85.7878494-91.1613998h-5.6529388L37.6630096,91.8533478
				c1.6101227-0.0035782,3.3424263,0.0725937,5.2661896,0.0725937l0.0370636,0.196312L43.1503067,92.1214905z"/>
			<polygon class="st3" points="67.3018723,92.0547714 151.1081848,0.9600915 145.6022339,0.9600915 61.746582,92.0547714 			"/>
		</g>
		<line class="st4" x1="106.1206436" y1="158.2698975" x2="159.0212708" y2="87.9449844"/>
		<line class="st4" x1="119.9788361" y1="103.4112549" x2="172.879715" y2="36.734745"/>
	</g>
	<path class="st5" d="M103.8794098,139.1598358c-0.4000397,0.5043182-1.1346741,0.5868835-1.638237,0.1868439
		c-0.5043335-0.3992615-0.5868988-1.1339111-0.1868591-1.6382294l78.9999771-99.6158752
		c0.4304657-0.5419044,0.5774384,0.6413422,0.8529968,1.3969383c0.1584778,0.4371033,1.0991364-0.1063347,0.2571411,0.9549789
		L103.8794098,139.1598358z"/>
	<g>
		<path class="st6" d="M11.9245853,91.9251709h6.8594398l1.5252571,8.0385971h0.4197197h3.2199879h0.4186974l1.5252571-8.0385971
			h5.0228424l1.5252571,8.0385971h0.4186974h3.2207527h0.4189529l1.5252571-8.0385971h4.9044952l1.5252571,8.0385971h0.4197197
			h3.219986h0.4186974l1.5260239-8.0385971h5.0220757l1.5252571,8.0385971h0.4194641h3.2199898h0.4189529l1.5252571-8.0385971
			h5.1307106l1.5257721,8.0385971h0.4189529h3.219986h0.4186935l1.5260239-8.0385971h5.0220795l1.5260239,8.0385971h0.4186935
			h3.2202454h0.4187012l1.5260239-8.0385971h5.7551804l10.3498611,10.3491058v74.6243591l-6.8364334,6.8359222l-4.3733215-5.3837738
			c-1.6551056,0-3.3091965,0-4.9643021,0l-1.1382599,5.9980164h-5.6414261l-1.1385117-5.9980164h-0.4187012h-3.219986h-0.4194641
			l-1.1385117,5.9980164h-5.7965927l-1.1382523-5.9980164H66.004364h-3.2202415h-0.4186974l-1.1390228,5.9980164h-5.9047165
			l-1.1382523-5.9980164h-0.4194641h-3.2199898h-0.4189529l-1.1382561,5.9980164h-5.7965889l-1.1382561-5.9980164h-0.4189529
			H38.41222h-0.4187012l-1.1382523,5.9980164h-5.6787529l-1.1382542-5.9980164h-0.419466h-3.219986h-0.4189548l-1.1382542,5.9980164
			h-6.2508202l-1.1385098-5.9980164c-1.6548538,0-3.3097086,0-4.964818,0l-4.2393808,5.2206879l-6.9698648-6.9698639v-74.0308228
			L11.9245853,91.9251709z"/>
		<path class="st7" d="M11.9245853,91.9251709h6.8594398l1.5252571,8.0385971h0.4197197h3.2199879h0.4186974l1.5252571-8.0385971
			h5.0228424l1.5252571,8.0385971h0.4186974h3.2207527h0.4189529l1.5252571-8.0385971h4.9044952l1.5252571,8.0385971h0.4197197
			h3.219986h0.4186974l1.5260239-8.0385971h5.0220757l1.5252571,8.0385971h0.4194641h3.2199898h0.4189529l1.5252571-8.0385971
			h5.1307106l1.5257721,8.0385971h0.4189529h3.219986h0.4186935l1.5260239-8.0385971h5.0220795l1.5260239,8.0385971h0.4186935
			h3.2202454h0.4187012l1.5260239-8.0385971h5.7551804l10.3498611,10.3491058v74.6243591l-6.8364334,6.8359222l-4.3733215-5.3837738
			c-1.6551056,0-3.3091965,0-4.9643021,0l-1.1382599,5.9980164h-5.6414261l-1.1385117-5.9980164h-0.4187012h-3.219986h-0.4194641
			l-1.1385117,5.9980164h-5.7965927l-1.1382523-5.9980164H66.004364h-3.2202415h-0.4186974l-1.1390228,5.9980164h-5.9047165
			l-1.1382523-5.9980164h-0.4194641h-3.2199898h-0.4189529l-1.1382561,5.9980164h-5.7965889l-1.1382561-5.9980164h-0.4189529
			H38.41222h-0.4187012l-1.1382523,5.9980164h-5.6787529l-1.1382542-5.9980164h-0.419466h-3.219986h-0.4189548l-1.1382542,5.9980164
			h-6.2508202l-1.1385098-5.9980164c-1.6548538,0-3.3097086,0-4.964818,0l-4.2393808,5.2206879l-6.9698648-6.9698639v-74.0308228
			L11.9245853,91.9251709z"/>
		<path class="st8" d="M52.1822205,132.535553c3.1220856,0,5.7452087,2.1405334,6.482151,5.033844H45.6993027
			C46.4362411,134.6760864,49.0591125,132.535553,52.1822205,132.535553L52.1822205,132.535553z M58.375782,141.7545776
			c-0.9976692,2.4403687-3.39534,4.1596375-6.1935616,4.1596375c-2.7989883,0-5.1966629-1.7192688-6.1938171-4.1596375"/>
		<path class="st8" d="M69.3148422,138.6693115c0.0066452,0.1840363,0.0094528,0.3693542,0.0094528,0.5556946
			c0,9.4672394-7.6756172,17.1420898-17.1420746,17.1420898c-9.4667168,0-17.1420784-7.6748505-17.1420784-17.1420898
			c0-0.1863403,0.0035782-0.3708954,0.0094566-0.5556946 M36.550827,132.1784668
			c2.6883087-5.9525223,8.6760979-10.0955353,15.6313934-10.0955353c1.5664101,0,3.088089,0.2108841,4.5279694,0.6042786"/>
		<path class="st8" d="M36.1203728,115.2899551c4.5844612-3.0817032,10.1159782-4.8873672,16.0618477-4.8873672
			c15.7190704,0,28.4983063,12.5859909,28.8142471,28.22966 M79.8806992,147.2155457
			c-3.4643555,12.0302887-14.5531998,20.8316345-27.6984787,20.8316345 M35.5414009,162.7592621
			c-7.3660679-5.2160797-12.1816063-13.8162689-12.1816063-23.534256c0-0.7238922,0.0268402-1.441925,0.079752-2.1527863
			 M25.426445,128.4889069c0.9644375-2.4020157,2.2432823-4.6437607,3.7843876-6.6741104"/>
		<path class="st8" d="M84.2685928,122.1879883c2.6934204,5.0742264,4.244751,10.8795013,4.2779846,17.0370178
			c0.1168137,20.0780792-16.2811661,36.3643646-36.364357,36.3643646c-7.0828476,0-13.6968956-2.025238-19.2818375-5.5269165
			 M21.5354691,158.8097534c-3.613636-5.6475677-5.7178612-12.3738251-5.7178612-19.5847473
			c0-20.0824127,16.2821884-36.3643494,36.3646126-36.3643494c7.8673286,0,15.1661682,2.4807434,21.1033478,6.74646"/>
		<path class="st8" d="M83.6216354,102.7047272c7.8218307,6.7357254,13.4553375,15.9509125,15.6878815,26.4224548
			 M100.3457794,137.710495c0.0158539,0.5030518,0.0237732,1.00737,0.0237732,1.5145111
			c0,16.7254333-8.5275803,31.4611511-21.4655533,40.1047821 M25.6480637,179.4558105
			c-13.0481424-8.6152649-21.652668-23.4228058-21.652668-40.2308044c0-0.6022186,0.0125253-1.2013855,0.0342524-1.7985077
			 M5.1185703,128.8432007c2.2432809-10.2028961,7.7203512-19.1962128,15.2944908-25.8470688"/>
		<rect x="1.2782048" y="136.647644" class="st9" width="101.3686295" height="2.9794531"/>
	</g>
</g>
</svg>
