<?xml version="1.0" encoding="utf-8"?>
<!-- Generator: Adobe Illustrator 22.0.1, SVG Export Plug-In . SVG Version: 6.00 Build 0)  -->
<svg version="1.1" id="_x31_" xmlns="http://www.w3.org/2000/svg" xmlns:xlink="http://www.w3.org/1999/xlink" x="0px" y="0px"
	 viewBox="0 0 150.3 137.4" style="enable-background:new 0 0 150.3 137.4;" xml:space="preserve">
<style type="text/css">
	.st0{fill-rule:evenodd;clip-rule:evenodd;fill:#D67E33;}
	.st1{fill-rule:evenodd;clip-rule:evenodd;fill:#E6E6E6;}
	.st2{fill-rule:evenodd;clip-rule:evenodd;fill:#CCCCCC;}
	
		.st3{fill-rule:evenodd;clip-rule:evenodd;fill:none;stroke:#BC572B;stroke-width:4.3571;stroke-linecap:round;stroke-linejoin:round;stroke-miterlimit:22.9256;}
	.st4{fill-rule:evenodd;clip-rule:evenodd;fill:none;stroke:#BC572B;stroke-width:1.2351;stroke-miterlimit:22.9256;}
</style>
<g>
	<path class="st0" d="M17.5,2.2h9.9l2.2,11.6h0.6h4.6h0.6l2.2-11.6h7.2L47,13.8h0.6h4.6h0.6l2.2-11.6h7.1l2.2,11.6h0.6h4.6h0.6
		l2.2-11.6h7.2l2.2,11.6h0.6H87h0.6l2.2-11.6h7.4l2.2,11.6h0.6h4.6h0.6l2.2-11.6h7.2l2.2,11.6h0.6h4.6h0.6l2.2-11.6h8.3l14.9,14.9
		v107.4l-9.8,9.8l-6.3-7.8c-2.4,0-4.8,0-7.1,0l-1.6,8.6h-8.1l-1.6-8.6h-0.6h-4.6h-0.6l-1.6,8.6h-8.3l-1.6-8.6h-0.6h-4.6h-0.6
		l-1.6,8.6H80l-1.6-8.6h-0.6h-4.6h-0.6l-1.6,8.6h-8.3l-1.6-8.6h-0.6h-4.6H55l-1.6,8.6h-8.2l-1.6-8.6H43h-4.6h-0.6l-1.6,8.6h-9
		l-1.6-8.6c-2.4,0-4.8,0-7.1,0l-6.1,7.5l-10-10V17.5L17.5,2.2z"/>
	<polygon class="st1" points="32.3,13.8 34.8,13.8 35.4,13.8 37.6,2.2 44.8,2.2 47,13.8 47.6,13.8 52.3,13.8 52.9,13.8 55.1,2.2 
		62.1,2.2 64.3,13.8 64.9,13.8 69.6,13.8 70.2,13.8 72.4,2.2 79.6,2.2 81.8,13.8 82.4,13.8 87,13.8 87.6,13.8 89.8,2.2 97.2,2.2 
		99.4,13.8 100,13.8 104.7,13.8 105.3,13.8 107.5,2.2 114.7,2.2 116.9,13.8 117.5,13.8 120.5,13.8 120.5,135.2 115.1,135.2 
		113.4,126.6 112.8,126.6 108.2,126.6 107.6,126.6 105.9,135.2 97.6,135.2 96,126.6 95.4,126.6 90.7,126.6 90.1,126.6 88.5,135.2 
		80,135.2 78.3,126.6 77.7,126.6 73.1,126.6 72.5,126.6 70.9,135.2 62.5,135.2 60.9,126.6 60.3,126.6 55.6,126.6 55,126.6 
		53.4,135.2 45.2,135.2 43.6,126.6 43,126.6 38.3,126.6 37.7,126.6 36.1,135.2 32.3,135.2 	"/>
	<path class="st2" d="M120.9,133.3l-2.4,2.4l-0.1-0.1l-0.1,0.1l-4.6-4.6l0.9-0.9l3.8,3.8l1.6-1.6L120.9,133.3L120.9,133.3z
		 M120.9,121.3l-0.9-0.9l-1.6,1.6l-5.1-5.1l5.1-5.1l1.6,1.6l0.9-0.9l-1.6-1.6l1.6-1.6l-0.9-0.9l-1.6,1.6l-5.1-5.1l5.1-5.1l1.6,1.6
		l0.9-0.9l-1.6-1.6l1.6-1.6l-0.9-0.9l-1.6,1.6l-5.1-5.1l5.1-5.1l1.6,1.6l0.9-0.9l-1.6-1.6l1.6-1.6l-0.9-0.9l-1.6,1.6l-5.1-5.1
		l5.1-5.1l1.6,1.6l0.9-0.9l-1.6-1.6l1.6-1.6l-0.9-0.9l-1.6,1.6l-5.1-5.1l5.1-5.1l1.6,1.6l0.9-0.9l-1.6-1.6l1.6-1.6l-0.9-0.9
		l-1.6,1.6l-5.1-5.1l5.1-5.1l1.6,1.6l0.9-0.9l-1.6-1.6l1.6-1.6l-0.9-0.9l-1.6,1.6l-5.1-5.1l5.1-5.1l1.6,1.6l0.9-0.9l-1.6-1.6
		l1.6-1.6l-0.9-0.9l-1.6,1.6l-5.1-5.1l5.1-5.1l1.6,1.6l0.9-0.9l-1.6-1.6l1.6-1.6l-0.9-0.9l-1.6,1.6l-5.1-5.1l5.1-5.1L120,17l0.9-0.9
		l-1.6-1.6l0.4-0.4l-0.9-0.9l-0.4,0.4l-0.4-0.4l-0.9,0.9l0.4,0.4l-5.1,5.1l-5.1-5.1l5.1-5.1l3.8,3.8l0.9-0.9l-3.8-3.8l2.5-2.5
		l-0.9-0.9l-2.5,2.5l-4.8-4.8l-0.9,0.9l4.8,4.8l-5.1,5.1l-0.7-0.7l-0.9,0.9l0.7,0.7l-5.1,5.1l-5.1-5.1l3.9-3.9l-0.9-0.9l-3.9,3.9
		l-5.1-5.1l5.1-5.1l3.1,3.1l0.9-0.9l-4-4l-0.1,0.1l-0.1-0.1l-6.1,6.1l0.6,0.6l-0.7,0.7l5.4,5.4l-5.1,5.1l-5.1-5.1l0.4-0.4l-0.9-0.9
		l-0.4,0.4l-5.1-5.1l3.3-3.3l-0.9-0.9l-3.3,3.3l-3.9-3.9l-0.9,0.9l3.9,3.9l-5.1,5.1l-0.4-0.4l-0.9,0.9l0.4,0.4l-5.1,5.1l-5.1-5.1
		l4.8-4.8L63.1,9l-4.8,4.8l-4.3-4.3l-0.9,0.9l4.3,4.3l-5.1,5.1l-5.1-5.1l0.4-0.4l-0.9-0.9l-0.4,0.4l-5.1-5.1l4.4-4.4l-0.9-0.9
		l-4.4,4.4l-2.8-2.8l-0.9,0.9l2.8,2.8l-4.3,4.3l0.9,0.9l4.3-4.3l5.1,5.1l-5.1,5.1l-5.1-5.1l0.4-0.4l-0.9-0.9l-0.4,0.4l-0.4-0.4
		L33,14.2l0.4,0.4l-1.6,1.6l0.9,0.9l1.6-1.6l5.1,5.1l-5.1,5.1l-1.6-1.6L31.8,25l1.6,1.6l-1.6,1.6l0.9,0.9l1.6-1.6l5.1,5.1l-5.1,5.1
		l-1.6-1.6l-0.9,0.9l1.6,1.6l-1.6,1.6l0.9,0.9l1.6-1.6l5.1,5.1l-5.1,5.1l-1.6-1.6l-0.9,0.9l1.6,1.6l-1.6,1.6l0.9,0.9l1.6-1.6
		l5.1,5.1l-5.1,5.1l-1.6-1.6l-0.9,0.9l1.6,1.6l-1.6,1.6l0.9,0.9l1.6-1.6l5.1,5.1l-5.1,5.1l-1.6-1.6l-0.9,0.9l1.6,1.6l-1.6,1.6
		l0.9,0.9l1.6-1.6l5.1,5.1l-5.1,5.1l-1.6-1.6l-0.9,0.9l1.6,1.6l-1.6,1.6l0.9,0.9l1.6-1.6l5.1,5.1l-5.1,5.1l-1.6-1.6l-0.9,0.9
		l1.6,1.6l-1.6,1.6l0.9,0.9l1.6-1.6l5.1,5.1l-5.1,5.1l-1.6-1.6l-0.9,0.9l1.6,1.6l-1.6,1.6l0.9,0.9l1.6-1.6l5.1,5.1l-5.1,5.1
		l-1.6-1.6l-0.9,0.9l1.6,1.6l-1.6,1.6l0.9,0.9l1.6-1.6l3.3,3.3l0.9-0.9l-3.3-3.3l5.1-5.1l5.1,5.1l-3.3,3.3L43,127l3.3-3.3l5.1,5.1
		l-5.1,5.1l-1-1l-0.9,0.9l1.8,1.8l0.1-0.1l0.1,0.1l6-6l1.5,1.5l0.9-0.9l-1.5-1.5l5.1-5.1l5.1,5.1l-2.1,2.1l0.9,0.9l2.1-2.1l6,6
		l0.1-0.1l0.1,0.1l1.1-1.1l-0.9-0.9l-0.3,0.3l-5.1-5.1l5.1-5.1l3.3,3.3l0.9-0.9l-3.3-3.3l5.1-5.1l5.1,5.1l-3.5,3.5l0.9,0.9l3.5-3.5
		l5.1,5.1l-5.1,5.1l-2.6-2.6l-0.9,0.9l3.4,3.4l0.1-0.1l0.1,0.1l6-6l0.7,0.7l0.9-0.9l-0.7-0.7l1.2-1.2l-0.9-0.9l-1.2,1.2l-5.1-5.1
		l5.1-5.1l5.1,5.1l-3.3,3.3l0.9,0.9l3.3-3.3l5.1,5.1l-2.9,2.9l0.9,0.9l2.9-2.9l5.2,5.2l0.9-0.9l-5.2-5.2l5.1-5.1l3.3,3.3l0.9-0.9
		l-3.3-3.3l5.1-5.1l5.1,5.1l-4.4,4.4l0.9,0.9l4.4-4.4l1.6,1.6l0.9-0.9l-1.6-1.6L120.9,121.3L120.9,121.3z M100.4,128l-5.1-5.1
		l5.1-5.1l5.1,5.1L100.4,128L100.4,128z M106.4,122l-5.1-5.1l5.1-5.1l5.1,5.1L106.4,122L106.4,122z M112.4,115.9l-5.1-5.1l5.1-5.1
		l5.1,5.1L112.4,115.9L112.4,115.9z M94.4,122l-5.1-5.1l5.1-5.1l5.1,5.1L94.4,122L94.4,122z M100.4,115.9l-5.1-5.1l5.1-5.1l5.1,5.1
		L100.4,115.9L100.4,115.9z M106.4,109.9l-5.1-5.1l5.1-5.1l5.1,5.1L106.4,109.9L106.4,109.9z M112.4,103.9l-5.1-5.1l5.1-5.1l5.1,5.1
		L112.4,103.9L112.4,103.9z M82.4,122l-5.1-5.1l5.1-5.1l5.1,5.1L82.4,122L82.4,122z M88.4,115.9l-5.1-5.1l5.1-5.1l5.1,5.1
		L88.4,115.9L88.4,115.9z M94.4,109.9l-5.1-5.1l5.1-5.1l5.1,5.1L94.4,109.9L94.4,109.9z M100.4,103.9l-5.1-5.1l5.1-5.1l5.1,5.1
		L100.4,103.9L100.4,103.9z M106.4,97.9l-5.1-5.1l5.1-5.1l5.1,5.1L106.4,97.9L106.4,97.9z M112.4,91.9l-5.1-5.1l5.1-5.1l5.1,5.1
		L112.4,91.9L112.4,91.9z M64.3,128l-5.1-5.1l5.1-5.1l5.1,5.1L64.3,128L64.3,128z M70.3,122l-5.1-5.1l5.1-5.1l5.1,5.1L70.3,122
		L70.3,122z M76.4,115.9l-5.1-5.1l5.1-5.1l5.1,5.1L76.4,115.9L76.4,115.9z M82.4,109.9l-5.1-5.1l5.1-5.1l5.1,5.1L82.4,109.9
		L82.4,109.9z M88.4,103.9l-5.1-5.1l5.1-5.1l5.1,5.1L88.4,103.9L88.4,103.9z M94.4,97.9l-5.1-5.1l5.1-5.1l5.1,5.1L94.4,97.9
		L94.4,97.9z M100.4,91.9l-5.1-5.1l5.1-5.1l5.1,5.1L100.4,91.9L100.4,91.9z M106.4,85.9l-5.1-5.1l5.1-5.1l5.1,5.1L106.4,85.9
		L106.4,85.9z M112.4,79.9l-5.1-5.1l5.1-5.1l5.1,5.1L112.4,79.9L112.4,79.9z M52.3,128l-5.1-5.1l5.1-5.1l5.1,5.1L52.3,128L52.3,128z
		 M58.3,122l-5.1-5.1l5.1-5.1l5.1,5.1L58.3,122L58.3,122z M64.3,115.9l-5.1-5.1l5.1-5.1l5.1,5.1L64.3,115.9L64.3,115.9z M70.3,109.9
		l-5.1-5.1l5.1-5.1l5.1,5.1L70.3,109.9L70.3,109.9z M76.4,103.9l-5.1-5.1l5.1-5.1l5.1,5.1L76.4,103.9L76.4,103.9z M82.4,97.9
		l-5.1-5.1l5.1-5.1l5.1,5.1L82.4,97.9L82.4,97.9z M88.4,91.9l-5.1-5.1l5.1-5.1l5.1,5.1L88.4,91.9L88.4,91.9z M94.4,85.9l-5.1-5.1
		l5.1-5.1l5.1,5.1L94.4,85.9L94.4,85.9z M100.4,79.9l-5.1-5.1l5.1-5.1l5.1,5.1L100.4,79.9L100.4,79.9z M106.4,73.8l-5.1-5.1l5.1-5.1
		l5.1,5.1L106.4,73.8L106.4,73.8z M112.4,67.8l-5.1-5.1l5.1-5.1l5.1,5.1L112.4,67.8L112.4,67.8z M46.3,122l-5.1-5.1l5.1-5.1l5.1,5.1
		L46.3,122L46.3,122z M52.3,115.9l-5.1-5.1l5.1-5.1l5.1,5.1L52.3,115.9L52.3,115.9z M58.3,109.9l-5.1-5.1l5.1-5.1l5.1,5.1
		L58.3,109.9L58.3,109.9z M64.3,103.9l-5.1-5.1l5.1-5.1l5.1,5.1L64.3,103.9L64.3,103.9z M70.3,97.9l-5.1-5.1l5.1-5.1l5.1,5.1
		L70.3,97.9L70.3,97.9z M76.4,91.9l-5.1-5.1l5.1-5.1l5.1,5.1L76.4,91.9L76.4,91.9z M82.4,85.9l-5.1-5.1l5.1-5.1l5.1,5.1L82.4,85.9
		L82.4,85.9z M88.4,79.9l-5.1-5.1l5.1-5.1l5.1,5.1L88.4,79.9L88.4,79.9z M94.4,73.8l-5.1-5.1l5.1-5.1l5.1,5.1L94.4,73.8L94.4,73.8z
		 M100.4,67.8l-5.1-5.1l5.1-5.1l5.1,5.1L100.4,67.8L100.4,67.8z M106.4,61.8l-5.1-5.1l5.1-5.1l5.1,5.1L106.4,61.8L106.4,61.8z
		 M112.4,55.8l-5.1-5.1l5.1-5.1l5.1,5.1L112.4,55.8L112.4,55.8z M37.1,132.9l-2.7,2.7l-0.1-0.1l-0.1,0.1l-2.4-2.4l0.9-0.9l1.6,1.6
		l1.9-1.9L37.1,132.9L37.1,132.9z M40.3,115.9l-5.1-5.1l5.1-5.1l5.1,5.1L40.3,115.9L40.3,115.9z M46.3,109.9l-5.1-5.1l5.1-5.1
		l5.1,5.1L46.3,109.9L46.3,109.9z M52.3,103.9l-5.1-5.1l5.1-5.1l5.1,5.1L52.3,103.9L52.3,103.9z M58.3,97.9l-5.1-5.1l5.1-5.1
		l5.1,5.1L58.3,97.9L58.3,97.9z M64.3,91.9l-5.1-5.1l5.1-5.1l5.1,5.1L64.3,91.9L64.3,91.9z M70.3,85.9l-5.1-5.1l5.1-5.1l5.1,5.1
		L70.3,85.9L70.3,85.9z M76.4,79.9l-5.1-5.1l5.1-5.1l5.1,5.1L76.4,79.9L76.4,79.9z M82.4,73.8l-5.1-5.1l5.1-5.1l5.1,5.1L82.4,73.8
		L82.4,73.8z M88.4,67.8l-5.1-5.1l5.1-5.1l5.1,5.1L88.4,67.8L88.4,67.8z M94.4,61.8l-5.1-5.1l5.1-5.1l5.1,5.1L94.4,61.8L94.4,61.8z
		 M100.4,55.8l-5.1-5.1l5.1-5.1l5.1,5.1L100.4,55.8L100.4,55.8z M106.4,49.8l-5.1-5.1l5.1-5.1l5.1,5.1L106.4,49.8L106.4,49.8z
		 M112.4,43.8l-5.1-5.1l5.1-5.1l5.1,5.1L112.4,43.8L112.4,43.8z M40.3,103.9l-5.1-5.1l5.1-5.1l5.1,5.1L40.3,103.9L40.3,103.9z
		 M46.3,97.9l-5.1-5.1l5.1-5.1l5.1,5.1L46.3,97.9L46.3,97.9z M52.3,91.9l-5.1-5.1l5.1-5.1l5.1,5.1L52.3,91.9L52.3,91.9z M58.3,85.9
		l-5.1-5.1l5.1-5.1l5.1,5.1L58.3,85.9L58.3,85.9z M64.3,79.9l-5.1-5.1l5.1-5.1l5.1,5.1L64.3,79.9L64.3,79.9z M70.3,73.8l-5.1-5.1
		l5.1-5.1l5.1,5.1L70.3,73.8L70.3,73.8z M76.4,67.8l-5.1-5.1l5.1-5.1l5.1,5.1L76.4,67.8L76.4,67.8z M82.4,61.8l-5.1-5.1l5.1-5.1
		l5.1,5.1L82.4,61.8L82.4,61.8z M88.4,55.8l-5.1-5.1l5.1-5.1l5.1,5.1L88.4,55.8L88.4,55.8z M94.4,49.8l-5.1-5.1l5.1-5.1l5.1,5.1
		L94.4,49.8L94.4,49.8z M100.4,43.8l-5.1-5.1l5.1-5.1l5.1,5.1L100.4,43.8L100.4,43.8z M106.4,37.8l-5.1-5.1l5.1-5.1l5.1,5.1
		L106.4,37.8L106.4,37.8z M112.4,31.8l-5.1-5.1l5.1-5.1l5.1,5.1L112.4,31.8L112.4,31.8z M40.3,91.9l-5.1-5.1l5.1-5.1l5.1,5.1
		L40.3,91.9L40.3,91.9z M46.3,85.9l-5.1-5.1l5.1-5.1l5.1,5.1L46.3,85.9L46.3,85.9z M52.3,79.9l-5.1-5.1l5.1-5.1l5.1,5.1L52.3,79.9
		L52.3,79.9z M58.3,73.8l-5.1-5.1l5.1-5.1l5.1,5.1L58.3,73.8L58.3,73.8z M64.3,67.8l-5.1-5.1l5.1-5.1l5.1,5.1L64.3,67.8L64.3,67.8z
		 M70.3,61.8l-5.1-5.1l5.1-5.1l5.1,5.1L70.3,61.8L70.3,61.8z M76.4,55.8l-5.1-5.1l5.1-5.1l5.1,5.1L76.4,55.8L76.4,55.8z M82.4,49.8
		l-5.1-5.1l5.1-5.1l5.1,5.1L82.4,49.8L82.4,49.8z M88.4,43.8l-5.1-5.1l5.1-5.1l5.1,5.1L88.4,43.8L88.4,43.8z M94.4,37.8l-5.1-5.1
		l5.1-5.1l5.1,5.1L94.4,37.8L94.4,37.8z M100.4,31.8l-5.1-5.1l5.1-5.1l5.1,5.1L100.4,31.8L100.4,31.8z M106.4,25.7l-5.1-5.1l5.1-5.1
		l5.1,5.1L106.4,25.7L106.4,25.7z M40.3,79.9l-5.1-5.1l5.1-5.1l5.1,5.1L40.3,79.9L40.3,79.9z M46.3,73.8l-5.1-5.1l5.1-5.1l5.1,5.1
		L46.3,73.8L46.3,73.8z M52.3,67.8l-5.1-5.1l5.1-5.1l5.1,5.1L52.3,67.8L52.3,67.8z M58.3,61.8l-5.1-5.1l5.1-5.1l5.1,5.1L58.3,61.8
		L58.3,61.8z M64.3,55.8l-5.1-5.1l5.1-5.1l5.1,5.1L64.3,55.8L64.3,55.8z M70.3,49.8l-5.1-5.1l5.1-5.1l5.1,5.1L70.3,49.8L70.3,49.8z
		 M76.4,43.8l-5.1-5.1l5.1-5.1l5.1,5.1L76.4,43.8L76.4,43.8z M82.4,37.8l-5.1-5.1l5.1-5.1l5.1,5.1L82.4,37.8L82.4,37.8z M88.4,31.8
		l-5.1-5.1l5.1-5.1l5.1,5.1L88.4,31.8L88.4,31.8z M94.4,25.7l-5.1-5.1l5.1-5.1l5.1,5.1L94.4,25.7L94.4,25.7z M40.3,67.8l-5.1-5.1
		l5.1-5.1l5.1,5.1L40.3,67.8L40.3,67.8z M46.3,61.8l-5.1-5.1l5.1-5.1l5.1,5.1L46.3,61.8L46.3,61.8z M52.3,55.8l-5.1-5.1l5.1-5.1
		l5.1,5.1L52.3,55.8L52.3,55.8z M58.3,49.8l-5.1-5.1l5.1-5.1l5.1,5.1L58.3,49.8L58.3,49.8z M64.3,43.8l-5.1-5.1l5.1-5.1l5.1,5.1
		L64.3,43.8L64.3,43.8z M70.3,37.8l-5.1-5.1l5.1-5.1l5.1,5.1L70.3,37.8L70.3,37.8z M76.4,31.8l-5.1-5.1l5.1-5.1l5.1,5.1L76.4,31.8
		L76.4,31.8z M82.4,25.7l-5.1-5.1l5.1-5.1l5.1,5.1L82.4,25.7L82.4,25.7z M40.3,55.8l-5.1-5.1l5.1-5.1l5.1,5.1L40.3,55.8L40.3,55.8z
		 M46.3,49.8l-5.1-5.1l5.1-5.1l5.1,5.1L46.3,49.8L46.3,49.8z M52.3,43.8l-5.1-5.1l5.1-5.1l5.1,5.1L52.3,43.8L52.3,43.8z M58.3,37.8
		l-5.1-5.1l5.1-5.1l5.1,5.1L58.3,37.8L58.3,37.8z M64.3,31.8l-5.1-5.1l5.1-5.1l5.1,5.1L64.3,31.8L64.3,31.8z M70.3,25.7l-5.1-5.1
		l5.1-5.1l5.1,5.1L70.3,25.7L70.3,25.7z M76.4,19.7l-5.1-5.1l5.1-5.1l5.1,5.1L76.4,19.7L76.4,19.7z M40.3,43.8l-5.1-5.1l5.1-5.1
		l5.1,5.1L40.3,43.8L40.3,43.8z M46.3,37.8l-5.1-5.1l5.1-5.1l5.1,5.1L46.3,37.8L46.3,37.8z M52.3,31.8l-5.1-5.1l5.1-5.1l5.1,5.1
		L52.3,31.8L52.3,31.8z M58.3,25.7l-5.1-5.1l5.1-5.1l5.1,5.1L58.3,25.7L58.3,25.7z M40.3,31.8l-5.1-5.1l5.1-5.1l5.1,5.1L40.3,31.8
		L40.3,31.8z M46.3,25.7l-5.1-5.1l5.1-5.1l5.1,5.1L46.3,25.7L46.3,25.7z M58.3,3.4l-3.6,3.6l-0.9-0.9l4.5-4.5l0.1,0.1l0.1-0.1
		l5.2,5.2l-0.9,0.9L58.3,3.4z"/>
	<path class="st3" d="M17.5,2.2h9.9l2.2,11.6h0.6h4.6h0.6l2.2-11.6h7.2L47,13.8h0.6h4.6h0.6l2.2-11.6h7.1l2.2,11.6h0.6h4.6h0.6
		l2.2-11.6h7.2l2.2,11.6h0.6H87h0.6l2.2-11.6h7.4l2.2,11.6h0.6h4.6h0.6l2.2-11.6h7.2l2.2,11.6h0.6h4.6h0.6l2.2-11.6h8.3l14.9,14.9
		v107.4l-9.8,9.8l-6.3-7.8 M18.3,126.6l-6.1,7.5l-10-10V17.5L17.5,2.2 M25.5,126.6c-2.4,0-4.8,0-7.1,0 M124.8,126.6l-1.6,8.6h-8.1
		l-1.6-8.6h-0.6h-4.6h-0.6l-1.6,8.6h-8.3l-1.6-8.6h-0.6h-4.6h-0.6l-1.6,8.6H80l-1.6-8.6h-0.6h-4.6h-0.6l-1.6,8.6h-8.3l-1.6-8.6h-0.6
		h-4.6H55l-1.6,8.6h-8.2l-1.6-8.6H43h-4.6h-0.6l-1.6,8.6h-9l-1.6-8.6 M132,126.6c-2.4,0-4.8,0-7.1,0"/>
	<g>
		<line class="st4" x1="127.4" y1="3.1" x2="127.4" y2="124.6"/>
		<path class="st4" d="M147.9,112c-12.2-11.2-19.8-27.3-19.8-45.2c0-17.9,7.7-34.1,19.9-45.3"/>
		<path class="st4" d="M148.3,95.3c-5.6-8.1-8.9-18-8.9-28.6c0-10.5,3.4-19.8,8.9-28.4"/>
		<path class="st4" d="M126.4,72.6c-2.1,0-4.1-0.4-5.9-1.2 M120.5,43.4c1.8-0.8,3.8-1.2,5.9-1.2"/>
		<g>
			<path class="st4" d="M24.9,115.9c-5.4,5.3-11.9,9.3-19,11.4"/>
			<path class="st4" d="M5.4,14.5c7.3,2,13.9,6,19.5,11.5"/>
			<path class="st4" d="M2.2,35.8c13,4,22.6,18.2,22.6,35.1c0,16.9-9.6,31.1-22.6,35.1"/>
			<path class="st4" d="M2.2,52.4c5.7,3.4,9.6,10.4,9.6,18.5c0,8.1-3.9,15.2-9.6,18.5"/>
		</g>
		<path class="st4" d="M32.3,71.5c-0.9-3.9-1.3-7.9-1.3-12c0-4.1,0.5-8.2,1.3-12"/>
		<line class="st4" x1="25.1" y1="2.9" x2="25.1" y2="126.6"/>
		<path class="st4" d="M32.3,108c-2.8-3.3-5.2-6.7-7-10.4"/>
		<path class="st4" d="M127.4,90.1c-2.4-0.3-4.8-0.9-7-1.8"/>
		<path class="st4" d="M127.4,116.7c-2.4-0.2-4.8-0.6-7-1.1"/>
		<path class="st4" d="M127.4,21.7c-2.4,0.2-4.8,0.6-7,1.1"/>
	</g>
</g>
</svg>
