<?xml version="1.0" encoding="utf-8"?>
<!-- Generator: Adobe Illustrator 22.0.1, SVG Export Plug-In . SVG Version: 6.00 Build 0)  -->
<svg version="1.1" id="_x31_" xmlns="http://www.w3.org/2000/svg" xmlns:xlink="http://www.w3.org/1999/xlink" x="0px" y="0px"
	 viewBox="0 0 150.3 137.4" style="enable-background:new 0 0 150.3 137.4;" xml:space="preserve">
<style type="text/css">
	.st0{fill-rule:evenodd;clip-rule:evenodd;fill:#D67E33;}
	.st1{fill-rule:evenodd;clip-rule:evenodd;fill:none;stroke:#BC572B;stroke-width:1.2351;stroke-miterlimit:22.9256;}
	.st2{fill-rule:evenodd;clip-rule:evenodd;fill:#E6E6E6;}
	.st3{fill-rule:evenodd;clip-rule:evenodd;fill:#CCCCCC;}
	
		.st4{fill-rule:evenodd;clip-rule:evenodd;fill:none;stroke:#BC572B;stroke-width:4.3571;stroke-linecap:round;stroke-linejoin:round;stroke-miterlimit:22.9256;}
</style>
<g>
	<path class="st0" d="M17.5,2.2h9.9l2.2,11.6h0.6h4.6h0.6l2.2-11.6h7.2L47,13.8h0.6h4.6h0.6l2.2-11.6h7.1l2.2,11.6h0.6h4.6h0.6
		l2.2-11.6h7.2l2.2,11.6h0.6H87h0.6l2.2-11.6h7.4l2.2,11.6h0.6h4.6h0.6l2.2-11.6h7.2l2.2,11.6h0.6h4.6h0.6l2.2-11.6h8.3l14.9,14.9
		v107.4l-9.8,9.8l-6.3-7.8c-2.4,0-4.8,0-7.1,0l-1.6,8.6h-8.1l-1.6-8.6h-0.6h-4.6h-0.6l-1.6,8.6h-8.3l-1.6-8.6h-0.6h-4.6h-0.6
		l-1.6,8.6H80l-1.6-8.6h-0.6h-4.6h-0.6l-1.6,8.6h-8.3l-1.6-8.6h-0.6h-4.6H55l-1.6,8.6h-8.2l-1.6-8.6H43h-4.6h-0.6l-1.6,8.6h-9
		l-1.6-8.6c-2.4,0-4.8,0-7.1,0l-6.1,7.5l-10-10V17.5L17.5,2.2z"/>
	<g>
		<line class="st1" x1="127.4" y1="2.8" x2="127.4" y2="124.3"/>
		<path class="st1" d="M147.9,111.6c-12.2-11.2-19.8-27.3-19.8-45.2c0-17.9,7.7-34.1,19.9-45.3"/>
		<path class="st1" d="M148.3,95c-5.6-8.1-8.9-18-8.9-28.6c0-10.5,3.4-19.8,8.9-28.4"/>
		<path class="st1" d="M126.4,72.2c-8.4,0-15.2-6.8-15.2-15.2c0-8.4,6.8-15.2,15.2-15.2"/>
		<path class="st1" d="M24.9,115.6c-5.4,5.3-11.9,9.3-19,11.4"/>
		<path class="st1" d="M5.4,14.1c7.3,2,13.9,6,19.5,11.5"/>
		<path class="st1" d="M2.2,35.5c13,4,22.6,18.2,22.6,35.1c0,16.9-9.6,31.1-22.6,35.1"/>
		<path class="st1" d="M2.2,52.1c5.7,3.4,9.6,10.4,9.6,18.5c0,8.1-3.9,15.2-9.6,18.5"/>
		<path class="st1" d="M46.7,96.9C37,87.6,30.9,74.1,30.9,59.1c0-15,6.1-28.4,15.8-37.7"/>
		<line class="st1" x1="104.4" y1="13.4" x2="104.4" y2="134.9"/>
		<line class="st1" x1="46.7" y1="13.4" x2="46.7" y2="134.9"/>
		<line class="st1" x1="25.1" y1="2.5" x2="25.1" y2="126.2"/>
		<path class="st1" d="M46.6,119.6c-9.7-6-17.1-13.7-21.3-22.4"/>
		<path class="st1" d="M127.4,89.7c-10.3-1.4-18.9-7.9-23.2-16.9"/>
		<path class="st1" d="M127.4,116.4c-10.3-0.8-18.9-4.7-23.2-10.1"/>
		<path class="st1" d="M127.4,21.4c-10.3,0.8-18.9,4.7-23.2,10.1"/>
		<path class="st1" d="M102.9,65.1c0.3,1.7,0.5,3.5,0.5,5.3c0,1.8-0.2,3.6-0.5,5.3"/>
		<path class="st1" d="M46.6,20.5c1-0.6,2.1-1.2,3.1-1.8 M54.3,16.6c0.7-0.3,1.4-0.6,2.1-0.8c2.5-1,5.1-1.7,7.7-2.3"/>
		<path class="st1" d="M88.2,13.1c3.9,0.8,7.7,1.9,11.3,3.5 M102.9,18.1c0.6,0.3,1.2,0.6,1.8,0.9"/>
		<path class="st1" d="M104.4,105.3c-0.5,0.4-0.9,0.7-1.4,1 M49.8,104.9c-0.9-0.7-1.8-1.5-2.7-2.3"/>
		<path class="st1" d="M46.6,39.1c1-1,2-1.9,3.1-2.8 M102.9,34.8c0.5,0.4,1,0.7,1.5,1.1"/>
	</g>
	<polygon class="st2" points="49.8,13.8 52.3,13.8 52.9,13.8 55.1,2.2 62.1,2.2 64.3,13.8 64.9,13.8 69.6,13.8 70.2,13.8 72.4,2.2 
		79.6,2.2 81.8,13.8 82.4,13.8 87,13.8 87.6,13.8 89.8,2.2 97.2,2.2 99.4,13.8 100,13.8 102.9,13.8 102.9,135.2 97.6,135.2 
		96,126.6 95.4,126.6 90.7,126.6 90.1,126.6 88.5,135.2 80,135.2 78.3,126.6 77.7,126.6 73.1,126.6 72.5,126.6 70.9,135.2 
		62.5,135.2 60.9,126.6 60.3,126.6 55.6,126.6 55,126.6 53.4,135.2 49.8,135.2 	"/>
	<path class="st3" d="M103.4,126.7l-2.1,2.1l2.1,2.1l-0.9,0.9l-2.1-2.1l-2.9,2.9l-0.9-0.9l2.9-2.9l-5.1-5.1l-3.3,3.3l-0.9-0.9
		l3.3-3.3l-5.1-5.1l-5.1,5.1l5.1,5.1l1.2-1.2l0.9,0.9l-1.2,1.2l0.7,0.7l-0.9,0.9l-0.7-0.7l-6,6l-0.1-0.1l-0.1,0.1l-3.4-3.4l0.9-0.9
		l2.6,2.6l5.1-5.1l-5.1-5.1l-3.5,3.5l-0.9-0.9l3.5-3.5l-5.1-5.1l-5.1,5.1l3.3,3.3l-0.9,0.9l-3.3-3.3l-5.1,5.1l5.1,5.1l0.3-0.3
		l0.9,0.9l-1.1,1.1l-0.1-0.1l-0.1,0.1l-6-6l-2.1,2.1l-0.9-0.9l2.1-2.1l-5.1-5.1l-5.1,5.1l1.5,1.5l-0.9,0.9l-1.5-1.5l-2.1,2.1
		l-0.9-0.9l2.1-2.1l-2.1-2.1l0.9-0.9l2.1,2.1l5.1-5.1l-5.1-5.1l-2.1,2.1l-0.9-0.9l2.1-2.1l-2.1-2.1l0.9-0.9l2.1,2.1l5.1-5.1
		l-5.1-5.1l-2.1,2.1l-0.9-0.9l2.1-2.1l-2.1-2.1l0.9-0.9l2.1,2.1l5.1-5.1l-5.1-5.1l-2.1,2.1l-0.9-0.9l2.1-2.1l-2.1-2.1l0.9-0.9
		l2.1,2.1l5.1-5.1l-5.1-5.1l-2.1,2.1l-0.9-0.9l2.1-2.1l-2.1-2.1l0.9-0.9l2.1,2.1l5.1-5.1l-5.1-5.1l-2.1,2.1l-0.9-0.9l2.1-2.1
		l-2.1-2.1l0.9-0.9l2.1,2.1l5.1-5.1l-5.1-5.1l-2.1,2.1l-0.9-0.9l2.1-2.1l-2.1-2.1l0.9-0.9l2.1,2.1l5.1-5.1l-5.1-5.1l-2.1,2.1
		l-0.9-0.9l2.1-2.1l-2.1-2.1l0.9-0.9l2.1,2.1l5.1-5.1l-5.1-5.1l-2.1,2.1l-0.9-0.9l2.1-2.1l-2.1-2.1l0.9-0.9l2.1,2.1l5.1-5.1
		l-5.1-5.1l-2.1,2.1l-0.9-0.9l2.1-2.1l-2.1-2.1l0.9-0.9l2.1,2.1l5.1-5.1l-4.3-4.3l0.9-0.9l4.3,4.3L63.1,9l0.9,0.9l-4.8,4.8l5.1,5.1
		l5.1-5.1l-0.4-0.4l0.9-0.9l0.4,0.4l5.1-5.1l-3.9-3.9l0.9-0.9l3.9,3.9l3.3-3.3l0.9,0.9l-3.3,3.3l5.1,5.1l0.4-0.4l0.9,0.9l-0.4,0.4
		l5.1,5.1l5.1-5.1l-5.4-5.4l0.7-0.7l-0.6-0.6l6.1-6.1l0.1,0.1l0.1-0.1l4,4l-0.9,0.9l-3.1-3.1l-5.1,5.1l5.1,5.1l3.9-3.9l0.9,0.9
		l-3.9,3.9l5.1,5.1l2.1-2.1l0.9,0.9l-2.1,2.1l2.1,2.1l-0.9,0.9l-2.1-2.1l-5.1,5.1l5.1,5.1l2.1-2.1l0.9,0.9l-2.1,2.1l2.1,2.1
		l-0.9,0.9l-2.1-2.1l-5.1,5.1l5.1,5.1l2.1-2.1l0.9,0.9l-2.1,2.1l2.1,2.1l-0.9,0.9l-2.1-2.1l-5.1,5.1l5.1,5.1l2.1-2.1l0.9,0.9
		l-2.1,2.1l2.1,2.1l-0.9,0.9l-2.1-2.1l-5.1,5.1l5.1,5.1l2.1-2.1l0.9,0.9l-2.1,2.1l2.1,2.1l-0.9,0.9l-2.1-2.1l-5.1,5.1l5.1,5.1
		l2.1-2.1l0.9,0.9l-2.1,2.1l2.1,2.1l-0.9,0.9l-2.1-2.1l-5.1,5.1l5.1,5.1l2.1-2.1l0.9,0.9l-2.1,2.1l2.1,2.1l-0.9,0.9l-2.1-2.1
		l-5.1,5.1l5.1,5.1l2.1-2.1l0.9,0.9l-2.1,2.1l2.1,2.1l-0.9,0.9l-2.1-2.1l-5.1,5.1l5.1,5.1l2.1-2.1l0.9,0.9l-2.1,2.1l2.1,2.1
		l-0.9,0.9l-2.1-2.1l-5.1,5.1l5.1,5.1l2.1-2.1L103.4,126.7L103.4,126.7z M94.4,122l5.1-5.1l-5.1-5.1l-5.1,5.1L94.4,122L94.4,122z
		 M82.4,122l5.1-5.1l-5.1-5.1l-5.1,5.1L82.4,122L82.4,122z M88.4,115.9l5.1-5.1l-5.1-5.1l-5.1,5.1L88.4,115.9L88.4,115.9z
		 M94.4,109.9l5.1-5.1l-5.1-5.1l-5.1,5.1L94.4,109.9L94.4,109.9z M64.3,128l5.1-5.1l-5.1-5.1l-5.1,5.1L64.3,128L64.3,128z M70.3,122
		l5.1-5.1l-5.1-5.1l-5.1,5.1L70.3,122L70.3,122z M76.4,115.9l5.1-5.1l-5.1-5.1l-5.1,5.1L76.4,115.9L76.4,115.9z M82.4,109.9l5.1-5.1
		l-5.1-5.1l-5.1,5.1L82.4,109.9L82.4,109.9z M88.4,103.9l5.1-5.1l-5.1-5.1l-5.1,5.1L88.4,103.9L88.4,103.9z M94.4,97.9l5.1-5.1
		l-5.1-5.1l-5.1,5.1L94.4,97.9L94.4,97.9z M58.3,122l5.1-5.1l-5.1-5.1l-5.1,5.1L58.3,122L58.3,122z M64.3,115.9l5.1-5.1l-5.1-5.1
		l-5.1,5.1L64.3,115.9L64.3,115.9z M70.3,109.9l5.1-5.1l-5.1-5.1l-5.1,5.1L70.3,109.9L70.3,109.9z M76.4,103.9l5.1-5.1l-5.1-5.1
		l-5.1,5.1L76.4,103.9L76.4,103.9z M82.4,97.9l5.1-5.1l-5.1-5.1l-5.1,5.1L82.4,97.9L82.4,97.9z M88.4,91.9l5.1-5.1l-5.1-5.1
		l-5.1,5.1L88.4,91.9L88.4,91.9z M94.4,85.9l5.1-5.1l-5.1-5.1l-5.1,5.1L94.4,85.9L94.4,85.9z M58.3,109.9l5.1-5.1l-5.1-5.1l-5.1,5.1
		L58.3,109.9L58.3,109.9z M64.3,103.9l5.1-5.1l-5.1-5.1l-5.1,5.1L64.3,103.9L64.3,103.9z M70.3,97.9l5.1-5.1l-5.1-5.1l-5.1,5.1
		L70.3,97.9L70.3,97.9z M76.4,91.9l5.1-5.1l-5.1-5.1l-5.1,5.1L76.4,91.9L76.4,91.9z M82.4,85.9l5.1-5.1l-5.1-5.1l-5.1,5.1L82.4,85.9
		L82.4,85.9z M88.4,79.9l5.1-5.1l-5.1-5.1l-5.1,5.1L88.4,79.9L88.4,79.9z M94.4,73.8l5.1-5.1l-5.1-5.1l-5.1,5.1L94.4,73.8L94.4,73.8
		z M58.3,97.9l5.1-5.1l-5.1-5.1l-5.1,5.1L58.3,97.9L58.3,97.9z M64.3,91.9l5.1-5.1l-5.1-5.1l-5.1,5.1L64.3,91.9L64.3,91.9z
		 M70.3,85.9l5.1-5.1l-5.1-5.1l-5.1,5.1L70.3,85.9L70.3,85.9z M76.4,79.9l5.1-5.1l-5.1-5.1l-5.1,5.1L76.4,79.9L76.4,79.9z
		 M82.4,73.8l5.1-5.1l-5.1-5.1l-5.1,5.1L82.4,73.8L82.4,73.8z M88.4,67.8l5.1-5.1l-5.1-5.1l-5.1,5.1L88.4,67.8L88.4,67.8z
		 M94.4,61.8l5.1-5.1l-5.1-5.1l-5.1,5.1L94.4,61.8L94.4,61.8z M58.3,85.9l5.1-5.1l-5.1-5.1l-5.1,5.1L58.3,85.9L58.3,85.9z
		 M64.3,79.9l5.1-5.1l-5.1-5.1l-5.1,5.1L64.3,79.9L64.3,79.9z M70.3,73.8l5.1-5.1l-5.1-5.1l-5.1,5.1L70.3,73.8L70.3,73.8z
		 M76.4,67.8l5.1-5.1l-5.1-5.1l-5.1,5.1L76.4,67.8L76.4,67.8z M82.4,61.8l5.1-5.1l-5.1-5.1l-5.1,5.1L82.4,61.8L82.4,61.8z
		 M88.4,55.8l5.1-5.1l-5.1-5.1l-5.1,5.1L88.4,55.8L88.4,55.8z M94.4,49.8l5.1-5.1l-5.1-5.1l-5.1,5.1L94.4,49.8L94.4,49.8z
		 M58.3,73.8l5.1-5.1l-5.1-5.1l-5.1,5.1L58.3,73.8L58.3,73.8z M64.3,67.8l5.1-5.1l-5.1-5.1l-5.1,5.1L64.3,67.8L64.3,67.8z
		 M70.3,61.8l5.1-5.1l-5.1-5.1l-5.1,5.1L70.3,61.8L70.3,61.8z M76.4,55.8l5.1-5.1l-5.1-5.1l-5.1,5.1L76.4,55.8L76.4,55.8z
		 M82.4,49.8l5.1-5.1l-5.1-5.1l-5.1,5.1L82.4,49.8L82.4,49.8z M88.4,43.8l5.1-5.1l-5.1-5.1l-5.1,5.1L88.4,43.8L88.4,43.8z
		 M94.4,37.8l5.1-5.1l-5.1-5.1l-5.1,5.1L94.4,37.8L94.4,37.8z M58.3,61.8l5.1-5.1l-5.1-5.1l-5.1,5.1L58.3,61.8L58.3,61.8z
		 M64.3,55.8l5.1-5.1l-5.1-5.1l-5.1,5.1L64.3,55.8L64.3,55.8z M70.3,49.8l5.1-5.1l-5.1-5.1l-5.1,5.1L70.3,49.8L70.3,49.8z
		 M76.4,43.8l5.1-5.1l-5.1-5.1l-5.1,5.1L76.4,43.8L76.4,43.8z M82.4,37.8l5.1-5.1l-5.1-5.1l-5.1,5.1L82.4,37.8L82.4,37.8z
		 M88.4,31.8l5.1-5.1l-5.1-5.1l-5.1,5.1L88.4,31.8L88.4,31.8z M94.4,25.7l5.1-5.1l-5.1-5.1l-5.1,5.1L94.4,25.7L94.4,25.7z
		 M58.3,49.8l5.1-5.1l-5.1-5.1l-5.1,5.1L58.3,49.8L58.3,49.8z M64.3,43.8l5.1-5.1l-5.1-5.1l-5.1,5.1L64.3,43.8L64.3,43.8z
		 M70.3,37.8l5.1-5.1l-5.1-5.1l-5.1,5.1L70.3,37.8L70.3,37.8z M76.4,31.8l5.1-5.1l-5.1-5.1l-5.1,5.1L76.4,31.8L76.4,31.8z
		 M82.4,25.7l5.1-5.1l-5.1-5.1l-5.1,5.1L82.4,25.7L82.4,25.7z M58.3,37.8l5.1-5.1l-5.1-5.1l-5.1,5.1L58.3,37.8L58.3,37.8z
		 M64.3,31.8l5.1-5.1l-5.1-5.1l-5.1,5.1L64.3,31.8L64.3,31.8z M70.3,25.7l5.1-5.1l-5.1-5.1l-5.1,5.1L70.3,25.7L70.3,25.7z
		 M76.4,19.7l5.1-5.1l-5.1-5.1l-5.1,5.1L76.4,19.7L76.4,19.7z M58.3,25.7l5.1-5.1l-5.1-5.1l-5.1,5.1L58.3,25.7L58.3,25.7z M58.3,3.4
		l4.4,4.4l0.9-0.9l-5.2-5.2l-0.1,0.1l-0.1-0.1l-4.5,4.5l0.9,0.9L58.3,3.4z"/>
	<path class="st4" d="M17.5,2.2h9.9l2.2,11.6h0.6h4.6h0.6l2.2-11.6h7.2L47,13.8h0.6h4.6h0.6l2.2-11.6h7.1l2.2,11.6h0.6h4.6h0.6
		l2.2-11.6h7.2l2.2,11.6h0.6H87h0.6l2.2-11.6h7.4l2.2,11.6h0.6h4.6h0.6l2.2-11.6h7.2l2.2,11.6h0.6h4.6h0.6l2.2-11.6h8.3l14.9,14.9
		v107.4l-9.8,9.8l-6.3-7.8 M18.3,126.6l-6.1,7.5l-10-10V17.5L17.5,2.2 M25.5,126.6c-2.4,0-4.8,0-7.1,0 M124.8,126.6l-1.6,8.6h-8.1
		l-1.6-8.6h-0.6h-4.6h-0.6l-1.6,8.6h-8.3l-1.6-8.6h-0.6h-4.6h-0.6l-1.6,8.6H80l-1.6-8.6h-0.6h-4.6h-0.6l-1.6,8.6h-8.3l-1.6-8.6h-0.6
		h-4.6H55l-1.6,8.6h-8.2l-1.6-8.6H43h-4.6h-0.6l-1.6,8.6h-9l-1.6-8.6 M132,126.6c-2.4,0-4.8,0-7.1,0"/>
</g>
</svg>
