<?xml version="1.0" encoding="utf-8"?>
<!-- Generator: Adobe Illustrator 22.0.1, SVG Export Plug-In . SVG Version: 6.00 Build 0)  -->
<svg version="1.1" id="Слой_1" xmlns="http://www.w3.org/2000/svg" xmlns:xlink="http://www.w3.org/1999/xlink" x="0px" y="0px"
	 viewBox="0 0 377.2 158.2" style="enable-background:new 0 0 377.2 158.2;" xml:space="preserve">
<style type="text/css">
	.st0{fill-rule:evenodd;clip-rule:evenodd;fill:#D67E33;}
	
		.st1{fill-rule:evenodd;clip-rule:evenodd;fill:none;stroke:#BC582C;stroke-width:4.357;stroke-linecap:round;stroke-linejoin:round;stroke-miterlimit:22.9256;}
	.st2{fill-rule:evenodd;clip-rule:evenodd;fill:none;stroke:#BC582C;stroke-width:1.2349;stroke-miterlimit:22.9256;}
	.st3{fill-rule:evenodd;clip-rule:evenodd;fill:#DA8B47;}
	.st4{fill-rule:evenodd;clip-rule:evenodd;fill:#E4AA79;}
	
		.st5{fill-rule:evenodd;clip-rule:evenodd;fill:none;stroke:#BC582C;stroke-width:1.6338;stroke-linecap:round;stroke-linejoin:round;stroke-miterlimit:22.9256;}
	
		.st6{fill-rule:evenodd;clip-rule:evenodd;fill:none;stroke:#BC582C;stroke-width:2.1786;stroke-linecap:round;stroke-linejoin:round;stroke-miterlimit:22.9256;}
	
		.st7{fill-rule:evenodd;clip-rule:evenodd;fill:none;stroke:#E4AA79;stroke-width:1.6338;stroke-linecap:round;stroke-linejoin:round;stroke-miterlimit:22.9256;}
</style>
<g>
	<path class="st0" d="M244.4,12.4h9.9l2.2,11.6h0.6h4.6h0.6l2.2-11.6h7.2L274,24h0.6h4.6h0.6l2.2-11.6h7.1l2.2,11.6h0.6h4.6h0.6
		l2.2-11.6h7.2l2.2,11.6h0.6h4.6h0.6l2.2-11.6h7.4l2.2,11.6h0.6h4.6h0.6l2.2-11.6h7.2l2.2,11.6h0.6h4.6h0.6l2.2-11.6h8.3L375,27.3
		v107.4l-9.8,9.8l-6.3-7.8c-2.4,0-4.8,0-7.1,0l-1.6,8.6H342l-1.6-8.6h-0.6h-4.6h-0.6l-1.6,8.6h-8.3l-1.6-8.6h-0.6h-4.6h-0.6
		l-1.6,8.6h-8.5l-1.6-8.6h-0.6H300h-0.6l-1.6,8.6h-8.3l-1.6-8.6h-0.6h-4.6H282l-1.6,8.6h-8.2l-1.6-8.6h-0.6h-4.6h-0.6l-1.6,8.6h-9
		l-1.6-8.6c-2.4,0-4.8,0-7.1,0l-6.1,7.5l-10-10V27.8L244.4,12.4z"/>
	<g>
		<path class="st1" d="M244.4,12.4h9.9l2.2,11.6h0.6h4.6h0.6l2.2-11.6h7.2L274,24h0.6h4.6h0.6l2.2-11.6h7.1l2.2,11.6h0.6h4.6h0.6
			l2.2-11.6h7.2l2.2,11.6h0.6h4.6h0.6l2.2-11.6h7.4l2.2,11.6h0.6h4.6h0.6l2.2-11.6h7.2l2.2,11.6h0.6h4.6h0.6l2.2-11.6h8.3L375,27.3
			v107.4l-9.8,9.8l-6.3-7.8c-2.4,0-4.8,0-7.1,0l-1.6,8.6H342l-1.6-8.6h-0.6h-4.6h-0.6l-1.6,8.6h-8.3l-1.6-8.6h-0.6h-4.6h-0.6
			l-1.6,8.6h-8.5l-1.6-8.6h-0.6H300h-0.6l-1.6,8.6h-8.3l-1.6-8.6h-0.6h-4.6H282l-1.6,8.6h-8.2l-1.6-8.6h-0.6h-4.6h-0.6l-1.6,8.6h-9
			l-1.6-8.6c-2.4,0-4.8,0-7.1,0l-6.1,7.5l-10-10V27.8L244.4,12.4z"/>
		<line class="st2" x1="354.4" y1="13.4" x2="354.4" y2="134.9"/>
		<path class="st2" d="M374.8,122.2C362.6,111,355,94.9,355,77c0-17.9,7.7-34.1,19.9-45.3"/>
		<path class="st2" d="M375.2,105.6c-5.6-8.1-8.9-18-8.9-28.6c0-10.5,3.4-19.8,8.9-28.4"/>
		<path class="st2" d="M353.3,82.9c-8.4,0-15.2-6.8-15.2-15.2c0-8.4,6.8-15.2,15.2-15.2"/>
		<path class="st2" d="M304.1,70.1c6,0,10.9,4.9,10.9,10.9c0,6-4.9,10.9-10.9,10.9c-6,0-10.9-4.9-10.9-10.9
			C293.2,75,298.1,70.1,304.1,70.1z"/>
		<g>
			<path class="st2" d="M251.9,126.2c-5.4,5.3-11.9,9.3-19,11.4 M232.4,24.7c7.3,2,13.9,6,19.5,11.5"/>
			<path class="st2" d="M229.1,46.1c13,4,22.6,18.2,22.6,35.1c0,16.9-9.6,31.1-22.6,35.1"/>
			<path class="st2" d="M229.1,62.7c5.7,3.4,9.6,10.4,9.6,18.5c0,8.1-3.9,15.2-9.6,18.5"/>
		</g>
		<path class="st2" d="M273.6,107.5c-9.7-9.3-15.8-22.7-15.8-37.7c0-15,6.1-28.4,15.8-37.7"/>
		<line class="st2" x1="331.4" y1="24" x2="331.4" y2="145.5"/>
		<line class="st2" x1="273.7" y1="24" x2="273.7" y2="145.5"/>
		<line class="st2" x1="252" y1="13.1" x2="252" y2="136.9"/>
		<path class="st2" d="M273.5,130.2c-9.7-6-17.1-13.7-21.3-22.4"/>
		<path class="st2" d="M354.4,100.3c-10.3-1.4-18.9-7.9-23.2-16.9"/>
		<path class="st2" d="M354.4,127c-10.3-0.8-18.9-4.7-23.2-10.1"/>
		<path class="st2" d="M354.4,32c-10.3,0.8-18.9,4.7-23.2,10.1"/>
		<path class="st2" d="M327.1,68.2c2.1,3.8,3.3,8.1,3.3,12.8c0,12.8-9.2,23.5-21.3,25.8 M298.2,106.6c-11.7-2.7-20.4-13.1-20.4-25.6
			c0-14.5,11.8-26.3,26.3-26.3c3.8,0,7.4,0.8,10.6,2.2"/>
		<path class="st2" d="M273.6,31.1c3.1-1.9,6.3-3.5,9.8-4.8c2.5-1,5.1-1.7,7.7-2.3 M315.2,23.7c5.8,1.1,11.3,3.2,16.5,6"/>
		<path class="st2" d="M331.3,115.9c-3.4,2.6-7.3,4.8-11.5,6.4c-16.3,6.1-33.9,2-45.7-9.2 M273.6,49.7c4.2-4.1,9.3-7.4,15.2-9.7
			c14.9-5.6,30.9-2.6,42.6,6.5"/>
	</g>
</g>
<g>
	<g>
		<path class="st3" d="M87.5,87.2l-8.6-8.7l69.7-77.6l6.5,6.6L87.5,87.2L87.5,87.2z M155.1,7.4L87.9,87.7L155.1,7.4z"/>
		<polygon class="st0" points="87.5,150.8 155.1,60.9 155.1,7.4 87.9,87.7 		"/>
		<path class="st4" d="M10.2,78.3H16l1.3,6.9h0.4h2.7h0.4l1.3-6.9h4.3l1.3,6.9H28h2.7h0.4l1.3-6.9h4.2l1.3,6.9h0.4H41h0.4l1.3-6.9
			h4.3l1.3,6.9h0.4h2.7h0.4l1.3-6.9h4.4l1.3,6.9H59h2.7h0.4l1.3-6.9h4.3l1.3,6.9h0.4h2.7h0.4l1.3-6.9h4.9l8.8,8.8v63.6l-5.8,5.8
			l-3.7-4.6c-1.4,0-2.8,0-4.2,0l-1,5.1h-4.8l-1-5.1h-0.4h-2.7h-0.4l-1,5.1h-4.9l-1-5.1h-0.4h-2.7h-0.4l-1,5.1h-5l-1-5.1h-0.4h-2.7
			h-0.4l-1,5.1h-4.9l-1-5.1h-0.4h-2.7h-0.4l-1,5.1h-4.8l-1-5.1h-0.4h-2.7h-0.4l-1,5.1h-5.3l-1-5.1c-1.4,0-2.8,0-4.2,0L7,156.4
			l-5.9-5.9V87.4L10.2,78.3z"/>
		<polygon class="st0" points="137.8,0.8 137.8,0.8 137.8,0.8 133.6,0.8 127.9,7.1 129.1,1.7 128.8,0.8 128.8,0.8 128.8,0.8 
			124.3,0.8 119.2,6.4 118.7,0.8 118.7,0.8 118.7,0.8 114.4,0.8 110.6,4.9 109.9,0.8 109.9,0.8 109.9,0.8 105.5,0.8 101.3,5.3 
			101.3,0.8 101.3,0.8 101.3,0.8 97,0.8 90.9,6.8 91.6,0.8 86.9,0.8 9.6,78.5 10,78.5 10.2,78.3 16,78.3 16,78.5 16.3,78.5 
			16.2,79.5 17.3,85.2 17.7,85.2 20.4,85.2 20.8,85.2 22.1,78.3 26.3,78.3 27.6,85.2 28,85.2 30.7,85.2 31.1,85.2 32.4,78.3 
			36.6,78.3 37.9,85.2 38.2,85.2 41,85.2 41.3,85.2 42.6,78.3 46.9,78.3 48.2,85.2 48.6,85.2 51.3,85.2 51.7,85.2 53,78.3 
			57.4,78.3 58.7,85.2 59,85.2 61.8,85.2 62.1,85.2 63.4,78.3 67.7,78.3 69,85.2 69.4,85.2 72.1,85.2 72.5,85.2 73.8,78.3 
			78.8,78.3 78.8,78.3 138.7,11.6 148.3,0.8 144,0.8 138.3,7 137.8,1.6 		"/>
		<path class="st4" d="M61.8,68.3l-0.1-21.2l4.6,0.2l1.2,4.8c1.1,0,1.5,0,2.6,0l1.2-4.6h4.8l1.2,4.6c1.1,0,1.9,0,3,0l1.2-4.6H86
			l1.1,4.1L62.9,78.5l-1,6.7h-3.1l-1.2-6.8l9.7-10.8L61.8,68.3L61.8,68.3z M95.4,31.8l4.6,0.3L86.2,47.1l1.2,4.4l32.2-35.4l-1.1-4.3
			h-4.3l-1.2,4.8c-1.1,0-1.8,0-2.9,0l-1.2-4.8h-4.6l-1.2,4.8c-1.1,0-1.5,0-2.5,0l-1-5l-4.2-0.2L95.4,31.8z"/>
		<path class="st3" d="M73.5,78L144,0.8h4.4L79.1,78.5L73.5,78L73.5,78z M16.3,78.5L91.6,0.8h-4.7L9.6,78.5H10l0.2-0.2H16l0,0.2
			H16.3L16.3,78.5z M26.4,78.5l74.9-77.7H97L21.8,78.3l1.3,0.1h3.3L26.4,78.5L26.4,78.5L26.4,78.5z M57.4,78.5h-4.7l10-10.9h4.7
			L57.4,78.5L57.4,78.5z M86.2,47.1L100.1,32h-4.6L81.6,47.1H86.2L86.2,47.1z M118.9,11.6l9.9-10.7h-4.4l-9.9,10.7H118.9L118.9,11.6
			z M42.3,78.5l10.1-10.9H57L47,78.5H42.3L42.3,78.5z M71.4,47.1h4.6L89.9,32h-4.5L71.4,47.1L71.4,47.1z M104.4,11.6h4.4l9.9-10.7
			h-4.4L104.4,11.6L104.4,11.6z M36.8,78.5l-0.2,0l0-0.2c-1.6,0-3.1-0.1-4.5-0.1l10.1-10.7h4.8L36.8,78.5L36.8,78.5z M66.3,47.1
			L80.5,32h-4.6L61.7,47.1H66.3L66.3,47.1z M99.8,11.6l10.1-10.7h-4.4L95.3,11.6H99.8L99.8,11.6z M68.1,78.5l69.7-77.6h-4.2
			L62.9,78.5H68.1z"/>
	</g>
	<g>
		<polyline class="st5" points="87.5,150.8 155.1,60.9 155.1,7.4 87.9,87.7 		"/>
		<polyline class="st5" points="79.1,78.5 148.5,0.8 155.1,7.4 		"/>
		<polyline class="st5" points="73.5,78 144,0.8 148.1,0.8 		"/>
		<polygon class="st5" points="68.1,78.5 137.8,0.8 133.6,0.8 62.9,78.5 		"/>
		<g>
			<path class="st5" d="M57.4,78.5l10-10.9h-4.7l-10,10.9H57.4L57.4,78.5z M86.2,47.1L100.1,32h-4.6L81.6,47.1H86.2L86.2,47.1z
				 M118.9,11.6l9.9-10.7h-4.4l-9.9,10.7H118.9z"/>
			<path class="st5" d="M42.3,78.5l10.1-10.9H57L47,78.5H42.3L42.3,78.5z M71.4,47.1l14-15.1h4.5L75.9,47.1H71.4L71.4,47.1z
				 M104.4,11.6l10-10.7h4.4l-9.9,10.7H104.4z"/>
			<path class="st5" d="M36.8,78.5l10.3-10.9h-4.8L32.1,78.3c1.4,0,2.8,0.1,4.5,0.1l0,0.2L36.8,78.5L36.8,78.5z M66.3,47.1L80.5,32
				h-4.6L61.7,47.1H66.3L66.3,47.1z M99.8,11.6l10.1-10.7h-4.4L95.3,11.6H99.8z"/>
		</g>
		<polygon class="st5" points="26.4,78.5 101.3,0.8 97,0.8 21.8,78.3 23.1,78.3 26.3,78.3 26.4,78.5 		"/>
		<polygon class="st5" points="16.3,78.5 91.6,0.8 86.9,0.8 9.6,78.5 10,78.5 10.2,78.3 16,78.3 16,78.5 		"/>
		<line class="st5" x1="91.8" y1="0.8" x2="91.8" y2="6"/>
		<line class="st5" x1="101.3" y1="0.8" x2="101.3" y2="5.3"/>
		<line class="st5" x1="109.9" y1="0.8" x2="109.9" y2="5.5"/>
		<line class="st5" x1="118.7" y1="0.8" x2="118.7" y2="6.5"/>
		<line class="st5" x1="137.8" y1="0.8" x2="137.8" y2="7.1"/>
		<line class="st5" x1="128.8" y1="0.8" x2="128.8" y2="5.9"/>
		<line class="st5" x1="61.8" y1="47.2" x2="61.8" y2="68.3"/>
		<line class="st5" x1="95.4" y1="11.6" x2="95.4" y2="31.8"/>
		<path class="st5" d="M66.2,47.5l1.2,4.6c1.1,0,1.5,0,2.6,0l1.2-4.6h4.8l1.2,4.6c1.1,0,1.9,0,3,0l1.2-4.6H86l1.1,4.1"/>
		<path class="st5" d="M99.4,11.8l1.2,4.8c1.1,0,1.5,0,2.5,0l1.2-4.8h4.6l1.2,4.8c1.1,0,1.8,0,2.9,0l1.2-4.8h4.3l1.1,4.3"/>
		<line class="st5" x1="80.6" y1="32.2" x2="80.6" y2="36.7"/>
		<line class="st5" x1="89.9" y1="32.2" x2="89.9" y2="37.7"/>
		<line class="st5" x1="100.2" y1="32.2" x2="100.2" y2="37.1"/>
		<g>
			<path class="st6" d="M10.2,78.3H16l1.3,6.9h0.4h2.7h0.4l1.3-6.9h4.3l1.3,6.9H28h2.7h0.4l1.3-6.9h4.2l1.3,6.9h0.4H41h0.4l1.3-6.9
				h4.3l1.3,6.9h0.4h2.7h0.4l1.3-6.9h4.4l1.3,6.9H59h2.7h0.4l1.3-6.9h4.3l1.3,6.9h0.4h2.7h0.4l1.3-6.9h4.9l8.8,8.8v63.6l-5.8,5.8
				l-3.7-4.6c-1.4,0-2.8,0-4.2,0l-1,5.1h-4.8l-1-5.1h-0.4h-2.7h-0.4l-1,5.1h-4.9l-1-5.1h-0.4h-2.7h-0.4l-1,5.1h-5l-1-5.1h-0.4h-2.7
				h-0.4l-1,5.1h-4.9l-1-5.1h-0.4h-2.7h-0.4l-1,5.1h-4.8l-1-5.1h-0.4h-2.7h-0.4l-1,5.1h-5.3l-1-5.1c-1.4,0-2.8,0-4.2,0L7,156.4
				l-5.9-5.9V87.4L10.2,78.3z"/>
			<line class="st2" x1="75.2" y1="78.9" x2="75.2" y2="150.8"/>
			<path class="st2" d="M87.3,143.3c-7.2-6.7-11.7-16.2-11.7-26.8c0-10.6,4.5-20.2,11.8-26.8"/>
			<path class="st2" d="M87.6,133.5c-3.3-4.8-5.3-10.6-5.3-16.9c0-6.2,2-11.7,5.2-16.8"/>
			<path class="st2" d="M74.6,120c-5,0-9-4-9-9c0-5,4-9,9-9"/>
			<path class="st2" d="M45.5,112.5c3.6,0,6.4,2.9,6.4,6.4c0,3.6-2.9,6.4-6.4,6.4c-3.6,0-6.4-2.9-6.4-6.4
				C39,115.3,41.9,112.5,45.5,112.5z"/>
			<g>
				<path class="st2" d="M14.6,145.7c-3.2,3.1-7.1,5.5-11.2,6.7 M3,85.6c4.3,1.2,8.2,3.5,11.5,6.8"/>
				<path class="st2" d="M1.1,98.3c7.7,2.4,13.4,10.8,13.4,20.8c0,10-5.7,18.4-13.4,20.8"/>
				<path class="st2" d="M1.1,108.1c3.4,2,5.7,6.2,5.7,11c0,4.8-2.3,9-5.7,11"/>
			</g>
			<path class="st2" d="M27.4,134.6c-5.7-5.5-9.3-13.5-9.3-22.3c0-8.9,3.6-16.8,9.4-22.3"/>
			<line class="st2" x1="61.6" y1="85.2" x2="61.6" y2="157.1"/>
			<line class="st2" x1="27.5" y1="85.2" x2="27.5" y2="157.1"/>
			<line class="st2" x1="14.6" y1="78.8" x2="14.6" y2="152"/>
			<path class="st2" d="M27.4,148.1c-5.7-3.6-10.1-8.1-12.6-13.3"/>
			<path class="st2" d="M75.2,130.4c-6.1-0.8-11.2-4.7-13.7-10"/>
			<path class="st2" d="M75.2,146.2c-6.1-0.5-11.2-2.8-13.7-6"/>
			<path class="st2" d="M75.2,89.9c-6.1,0.5-11.2,2.8-13.7,6"/>
			<path class="st2" d="M59.1,111.4c1.2,2.2,2,4.8,2,7.6c0,7.6-5.4,13.9-12.6,15.3 M42,134.1c-6.9-1.6-12.1-7.8-12.1-15.2
				c0-8.6,7-15.6,15.6-15.6c2.2,0,4.4,0.5,6.3,1.3"/>
			<path class="st2" d="M27.4,89.4c1.8-1.1,3.7-2,5.8-2.8c1.5-0.6,3-1,4.5-1.4 M52,85c3.4,0.7,6.7,1.9,9.8,3.5"/>
			<path class="st2" d="M61.6,139.6c-2,1.6-4.3,2.9-6.8,3.8c-9.6,3.6-20.1,1.2-27.1-5.4 M27.4,100.4c2.5-2.4,5.5-4.4,9-5.7
				c8.8-3.3,18.3-1.6,25.2,3.8"/>
		</g>
	</g>
	<line class="st7" x1="145.8" y1="40.9" x2="105.4" y2="89.1"/>
	<line class="st7" x1="92.8" y1="130.6" x2="137.8" y2="70.7"/>
</g>
</svg>
