<?xml version="1.0" encoding="utf-8"?>
<!-- Generator: Adobe Illustrator 22.0.1, SVG Export Plug-In . SVG Version: 6.00 Build 0)  -->
<svg version="1.1" id="Слой_1" xmlns="http://www.w3.org/2000/svg" xmlns:xlink="http://www.w3.org/1999/xlink" x="0px" y="0px"
	 viewBox="0 0 65.8 63.6" style="enable-background:new 0 0 65.8 63.6;" xml:space="preserve">
<style type="text/css">
	.st0{fill-rule:evenodd;clip-rule:evenodd;fill:#D67E33;}
	.st1{fill-rule:evenodd;clip-rule:evenodd;fill:none;stroke:#BC582C;stroke-width:0.5669;stroke-miterlimit:22.9256;}
	
		.st2{fill-rule:evenodd;clip-rule:evenodd;fill:none;stroke:#BC582C;stroke-width:2.0001;stroke-linecap:round;stroke-linejoin:round;stroke-miterlimit:22.9256;}
	.st3{fill-rule:evenodd;clip-rule:evenodd;fill:none;stroke:#000000;stroke-width:0.5669;stroke-miterlimit:22.9256;}
	.st4{font-family:'ArialMT';}
	.st5{font-size:7.9999px;}
</style>
<g>
	<path class="st0" d="M26.1,18.4c10.5,0-4.7,0,4.4,0l1,5.3h0.3h3.5h0.3l1-5.3H40l1,5.3h0.3h2.1h0.3l1-5.3H48l1,5.3h0.3H53h0.3l1-5.3
		h3.8l6.8,6.8v32.4l-4.5,4.5l-2.9-3.6c-1.1,0-2.2,0-3.3,0l-0.8,4h-5.3l-0.8-4h-0.3H45h-0.3l-0.8,4h-3.8l-0.8-4h-0.3H37h-0.3l-0.8,4
		h-5.3l-0.8-4h-0.3c-7.1,0,4.1,0-3.2,0l-2.8,3.5L19,57.4v-32L26.1,18.4z"/>
	<g>
		<line class="st1" x1="33.4" y1="24.1" x2="33.4" y2="62.5"/>
		<line class="st1" x1="50.1" y1="23.7" x2="50.1" y2="62.6"/>
	</g>
	<path class="st1" d="M63,59.3c-5-5.1-8.1-12.1-8.1-19.8c0-6.7,2.3-12.8,6.2-17.7"/>
	<path class="st1" d="M64.6,53.2c-2.9-3.8-4.6-8.6-4.6-13.8c0-5.2,1.7-9.9,4.6-13.8"/>
	<path class="st1" d="M50.2,62.3c-0.4,0.1-0.9,0.2-1.3,0.3 M40.1,62.6l-0.3-0.1 M36.4,20.6c1.1-0.4,2.2-0.8,3.4-1 M44.2,19l0.3,0
		c1.1,0,2.2,0.1,3.3,0.3"/>
	<path class="st1" d="M50.2,54.7c-2.1,0.7-4.5,1.1-7,1.1c-3.6,0-7-0.9-9.8-2.4 M33.4,28.6c2.8-1.5,6.2-2.4,9.8-2.4
		c2.5,0,4.8,0.4,7,1.1"/>
	<path class="st1" d="M50,45c-1.3,1.8-3.4,3-5.7,3c-3.9,0-7-3.1-7-7s3.1-7,7-7c2.4,0,4.5,1.2,5.7,3"/>
	<path class="st1" d="M44.5,38.5c1.4,0,2.5,1.1,2.5,2.5c0,1.4-1.1,2.5-2.5,2.5c-1.4,0-2.5-1.1-2.5-2.5C42,39.7,43.1,38.5,44.5,38.5z
		"/>
	<path class="st1" d="M36.3,58.9c-7.1-4.1-12-12.1-12-21.3c0-7,2.8-13.4,7.4-17.8"/>
	<path class="st1" d="M28.8,35.4c0-4.7,1.8-8.9,4.7-12"/>
	<path class="st1" d="M28,58.8c-3.7-3.9-6.7-8.4-9.2-13.5"/>
	<path class="st2" d="M26.1,18.4h4.5l1,5.3c6.8,0-3,0,3.8,0l1-5.3h3.4l1,5.3h0.3h2.1h0.3l1-5.3h3.3l1,5.3h0.3h3.7h0.3l1-5.3h3.8
		l6.8,6.8v32.4l-4.5,4.5l-2.9-3.6c-1.1,0-2.2,0-3.3,0l-0.8,4h-5.3l-0.8-4H47h-2.1h-0.3l-0.8,4H40l-0.8-4H39h-2.1h-0.3l-0.8,4
		c-11.4,0,6.2,0-5.3,0l-0.8-4c-1.1,0-2.2,0-3.3,0l-2.8,3.5L19,57.4v-32L26.1,18.4z"/>
</g>
<line class="st3" x1="19" y1="9.4" x2="64.8" y2="9.4"/>
<line class="st3" x1="19" y1="17.9" x2="19" y2="6.5"/>
<line class="st3" x1="64.8" y1="17.9" x2="64.8" y2="6.5"/>
<line class="st3" x1="9.9" y1="62.6" x2="9.9" y2="18.4"/>
<line class="st3" x1="18.3" y1="18.4" x2="7" y2="18.4"/>
<line class="st3" x1="18.3" y1="62.6" x2="7" y2="62.6"/>
<text transform="matrix(1 0 0 1 35.095 6.8652)"><tspan x="0" y="0" class="st4 st5">1</tspan><tspan x="4.4" y="0" class="st4 st5">20</tspan></text>
<text transform="matrix(0 -1 1 0 6.8652 47.9946)"><tspan x="0" y="0" class="st4 st5">1</tspan><tspan x="4.4" y="0" class="st4 st5">35</tspan></text>
</svg>
