<?xml version="1.0" encoding="utf-8"?>
<!-- Generator: Adobe Illustrator 22.0.1, SVG Export Plug-In . SVG Version: 6.00 Build 0)  -->
<svg version="1.1" id="Слой_1" xmlns="http://www.w3.org/2000/svg" xmlns:xlink="http://www.w3.org/1999/xlink" x="0px" y="0px"
	 viewBox="0 0 89 80.7" style="enable-background:new 0 0 89 80.7;" xml:space="preserve">
<style type="text/css">
	.st0{fill-rule:evenodd;clip-rule:evenodd;fill:#D67E33;}
	
		.st1{fill-rule:evenodd;clip-rule:evenodd;fill:none;stroke:#BC582C;stroke-width:2.0001;stroke-linecap:round;stroke-linejoin:round;stroke-miterlimit:22.9256;}
	.st2{fill-rule:evenodd;clip-rule:evenodd;fill:none;stroke:#BC582C;stroke-width:0.5669;stroke-miterlimit:22.9256;}
	.st3{fill-rule:evenodd;clip-rule:evenodd;fill:none;stroke:#000000;stroke-width:0.5669;stroke-miterlimit:22.9256;}
	.st4{font-family:'ArialMT';}
	.st5{font-size:7.9999px;}
</style>
<g>
	<path class="st0" d="M27.9,18.5h4.5l1,5.3h0.3h2.1h0.3l1-5.3h3.3l1,5.3h0.3h2.1h0.3l1-5.3h3.2l1,5.3h0.3h2.1h0.3l1-5.3h3.3l1,5.3
		h0.3h2.1h0.3l1-5.3h3.4l1,5.3h0.3h2.1h0.3l1-5.3h3.3l1,5.3h0.3H76h0.3l1-5.3h3.8l6.8,6.8v49.4l-4.5,4.5l-2.9-3.6
		c-1.1,0-2.2,0-3.3,0l-0.8,4h-3.7l-0.8-4h-0.3h-2.1h-0.3l-0.8,4h-3.8l-0.8-4h-0.3h-2.1h-0.3l-0.8,4h-3.9l-0.8-4h-0.3h-2.1h-0.3
		l-0.8,4h-3.8l-0.8-4h-0.3h-2.1h-0.3l-0.8,4h-3.8l-0.8-4h-0.3h-2.1h-0.3l-0.8,4h-4.1l-0.8-4c-1.1,0-2.2,0-3.3,0l-2.8,3.5l-4.6-4.6
		v-49L27.9,18.5z"/>
	<path class="st1" d="M27.9,18.5h4.5l1,5.3h0.3h2.1h0.3l1-5.3h3.3l1,5.3h0.3h2.1h0.3l1-5.3h3.2l1,5.3h0.3h2.1h0.3l1-5.3h3.3l1,5.3
		h0.3h2.1h0.3l1-5.3h3.4l1,5.3h0.3h2.1h0.3l1-5.3h3.3l1,5.3h0.3H76h0.3l1-5.3h3.8l6.8,6.8v49.4l-4.5,4.5l-2.9-3.6
		c-1.1,0-2.2,0-3.3,0l-0.8,4h-3.7l-0.8-4h-0.3h-2.1h-0.3l-0.8,4h-3.8l-0.8-4h-0.3h-2.1h-0.3l-0.8,4h-3.9l-0.8-4h-0.3h-2.1h-0.3
		l-0.8,4h-3.8l-0.8-4h-0.3h-2.1h-0.3l-0.8,4h-3.8l-0.8-4h-0.3h-2.1h-0.3l-0.8,4h-4.1l-0.8-4c-1.1,0-2.2,0-3.3,0l-2.8,3.5l-4.6-4.6
		v-49L27.9,18.5z"/>
	<g>
		<line class="st2" x1="34.8" y1="23.9" x2="34.8" y2="79.7"/>
		<line class="st2" x1="61.2" y1="18.5" x2="61.2" y2="75.9"/>
		<line class="st2" x1="48.6" y1="19.9" x2="48.6" y2="79.5"/>
		<line class="st2" x1="74.8" y1="23.9" x2="74.8" y2="79.7"/>
	</g>
	<g>
		<path class="st2" d="M87.9,69.4c-6-5.2-9.8-12.8-9.8-21.4c0-8.5,3.8-16.2,9.8-21.4V69.4z"/>
		<path class="st2" d="M87.9,61.8C85,58,83.3,53.2,83.3,48c0-5.2,1.7-9.9,4.6-13.8V61.8z"/>
		<path class="st2" d="M75.1,70.9c-1.8,0.5-3.7,0.8-5.7,0.8c-2.8,0-5.6-0.5-8.1-1.5 M61.3,29.2c2.5-1,5.2-1.5,8.1-1.5
			c2,0,3.9,0.3,5.7,0.8"/>
		<path class="st2" d="M75.1,63.3c-1.8,0.7-3.7,1.1-5.7,1.1c-3,0-5.7-0.9-8.1-2.4 M61.3,37.2c2.3-1.5,5.1-2.4,8.1-2.4
			c2,0,4,0.4,5.7,1.1"/>
		<path class="st2" d="M74.9,53.7c-1.3,1.8-3.4,3-5.7,3c-3.9,0-7-3.1-7-7s3.1-7,7-7c2.4,0,4.5,1.2,5.7,3"/>
		<path class="st2" d="M69.4,47.2c1.4,0,2.5,1.1,2.5,2.5c0,1.4-1.1,2.5-2.5,2.5c-1.4,0-2.5-1.1-2.5-2.5C66.9,48.3,68,47.2,69.4,47.2
			z"/>
		<path class="st2" d="M34.8,67.1c-3.6,3.9-8.3,6.6-13.7,7.5l-0.3-0.3v-49l0.1-0.1c5.4,0.9,10.2,3.6,13.8,7.5"/>
		<path class="st2" d="M20.8,34.8c6.6,1.7,11.5,7.9,11.5,15.2s-4.9,13.4-11.5,15.2V34.8z"/>
		<path class="st2" d="M20.8,42c2.9,1.4,4.9,4.5,4.9,8c0,3.5-2,6.5-4.9,8V42z"/>
		<path class="st2" d="M34.8,39c2-0.7,4.1-1,6.3-1c2.7,0,5.2,0.5,7.5,1.5"/>
		<path class="st2" d="M48.6,66.9c-2.1,1.5-4.7,2.4-7.5,2.4c-2.3,0-4.4-0.6-6.3-1.6 M34.8,45.7c1.9-1,4-1.6,6.3-1.6
			c2.8,0,5.4,0.9,7.5,2.4"/>
		<path class="st2" d="M41.1,50.7c3.4,0,6.1,2.7,6.1,5.9c0,3.3-2.7,5.9-6.1,5.9c-3.4,0-6.1-2.7-6.1-5.9C35,53.4,37.7,50.7,41.1,50.7
			z"/>
		<path class="st2" d="M41.1,54.6c1.2,0,2.2,0.9,2.2,2.1c0,1.2-1,2.1-2.2,2.1s-2.2-0.9-2.2-2.1C38.9,55.5,39.9,54.6,41.1,54.6z"/>
		<path class="st2" d="M34.8,30.2c2-0.5,3.9-0.7,6.3-0.7c2.4,0,5.2,0.3,7.6,1"/>
		<path class="st2" d="M61.2,66.2c-6.9-3.9-11.6-11.7-11.6-20.6c0-9,4.7-16.7,11.7-20.6"/>
		<path class="st2" d="M56.6,43.5c0-4.7,1.8-8.9,4.7-12"/>
		<path class="st2" d="M61.1,73.6c-5.4-2.4-9.8-6.7-12.5-12.3"/>
	</g>
</g>
<line class="st3" x1="19.9" y1="10.2" x2="88.7" y2="10.2"/>
<line class="st3" x1="19.9" y1="18.7" x2="19.9" y2="7.4"/>
<line class="st3" x1="88.7" y1="18.7" x2="88.7" y2="7.4"/>
<line class="st3" x1="9.9" y1="79.7" x2="9.9" y2="18.6"/>
<line class="st3" x1="18.3" y1="18.5" x2="7" y2="18.5"/>
<line class="st3" x1="18.3" y1="79.7" x2="7" y2="79.7"/>
<text transform="matrix(1 0 0 1 31.6805 6.8652)"><tspan x="0" y="0" class="st4 st5">2</tspan><tspan x="4.4" y="0" class="st4 st5">00-220-240</tspan></text>
<text transform="matrix(0 -1 1 0 6.8652 56.0347)"><tspan x="0" y="0" class="st4 st5">1</tspan><tspan x="4.4" y="0" class="st4 st5">80</tspan></text>
</svg>
