<?xml version="1.0" encoding="utf-8"?>
<!-- Generator: Adobe Illustrator 22.0.1, SVG Export Plug-In . SVG Version: 6.00 Build 0)  -->
<svg version="1.1" id="Слой_1" xmlns="http://www.w3.org/2000/svg" xmlns:xlink="http://www.w3.org/1999/xlink" x="0px" y="0px"
	 viewBox="0 0 89 64.5" style="enable-background:new 0 0 89 64.5;" xml:space="preserve">
<style type="text/css">
	.st0{fill-rule:evenodd;clip-rule:evenodd;fill:#D67E33;}
	.st1{fill-rule:evenodd;clip-rule:evenodd;fill:none;stroke:#BC582C;stroke-width:0.5669;stroke-miterlimit:22.9256;}
	
		.st2{fill-rule:evenodd;clip-rule:evenodd;fill:none;stroke:#BC582C;stroke-width:2.0001;stroke-linecap:round;stroke-linejoin:round;stroke-miterlimit:22.9256;}
	.st3{fill-rule:evenodd;clip-rule:evenodd;fill:none;stroke:#000000;stroke-width:0.5669;stroke-miterlimit:22.9256;}
	.st4{font-family:'ArialMT';}
	.st5{font-size:7.9999px;}
</style>
<g>
	<path class="st0" d="M27.9,19.4h4.5l1,5.3h0.3h2.1h0.3l1-5.3h3.3l1,5.3h0.3h2.1h0.3l1-5.3h3.2l1,5.3h0.3h2.1h0.3l1-5.3h3.3l1,5.3
		h0.3h2.1h0.3l1-5.3h3.4l1,5.3h0.3h2.1h0.3l1-5.3h3.3l1,5.3h0.3H76h0.3l1-5.3h3.8l6.8,6.8v32.4l-4.5,4.5l-2.9-3.6
		c-1.1,0-2.2,0-3.3,0l-0.8,4h-3.7l-0.8-4h-0.3h-2.1h-0.3l-0.8,4h-3.8l-0.8-4h-0.3h-2.1h-0.3l-0.8,4h-3.9l-0.8-4h-0.3h-2.1h-0.3
		l-0.8,4h-3.8l-0.8-4h-0.3h-2.1h-0.3l-0.8,4h-3.8l-0.8-4h-0.3h-2.1h-0.3l-0.8,4h-4.1l-0.8-4c-1.1,0-2.2,0-3.3,0L25.4,63l-4.6-4.6
		v-32L27.9,19.4z"/>
	<g>
		<g>
			<line class="st1" x1="34.8" y1="24.7" x2="34.8" y2="63.5"/>
			<line class="st1" x1="61.2" y1="19.4" x2="61.2" y2="59.6"/>
			<line class="st1" x1="48.6" y1="20.4" x2="48.6" y2="63.5"/>
			<line class="st1" x1="74.8" y1="24.7" x2="74.8" y2="63.5"/>
		</g>
		<g>
			<path class="st1" d="M86.3,60.2c-5-5.1-8.1-12.1-8.1-19.8c0-6.7,2.3-12.8,6.2-17.7l3.5,3.5v32.4L86.3,60.2z"/>
			<path class="st1" d="M87.9,54.2c-2.9-3.8-4.6-8.6-4.6-13.8c0-5.2,1.7-9.9,4.6-13.8V54.2z"/>
			<path class="st1" d="M75.1,63.2c-0.4,0.1-0.9,0.2-1.3,0.3 M65,63.5l-0.3-0.1 M61.3,21.5c1.1-0.4,2.2-0.8,3.4-1 M69.1,20l0.3,0
				c1.1,0,2.2,0.1,3.3,0.3"/>
			<path class="st1" d="M75.1,55.6c-1.8,0.7-3.7,1.1-5.7,1.1c-3,0-5.7-0.9-8.1-2.4 M61.3,29.6c2.3-1.5,5.1-2.4,8.1-2.4
				c2,0,4,0.4,5.7,1.1"/>
			<path class="st1" d="M74.9,46c-1.3,1.8-3.4,3-5.7,3c-3.9,0-7-3.1-7-7s3.1-7,7-7c2.4,0,4.5,1.2,5.7,3"/>
			<path class="st1" d="M69.4,39.5c1.4,0,2.5,1.1,2.5,2.5c0,1.4-1.1,2.5-2.5,2.5c-1.4,0-2.5-1.1-2.5-2.5
				C66.9,40.6,68,39.5,69.4,39.5z"/>
			<path class="st1" d="M34.8,59.5C33.9,60.4,33,61.2,32,62 M20.8,58.4v-32 M27.5,19.7c2.1,1,4,2.3,5.7,3.9 M34.4,24.7
				c0.1,0.1,0.3,0.3,0.4,0.4"/>
			<path class="st1" d="M20.8,27.1c6.6,1.7,11.5,7.9,11.5,15.2c0,7.3-4.9,13.4-11.5,15.2V27.1z"/>
			<path class="st1" d="M20.8,34.3c2.9,1.4,4.9,4.5,4.9,8c0,3.5-2,6.5-4.9,8V34.3z"/>
			<path class="st1" d="M34.8,31.3c2-0.7,4.1-1,6.3-1c2.7,0,5.2,0.5,7.5,1.5"/>
			<path class="st1" d="M48.6,59.2c-0.2,0.2-0.5,0.3-0.7,0.5 M44.8,61c-1.2,0.4-2.5,0.5-3.8,0.5c-0.3,0-0.5,0-0.8,0 M36.9,60.9
				c-0.7-0.2-1.5-0.6-2.1-0.9 M34.8,38c1.9-1,4-1.6,6.3-1.6c2.8,0,5.4,0.9,7.5,2.4"/>
			<path class="st1" d="M41.1,43.1c3.4,0,6.1,2.7,6.1,5.9c0,3.3-2.7,5.9-6.1,5.9c-3.4,0-6.1-2.7-6.1-5.9
				C35,45.7,37.7,43.1,41.1,43.1z"/>
			<path class="st1" d="M41.1,46.9c1.2,0,2.2,0.9,2.2,2.1c0,1.2-1,2.1-2.2,2.1s-2.2-0.9-2.2-2.1C38.9,47.8,39.9,46.9,41.1,46.9z"/>
			<path class="st1" d="M36.6,22.2c1.4-0.2,2.7-0.3,4.3-0.3 M44.6,22.1c1.4,0.2,2.7,0.4,4,0.8"/>
			<path class="st1" d="M61.2,58.5C54.3,54.6,49.6,46.9,49.6,38c0-6.8,2.7-12.9,7.1-17.2"/>
			<path class="st1" d="M56.6,35.8c0-4.7,1.8-8.9,4.7-12"/>
			<path class="st1" d="M56.9,63.5c-0.1-0.1-0.3-0.2-0.4-0.3 M53,60.1c-1.8-1.9-3.3-4.1-4.4-6.5"/>
		</g>
	</g>
	<path class="st2" d="M27.9,19.4h4.5l1,5.3h0.3h2.1h0.3l1-5.3h3.3l1,5.3h0.3h2.1h0.3l1-5.3h3.2l1,5.3h0.3h2.1h0.3l1-5.3h3.3l1,5.3
		h0.3h2.1h0.3l1-5.3h3.4l1,5.3h0.3h2.1h0.3l1-5.3h3.3l1,5.3h0.3H76h0.3l1-5.3h3.8l6.8,6.8v32.4l-4.5,4.5l-2.9-3.6
		c-1.1,0-2.2,0-3.3,0l-0.8,4h-3.7l-0.8-4h-0.3h-2.1h-0.3l-0.8,4h-3.8l-0.8-4h-0.3h-2.1h-0.3l-0.8,4h-3.9l-0.8-4h-0.3h-2.1h-0.3
		l-0.8,4h-3.8l-0.8-4h-0.3h-2.1h-0.3l-0.8,4h-3.8l-0.8-4h-0.3h-2.1h-0.3l-0.8,4h-4.1l-0.8-4c-1.1,0-2.2,0-3.3,0L25.4,63l-4.6-4.6
		v-32L27.9,19.4z"/>
</g>
<line class="st3" x1="19.9" y1="11" x2="88.7" y2="11"/>
<line class="st3" x1="19.9" y1="19.5" x2="19.9" y2="8.1"/>
<line class="st3" x1="88.7" y1="19.5" x2="88.7" y2="8.1"/>
<line class="st3" x1="9.9" y1="63.5" x2="9.9" y2="19.4"/>
<line class="st3" x1="18.3" y1="19.4" x2="7" y2="19.4"/>
<line class="st3" x1="18.3" y1="63.5" x2="7" y2="63.5"/>
<text transform="matrix(1 0 0 1 47.7728 6.8652)"><tspan x="0" y="0" class="st4 st5">2</tspan><tspan x="4.4" y="0" class="st4 st5">00</tspan></text>
<text transform="matrix(0 -1 1 0 6.8652 48.3545)"><tspan x="0" y="0" class="st4 st5">1</tspan><tspan x="4.4" y="0" class="st4 st5">35</tspan></text>
</svg>
