<?xml version="1.0" encoding="utf-8"?>
<!-- Generator: Adobe Illustrator 22.0.1, SVG Export Plug-In . SVG Version: 6.00 Build 0)  -->
<svg version="1.1" id="Слой_1" xmlns="http://www.w3.org/2000/svg" xmlns:xlink="http://www.w3.org/1999/xlink" x="0px" y="0px"
	 viewBox="0 0 89 92.3" style="enable-background:new 0 0 89 92.3;" xml:space="preserve">
<style type="text/css">
	.st0{fill-rule:evenodd;clip-rule:evenodd;fill:#D67E33;}
	
		.st1{fill-rule:evenodd;clip-rule:evenodd;fill:none;stroke:#BC582C;stroke-width:2.0001;stroke-linecap:round;stroke-linejoin:round;stroke-miterlimit:22.9256;}
	.st2{fill-rule:evenodd;clip-rule:evenodd;fill:none;stroke:#BC582C;stroke-width:0.5669;stroke-miterlimit:22.9256;}
	.st3{fill-rule:evenodd;clip-rule:evenodd;fill:none;stroke:#000000;stroke-width:0.5669;stroke-miterlimit:22.9256;}
	.st4{font-family:'ArialMT';}
	.st5{font-size:7.9999px;}
</style>
<g>
	<path class="st0" d="M27.9,18.8h4.5l1,5.3h0.3h2.1h0.3l1-5.3h3.3l1,5.3h0.3h2.1h0.3l1-5.3h3.2l1,5.3h0.3h2.1h0.3l1-5.3h3.3l1,5.3
		h0.3h2.1h0.3l1-5.3h3.4l1,5.3h0.3h2.1h0.3l1-5.3h3.3l1,5.3h0.3H76h0.3l1-5.3h3.8l6.8,6.8v60.7l-4.5,4.5l-2.9-3.6
		c-1.1,0-2.2,0-3.3,0l-0.8,4h-3.7l-0.8-4h-0.3h-2.1h-0.3l-0.8,4h-3.8l-0.8-4h-0.3h-2.1h-0.3l-0.8,4h-3.9l-0.8-4h-0.3h-2.1h-0.3
		l-0.8,4h-3.8l-0.8-4h-0.3h-2.1h-0.3l-0.8,4h-3.8l-0.8-4h-0.3h-2.1h-0.3l-0.8,4h-4.1l-0.8-4c-1.1,0-2.2,0-3.3,0l-2.8,3.5l-4.6-4.6
		V25.9L27.9,18.8z"/>
	<path class="st1" d="M27.9,18.8h4.5l1,5.3h0.3h2.1h0.3l1-5.3h3.3l1,5.3h0.3h2.1h0.3l1-5.3h3.2l1,5.3h0.3h2.1h0.3l1-5.3h3.3l1,5.3
		h0.3h2.1h0.3l1-5.3h3.4l1,5.3h0.3h2.1h0.3l1-5.3h3.3l1,5.3h0.3H76h0.3l1-5.3h3.8l6.8,6.8v60.7l-4.5,4.5l-2.9-3.6
		c-1.1,0-2.2,0-3.3,0l-0.8,4h-3.7l-0.8-4h-0.3h-2.1h-0.3l-0.8,4h-3.8l-0.8-4h-0.3h-2.1h-0.3l-0.8,4h-3.9l-0.8-4h-0.3h-2.1h-0.3
		l-0.8,4h-3.8l-0.8-4h-0.3h-2.1h-0.3l-0.8,4h-3.8l-0.8-4h-0.3h-2.1h-0.3l-0.8,4h-4.1l-0.8-4c-1.1,0-2.2,0-3.3,0l-2.8,3.5l-4.6-4.6
		V25.9L27.9,18.8z"/>
	<line class="st2" x1="34.8" y1="25.1" x2="34.8" y2="91.3"/>
	<line class="st2" x1="61.2" y1="18.8" x2="61.2" y2="86.8"/>
	<line class="st2" x1="48.6" y1="20.4" x2="48.6" y2="91.1"/>
	<line class="st2" x1="74.8" y1="24.1" x2="74.8" y2="91"/>
	<line class="st2" x1="87.8" y1="55.1" x2="20.9" y2="55.1"/>
	<g>
		<path class="st2" d="M87.9,79c-6-6.1-9.8-15.1-9.8-25.1c0-10,3.8-19,9.8-25.1V79z"/>
		<path class="st2" d="M87.9,70.1C85,65.6,83.3,60,83.3,53.9c0-6.1,1.7-11.7,4.6-16.2V70.1z"/>
		<path class="st2" d="M75.1,80.8c-1.8,0.6-3.7,0.9-5.7,0.9c-2.8,0-5.6-0.6-8.1-1.8 M61.3,31.8c2.5-1.2,5.2-1.8,8.1-1.8
			c2,0,3.9,0.3,5.7,0.9"/>
		<path class="st2" d="M75.1,71.8c-1.8,0.9-3.7,1.3-5.7,1.3c-3,0-5.7-1-8.1-2.8 M61.3,41.2c2.3-1.8,5.1-2.8,8.1-2.8
			c2,0,4,0.5,5.7,1.3"/>
		<path class="st2" d="M74.9,60.5c-1.3,2.1-3.4,3.5-5.7,3.5c-3.9,0-7-3.7-7-8.2c0-4.5,3.1-8.2,7-8.2c2.4,0,4.5,1.4,5.7,3.5"/>
		<path class="st2" d="M69.4,52.9c1.4,0,2.5,1.3,2.5,2.9s-1.1,2.9-2.5,2.9c-1.4,0-2.5-1.3-2.5-2.9S68,52.9,69.4,52.9z"/>
		<path class="st2" d="M34.8,76.4c-3.6,4.5-8.3,7.7-13.7,8.8l-0.3-0.3V27.3l0.1-0.1c5.4,1.1,10.2,4.2,13.8,8.8"/>
		<path class="st2" d="M20.8,38.4c6.6,2,11.5,9.2,11.5,17.8c0,8.6-4.9,15.8-11.5,17.8V38.4z"/>
		<path class="st2" d="M20.8,46.8c2.9,1.7,4.9,5.3,4.9,9.4c0,4.1-2,7.7-4.9,9.4V46.8z"/>
		<path class="st2" d="M34.8,43.3c2-0.8,4.1-1.2,6.3-1.2c2.7,0,5.2,0.6,7.5,1.8"/>
		<path class="st2" d="M48.6,76.1c-2.1,1.7-4.7,2.8-7.5,2.8c-2.3,0-4.4-0.7-6.3-1.9 M34.8,51.2c1.9-1.2,4-1.9,6.3-1.9
			c2.8,0,5.4,1,7.5,2.8"/>
		<ellipse class="st2" cx="41.1" cy="64.1" rx="6.1" ry="7"/>
		<path class="st2" d="M41.1,61.6c1.2,0,2.2,1.1,2.2,2.5c0,1.4-1,2.5-2.2,2.5s-2.2-1.1-2.2-2.5C38.9,62.7,39.9,61.6,41.1,61.6z"/>
		<path class="st2" d="M34.8,33c2-0.5,3.9-0.8,6.3-0.8c2.4,0,5.2,0.4,7.6,1.2"/>
		<path class="st2" d="M61.2,75.3c-6.9-4.6-11.6-13.7-11.6-24.2c0-10.5,4.7-19.6,11.7-24.2"/>
		<path class="st2" d="M56.6,48.6c0-5.5,1.8-10.5,4.7-14.1"/>
		<path class="st2" d="M61.1,83.9c-5.4-2.8-9.8-7.9-12.5-14.5"/>
	</g>
</g>
<line class="st3" x1="19.9" y1="10.2" x2="88.7" y2="10.2"/>
<line class="st3" x1="19.9" y1="18.7" x2="19.9" y2="7.4"/>
<line class="st3" x1="88.7" y1="18.7" x2="88.7" y2="7.4"/>
<line class="st3" x1="9.9" y1="91.3" x2="9.9" y2="18.6"/>
<line class="st3" x1="18.3" y1="18.8" x2="7" y2="18.8"/>
<line class="st3" x1="18.3" y1="91.3" x2="7" y2="91.3"/>
<text transform="matrix(1 0 0 1 31.6805 6.8652)"><tspan x="0" y="0" class="st4 st5">2</tspan><tspan x="4.4" y="0" class="st4 st5">00-220-240</tspan></text>
<text transform="matrix(0 -1 1 0 6.8652 61.9692)"><tspan x="0" y="0" class="st4 st5">2</tspan><tspan x="4.4" y="0" class="st4 st5">70</tspan></text>
</svg>
