<?xml version="1.0" encoding="utf-8"?>
<!-- Generator: Adobe Illustrator 22.0.1, SVG Export Plug-In . SVG Version: 6.00 Build 0)  -->
<svg version="1.1" id="Слой_1" xmlns="http://www.w3.org/2000/svg" xmlns:xlink="http://www.w3.org/1999/xlink" x="0px" y="0px"
	 viewBox="0 0 89 92.3" style="enable-background:new 0 0 89 92.3;" xml:space="preserve">
<style type="text/css">
	.st0{fill-rule:evenodd;clip-rule:evenodd;fill:#D67E33;}
	
		.st1{fill-rule:evenodd;clip-rule:evenodd;fill:none;stroke:#BC582C;stroke-width:2.0001;stroke-linecap:round;stroke-linejoin:round;stroke-miterlimit:22.9256;}
	.st2{fill-rule:evenodd;clip-rule:evenodd;fill:none;stroke:#BC582C;stroke-width:0.5669;stroke-miterlimit:22.9256;}
	.st3{fill-rule:evenodd;clip-rule:evenodd;fill:none;stroke:#000000;stroke-width:0.5669;stroke-miterlimit:22.9256;}
	.st4{font-family:'ArialMT';}
	.st5{font-size:7.9999px;}
</style>
<path class="st0" d="M27.9,18.8h4.5l1,5.3h0.3h2.1h0.3l1-5.3h3.3l1,5.3h0.3h2.1h0.3l1-5.3h3.2l1,5.3h0.3h2.1h0.3l1-5.3h3.3l1,5.3
	h0.3h2.1h0.3l1-5.3h3.4l1,5.3h0.3h2.1h0.3l1-5.3h3.3l1,5.3h0.3H76h0.3l1-5.3h3.8l6.8,6.8v60.7l-4.5,4.5l-2.9-3.6c-1.1,0-2.2,0-3.3,0
	l-0.8,4h-3.7l-0.8-4h-0.3h-2.1h-0.3l-0.8,4h-3.8l-0.8-4h-0.3h-2.1h-0.3l-0.8,4h-3.9l-0.8-4h-0.3h-2.1h-0.3l-0.8,4h-3.8l-0.8-4h-0.3
	h-2.1h-0.3l-0.8,4h-3.8l-0.8-4h-0.3h-2.1h-0.3l-0.8,4h-4.1l-0.8-4c-1.1,0-2.2,0-3.3,0l-2.8,3.5l-4.6-4.6V25.9L27.9,18.8z"/>
<path class="st1" d="M27.9,18.8h4.5l1,5.3h0.3h2.1h0.3l1-5.3h3.3l1,5.3h0.3h2.1h0.3l1-5.3h3.2l1,5.3h0.3h2.1h0.3l1-5.3h3.3l1,5.3
	h0.3h2.1h0.3l1-5.3h3.4l1,5.3h0.3h2.1h0.3l1-5.3h3.3l1,5.3h0.3H76h0.3l1-5.3h3.8l6.8,6.8v60.7l-4.5,4.5l-2.9-3.6c-1.1,0-2.2,0-3.3,0
	l-0.8,4h-3.7l-0.8-4h-0.3h-2.1h-0.3l-0.8,4h-3.8l-0.8-4h-0.3h-2.1h-0.3l-0.8,4h-3.9l-0.8-4h-0.3h-2.1h-0.3l-0.8,4h-3.8l-0.8-4h-0.3
	h-2.1h-0.3l-0.8,4h-3.8l-0.8-4h-0.3h-2.1h-0.3l-0.8,4h-4.1l-0.8-4c-1.1,0-2.2,0-3.3,0l-2.8,3.5l-4.6-4.6V25.9L27.9,18.8z"/>
<g>
	<line class="st2" x1="34.8" y1="25" x2="34.8" y2="55.1"/>
	<line class="st2" x1="61.2" y1="18.8" x2="61.2" y2="55.1"/>
	<line class="st2" x1="48.6" y1="20.4" x2="48.6" y2="55.1"/>
	<line class="st2" x1="74.8" y1="24.1" x2="74.8" y2="55.1"/>
</g>
<line class="st2" x1="87.8" y1="55.1" x2="20.9" y2="55.1"/>
<g>
	<path class="st2" d="M78.2,55.1c0-0.5,0-1,0-1.6c0-9.9,3.8-18.7,9.8-24.7v26.3"/>
	<path class="st2" d="M83.4,55.1c0-0.5,0-1,0-1.6c0-6,1.7-11.5,4.6-16v17.5"/>
	<path class="st2" d="M61.3,31.7c2.5-1.1,5.2-1.8,8.1-1.8c2,0,3.9,0.3,5.7,0.9"/>
	<path class="st2" d="M61.3,41c2.3-1.7,5.1-2.8,8.1-2.8c2,0,4,0.5,5.7,1.3"/>
	<path class="st2" d="M62.2,55.1c0.1-4.3,3.2-7.8,7-7.8c2.4,0,4.5,1.4,5.7,3.4"/>
	<path class="st2" d="M66.9,55.1c0.1-1.4,1.2-2.6,2.5-2.6c1.3,0,2.3,1.1,2.5,2.6"/>
	<path class="st2" d="M20.8,55.1V27.3l0.1-0.1c5.4,1,10.2,4.2,13.8,8.7"/>
	<path class="st2" d="M20.8,55.1V38.2c6.4,2,11.2,8.7,11.5,16.8"/>
	<path class="st2" d="M20.8,55.1v-8.6c2.7,1.6,4.6,4.8,4.9,8.6"/>
	<path class="st2" d="M34.8,43.1c2-0.8,4.1-1.2,6.3-1.2c2.7,0,5.2,0.6,7.5,1.7"/>
	<path class="st2" d="M34.8,50.8c1.9-1.2,4-1.8,6.3-1.8c2.8,0,5.4,1,7.5,2.7"/>
	<path class="st2" d="M34.8,32.9c2-0.5,3.9-0.8,6.3-0.8c2.4,0,5.2,0.4,7.6,1.1"/>
	<path class="st2" d="M49.9,55.1c-0.2-1.4-0.3-2.8-0.3-4.3c0-10.4,4.7-19.3,11.7-23.9"/>
	<path class="st2" d="M56.6,48.2c0-5.4,1.8-10.3,4.7-13.9"/>
</g>
<line class="st3" x1="19.9" y1="10.2" x2="88.7" y2="10.2"/>
<line class="st3" x1="19.9" y1="18.7" x2="19.9" y2="7.4"/>
<line class="st3" x1="88.7" y1="18.7" x2="88.7" y2="7.4"/>
<line class="st3" x1="9.9" y1="91.3" x2="9.9" y2="18.6"/>
<line class="st3" x1="18.3" y1="18.8" x2="7" y2="18.8"/>
<line class="st3" x1="18.3" y1="91.3" x2="7" y2="91.3"/>
<text transform="matrix(1 0 0 1 31.6805 6.8652)"><tspan x="0" y="0" class="st4 st5">2</tspan><tspan x="4.4" y="0" class="st4 st5">00-220-240</tspan></text>
<text transform="matrix(0 -1 1 0 6.8652 61.9702)"><tspan x="0" y="0" class="st4 st5">2</tspan><tspan x="4.4" y="0" class="st4 st5">70</tspan></text>
</svg>
