<?xml version="1.0" encoding="utf-8"?>
<!-- Generator: Adobe Illustrator 22.0.1, SVG Export Plug-In . SVG Version: 6.00 Build 0)  -->
<svg version="1.1" id="Слой_1" xmlns="http://www.w3.org/2000/svg" xmlns:xlink="http://www.w3.org/1999/xlink" x="0px" y="0px"
	 viewBox="0 0 89 70.2" style="enable-background:new 0 0 89 70.2;" xml:space="preserve">
<style type="text/css">
	.st0{fill-rule:evenodd;clip-rule:evenodd;fill:#D67E33;}
	.st1{fill-rule:evenodd;clip-rule:evenodd;fill:none;stroke:#BC582C;stroke-width:0.5669;stroke-miterlimit:22.9256;}
	
		.st2{fill-rule:evenodd;clip-rule:evenodd;fill:none;stroke:#BC582C;stroke-width:2.0001;stroke-linecap:round;stroke-linejoin:round;stroke-miterlimit:22.9256;}
	.st3{fill-rule:evenodd;clip-rule:evenodd;fill:none;stroke:#000000;stroke-width:0.5669;stroke-miterlimit:22.9256;}
	.st4{font-family:'ArialMT';}
	.st5{font-size:7.9999px;}
</style>
<g>
	<path class="st0" d="M27.9,19.4h4.5l1,5.3h0.3h2.1h0.3l1-5.3h3.3l1,5.3h0.3h2.1h0.3l1-5.3h3.2l1,5.3h0.3h2.1h0.3l1-5.3h3.3l1,5.3
		h0.3h2.1h0.3l1-5.3h3.4l1,5.3h0.3h2.1h0.3l1-5.3h3.3l1,5.3h0.3H76h0.3l1-5.3h3.8l6.8,6.8v38l-4.5,4.5l-2.9-3.6c-1.1,0-2.2,0-3.3,0
		l-0.8,4h-3.7l-0.8-4h-0.3h-2.1h-0.3l-0.8,4h-3.8l-0.8-4h-0.3h-2.1h-0.3l-0.8,4h-3.9l-0.8-4h-0.3h-2.1h-0.3l-0.8,4h-3.8l-0.8-4h-0.3
		h-2.1h-0.3l-0.8,4h-3.8l-0.8-4h-0.3h-2.1h-0.3l-0.8,4h-4.1l-0.8-4c-1.1,0-2.2,0-3.3,0l-2.8,3.5l-4.6-4.6V26.4L27.9,19.4z"/>
	<g>
		<g>
			<line class="st1" x1="34.8" y1="25.4" x2="34.8" y2="69.1"/>
			<line class="st1" x1="61.2" y1="19.4" x2="61.2" y2="64.7"/>
			<line class="st1" x1="48.6" y1="20.6" x2="48.6" y2="69.1"/>
			<line class="st1" x1="74.8" y1="25.4" x2="74.8" y2="69.1"/>
		</g>
		<g>
			<path class="st1" d="M86.3,65.4c-5-5.8-8.1-13.7-8.1-22.4c0-7.5,2.3-14.5,6.2-19.9l3.5,4v36.5L86.3,65.4z"/>
			<path class="st1" d="M87.9,58.6c-2.9-4.3-4.6-9.7-4.6-15.6c0-5.8,1.7-11.2,4.6-15.6V58.6z"/>
			<path class="st1" d="M75.1,68.8c-0.4,0.1-0.9,0.2-1.3,0.3 M65,69.1l-0.3-0.1 M61.3,21.8c1.1-0.5,2.2-0.9,3.4-1.2 M69.1,20.1
				l0.3,0c1.1,0,2.2,0.1,3.3,0.3"/>
			<path class="st1" d="M75.1,60.2c-1.8,0.8-3.7,1.3-5.7,1.3c-3,0-5.7-1-8.1-2.7 M61.3,30.9c2.3-1.7,5.1-2.7,8.1-2.7
				c2,0,4,0.5,5.7,1.3"/>
			<path class="st1" d="M74.9,49.4c-1.3,2-3.4,3.4-5.7,3.4c-3.9,0-7-3.5-7-7.9c0-4.3,3.1-7.9,7-7.9c2.4,0,4.5,1.3,5.7,3.4"/>
			<path class="st1" d="M69.4,42c1.4,0,2.5,1.3,2.5,2.8c0,1.5-1.1,2.8-2.5,2.8c-1.4,0-2.5-1.3-2.5-2.8C66.9,43.3,68,42,69.4,42z"/>
			<path class="st1" d="M34.8,64.6c-0.9,1-1.8,2-2.8,2.9 M20.8,63.3v-36 M27.5,19.8c2.1,1.1,4,2.6,5.7,4.4 M34.4,25.4
				c0.1,0.2,0.3,0.3,0.4,0.5"/>
			<path class="st1" d="M20.8,28.1c6.6,2,11.5,8.9,11.5,17.1c0,8.2-4.9,15.1-11.5,17.1V28.1z"/>
			<path class="st1" d="M20.8,36.2c2.9,1.6,4.9,5.1,4.9,9c0,4-2,7.4-4.9,9V36.2z"/>
			<path class="st1" d="M34.8,32.9c2-0.8,4.1-1.2,6.3-1.2c2.7,0,5.2,0.6,7.5,1.7"/>
			<path class="st1" d="M48.6,64.3c-0.2,0.2-0.5,0.4-0.7,0.5 M44.8,66.3c-1.2,0.4-2.5,0.6-3.8,0.6c-0.3,0-0.5,0-0.8,0 M36.9,66.2
				c-0.7-0.3-1.5-0.6-2.1-1.1 M34.8,40.4c1.9-1.1,4-1.8,6.3-1.8c2.8,0,5.4,1,7.5,2.7"/>
			<ellipse class="st1" cx="41.1" cy="52.8" rx="6.1" ry="6.7"/>
			<path class="st1" d="M41.1,50.4c1.2,0,2.2,1.1,2.2,2.4c0,1.3-1,2.4-2.2,2.4s-2.2-1.1-2.2-2.4C38.9,51.5,39.9,50.4,41.1,50.4z"/>
			<path class="st1" d="M36.6,22.5c1.4-0.2,2.7-0.4,4.3-0.4 M44.6,22.4c1.4,0.2,2.7,0.5,4,0.9"/>
			<path class="st1" d="M61.2,63.5c-6.9-4.4-11.6-13.2-11.6-23.2c0-7.7,2.7-14.6,7.1-19.4"/>
			<path class="st1" d="M56.6,37.9c0-5.3,1.8-10.1,4.7-13.5"/>
			<path class="st1" d="M56.9,69.1c-0.1-0.1-0.3-0.2-0.4-0.3 M53,65.3c-1.8-2.1-3.3-4.6-4.4-7.4"/>
		</g>
	</g>
	<path class="st2" d="M27.9,19.4h4.5l1,5.3h0.3h2.1h0.3l1-5.3h3.3l1,5.3h0.3h2.1h0.3l1-5.3h3.2l1,5.3h0.3h2.1h0.3l1-5.3h3.3l1,5.3
		h0.3h2.1h0.3l1-5.3h3.4l1,5.3h0.3h2.1h0.3l1-5.3h3.3l1,5.3h0.3H76h0.3l1-5.3h3.8l6.8,6.8v38l-4.5,4.5l-2.9-3.6c-1.1,0-2.2,0-3.3,0
		l-0.8,4h-3.7l-0.8-4h-0.3h-2.1h-0.3l-0.8,4h-3.8l-0.8-4h-0.3h-2.1h-0.3l-0.8,4h-3.9l-0.8-4h-0.3h-2.1h-0.3l-0.8,4h-3.8l-0.8-4h-0.3
		h-2.1h-0.3l-0.8,4h-3.8l-0.8-4h-0.3h-2.1h-0.3l-0.8,4h-4.1l-0.8-4c-1.1,0-2.2,0-3.3,0l-2.8,3.5l-4.6-4.6V26.4L27.9,19.4z"/>
</g>
<line class="st3" x1="19.9" y1="11" x2="88.7" y2="11"/>
<line class="st3" x1="19.9" y1="19.5" x2="19.9" y2="8.1"/>
<line class="st3" x1="88.7" y1="19.5" x2="88.7" y2="8.1"/>
<line class="st3" x1="9.9" y1="63.5" x2="9.9" y2="19.4"/>
<line class="st3" x1="18.3" y1="19.4" x2="7" y2="19.4"/>
<line class="st3" x1="18.3" y1="63.5" x2="7" y2="63.5"/>
<text transform="matrix(1 0 0 1 47.7728 6.8652)"><tspan x="0" y="0" class="st4 st5">1</tspan><tspan x="4.4" y="0" class="st4 st5">60</tspan></text>
<text transform="matrix(0 -1 1 0 6.8652 48.355)"><tspan x="0" y="0" class="st4 st5">1</tspan><tspan x="4.4" y="0" class="st4 st5">80</tspan></text>
</svg>
