<?xml version="1.0" encoding="utf-8"?>
<!-- Generator: Adobe Illustrator 22.0.1, SVG Export Plug-In . SVG Version: 6.00 Build 0)  -->
<svg version="1.1" id="Слой_1" xmlns="http://www.w3.org/2000/svg" xmlns:xlink="http://www.w3.org/1999/xlink" x="0px" y="0px"
	 viewBox="0 0 88.9838333 86.9002457" style="enable-background:new 0 0 88.9838333 86.9002457;" xml:space="preserve">
<style type="text/css">
	.st0{fill:none;stroke:#000000;stroke-width:0.4370196;stroke-miterlimit:22.9256001;}
	.st1{fill:none;stroke:#000000;stroke-width:0.5669;stroke-miterlimit:22.9256001;}
	.st2{font-family:'ArialMT';}
	.st3{font-size:7.9998999px;}
	.st4{fill:#D67E33;}
	.st5{fill:none;stroke:#BC582C;stroke-width:0.5669;stroke-miterlimit:22.9256001;}
	.st6{fill:none;stroke:#BC582C;stroke-width:2.0000999;stroke-linecap:round;stroke-linejoin:round;stroke-miterlimit:22.9256001;}
</style>
<line class="st0" x1="40.4003906" y1="11.0001945" x2="88.6503906" y2="11.0001945"/>
<line class="st1" x1="40.5253906" y1="19.3751945" x2="40.5253906" y2="7.9751949"/>
<line class="st1" x1="88.700386" y1="19.5001945" x2="88.700386" y2="8.1001949"/>
<line class="st1" x1="9.9003887" y1="83.5001984" x2="9.9003887" y2="19.4001942"/>
<line class="st1" x1="18.3003883" y1="19.4001942" x2="7.0003891" y2="19.4001942"/>
<line class="st1" x1="18.3003883" y1="83.5001984" x2="7.0003891" y2="83.5001984"/>
<text transform="matrix(1 0 0 1 57.7731934 6.8653564)" class="st2 st3">1</text>
<text transform="matrix(1 0 0 1 62.1731567 6.8653564)" class="st2 st3">20</text>
<text transform="matrix(0 -1 1 0 6.8656311 56.3535156)" class="st2 st3">1</text>
<text transform="matrix(0 -1 1 0 6.8656311 51.9541016)" class="st2 st3">80</text>
<g>
	<path class="st4" d="M48.9003906,17.2001934c10.5,0-4.6999969,0,4.4000015,0l1,5.3000011h0.2999992h3.5h0.2999992l1-5.2999992
		h3.4000015l1,5.2999992h0.2999954h2.1000061h0.2999954l1-5.2999992h3.3000031l1,5.2999992h0.2999954h3.7000046h0.2999954
		l1-5.2999992h3.8000031l6.8000031,6.7999992v54.9999962l-4.5,4.5l-2.9000015-3.5999985c-1.0999985,0-2.2000046,0-3.2999954,0
		l-0.8000031,4h-5.3000031l-0.7999954-4h-0.2999954h-2.0000076h-0.2999954l-0.8000031,4h-3.7999992l-0.7999992-4H61.800396
		h-2.0000038h-0.2999992l-0.7999992,4h-5.2999992l-0.7999992-4H52.300396c-7.1000023,0,4.0999985,0-3.2000008,0l-2.7999992,3.5
		l-4.5000038-4.5V24.3001938L48.9003906,17.2001934z"/>
	<g>
		<line class="st5" x1="56.2003937" y1="22.5001945" x2="56.2003937" y2="83.9001923"/>
		<line class="st5" x1="72.9003906" y1="22.5001945" x2="72.9003906" y2="84.0001907"/>
	</g>
	<path class="st5" d="M86.1003876,80.9001923c-6.2999954-8.2999954-10.1999969-19.5999985-10.1999969-32.1999969
		c0-10.9000015,2.9000015-20.7999992,7.8000031-28.7000008"/>
	<path class="st5" d="M87.4003906,69.8001938c-3.5999985-5.9000015-5.6999969-13.0999985-5.6999969-21
		s2.0999908-15.0999985,5.6999969-21"/>
	<path class="st5" d="M59.2003937,20.2001934c1.0999985-0.7000008,2.2000008-1.2000008,3.4000015-1.6000004 M67.0003967,17.8001938
		h0.2999954c1.0999985,0,2.2000046,0.1000004,3.2999954,0.3999996"/>
	<path class="st5" d="M73.0003967,76.2001953c-5.5,2.9000015-11.8000031,2.1999969-16.8000031-1.9000015 M56.2003937,36.5001945
		c3.5-5.2999992,11.3000031-7.1000004,16.8000031-4.2000008"/>
	<path class="st5" d="M73.0003967,65.0001907c-1.5,0.9000015-3.2000046,1.4000015-5,1.4000015
		c-6.5000038,0-11.8000031-6.7999992-11.8000031-15.0999985s5.2999992-15.0999985,11.8000031-15.0999985
		c1.6999969,0,3.2999954,0.5,4.6999969,1.2999992"/>
	<ellipse class="st5" cx="67.3003922" cy="51.3001938" rx="2.5" ry="3.7999992"/>
	<path class="st5" d="M59.4003906,80.1001968c-7.2999992-6.4000015-12.2999992-18.9000015-12.2999992-33.3000031
		c0-11,2.8999977-20.8999996,7.5-27.7999992"/>
	<path class="st5" d="M51.6003914,42.7001953c0-7.0999985,1.7999992-13.6000004,4.7000008-18.2999992"/>
	<path class="st5" d="M51.6003914,80.1001968c-5.7999992-5.8000031-8-13.8000031-10-22.2999992"/>
	<path class="st6" d="M48.9003906,17.2001934h4.5l1,5.3000011c6.8000031,0-3,0,3.8000031,0l1-5.2999992h3.4000015l1,5.2999992
		h0.2999992h2.1000023h0.2999954l1-5.2999992h3.2999954l1,5.2999992h0.3000031h3.6999969h0.3000031l1-5.2999992h3.8000031
		l6.7999954,6.7999992v54.9999962l-4.5,4.5l-2.9000015-3.5999985c-1.0999985,0-2.1999969,0-3.3000031,0l-0.7999954,4h-5.2999954
		l-0.8000031-4h-0.0999985h-2.0999985h-0.3000031l-0.7999954,4h-3.8000031l-0.7999992-4h-0.2000008h-2.0999985h-0.2999992
		l-0.7999992,4c-11.4000015,0,6.2000046,0-5.2999992,0l-0.7999992-4c-1.0999985,0-2.2000008,0-3.2999992,0l-2.7999992,3.5
		l-4.6000061-4.5V24.3001938L48.9003906,17.2001934z"/>
	<path class="st5" d="M73.0003967,70.2001953c-2.1000061,0.8000031-4.5,1.0999985-7,0.8000031
		c-3.6000023-0.5-7.0000038-2.3000031-9.8000031-5 M56.2003937,29.0001945
		c3.0999985-3.2999992,11.3000031-5.3999996,16.8000031-1.7999992"/>
	<path class="st5" d="M72.8003922,56.4001923c-1.2000046,2.2999992-3.2000046,3.7999992-5.5,3.7999992
		c-3.7000008,0-6.7999992-4-6.7999992-9s3-9,6.7999992-9c2.2999954,0,4.2999954,1.5,5.5,3.7999992"/>
</g>
</svg>
