<?xml version="1.0" encoding="utf-8"?>
<!-- Generator: Adobe Illustrator 22.0.1, SVG Export Plug-In . SVG Version: 6.00 Build 0)  -->
<svg version="1.1" id="_x31_" xmlns="http://www.w3.org/2000/svg" xmlns:xlink="http://www.w3.org/1999/xlink" x="0px" y="0px"
	 viewBox="0 0 208.8 249.7" style="enable-background:new 0 0 208.8 249.7;" xml:space="preserve">
<style type="text/css">
	.st0{fill:none;stroke:#000000;stroke-width:1.2464;stroke-miterlimit:22.9256;}
	.st1{fill-rule:evenodd;clip-rule:evenodd;fill:#D67E33;}
	.st2{fill-rule:evenodd;clip-rule:evenodd;fill:#E6E6E6;}
	.st3{fill-rule:evenodd;clip-rule:evenodd;fill:#CCCCCC;}
	
		.st4{fill-rule:evenodd;clip-rule:evenodd;fill:none;stroke:#BC572B;stroke-width:4.3571;stroke-linecap:round;stroke-linejoin:round;stroke-miterlimit:22.9256;}
	.st5{fill-rule:evenodd;clip-rule:evenodd;fill:none;stroke:#BC572B;stroke-width:1.2351;stroke-miterlimit:22.9256;}
	.st6{fill:none;stroke:#000000;stroke-width:1.261;stroke-miterlimit:22.9256;}
	.st7{font-family:'ArialMT';}
	.st8{font-size:29.3253px;}
</style>
<line class="st0" x1="88.9" y1="214.7" x2="88.9" y2="189.9"/>
<line class="st0" x1="178.2" y1="214.4" x2="178.2" y2="189.6"/>
<g>
	<path class="st1" d="M74.8,55.2h9.9l2.2,11.6h0.6h4.6h0.6l2.2-11.6h7.2l2.2,11.6h0.6h4.6h0.6l2.2-11.6h7.1l2.2,11.6h0.6h4.6h0.6
		l2.2-11.6h7.2l2.2,11.6h0.6h4.6h0.6l2.2-11.6h7.4l2.2,11.6h0.6h4.6h0.6l2.2-11.6h7.2l2.2,11.6h0.6h4.6h0.6l2.2-11.6h8.3l14.9,14.9
		v107.4l-9.8,9.8l-6.3-7.8c-2.4,0-4.8,0-7.1,0l-1.6,8.6h-8.1l-1.6-8.6h-0.6h-4.6h-0.6l-1.6,8.6h-8.3l-1.6-8.6h-0.6h-4.6h-0.6
		l-1.6,8.6h-8.5l-1.6-8.6h-0.6h-4.6h-0.6l-1.6,8.6h-8.3l-1.6-8.6h-0.6H113h-0.6l-1.6,8.6h-8.2l-1.6-8.6h-0.6h-4.6h-0.6l-1.6,8.6h-9
		l-1.6-8.6c-2.4,0-4.8,0-7.1,0l-6.1,7.5l-10-10V70.5L74.8,55.2z"/>
	<polygon class="st2" points="89.6,66.8 92.1,66.8 92.8,66.8 94.9,55.2 102.2,55.2 104.4,66.8 105,66.8 109.6,66.8 110.2,66.8 
		112.4,55.2 119.5,55.2 121.7,66.8 122.3,66.8 126.9,66.8 127.5,66.8 129.7,55.2 136.9,55.2 139.1,66.8 139.7,66.8 144.4,66.8 
		145,66.8 147.2,55.2 154.6,55.2 156.8,66.8 157.4,66.8 162,66.8 162.6,66.8 164.8,55.2 172,55.2 174.2,66.8 174.8,66.8 177.8,66.8 
		177.8,188.2 172.4,188.2 170.8,179.6 170.2,179.6 165.5,179.6 164.9,179.6 163.3,188.2 154.9,188.2 153.3,179.6 152.7,179.6 
		148.1,179.6 147.5,179.6 145.8,188.2 137.3,188.2 135.7,179.6 135.1,179.6 130.4,179.6 129.8,179.6 128.2,188.2 119.8,188.2 
		118.2,179.6 117.6,179.6 113,179.6 112.4,179.6 110.7,188.2 102.6,188.2 100.9,179.6 100.3,179.6 95.7,179.6 95.1,179.6 
		93.4,188.2 89.6,188.2 	"/>
	<path class="st3" d="M178.2,186.3l-2.4,2.4l-0.1-0.1l-0.1,0.1l-4.6-4.6l0.9-0.9l3.8,3.8l1.6-1.6L178.2,186.3L178.2,186.3z
		 M178.2,174.3l-0.9-0.9l-1.6,1.6l-5.1-5.1l5.1-5.1l1.6,1.6l0.9-0.9l-1.6-1.6l1.6-1.6l-0.9-0.9l-1.6,1.6l-5.1-5.1l5.1-5.1l1.6,1.6
		l0.9-0.9l-1.6-1.6l1.6-1.6l-0.9-0.9l-1.6,1.6l-5.1-5.1l5.1-5.1l1.6,1.6l0.9-0.9l-1.6-1.6l1.6-1.6l-0.9-0.9l-1.6,1.6l-5.1-5.1
		l5.1-5.1l1.6,1.6l0.9-0.9l-1.6-1.6l1.6-1.6l-0.9-0.9l-1.6,1.6l-5.1-5.1l5.1-5.1l1.6,1.6l0.9-0.9l-1.6-1.6l1.6-1.6l-0.9-0.9
		l-1.6,1.6l-5.1-5.1l5.1-5.1l1.6,1.6l0.9-0.9l-1.6-1.6l1.6-1.6l-0.9-0.9l-1.6,1.6l-5.1-5.1l5.1-5.1l1.6,1.6l0.9-0.9l-1.6-1.6
		l1.6-1.6l-0.9-0.9l-1.6,1.6l-5.1-5.1l5.1-5.1l1.6,1.6l0.9-0.9l-1.6-1.6l1.6-1.6l-0.9-0.9l-1.6,1.6l-5.1-5.1l5.1-5.1l1.6,1.6
		l0.9-0.9l-1.6-1.6l0.4-0.4l-0.9-0.9l-0.4,0.4l-0.4-0.4l-0.9,0.9l0.4,0.4l-5.1,5.1l-5.1-5.1l5.1-5.1l3.8,3.8l0.9-0.9l-3.8-3.8
		l2.5-2.5l-0.9-0.9l-2.5,2.5l-4.8-4.8l-0.9,0.9l4.8,4.8l-5.1,5.1l-0.7-0.7l-0.9,0.9l0.7,0.7l-5.1,5.1l-5.1-5.1l3.9-3.9l-0.9-0.9
		l-3.9,3.9l-5.1-5.1l5.1-5.1l3.1,3.1l0.9-0.9l-4-4l-0.1,0.1l-0.1-0.1l-6.1,6.1l0.6,0.6l-0.7,0.7l5.4,5.4l-5.1,5.1l-5.1-5.1l0.4-0.4
		l-0.9-0.9l-0.4,0.4l-5.1-5.1l3.3-3.3l-0.9-0.9l-3.3,3.3l-3.9-3.9l-0.9,0.9l3.9,3.9l-5.1,5.1l-0.4-0.4l-0.9,0.9l0.4,0.4l-5.1,5.1
		l-5.1-5.1l4.8-4.8l-0.9-0.9l-4.8,4.8l-4.3-4.3l-0.9,0.9l4.3,4.3l-5.1,5.1l-5.1-5.1l0.4-0.4l-0.9-0.9l-0.4,0.4l-5.1-5.1l4.4-4.4
		l-0.9-0.9l-4.4,4.4l-2.8-2.8l-0.9,0.9l2.8,2.8l-4.3,4.3l0.9,0.9l4.3-4.3l5.1,5.1l-5.1,5.1l-5.1-5.1l0.4-0.4L92,66.3l-0.4,0.4
		l-0.4-0.4l-0.9,0.9l0.4,0.4l-1.6,1.6L90,70l1.6-1.6l5.1,5.1l-5.1,5.1L90,77.2L89.2,78l1.6,1.6l-1.6,1.6l0.9,0.9l1.6-1.6l5.1,5.1
		l-5.1,5.1L90,89.2l-0.9,0.9l1.6,1.6l-1.6,1.6l0.9,0.9l1.6-1.6l5.1,5.1l-5.1,5.1l-1.6-1.6l-0.9,0.9l1.6,1.6l-1.6,1.6l0.9,0.9
		l1.6-1.6l5.1,5.1l-5.1,5.1l-1.6-1.6l-0.9,0.9l1.6,1.6l-1.6,1.6l0.9,0.9l1.6-1.6l5.1,5.1l-5.1,5.1l-1.6-1.6l-0.9,0.9l1.6,1.6
		l-1.6,1.6l0.9,0.9l1.6-1.6l5.1,5.1l-5.1,5.1l-1.6-1.6l-0.9,0.9l1.6,1.6l-1.6,1.6l0.9,0.9l1.6-1.6l5.1,5.1l-5.1,5.1l-1.6-1.6
		l-0.9,0.9l1.6,1.6l-1.6,1.6l0.9,0.9l1.6-1.6l5.1,5.1l-5.1,5.1l-1.6-1.6l-0.9,0.9l1.6,1.6l-1.6,1.6l0.9,0.9l1.6-1.6l5.1,5.1
		l-5.1,5.1l-1.6-1.6l-0.9,0.9l1.6,1.6l-1.6,1.6l0.9,0.9l1.6-1.6l3.3,3.3l0.9-0.9l-3.3-3.3l5.1-5.1l5.1,5.1l-3.3,3.3l0.9,0.9l3.3-3.3
		l5.1,5.1l-5.1,5.1l-1-1l-0.9,0.9l1.8,1.8l0.1-0.1l0.1,0.1l6-6l1.5,1.5l0.9-0.9l-1.5-1.5l5.1-5.1l5.1,5.1l-2.1,2.1l0.9,0.9l2.1-2.1
		l6,6l0.1-0.1l0.1,0.1l1.1-1.1l-0.9-0.9l-0.3,0.3l-5.1-5.1l5.1-5.1l3.3,3.3l0.9-0.9l-3.3-3.3l5.1-5.1l5.1,5.1l-3.5,3.5l0.9,0.9
		l3.5-3.5l5.1,5.1l-5.1,5.1l-2.6-2.6l-0.9,0.9l3.4,3.4l0.1-0.1l0.1,0.1l6-6l0.7,0.7l0.9-0.9l-0.7-0.7l1.2-1.2l-0.9-0.9l-1.2,1.2
		l-5.1-5.1l5.1-5.1l5.1,5.1l-3.3,3.3l0.9,0.9l3.3-3.3l5.1,5.1l-2.9,2.9l0.9,0.9l2.9-2.9l5.2,5.2l0.9-0.9l-5.2-5.2l5.1-5.1l3.3,3.3
		l0.9-0.9l-3.3-3.3l5.1-5.1l5.1,5.1l-4.4,4.4l0.9,0.9l4.4-4.4l1.6,1.6l0.9-0.9l-1.6-1.6L178.2,174.3L178.2,174.3z M157.7,181
		l-5.1-5.1l5.1-5.1l5.1,5.1L157.7,181L157.7,181z M163.8,175l-5.1-5.1l5.1-5.1l5.1,5.1L163.8,175L163.8,175z M169.8,168.9l-5.1-5.1
		l5.1-5.1l5.1,5.1L169.8,168.9L169.8,168.9z M151.7,175l-5.1-5.1l5.1-5.1l5.1,5.1L151.7,175L151.7,175z M157.7,168.9l-5.1-5.1
		l5.1-5.1l5.1,5.1L157.7,168.9L157.7,168.9z M163.8,162.9l-5.1-5.1l5.1-5.1l5.1,5.1L163.8,162.9L163.8,162.9z M169.8,156.9l-5.1-5.1
		l5.1-5.1l5.1,5.1L169.8,156.9L169.8,156.9z M139.7,175l-5.1-5.1l5.1-5.1l5.1,5.1L139.7,175L139.7,175z M145.7,168.9l-5.1-5.1
		l5.1-5.1l5.1,5.1L145.7,168.9L145.7,168.9z M151.7,162.9l-5.1-5.1l5.1-5.1l5.1,5.1L151.7,162.9L151.7,162.9z M157.7,156.9l-5.1-5.1
		l5.1-5.1l5.1,5.1L157.7,156.9L157.7,156.9z M163.8,150.9l-5.1-5.1l5.1-5.1l5.1,5.1L163.8,150.9L163.8,150.9z M169.8,144.9l-5.1-5.1
		l5.1-5.1l5.1,5.1L169.8,144.9L169.8,144.9z M121.7,181l-5.1-5.1l5.1-5.1l5.1,5.1L121.7,181L121.7,181z M127.7,175l-5.1-5.1l5.1-5.1
		l5.1,5.1L127.7,175L127.7,175z M133.7,168.9l-5.1-5.1l5.1-5.1l5.1,5.1L133.7,168.9L133.7,168.9z M139.7,162.9l-5.1-5.1l5.1-5.1
		l5.1,5.1L139.7,162.9L139.7,162.9z M145.7,156.9l-5.1-5.1l5.1-5.1l5.1,5.1L145.7,156.9L145.7,156.9z M151.7,150.9l-5.1-5.1l5.1-5.1
		l5.1,5.1L151.7,150.9L151.7,150.9z M157.7,144.9l-5.1-5.1l5.1-5.1l5.1,5.1L157.7,144.9L157.7,144.9z M163.8,138.9l-5.1-5.1l5.1-5.1
		l5.1,5.1L163.8,138.9L163.8,138.9z M169.8,132.9l-5.1-5.1l5.1-5.1l5.1,5.1L169.8,132.9L169.8,132.9z M109.6,181l-5.1-5.1l5.1-5.1
		l5.1,5.1L109.6,181L109.6,181z M115.6,175l-5.1-5.1l5.1-5.1l5.1,5.1L115.6,175L115.6,175z M121.7,168.9l-5.1-5.1l5.1-5.1l5.1,5.1
		L121.7,168.9L121.7,168.9z M127.7,162.9l-5.1-5.1l5.1-5.1l5.1,5.1L127.7,162.9L127.7,162.9z M133.7,156.9l-5.1-5.1l5.1-5.1l5.1,5.1
		L133.7,156.9L133.7,156.9z M139.7,150.9l-5.1-5.1l5.1-5.1l5.1,5.1L139.7,150.9L139.7,150.9z M145.7,144.9l-5.1-5.1l5.1-5.1l5.1,5.1
		L145.7,144.9L145.7,144.9z M151.7,138.9l-5.1-5.1l5.1-5.1l5.1,5.1L151.7,138.9L151.7,138.9z M157.7,132.9l-5.1-5.1l5.1-5.1l5.1,5.1
		L157.7,132.9L157.7,132.9z M163.8,126.8l-5.1-5.1l5.1-5.1l5.1,5.1L163.8,126.8L163.8,126.8z M169.8,120.8l-5.1-5.1l5.1-5.1l5.1,5.1
		L169.8,120.8L169.8,120.8z M103.6,175l-5.1-5.1l5.1-5.1l5.1,5.1L103.6,175L103.6,175z M109.6,168.9l-5.1-5.1l5.1-5.1l5.1,5.1
		L109.6,168.9L109.6,168.9z M115.6,162.9l-5.1-5.1l5.1-5.1l5.1,5.1L115.6,162.9L115.6,162.9z M121.7,156.9l-5.1-5.1l5.1-5.1l5.1,5.1
		L121.7,156.9L121.7,156.9z M127.7,150.9l-5.1-5.1l5.1-5.1l5.1,5.1L127.7,150.9L127.7,150.9z M133.7,144.9l-5.1-5.1l5.1-5.1l5.1,5.1
		L133.7,144.9L133.7,144.9z M139.7,138.9l-5.1-5.1l5.1-5.1l5.1,5.1L139.7,138.9L139.7,138.9z M145.7,132.9l-5.1-5.1l5.1-5.1l5.1,5.1
		L145.7,132.9L145.7,132.9z M151.7,126.8l-5.1-5.1l5.1-5.1l5.1,5.1L151.7,126.8L151.7,126.8z M157.7,120.8l-5.1-5.1l5.1-5.1l5.1,5.1
		L157.7,120.8L157.7,120.8z M163.8,114.8l-5.1-5.1l5.1-5.1l5.1,5.1L163.8,114.8L163.8,114.8z M169.8,108.8l-5.1-5.1l5.1-5.1l5.1,5.1
		L169.8,108.8L169.8,108.8z M94.4,185.9l-2.7,2.7l-0.1-0.1l-0.1,0.1l-2.4-2.4l0.9-0.9l1.6,1.6l1.9-1.9L94.4,185.9L94.4,185.9z
		 M97.6,168.9l-5.1-5.1l5.1-5.1l5.1,5.1L97.6,168.9L97.6,168.9z M103.6,162.9l-5.1-5.1l5.1-5.1l5.1,5.1L103.6,162.9L103.6,162.9z
		 M109.6,156.9l-5.1-5.1l5.1-5.1l5.1,5.1L109.6,156.9L109.6,156.9z M115.6,150.9l-5.1-5.1l5.1-5.1l5.1,5.1L115.6,150.9L115.6,150.9z
		 M121.7,144.9l-5.1-5.1l5.1-5.1l5.1,5.1L121.7,144.9L121.7,144.9z M127.7,138.9l-5.1-5.1l5.1-5.1l5.1,5.1L127.7,138.9L127.7,138.9z
		 M133.7,132.9l-5.1-5.1l5.1-5.1l5.1,5.1L133.7,132.9L133.7,132.9z M139.7,126.8l-5.1-5.1l5.1-5.1l5.1,5.1L139.7,126.8L139.7,126.8z
		 M145.7,120.8l-5.1-5.1l5.1-5.1l5.1,5.1L145.7,120.8L145.7,120.8z M151.7,114.8l-5.1-5.1l5.1-5.1l5.1,5.1L151.7,114.8L151.7,114.8z
		 M157.7,108.8l-5.1-5.1l5.1-5.1l5.1,5.1L157.7,108.8L157.7,108.8z M163.8,102.8l-5.1-5.1l5.1-5.1l5.1,5.1L163.8,102.8L163.8,102.8z
		 M169.8,96.8l-5.1-5.1l5.1-5.1l5.1,5.1L169.8,96.8L169.8,96.8z M97.6,156.9l-5.1-5.1l5.1-5.1l5.1,5.1L97.6,156.9L97.6,156.9z
		 M103.6,150.9l-5.1-5.1l5.1-5.1l5.1,5.1L103.6,150.9L103.6,150.9z M109.6,144.9l-5.1-5.1l5.1-5.1l5.1,5.1L109.6,144.9L109.6,144.9z
		 M115.6,138.9l-5.1-5.1l5.1-5.1l5.1,5.1L115.6,138.9L115.6,138.9z M121.7,132.9l-5.1-5.1l5.1-5.1l5.1,5.1L121.7,132.9L121.7,132.9z
		 M127.7,126.8l-5.1-5.1l5.1-5.1l5.1,5.1L127.7,126.8L127.7,126.8z M133.7,120.8l-5.1-5.1l5.1-5.1l5.1,5.1L133.7,120.8L133.7,120.8z
		 M139.7,114.8l-5.1-5.1l5.1-5.1l5.1,5.1L139.7,114.8L139.7,114.8z M145.7,108.8l-5.1-5.1l5.1-5.1l5.1,5.1L145.7,108.8L145.7,108.8z
		 M151.7,102.8l-5.1-5.1l5.1-5.1l5.1,5.1L151.7,102.8L151.7,102.8z M157.7,96.8l-5.1-5.1l5.1-5.1l5.1,5.1L157.7,96.8L157.7,96.8z
		 M163.8,90.8l-5.1-5.1l5.1-5.1l5.1,5.1L163.8,90.8L163.8,90.8z M169.8,84.8l-5.1-5.1l5.1-5.1l5.1,5.1L169.8,84.8L169.8,84.8z
		 M97.6,144.9l-5.1-5.1l5.1-5.1l5.1,5.1L97.6,144.9L97.6,144.9z M103.6,138.9l-5.1-5.1l5.1-5.1l5.1,5.1L103.6,138.9L103.6,138.9z
		 M109.6,132.9l-5.1-5.1l5.1-5.1l5.1,5.1L109.6,132.9L109.6,132.9z M115.6,126.8l-5.1-5.1l5.1-5.1l5.1,5.1L115.6,126.8L115.6,126.8z
		 M121.7,120.8l-5.1-5.1l5.1-5.1l5.1,5.1L121.7,120.8L121.7,120.8z M127.7,114.8l-5.1-5.1l5.1-5.1l5.1,5.1L127.7,114.8L127.7,114.8z
		 M133.7,108.8l-5.1-5.1l5.1-5.1l5.1,5.1L133.7,108.8L133.7,108.8z M139.7,102.8l-5.1-5.1l5.1-5.1l5.1,5.1L139.7,102.8L139.7,102.8z
		 M145.7,96.8l-5.1-5.1l5.1-5.1l5.1,5.1L145.7,96.8L145.7,96.8z M151.7,90.8l-5.1-5.1l5.1-5.1l5.1,5.1L151.7,90.8L151.7,90.8z
		 M157.7,84.8l-5.1-5.1l5.1-5.1l5.1,5.1L157.7,84.8L157.7,84.8z M163.8,78.7l-5.1-5.1l5.1-5.1l5.1,5.1L163.8,78.7L163.8,78.7z
		 M97.6,132.9l-5.1-5.1l5.1-5.1l5.1,5.1L97.6,132.9L97.6,132.9z M103.6,126.8l-5.1-5.1l5.1-5.1l5.1,5.1L103.6,126.8L103.6,126.8z
		 M109.6,120.8l-5.1-5.1l5.1-5.1l5.1,5.1L109.6,120.8L109.6,120.8z M115.6,114.8l-5.1-5.1l5.1-5.1l5.1,5.1L115.6,114.8L115.6,114.8z
		 M121.7,108.8l-5.1-5.1l5.1-5.1l5.1,5.1L121.7,108.8L121.7,108.8z M127.7,102.8l-5.1-5.1l5.1-5.1l5.1,5.1L127.7,102.8L127.7,102.8z
		 M133.7,96.8l-5.1-5.1l5.1-5.1l5.1,5.1L133.7,96.8L133.7,96.8z M139.7,90.8l-5.1-5.1l5.1-5.1l5.1,5.1L139.7,90.8L139.7,90.8z
		 M145.7,84.8l-5.1-5.1l5.1-5.1l5.1,5.1L145.7,84.8L145.7,84.8z M151.7,78.7l-5.1-5.1l5.1-5.1l5.1,5.1L151.7,78.7L151.7,78.7z
		 M97.6,120.8l-5.1-5.1l5.1-5.1l5.1,5.1L97.6,120.8L97.6,120.8z M103.6,114.8l-5.1-5.1l5.1-5.1l5.1,5.1L103.6,114.8L103.6,114.8z
		 M109.6,108.8l-5.1-5.1l5.1-5.1l5.1,5.1L109.6,108.8L109.6,108.8z M115.6,102.8l-5.1-5.1l5.1-5.1l5.1,5.1L115.6,102.8L115.6,102.8z
		 M121.7,96.8l-5.1-5.1l5.1-5.1l5.1,5.1L121.7,96.8L121.7,96.8z M127.7,90.8l-5.1-5.1l5.1-5.1l5.1,5.1L127.7,90.8L127.7,90.8z
		 M133.7,84.8l-5.1-5.1l5.1-5.1l5.1,5.1L133.7,84.8L133.7,84.8z M139.7,78.7l-5.1-5.1l5.1-5.1l5.1,5.1L139.7,78.7L139.7,78.7z
		 M97.6,108.8l-5.1-5.1l5.1-5.1l5.1,5.1L97.6,108.8L97.6,108.8z M103.6,102.8l-5.1-5.1l5.1-5.1l5.1,5.1L103.6,102.8L103.6,102.8z
		 M109.6,96.8l-5.1-5.1l5.1-5.1l5.1,5.1L109.6,96.8L109.6,96.8z M115.6,90.8l-5.1-5.1l5.1-5.1l5.1,5.1L115.6,90.8L115.6,90.8z
		 M121.7,84.8l-5.1-5.1l5.1-5.1l5.1,5.1L121.7,84.8L121.7,84.8z M127.7,78.7l-5.1-5.1l5.1-5.1l5.1,5.1L127.7,78.7L127.7,78.7z
		 M133.7,72.7l-5.1-5.1l5.1-5.1l5.1,5.1L133.7,72.7L133.7,72.7z M97.6,96.8l-5.1-5.1l5.1-5.1l5.1,5.1L97.6,96.8L97.6,96.8z
		 M103.6,90.8l-5.1-5.1l5.1-5.1l5.1,5.1L103.6,90.8L103.6,90.8z M109.6,84.8l-5.1-5.1l5.1-5.1l5.1,5.1L109.6,84.8L109.6,84.8z
		 M115.6,78.7l-5.1-5.1l5.1-5.1l5.1,5.1L115.6,78.7L115.6,78.7z M97.6,84.8l-5.1-5.1l5.1-5.1l5.1,5.1L97.6,84.8L97.6,84.8z
		 M103.6,78.7l-5.1-5.1l5.1-5.1l5.1,5.1L103.6,78.7L103.6,78.7z M115.6,56.4l-3.6,3.6l-0.9-0.9l4.5-4.5l0.1,0.1l0.1-0.1l5.2,5.2
		l-0.9,0.9L115.6,56.4z"/>
	<path class="st4" d="M74.8,55.2h9.9l2.2,11.6h0.6h4.6h0.6l2.2-11.6h7.2l2.2,11.6h0.6h4.6h0.6l2.2-11.6h7.1l2.2,11.6h0.6h4.6h0.6
		l2.2-11.6h7.2l2.2,11.6h0.6h4.6h0.6l2.2-11.6h7.4l2.2,11.6h0.6h4.6h0.6l2.2-11.6h7.2l2.2,11.6h0.6h4.6h0.6l2.2-11.6h8.3l14.9,14.9
		v107.4l-9.8,9.8l-6.3-7.8 M75.6,179.6l-6.1,7.5l-10-10V70.5l15.3-15.3 M82.8,179.6c-2.4,0-4.8,0-7.1,0 M182.2,179.6l-1.6,8.6h-8.1
		l-1.6-8.6h-0.6h-4.6h-0.6l-1.6,8.6h-8.3l-1.6-8.6h-0.6h-4.6h-0.6l-1.6,8.6h-8.5l-1.6-8.6h-0.6h-4.6h-0.6l-1.6,8.6h-8.3l-1.6-8.6
		h-0.6H113h-0.6l-1.6,8.6h-8.2l-1.6-8.6h-0.6h-4.6h-0.6l-1.6,8.6h-9l-1.6-8.6 M189.3,179.6c-2.4,0-4.8,0-7.1,0"/>
	<g>
		<line class="st5" x1="184.8" y1="56.1" x2="184.8" y2="177.6"/>
		<path class="st5" d="M205.2,165c-12.2-11.2-19.8-27.3-19.8-45.2c0-17.9,7.7-34.1,19.9-45.3"/>
		<path class="st5" d="M205.6,148.3c-5.6-8.1-8.9-18-8.9-28.6c0-10.5,3.4-19.8,8.9-28.4"/>
		<path class="st5" d="M183.7,125.6c-2.1,0-4.1-0.4-5.9-1.2 M177.8,96.4c1.8-0.8,3.8-1.2,5.9-1.2"/>
		<g>
			<path class="st5" d="M82.3,168.9c-5.4,5.3-11.9,9.3-19,11.4"/>
			<path class="st5" d="M62.8,67.5c7.3,2,13.9,6,19.5,11.5"/>
			<path class="st5" d="M59.5,88.8c13,4,22.6,18.2,22.6,35.1c0,16.9-9.6,31.1-22.6,35.1"/>
			<path class="st5" d="M59.5,105.4c5.7,3.4,9.6,10.4,9.6,18.5c0,8.1-3.9,15.2-9.6,18.5"/>
		</g>
		<path class="st5" d="M89.6,124.5c-0.9-3.9-1.3-7.9-1.3-12c0-4.1,0.5-8.2,1.3-12"/>
		<line class="st5" x1="82.4" y1="55.9" x2="82.4" y2="179.6"/>
		<path class="st5" d="M89.6,161c-2.8-3.3-5.2-6.7-7-10.4"/>
		<path class="st5" d="M184.8,143.1c-2.4-0.3-4.8-0.9-7-1.8"/>
		<path class="st5" d="M184.8,169.7c-2.4-0.2-4.8-0.6-7-1.1"/>
		<path class="st5" d="M184.8,74.7c-2.4,0.2-4.8,0.6-7,1.1"/>
	</g>
</g>
<line class="st0" x1="208.2" y1="208.6" x2="56.9" y2="208.6"/>
<line class="st0" x1="56.9" y1="214.7" x2="56.9" y2="189.9"/>
<line class="st0" x1="208.2" y1="214.7" x2="208.2" y2="189.9"/>
<line class="st0" x1="56.9" y1="35" x2="208.2" y2="35"/>
<line class="st0" x1="56.9" y1="53.7" x2="56.9" y2="28.9"/>
<line class="st0" x1="208.2" y1="53.7" x2="208.2" y2="28.9"/>
<line class="st6" x1="34.9" y1="191" x2="34.9" y2="53.5"/>
<line class="st0" x1="53.4" y1="53.3" x2="28.6" y2="53.3"/>
<line class="st0" x1="53.4" y1="190.9" x2="28.6" y2="190.9"/>
<text transform="matrix(1 0 0 1 106.7485 25.1655)" class="st7 st8">2</text>
<text transform="matrix(1 0 0 1 122.8823 25.1655)" class="st7 st8">00</text>
<text transform="matrix(0 -1 1 0 25.1655 148.2397)" class="st7 st8">1</text>
<text transform="matrix(0 -1 1 0 25.1655 132.1108)" class="st7 st8">80</text>
<text transform="matrix(1 0 0 1 107.8823 240.1655)" class="st7 st8">126</text>
<text transform="matrix(1 0 0 1 56.8823 240.1655)" class="st7 st8">37</text>
<text transform="matrix(1 0 0 1 176.3823 239.6655)" class="st7 st8">37</text>
</svg>
