<?xml version="1.0" encoding="utf-8"?>
<!-- Generator: Adobe Illustrator 22.0.1, SVG Export Plug-In . SVG Version: 6.00 Build 0)  -->
<svg version="1.1" id="_x31_" xmlns="http://www.w3.org/2000/svg" xmlns:xlink="http://www.w3.org/1999/xlink" x="0px" y="0px"
	 viewBox="0 0 208.8 249.7" style="enable-background:new 0 0 208.8 249.7;" xml:space="preserve">
<style type="text/css">
	.st0{fill:none;stroke:#000000;stroke-width:1.2464;stroke-miterlimit:22.9256;}
	.st1{fill-rule:evenodd;clip-rule:evenodd;fill:#D67E33;}
	.st2{fill-rule:evenodd;clip-rule:evenodd;fill:none;stroke:#BC572B;stroke-width:1.2351;stroke-miterlimit:22.9256;}
	.st3{fill-rule:evenodd;clip-rule:evenodd;fill:#E6E6E6;}
	.st4{fill-rule:evenodd;clip-rule:evenodd;fill:#CCCCCC;}
	
		.st5{fill-rule:evenodd;clip-rule:evenodd;fill:none;stroke:#BC572B;stroke-width:4.3571;stroke-linecap:round;stroke-linejoin:round;stroke-miterlimit:22.9256;}
	.st6{fill:none;stroke:#000000;stroke-width:1.261;stroke-miterlimit:22.9256;}
	.st7{font-family:'ArialMT';}
	.st8{font-size:29.3253px;}
</style>
<line class="st0" x1="208.2" y1="208.6" x2="56.9" y2="208.6"/>
<line class="st0" x1="56.9" y1="214.7" x2="56.9" y2="189.9"/>
<line class="st0" x1="208.2" y1="214.7" x2="208.2" y2="189.9"/>
<line class="st0" x1="161.2" y1="214.4" x2="161.2" y2="189.6"/>
<line class="st0" x1="106.9" y1="214.7" x2="106.9" y2="189.9"/>
<g>
	<path class="st1" d="M75,54.8h9.9L87,66.3h0.6h4.6h0.6l2.2-11.6h7.2l2.2,11.6h0.6h4.6h0.6l2.2-11.6h7.1l2.2,11.6h0.6h4.6h0.6
		l2.2-11.6h7.2l2.2,11.6h0.6h4.6h0.6l2.2-11.6h7.4l2.2,11.6h0.6h4.6h0.6l2.2-11.6h7.2l2.2,11.6h0.6h4.6h0.6l2.2-11.6h8.3l14.9,14.9
		v107.4l-9.8,9.8l-6.3-7.8c-2.4,0-4.8,0-7.1,0l-1.6,8.6h-8.1l-1.6-8.6h-0.6h-4.6H165l-1.6,8.6h-8.3l-1.6-8.6h-0.6h-4.6h-0.6
		l-1.6,8.6h-8.5l-1.6-8.6h-0.6h-4.6H130l-1.6,8.6H120l-1.6-8.6h-0.6h-4.6h-0.6l-1.6,8.6h-8.2l-1.6-8.6h-0.6h-4.6h-0.6l-1.6,8.6h-9
		l-1.6-8.6c-2.4,0-4.8,0-7.1,0l-6.1,7.5l-10-10V70.1L75,54.8z"/>
	<g>
		<line class="st2" x1="184.9" y1="55.4" x2="184.9" y2="176.9"/>
		<path class="st2" d="M205.3,164.2c-12.2-11.2-19.8-27.3-19.8-45.2c0-17.9,7.7-34.1,19.9-45.3"/>
		<path class="st2" d="M205.7,147.6c-5.6-8.1-8.9-18-8.9-28.6c0-10.5,3.4-19.8,8.9-28.4"/>
		<path class="st2" d="M183.8,124.8c-8.4,0-15.2-6.8-15.2-15.2c0-8.4,6.8-15.2,15.2-15.2"/>
		<path class="st2" d="M82.4,168.2c-5.4,5.3-11.9,9.3-19,11.4"/>
		<path class="st2" d="M62.9,66.7c7.3,2,13.9,6,19.5,11.5"/>
		<path class="st2" d="M59.6,88.1c13,4,22.6,18.2,22.6,35.1c0,16.9-9.6,31.1-22.6,35.1"/>
		<path class="st2" d="M59.6,104.7c5.7,3.4,9.6,10.4,9.6,18.5c0,8.1-3.9,15.2-9.6,18.5"/>
		<path class="st2" d="M104.1,149.4c-9.7-9.3-15.8-22.7-15.8-37.7c0-15,6.1-28.4,15.8-37.7"/>
		<line class="st2" x1="161.9" y1="66" x2="161.9" y2="187.5"/>
		<line class="st2" x1="104.2" y1="66" x2="104.2" y2="187.5"/>
		<line class="st2" x1="82.5" y1="55.1" x2="82.5" y2="178.8"/>
		<path class="st2" d="M104.1,172.2c-9.7-6-17.1-13.7-21.3-22.4"/>
		<path class="st2" d="M184.9,142.3c-10.3-1.4-18.9-7.9-23.2-16.9"/>
		<path class="st2" d="M184.9,169c-10.3-0.8-18.9-4.7-23.2-10.1"/>
		<path class="st2" d="M184.9,74c-10.3,0.8-18.9,4.7-23.2,10.1"/>
		<path class="st2" d="M160.4,117.7c0.3,1.7,0.5,3.5,0.5,5.3c0,1.8-0.2,3.6-0.5,5.3"/>
		<path class="st2" d="M104.1,73.1c1-0.6,2.1-1.2,3.1-1.8 M111.8,69.2c0.7-0.3,1.4-0.6,2.1-0.8c2.5-1,5.1-1.7,7.7-2.3"/>
		<path class="st2" d="M145.7,65.7c3.9,0.8,7.7,1.9,11.3,3.5 M160.4,70.7c0.6,0.3,1.2,0.6,1.8,0.9"/>
		<path class="st2" d="M161.8,157.9c-0.5,0.4-0.9,0.7-1.4,1 M107.2,157.5c-0.9-0.7-1.8-1.5-2.7-2.3"/>
		<path class="st2" d="M104.1,91.7c1-1,2-1.9,3.1-2.8 M160.4,87.4c0.5,0.4,1,0.7,1.5,1.1"/>
	</g>
	<polygon class="st3" points="107.2,66.3 109.7,66.3 110.3,66.3 112.5,54.8 119.6,54.8 121.8,66.3 122.4,66.3 127,66.3 127.6,66.3 
		129.8,54.8 137.1,54.8 139.3,66.3 139.9,66.3 144.5,66.3 145.1,66.3 147.3,54.8 154.7,54.8 156.9,66.3 157.5,66.3 160.4,66.3 
		160.4,187.8 155.1,187.8 153.4,179.2 152.8,179.2 148.2,179.2 147.6,179.2 145.9,187.8 137.4,187.8 135.8,179.2 135.2,179.2 
		130.6,179.2 130,179.2 128.3,187.8 120,187.8 118.3,179.2 117.7,179.2 113.1,179.2 112.5,179.2 110.8,187.8 107.2,187.8 	"/>
	<path class="st4" d="M160.8,179.3l-2.1,2.1l2.1,2.1l-0.9,0.9l-2.1-2.1l-2.9,2.9l-0.9-0.9l2.9-2.9l-5.1-5.1l-3.3,3.3l-0.9-0.9
		l3.3-3.3l-5.1-5.1l-5.1,5.1l5.1,5.1l1.2-1.2l0.9,0.9l-1.2,1.2l0.7,0.7l-0.9,0.9l-0.7-0.7l-6,6l-0.1-0.1l-0.1,0.1l-3.4-3.4l0.9-0.9
		l2.6,2.6l5.1-5.1l-5.1-5.1l-3.5,3.5l-0.9-0.9l3.5-3.5l-5.1-5.1l-5.1,5.1l3.3,3.3l-0.9,0.9l-3.3-3.3l-5.1,5.1l5.1,5.1l0.3-0.3
		l0.9,0.9l-1.1,1.1l-0.1-0.1l-0.1,0.1l-6-6l-2.1,2.1l-0.9-0.9l2.1-2.1l-5.1-5.1l-5.1,5.1l1.5,1.5l-0.9,0.9l-1.5-1.5l-2.1,2.1
		l-0.9-0.9l2.1-2.1l-2.1-2.1l0.9-0.9l2.1,2.1l5.1-5.1l-5.1-5.1l-2.1,2.1l-0.9-0.9l2.1-2.1l-2.1-2.1l0.9-0.9l2.1,2.1l5.1-5.1
		l-5.1-5.1l-2.1,2.1l-0.9-0.9l2.1-2.1l-2.1-2.1l0.9-0.9l2.1,2.1l5.1-5.1l-5.1-5.1l-2.1,2.1l-0.9-0.9l2.1-2.1l-2.1-2.1l0.9-0.9
		l2.1,2.1l5.1-5.1l-5.1-5.1l-2.1,2.1l-0.9-0.9l2.1-2.1l-2.1-2.1l0.9-0.9l2.1,2.1l5.1-5.1l-5.1-5.1l-2.1,2.1l-0.9-0.9l2.1-2.1
		l-2.1-2.1l0.9-0.9l2.1,2.1l5.1-5.1l-5.1-5.1l-2.1,2.1l-0.9-0.9l2.1-2.1l-2.1-2.1l0.9-0.9l2.1,2.1l5.1-5.1l-5.1-5.1l-2.1,2.1
		l-0.9-0.9l2.1-2.1l-2.1-2.1l0.9-0.9l2.1,2.1l5.1-5.1l-5.1-5.1l-2.1,2.1l-0.9-0.9l2.1-2.1l-2.1-2.1l0.9-0.9l2.1,2.1l5.1-5.1
		l-5.1-5.1l-2.1,2.1l-0.9-0.9l2.1-2.1l-2.1-2.1l0.9-0.9l2.1,2.1l5.1-5.1l-4.3-4.3l0.9-0.9l4.3,4.3l4.8-4.8l0.9,0.9l-4.8,4.8l5.1,5.1
		l5.1-5.1l-0.4-0.4l0.9-0.9l0.4,0.4l5.1-5.1l-3.9-3.9l0.9-0.9l3.9,3.9l3.3-3.3l0.9,0.9l-3.3,3.3l5.1,5.1l0.4-0.4l0.9,0.9l-0.4,0.4
		l5.1,5.1l5.1-5.1l-5.4-5.4l0.7-0.7l-0.6-0.6l6.1-6.1l0.1,0.1l0.1-0.1l4,4l-0.9,0.9l-3.1-3.1l-5.1,5.1l5.1,5.1l3.9-3.9l0.9,0.9
		l-3.9,3.9l5.1,5.1l2.1-2.1l0.9,0.9l-2.1,2.1l2.1,2.1l-0.9,0.9l-2.1-2.1l-5.1,5.1l5.1,5.1l2.1-2.1l0.9,0.9l-2.1,2.1l2.1,2.1
		l-0.9,0.9l-2.1-2.1l-5.1,5.1l5.1,5.1l2.1-2.1l0.9,0.9l-2.1,2.1l2.1,2.1l-0.9,0.9l-2.1-2.1l-5.1,5.1l5.1,5.1l2.1-2.1l0.9,0.9
		l-2.1,2.1l2.1,2.1l-0.9,0.9l-2.1-2.1l-5.1,5.1l5.1,5.1l2.1-2.1l0.9,0.9l-2.1,2.1l2.1,2.1l-0.9,0.9l-2.1-2.1l-5.1,5.1l5.1,5.1
		l2.1-2.1l0.9,0.9l-2.1,2.1l2.1,2.1l-0.9,0.9l-2.1-2.1l-5.1,5.1l5.1,5.1l2.1-2.1l0.9,0.9l-2.1,2.1l2.1,2.1l-0.9,0.9l-2.1-2.1
		l-5.1,5.1l5.1,5.1l2.1-2.1l0.9,0.9l-2.1,2.1l2.1,2.1l-0.9,0.9l-2.1-2.1l-5.1,5.1l5.1,5.1l2.1-2.1l0.9,0.9l-2.1,2.1l2.1,2.1
		l-0.9,0.9l-2.1-2.1l-5.1,5.1l5.1,5.1l2.1-2.1L160.8,179.3L160.8,179.3z M151.8,174.5l5.1-5.1l-5.1-5.1l-5.1,5.1L151.8,174.5
		L151.8,174.5z M139.8,174.5l5.1-5.1l-5.1-5.1l-5.1,5.1L139.8,174.5L139.8,174.5z M145.8,168.5l5.1-5.1l-5.1-5.1l-5.1,5.1
		L145.8,168.5L145.8,168.5z M151.8,162.5l5.1-5.1l-5.1-5.1l-5.1,5.1L151.8,162.5L151.8,162.5z M121.8,180.5l5.1-5.1l-5.1-5.1
		l-5.1,5.1L121.8,180.5L121.8,180.5z M127.8,174.5l5.1-5.1l-5.1-5.1l-5.1,5.1L127.8,174.5L127.8,174.5z M133.8,168.5l5.1-5.1
		l-5.1-5.1l-5.1,5.1L133.8,168.5L133.8,168.5z M139.8,162.5l5.1-5.1l-5.1-5.1l-5.1,5.1L139.8,162.5L139.8,162.5z M145.8,156.5
		l5.1-5.1l-5.1-5.1l-5.1,5.1L145.8,156.5L145.8,156.5z M151.8,150.5l5.1-5.1l-5.1-5.1l-5.1,5.1L151.8,150.5L151.8,150.5z
		 M115.8,174.5l5.1-5.1l-5.1-5.1l-5.1,5.1L115.8,174.5L115.8,174.5z M121.8,168.5l5.1-5.1l-5.1-5.1l-5.1,5.1L121.8,168.5
		L121.8,168.5z M127.8,162.5l5.1-5.1l-5.1-5.1l-5.1,5.1L127.8,162.5L127.8,162.5z M133.8,156.5l5.1-5.1l-5.1-5.1l-5.1,5.1
		L133.8,156.5L133.8,156.5z M139.8,150.5l5.1-5.1l-5.1-5.1l-5.1,5.1L139.8,150.5L139.8,150.5z M145.8,144.5l5.1-5.1l-5.1-5.1
		l-5.1,5.1L145.8,144.5L145.8,144.5z M151.8,138.5l5.1-5.1l-5.1-5.1l-5.1,5.1L151.8,138.5L151.8,138.5z M115.8,162.5l5.1-5.1
		l-5.1-5.1l-5.1,5.1L115.8,162.5L115.8,162.5z M121.8,156.5l5.1-5.1l-5.1-5.1l-5.1,5.1L121.8,156.5L121.8,156.5z M127.8,150.5
		l5.1-5.1l-5.1-5.1l-5.1,5.1L127.8,150.5L127.8,150.5z M133.8,144.5l5.1-5.1l-5.1-5.1l-5.1,5.1L133.8,144.5L133.8,144.5z
		 M139.8,138.5l5.1-5.1l-5.1-5.1l-5.1,5.1L139.8,138.5L139.8,138.5z M145.8,132.4l5.1-5.1l-5.1-5.1l-5.1,5.1L145.8,132.4
		L145.8,132.4z M151.8,126.4l5.1-5.1l-5.1-5.1l-5.1,5.1L151.8,126.4L151.8,126.4z M115.8,150.5l5.1-5.1l-5.1-5.1l-5.1,5.1
		L115.8,150.5L115.8,150.5z M121.8,144.5l5.1-5.1l-5.1-5.1l-5.1,5.1L121.8,144.5L121.8,144.5z M127.8,138.5l5.1-5.1l-5.1-5.1
		l-5.1,5.1L127.8,138.5L127.8,138.5z M133.8,132.4l5.1-5.1l-5.1-5.1l-5.1,5.1L133.8,132.4L133.8,132.4z M139.8,126.4l5.1-5.1
		l-5.1-5.1l-5.1,5.1L139.8,126.4L139.8,126.4z M145.8,120.4l5.1-5.1l-5.1-5.1l-5.1,5.1L145.8,120.4L145.8,120.4z M151.8,114.4
		l5.1-5.1l-5.1-5.1l-5.1,5.1L151.8,114.4L151.8,114.4z M115.8,138.5l5.1-5.1l-5.1-5.1l-5.1,5.1L115.8,138.5L115.8,138.5z
		 M121.8,132.4l5.1-5.1l-5.1-5.1l-5.1,5.1L121.8,132.4L121.8,132.4z M127.8,126.4l5.1-5.1l-5.1-5.1l-5.1,5.1L127.8,126.4
		L127.8,126.4z M133.8,120.4l5.1-5.1l-5.1-5.1l-5.1,5.1L133.8,120.4L133.8,120.4z M139.8,114.4l5.1-5.1l-5.1-5.1l-5.1,5.1
		L139.8,114.4L139.8,114.4z M145.8,108.4l5.1-5.1l-5.1-5.1l-5.1,5.1L145.8,108.4L145.8,108.4z M151.8,102.4l5.1-5.1l-5.1-5.1
		l-5.1,5.1L151.8,102.4L151.8,102.4z M115.8,126.4l5.1-5.1l-5.1-5.1l-5.1,5.1L115.8,126.4L115.8,126.4z M121.8,120.4l5.1-5.1
		l-5.1-5.1l-5.1,5.1L121.8,120.4L121.8,120.4z M127.8,114.4l5.1-5.1l-5.1-5.1l-5.1,5.1L127.8,114.4L127.8,114.4z M133.8,108.4
		l5.1-5.1l-5.1-5.1l-5.1,5.1L133.8,108.4L133.8,108.4z M139.8,102.4l5.1-5.1l-5.1-5.1l-5.1,5.1L139.8,102.4L139.8,102.4z
		 M145.8,96.4l5.1-5.1l-5.1-5.1l-5.1,5.1L145.8,96.4L145.8,96.4z M151.8,90.3l5.1-5.1l-5.1-5.1l-5.1,5.1L151.8,90.3L151.8,90.3z
		 M115.8,114.4l5.1-5.1l-5.1-5.1l-5.1,5.1L115.8,114.4L115.8,114.4z M121.8,108.4l5.1-5.1l-5.1-5.1l-5.1,5.1L121.8,108.4
		L121.8,108.4z M127.8,102.4l5.1-5.1l-5.1-5.1l-5.1,5.1L127.8,102.4L127.8,102.4z M133.8,96.4l5.1-5.1l-5.1-5.1l-5.1,5.1L133.8,96.4
		L133.8,96.4z M139.8,90.3l5.1-5.1l-5.1-5.1l-5.1,5.1L139.8,90.3L139.8,90.3z M145.8,84.3l5.1-5.1l-5.1-5.1l-5.1,5.1L145.8,84.3
		L145.8,84.3z M151.8,78.3l5.1-5.1l-5.1-5.1l-5.1,5.1L151.8,78.3L151.8,78.3z M115.8,102.4l5.1-5.1l-5.1-5.1l-5.1,5.1L115.8,102.4
		L115.8,102.4z M121.8,96.4l5.1-5.1l-5.1-5.1l-5.1,5.1L121.8,96.4L121.8,96.4z M127.8,90.3l5.1-5.1l-5.1-5.1l-5.1,5.1L127.8,90.3
		L127.8,90.3z M133.8,84.3l5.1-5.1l-5.1-5.1l-5.1,5.1L133.8,84.3L133.8,84.3z M139.8,78.3l5.1-5.1l-5.1-5.1l-5.1,5.1L139.8,78.3
		L139.8,78.3z M115.8,90.3l5.1-5.1l-5.1-5.1l-5.1,5.1L115.8,90.3L115.8,90.3z M121.8,84.3l5.1-5.1l-5.1-5.1l-5.1,5.1L121.8,84.3
		L121.8,84.3z M127.8,78.3l5.1-5.1l-5.1-5.1l-5.1,5.1L127.8,78.3L127.8,78.3z M133.8,72.3l5.1-5.1l-5.1-5.1l-5.1,5.1L133.8,72.3
		L133.8,72.3z M115.8,78.3l5.1-5.1l-5.1-5.1l-5.1,5.1L115.8,78.3L115.8,78.3z M115.8,56l4.4,4.4l0.9-0.9l-5.2-5.2l-0.1,0.1l-0.1-0.1
		l-4.5,4.5l0.9,0.9L115.8,56z"/>
	<path class="st5" d="M75,54.8h9.9L87,66.3h0.6h4.6h0.6l2.2-11.6h7.2l2.2,11.6h0.6h4.6h0.6l2.2-11.6h7.1l2.2,11.6h0.6h4.6h0.6
		l2.2-11.6h7.2l2.2,11.6h0.6h4.6h0.6l2.2-11.6h7.4l2.2,11.6h0.6h4.6h0.6l2.2-11.6h7.2l2.2,11.6h0.6h4.6h0.6l2.2-11.6h8.3l14.9,14.9
		v107.4l-9.8,9.8l-6.3-7.8 M75.8,179.2l-6.1,7.5l-10-10V70.1L75,54.8 M82.9,179.2c-2.4,0-4.8,0-7.1,0 M182.3,179.2l-1.6,8.6h-8.1
		l-1.6-8.6h-0.6h-4.6H165l-1.6,8.6h-8.3l-1.6-8.6h-0.6h-4.6h-0.6l-1.6,8.6h-8.5l-1.6-8.6h-0.6h-4.6H130l-1.6,8.6H120l-1.6-8.6h-0.6
		h-4.6h-0.6l-1.6,8.6h-8.2l-1.6-8.6h-0.6h-4.6h-0.6l-1.6,8.6h-9l-1.6-8.6 M189.4,179.2c-2.4,0-4.8,0-7.1,0"/>
</g>
<line class="st0" x1="56.9" y1="35" x2="208.2" y2="35"/>
<line class="st0" x1="56.9" y1="53.7" x2="56.9" y2="28.9"/>
<line class="st0" x1="208.2" y1="53.7" x2="208.2" y2="28.9"/>
<line class="st6" x1="34.9" y1="191" x2="34.9" y2="53.5"/>
<line class="st0" x1="53.4" y1="53.3" x2="28.6" y2="53.3"/>
<line class="st0" x1="53.4" y1="190.9" x2="28.6" y2="190.9"/>
<text transform="matrix(1 0 0 1 106.7485 25.1655)" class="st7 st8">2</text>
<text transform="matrix(1 0 0 1 122.8823 25.1655)" class="st7 st8">40</text>
<text transform="matrix(0 -1 1 0 25.1655 148.2397)" class="st7 st8">1</text>
<text transform="matrix(0 -1 1 0 25.1655 132.1108)" class="st7 st8">80</text>
<text transform="matrix(1 0 0 1 107.8823 240.1655)" class="st7 st8">126</text>
<text transform="matrix(1 0 0 1 65.8823 240.1655)" class="st7 st8">57</text>
<text transform="matrix(1 0 0 1 168.3823 239.6655)" class="st7 st8">57</text>
</svg>
