<?xml version="1.0" encoding="utf-8"?>
<!-- Generator: Adobe Illustrator 22.0.1, SVG Export Plug-In . SVG Version: 6.00 Build 0)  -->
<svg version="1.1" id="Слой_1" xmlns="http://www.w3.org/2000/svg" xmlns:xlink="http://www.w3.org/1999/xlink" x="0px" y="0px"
	 viewBox="0 0 168.1 168.1" style="enable-background:new 0 0 168.1 168.1;" xml:space="preserve">
<style type="text/css">
	.st0{fill-rule:evenodd;clip-rule:evenodd;fill:#E4E8D0;}
	.st1{fill:none;stroke:#96B11F;stroke-width:2.5;stroke-linecap:round;stroke-linejoin:round;stroke-miterlimit:10;}
	.st2{fill:#96B11F;stroke:#464731;stroke-width:2.5;stroke-miterlimit:10;}
	.st3{fill:#464731;stroke:#96B11F;stroke-width:2.5;stroke-linecap:round;stroke-linejoin:round;stroke-miterlimit:10;}
</style>
<path class="st0" d="M84,168.1c46.3,0,84-37.7,84-84c0-46.3-37.8-84-84-84S0,37.7,0,84C0,130.3,37.8,168.1,84,168.1z"/>
<g>
	<ellipse class="st2" cx="83.3" cy="103.6" rx="15" ry="47.3"/>
	<g>
		<path class="st2" d="M90.1,115.5c-3.2,0-3.2,11.4-6.4,11.4c-3.2,0-3.2-11.4-6.4-11.4c-3.2,0-3.2,11.4-6.4,11.4c-0.1,0-0.2,0-0.2,0
			c0,0,0,0,0,0c0,0,0.1,0,0.1,0c3.2,0,3.2,11.4,6.4,11.4c3.2,0,3.2-11.4,6.4-11.4c3.2,0,3.2,11.4,6.4,11.4c3.1,0,3.2-10.4,6-11.3
			c0-0.1,0-0.1,0-0.2C93.3,125.7,93.2,115.5,90.1,115.5z"/>
		<path class="st2" d="M70.8,81.3c3.2,0,3.2,11.4,6.4,11.4c3.2,0,3.2-11.4,6.4-11.4c3.2,0,3.2,11.4,6.4,11.4
			c3.1,0,3.2-10.8,6.2-11.4c0,0,0-0.1,0-0.1c-2.9-0.8-3-11.3-6.1-11.3c-3.2,0-3.2,11.4-6.4,11.4c-3.2,0-3.2-11.4-6.4-11.4
			C74.1,70,74.1,81.3,70.8,81.3c0,0-0.2,0-0.3-0.1c0,0,0,0.1,0,0.1C70.6,81.4,70.7,81.3,70.8,81.3z"/>
		<path class="st2" d="M98,103.1c-0.4,0.6-0.9,1-1.5,1c-3.2,0-3.2-11.4-6.4-11.4c-3.2,0-3.2,11.4-6.4,11.4c-3.2,0-3.2-11.4-6.4-11.4
			c-3.2,0-3.2,11.4-6.4,11.4c-1.1,0-1.7-1.3-2.2-3c0,0.8,0,1.7,0,2.6c0,0.9,0,1.8,0,2.7c0.5-1.3,1.2-2.2,2.1-2.2
			c3.2,0,3.2,11.4,6.4,11.4c3.2,0,3.2-11.4,6.4-11.4c3.2,0,3.2,11.4,6.4,11.4c3.2,0,3.2-11.4,6.4-11.4c0.6,0,1.1,0.4,1.6,1.1
			c0-0.5,0-1.1,0-1.6C98,103.5,98,103.3,98,103.1z"/>
	</g>
	<g>
		<path class="st1" d="M52.6,26.1c8.8,1.2,18.6,3,29.1,5.7c9.5,2.4,18.2,5.2,25.9,8.1"/>
		<path class="st1" d="M128.6,18.8c-5.5,7.1-13.6,16-25.1,24.2C86.5,55.4,69.8,60.7,59.1,63.2"/>
		<path class="st1" d="M128.6,18.8c-0.9,4.4-1.9,9-3.2,13.7c-0.8,2.8-1.6,5.5-2.4,8.1"/>
		<path class="st1" d="M127.7,19.7c-2.1,4.1-4.1,8.3-6.2,12.7c-1.9,4-3.7,8-5.4,11.9"/>
		<path class="st1" d="M117.4,31.5c-1.5,3.6-3.5,7.5-5.9,11.6c-2.1,3.5-4.2,6.7-6.3,9.5"/>
		<path class="st1" d="M110.4,37.8c-1.3,2.4-2.7,4.8-4,7.3c-3.2,5.6-6.4,11-9.7,16.2"/>
		<path class="st1" d="M105.6,41.8c-1.6,2.1-3.2,4.5-4.8,7.3c-2,3.5-3.6,6.7-4.8,9.7"/>
		<path class="st1" d="M82.6,60c2.3-1,5.2-2.6,8.3-5.1c3.6-2.9,5.9-6,7.4-8.3"/>
		<path class="st1" d="M78.1,57.2c-2.6,1.8-5.8,4.5-8.9,8.1c-2.5,2.9-4.3,5.7-5.7,8.1"/>
		<path class="st1" d="M74,58.8c-3.4,1.4-7.7,3.5-12.1,6.9c-3,2.3-5.3,4.7-7.2,6.8"/>
		<path class="st1" d="M66.2,61.6c-3.1,0.6-7.1,1.7-11.4,3.8c-3.4,1.6-6.3,3.5-8.4,5.1"/>
		<path class="st1" d="M87,53.1c-3.1,1.6-7.3,4.4-11.3,8.9c-2.6,2.9-4.4,5.7-5.7,8.1"/>
		<path class="st1" d="M49.6,60.7c2.5,0.6,5.8,1.2,9.7,1.2c5.3-0.1,9.5-1.2,12.3-2.3"/>
		<path class="st1" d="M45.4,17.2c1,0.2,3.9,0.8,6.5,3.2c2.2,2.2,3,4.6,3.2,5.7"/>
		<path class="st1" d="M39.3,30.5c2.7-0.9,6-1.8,9.7-2.4c4.3-0.7,8.1-0.9,11.3-0.8"/>
		<path class="st1" d="M46.2,32.5c3.6-1.1,8.1-2.1,13.3-2.6c5.8-0.6,10.9-0.3,15,0.2"/>
		<path class="st1" d="M59.1,39.8c3.6-2.2,8.4-4.8,14.5-6.5c2.9-0.8,5.6-1.3,8.1-1.6"/>
		<path class="st1" d="M55.9,19.6c0.5,1.2,1.5,3.1,3.2,4.8c2.7,2.7,5.8,3.7,7.3,4"/>
		<path class="st1" d="M68.7,22.2c4.1,3.2,8.2,6.4,12.3,9.6"/>
		<path class="st1" d="M78.9,25.7c2.8,2.9,5.9,5.5,9.2,7.8"/>
		<path class="st1" d="M85.3,25.5c3.9,4.1,8.2,7.9,12.9,11.2"/>
		<path class="st1" d="M91.8,26.9c4.3,4.5,8.7,9,14,12.2"/>
		<path class="st1" d="M70.8,37.8c1.2-0.7,2.8-1.6,4.8-2.4c1.2-0.5,3.1-1.2,5.7-1.6c1.7-0.3,4.2-0.5,7.3,0"/>
		<path class="st1" d="M77.3,37.8c2.2-0.9,5.5-2.1,9.7-2.4c4.4-0.4,8.1,0.2,10.5,0.8"/>
		<path class="st1" d="M87.8,39.4c1.8,0,4-0.2,6.5-0.8c1.9-0.5,3.5-1,4.8-1.6"/>
		<path class="st1" d="M91.8,43.1c1.3-0.9,3.2-2.1,5.7-2.9c3.7-1.2,7-1,8.9-0.8"/>
		<path class="st1" d="M49.7,36.8c3.4-1.5,7.8-3.1,12.9-4.3c5.7-1.3,10.8-1.7,14.9-1.8"/>
		<path class="st1" d="M60.7,20.4c0.5,1.2,1.5,3.1,3.2,4.8c2.7,2.7,5.8,3.7,7.3,4"/>
		<path class="st1" d="M56,55.8c1.4,1.1,3.4,2.2,5.9,3c7.5,2.3,14.1-0.6,16.2-1.6"/>
		<path class="st1" d="M66.8,53.6c3.1,0.5,7.2,0.8,12.1,0.3c4.6-0.5,8.4-1.5,11.2-2.5"/>
		<path class="st1" d="M75.4,50.4c3.5,0.2,8.4,0.1,14-1.3c5.2-1.3,9.3-3.2,12.1-4.8"/>
		<path class="st1" d="M84.1,45.4c2.9,0.5,7.9,0.9,13.7-0.8c4.1-1.2,7.2-3,9.3-4.4"/>
		<path class="st1" d="M128.8,17.9c-3.5,2.8-7.6,5.7-12.3,8.5c-2.1,1.2-4.1,2.3-6.1,3.3"/>
		<path class="st1" d="M123.9,24.3c-2,2.4-5.9,6.3-11.9,8.6c-2.4,0.9-4.6,1.4-6.5,1.6"/>
	</g>
</g>
</svg>
