<?xml version="1.0" encoding="utf-8"?>
<!-- Generator: Adobe Illustrator 22.0.1, SVG Export Plug-In . SVG Version: 6.00 Build 0)  -->
<svg version="1.1" id="Слой_1" xmlns="http://www.w3.org/2000/svg" xmlns:xlink="http://www.w3.org/1999/xlink" x="0px" y="0px"
	 viewBox="0 0 168.1 168.1" style="enable-background:new 0 0 168.1 168.1;" xml:space="preserve">
<style type="text/css">
	.st0{fill-rule:evenodd;clip-rule:evenodd;fill:#E4E8D0;}
	.st1{fill:none;stroke:#96B11F;stroke-width:2.5;stroke-linecap:round;stroke-linejoin:round;stroke-miterlimit:10;}
	.st2{fill:#96B11F;stroke:#464731;stroke-width:2.5;stroke-miterlimit:10;}
	.st3{fill:#464731;stroke:#96B11F;stroke-width:2.5;stroke-linecap:round;stroke-linejoin:round;stroke-miterlimit:10;}
</style>
<path class="st0" d="M84,168.1c46.3,0,84-37.7,84-84c0-46.3-37.8-84-84-84S0,37.7,0,84C0,130.3,37.8,168.1,84,168.1z"/>
<g>
	<g>
		<path class="st1" d="M36.1,115.8c0.9-7.5,3.5-20.3,11.6-34c8.3-14.1,18.7-22.6,24.9-27"/>
		<path class="st1" d="M45.5,122.4c-1.4-5.9-3.8-20,2-35.9c3.6-9.9,9.1-16.8,13-20.9"/>
		<path class="st1" d="M50.3,112.2c-1.1-4.8-3.5-18.8,3.4-34.2c5.6-12.7,14.6-19.8,18.8-22.7"/>
		<path class="st1" d="M27.9,97.3c8.4-7.8,16.9-15.6,25.3-23.4"/>
		<path class="st1" d="M24,87.2c6.1-0.8,15.4-3.1,24.3-9.7c2.5-1.8,4.6-3.8,6.5-5.6"/>
		<path class="st1" d="M27.9,80.5c8.3-2.3,17.6-5.8,27.1-11.4c1.9-1.1,3.8-2.3,5.5-3.5"/>
		<path class="st1" d="M29.3,75.4c6.6-2.5,13.6-5.3,20.8-8.6c6.6-3,12.8-6,18.5-9.1"/>
		<path class="st1" d="M25.3,66.4c5.4,0.6,13.1,0.8,22-0.9c7.3-1.4,13.2-3.7,17.6-5.8"/>
		<path class="st1" d="M27,61.1c7.9,0.6,17.1,0.7,27.3-0.5c4.4-0.5,8.4-1.2,12.2-2"/>
		<path class="st1" d="M31.6,52.2c7.6,2,16.7,3.6,27,4.1c4.4,0.2,8.5,0.2,12.4,0.1"/>
		<path class="st1" d="M35,43.1c7.1,3.5,15.6,7,25.5,9.6c4.2,1.1,8.3,2,12.1,2.7"/>
		<path class="st1" d="M44.5,30.7c5.4,5.8,12.2,12,20.5,18c3.6,2.5,7.1,4.8,10.4,6.7"/>
		<path class="st1" d="M49.7,28.5c5.1,3.8,10.9,8.8,16.7,15.3c3.6,4.1,6.7,8.1,9.2,11.8"/>
	</g>
	<g>
		<path class="st2" d="M57.4,106.9c1.4,5.6,5.8,10.3,11.8,11.9c5.9,1.5,12-0.4,15.9-4.6c1.9-2,5.4-10,6.9-12.4
			c3.4-5.3,8.6-13.2,9.8-18C105,71.5,97.6,59,85.3,55.9C73,52.7,60.5,60.1,57.4,72.4c-1.2,4.8-0.4,14.4,0,20.7
			C57.5,95.9,56.7,104.4,57.4,106.9z"/>
		<g>
			<path class="st2" d="M64.7,70.9c-2.6-0.7-4.2-2-5.4-3.5c-0.8,1.6-1.5,3.3-2,5.1c-0.7,2.6-0.7,6.6-0.6,10.7
				c6.6,0,9.3-4.7,17.9-2.5c10.2,2.6,8.4,9.7,18.5,12.3c1.5,0.4,2.8,0.5,4,0.6c2.1-3.5,4-7.1,4.7-9.7c0.4-1.7,0.7-3.4,0.7-5.1
				c-1.7,0.7-3.6,1-6.2,0.3c-7.9-2-6.1-9.1-14-11.2C74.5,65.8,72.6,72.9,64.7,70.9z"/>
			<path class="st2" d="M79.1,103c-11.8-3-9.9-10.1-21.7-13.1c-0.1,0-0.2,0-0.3-0.1c0.1,1.2,0.2,2.3,0.2,3.3
				c0.2,2.8-0.6,11.3,0,13.8c0.4,1.5,0.9,2.9,1.7,4.1c4.4-1.1,7.4-3.8,14.3-2c5.6,1.4,7.5,4.2,9.8,6.8c0.7-0.5,1.3-1.1,1.9-1.7
				c1.7-1.8,4.8-8.7,6.5-11.7C88.2,103.5,84.9,104.4,79.1,103z"/>
		</g>
	</g>
	<ellipse transform="matrix(0.944 -0.3298 0.3298 0.944 -26.8914 40.9508)" class="st2" cx="107.2" cy="99.7" rx="13.3" ry="42"/>
	<g>
		<path class="st2" d="M116.4,107.7c-2.7,0.9,0.6,10.5-2,11.4c-2.7,0.9-6-8.6-8.7-7.7c-2.7,0.9,0.6,10.5-2,11.4c-0.1,0-0.1,0-0.2,0
			c0,0,0,0,0,0c0,0,0.1,0,0.1-0.1c2.7-0.9,6,8.6,8.7,7.7c2.7-0.9-0.6-10.5,2-11.4c2.7-0.9,6,8.6,8.7,7.7c2.6-0.9-0.3-9.6,1.7-11.2
			c0-0.1,0-0.1,0-0.2C122.1,115.3,119,106.8,116.4,107.7z"/>
		<path class="st2" d="M90.2,84.7c2.7-0.9,6,8.6,8.7,7.7c2.7-0.9-0.6-10.5,2-11.4c2.7-0.9,6,8.6,8.7,7.7c2.6-0.9-0.5-10,1.9-11.3
			c0,0,0,0,0-0.1c-2.6,0.2-5.8-8.6-8.4-7.7c-2.7,0.9,0.6,10.5-2,11.4c-2.7,0.9-6-8.6-8.7-7.7C89.6,74.2,93,83.8,90.2,84.7
			c0,0-0.2,0-0.3,0c0,0,0,0.1,0,0.1C90,84.8,90.1,84.8,90.2,84.7z"/>
		<path class="st2" d="M119.4,95c-0.2,0.6-0.5,1.1-0.9,1.3c-2.7,0.9-6-8.6-8.7-7.7c-2.7,0.9,0.6,10.5-2,11.4c-2.7,0.9-6-8.6-8.7-7.7
			c-2.7,0.9,0.6,10.5-2,11.4c-0.9,0.3-1.8-0.6-2.7-1.9c0.2,0.7,0.5,1.4,0.7,2.1c0.3,0.8,0.5,1.5,0.8,2.3c0.1-1.2,0.3-2.2,1.1-2.5
			c2.7-0.9,6,8.6,8.7,7.7c2.7-0.9-0.6-10.5,2-11.4c2.7-0.9,6,8.6,8.7,7.7c2.7-0.9-0.6-10.5,2-11.4c0.5-0.2,1.1,0,1.6,0.5
			c-0.2-0.5-0.3-0.9-0.5-1.4C119.5,95.3,119.4,95.2,119.4,95z"/>
	</g>
	<g>
		<path class="st1" d="M132.2,37.1c-7.8,1.1-16.5,2.6-25.8,5c-8.5,2.2-16.1,4.6-23,7.2"/>
		<path class="st1" d="M64.7,30.6c4.9,6.3,12.1,14.2,22.2,21.5c15.1,11,30,15.7,39.5,17.9"/>
		<path class="st1" d="M64.7,30.6c0.8,3.9,1.7,7.9,2.9,12.2c0.7,2.5,1.4,4.9,2.2,7.2"/>
		<path class="st1" d="M65.5,31.4c1.8,3.6,3.7,7.4,5.5,11.3c1.7,3.6,3.3,7.1,4.8,10.5"/>
		<path class="st1" d="M74.6,41.9c1.4,3.2,3.1,6.6,5.2,10.3c1.8,3.1,3.7,5.9,5.5,8.4"/>
		<path class="st1" d="M80.9,47.5c1.2,2.1,2.4,4.3,3.6,6.5c2.8,5,5.7,9.8,8.6,14.4"/>
		<path class="st1" d="M85.2,51c1.4,1.9,2.9,4,4.3,6.5c1.8,3.1,3.2,6,4.3,8.6"/>
		<path class="st1" d="M105.6,67.2c-2-0.9-4.7-2.3-7.4-4.5c-3.2-2.6-5.3-5.3-6.6-7.4"/>
		<path class="st1" d="M109.6,64.7c2.3,1.6,5.1,4,7.9,7.2c2.2,2.6,3.8,5.1,5,7.2"/>
		<path class="st1" d="M113.2,66.1c3,1.2,6.8,3.1,10.7,6.2c2.6,2.1,4.7,4.2,6.4,6"/>
		<path class="st1" d="M120.2,68.6c2.8,0.6,6.3,1.5,10.1,3.4c3.1,1.4,5.6,3.1,7.5,4.5"/>
		<path class="st1" d="M101.7,61.1c2.7,1.5,6.5,3.9,10,7.9c2.3,2.6,3.9,5.1,5,7.2"/>
		<path class="st1" d="M134.9,67.8c-2.2,0.6-5.1,1.1-8.6,1c-4.7-0.1-8.4-1.1-10.9-2"/>
		<path class="st1" d="M138.7,29.2c-0.9,0.1-3.5,0.7-5.7,2.9c-2,1.9-2.6,4.1-2.9,5"/>
		<path class="st1" d="M144,41c-2.4-0.8-5.3-1.6-8.6-2.2c-3.8-0.6-7.2-0.8-10-0.7"/>
		<path class="st1" d="M137.9,42.8c-3.2-0.9-7.2-1.8-11.8-2.3c-5.2-0.5-9.7-0.3-13.3,0.1"/>
		<path class="st1" d="M126.5,49.3c-3.2-2-7.5-4.2-12.9-5.7c-2.6-0.7-5-1.2-7.2-1.4"/>
		<path class="st1" d="M129.3,31.3c-0.5,1.1-1.3,2.7-2.9,4.3c-2.4,2.4-5.2,3.3-6.5,3.6"/>
		<path class="st1" d="M118,33.6c-3.6,2.8-7.3,5.7-10.9,8.5"/>
		<path class="st1" d="M108.9,36.7c-2.5,2.6-5.2,4.9-8.1,6.9"/>
		<path class="st1" d="M103.2,36.6c-3.5,3.7-7.3,7-11.4,9.9"/>
		<path class="st1" d="M97.4,37.8c-3.8,4-7.7,8-12.5,10.9"/>
		<path class="st1" d="M116.1,47.5c-1-0.6-2.5-1.4-4.3-2.2c-1.1-0.4-2.8-1.1-5-1.4c-1.5-0.2-3.7-0.4-6.5,0"/>
		<path class="st1" d="M110.3,47.5c-2-0.8-4.9-1.8-8.6-2.2c-3.9-0.3-7.2,0.2-9.3,0.7"/>
		<path class="st1" d="M101,48.9c-1.6,0-3.5-0.2-5.7-0.7c-1.7-0.4-3.1-0.9-4.3-1.4"/>
		<path class="st1" d="M97.4,52.2c-1.2-0.8-2.8-1.8-5.1-2.6c-3.3-1.1-6.2-0.9-7.9-0.7"/>
		<path class="st1" d="M134.8,46.6c-3.1-1.4-6.9-2.8-11.4-3.8c-5.1-1.2-9.6-1.5-13.2-1.6"/>
		<path class="st1" d="M125,32c-0.5,1.1-1.3,2.7-2.9,4.3c-2.4,2.4-5.2,3.3-6.5,3.6"/>
		<path class="st1" d="M129.2,63.5c-1.3,0.9-3,2-5.2,2.6c-6.7,2.1-12.6-0.5-14.4-1.4"/>
		<path class="st1" d="M119.6,61.5c-2.7,0.4-6.4,0.7-10.7,0.3c-4.1-0.4-7.4-1.3-9.9-2.2"/>
		<path class="st1" d="M112,58.7c-3.1,0.2-7.4,0.1-12.4-1.2c-4.6-1.1-8.2-2.9-10.8-4.3"/>
		<path class="st1" d="M104.2,54.3c-2.5,0.4-7,0.8-12.2-0.7c-3.7-1.1-6.4-2.7-8.3-3.9"/>
		<path class="st1" d="M64.6,29.8c3.1,2.5,6.7,5.1,10.9,7.5c1.9,1.1,3.7,2,5.4,2.9"/>
		<path class="st1" d="M68.9,35.5c1.8,2.1,5.2,5.6,10.6,7.6c2.1,0.8,4.1,1.2,5.7,1.4"/>
	</g>
</g>
</svg>
