<?xml version="1.0" encoding="utf-8"?>
<!-- Generator: Adobe Illustrator 22.0.1, SVG Export Plug-In . SVG Version: 6.00 Build 0)  -->
<svg version="1.1" id="Слой_1" xmlns="http://www.w3.org/2000/svg" xmlns:xlink="http://www.w3.org/1999/xlink" x="0px" y="0px"
	 viewBox="0 0 168.1 168.1" style="enable-background:new 0 0 168.1 168.1;" xml:space="preserve">
<style type="text/css">
	.st0{fill-rule:evenodd;clip-rule:evenodd;fill:#E4E8D0;}
	.st1{fill:none;stroke:#96B11F;stroke-width:2.5;stroke-linecap:round;stroke-linejoin:round;stroke-miterlimit:10;}
	.st2{fill:#96B11F;stroke:#464731;stroke-width:2.5;stroke-miterlimit:10;}
	.st3{fill:#464731;stroke:#96B11F;stroke-width:2.5;stroke-linecap:round;stroke-linejoin:round;stroke-miterlimit:10;}
</style>
<path class="st0" d="M84,168.1c46.3,0,84-37.7,84-84c0-46.3-37.8-84-84-84S0,37.7,0,84C0,130.3,37.8,168.1,84,168.1z"/>
<g>
	<path class="st1" d="M59.2,21.3c6.5,5.4,17.2,15.6,25.3,31.6c8.4,16.4,10.2,31.5,10.6,40"/>
	<path class="st1" d="M47.3,26.4c6.5,2.2,21.3,8.4,32.9,23.6c7.2,9.5,10.5,18.9,12.1,24.9"/>
	<path class="st1" d="M54,37.1c5.2,1.9,20,8,30.5,23.9c8.6,13,10,25.8,10.2,31.5"/>
	<path class="st1" d="M81.7,24.8c2.3,12.7,4.6,25.4,7,38.2"/>
	<path class="st1" d="M93.7,27.2c-2.9,6.3-6.4,16.5-5.5,29c0.2,3.5,0.8,6.7,1.5,9.5"/>
	<path class="st1" d="M97.7,34.9c-2.9,9.2-5.1,20.2-5.5,32.7c-0.1,2.5-0.1,5,0,7.3"/>
	<path class="st1" d="M101.7,39.3c-1.6,7.8-3.1,16.1-4.4,25c-1.1,8.1-2,15.8-2.6,23.1"/>
	<path class="st1" d="M112.6,41c-3.8,4.8-8.6,12-12.4,21.4c-3,7.7-4.5,14.8-5.1,20.2"/>
	<path class="st1" d="M116.7,45.7c-5.4,7.1-11,15.8-16,26.2c-2.1,4.4-4,8.7-5.5,12.8"/>
	<path class="st1" d="M122.4,55.5c-6.5,6.1-13.5,13.7-20.2,23.1c-2.9,4-5.4,8-7.6,11.7"/>
	<path class="st1" d="M129,64.3c-7.6,4.6-16.1,10.6-24.6,18.5c-3.6,3.3-6.9,6.7-9.8,9.9"/>
	<path class="st1" d="M47.4,124c2.1-2.3,5-5.1,8.8-7.7c2.3-1.6,4.6-2.8,6.6-3.7"/>
	<path class="st1" d="M50.4,128.4c2-3.1,5.4-7.5,11-11c2.1-1.3,4.1-2.2,5.9-2.9"/>
	<path class="st1" d="M55.1,135.4c2.4-4.1,5.5-8.8,9.5-13.6c2.2-2.6,4.5-4.9,6.6-7"/>
	<path class="st1" d="M61.4,136.5c3.1-4.5,6.3-9,9.5-13.6c2.4-3.5,4.9-6.9,7.3-10.3"/>
	<path class="st1" d="M69.9,142c2.3-5.9,4.7-11.8,7.1-17.8c1.8-4.5,3.7-9,5.5-13.5"/>
	<path class="st1" d="M88.3,144.3c-1.9-6.1-3.7-12.2-5.5-18.4c-1.4-4.7-2.7-9.4-4.1-14"/>
	<path class="st1" d="M80.6,146.8c0.5-6.4,1.5-13.5,3.1-21.3c1.6-7.5,3.5-14.3,5.5-20.2"/>
	<path class="st1" d="M91.2,142.1c-0.7-6.4-1-13.6-0.9-21.5c0.2-7.7,0.8-14.7,1.6-20.9"/>
	<path class="st1" d="M96.3,139.5c-1.2-6.3-2.2-13.5-2.7-21.3c-0.5-7.7-0.5-14.7-0.2-20.9"/>
	<path class="st1" d="M116,129.3c-4.2-3.8-9.2-9.1-14-16c-4.6-6.7-7.8-13-9.9-18.2"/>
	<path class="st1" d="M135.1,80.8c-8.7,1.7-18.8,4.3-29.5,8.7c-4.6,1.9-8.8,3.8-12.7,5.8"/>
	<path class="st1" d="M130,100.5c-6.2,0.5-13.5,0.7-21.7,0c-5.5-0.5-10.5-1.3-15-2.2"/>
	<path class="st1" d="M134,87c-6.7,2.5-14.9,5-24.6,6.6c-6.1,1-11.8,1.4-16.8,1.5"/>
	<path class="st1" d="M127.4,110.1c-7,0.5-16.3,0.3-26.7-2.6c-3.8-1.1-7.2-2.3-10.3-3.7"/>
	<g>
		<path class="st2" d="M57.9,50.6c-6.1-2.3-13.3-1.3-18.5,3.3c-5.2,4.5-7.3,11.3-6,17.7c0.6,3,5.8,11.4,7.1,14.4
			c2.8,6.6,6.7,16.4,10.3,20.6c9.3,10.8,25.7,12,36.4,2.6s12-25.7,2.6-36.4c-3.7-4.3-13-9.6-19.1-13.3C68,57.8,60.7,51.7,57.9,50.6z
			"/>
		<g>
			<path class="st2" d="M86.5,80.6c2.3-2,4.5-2.6,6.7-2.7c-0.9-1.8-2.1-3.5-3.4-5.1c-2-2.3-5.6-4.9-9.5-7.4
				c-4.3,6.2-1.7,11.6-9.2,18.1c-8.9,7.8-14.4,1.5-23.3,9.3c-1.3,1.1-2.3,2.2-3.1,3.3c1.9,4.2,4,8.2,6,10.6c1.3,1.5,2.8,2.8,4.3,3.9
				c0.5-2,1.4-4,3.7-6c6.9-6,12.3,0.2,19.3-5.8C85,92.8,79.6,86.6,86.5,80.6z"/>
			<path class="st2" d="M47.6,73.3c10.3-9,15.8-2.7,26.1-11.7c0.1-0.1,0.2-0.1,0.2-0.2c-1.1-0.7-2.2-1.3-3.2-1.9
				c-2.7-1.6-10.1-7.8-12.8-8.9c-1.6-0.6-3.2-1-4.9-1.1c-1.8,4.8-1.3,9.3-7.3,14.5c-4.9,4.2-8.7,4.3-12.7,4.7c0,0.9,0.2,1.9,0.4,2.8
				c0.6,2.7,5,10,6.7,13.5C41.3,81.4,42.6,77.6,47.6,73.3z"/>
		</g>
	</g>
	<path class="st3" d="M99.5,133c2.4-1.9,4.8-3.8,7.2-5.7c-3.8-8.1-7.5-16.1-11.3-24.2C95.8,108,98.6,128.3,99.5,133z"/>
</g>
</svg>
