<?xml version="1.0" encoding="utf-8"?>
<!-- Generator: Adobe Illustrator 22.0.1, SVG Export Plug-In . SVG Version: 6.00 Build 0)  -->
<svg version="1.1" id="Слой_1" xmlns="http://www.w3.org/2000/svg" xmlns:xlink="http://www.w3.org/1999/xlink" x="0px" y="0px"
	 viewBox="0 0 72.168396 71.6458969" style="enable-background:new 0 0 72.168396 71.6458969;" xml:space="preserve">
<style type="text/css">
	.st0{fill-rule:evenodd;clip-rule:evenodd;fill:#BCD031;}
	
		.st1{fill-rule:evenodd;clip-rule:evenodd;fill:#E4E8D0;stroke:#464731;stroke-width:0.75;stroke-linecap:round;stroke-linejoin:round;stroke-miterlimit:22.9256001;}
	
		.st2{fill-rule:evenodd;clip-rule:evenodd;fill:#FFFFFF;stroke:#464731;stroke-width:0.75;stroke-linecap:round;stroke-linejoin:round;stroke-miterlimit:22.9256001;}
	
		.st3{fill-rule:evenodd;clip-rule:evenodd;fill:none;stroke:#464731;stroke-width:0.75;stroke-linecap:round;stroke-linejoin:round;stroke-miterlimit:22.9256001;}
</style>
<ellipse transform="matrix(0.0819964 -0.9966326 0.9966326 0.0819964 -2.3370743 69.1088028)" class="st0" cx="36.3455238" cy="35.8230247" rx="35.8230247" ry="35.8228722"/>
<g>
	<g>
		<path class="st1" d="M3.6478999,38.3849983h0.0899l-0.0899,0.0032005V38.3849983L3.6478999,38.3849983z M3.9154999,38.3849983
			l31.1906967-0.0004997c2.0415001-0.0005989,3.5873032,1.5451012,3.5873032,3.4519997
			c0,1.9063034-1.5458031,3.4520035-3.5873032,3.4514999L3.9154999,45.2877007
			c1.8659999-0.0474014,3.3638999-1.5744019,3.3638999-3.4512024C7.2793999,39.9590988,5.7814999,38.4320984,3.9154999,38.3849983
			L3.9154999,38.3849983z M3.7377999,45.2877007h-0.0899v-0.0033989L3.7377999,45.2877007z"/>
		<circle class="st2" cx="3.8272998" cy="41.8362007" r="3.4523001"/>
	</g>
	<g>
		<path class="st1" d="M3.6478999,31.4804001h0.0899l-0.0899,0.0034008V31.4804001L3.6478999,31.4804001z M3.9154999,31.4804001
			l31.1906967-0.0006008c2.0415001-0.0004997,3.5873032,1.5452023,3.5873032,3.4521008
			c0,1.906601-1.5458031,3.4519997-3.5873032,3.4516983L3.9154999,38.3830986
			c1.8659999-0.0471001,3.3638999-1.5741005,3.3638999-3.4511986C7.2793999,33.0545006,5.7814999,31.5275002,3.9154999,31.4804001
			L3.9154999,31.4804001z M3.7377999,38.3830986h-0.0899v-0.0033989L3.7377999,38.3830986z"/>
		<circle class="st2" cx="3.8272998" cy="34.9315987" r="3.4523001"/>
	</g>
	<g>
		<path class="st1" d="M3.6478999,24.5757999h0.0899l-0.0899,0.0034008V24.5757999L3.6478999,24.5757999z M3.9154999,24.5757999
			l31.1906967-0.0006008c2.0415001-0.0002995,3.5873032,1.5452003,3.5873032,3.4520016
			c0,1.906599-1.5458031,3.4520988-3.5873032,3.4517994L3.9154999,31.4783993
			c1.8659999-0.046999,3.3638999-1.5740986,3.3638999-3.4511986C7.2793999,26.1499004,5.7814999,24.6228008,3.9154999,24.5757999
			L3.9154999,24.5757999z M3.7377999,31.4783993h-0.0899v-0.0033989L3.7377999,31.4783993z"/>
		<path class="st2" d="M3.8272998,31.4790001c1.9015,0,3.4522998-1.5506001,3.4522998-3.4519997
			c0-1.9015007-1.5507998-3.4524002-3.4522998-3.4524002C1.9259,24.5746002,0.375,26.1254997,0.375,28.0270004
			C0.375,29.9284,1.9259,31.4790001,3.8272998,31.4790001z"/>
	</g>
</g>
<path class="st1" d="M17.344099,45.5858994h0.0897999l-0.0897999,0.0033989V45.5858994L17.344099,45.5858994z M17.611599,45.5858994
	l31.1907997-0.0005989c2.0415001-0.0004997,3.5872002,1.5452003,3.5872002,3.4520988
	c0,1.9065018-1.5457001,3.4519997-3.5872002,3.4517021L17.611599,52.4884987
	c1.8658009-0.0469971,3.3639011-1.5739975,3.3639011-3.4510994C20.9755001,47.1599998,19.4773998,45.6329002,17.611599,45.5858994
	L17.611599,45.5858994z M17.4338989,52.4884987H17.344099v-0.0033989L17.4338989,52.4884987z"/>
<path class="st1" d="M17.344099,38.6813011h0.0897999L17.344099,38.6847V38.6813011L17.344099,38.6813011z M17.611599,38.6813011
	l31.1907997-0.0006027c2.0415001-0.0002975,3.5872002,1.5452003,3.5872002,3.4520035
	c0,1.9065971-1.5457001,3.4520988-3.5872002,3.4517975L17.611599,45.5839005
	c1.8658009-0.0470009,3.3639011-1.5741005,3.3639011-3.4511986C20.9755001,40.2552986,19.4773998,38.7282982,17.611599,38.6813011
	L17.611599,38.6813011z M17.4338989,45.5839005H17.344099v-0.0033989L17.4338989,45.5839005z"/>
<path class="st1" d="M17.3437996,31.7768993h0.0900993l-0.0900993,0.0028V31.7768993L17.3437996,31.7768993z M52.4883003,31.7837009
	v6.8890972c-11.6254997,0-23.2512016,0.0065002-34.8767014,0.0065002c1.8658009-0.0467987,3.3642006-1.5740967,3.3642006-3.4511986
	c0-1.8770981-1.4983997-3.4041004-3.3642006-3.4512005C29.2370987,31.7765999,40.8628006,31.7837009,52.4883003,31.7837009
	L52.4883003,31.7837009z M17.4338989,38.6792984h-0.0900993v-0.0033989L17.4338989,38.6792984z"/>
<rect x="14.7361994" y="45.6001015" class="st2" width="6.8892999" height="6.8892999"/>
<rect x="14.7361994" y="38.6878014" class="st2" width="6.8892999" height="6.8892999"/>
<rect x="14.7361994" y="31.7833996" class="st2" width="6.8892999" height="6.8891001"/>
<g>
	<path class="st1" d="M32.1694984,38.8368988h0.0902023l-0.0902023,0.0028V38.8368988L32.1694984,38.8368988z
		 M66.5134964,38.8437004v6.8893013c-11.9609985,0-22.1149979,0.0061989-34.0760956,0.0061989
		c1.8660965-0.0466995,3.3641968-1.5740013,3.3641968-3.4510994c0-1.8771019-1.4981003-3.4042015-3.3641968-3.4512024
		C44.3984985,38.8368988,54.5524979,38.8437004,66.5134964,38.8437004L66.5134964,38.8437004z M32.2597008,45.7392006h-0.0902023
		v-0.0033989L32.2597008,45.7392006z"/>
	<path class="st1" d="M32.1694984,38.8368988h0.0902023l-0.0902023,0.0014V38.8368988L32.1694984,38.8368988z
		 M66.5134964,38.8403015v3.4445992c-11.9609985,0-22.1149979,0.0032005-34.0760956,0.0032005
		c1.8660965-0.0236015,3.3641968-0.7868996,3.3641968-1.725502c0-0.9388008-1.4981003-1.702198-3.3641968-1.7257004
		C44.3984985,38.8368988,54.5524979,38.8403015,66.5134964,38.8403015L66.5134964,38.8403015z M32.2597008,42.2881012h-0.0902023
		v-0.0017014L32.2597008,42.2881012z"/>
	<rect x="27.1178989" y="38.8437004" class="st2" width="10.0267" height="6.8892999"/>
	<rect x="27.1178989" y="42.2877998" class="st2" width="10.0267" height="3.4449"/>
</g>
<g>
	<path class="st1" d="M32.1694984,45.6987h0.0902023l-0.0902023,0.0031013V45.6987L32.1694984,45.6987z M66.5134964,45.7055016
		v6.8892975c-11.9609985,0-22.1149979,0.0065994-34.0760956,0.0065994c1.8660965-0.0471001,3.3641968-1.5740967,3.3641968-3.4511986
		c0-1.8773994-1.4981003-3.4043999-3.3641968-3.4514999C44.3984985,45.6987,54.5524979,45.7055016,66.5134964,45.7055016
		L66.5134964,45.7055016z M32.2597008,52.6013985h-0.0902023v-0.0033989L32.2597008,52.6013985z"/>
	<path class="st1" d="M32.1694984,45.6987h0.0902023l-0.0902023,0.0017014V45.6987L32.1694984,45.6987z M66.5134964,45.7020988
		v3.4447021c-11.9609985,0-22.1149979,0.0033989-34.0760956,0.0033989c1.8660965-0.0236015,3.3641968-0.7872009,3.3641968-1.7257996
		c0-0.9384995-1.4981003-1.7022018-3.3641968-1.7257004C44.3984985,45.6987,54.5524979,45.7020988,66.5134964,45.7020988
		L66.5134964,45.7020988z M32.2597008,49.1501999h-0.0902023v-0.0017014L32.2597008,49.1501999z"/>
	<rect x="27.1178989" y="45.7055016" class="st2" width="10.0267" height="6.8892999"/>
	<rect x="27.1178989" y="49.1501999" class="st2" width="10.0267" height="3.4446001"/>
</g>
<g>
	<path class="st1" d="M32.1694984,52.8151016h0.0902023l-0.0902023,0.0030975V52.8151016L32.1694984,52.8151016z
		 M66.5134964,52.8218994v6.8893013c-11.9609985,0-22.1149979,0.0065002-34.0760956,0.0065002
		c1.8660965-0.0470009,3.3641968-1.5740013,3.3641968-3.4510994c0-1.8774033-1.4981003-3.4045029-3.3641968-3.4514999
		C44.3984985,52.8151016,54.5524979,52.8218994,66.5134964,52.8218994L66.5134964,52.8218994z M32.2597008,59.717701h-0.0902023
		v-0.0034027L32.2597008,59.717701z"/>
	<path class="st1" d="M32.1694984,52.8151016h0.0902023l-0.0902023,0.0016975V52.8151016L32.1694984,52.8151016z
		 M66.5134964,52.8185005v3.4445992c-11.9609985,0-22.1149979,0.0035019-34.0760956,0.0035019
		c1.8660965-0.0236015,3.3641968-0.7872009,3.3641968-1.7258034c0-0.9384995-1.4981003-1.702198-3.3641968-1.7256966
		C44.3984985,52.8151016,54.5524979,52.8185005,66.5134964,52.8185005L66.5134964,52.8185005z M32.2597008,56.2666016h-0.0902023
		v-0.0017014L32.2597008,56.2666016z"/>
	<rect x="27.1178989" y="52.8218994" class="st2" width="10.0267" height="6.8892999"/>
	<rect x="27.1178989" y="56.2666016" class="st2" width="10.0267" height="3.4446001"/>
</g>
<g>
	<path class="st2" d="M50.3596992,8.2167997l18.829998,19.0471001L55.4720001,40.8250999L36.6422997,21.7779999L32.7504005,13.1496
		c3.0086975-2.9743996,6.0172997-5.9491,9.0259972-8.9235001L50.3596992,8.2167997z"/>
	<path class="st1" d="M43.2977982,11.1217003c1.0014992,1.0134001,0.9920998,2.6469994-0.0209999,3.6487999
		c-1.013401,1.0016994-2.6469994,0.9920998-3.6487007-0.0209999c-1.0017967-1.0134001-0.9921989-2.6470003,0.0209007-3.6487999
		C40.6623993,10.0992002,42.2959976,10.1085997,43.2977982,11.1217003z"/>
	<path class="st3" d="M41.5848007,10.3690996c0.4237976,1.0891008,0.4095993,2.0415001-0.1216011,2.5665007
		c-1.013401,1.0017996-3.5475998,0.0816002-5.6599007-2.0551004C33.6908989,8.7437,32.7996979,6.1991,33.8130989,5.1973
		c0.9469986-0.9362998,3.2238007-0.1928,5.2420998,1.6536999"/>
</g>
<path class="st1" d="M42.5415001,23.7222996c3.3825989,3.3826008,6.6219978,6.7019005,10.0020981,10.0819988l0.0399017-0.0399971
	l0.0399971,0.0399971C58.7879982,27.6394997,64.8862,21.4615993,71.0832977,15.2643003l-4.8716965-4.8717003L52.5834999,24.0209999
	l-5.1704025-5.1704006L42.5415001,23.7222996z"/>
</svg>
