<?xml version="1.0" encoding="utf-8"?>
<!-- Generator: Adobe Illustrator 22.0.1, SVG Export Plug-In . SVG Version: 6.00 Build 0)  -->
<svg version="1.1" id="Слой_1" xmlns="http://www.w3.org/2000/svg" xmlns:xlink="http://www.w3.org/1999/xlink" x="0px" y="0px"
	 viewBox="0 0 71.6455994 71.6458969" style="enable-background:new 0 0 71.6455994 71.6458969;" xml:space="preserve">
<style type="text/css">
	.st0{fill-rule:evenodd;clip-rule:evenodd;fill:#BCD031;}
	
		.st1{fill-rule:evenodd;clip-rule:evenodd;fill:#E4E8D0;stroke:#464731;stroke-width:0.75;stroke-linecap:round;stroke-linejoin:round;stroke-miterlimit:22.9256001;}
	
		.st2{fill-rule:evenodd;clip-rule:evenodd;fill:#FFFFFF;stroke:#464731;stroke-width:0.75;stroke-linecap:round;stroke-linejoin:round;stroke-miterlimit:22.9256001;}
	
		.st3{fill-rule:evenodd;clip-rule:evenodd;fill:none;stroke:#464831;stroke-width:0.75;stroke-linecap:round;stroke-linejoin:round;stroke-miterlimit:22.9256001;}
	
		.st4{fill-rule:evenodd;clip-rule:evenodd;fill:#FFFFFF;stroke:#464831;stroke-width:0.75;stroke-linecap:round;stroke-linejoin:round;stroke-miterlimit:22.9256001;}
	.st5{fill-rule:evenodd;clip-rule:evenodd;fill:#464731;}
</style>
<circle class="st0" cx="35.8227997" cy="35.8230247" r="35.8229141"/>
<g>
	<path class="st1" d="M45.3051987,43.8655014v3.6399994c-12.6273994,0-23.3477993,0.0067978-35.9752998,0.0067978
		c1.9698-0.0495987,3.5515003-1.6616974,3.5515003-3.6433983C24.0121994,43.8684006,33.8777008,43.8655014,45.3051987,43.8655014
		L45.3051987,43.8655014z M9.1422997,47.5122986H9.0469999v-0.0037003L9.1422997,47.5122986z"/>
	<rect x="3.7135999" y="43.8686981" class="st2" width="10.5857" height="3.6368001"/>
</g>
<g>
	<path class="st1" d="M65.6548996,47.5117989v3.6399002c-12.6278,0-23.3480988,0.0070992-35.9756012,0.0070992
		c1.969799-0.0499001,3.5517979-1.6618996,3.5517979-3.6435966C44.361599,47.5145988,54.2272987,47.5117989,65.6548996,47.5117989
		L65.6548996,47.5117989z M29.4916,51.1587982h-0.0949001v-0.0039978L29.4916,51.1587982z"/>
	<rect x="24.0632992" y="47.5152016" class="st2" width="10.5857" height="3.6368001"/>
</g>
<g>
	<path class="st1" d="M45.3051987,51.4099998v3.6399002c-12.6273994,0-23.3477993,0.0068016-35.9752998,0.0068016
		c1.9698-0.0496025,3.5515003-1.661602,3.5515003-3.6433029C24.0121994,51.4127998,33.8777008,51.4099998,45.3051987,51.4099998
		L45.3051987,51.4099998z M9.1422997,55.0567017H9.0469999v-0.0037003L9.1422997,55.0567017z"/>
	<rect x="3.7135999" y="51.4131012" class="st2" width="10.5857" height="3.6368001"/>
</g>
<g>
	<path class="st1" d="M65.6548996,55.1659012v3.6399002c-12.6278,0-23.3480988,0.0067978-35.9756012,0.0067978
		c1.969799-0.0495987,3.5517979-1.6618996,3.5517979-3.6436005C44.361599,55.1683998,54.2272987,55.1659012,65.6548996,55.1659012
		L65.6548996,55.1659012z M29.4916,58.8125992h-0.0949001v-0.0038986L29.4916,58.8125992z"/>
	<rect x="24.0632992" y="55.1689987" class="st2" width="10.5857" height="3.6368001"/>
</g>
<g>
	<path class="st1" d="M45.3051987,59.1946983v3.6400032c-12.6273994,0-23.3477993,0.0070992-35.9752998,0.0070992
		c1.9698-0.0499001,3.5515003-1.6620026,3.5515003-3.6436996C24.0121994,59.1976013,33.8777008,59.1946983,45.3051987,59.1946983
		L45.3051987,59.1946983z M9.1422997,62.8418007H9.0469999v-0.0040016L9.1422997,62.8418007z"/>
	<rect x="3.7135999" y="59.198101" class="st2" width="10.5857" height="3.6368999"/>
</g>
<g>
	<path class="st1" d="M65.6548996,63.0960999v3.6399002c-12.6278,0-23.3480988,0.0067978-35.9756012,0.0067978
		c1.969799-0.0495987,3.5517979-1.6618958,3.5517979-3.6435966C44.361599,63.0985985,54.2272987,63.0960999,65.6548996,63.0960999
		L65.6548996,63.0960999z M29.4916,66.7427979h-0.0949001v-0.0038986L29.4916,66.7427979z"/>
	<rect x="24.0632992" y="63.0992012" class="st2" width="10.5857" height="3.6368001"/>
</g>
<g>
	<path class="st3" d="M36.2198982,27.7021008c-0.4469986,2.6855984-2.4980965,4.7268009-0.2833977,7.3715
		c1.4580994,1.7412987,2.6725006,3.8069,1.1133995,6.5410004"/>
	<polyline class="st3" points="33.6278992,28.6536999 36.2198982,27.7021008 37.9510002,29.9500008 	"/>
</g>
<g>
	<g>
		<path class="st3" d="M56.6450005,31.0881004c-0.4471016,2.6855011-2.4979019,4.726799-0.2835007,7.3714981
			c1.4580994,1.7413025,2.672802,3.8069,1.1133995,6.5409012"/>
		<polyline class="st3" points="54.0530014,32.0396996 56.6450005,31.0881004 58.3764,33.3359985 		"/>
	</g>
	<g>
		<path class="st3" d="M15.7943001,27.7021008c-0.4467001,2.6855984-2.4979,4.7268009-0.2834005,7.3715
			c1.4583998,1.7412987,2.6726999,3.8069,1.1134005,6.5410004"/>
		<polyline class="st3" points="13.2025995,28.6536999 15.7943001,27.7021008 17.5256996,29.9500008 		"/>
	</g>
</g>
<rect x="20.7187004" y="5.9411001" class="st4" width="30.2078991" height="18.5396996"/>
<g>
	<rect x="26.0333004" y="4.2014999" class="st1" width="2.2017" height="2.9066"/>
	<rect x="43.4103012" y="4.2014999" class="st1" width="2.2017" height="2.9066"/>
</g>
<rect x="34.7218018" y="4.2014999" class="st1" width="2.2017" height="2.9066"/>
<g>
	<rect x="22.8801003" y="9.9686003" class="st5" width="2.5353" height="2.7541001"/>
	<rect x="26.7465" y="9.9686003" class="st5" width="2.5353" height="2.7541001"/>
	<rect x="30.6805" y="9.9686003" class="st5" width="2.5353" height="2.7541001"/>
	<rect x="34.5469017" y="9.9686003" class="st5" width="2.5353" height="2.7541001"/>
	<rect x="38.3110008" y="9.9686003" class="st5" width="2.5353999" height="2.7541001"/>
	<rect x="42.1775017" y="9.9686003" class="st5" width="2.5353" height="2.7541001"/>
	<rect x="46.2302017" y="9.9686003" class="st5" width="2.5353" height="2.7541001"/>
</g>
<g>
	<rect x="22.8801003" y="14.3526001" class="st5" width="2.5353" height="2.7544999"/>
	<rect x="26.7465" y="14.3526001" class="st5" width="2.5353" height="2.7544999"/>
	<rect x="30.6805" y="14.3526001" class="st5" width="2.5353" height="2.7544999"/>
	<rect x="34.5469017" y="14.3526001" class="st5" width="2.5353" height="2.7544999"/>
	<rect x="38.3110008" y="14.3526001" class="st5" width="2.5353999" height="2.7544999"/>
	<rect x="42.1775017" y="14.3526001" class="st5" width="2.5353" height="2.7544999"/>
	<rect x="46.2302017" y="14.3526001" class="st5" width="2.5353" height="2.7544999"/>
</g>
<g>
	<rect x="22.8801003" y="18.4869995" class="st5" width="2.5353" height="2.7541001"/>
	<rect x="26.7465" y="18.4869995" class="st5" width="2.5353" height="2.7541001"/>
	<rect x="30.6805" y="18.4869995" class="st5" width="2.5353" height="2.7541001"/>
	<rect x="34.5469017" y="18.4869995" class="st5" width="2.5353" height="2.7541001"/>
	<rect x="38.3110008" y="18.4869995" class="st5" width="2.5353999" height="2.7541001"/>
	<rect x="42.1775017" y="18.4869995" class="st5" width="2.5353" height="2.7541001"/>
	<rect x="46.2302017" y="18.4869995" class="st5" width="2.5353" height="2.7541001"/>
</g>
</svg>
