<?xml version="1.0" encoding="utf-8"?>
<!-- Generator: Adobe Illustrator 22.0.1, SVG Export Plug-In . SVG Version: 6.00 Build 0)  -->
<svg version="1.1" id="Слой_1" xmlns="http://www.w3.org/2000/svg" xmlns:xlink="http://www.w3.org/1999/xlink" x="0px" y="0px"
	 viewBox="0 0 71.6456985 71.6458969" style="enable-background:new 0 0 71.6456985 71.6458969;" xml:space="preserve">
<style type="text/css">
	.st0{fill-rule:evenodd;clip-rule:evenodd;fill:#464731;}
	
		.st1{fill-rule:evenodd;clip-rule:evenodd;fill:#E4E8D0;stroke:#464731;stroke-width:0.75;stroke-linecap:round;stroke-linejoin:round;stroke-miterlimit:22.9256001;}
	
		.st2{fill-rule:evenodd;clip-rule:evenodd;fill:#BCD031;stroke:#464731;stroke-width:0.75;stroke-linecap:round;stroke-linejoin:round;stroke-miterlimit:22.9256001;}
	
		.st3{fill-rule:evenodd;clip-rule:evenodd;fill:#FFFFFF;stroke:#464731;stroke-width:0.75;stroke-linecap:round;stroke-linejoin:round;stroke-miterlimit:22.9256001;}
	
		.st4{fill-rule:evenodd;clip-rule:evenodd;fill:none;stroke:#464731;stroke-width:0.75;stroke-linecap:round;stroke-linejoin:round;stroke-miterlimit:22.9256001;}
</style>
<ellipse transform="matrix(0.0819964 -0.9966326 0.9966326 0.0819964 -2.8169148 68.5878601)" class="st0" cx="35.8228226" cy="35.8230247" rx="35.8230247" ry="35.8228722"/>
<rect x="0.3767" y="12.0430002" class="st1" width="69.5998993" height="43.7436981"/>
<rect x="4.1573" y="15.4763002" class="st2" width="62.0387993" height="40.3101006"/>
<g>
	<g>
		<path class="st1" d="M44.1963997,36.3596992v3.0912018c-10.7232018,0-19.8269005,0.0056-30.5501003,0.0056
			c1.6726999-0.042202,3.0160007-1.4109993,3.0160007-3.0940018C26.1145,36.3619995,34.4922981,36.3596992,44.1963997,36.3596992
			L44.1963997,36.3596992z M13.4869995,39.456501h-0.0808001v-0.0031013L13.4869995,39.456501z"/>
		<rect x="8.8772993" y="36.3622017" class="st3" width="8.9891996" height="3.0883999"/>
	</g>
	<g>
		<path class="st1" d="M61.4768982,39.4560013v3.091198c-10.7230988,0-19.8265991,0.0059013-30.549799,0.0059013
			c1.6727009-0.042202,3.0160999-1.4113998,3.0160999-3.0942993C43.3950005,39.4581985,51.7728004,39.4560013,61.4768982,39.4560013
			L61.4768982,39.4560013z M30.7674999,42.5531006h-0.080801v-0.0033989L30.7674999,42.5531006z"/>
		<rect x="26.1577988" y="39.4584999" class="st3" width="8.9892998" height="3.0883999"/>
	</g>
	<g>
		<path class="st1" d="M44.1963997,42.7663002v3.091198c-10.7232018,0-19.8269005,0.0056-30.5501003,0.0056
			c1.6726999-0.0418968,3.0160007-1.4110985,3.0160007-3.093998C26.1145,42.7685013,34.4922981,42.7663002,44.1963997,42.7663002
			L44.1963997,42.7663002z M13.4869995,45.8630981h-0.0808001v-0.0030975L13.4869995,45.8630981z"/>
		<rect x="8.8772993" y="42.7687988" class="st3" width="8.9891996" height="3.0883999"/>
	</g>
	<g>
		<path class="st1" d="M61.4768982,45.9557991v3.0909004c-10.7230988,0-19.8265991,0.0060005-30.549799,0.0060005
			c1.6727009-0.0423012,3.0160999-1.4113998,3.0160999-3.0940018
			C43.3950005,45.9580994,51.7728004,45.9557991,61.4768982,45.9557991L61.4768982,45.9557991z M30.7674999,49.0527h-0.080801
			v-0.0033989L30.7674999,49.0527z"/>
		<rect x="26.1577988" y="45.9580994" class="st3" width="8.9892998" height="3.0883"/>
	</g>
	<g>
		<path class="st1" d="M44.1963997,49.3772011v3.0909004c-10.7232018,0-19.8269005,0.0059967-30.5501003,0.0059967
			c1.6726999-0.0421982,3.0160007-1.4110985,3.0160007-3.093998C26.1145,49.3795013,34.4922981,49.3772011,44.1963997,49.3772011
			L44.1963997,49.3772011z M13.4869995,52.4740982h-0.0808001v-0.0033989L13.4869995,52.4740982z"/>
		<rect x="8.8772993" y="49.3797989" class="st3" width="8.9891996" height="3.0885999"/>
	</g>
	<g>
		<path class="st1" d="M61.4768982,52.6901016v3.0908966c-10.7230988,0-19.8265991,0.0059013-30.549799,0.0059013
			c1.6727009-0.0421982,3.0160999-1.4113007,3.0160999-3.0942993
			C43.3950005,52.6924019,51.7728004,52.6901016,61.4768982,52.6901016L61.4768982,52.6901016z M30.7674999,55.7868996h-0.080801
			v-0.0033989L30.7674999,55.7868996z"/>
		<rect x="26.1577988" y="52.6924019" class="st3" width="8.9892998" height="3.0883"/>
	</g>
	<g>
		<path class="st4" d="M36.480999,22.6338005c-0.3795013,2.2806988-2.1211014,4.0140991-0.2406006,6.2596989
			c1.2382011,1.4789009,2.2696991,3.2329006,0.9456024,5.5548"/>
		<polyline class="st4" points="34.2798996,23.4419003 36.480999,22.6338005 37.9514008,24.5426006 		"/>
	</g>
	<g>
		<g>
			<path class="st4" d="M53.8260002,25.5091991c-0.3796005,2.2805004-2.1212006,4.0139008-0.2406998,6.2598
				c1.2381973,1.4787998,2.2696991,3.2329006,0.9452972,5.5545025"/>
			<polyline class="st4" points="51.624897,26.3171005 53.8260002,25.5091991 55.296299,27.4181004 			"/>
		</g>
		<g>
			<path class="st4" d="M19.1360989,22.6338005c-0.3794994,2.2806988-2.1210995,4.0140991-0.2409,6.2596989
				c1.2384014,1.4789009,2.269701,3.2329006,0.9456005,5.5548"/>
			<polyline class="st4" points="16.9349995,23.4419003 19.1360989,22.6338005 20.6061993,24.5426006 			"/>
		</g>
	</g>
</g>
</svg>
