<?xml version="1.0" encoding="utf-8"?>
<!-- Generator: Adobe Illustrator 22.0.1, SVG Export Plug-In . SVG Version: 6.00 Build 0)  -->
<svg version="1.1" id="Слой_1" xmlns="http://www.w3.org/2000/svg" xmlns:xlink="http://www.w3.org/1999/xlink" x="0px" y="0px"
	 viewBox="0 0 75.4494019 71.6460037" style="enable-background:new 0 0 75.4494019 71.6460037;" xml:space="preserve">
<style type="text/css">
	.st0{fill-rule:evenodd;clip-rule:evenodd;fill:#464731;}
	
		.st1{fill-rule:evenodd;clip-rule:evenodd;fill:#E4E8D0;stroke:#464731;stroke-width:0.75;stroke-linecap:round;stroke-linejoin:round;stroke-miterlimit:22.9256001;}
	
		.st2{fill-rule:evenodd;clip-rule:evenodd;fill:#FFFFFF;stroke:#464731;stroke-width:0.75;stroke-linecap:round;stroke-linejoin:round;stroke-miterlimit:22.9256001;}
	
		.st3{fill-rule:evenodd;clip-rule:evenodd;fill:#464731;stroke:#464731;stroke-width:0.75;stroke-linecap:round;stroke-linejoin:round;stroke-miterlimit:22.9256001;}
</style>
<circle class="st0" cx="35.9063988" cy="35.8229485" r="35.822876"/>
<g>
	<path class="st1" d="M75.0744019,47.2275009v6.5374985c-22.6794014,0-41.9335022,0.0125008-64.6128998,0.0125008
		c3.5379-0.0892982,6.3790989-2.9849014,6.3790989-6.5441017C36.8312988,47.2322998,54.5500984,47.2275009,75.0744019,47.2275009
		L75.0744019,47.2275009z M10.1244001,53.7775002H9.9534998V53.770401L10.1244001,53.7775002z"/>
	<rect x="0.375" y="47.2332001" class="st2" width="19.0118999" height="6.5317998"/>
</g>
<g>
	<g>
		<polygon class="st1" points="25.9995995,25.3964996 33.1094017,32.7929001 21.4349995,44.0149994 20.4186993,37.8763008 
			14.3254004,36.6183014 		"/>
		<polygon class="st1" points="45.8125992,25.3964996 38.7028008,32.7929001 50.3773003,44.0149994 51.3935013,37.8763008 
			57.4868011,36.6183014 		"/>
	</g>
	<polygon class="st1" points="35.9061012,4.8253999 39.1291008,7.0103998 42.8507004,6.2275 44.8419991,9.4146996 
		48.5228004,10.0514002 49.1591988,13.7321997 52.3465004,15.7235003 51.5635986,19.4447994 53.7485008,22.6678009 
		51.5635986,25.8908005 52.3465004,29.6124001 49.1591988,31.6037998 48.5224991,35.2845993 44.8418007,35.9208984 
		42.850399,39.1082001 39.1291008,38.3252983 35.9061012,40.5102005 32.6831017,38.3252983 28.9615002,39.1082001 
		26.9701996,35.9208984 23.2894001,35.2843018 22.6529999,31.6035004 19.4657001,29.6121006 20.2486992,25.8908005 
		18.0636997,22.6678009 20.2486992,19.4447994 19.4657001,15.7231998 22.6529999,13.7319002 23.2896996,10.0510998 
		26.9705009,9.4146996 28.9617996,6.2275 32.6831017,7.0103998 	"/>
	<path class="st3" d="M35.9061012,36.2803993c7.4976006,0,13.6128006-6.1148987,13.6128006-13.6125984
		c0-7.4976006-6.1152-13.6128006-13.6128006-13.6128006s-13.6125011,6.1152-13.6125011,13.6128006
		C22.2936001,30.1655006,28.4085007,36.2803993,35.9061012,36.2803993z"/>
	<path class="st2" d="M23.3803997,25.2278004c2.8579006,2.8578987,5.5946999,5.662199,8.4500999,8.5178013L31.8645,33.7118988
		l0.0333996,0.0337029c5.2084007-5.2083015,10.3604012-10.4278011,15.5960007-15.6634026L43.3779984,13.9663L31.8645,25.4804001
		l-4.3682003-4.3682003L23.3803997,25.2278004z"/>
</g>
</svg>
