<?xml version="1.0" encoding="utf-8"?>
<!-- Generator: Adobe Illustrator 22.0.1, SVG Export Plug-In . SVG Version: 6.00 Build 0)  -->
<svg version="1.1" id="Слой_1" xmlns="http://www.w3.org/2000/svg" xmlns:xlink="http://www.w3.org/1999/xlink" x="0px" y="0px"
	 viewBox="0 0 75.9592972 71.7134018" style="enable-background:new 0 0 75.9592972 71.7134018;" xml:space="preserve">
<style type="text/css">
	.st0{fill-rule:evenodd;clip-rule:evenodd;fill:#BCD031;}
	
		.st1{fill-rule:evenodd;clip-rule:evenodd;fill:#E4E8D0;stroke:#464731;stroke-width:0.75;stroke-linecap:round;stroke-linejoin:round;stroke-miterlimit:22.9256001;}
	
		.st2{fill-rule:evenodd;clip-rule:evenodd;fill:#BCD031;stroke:#464731;stroke-width:0.75;stroke-linecap:round;stroke-linejoin:round;stroke-miterlimit:22.9256001;}
	
		.st3{fill-rule:evenodd;clip-rule:evenodd;fill:#FFFFFF;stroke:#464731;stroke-width:0.75;stroke-linecap:round;stroke-linejoin:round;stroke-miterlimit:22.9256001;}
</style>
<ellipse transform="matrix(0.7071068 -0.7071068 0.7071068 0.7071068 -14.2065353 37.3481407)" class="st0" cx="37.9799232" cy="35.822876" rx="35.8228874" ry="35.8228607"/>
<g>
	<g>
		<polygon class="st1" points="20.7171993,38.8955994 33.1063004,51.7837982 12.7637997,71.3384018 10.993,60.6417999 
			0.375,58.4497986 		"/>
		<polygon class="st1" points="55.2420998,38.8955994 42.8530006,51.7837982 63.1954994,71.3384018 64.966301,60.6417999 
			75.5842972,58.4497986 		"/>
	</g>
	<polygon class="st1" points="37.9796982,3.0506001 43.5956993,6.8578 50.0807991,5.4935002 53.5505981,11.0474005 
		59.9642982,12.1566 61.0732002,18.5706005 66.6271973,22.0405006 65.2628021,28.5249996 69.0699997,34.1409988 65.2628021,39.757 
		66.6271973,46.2417984 61.0732002,49.7120018 59.9636993,56.1257019 53.5500984,57.2346001 50.0802002,62.7885017 
		43.5956993,61.4241982 37.9796982,65.2313995 32.3637009,61.4241982 25.8785992,62.7885017 22.408699,57.2346001 
		15.9949999,56.1250992 14.8860998,49.7113991 9.3322001,46.2415009 10.6964998,39.757 6.8892999,34.1409988 10.6964998,28.5249996 
		9.3322001,22.0398998 14.8860998,18.5699997 15.9955997,12.1562996 22.4091988,11.0474005 25.8790989,5.4935002 32.3637009,6.8578 
			"/>
	
		<ellipse transform="matrix(0.291556 -0.9565538 0.9565538 0.291556 -5.7508903 60.5165939)" class="st2" cx="37.9798508" cy="34.1407738" rx="23.720068" ry="23.7201576"/>
</g>
<path class="st3" d="M25.1831989,25.8015003l7.3995991,4.3375988c1.5051994-2.5942993,3.0107002-5.1882992,4.5161018-7.782299
	c-0.9626007-2.0930996-1.7189026-3.7740002-3.0517006-4.3682003c-1.7308998-0.7709999-3.7026997-0.2262001-4.7814999,1.1021004
	L25.1831989,25.8015003L25.1831989,25.8015003z M37.1867981,50.2491989l-0.0811005-8.5767975
	c-2.9989967,0.0413971-5.9977989,0.0830002-8.9967976,0.1246986c-1.3009014,1.9011993-2.3542004,3.4137993-2.1790009,4.8625984
	c0.2276001,1.8810005,1.7084007,3.2927017,3.402401,3.5353012L37.1867981,50.2491989L37.1867981,50.2491989z M29.7041988,36.1161995
	c-1.5970001,2.3867989-3.233799,4.7749023-4.3349991,7.4380989c-0.3917999,0.9473-0.6856995,1.9840012-0.3484001,2.6206017
	c0.6247005,1.1797981-3.2287006-5.2242012-4.842701-7.8362999c0,0-0.7809982-1.4653015,0.0915012-2.6649017
	c0.1164989-0.1357994,1.347599-2.4057999,1.9820004-3.5806999l-2.5272999-1.3642979l8.1084995-0.2172012l4.3748989,6.9564991
	L29.7041988,36.1161995L29.7041988,36.1161995z M51.5425987,27.1970005l-7.0877991,4.8299007
	c1.6996994,2.4709969,3.399601,4.9418983,5.0993004,7.4132004c2.3036995,0.0261002,4.1464996,0.0620995,5.2539978-0.8881035
	c1.4379997-1.2338982,1.7898026-3.2493973,1.0511017-4.7927971L51.5425987,27.1970005L51.5425987,27.1970005z
	 M43.9440002,41.2678986c2.8717995,0.0025024,5.7667999,0.0377007,8.5932999-0.5252991
	c1.0051003-0.2000999,2.0303993-0.5312004,2.3727989-1.1652985c0.634201-1.1747017-2.552002,5.5858994-3.8281021,8.3788986
	c0,0-0.7849998,1.4632988-2.2671967,1.4034996c-0.1774025-0.0215988-2.7493019,0.2150993-4.0782013,0.3400993l0.2686996,2.8596001
	l-4.6833992-6.6231003l3.355999-7.5014L43.9440002,41.2678986L43.9440002,41.2678986z M41.1525002,26.6445007
	c-1.226902-2.5965004-2.4347-5.2279015-4.1533012-7.5410004c-0.6114998-0.8229008-1.3495979-1.6077995-2.0690994-1.6457996
	c-1.3330994-0.0700016,6.1407013-0.085001,9.2108994-0.1276016c0,0,1.6585999,0.0831013,2.2391014,1.4483013
	c0.0564003,0.1695004,1.3713989,2.3923988,2.0533981,3.5401993l2.4692993-1.4673004l-3.9804001,7.0679016l-8.2159004,0.1785984
	L41.1525002,26.6445007z"/>
</svg>
