<?xml version="1.0" encoding="utf-8"?>
<!-- Generator: Adobe Illustrator 22.0.1, SVG Export Plug-In . SVG Version: 6.00 Build 0)  -->
<svg version="1.1" id="Слой_1" xmlns="http://www.w3.org/2000/svg" xmlns:xlink="http://www.w3.org/1999/xlink" x="0px" y="0px"
	 viewBox="0 0 71.6455994 71.6460037" style="enable-background:new 0 0 71.6455994 71.6460037;" xml:space="preserve">
<style type="text/css">
	.st0{fill-rule:evenodd;clip-rule:evenodd;fill:#BCD031;}
	
		.st1{fill-rule:evenodd;clip-rule:evenodd;fill:#E4E8D0;stroke:#464731;stroke-width:0.75;stroke-linecap:round;stroke-linejoin:round;stroke-miterlimit:22.9256001;}
	
		.st2{fill-rule:evenodd;clip-rule:evenodd;fill:none;stroke:#464731;stroke-width:0.75;stroke-linecap:round;stroke-linejoin:round;stroke-miterlimit:22.9256001;}
</style>
<circle class="st0" cx="35.8227997" cy="35.8229485" r="35.822876"/>
<polygon class="st1" points="7.6718998,12.6240997 7.7189999,12.6240997 9.5745001,6.3318 10.5346003,6.3318 12.9120998,6.3318 
	13.8720999,6.3318 15.7277002,12.6240997 19.8869991,12.6240997 21.7425003,6.3318 22.7026005,6.3318 25.0800991,6.3318 
	26.0401001,6.3318 27.8957005,12.6240997 32.1593018,12.6240997 34.0149002,6.3318 34.9748993,6.3318 37.3524017,6.3318 
	38.3125,6.3318 40.1679993,12.6240997 44.2924004,12.6240997 46.1479988,6.3318 47.1081009,6.3318 49.4855003,6.3318 
	50.4455986,6.3318 52.3012009,12.6240997 55.4869995,12.6240997 57.3426018,6.3318 58.3027,6.3318 60.6800995,6.3318 
	61.6402016,6.3318 63.4957008,12.6240997 63.5192986,12.6240997 66.5903015,15.7861996 66.5903015,52.2919006 
	66.5903015,58.6884995 66.5903015,62.0821991 63.3619003,65.2133026 61.4378014,58.6884995 58.2751999,58.6884995 
	56.3209991,65.3151016 55.3609009,65.3151016 52.9836998,65.3151016 52.0233994,65.3151016 50.0694008,58.6884995 
	46.7678986,58.6884995 44.8137016,65.3151016 43.8535995,65.3151016 41.4762001,65.3151016 40.5161018,65.3151016 
	38.5619011,58.6884995 34.7388,58.6884995 32.7849007,65.3151016 31.8248005,65.3151016 29.4473991,65.3151016 
	28.4873009,65.3151016 26.5331001,58.6884995 22.2233009,58.6884995 20.2691002,65.3151016 19.309,65.3151016 
	16.9316006,65.3151016 15.9715004,65.3151016 14.0176001,58.6884995 10.2075005,58.6884995 8.2833996,65.2133026 
	5.0549998,62.0821991 5.0549998,58.6884995 5.0549998,52.2919006 5.0549998,15.3184004 "/>
<path class="st2" d="M52.1226006,14.3731003c6.4654999,4.9207001,10.6391983,12.6980991,10.6391983,21.4502983
	c0,8.2885017-3.7434006,15.7028008-9.6311989,20.6445007 M19.6264992,57.3526001
	C13.1016998,52.4364014,8.8831997,44.6223984,8.8831997,35.8233986c0-6.468399,2.2799006-12.404398,6.0794001-17.0480995"/>
<path class="st2" d="M17.9545994,35.8233986c0-9.8681984,7.9997005-17.8678989,17.8678989-17.8678989 M50.1082993,25.0891991
	c2.2490005,2.9883003,3.5820999,6.7056007,3.5820999,10.7341995c0,9.8683014-7.9995995,17.8679008-17.8679008,17.8679008
	c-6.3118992,0-11.8595982-3.273098-15.0380974-8.2141991"/>
<path class="st2" d="M35.8224983,45.4743004c-5.329998,0-9.6507988-4.3209-9.6507988-9.6509018
	s4.3208008-9.6507988,9.6507988-9.6507988s9.6508026,4.3208008,9.6508026,9.6507988"/>
<line class="st2" x1="7.0404" y1="53.5093002" x2="31.7901993" y2="38.3592987"/>
<line class="st2" x1="39.6901016" y1="32.6282005" x2="49.9435997" y2="19.5081005"/>
<line class="st2" x1="38.7957993" y1="38.0429993" x2="57.4315987" y2="55.6843987"/>
<line class="st2" x1="34.0876999" y1="21.4920006" x2="35.661499" y2="30.4169006"/>
</svg>
