<?xml version="1.0" encoding="utf-8"?>
<!-- Generator: Adobe Illustrator 22.0.1, SVG Export Plug-In . SVG Version: 6.00 Build 0)  -->
<svg version="1.1" id="Слой_1" xmlns="http://www.w3.org/2000/svg" xmlns:xlink="http://www.w3.org/1999/xlink" x="0px" y="0px"
	 viewBox="0 0 71.6456985 73.1822968" style="enable-background:new 0 0 71.6456985 73.1822968;" xml:space="preserve">
<style type="text/css">
	.st0{fill-rule:evenodd;clip-rule:evenodd;fill:#464731;}
	
		.st1{fill-rule:evenodd;clip-rule:evenodd;fill:#E4E8D0;stroke:#464731;stroke-width:0.75;stroke-linecap:round;stroke-linejoin:round;stroke-miterlimit:22.9256001;}
	
		.st2{fill-rule:evenodd;clip-rule:evenodd;fill:#FFFFFF;stroke:#464731;stroke-width:0.75;stroke-linecap:round;stroke-linejoin:round;stroke-miterlimit:22.9256001;}
	
		.st3{fill-rule:evenodd;clip-rule:evenodd;fill:none;stroke:#E4E8D0;stroke-width:0.75;stroke-linecap:round;stroke-linejoin:round;stroke-miterlimit:22.9256001;}
</style>
<ellipse transform="matrix(0.7071068 -0.7071068 0.7071068 0.7071068 -15.9247341 36.2728386)" class="st0" cx="35.8228226" cy="37.3592758" rx="35.8228874" ry="35.8228607"/>
<g>
	<g>
		<path class="st1" d="M44.8418007,47.0471992v3.0912018c-10.7232018,0-19.8269005,0.0056-30.5501022,0.0056
			c1.6726999-0.042202,3.0161009-1.4111023,3.0161009-3.0940018C26.7598991,47.0494003,35.1376991,47.0471992,44.8418007,47.0471992
			L44.8418007,47.0471992z M14.1323996,50.144001h-0.0808001v-0.0031013L14.1323996,50.144001z"/>
		<rect x="9.5226994" y="47.0499992" class="st2" width="8.9891996" height="3.0883999"/>
	</g>
	<g>
		<path class="st1" d="M62.1223984,50.1435013v3.0910988c-10.7231979,0-19.8265991,0.0060005-30.549799,0.0060005
			c1.6727009-0.042202,3.0160007-1.4113998,3.0160007-3.0942993C44.0405006,50.1456985,52.4182968,50.1435013,62.1223984,50.1435013
			L62.1223984,50.1435013z M31.4130001,53.2406006h-0.080801v-0.0033989L31.4130001,53.2406006z"/>
		<rect x="26.803299" y="50.1463013" class="st2" width="8.9891996" height="3.0883"/>
	</g>
	<g>
		<path class="st1" d="M44.8418007,53.4538002v3.0910988c-10.7232018,0-19.8269005,0.0056992-30.5501022,0.0056992
			c1.6726999-0.0418968,3.0161009-1.4110985,3.0161009-3.093998C26.7598991,53.4560013,35.1376991,53.4538002,44.8418007,53.4538002
			L44.8418007,53.4538002z M14.1323996,56.5505981h-0.0808001v-0.0030975L14.1323996,56.5505981z"/>
		<rect x="9.5226994" y="53.4566002" class="st2" width="8.9891996" height="3.0883"/>
	</g>
	<g>
		<path class="st1" d="M62.1223984,56.6432991v3.0909004c-10.7231979,0-19.8265991,0.0060005-30.549799,0.0060005
			c1.6727009-0.0423012,3.0160007-1.4113998,3.0160007-3.094101C44.0405006,56.6455994,52.4182968,56.6432991,62.1223984,56.6432991
			L62.1223984,56.6432991z M31.4130001,59.7402h-0.080801v-0.0033989L31.4130001,59.7402z"/>
		<rect x="26.803299" y="56.6459007" class="st2" width="8.9891996" height="3.0883"/>
	</g>
	<g>
		<path class="st1" d="M44.8418007,60.0647011v3.0909004c-10.7232018,0-19.8269005,0.0059967-30.5501022,0.0059967
			c1.6726999-0.0422974,3.0161009-1.4110985,3.0161009-3.093998C26.7598991,60.0670013,35.1376991,60.0647011,44.8418007,60.0647011
			L44.8418007,60.0647011z M14.1323996,63.1615982h-0.0808001v-0.0033989L14.1323996,63.1615982z"/>
		<rect x="9.5226994" y="60.0672989" class="st2" width="8.9891996" height="3.0885999"/>
	</g>
	<g>
		<path class="st1" d="M62.1223984,63.3776016v3.0908966c-10.7231979,0-19.8265991,0.0059052-30.549799,0.0059052
			c1.6727009-0.0422058,3.0160007-1.4113007,3.0160007-3.0943031
			C44.0405006,63.3797989,52.4182968,63.3776016,62.1223984,63.3776016L62.1223984,63.3776016z M31.4130001,66.4744034h-0.080801
			v-0.0034027L31.4130001,66.4744034z"/>
		<rect x="26.803299" y="63.3801003" class="st2" width="8.9891996" height="3.0883999"/>
	</g>
</g>
<g>
	<line class="st3" x1="23.8220997" y1="35.532299" x2="23.8220997" y2="39.2444992"/>
	<line class="st3" x1="28.6222992" y1="35.532299" x2="28.6222992" y2="39.2444992"/>
	<line class="st3" x1="33.4225006" y1="35.532299" x2="33.4225006" y2="39.2444992"/>
	<line class="st3" x1="38.222599" y1="35.532299" x2="38.222599" y2="39.2444992"/>
	<line class="st3" x1="43.0228004" y1="35.532299" x2="43.0228004" y2="39.2444992"/>
	<line class="st3" x1="47.822998" y1="35.532299" x2="47.822998" y2="39.2444992"/>
</g>
<g>
	<line class="st3" x1="26.2221985" y1="28.8379993" x2="26.2221985" y2="32.5502014"/>
	<line class="st3" x1="31.0223999" y1="28.8379993" x2="31.0223999" y2="32.5502014"/>
	<line class="st3" x1="35.8225975" y1="28.8379993" x2="35.8225975" y2="32.5502014"/>
	<line class="st3" x1="40.6226997" y1="28.8379993" x2="40.6226997" y2="32.5502014"/>
	<line class="st3" x1="45.4228973" y1="28.8379993" x2="45.4228973" y2="32.5502014"/>
</g>
<rect x="23.3157997" y="22.1623993" class="st1" width="25.0125999" height="2.5875001"/>
<polygon class="st1" points="25.2940998,22.1623993 34.8006973,22.1623993 36.8442001,22.1623993 46.3507004,22.1623993 
	41.9626999,16.3873997 41.2322006,16.3873997 30.4125996,16.3873997 29.6820984,16.3873997 "/>
<rect x="31.4914989" y="0.375" class="st1" width="8.6620998" height="15.8998003"/>
</svg>
