<?xml version="1.0" encoding="utf-8"?>
<!-- Generator: Adobe Illustrator 22.0.1, SVG Export Plug-In . SVG Version: 6.00 Build 0)  -->
<svg version="1.1" id="Слой_1" xmlns="http://www.w3.org/2000/svg" xmlns:xlink="http://www.w3.org/1999/xlink" x="0px" y="0px"
	 viewBox="0 0 73.1524963 77.3952026" style="enable-background:new 0 0 73.1524963 77.3952026;" xml:space="preserve">
<style type="text/css">
	.st0{fill-rule:evenodd;clip-rule:evenodd;fill:#464731;}
	
		.st1{fill-rule:evenodd;clip-rule:evenodd;fill:#E4E8D0;stroke:#464731;stroke-width:0.75;stroke-linecap:round;stroke-linejoin:round;stroke-miterlimit:22.9256001;}
	
		.st2{fill-rule:evenodd;clip-rule:evenodd;fill:#FFFFFF;stroke:#464731;stroke-width:0.75;stroke-linecap:round;stroke-linejoin:round;stroke-miterlimit:22.9256001;}
	
		.st3{fill-rule:evenodd;clip-rule:evenodd;fill:none;stroke:#464731;stroke-width:0.75;stroke-linecap:round;stroke-linejoin:round;stroke-miterlimit:22.9256001;}
</style>
<circle class="st0" cx="35.8227997" cy="35.8229485" r="35.822876"/>
<g>
	<polygon class="st1" points="16.5690002,58.0421982 16.5690002,28.3855991 36.1441994,8.8104 55.7188988,28.3864002 
		55.7188988,58.0421982 	"/>
	<path class="st2" d="M58.2596016,14.7826996c2.5805969,0,4.7547989,1.7390995,5.4152985,4.1091003
		c0.5023003-0.2131996,1.0545006-0.3307991,1.6347008-0.3307991c1.8459015,0,3.4134979,1.1927986,3.9732971,2.8501987
		c0.2220001-0.0564003,0.4542007-0.0863991,0.6931-0.0863991c1.4748993,0,2.6841049,1.1357994,2.8014984,2.5805988h-15.514595
		l-5.0936012-5.0937996v-0.229599c0.1391983-0.0139008,0.2803993-0.0209999,0.4233017-0.0209999
		c0.117897,0,0.2348976,0.0047989,0.3502998,0.0146999C53.7018013,16.3691998,55.7951012,14.7826996,58.2596016,14.7826996z"/>
	<path class="st2" d="M20.8481998,7.3218999c2.5806999,0,4.7548008,1.7388005,5.4150009,4.1085
		c0.348999-0.1476002,0.7220001-0.2496996,1.1117992-0.2979002v0.4221001l-4.8892002,4.889801H11.1485996
		c-0.1046-0.3660011-0.1601-0.7523012-0.1601-1.1518011c0-2.3155994,1.8768005-4.1926994,4.1927004-4.1926994
		c0.1178999,0,0.2349997,0.0050993,0.3502998,0.0148001C16.2901001,8.9078999,18.3838005,7.3218999,20.8481998,7.3218999z"/>
	<g>
		<line class="st3" x1="16.6527004" y1="53.9954987" x2="55.6349983" y2="53.9954987"/>
		<line class="st3" x1="16.6527004" y1="49.8900986" x2="55.6349983" y2="49.8900986"/>
		<line class="st3" x1="16.6527004" y1="45.7845993" x2="55.6349983" y2="45.7845993"/>
		<line class="st3" x1="16.6527004" y1="41.6789017" x2="55.6349983" y2="41.6789017"/>
		<line class="st3" x1="16.6527004" y1="37.5735016" x2="55.6349983" y2="37.5735016"/>
		<line class="st3" x1="16.6527004" y1="33.4678001" x2="55.6349983" y2="33.4678001"/>
		<line class="st3" x1="16.6527004" y1="29.3624001" x2="55.6349983" y2="29.3624001"/>
		<line class="st3" x1="19.6975994" y1="25.257" x2="52.5894012" y2="25.257"/>
		<line class="st3" x1="23.8033009" y1="21.1513004" x2="48.4842987" y2="21.1513004"/>
		<line class="st3" x1="27.9087009" y1="17.0459003" x2="44.3788986" y2="17.0459003"/>
		<line class="st3" x1="32.0144005" y1="12.9405003" x2="40.2737999" y2="12.9405003"/>
	</g>
	<g>
		<path class="st2" d="M29.2766991,28.8122005c-0.0157986-0.1896-0.0242996-0.3810005-0.0242996-0.5748997
			c0-3.8055,3.0858002-6.8913002,6.8913002-6.8913002c3.8051987,0,6.8909988,3.0858002,6.8909988,6.8913002
			c0,0.1938992-0.0084991,0.3852997-0.0240974,0.5748997l0.0240974,6.4913006h-13.782299L29.2766991,28.8122005z"/>
		<line class="st3" x1="36.1436996" y1="21.3460007" x2="36.1436996" y2="35.3035011"/>
	</g>
	<path class="st2" d="M12.5858002,32.3688011c-0.8317003,0.8316994-2.1807003,0.8316994-3.0124006,0
		c-0.8316994-0.8316002-0.8316994-2.1809006,0-3.0123005l26.5708008-26.5709l26.5695,26.5709
		c0.8316002,0.8313999,0.8316002,2.1807003,0,3.0123005c-0.8316994,0.8316994-2.1806984,0.8316994-3.0123978,0L36.1441994,8.8107004
		L12.5858002,32.3688011z"/>
</g>
<path class="st1" d="M54.1635017,77.0202026c9.1779976,0,16.6637993-7.4858017,16.6637993-16.6638031
	s-7.4858017-16.6633987-16.6637993-16.6633987s-16.6634026,7.4853973-16.6634026,16.6633987
	S44.9855003,77.0202026,54.1635017,77.0202026z"/>
<path class="st0" d="M48.8554001,67.7432022v-3.7545013h-6.8280983v-1.7784004l7.1795998-10.1874008h1.5805969v10.1874008h2.1299019
	v1.7784004h-2.1299019v3.7545013H48.8554001L48.8554001,67.7432022z M48.8554001,62.2103004V55.137001l-4.9289017,7.0732994
	H48.8554001L48.8554001,62.2103004z M54.896801,63.6156998l2.0200005-0.1539001
	c0.1501999,0.9844971,0.4977989,1.7234039,1.0394974,2.221199c0.5414009,0.4938049,1.2038002,0.7430038,1.9831009,0.7430038
	c0.9405022,0,1.7274017-0.3515015,2.3675003-1.0503006c0.6366005-0.7027054,0.9552994-1.6322021,0.9552994-2.7884026
	c0-1.1014977-0.3038979-1.9687004-0.9151001-2.6055984c-0.6107979-0.6366997-1.4195976-0.9550018-2.4258995-0.9550018
	c-0.6255989,0-1.1853981,0.1429024-1.6832008,0.4280014c-0.4939995,0.2858009-0.8817978,0.655098-1.1675987,1.1088982
	l-1.8221016-0.263298l1.5149002-8.0798988h7.7940979v1.8442001h-6.2534981l-0.8378983,4.2411995
	c0.9404984-0.6624031,1.9283981-0.9915009,2.9602013-0.9915009c1.3687973,0,2.5250969,0.4756012,3.4653969,1.4272003
	c0.9405022,0.9510994,1.4125023,2.1735992,1.4125023,3.6664009c0,1.4235001-0.4132996,2.6531944-1.2405014,3.6887016
	c-1.0062981,1.2733002-2.3821983,1.909996-4.1240997,1.909996c-1.4269981,0-2.5909004-0.402298-3.4945984-1.2039032
	C55.5411987,66.001297,55.0250015,64.9403,54.896801,63.6156998z"/>
</svg>
