<?xml version="1.0" encoding="utf-8"?>
<!-- Generator: Adobe Illustrator 22.0.1, SVG Export Plug-In . SVG Version: 6.00 Build 0)  -->
<svg version="1.1" id="Слой_1" xmlns="http://www.w3.org/2000/svg" xmlns:xlink="http://www.w3.org/1999/xlink" x="0px" y="0px"
	 viewBox="0 0 87.8822479 90.4705505" style="enable-background:new 0 0 87.8822479 90.4705505;" xml:space="preserve">
<style type="text/css">
	.st0{fill-rule:evenodd;clip-rule:evenodd;}
	.st1{fill-rule:evenodd;clip-rule:evenodd;fill:#D67E33;}
	.st2{fill:#BC582C;}
</style>
<g>
	<rect x="18.7490501" y="8.8135529" width="68.8505859" height="0.5673828"/>
</g>
<g>
	<rect x="18.4663353" y="6.2471471" width="0.5673828" height="11.3251953"/>
</g>
<g>
	<rect x="87.3154526" y="6.2471471" width="0.5664062" height="11.3251953"/>
</g>
<g>
	<rect x="8.4551048" y="17.4688263" width="0.5668945" height="72.71875"/>
</g>
<g>
	<rect x="5.8877215" y="17.4156036" width="11.3251953" height="0.5673828"/>
</g>
<g>
	<rect x="5.8877215" y="89.9043732" width="11.3251953" height="0.5664062"/>
</g>
<g>
	<path class="st0" d="M49.2369995,5.7521h-0.7041016V1.2694c-0.1693001,0.1627001-0.3920975,0.324-0.6667976,0.4852999
		C47.5914993,1.9163001,47.343399,2.0376,47.124897,2.1175001V1.4375c0.3934021-0.184,0.7373009-0.4079,1.0321007-0.6721
		c0.2945023-0.2625,0.5040016-0.5173,0.6264-0.7654h0.4536018V5.7521z"/>
</g>
<g>
	<path class="st0" d="M53.2941971,5.7521v-1.368h-2.487999v-0.648L53.4221001,0.0241h0.5760002V3.7361h0.7761002v0.648h-0.7761002
		v1.368H53.2941971L53.2941971,5.7521z M53.2941971,3.7361V1.1588L51.4981995,3.7361H53.2941971z"/>
</g>
<g>
	<path class="st0" d="M55.4953003,2.9254c0-0.6761,0.0695-1.2226,0.2080994-1.6359
		c0.1399994-0.4147,0.3466988-0.7333,0.6212997-0.9561C56.5979996,0.1109,56.9434967,0,57.3593979,0
		c0.3067017,0,0.5760002,0.0616,0.8092995,0.1854c0.2321014,0.1242,0.4239998,0.3028,0.5734024,0.5361
		c0.1493988,0.2321,0.2664986,0.5159001,0.3521004,0.8506001c0.0863991,0.3348,0.1292,0.7866,0.1292,1.3533
		c0,0.6721001-0.0694008,1.2161-0.2066002,1.6292999c-0.1375008,0.4148002-0.344101,0.7333999-0.6188011,0.9573002
		c-0.2733002,0.2241998-0.6198997,0.3361998-1.0386009,0.3361998c-0.5508003,0-0.9838982-0.1961999-1.2985992-0.5892997
		C55.6834984,4.7786999,55.4953003,4.0014,55.4953003,2.9254L55.4953003,2.9254z M56.2152977,2.9282
		c0,0.9424999,0.1094017,1.5692999,0.3293991,1.8785002c0.2200012,0.3106999,0.4921036,0.4654999,0.8147011,0.4654999
		c0.3226013,0,0.5946999-0.1561999,0.8147011-0.4668999c0.2198982-0.3118,0.3292999-0.9371002,0.3292999-1.8771002
		c0-0.9428-0.1094017-1.5695-0.3292999-1.8788c-0.2186012-0.3107-0.4933014-0.4651-0.8227005-0.4651
		c-0.3224983,0-0.5812988,0.1372-0.7747002,0.4104C56.3354988,1.3428,56.2152977,1.9883,56.2152977,2.9282z"/>
</g>
<g>
	<path class="st0" d="M5.7521,57.8804016v0.7040977H1.2694c0.1626999,0.1692009,0.324,0.3920021,0.4852999,0.6667023
		c0.1616,0.2747002,0.2829001,0.5226974,0.3627999,0.7412987H1.4375c-0.184-0.3935013-0.4079-0.7373009-0.6721-1.0321007
		C0.5029,58.6659012,0.2481,58.4564018,0,58.3339005v-0.4534988H5.7521z"/>
</g>
<g>
	<path class="st0" d="M5.7521,53.8232002h-1.368V56.3111h-0.648L0.0241,53.6953011v-0.5760002H3.7361v-0.7761002h0.648v0.7761002
		h1.368V53.8232002L5.7521,53.8232002z M3.7361,53.8232002H1.1588L3.7361,55.6192017V53.8232002z"/>
</g>
<g>
	<path class="st0" d="M2.9254,51.6221008c-0.6761,0-1.2226001-0.0695-1.6359-0.2080994
		c-0.4147-0.1400032-0.7333-0.3467026-0.9561-0.6214027C0.1109,50.5194016,0,50.1738014,0,49.7579994
		c0-0.3066978,0.0615-0.5760002,0.1854-0.8092995c0.1242-0.2322006,0.3028-0.424099,0.5361-0.5733986
		c0.2321-0.1494026,0.5159-0.2665024,0.8505999-0.3521004c0.3348-0.0865021,0.7866001-0.1292992,1.3533001-0.1292992
		c0.6720998,0,1.2161,0.0695,1.6292999,0.2066994c0.4148002,0.1374969,0.7333999,0.3440971,0.9573002,0.6187973
		c0.2241998,0.273201,0.3361998,0.6198997,0.3361998,1.0386009c0,0.5508003-0.1961999,0.983902-0.5893002,1.2985001
		C4.7786999,51.4337997,4.0014,51.6221008,2.9254,51.6221008L2.9254,51.6221008z M2.9282,50.9020996
		c0.9424999,0,1.5692999-0.1095009,1.8784997-0.3293991c0.3106999-0.2200012,0.4654999-0.4920998,0.4654999-0.8147011
		s-0.1561999-0.5946999-0.4668999-0.8147011c-0.3118-0.2199974-0.9370999-0.3293991-1.8770998-0.3293991
		c-0.9428,0-1.5695001,0.1094017-1.8788,0.3293991c-0.3107,0.2186012-0.4651,0.4932022-0.4651,0.8226013
		c0,0.3226013,0.1372,0.5814018,0.4104,0.7747002C1.3428,50.7818985,1.9883,50.9020996,2.9282,50.9020996z"/>
</g>
<g>
	<path class="st1" d="M26.7642002,19.2677002H31.3027l1.0094986,5.3185997h0.2771988h2.1305008h0.2772026l1.0094986-5.3185997
		h3.3227005l1.0093994,5.3185997h0.277298c10.055603,0,16.0326996,0,26.2040024,0h0.2771988l1.0094986-5.3185997h3.3227005
		l1.0093994,5.3185997h0.277298h2.1305008h0.2771988l1.009407-5.3185997h3.8080978l6.8475952,6.8474007v57.8774986
		l-4.5231934,4.5229034l-2.8933029-3.5623016c-1.0950012,0-4.4574966,0-5.5524979,0l-0.7532043,3.9687958h-3.732399
		l-0.7530975-3.9687958h-0.277298h-5.2990036v2.5514984H43.5047989v-2.5514984H38.608799h-0.2773018l-0.7530975,3.9687958
		h-4.1357994l-0.7531013-3.9687958c-1.0951004,0-4.4575005,0-5.552599,0l-2.8051014,3.4542999l-4.6113987-4.6114044V26.3115005
		L26.7642002,19.2677002z"/>
</g>
<g>
	<path class="st2" d="M73.0664291,89.9219513h-3.7324219c-0.4804688,0-0.8925781-0.3417969-0.9824219-0.8134766
		l-0.5986328-3.1552734h-3.7480469v1.5517578c0,0.5527344-0.4472618,1-0.9999962,1h-19.5c-0.5522461,0-1-0.4472656-1-1v-1.5517578
		h-3.3452148l-0.5986328,3.1552734c-0.0893555,0.4716797-0.5019531,0.8134766-0.9824219,0.8134766h-4.1362305
		c-0.4804688,0-0.8930664-0.3417969-0.9824219-0.8134766l-0.5986328-3.1552734h-4.2485352l-2.5048828,3.0849609
		c-0.1787109,0.2197266-0.4418945,0.3535156-0.7246094,0.3681641c-0.2910156,0.0166016-0.5585938-0.0917969-0.7587891-0.2919922
		l-4.6113281-4.6113281c-0.1875-0.1875-0.2929688-0.4414062-0.2929688-0.7070312v-57.484375
		c0-0.2651367,0.1054688-0.5195312,0.2929688-0.7070312l7.0439453-7.0439453c0.1875-0.1875,0.4418945-0.2929688,0.7070312-0.2929688
		h4.5385742c0.4804688,0,0.8930664,0.3417969,0.9824219,0.8134766l0.8549805,4.5053711h1.0288086l0.8549805-4.5053711
		c0.0893555-0.4716797,0.5019531-0.8134766,0.9824219-0.8134766h3.3227539c0.4804688,0,0.8930664,0.3413086,0.9824219,0.8134766
		l0.8554688,4.5053711h25.1025352l0.8544922-4.5053711c0.0898285-0.4716797,0.5019531-0.8134766,0.9824219-0.8134766h3.3232422
		c0.4804688,0,0.8925781,0.3417969,0.9824219,0.8134766l0.8544922,4.5053711h1.0292969l0.8544922-4.5053711
		c0.0898438-0.4716797,0.5019531-0.8134766,0.9824219-0.8134766h3.8085938c0.265625,0,0.5195312,0.1054688,0.7070312,0.2929688
		l6.8476562,6.8476562c0.1875,0.1875,0.2929688,0.4418945,0.2929688,0.7070312v57.8769531
		c0,0.265625-0.1054688,0.5195312-0.2929688,0.7070312l-4.5234375,4.5234375
		c-0.2001953,0.2011719-0.4775391,0.3076172-0.7588043,0.2919922c-0.2822113-0.0146484-0.5458832-0.1484375-0.7245941-0.3681641
		l-2.59375-3.1933594h-4.2470703l-0.5996094,3.1552734C73.9590073,89.5801544,73.5468979,89.9219513,73.0664291,89.9219513z
		 M70.1621323,87.9219513h2.0761719l0.5996094-3.1552734c0.0898438-0.4716797,0.5019531-0.8134766,0.9824219-0.8134766h5.5517578
		c0.3007812,0,0.5859375,0.1357422,0.7763672,0.3691406l2.1943359,2.7021484l3.4462891-3.4462891V26.5293732l-6.2617188-6.2617188
		h-2.5664062l-0.8544922,4.5053711c-0.0898438,0.4716797-0.5019531,0.8134766-0.9824219,0.8134766h-2.6855469
		c-0.4804688,0-0.8925781-0.3417969-0.9824219-0.8134766l-0.8544922-4.5053711h-1.6669922l-0.8544922,4.5053711
		c-0.0898438,0.4716797-0.5019531,0.8134766-0.9824219,0.8134766H40.3388748c-0.4804497,0-0.8930473-0.3413086-0.9824028-0.8134766
		l-0.8554688-4.5053711h-1.6665039l-0.8549805,4.5053711c-0.0893555,0.4716797-0.5019531,0.8134766-0.9824219,0.8134766h-2.6850586
		c-0.4804688,0-0.8930664-0.3417969-0.9824219-0.8134766l-0.8549805-4.5053711h-3.2963867l-6.4580078,6.4580078v56.65625
		l3.5341797,3.5341797l2.105957-2.59375c0.1899414-0.2333984,0.4750977-0.3691406,0.7763672-0.3691406h5.5527344
		c0.4804688,0,0.8930664,0.3417969,0.9824219,0.8134766l0.5986328,3.1552734h2.4799805l0.5986328-3.1552734
		c0.0893555-0.4716797,0.5019531-0.8134766,0.9824219-0.8134766h5.1733398c0.5522461,0,1,0.4472656,1,1v1.5517578h17.5v-1.5517578
		c0-0.5527344,0.4472656-1,1-1h5.5761681c0.4804688,0,0.8925781,0.3417969,0.9824219,0.8134766L70.1621323,87.9219513z"/>
</g>
<g>
	<g>
		<path class="st2" d="M40.4770775,71.5606232c-5.3862305-4.0585938-8.4755859-10.25-8.4755859-16.9853516
			c0-4.8925781,1.7036133-9.6689453,4.796875-13.449707l0.4384766,0.359375
			c-3.0102539,3.6791992-4.668457,8.3286133-4.668457,13.090332c0,6.5556641,3.0068359,12.5820312,8.2495117,16.5322266
			L40.4770775,71.5606232z M66.9092026,70.8614044l-0.3652344-0.4335938
			c4.7001953-3.9433594,7.3964844-9.7216797,7.3964844-15.8525391c0-6.5166016-2.9775391-12.5200195-8.1699219-16.4711914
			l0.34375-0.4511719c5.3339844,4.0595703,8.3925781,10.2270508,8.3925781,16.9223633
			C74.5068588,60.8740997,71.7373276,66.8106232,66.9092026,70.8614044z"/>
	</g>
	<g>
		<path class="st2" d="M53.2549095,68.2510529c-4.6757812,0-8.9790039-2.3505859-11.5117188-6.2871094l0.4765625-0.3066406
			c2.4277344,3.7744141,6.5527344,6.0273438,11.0351562,6.0273438c7.2294922,0,13.1113243-5.8818359,13.1113243-13.1113281
			c0-2.8671875-0.9091797-5.5908203-2.6289024-7.875l0.4531212-0.3417969
			c1.7939453,2.3837891,2.7421875,5.2255859,2.7421875,8.2167969
			C66.9326401,62.1153107,60.7969017,68.2510529,53.2549095,68.2510529z M40.1440697,54.5733185h-0.5673828
			c0-7.5419922,6.1362305-13.6772461,13.6782227-13.6772461v0.5668945
			C46.0254173,41.4629669,40.1440697,47.3438263,40.1440697,54.5733185z"/>
	</g>
	<g>
		<path class="st2" d="M53.2549095,62.7725372c-4.5214844,0-8.1992188-3.6777344-8.1992188-8.1992188
			c0-4.5205078,3.6777344-8.1982422,8.1992188-8.1982422c4.5205078,0,8.1982422,3.6777344,8.1982422,8.1982422h-0.5664062
			c0-4.2080078-3.4238281-7.6318359-7.6318359-7.6318359c-4.2089844,0-7.6328125,3.4238281-7.6328125,7.6318359
			c0,4.2089844,3.4238281,7.6328125,7.6328125,7.6328125V62.7725372z"/>
	</g>
	<g>
		
			<rect x="27.8978519" y="62.5823593" transform="matrix(0.8533669 -0.5213108 0.5213108 0.8533669 -26.9371891 29.9653435)" class="st2" width="23.8000526" height="0.5678595"/>
	</g>
	<g>
		
			<rect x="53.8029785" y="46.289135" transform="matrix(0.6158443 -0.7878678 0.7878678 0.6158443 -13.40135 65.6607285)" class="st2" width="13.6567888" height="0.5673907"/>
	</g>
	<g>
		
			<rect x="63.0515633" y="53.1057854" transform="matrix(0.6874692 -0.7262136 0.7262136 0.6874692 -26.4139423 65.8810959)" class="st2" width="0.5678222" height="21.0463982"/>
	</g>
	<g>
		
			<rect x="52.1939888" y="42.762928" transform="matrix(0.9848001 -0.1736916 0.1736916 0.9848001 -7.2754583 9.8213997)" class="st2" width="0.5671504" height="7.4332829"/>
	</g>
	<g>
		<path class="st2" d="M53.2549095,81.7100372c-9.2768555,0-17.8144531-4.6630859-22.8388672-12.4746094l0.4765625-0.3066406
			c4.9194336,7.6484375,13.2792969,12.2148438,22.3623047,12.2148438c14.6503868,0,26.5693321-11.9199219,26.5693321-26.5703125
			c0-5.8125-1.8417969-11.331543-5.3261719-15.9609375l0.453125-0.3408203
			c3.5585938,4.7285156,5.4394531,10.3652344,5.4394531,16.3017578
			C80.3906479,69.5362091,68.2177963,81.7100372,53.2549095,81.7100372z M26.684597,54.5733185h-0.5668945
			c0-14.9628906,12.1738281-27.1362305,27.137207-27.1362305v0.5673828
			C38.6040306,28.0044708,26.684597,39.9229279,26.684597,54.5733185z"/>
	</g>
	<g>
		<path class="st2" d="M79.5234604,85.168045l-0.3710938-0.4296875c2.8691406-2.4775391,5.3574219-5.3457031,7.3984375-8.5234375
			l0.4765625,0.3066406C84.9580307,79.7451935,82.4326401,82.6543732,79.5234604,85.168045z M26.9819603,85.1670685
			c-2.8984375-2.5107422-5.421875-5.4257812-7.5004883-8.6630859l0.4775391-0.3066406
			c2.0488281,3.1923828,4.5366211,6.0664062,7.394043,8.5419922L26.9819603,85.1670685z M86.5508041,33.4146271
			c-2.9072266-4.5307617-6.6289062-8.3520508-11.0615234-11.3588867l0.3183594-0.46875
			c4.4960938,3.0498047,8.2705078,6.9257812,11.2197266,11.5209961L86.5508041,33.4146271z M71.3134995,19.5850372
			l-0.1269531-0.0644531l0.2558594-0.5058594l0.1269531,0.0644531L71.3134995,19.5850372z"/>
	</g>
	<g>
		<path class="st2" d="M48.3027611,87.7852325c-0.8759766-0.1318359-1.7460938-0.2978516-2.5869141-0.4921875l0.1269531-0.5527344
			c0.8271484,0.1914062,1.6835938,0.3544922,2.5439453,0.484375L48.3027611,87.7852325z M58.325222,87.7852325l-0.0839844-0.5605469
			c1.5820312-0.2392578,3.1572266-0.5957031,4.6806641-1.0605469l0.1660156,0.5429688
			C61.5371361,87.1787872,59.9355736,87.5420685,58.325222,87.7852325z M67.0634995,85.2119904l-0.2324219-0.5175781
			c2.2294922-1.0039062,4.3564453-2.2646484,6.3212891-3.7460938c8.3076172-6.2558594,13.1025391-15.8164062,13.1552734-26.2285156
			l0.5664062,0.0019531c-0.0537109,10.5917969-4.9306641,20.3164062-13.3798828,26.6796875
			C71.4951401,82.9073029,69.3310776,84.1895294,67.0634995,85.2119904z M20.2768822,54.5957794h-0.5673828
			c0.0019531-10.6552734,4.878418-20.4384766,13.3803711-26.8413086c2.1757812-1.6386719,4.5361328-3.0073242,7.0161133-4.0678711
			l0.2226562,0.5214844c-2.4375,1.0424805-4.7583008,2.3876953-6.8979492,3.9995117
			C25.0727806,34.5020294,20.278347,44.1201935,20.2768822,54.5957794z"/>
	</g>
	<g>
		
			<rect x="36.0962868" y="34.0966492" transform="matrix(0.3340325 -0.9425616 0.9425616 0.3340325 -19.1270752 64.9227448)" class="st2" width="0.567241" height="23.8005028"/>
	</g>
	<g>
		
			<rect x="55.7961578" y="64.5684128" transform="matrix(0.9973611 -0.0726013 0.0726013 0.9973611 -5.1852651 4.2652712)" class="st2" width="0.5659413" height="17.7822781"/>
	</g>
	<g>
		
			<rect x="46.5731544" y="26.447361" transform="matrix(0.9661762 -0.257883 0.257883 0.9661762 -6.9964399 13.2089739)" class="st2" width="0.5663894" height="13.6571903"/>
	</g>
</g>
</svg>
