<?xml version="1.0" encoding="utf-8"?>
<!-- Generator: Adobe Illustrator 22.0.1, SVG Export Plug-In . SVG Version: 6.00 Build 0)  -->
<svg version="1.1" id="Слой_1" xmlns="http://www.w3.org/2000/svg" xmlns:xlink="http://www.w3.org/1999/xlink" x="0px" y="0px"
	 viewBox="0 0 91.7709961 55.4267578" style="enable-background:new 0 0 91.7709961 55.4267578;" xml:space="preserve">
<style type="text/css">
	.st0{fill-rule:evenodd;clip-rule:evenodd;fill:#D67E33;}
	.st1{fill:#BC582C;}
</style>
<g>
	<g>
		<g>
			<path class="st0" d="M14.0598011,6.5424829c4.698082-3.1440005,10.3480492-4.9781985,16.4255962-4.9781985
				c16.3310623,0,29.5712433,13.240181,29.5712433,29.5711555c0,9.1513348-4.1580505,17.3315868-10.6870384,22.7558346
				c-5.1225548-4.2556915-11.7044754-6.8158722-18.8842049-6.8158722c-7.1796398,0-13.7615604,2.5601807-18.8841133,6.8158722
				C5.0722942,48.4670258,0.9142421,40.2867737,0.9142421,31.1354389c0-8.9294548,3.9587522-16.9348145,10.2161264-22.3569584
				L14.0598011,6.5424829z"/>
		</g>
		<g>
			<g>
				<path class="st1" d="M30.4848633,34.8662109c-2.0566406,0-3.7299805-1.6733398-3.7299805-3.7299805
					c0-2.0571289,1.6733398-3.730957,3.7299805-3.730957c2.0571289,0,3.7304688,1.6738281,3.7304688,3.730957
					C34.215332,33.1928711,32.5419922,34.8662109,30.4848633,34.8662109z M30.4848633,27.9238281
					c-1.7709961,0-3.2114258,1.440918-3.2114258,3.2124023c0,1.7709961,1.4404297,3.2114258,3.2114258,3.2114258
					s3.2119141-1.4404297,3.2119141-3.2114258C33.6967773,29.3647461,32.2558594,27.9238281,30.4848633,27.9238281z"/>
			</g>
			<g>
				<path class="st1" d="M30.4853516,41.7509766c-5.8535156,0-10.6162109-4.7617188-10.6162109-10.6152344
					s4.7626953-10.6157227,10.6162109-10.6157227v0.5185547c-5.5678711,0-10.0976562,4.5292969-10.0976562,10.097168
					c0,5.5673828,4.5297852,10.0976562,10.0976562,10.0976562s10.097168-4.5302734,10.097168-10.0976562h0.5185547
					C41.1010742,36.9892578,36.3388672,41.7509766,30.4853516,41.7509766z"/>
			</g>
			<g>
				<path class="st1" d="M34.3701172,47.5732422l-0.1191406-0.5039062
					c7.4208984-1.7480469,12.6035156-8.2998047,12.6035156-15.9335938c0-4.3754883-1.7099609-8.4916992-4.8154297-11.5908203
					c-3.0888672-3.0820312-7.1782227-4.7783203-11.5185547-4.7783203c-0.0117188,0-0.0229492,0-0.034668,0
					c-3.559082,0.0068359-6.9443359,1.1435547-9.7905273,3.2871094l-0.3115234-0.4140625
					c2.9360352-2.2114258,6.4291992-3.3842773,10.1010742-3.3916016c0.0117188,0,0.0239258,0,0.0356445,0
					c4.4785156,0,8.6977539,1.75,11.8847656,4.9301758c3.203125,3.1967773,4.9677734,7.4433594,4.9677734,11.9575195
					C47.3730469,39.0107422,42.0258789,45.7705078,34.3701172,47.5732422z M20.3305664,44.6318359
					c-4.2416992-3.1914062-6.7587891-8.2373047-6.7333984-13.4975586c0.0170898-3.5864258,1.1420898-7.0131836,3.2543945-9.909668
					l0.4189453,0.3056641c-2.0478516,2.8076172-3.1386719,6.1293945-3.1547852,9.6064453
					C14.0908203,36.234375,16.5307617,41.125,20.6420898,44.2177734L20.3305664,44.6318359z"/>
			</g>
			<g>
				<path class="st1" d="M16.6479492,50.640625C10.3383789,46.15625,6.5712891,38.8652344,6.5712891,31.1357422
					c0-13.1860352,10.7280273-23.9140625,23.9140625-23.9140625c6.4238281,0,12.4526367,2.5107422,16.9750786,7.0698242
					l-0.368145,0.3652344c-4.4243164-4.4604492-10.3222656-6.9165039-16.6069336-6.9165039
					c-12.9003906,0-23.3955078,10.4951172-23.3955078,23.3955078c0,7.5615234,3.6850586,14.6953125,9.8579102,19.0830078
					L16.6479492,50.640625z M44.3232422,50.640625l-0.2998047-0.421875
					c6.1723633-4.3876953,9.8579102-11.5214844,9.8579102-19.0830078c0-4.5961914-1.3320312-9.0439453-3.8496094-12.8618164
					l0.4326172-0.2851562c2.5742188,3.902832,3.9345703,8.4487305,3.9345703,13.1469727
					C54.3989258,38.8642578,50.6323242,46.15625,44.3232422,50.640625z"/>
			</g>
			<g>
				<path class="st1" d="M11.6010742,54.8056641c-0.2075195,0-0.4150391-0.0703125-0.5844727-0.2109375
					C4.0151367,48.7773438,0,40.2265625,0,31.1352539c0-8.847168,3.8383789-17.2480469,10.5317383-23.0478516
					c0.3818359-0.3305664,0.9594727-0.2895508,1.2895508,0.0922852c0.3305664,0.3813477,0.2895508,0.9589844-0.0922852,1.2895508
					C5.4370117,14.921875,1.828125,22.8188477,1.828125,31.1352539c0,8.2963867,3.5581055,16.1147461,9.7880859,21.5678711
					c5.3569336-4.2236328,12.0273438-6.5419922,18.8691406-6.5419922s13.512207,2.3183594,18.8686523,6.5419922
					c6.2304688-5.453125,9.7890625-13.2714844,9.7890625-21.5678711c0-15.8012695-12.855957-28.6567383-28.6577148-28.6567383
					c-5.6977539,0-11.2016602,1.6679688-15.9174805,4.8237305c-0.4179688,0.2802734-0.9873047,0.168457-1.2680664-0.2514648
					c-0.2807617-0.4194336-0.168457-0.9873047,0.2514648-1.2680664c5.0170898-3.3579102,10.8730469-5.1323242,16.934082-5.1323242
					c16.8100586,0,30.4858398,13.675293,30.4858398,30.4848633c0,9.0913086-4.015625,17.6420898-11.0175781,23.4594727
					c-0.3378906,0.28125-0.8300781,0.28125-1.1679688,0c-5.1274414-4.2597656-11.6264648-6.6054688-18.300293-6.6054688
					S17.3125,50.3349609,12.1855469,54.5947266C12.0161133,54.7353516,11.8085938,54.8056641,11.6010742,54.8056641z"/>
			</g>
		</g>
	</g>
	<g>
		<polygon points="91.7709961,55.4267578 61.3803711,55.4267578 6.3071289,0.3535156 6.6606445,0 61.5874023,54.9267578 
			91.7709961,54.9267578 		"/>
	</g>
	<g>
		<path d="M69.8383789,50.2050781c-2.6328125,0-4.7753906-2.1425781-4.7753906-4.7753906s2.1425781-4.7753906,4.7753906-4.7753906
			s4.7753906,2.1425781,4.7753906,4.7753906S72.4711914,50.2050781,69.8383789,50.2050781z M69.8383789,41.1542969
			c-2.3574219,0-4.2753906,1.9179688-4.2753906,4.2753906s1.9179688,4.2753906,4.2753906,4.2753906
			s4.2753906-1.9179688,4.2753906-4.2753906S72.1958008,41.1542969,69.8383789,41.1542969z"/>
	</g>
	<g>
		
			<rect x="61.9618034" y="45.1802025" transform="matrix(0.7071068 -0.7071068 0.7071068 0.7071068 -11.6687975 62.6893806)" width="15.7531509" height="0.4999466"/>
	</g>
	<g>
		<path d="M82.9399414,43.1669922h-0.0195312l-1.1298828,0.609375l-0.1699219-0.6699219l1.4199219-0.7587891h0.7490234V48.84375
			h-0.8496094V43.1669922z"/>
		<path d="M87.3608398,45.4257812c-0.7294922-0.3398438-1.0400391-0.8994141-1.0400391-1.4589844
			c0-1.0302734,0.8701172-1.7294922,2.0195312-1.7294922c1.2587891,0,1.8984375,0.7792969,1.8984375,1.5996094
			c0,0.5488281-0.2792969,1.1494141-1.0791016,1.5185547v0.0302734c0.8095703,0.3193359,1.3095703,0.8994141,1.3095703,1.6787109
			c0,1.1396484-0.9697266,1.8896484-2.2089844,1.8896484c-1.359375,0-2.1787109-0.7998047-2.1787109-1.7490234
			c0-0.8203125,0.4892578-1.4091797,1.2890625-1.7490234L87.3608398,45.4257812z M89.5795898,47.1542969
			c0-0.7792969-0.5498047-1.1689453-1.4296875-1.4189453c-0.7597656,0.2197266-1.1689453,0.7294922-1.1689453,1.3496094
			c-0.0302734,0.6494141,0.4697266,1.2294922,1.2988281,1.2294922
			C89.0698242,48.3144531,89.5795898,47.8242188,89.5795898,47.1542969z M87.1606445,43.90625
			c-0.0097656,0.6494141,0.4892578,1,1.2392578,1.1992188c0.5595703-0.1894531,0.9892578-0.5888672,0.9892578-1.1787109
			c0-0.5195312-0.3095703-1.0595703-1.0996094-1.0595703C87.5600586,42.8671875,87.1606445,43.3466797,87.1606445,43.90625z"/>
	</g>
</g>
</svg>
