<?xml version="1.0" encoding="utf-8"?>
<!-- Generator: Adobe Illustrator 22.0.1, SVG Export Plug-In . SVG Version: 6.00 Build 0)  -->
<svg version="1.1" id="Слой_1" xmlns="http://www.w3.org/2000/svg" xmlns:xlink="http://www.w3.org/1999/xlink" x="0px" y="0px"
	 viewBox="0 0 87.8818893 63.1939888" style="enable-background:new 0 0 87.8818893 63.1939888;" xml:space="preserve">
<style type="text/css">
	.st0{fill-rule:evenodd;clip-rule:evenodd;fill:#D67E33;}
	.st1{fill:#BC582C;}
	.st2{fill-rule:evenodd;clip-rule:evenodd;}
</style>
<g>
	<path class="st0" d="M26.7642002,18.0519009H31.3027l1.0094986,5.3186989h0.2771988h2.1305008h0.2772026l1.0094986-5.3186989
		h3.3227005l1.0093994,5.3186989h0.277298c10.055603,0,16.0326996,0,26.2040024,0h0.2771988l1.0094986-5.3186989h3.3227005
		l1.0093994,5.3186989h0.277298h2.1305008h0.2771988l1.009407-5.3186989h3.8080978l6.8475952,6.8473988v32.3656998
		l-4.5231934,4.5228996l-2.8933029-3.5622978c-1.0950012,0-4.4574966,0-5.5524979,0l-0.7532043,3.9687996h-3.732399
		l-0.7530975-3.9687996h-0.277298h-5.2990036v2.5514984H43.5047989v-2.5514984H38.608799h-0.2773018l-0.7530975,3.9687996
		h-4.1357994l-0.7531013-3.9687996c-1.0951004,0-4.4575005,0-5.552599,0l-2.8051014,3.4542999l-4.6113987-4.6114006V25.0956993
		L26.7642002,18.0519009z"/>
</g>
<g>
	<path class="st1" d="M73.0664597,63.1939888h-3.7324219c-0.4804688,0-0.8925781-0.3417969-0.9824219-0.8134766
		l-0.5986328-3.1552734h-3.7480469v1.5517578c0,0.5527344-0.4472656,1-1,1h-19.5c-0.5522461,0-1-0.4472656-1-1v-1.5517578
		h-3.3452148l-0.5991211,3.1552734c-0.0893555,0.4716797-0.5019531,0.8134766-0.9824219,0.8134766h-4.1357422
		c-0.4804688,0-0.8930664-0.3417969-0.9824219-0.8134766l-0.5986328-3.1552734h-4.2485352l-2.5048828,3.0849609
		c-0.1787109,0.2207031-0.4418945,0.3544922-0.7246094,0.3691406c-0.293457,0.0126953-0.5585938-0.0908203-0.7587891-0.2919922
		l-4.6113281-4.6123047c-0.1875-0.1875-0.2929688-0.4414062-0.2929688-0.7070312V25.0953579
		c0-0.265625,0.1054688-0.5195312,0.2929688-0.7070312l7.0439453-7.043457c0.1875-0.1875,0.4418945-0.2929688,0.7070312-0.2929688
		h4.5385742c0.4804688,0,0.8930664,0.3417969,0.9824219,0.8134766l0.8549805,4.5053711h1.0288086l0.8549805-4.5053711
		c0.0893555-0.4716797,0.5019531-0.8134766,0.9824219-0.8134766h3.3227539c0.4804688,0,0.8930664,0.3413086,0.9824219,0.8134766
		l0.8554688,4.5053711h25.1015625l0.8554688-4.5053711c0.0898438-0.472168,0.5019531-0.8134766,0.9824219-0.8134766h3.3232422
		c0.4804688,0,0.8925781,0.3417969,0.9824219,0.8134766l0.8544922,4.5053711h1.0292969l0.8544922-4.5053711
		c0.0898285-0.4716797,0.5019531-0.8134766,0.9824219-0.8134766h3.8085938c0.265625,0,0.5195312,0.1054688,0.7070312,0.2929688
		l6.8476562,6.847168c0.1875,0.1875,0.2929688,0.4414062,0.2929688,0.7070312v32.3662109
		c0,0.265625-0.1054688,0.5195312-0.2929688,0.7070312l-4.5234375,4.5224609
		c-0.1992188,0.2011719-0.4726562,0.3095703-0.7587891,0.2919922c-0.2822266-0.0146484-0.5458984-0.1484375-0.7246094-0.3681641
		l-2.59375-3.1933594h-4.2470703l-0.5996094,3.1552734C73.9590378,62.8521919,73.5469284,63.1939888,73.0664597,63.1939888z
		 M70.1621628,61.1939888h2.0761719l0.5996094-3.1552734c0.0898438-0.4716797,0.5019531-0.8134766,0.9824219-0.8134766h5.5517578
		c0.3007812,0,0.5859375,0.1357422,0.7763672,0.3691406l2.1943359,2.7021484l3.4462891-3.4453125v-31.538084l-6.2617188-6.2612305
		h-2.5664062l-0.8544922,4.5053711c-0.0898438,0.4716797-0.5019531,0.8134766-0.9824219,0.8134766H72.43853
		c-0.4804688,0-0.8925781-0.3417969-0.9824219-0.8134766l-0.8544922-4.5053711h-1.6669922L68.079155,23.557272
		c-0.0898438,0.4716797-0.5019531,0.8134766-0.9824219,0.8134766H40.3389206c-0.4804688,0-0.8930664-0.3417969-0.9824219-0.8134766
		L38.50103,19.0519009h-1.6665039l-0.8549805,4.5053711c-0.0893555,0.4716797-0.5019531,0.8134766-0.9824219,0.8134766h-2.6850586
		c-0.4804688,0-0.8930664-0.3417969-0.9824219-0.8134766l-0.8549805-4.5053711h-3.2963867l-6.4580078,6.4575195v31.1445293
		l3.5341797,3.5351562l2.105957-2.59375c0.1899414-0.234375,0.4750977-0.3701172,0.7763672-0.3701172h5.5527344
		c0.4804688,0,0.8930664,0.3417969,0.9824219,0.8134766l0.5986328,3.1552734h2.4794922l0.5991211-3.1552734
		c0.0893555-0.4716797,0.5019531-0.8134766,0.9824219-0.8134766h5.1733398c0.5522461,0,1,0.4472656,1,1v1.5517578h17.5v-1.5517578
		c0-0.5527344,0.4472656-1,1-1h5.5761719c0.4804688,0,0.8925781,0.3417969,0.9824219,0.8134766L70.1621628,61.1939888z"/>
</g>
<g>
	<rect x="18.7490768" y="9.3966274" width="68.8505859" height="0.5673828"/>
</g>
<g>
	<rect x="18.4658737" y="6.8302212" width="0.5673828" height="11.3251953"/>
</g>
<g>
	<rect x="87.3154831" y="6.8302212" width="0.5664062" height="11.3251953"/>
</g>
<g>
	<rect x="8.4546423" y="18.0519009" width="0.5673828" height="44.1420898"/>
</g>
<g>
	<rect x="5.8877478" y="17.7686977" width="11.3251953" height="0.5673828"/>
</g>
<g>
	<rect x="5.8877478" y="61.9107857" width="11.3251953" height="0.5664062"/>
</g>
<g>
	<path class="st2" d="M48.3975983,5.7521h-0.7040977V1.2694c-0.1692009,0.1627001-0.3920021,0.324-0.6667023,0.4852999
		C46.7520981,1.9163001,46.504097,2.0376,46.2854996,2.1175001V1.4375c0.3934975-0.184,0.7373009-0.4079,1.0321007-0.6721
		C47.6121979,0.5029,47.8215981,0.2481,47.9440994,0h0.4534988V5.7521z"/>
</g>
<g>
	<path class="st2" d="M50.3106995,4.4240999l0.6721001-0.0559001C51.0401001,4.6854,51.149498,4.9148002,51.3107986,5.0573001
		c0.1613007,0.1429,0.3679008,0.2149,0.6213989,0.2149c0.2159996,0,0.4053001-0.0493002,0.5692024-0.1494002
		c0.1640968-0.0985999,0.2972984-0.2307,0.3998985-0.3973999C53.0042,4.5601001,53.0906982,4.3362002,53.161499,4.0546999
		C53.2320976,3.7735,53.2666969,3.4867001,53.2666969,3.1947c0-0.0306001-0.0010986-0.0785-0.0039978-0.1412001
		c-0.1399994,0.224-0.3319016,0.4065001-0.574501,0.5454001C52.4454994,3.7386999,52.1812973,3.8081,51.8986969,3.8081
		c-0.4733963,0-0.8732986-0.1721001-1.2012978-0.5158999c-0.3265991-0.3427-0.4906998-0.796-0.4906998-1.3586001
		c0-0.5813999,0.1707001-1.048,0.513401-1.4029C51.0613976,0.1775,51.489399,0,52.0056,0
		c0.3704987,0,0.710598,0.1001,1.0198975,0.3014c0.3078003,0.2001,0.5414009,0.4855,0.7013016,0.8574
		c0.1599007,0.3705,0.2401009,0.9080001,0.2401009,1.6107c0,0.7319-0.0788002,1.3146999-0.2376022,1.7478001
		C53.5709,4.9521999,53.3332977,5.2816,53.0200996,5.5079999c-0.3132019,0.2268-0.6800003,0.3401999-1.1012993,0.3401999
		c-0.448101,0-0.8132019-0.1241999-1.0973015-0.3733001C50.5388985,5.2254,50.368,4.8748002,50.3106995,4.4240999
		L50.3106995,4.4240999z M53.1828003,1.8976001c0-0.4028001-0.1066017-0.7229-0.3200035-0.9587001
		c-0.2120972-0.2361-0.4705963-0.3546-0.7746964-0.3546c-0.3147011,0-0.5865021,0.1264-0.8158035,0.3812
		c-0.2307968,0.2546-0.3455963,0.5854-0.3455963,0.9907c0,0.364,0.1093979,0.6599001,0.3267975,0.8867
		c0.2186012,0.2279,0.4906998,0.3413,0.8147011,0.3413c0.3251991,0,0.5918999-0.1134,0.8013992-0.3413
		C53.0788002,2.6161001,53.1828003,2.3001001,53.1828003,1.8976001z"/>
</g>
<g>
	<path class="st2" d="M54.6559982,2.9254c0-0.6761,0.0694008-1.2226,0.2080002-1.6359
		c0.1400986-0.4147,0.3466988-0.7333,0.6213989-0.9561C55.7586975,0.1109,56.1041985,0,56.5200005,0
		c0.3066978,0,0.5759964,0.0616,0.8092995,0.1854c0.2321968,0.1242,0.424099,0.3028,0.5734978,0.5361
		c0.1494026,0.2321,0.2663994,0.5159001,0.3520012,0.8506001c0.0864983,0.3348,0.1292992,0.7866999,0.1292992,1.3533
		c0,0.6721001-0.0694008,1.2161-0.2066002,1.6294c-0.1375008,0.4147-0.3442001,0.7332997-0.6188011,0.9572001
		c-0.2732964,0.2241998-0.6199989,0.3361998-1.0386963,0.3361998c-0.5507011,0-0.983902-0.1961999-1.2985001-0.5892997
		C54.8442001,4.7786999,54.6559982,4.0014,54.6559982,2.9254L54.6559982,2.9254z M55.3759995,2.9282
		c0,0.9426,0.1093979,1.5692999,0.3293991,1.8785999c0.2198982,0.3106003,0.4920998,0.4654002,0.8146019,0.4654002
		c0.3225975,0,0.5946999-0.1561999,0.8146973-0.4668999c0.2200012-0.3118,0.3293991-0.9371002,0.3293991-1.8771002
		c0-0.9428-0.1093979-1.5695-0.3293991-1.8788c-0.2184982-0.3106-0.4931984-0.4651-0.8225975-0.4651
		c-0.3226013,0-0.5814018,0.1372-0.7747002,0.4104C55.4961967,1.3428,55.3759995,1.9883,55.3759995,2.9282z"/>
</g>
<g>
	<path class="st2" d="M5.7521,44.0603981v0.7041016H1.2694c0.1626999,0.1692009,0.324,0.3920021,0.4852999,0.6666985
		c0.1616,0.2747002,0.2829001,0.5227013,0.3627999,0.7413025H1.4375c-0.184-0.3935013-0.4079-0.7373009-0.6721-1.0321007
		C0.5029,44.8457985,0.2481,44.6363983,0,44.5139008v-0.4535027H5.7521z"/>
</g>
<g>
	<path class="st2" d="M5.7521,40.0031013h-1.368v2.487999h-0.648L0.0241,39.8753014v-0.5760002H3.7361V38.523201h0.648v0.7761002
		h1.368V40.0031013L5.7521,40.0031013z M3.7361,40.0031013H1.1588L3.7361,41.7991982V40.0031013z"/>
</g>
<g>
	<path class="st2" d="M2.9254,37.8019981c-0.6761,0-1.2226001-0.069397-1.6359-0.2079964
		c-0.4147-0.1401024-0.7333-0.3467026-0.9561-0.6214027C0.1109,36.6994019,0,36.3538017,0,35.9379997
		c0-0.3066978,0.0615-0.5760002,0.1854-0.8092995c0.1242-0.2322006,0.3028-0.424099,0.5361-0.5735016
		c0.2321-0.1493988,0.5159-0.2663994,0.8505999-0.3519974c0.3348-0.0865021,0.7866001-0.129303,1.3533001-0.129303
		c0.6720998,0,1.2161,0.0695,1.6292999,0.2066002c0.4148002,0.1375008,0.7333999,0.3442001,0.9573002,0.6189003
		c0.2241998,0.273201,0.3361998,0.6198997,0.3361998,1.0386009c0,0.5507011-0.1961999,0.983902-0.5893002,1.2985001
		C4.7786999,37.6138,4.0014,37.8019981,2.9254,37.8019981L2.9254,37.8019981z M2.9282,37.0820007
		c0.9424999,0,1.5692999-0.1094017,1.8784997-0.3293991c0.3106999-0.219902,0.4654999-0.4920998,0.4654999-0.8146019
		c0-0.3226013-0.1561999-0.5946999-0.4668999-0.8147011c-0.3118-0.2199974-0.9370999-0.3293991-1.8770998-0.3293991
		c-0.9428,0-1.5695001,0.1094017-1.8788,0.3293991c-0.3107,0.218502-0.4651,0.4932022-0.4651,0.8226013
		c0,0.3226013,0.1372,0.5814018,0.4104,0.7747002C1.3428,36.9617996,1.9883,37.0820007,2.9282,37.0820007z"/>
</g>
<g>
	<g>
		<path class="st1" d="M40.4771042,57.5885201c-5.3862305-4.0576172-8.4755859-10.2480469-8.4755859-16.984375
			c0-4.8935547,1.7036133-9.66992,4.796875-13.4501934l0.4384766,0.359375
			c-3.0102539,3.6787109-4.6679688,8.3281231-4.6679688,13.0908184c0,6.5566406,3.0063477,12.5820312,8.2490234,16.53125
			L40.4771042,57.5885201z M66.9092331,56.8902779l-0.3652344-0.4335938
			c4.7001953-3.9443359,7.3964844-9.7226562,7.3964844-15.8525391c0-6.5175781-2.9775391-12.5205059-8.1699219-16.4716778
			l0.34375-0.4511719c5.3339844,4.0585938,8.3925781,10.2275372,8.3925781,16.9228497
			C74.5068893,46.9019966,71.7373581,52.8385201,66.9092331,56.8902779z"/>
	</g>
	<g>
		<path class="st1" d="M53.2549362,54.2799263c-4.675293,0-8.9790039-2.3505859-11.5117188-6.2880859l0.4765625-0.3066406
			c2.4282227,3.7744141,6.5537109,6.0283203,11.0351562,6.0283203c7.2294922,0,13.1113281-5.8818359,13.1113281-13.1113281
			c0-2.8671875-0.9091797-5.5908203-2.6289062-7.8759766l0.453125-0.3417969
			c1.7939453,2.3847656,2.7421875,5.2265625,2.7421875,8.2177734
			C66.9326706,48.1441841,60.7969284,54.2799263,53.2549362,54.2799263z M40.1440964,40.6021919h-0.5673828
			c0-7.5419922,6.1362305-13.6777325,13.6782227-13.6777325v0.5664062
			C46.025444,27.4908657,40.1440964,33.3726997,40.1440964,40.6021919z"/>
	</g>
	<g>
		<path class="st1" d="M53.2549362,48.8004341c-4.5209961,0-8.1992188-3.6777344-8.1992188-8.1982422
			s3.6782227-8.1982422,8.1992188-8.1982422c4.5205078,0,8.1982422,3.6777344,8.1982422,8.1982422h-0.5664062
			c0-4.2080078-3.4238281-7.6318359-7.6318359-7.6318359s-7.6318359,3.4238281-7.6318359,7.6318359
			s3.4238281,7.6318359,7.6318359,7.6318359V48.8004341z"/>
	</g>
	<g>
		
			<rect x="27.8981323" y="48.6107445" transform="matrix(0.8533669 -0.5213108 0.5213108 0.8533669 -19.6536312 27.9166565)" class="st1" width="23.7995415" height="0.5678595"/>
	</g>
	<g>
		
			<rect x="53.8033905" y="32.3173714" transform="matrix(0.6158443 -0.7878678 0.7878678 0.6158443 -2.3935544 60.2934761)" class="st1" width="13.6560192" height="0.5676911"/>
	</g>
	<g>
		
			<rect x="63.05159" y="39.1336823" transform="matrix(0.6874692 -0.7262136 0.7262136 0.6874692 -16.2672043 61.5144043)" class="st1" width="0.5678222" height="21.0463982"/>
	</g>
	<g>
		<polygon class="st1" points="52.8438034,36.2164497 51.5527878,28.8971157 52.1113815,28.7994595 53.4023972,36.1187935 		"/>
	</g>
	<g>
		<path class="st1" d="M37.1206589,62.4215279c-2.6611328-1.9697266-4.9169922-4.3779297-6.7045898-7.1582031l0.4765625-0.3066406
			c1.7509766,2.7216797,3.9594727,5.0800781,6.5649414,7.0097656L37.1206589,62.4215279z M69.4902725,62.3473091
			l-0.3398285-0.453125c6.7832031-5.0732422,10.6738281-12.8339844,10.6738281-21.2919922
			c0-5.8134766-1.8417969-11.3330059-5.3261719-15.9609356l0.453125-0.3417969
			c3.5585938,4.7285156,5.4394531,10.3652325,5.4394531,16.3027325
			C80.3906784,49.2408638,76.4180222,57.1666451,69.4902725,62.3473091z M26.685112,40.6021919h-0.5673828
			c0-6.3603516,2.246582-12.54492,6.3256836-17.413084l0.4345703,0.3632812
			C28.8843307,28.3199673,26.685112,34.3746529,26.685112,40.6021919z M35.7471237,20.6178188l-0.3740234-0.4257812
			c0.9833984-0.8632812,2.0410156-1.6630859,3.1435547-2.3779297l0.3085938,0.4755859
			C37.7456589,18.9898891,36.7100143,19.7730923,35.7471237,20.6178188z"/>
	</g>
	<g>
		<path class="st1" d="M80.8076706,59.8697701l-0.4648438-0.3261719c3.8671875-5.5205078,5.9296875-12.0195312,5.9648438-18.7949219
			l0.5664062,0.0019531C86.8389206,47.642231,84.7412643,54.2535591,80.8076706,59.8697701z M20.2769089,40.6246529h-0.5673828
			c0.0019531-8.4814453,3.1523438-16.5654278,8.871582-22.7651348l0.4169922,0.3847656
			C23.3755417,24.338522,20.2783737,32.2867622,20.2769089,40.6246529z"/>
	</g>
	<g>
		
			<rect x="36.0960846" y="20.1252003" transform="matrix(0.3340325 -0.9425616 0.9425616 0.3340325 -5.9581814 55.6182938)" class="st1" width="0.5677012" height="23.8006668"/>
	</g>
	<g>
		
			<rect x="55.5203056" y="50.6063385" transform="matrix(0.9973619 -0.0725895 0.0725895 0.9973619 -3.8959014 4.1976671)" class="st1" width="0.5659413" height="10.1840935"/>
	</g>
	<g>
		
			<rect x="47.9962883" y="23.3264198" transform="matrix(0.9661607 -0.257941 0.257941 0.9661607 -4.720974 13.2870302)" class="st1" width="0.567097" height="2.6199059"/>
	</g>
</g>
</svg>
