<?xml version="1.0" encoding="utf-8"?>
<!-- Generator: Adobe Illustrator 22.0.1, SVG Export Plug-In . SVG Version: 6.00 Build 0)  -->
<svg version="1.1" id="Слой_1" xmlns="http://www.w3.org/2000/svg" xmlns:xlink="http://www.w3.org/1999/xlink" x="0px" y="0px"
	 viewBox="0 0 91.7709961 55.4267578" style="enable-background:new 0 0 91.7709961 55.4267578;" xml:space="preserve">
<style type="text/css">
	.st0{fill-rule:evenodd;clip-rule:evenodd;fill:#D67E33;}
	.st1{fill:#BC582C;}
</style>
<g>
	<g>
		<g>
			<path class="st0" d="M14.0598011,6.5424829c4.698082-3.1440005,10.3480492-4.9781985,16.4255962-4.9781985
				c16.3310623,0,29.5712433,13.240181,29.5712433,29.5711555c0,9.1513348-4.1580505,17.3315868-10.6870384,22.7558346
				c-5.1225548-4.2556915-11.7044754-6.8158722-18.8842049-6.8158722c-7.1796398,0-13.7615604,2.5601807-18.8841133,6.8158722
				C5.0722942,48.4670258,0.9142421,40.2867737,0.9142421,31.1354389c0-8.9294548,3.9587522-16.9348145,10.2161264-22.3569584
				L14.0598011,6.5424829z"/>
		</g>
		<g>
			<g>
				<path class="st1" d="M30.4848633,34.8662109c-2.0566406,0-3.7299805-1.6728516-3.7299805-3.7304688
					c0-2.0566406,1.6733398-3.7294922,3.7299805-3.7294922c2.0571289,0,3.7304688,1.6728516,3.7304688,3.7294922
					C34.215332,33.1933594,32.5419922,34.8662109,30.4848633,34.8662109z M30.4848633,27.9238281
					c-1.7709961,0-3.2114258,1.4414062-3.2114258,3.2119141c0,1.7714844,1.4404297,3.2128906,3.2114258,3.2128906
					s3.2119141-1.4414062,3.2119141-3.2128906C33.6967773,29.3652344,32.2558594,27.9238281,30.4848633,27.9238281z"/>
			</g>
			<g>
				<path class="st1" d="M30.4853516,41.7509766c-5.8535156,0-10.6162109-4.7617188-10.6162109-10.6152344
					s4.7626953-10.6152344,10.6162109-10.6152344v0.5175781c-5.5678711,0-10.0976562,4.5302734-10.0976562,10.0976562
					s4.5297852,10.0976562,10.0976562,10.0976562s10.097168-4.5302734,10.097168-10.0976562h0.5185547
					C41.1010742,36.9892578,36.3388672,41.7509766,30.4853516,41.7509766z"/>
			</g>
			<g>
				<path class="st1" d="M34.3701172,47.5732422l-0.1191406-0.5039062
					c7.4208984-1.7480469,12.6035156-8.2998047,12.6035156-15.9335938c0-4.375-1.7099609-8.4912109-4.8154297-11.5908203
					c-3.0883789-3.0820312-7.1787109-4.7792969-11.5195312-4.7792969c-0.0112305,0-0.0224609,0-0.0336914,0
					c-3.5585938,0.0078125-6.9438477,1.1445312-9.7905273,3.2880859l-0.3115234-0.4140625
					c2.9365234-2.2109375,6.4296875-3.3837891,10.1010742-3.3916016c0.0112305,0,0.0234375,0,0.034668,0
					c4.4794922,0,8.6987305,1.75,11.8857422,4.9306641c3.2036133,3.1962891,4.9677734,7.4433594,4.9677734,11.9570312
					C47.3730469,39.0107422,42.0258789,45.7705078,34.3701172,47.5732422z M20.3305664,44.6318359
					c-4.2416992-3.1914062-6.7587891-8.2373047-6.7333984-13.4970703c0.0170898-3.5869141,1.1420898-7.0136719,3.2543945-9.9101562
					l0.4189453,0.3046875c-2.0478516,2.8085938-3.1386719,6.1308594-3.1547852,9.6074219
					C14.0908203,36.234375,16.5307617,41.125,20.6420898,44.2177734L20.3305664,44.6318359z"/>
			</g>
			<g>
				<path class="st1" d="M16.6479492,50.640625C10.3383789,46.15625,6.5712891,38.8652344,6.5712891,31.1357422
					c0-13.1865234,10.7280273-23.9140625,23.9140625-23.9140625c6.4233398,0,12.4521484,2.5107422,16.9750786,7.0703125
					l-0.368145,0.3652344c-4.4248047-4.4609375-10.3227539-6.9179688-16.6069336-6.9179688
					c-12.9003906,0-23.3955078,10.4960938-23.3955078,23.3964844c0,7.5615234,3.6850586,14.6953125,9.8579102,19.0830078
					L16.6479492,50.640625z M44.3232422,50.640625l-0.2998047-0.421875
					c6.1723633-4.3876953,9.8579102-11.5214844,9.8579102-19.0830078c0-4.5957031-1.3320312-9.0429688-3.8496094-12.8613281
					l0.4326172-0.2851562c2.5742188,3.9023438,3.9345703,8.4482422,3.9345703,13.1464844
					C54.3989258,38.8642578,50.6323242,46.15625,44.3232422,50.640625z"/>
			</g>
			<g>
				<path class="st1" d="M11.6010742,54.8056641c-0.2075195,0-0.4150391-0.0703125-0.5844727-0.2109375
					C4.0151367,48.7773438,0,40.2265625,0,31.1357422c0-8.8476562,3.8383789-17.2490234,10.5317383-23.0488281
					c0.3828125-0.3300781,0.9604492-0.2890625,1.2895508,0.0927734c0.3305664,0.3818359,0.2895508,0.9589844-0.0922852,1.2900391
					C5.4370117,14.9208984,1.828125,22.8183594,1.828125,31.1357422c0,8.296875,3.5581055,16.1142578,9.7880859,21.5673828
					c5.3569336-4.2236328,12.0273438-6.5419922,18.8691406-6.5419922s13.512207,2.3183594,18.8686523,6.5419922
					c6.2304688-5.453125,9.7890625-13.2705078,9.7890625-21.5673828c0-15.8017578-12.855957-28.6572266-28.6577148-28.6572266
					c-5.6977539,0-11.2021484,1.6679688-15.9174805,4.8242188c-0.4179688,0.2802734-0.9873047,0.1689453-1.2680664-0.2509766
					s-0.168457-0.9873047,0.2514648-1.2685547c5.0170898-3.3583984,10.8725586-5.1328125,16.934082-5.1328125
					c16.8100586,0,30.4858398,13.6757812,30.4858398,30.4853516c0,9.0908203-4.015625,17.6416016-11.0175781,23.4589844
					c-0.3378906,0.28125-0.8300781,0.28125-1.1679688,0c-5.1274414-4.2597656-11.6264648-6.6054688-18.300293-6.6054688
					S17.3125,50.3349609,12.1855469,54.5947266C12.0161133,54.7353516,11.8085938,54.8056641,11.6010742,54.8056641z"/>
			</g>
		</g>
	</g>
	<g>
		<polygon points="91.7709961,55.4267578 61.3803711,55.4267578 6.3071289,0.3535156 6.6606445,0 61.5874023,54.9267578 
			91.7709961,54.9267578 		"/>
	</g>
	<g>
		<path d="M69.8383789,50.2050781c-2.6328125,0-4.7753906-2.1425781-4.7753906-4.7753906s2.1425781-4.7753906,4.7753906-4.7753906
			s4.7753906,2.1425781,4.7753906,4.7753906S72.4711914,50.2050781,69.8383789,50.2050781z M69.8383789,41.1542969
			c-2.3574219,0-4.2753906,1.9179688-4.2753906,4.2753906s1.9179688,4.2753906,4.2753906,4.2753906
			s4.2753906-1.9179688,4.2753906-4.2753906S72.1958008,41.1542969,69.8383789,41.1542969z"/>
	</g>
	<g>
		
			<rect x="61.9618034" y="45.1802025" transform="matrix(0.7071068 -0.7071068 0.7071068 0.7071068 -11.6687975 62.6893806)" width="15.7531509" height="0.4999466"/>
	</g>
	<g>
		<path d="M81.0317383,48.84375v-0.5400391l0.6894531-0.6689453c1.6591797-1.5791016,2.4179688-2.4189453,2.4179688-3.3984375
			c0-0.6601562-0.3095703-1.2695312-1.2792969-1.2695312c-0.5888672,0-1.0791016,0.2998047-1.3789062,0.5498047
			l-0.2792969-0.6191406c0.4394531-0.3701172,1.0888672-0.6601562,1.828125-0.6601562
			c1.3994141,0,1.9892578,0.9599609,1.9892578,1.8886719c0,1.1992188-0.8691406,2.1689453-2.2382812,3.4882812L82.2709961,48.09375
			v0.0205078h2.9082031V48.84375H81.0317383z"/>
		<path d="M90.4887695,45.5253906c0,2.2089844-0.8291016,3.4287109-2.2587891,3.4287109
			c-1.2695541,0-2.1386719-1.1894531-2.1591797-3.3388672c0-2.1884766,0.9501953-3.3779297,2.2695312-3.3779297
			C89.699707,42.2373047,90.4887695,43.4570312,90.4887695,45.5253906z M86.9604263,45.6259766
			c0,1.6884766,0.5195541,2.6484375,1.3193588,2.6484375c0.8896484,0,1.3193359-1.0498047,1.3193359-2.7089844
			c0-1.5986328-0.3994141-2.6484375-1.3193359-2.6484375C87.5200195,42.9169922,86.9604263,43.8564453,86.9604263,45.6259766z"/>
	</g>
</g>
</svg>
