<?xml version="1.0" encoding="utf-8"?>
<!-- Generator: Adobe Illustrator 22.0.1, SVG Export Plug-In . SVG Version: 6.00 Build 0)  -->
<svg version="1.1" id="Слой_1" xmlns="http://www.w3.org/2000/svg" xmlns:xlink="http://www.w3.org/1999/xlink" x="0px" y="0px"
	 viewBox="0 0 91.7705078 55.4267578" style="enable-background:new 0 0 91.7705078 55.4267578;" xml:space="preserve">
<style type="text/css">
	.st0{fill-rule:evenodd;clip-rule:evenodd;fill:#D67E33;}
	.st1{fill:#BC582C;}
</style>
<g>
	<g>
		<g>
			<g>
				<path class="st0" d="M14.0596218,6.5424829c4.698082-3.1440005,10.3480473-4.9781985,16.4255943-4.9781985
					c16.3310642,0,29.5712452,13.240181,29.5712452,29.5711555c0,9.1513348-4.1580505,17.3315868-10.6870384,22.7558346
					c-5.1225548-4.2556915-11.7044754-6.8158722-18.8842068-6.8158722c-7.1796379,0-13.7615585,2.5601807-18.8841133,6.8158722
					C5.0721145,48.4670258,0.9140625,40.2867737,0.9140625,31.1354389c0-8.9294548,3.9587522-16.9348145,10.2161264-22.3569584
					L14.0596218,6.5424829z"/>
			</g>
		</g>
		<g>
			<g>
				<g>
					<path class="st1" d="M30.484375,34.8662109c-2.0566406,0-3.7294922-1.6728516-3.7294922-3.7304688
						c0-2.0566406,1.6728516-3.7294922,3.7294922-3.7294922c2.0576172,0,3.7304688,1.6728516,3.7304688,3.7294922
						C34.2148438,33.1933594,32.5419922,34.8662109,30.484375,34.8662109z M30.484375,27.9238281
						c-1.7705078,0-3.2119141,1.4414062-3.2119141,3.2119141c0,1.7714844,1.4414062,3.2128906,3.2119141,3.2128906
						c1.7714844,0,3.2128906-1.4414062,3.2128906-3.2128906C33.6972656,29.3652344,32.2558594,27.9238281,30.484375,27.9238281z"/>
				</g>
			</g>
			<g>
				<g>
					<path class="st1" d="M30.4853516,41.7509766c-5.8535156,0-10.6162109-4.7617188-10.6162109-10.6152344
						s4.7626953-10.6152344,10.6162109-10.6152344v0.5175781c-5.5683594,0-10.0986328,4.5302734-10.0986328,10.0976562
						s4.5302734,10.0976562,10.0986328,10.0976562c5.5673828,0,10.0976562-4.5302734,10.0976562-10.0976562h0.5175781
						C41.1005859,36.9892578,36.3388672,41.7509766,30.4853516,41.7509766z"/>
				</g>
			</g>
			<g>
				<g>
					<path class="st1" d="M34.3701172,47.5732422l-0.1191406-0.5039062
						c7.4208984-1.7480469,12.6035156-8.2998047,12.6035156-15.9335938c0-4.375-1.7109375-8.4921875-4.8154297-11.5908203
						c-3.0888672-3.0820312-7.1787109-4.7792969-11.5195312-4.7792969c-0.0117188,0-0.0224609,0-0.0332031,0
						c-3.5595703,0.0078125-6.9453125,1.1445312-9.7910156,3.2880859l-0.3125-0.4140625
						c2.9375-2.2109375,6.4306641-3.3837891,10.1015625-3.3916016c0.0117188,0,0.0234375,0,0.0351562,0
						c4.4794922,0,8.6982422,1.75,11.8857422,4.9296875c3.203125,3.1972656,4.9667969,7.4443359,4.9667969,11.9580078
						C47.3720703,39.0107422,42.0253906,45.7705078,34.3701172,47.5732422z M20.3300781,44.6318359
						c-4.2412109-3.1904297-6.7587891-8.2363281-6.7324219-13.4970703c0.0166016-3.5878906,1.1425781-7.0146484,3.2548828-9.9101562
						l0.4179688,0.3046875c-2.046875,2.8076172-3.1376953,6.1298828-3.1552734,9.6074219
						c-0.0244141,5.0986328,2.4150391,9.9882812,6.5273438,13.0810547L20.3300781,44.6318359z"/>
				</g>
			</g>
			<g>
				<g>
					<path class="st1" d="M44.3232422,50.640625l-0.3007812-0.421875
						c6.1728516-4.3867188,9.8583984-11.5205078,9.8583984-19.0830078c0-4.5957031-1.3310547-9.0429688-3.8496094-12.8613281
						l0.4335938-0.2851562c2.5732422,3.9033203,3.9335938,8.4492188,3.9335938,13.1464844
						C54.3984375,38.8652344,50.6318359,46.1572266,44.3232422,50.640625z M16.6474609,50.640625
						C10.3378906,46.15625,6.5712891,38.8652344,6.5712891,31.1357422c0-13.1865234,10.7275391-23.9140625,23.9140625-23.9140625
						c6.4228516,0,12.4511719,2.5107422,16.9746094,7.0703125l-0.3671875,0.3652344
						c-4.4257812-4.4609375-10.3232422-6.9179688-16.6074219-6.9179688c-12.9003906,0-23.3964844,10.4960938-23.3964844,23.3964844
						c0,7.5615234,3.6855469,14.6953125,9.859375,19.0830078L16.6474609,50.640625z"/>
				</g>
			</g>
			<g>
				<g>
					<path class="st1" d="M49.3691406,54.8056641c-0.2070312,0-0.4150391-0.0703125-0.5839844-0.2109375
						c-5.1269531-4.2597656-11.6259766-6.6054688-18.2998047-6.6054688S17.3125,50.3349609,12.1855469,54.5947266
						c-0.3378906,0.28125-0.8300781,0.28125-1.1679688,0C4.015625,48.7773438,0,40.2265625,0,31.1357422
						c0-8.8476562,3.8378906-17.2490234,10.53125-23.0488281c0.3808594-0.328125,0.9570312-0.2900391,1.2900391,0.0927734
						c0.3300781,0.3818359,0.2890625,0.9589844-0.0927734,1.2900391C5.4365234,14.921875,1.828125,22.8183594,1.828125,31.1357422
						c0,8.296875,3.5585938,16.1142578,9.7890625,21.5673828c5.3564453-4.2236328,12.0263672-6.5419922,18.8681641-6.5419922
						s13.5117188,2.3183594,18.8681641,6.5419922c6.2304688-5.453125,9.7890625-13.2705078,9.7890625-21.5673828
						c0-15.8017578-12.8554688-28.6572266-28.6572266-28.6572266c-5.6982422,0-11.2021484,1.6679688-15.9169922,4.8242188
						c-0.4199219,0.2802734-0.9873047,0.1689453-1.2685547-0.2509766s-0.1679688-0.9873047,0.2509766-1.2685547
						c5.0175781-3.3583984,10.8730469-5.1328125,16.9345703-5.1328125c16.8095703,0,30.4853516,13.6757812,30.4853516,30.4853516
						c0,9.0908203-4.015625,17.6416016-11.0175781,23.4589844C49.7841797,54.7353516,49.5761719,54.8056641,49.3691406,54.8056641z"
						/>
				</g>
			</g>
		</g>
	</g>
	<g>
		<g>
			<polygon points="91.7705078,55.4267578 61.3798828,55.4267578 6.3066406,0.3535156 6.6601562,0 61.5869141,54.9267578 
				91.7705078,54.9267578 			"/>
		</g>
	</g>
	<g>
		<g>
			<path d="M69.8378906,50.2050781c-2.6328125,0-4.7753906-2.1425781-4.7753906-4.7753906s2.1425781-4.7753906,4.7753906-4.7753906
				s4.7753906,2.1425781,4.7753906,4.7753906S72.4707031,50.2050781,69.8378906,50.2050781z M69.8378906,41.1542969
				c-2.3574219,0-4.2753906,1.9179688-4.2753906,4.2753906s1.9179688,4.2753906,4.2753906,4.2753906
				s4.2753906-1.9179688,4.2753906-4.2753906S72.1953125,41.1542969,69.8378906,41.1542969z"/>
		</g>
	</g>
	<g>
		<g>
			
				<rect x="61.9614563" y="45.1802025" transform="matrix(0.7071068 -0.7071068 0.7071068 0.7071068 -11.6687975 62.6893806)" width="15.7538424" height="0.4999466"/>
		</g>
	</g>
	<g>
		<g>
			<path d="M81.2402344,47.8447266c0.25,0.1494141,0.8203125,0.3994141,1.4394531,0.3994141
				c1.1191406,0,1.4794922-0.7099609,1.4697266-1.2597656c-0.0107422-0.9091797-0.8300781-1.2988281-1.6796875-1.2988281h-0.4892578
				v-0.6601562h0.4892578c0.6396484,0,1.4492188-0.3291016,1.4492188-1.0986328
				c0-0.5195312-0.3291016-0.9794922-1.1386719-0.9794922c-0.5205078,0-1.0195312,0.2294922-1.2998047,0.4296875
				l-0.2402344-0.6396484c0.3505859-0.25,1.0097656-0.5,1.7099609-0.5c1.2792969,0,1.8583984,0.7597656,1.8583984,1.5488281
				c0,0.6796875-0.4091797,1.25-1.1992188,1.5390625v0.0205078c0.7998047,0.1494141,1.4394531,0.75,1.4492188,1.6591797
				c0,1.0390625-0.8193359,1.9492188-2.3691406,1.9492188c-0.7294922,0-1.3691406-0.2304688-1.6884766-0.4404297
				L81.2402344,47.8447266z"/>
		</g>
		<g>
			<path d="M90.4882812,45.5253906c0,2.2089844-0.8291016,3.4287109-2.2587891,3.4287109
				c-1.2695312,0-2.1386719-1.1894531-2.1591797-3.3388672c0-2.1884766,0.9501953-3.3779297,2.2695312-3.3779297
				C89.6992188,42.2373047,90.4882812,43.4570312,90.4882812,45.5253906z M86.9599609,45.6259766
				c0,1.6884766,0.5195312,2.6484375,1.3193359,2.6484375c0.8896484,0,1.3193359-1.0498047,1.3193359-2.7089844
				c0-1.5986328-0.3994141-2.6484375-1.3193359-2.6484375C87.5195312,42.9169922,86.9599609,43.8564453,86.9599609,45.6259766z"/>
		</g>
	</g>
</g>
</svg>
