<?xml version="1.0" encoding="utf-8"?>
<!-- Generator: Adobe Illustrator 22.0.1, SVG Export Plug-In . SVG Version: 6.00 Build 0)  -->
<svg version="1.1" id="_x31_" xmlns="http://www.w3.org/2000/svg" xmlns:xlink="http://www.w3.org/1999/xlink" x="0px" y="0px"
	 viewBox="0 0 110.8 110.8" style="enable-background:new 0 0 110.8 110.8;" xml:space="preserve">
<style type="text/css">
	.st0{fill-rule:evenodd;clip-rule:evenodd;fill:#E5E9D0;}
	
		.st1{fill-rule:evenodd;clip-rule:evenodd;fill:#E5E9D0;stroke:#464831;stroke-width:2.206;stroke-linecap:round;stroke-linejoin:round;stroke-miterlimit:22.9256;}
	
		.st2{fill-rule:evenodd;clip-rule:evenodd;fill:none;stroke:#464831;stroke-width:2.206;stroke-linecap:round;stroke-linejoin:round;stroke-miterlimit:22.9256;}
</style>
<path class="st0" d="M55.4,110.8c30.5,0,55.4-24.9,55.4-55.4C110.8,24.9,85.9,0,55.4,0C24.9,0,0,24.9,0,55.4
	C0,85.9,24.9,110.8,55.4,110.8z"/>
<g>
	<g>
		<path class="st1" d="M62.7,36.5h0.9l1.8,6h3.9l1.8-6H72h2.3h0.9l1.8,6h3l1.8-6h0.9h2.3h0.9l1.8,6h0l2.9,3v34.8v6.1v3.2l-3.1,3
			l-1.8-6.2h-3l-1.9,6.3h-0.9h-2.3h-0.9l-1.9-6.3h-3.1l-1.9,6.3h-0.9h-2.3h-0.9l-1.9-6.3h-3.6l-1.9,6.3h-0.9h-2.3h-0.9l-1.9-6.3
			h-4.1l-1.9,6.3h-0.9h-2.3h-0.9l-1.9-6.3h-3.6L35,92.6l-3.1-3v-3.2v-6.1v-13c2.8,1.1,5.8,1.8,9,1.8c13,0,23.6-10.6,23.6-23.6
			C64.4,42.3,63.8,39.3,62.7,36.5z"/>
		<path class="st2" d="M76.7,44.2c6.2,4.7,10.1,12.1,10.1,20.4c0,7.9-3.6,15-9.2,19.7 M45.8,85.1c-5.2-3.9-8.9-9.8-9.9-16.6"/>
		<path class="st2" d="M74.8,54.4c2.1,2.8,3.4,6.4,3.4,10.2c0,9.4-7.6,17-17,17c-6,0-11.3-3.1-14.3-7.8"/>
		<path class="st2" d="M61.2,73.8c-4.5,0-8.3-3.3-9.1-7.6 M62.2,55.5c4.6,0.5,8.2,4.4,8.2,9.1"/>
		<line class="st2" x1="33.8" y1="81.5" x2="57.4" y2="67"/>
		<line class="st2" x1="64.9" y1="61.6" x2="74.7" y2="49.1"/>
		<line class="st2" x1="64" y1="66.7" x2="81.8" y2="83.5"/>
		<line class="st2" x1="60.8" y1="58.1" x2="61.1" y2="59.5"/>
	</g>
	<g>
		<path class="st2" d="M67.2,8.3c-0.8,4.5-4.2,7.9-0.5,12.3c2.4,2.9,4.5,6.4,1.9,10.9"/>
		<polyline class="st2" points="62.9,9.9 67.2,8.3 70.1,12.1 		"/>
	</g>
	<path class="st2" d="M40.9,69.1c13,0,23.6-10.6,23.6-23.6c0-13-10.6-23.6-23.6-23.6S17.3,32.5,17.3,45.5
		C17.3,58.5,27.9,69.1,40.9,69.1z"/>
	<path class="st2" d="M22.1,48.5c4.3,4.3,8.4,8.5,12.7,12.8l0.1-0.1l0,0.1c7.8-7.8,15.5-15.6,23.4-23.5l-6.2-6.2L34.8,48.9l-6.5-6.5
		L22.1,48.5z"/>
	<g>
		<path class="st2" d="M81,14.3c-0.8,4.5-4.2,7.9-0.5,12.3c1.1,1.3,2.1,2.7,2.7,4.3"/>
		<polyline class="st2" points="76.6,15.9 81,14.3 83.9,18.1 		"/>
	</g>
</g>
</svg>
