<?xml version="1.0" encoding="utf-8"?>
<!-- Generator: Adobe Illustrator 22.0.1, SVG Export Plug-In . SVG Version: 6.00 Build 0)  -->
<svg version="1.1" id="_x31_" xmlns="http://www.w3.org/2000/svg" xmlns:xlink="http://www.w3.org/1999/xlink" x="0px" y="0px"
	 viewBox="0 0 110.8 110.8" style="enable-background:new 0 0 110.8 110.8;" xml:space="preserve">
<style type="text/css">
	.st0{fill-rule:evenodd;clip-rule:evenodd;fill:#E5E9D0;}
	
		.st1{fill-rule:evenodd;clip-rule:evenodd;fill:none;stroke:#464831;stroke-width:2.206;stroke-linecap:round;stroke-linejoin:round;stroke-miterlimit:22.9256;}
</style>
<path class="st0" d="M55.4,110.8c30.5,0,55.4-24.9,55.4-55.4C110.8,24.9,85.9,0,55.4,0S0,24.9,0,55.4C0,85.9,24.9,110.8,55.4,110.8z
	"/>
<path class="st1" d="M29.1,36.6l15.2,8.9c3.1-5.3,6.2-10.7,9.3-16c-2-4.3-3.5-7.8-6.3-9c-3.6-1.6-7.6-0.5-9.8,2.3L29.1,36.6
	L29.1,36.6z M53.8,86.9l-0.2-17.6c-6.2,0.1-12.3,0.2-18.5,0.3c-2.7,3.9-4.8,7-4.5,10c0.5,3.9,3.5,6.8,7,7.3L53.8,86.9L53.8,86.9z
	 M38.4,57.8c-3.3,4.9-6.7,9.8-8.9,15.3c-0.8,1.9-1.4,4.1-0.7,5.4c1.3,2.4-6.6-10.8-10-16.1c0,0-1.6-3,0.2-5.5c0.2-0.3,2.8-5,4.1-7.4
	l-5.2-2.8l16.7-0.4l9,14.3L38.4,57.8L38.4,57.8z M83.3,39.5l-14.6,9.9c3.5,5.1,7,10.2,10.5,15.3c4.7,0.1,8.5,0.1,10.8-1.8
	c3-2.5,3.7-6.7,2.2-9.9L83.3,39.5L83.3,39.5z M67.7,68.4c5.9,0,11.9,0.1,17.7-1.1c2.1-0.4,4.2-1.1,4.9-2.4
	c1.3-2.4-5.3,11.5-7.9,17.2c0,0-1.6,3-4.7,2.9c-0.4,0-5.7,0.4-8.4,0.7l0.6,5.9L60.2,78l6.9-15.4L67.7,68.4L67.7,68.4z M61.9,38.3
	c-2.5-5.3-5-10.8-8.5-15.5c-1.3-1.7-2.8-3.3-4.3-3.4c-2.7-0.1,12.6-0.2,19-0.3c0,0,3.4,0.2,4.6,3c0.1,0.3,2.8,4.9,4.2,7.3l5.1-3
	L73.8,41l-16.9,0.4L61.9,38.3z"/>
</svg>
