<?xml version="1.0" encoding="utf-8"?>
<!-- Generator: Adobe Illustrator 22.0.1, SVG Export Plug-In . SVG Version: 6.00 Build 0)  -->
<svg version="1.1" id="_x31_" xmlns="http://www.w3.org/2000/svg" xmlns:xlink="http://www.w3.org/1999/xlink" x="0px" y="0px"
	 viewBox="0 0 110.8 110.8" style="enable-background:new 0 0 110.8 110.8;" xml:space="preserve">
<style type="text/css">
	.st0{fill-rule:evenodd;clip-rule:evenodd;fill:#E5E9D0;}
	
		.st1{fill-rule:evenodd;clip-rule:evenodd;fill:none;stroke:#464831;stroke-width:2.206;stroke-linecap:round;stroke-linejoin:round;stroke-miterlimit:22.9256;}
</style>
<path class="st0" d="M51.8,110.7c33.4,2.2,61.1-25.6,58.9-58.9C108.9,24.2,86.6,1.9,59.1,0.1C25.7-2-2,25.7,0.1,59.1
	C1.9,86.6,24.2,108.9,51.8,110.7z"/>
<g>
	<path class="st1" d="M37.1,92.7c15.4,2,28.4-11.1,26.5-26.5c-1.3-10.5-9.8-19-20.3-20.3c-15.4-2-28.4,11.1-26.5,26.5
		C18.2,82.9,26.6,91.3,37.1,92.7z"/>
	<path class="st1" d="M21.4,72.3c4.3,4.3,8.4,8.5,12.7,12.8l0.1-0.1l0,0.1c7.8-7.8,15.5-15.6,23.4-23.5l-6.2-6.2L34.2,72.7l-6.5-6.5
		L21.4,72.3z"/>
	<g>
		<path class="st1" d="M38.8,42.6h10.9v5.1c-2.9-1.3-6.1-2-9.5-2c-6.8,0-13,2.9-17.3,7.6c-1-2.1-1.5-4.6-1.6-7.5l0-13.6h17.5V42.6
			L38.8,42.6z M66.4,42.6h13.4c7.7,0,14.3,6.6,14.3,14.3v13.5H76.7V60.1l-10.3,0V42.6z"/>
		<path class="st1" d="M49.7,45.8h16.7V57h-6.1c-2.5-4.1-6.2-7.3-10.6-9.2V45.8L49.7,45.8z M91.1,70.5v14.2H79.9V70.5H91.1
			L91.1,70.5z M24.5,32.2V18h11.2v14.3H24.5z"/>
	</g>
</g>
</svg>
