<?xml version="1.0" encoding="utf-8"?>
<!-- Generator: Adobe Illustrator 22.0.1, SVG Export Plug-In . SVG Version: 6.00 Build 0)  -->
<svg version="1.1" id="_x31_" xmlns="http://www.w3.org/2000/svg" xmlns:xlink="http://www.w3.org/1999/xlink" x="0px" y="0px"
	 viewBox="0 0 110.8 110.8" style="enable-background:new 0 0 110.8 110.8;" xml:space="preserve">
<style type="text/css">
	.st0{fill-rule:evenodd;clip-rule:evenodd;fill:#E5E9D0;}
	
		.st1{fill-rule:evenodd;clip-rule:evenodd;fill:none;stroke:#464831;stroke-width:2.206;stroke-linecap:round;stroke-linejoin:round;stroke-miterlimit:22.9256;}
</style>
<path class="st0" d="M55.4,110.8c30.5,0,55.4-24.9,55.4-55.4S85.9,0,55.4,0C24.9,0,0,24.9,0,55.4S24.9,110.8,55.4,110.8z"/>
<g>
	<g>
		<path class="st1" d="M27.3,89.7V47l28.2-28.2L83.6,47v11.7c-4.1-3.3-9.2-5.3-14.9-5.3c-13,0-23.6,10.6-23.6,23.6
			c0,4.7,1.4,9,3.7,12.7H27.3z"/>
		<g>
			<line class="st1" x1="27.4" y1="83.9" x2="46.2" y2="83.9"/>
			<line class="st1" x1="27.4" y1="78" x2="45.2" y2="78"/>
			<line class="st1" x1="27.4" y1="72.1" x2="45.7" y2="72.1"/>
			<line class="st1" x1="27.4" y1="66.2" x2="47.8" y2="66.2"/>
			<line class="st1" x1="27.4" y1="60.3" x2="52.1" y2="60.3"/>
			<path class="st1" d="M27.4,54.4h34.8 M75.2,54.4h8.2"/>
			<line class="st1" x1="27.4" y1="48.4" x2="83.4" y2="48.4"/>
			<line class="st1" x1="31.8" y1="42.5" x2="79.1" y2="42.5"/>
			<line class="st1" x1="37.7" y1="36.6" x2="73.2" y2="36.6"/>
			<line class="st1" x1="43.6" y1="30.7" x2="67.3" y2="30.7"/>
			<line class="st1" x1="49.5" y1="24.8" x2="61.4" y2="24.8"/>
		</g>
		<path class="st1" d="M21.5,52.8c-1.2,1.2-3.1,1.2-4.3,0c-1.2-1.2-1.2-3.1,0-4.3l38.2-38.2l38.2,38.2c1.2,1.2,1.2,3.1,0,4.3
			c-1.2,1.2-3.1,1.2-4.3,0L55.4,18.9L21.5,52.8z"/>
	</g>
	<g>
		<path class="st1" d="M68.7,100.6c13,0,23.6-10.6,23.6-23.6S81.7,53.5,68.7,53.5S45.1,64,45.1,77S55.7,100.6,68.7,100.6z"/>
		<path class="st1" d="M49.9,80.1c4.3,4.3,8.4,8.5,12.7,12.8l0.1-0.1l0,0.1c7.8-7.8,15.5-15.6,23.4-23.5l-6.2-6.2L62.7,80.4
			l-6.5-6.5L49.9,80.1z"/>
	</g>
</g>
</svg>
