<?xml version="1.0" encoding="utf-8"?>
<!-- Generator: Adobe Illustrator 22.0.1, SVG Export Plug-In . SVG Version: 6.00 Build 0)  -->
<svg version="1.1" id="_x31_" xmlns="http://www.w3.org/2000/svg" xmlns:xlink="http://www.w3.org/1999/xlink" x="0px" y="0px"
	 viewBox="0 0 110.8 110.8" style="enable-background:new 0 0 110.8 110.8;" xml:space="preserve">
<style type="text/css">
	.st0{fill-rule:evenodd;clip-rule:evenodd;fill:#E5E9D0;}
	
		.st1{fill-rule:evenodd;clip-rule:evenodd;fill:none;stroke:#464831;stroke-width:2.206;stroke-linecap:round;stroke-linejoin:round;stroke-miterlimit:22.9256;}
</style>
<path class="st0" d="M55.4,110.8c30.5,0,55.4-24.9,55.4-55.4S85.9,0,55.4,0S0,24.9,0,55.4S24.9,110.8,55.4,110.8z"/>
<g>
	<g>
		<path class="st1" d="M63.8,43.6h6.8c1.8,0,3.2,1.4,3.2,3.2v24c0,1.8-1.4,3.2-3.2,3.2H26.7c-1.8,0-3.2-1.4-3.2-3.2v-9.9
			c4.3,4.3,10.2,6.9,16.7,6.9c13,0,23.6-10.6,23.6-23.6L63.8,43.6z"/>
		<path class="st1" d="M73.8,52H79l15.2,15.9v11.3c0,1.8-1.5,3.2-3.2,3.2h-6c-0.7-2.8-3.2-4.9-6.2-4.9c-3,0-5.5,2.1-6.2,4.9H51.9
			c-0.7-2.8-3.2-4.9-6.2-4.9c-3,0-5.5,2.1-6.2,4.9h-6c-1.8,0-3.2-1.5-3.2-3.2V74h40.3c1.8,0,3.2-1.5,3.2-3.2V52z"/>
		<path class="st1" d="M76.7,54.9v15.9c0,0.5-0.1,0.9-0.2,1.4h14.8V69L77.8,54.9H76.7z"/>
		<g>
			<path class="st1" d="M45.7,77.5c3.5,0,6.4,2.9,6.4,6.4c0,3.5-2.9,6.4-6.4,6.4c-3.5,0-6.4-2.9-6.4-6.4
				C39.4,80.3,42.2,77.5,45.7,77.5z"/>
			<path class="st1" d="M78.8,77.5c3.5,0,6.4,2.9,6.4,6.4c0,3.5-2.9,6.4-6.4,6.4c-3.5,0-6.4-2.9-6.4-6.4
				C72.4,80.3,75.3,77.5,78.8,77.5z"/>
		</g>
	</g>
	<g>
		<path class="st1" d="M40.2,67.8c13,0,23.6-10.6,23.6-23.6S53.2,20.6,40.2,20.6S16.6,31.2,16.6,44.2S27.2,67.8,40.2,67.8z"/>
		<path class="st1" d="M21.4,47.2c4.3,4.3,8.4,8.5,12.7,12.8l0.1-0.1l0,0.1c7.8-7.8,15.5-15.6,23.4-23.5l-6.2-6.2L34.1,47.6
			l-6.5-6.5L21.4,47.2z"/>
	</g>
</g>
</svg>
