<?xml version="1.0" encoding="utf-8"?>
<!-- Generator: Adobe Illustrator 22.0.1, SVG Export Plug-In . SVG Version: 6.00 Build 0)  -->
<svg version="1.1" id="_x31_" xmlns="http://www.w3.org/2000/svg" xmlns:xlink="http://www.w3.org/1999/xlink" x="0px" y="0px"
	 viewBox="0 0 110.8 110.8" style="enable-background:new 0 0 110.8 110.8;" xml:space="preserve">
<style type="text/css">
	.st0{fill-rule:evenodd;clip-rule:evenodd;fill:#E5E9D0;}
	
		.st1{fill-rule:evenodd;clip-rule:evenodd;fill:none;stroke:#464831;stroke-width:2.206;stroke-linecap:round;stroke-linejoin:round;stroke-miterlimit:22.9256;}
</style>
<path class="st0" d="M55.4,110.8c30.5,0,55.4-24.9,55.4-55.4S85.9,0,55.4,0S0,24.9,0,55.4S24.9,110.8,55.4,110.8z"/>
<g>
	<polygon class="st1" points="40.6,80.4 28.1,92.4 26.2,80.8 14.7,78.4 26.9,66.7 30.4,69 31.6,75.9 38.6,77.1 	"/>
	<polygon class="st1" points="70.2,80.4 82.7,92.4 84.6,80.8 96.1,78.4 84,66.7 80.4,69 79.2,75.9 72.3,77.1 	"/>
	<polygon class="st1" points="55.4,18.5 61.5,22.6 68.5,21.1 72.3,27.1 79.2,28.3 80.4,35.3 86.4,39 84.9,46 89.1,52.1 84.9,58.2 
		86.4,65.2 80.4,69 79.2,75.9 72.3,77.1 68.5,83.1 61.5,81.6 55.4,85.8 49.3,81.6 42.3,83.1 38.6,77.1 31.6,75.9 30.4,69 24.4,65.2 
		25.9,58.2 21.8,52.1 25.9,46 24.4,39 30.4,35.3 31.6,28.3 38.6,27.1 42.3,21.1 49.3,22.6 	"/>
	<path class="st1" d="M55.4,75.7c13,0,23.6-10.6,23.6-23.6S68.4,28.5,55.4,28.5S31.8,39.1,31.8,52.1S42.4,75.7,55.4,75.7z"/>
	<path class="st1" d="M36.6,55.2c4.3,4.3,8.4,8.5,12.7,12.8l0.1-0.1l0,0.1c7.8-7.8,15.5-15.6,23.4-23.5l-6.2-6.2L49.4,55.5L42.8,49
		L36.6,55.2z"/>
</g>
</svg>
