<?xml version="1.0" encoding="utf-8"?>
<!-- Generator: Adobe Illustrator 22.0.1, SVG Export Plug-In . SVG Version: 6.00 Build 0)  -->
<svg version="1.1" id="Слой_1" xmlns="http://www.w3.org/2000/svg" xmlns:xlink="http://www.w3.org/1999/xlink" x="0px" y="0px"
	 viewBox="0 0 38 37.9994392" style="enable-background:new 0 0 38 37.9994392;" xml:space="preserve">
<style type="text/css">
	.st0{fill-rule:evenodd;clip-rule:evenodd;fill:#D7DDC3;}
	.st1{fill-rule:evenodd;clip-rule:evenodd;fill:#3E4530;}
</style>
<g>
	<path class="st0" d="M17.7512264,37.9591522c11.4427128,0.7378998,20.9454556-8.761776,20.2086124-20.2046413
		c-0.6099014-9.4611826-8.2507-17.1030483-17.7123394-17.7141705C8.8040228-0.6981708-0.6974837,8.8044052,0.0402631,20.2480335
		C0.6512336,29.7084541,8.2908077,37.3492508,17.7512264,37.9591522z"/>
	<path class="st1" d="M12.7822037,31.3835812c0.676815,0.0866051,1.3444405,0.083704,1.983058,0.0033607
		c1.7258387-0.2207127,3.2807589-1.0210838,4.4539747-2.1946049c1.1747437-1.1747437,1.9761963-2.7293587,2.1946182-4.4562664
		c0.081398-0.6386166,0.0836906-1.3051853-0.0018463-1.9833622c-0.2173519-1.7123985-1.0180283-3.2596817-2.187273-4.4304523
		c-1.1726055-1.1713829-2.7201939-1.970686-4.4336605-2.190176c-0.6767902-0.085537-1.3423023-0.083704-1.9812126-0.0022926
		c-1.7258501,0.2207146-3.2804642,1.0210857-4.4562769,2.1958275c-1.1732163,1.1742859-1.9751148,2.7292061-2.1943007,4.4561138
		c-0.0814118,0.6386166-0.08355,1.3051853,0.001833,1.983057c0.2196441,1.7127037,1.0192513,3.2622776,2.1895657,4.4304523
		C9.519928,30.366621,11.068738,31.1662292,12.7822037,31.3835812L12.7822037,31.3835812z M14.8651552,32.1686783
		c-0.7036858,0.0898132-1.4382124,0.0916443-2.1829977-0.002903c-1.8884974-0.241333-3.5957136-1.1202126-4.8857775-2.4108887
		c-1.2943411-1.2943401-2.1738329-2.9992542-2.4169989-4.8908176c-0.0937843-0.744009-0.0919514-1.478548-0.0022912-2.1822338
		c0.2431779-1.9060745,1.1243382-3.6187782,2.4192901-4.9138832c1.294035-1.2938824,3.0085707-2.1756649,4.9134245-2.4199009
		c0.7036848-0.0898123,1.4363909-0.0919504,2.1811638,0.002902c1.8908005,0.2420979,3.5980053,1.1209784,4.8899021,2.4140978
		c1.2899113,1.2918968,2.1709309,2.9983368,2.4130268,4.8886795c0.0948544,0.744009,0.0916462,1.4787006,0.0022926,2.1823864
		c-0.2422504,1.9060745-1.1243382,3.6183205-2.4182091,4.9134235
		C18.4839325,31.0426598,16.7695503,31.9244423,14.8651552,32.1686783z"/>
	<path class="st1" d="M7.0720744,25.0803528c-0.1534944-0.1538124-0.1534944-0.4049206,0-0.558733
		c0.1525898-0.1522846,0.4036989-0.1522846,0.5575109,0l4.3417206,4.3780613c0.1533413,0.1522846,0.1533413,0.4038525,0,0.5572052
		c-0.1527433,0.1538124-0.4038639,0.1538124-0.5576754,0L7.0720744,25.0803528z"/>
	<path class="st1" d="M11.7107143,29.5725117c-0.1021843,0.003973-0.2062025-0.0310059-0.2865448-0.1050854
		c-0.1599216-0.1483135-0.1678638-0.3986588-0.0206203-0.5585804l0.0174131-0.0186348
		c0.1483126-0.1596165,0.3986578-0.1678638,0.5582743-0.0195503l0.0371161,0.0381851
		c0.1486187,0.1599216,0.1391487,0.4102669-0.0192451,0.5585804C11.9156952,29.5415058,11.8124533,29.5764847,11.7107143,29.5725117
		z"/>
	<path class="st1" d="M12.0061188,29.4561234c-0.1522846,0.1522827-0.4026289,0.1545753-0.5564413,0.0007629
		c-0.1522846-0.1533527-0.1544228-0.4038506-0.0007515-0.5561352l8.0105734-8.049078
		c0.1533546-0.1533527,0.4049206-0.1533527,0.5582867,0c0.1527424,0.1538124,0.1527424,0.4049206,0,0.557663L12.0061188,29.4561234z
		"/>
	<path class="st1" d="M20.017786,20.8527431c0.1527424,0.1538105,0.1515083,0.4038506-0.0007763,0.5565929
		c-0.1536579,0.1533546-0.4041557,0.1525898-0.5575104-0.0012207L17.6243095,19.57337l-5.635603,5.6366615
		c-0.1525898,0.1535053-0.4038401,0.1535053-0.5575104,0l-1.9668674-1.9667149l-1.835813,1.8370361
		c-0.1538115,0.1522846-0.4038515,0.1515198-0.5564413-0.0021381c-0.1534944-0.1524372-0.1525898-0.4027824,0.0010691-0.5565948
		l2.113194-2.1139584c0.1533537-0.1525898,0.4049206-0.1525898,0.5582743,0l1.9661026,1.9656448l5.635603-5.6366596
		c0.1544113-0.1525898,0.403841-0.1515217,0.5575104,0.0010681L20.017786,20.8527431z"/>
	<path class="st1" d="M13.3084021,15.0140038c-0.2171993,0-0.3952971-0.1770287-0.3952971-0.3954506
		c0-0.2173529,0.1780977-0.3959093,0.3952971-0.3959093h3.7452497c0.2175045,0,0.3959084,0.1785564,0.3959084,0.3959093v1.7443199
		c0,0.2173538-0.1784039,0.3954506-0.3959084,0.3954506c-0.2184219,0-0.3954506-0.1780968-0.3954506-0.3954506v-1.3488693
		H13.3084021z"/>
	<path class="st1" d="M17.2125034,16.0022488c0.1999397,0.0864525,0.2892952,0.3203011,0.2017727,0.5200882
		c-0.0866051,0.1988697-0.3213711,0.2886829-0.5200768,0.2010098c-0.4823723-0.2121601-0.990242-0.3791084-1.5129271-0.488472
		c-0.5087852-0.1061554-1.0433846-0.1635876-1.5947857-0.1635876c-1.0962334,0-2.1368685,0.2297249-3.0765419,0.6375484
		c-0.977705,0.4267616-1.8526144,1.0540771-2.5653114,1.8246632c-0.1464806,0.1599216-0.3965201,0.1683216-0.5564413,0.021841
		l-0.0853834-0.1145554c-0.1898589-0.3852177-0.3340478-0.8116741-0.4296651-1.2764702l-0.0033484-0.0134411
		c-0.0904355-0.4470787-0.138855-0.9373817-0.139924-1.4579287c0-0.2162838,0.1762652-0.3933125,0.3936176-0.3933125
		c0.2162838,0,0.3925486,0.1770287,0.3925486,0.3933125c0,0.462657,0.0444484,0.8984308,0.1266356,1.2993803l0.1525779,0.57691
		c0.6997261-0.6554184,1.5112352-1.1939888,2.3995867-1.5825663c1.0406351-0.4533405,2.1892595-0.7065878,3.3916492-0.7065878
		c0.5946274,0,1.182992,0.0627775,1.7548599,0.1820698C16.1231422,15.5849552,16.6847782,15.767024,17.2125034,16.0022488z"/>
	<path class="st1" d="M7.7160373,15.6929445c0,0.216589-0.1762648,0.3936167-0.3925486,0.3936167
		c-0.2173524,0-0.3936176-0.1770277-0.3936176-0.3936167l-0.0032077-4.6488743c0-0.2161312,0.1773343-0.3931599,0.3936296-0.3931599
		l5.9881091-0.0022907c0.2185755,0,0.3959093,0.1780977,0.3959093,0.3954506v3.5744829
		c0,0.2184219-0.1773338,0.3954506-0.3959093,0.3954506c-0.2171993,0-0.3952971-0.1770287-0.3952971-0.3954506v-3.1785746H7.7138991
		L7.7160373,15.6929445z"/>
	<path class="st1" d="M22.7840958,15.0140038c-0.2184219,0-0.3965206-0.1770287-0.3965206-0.3954506
		c0-0.2173529,0.1780987-0.3959093,0.3965206-0.3959093h4.5975513c0.2175064,0,0.3956051,0.1785564,0.3956051,0.3959093
		c0,0.2184219-0.1780987,0.3954506-0.3956051,0.3954506H22.7840958z"/>
	<path class="st1" d="M27.3816471,15.0140038c-0.2184219,0-0.3957424-0.1770287-0.3957424-0.3954506
		c0-0.2173529,0.1773205-0.3959093,0.3957424-0.3959093c1.4333382,0,2.7609768,0.6121922,3.7286015,1.5796642
		c0.9686928,0.9683886,1.5802727,2.2986231,1.5802727,3.7286005c0,0.2184219-0.1780968,0.3957558-0.3954506,0.3957558
		c-0.21735,0-0.3957539-0.1773338-0.3957539-0.3957558c0-1.2147636-0.5211582-2.3447533-1.3473434-3.1703262
		C29.7297592,15.5374527,28.5993118,15.0140038,27.3816471,15.0140038z"/>
	<path class="st1" d="M31.8993168,19.5309086c0-0.2173538,0.1784039-0.3954506,0.3957539-0.3954506
		c0.2173538,0,0.3954506,0.1780968,0.3954506,0.3954506v4.6458187c0,0.2184219-0.1780968,0.3965187-0.3954506,0.3965187h-5.9849129
		c-0.2184219,0-0.3968239-0.1780968-0.3968239-0.3965187v-3.1796436l-3.1292381,0.0021381
		c-0.2171993,0-0.3931599-0.1773338-0.3931599-0.3936176l-0.0033607-5.987051c0-0.2173529,0.1780987-0.3959093,0.3965206-0.3959093
		c0.2175045,0,0.3959084,0.1785564,0.3959084,0.3959093v5.5934334l3.1301537-0.0039711
		c0.2173538,0,0.3954506,0.1780987,0.3954506,0.3965206v3.1764355h5.1937084V19.5309086z"/>
	<path class="st1" d="M17.0536518,16.0865612c-0.2184219,0-0.3954506-0.1780968-0.3954506-0.3965187
		c0-0.2173529,0.1770287-0.3957567,0.3954506-0.3957567h5.730444c0.2175045,0,0.3959084,0.1784039,0.3959084,0.3957567v3.8408661
		c0,0.2184219-0.1784039,0.3957558-0.3959084,0.3957558h-2.1058617c-0.2173538,0-0.3954506-0.1773338-0.3954506-0.3957558
		c0-0.2173538,0.1780968-0.3954506,0.3954506-0.3954506h1.709341v-3.0488968H17.0536518z"/>
	<path class="st1" d="M21.0133495,19.3247051c0.1130314,0.1835976,0.0566692,0.4278316-0.127985,0.5413208
		c-0.1842194,0.1130295-0.4284554,0.0566673-0.5419426-0.1279984c-0.4070587-0.6622925-0.9147758-1.260128-1.4977951-1.771204
		c-0.5772133-0.503746-1.2364502-0.9271469-1.9514275-1.2434769c-0.1988831-0.0864525-0.2886829-0.3206081-0.2022419-0.5200901
		c0.0876846-0.1991749,0.3216743-0.2885303,0.520546-0.2010078c0.7850971,0.3448925,1.5113888,0.8138123,2.1503105,1.3725452
		C20.0054016,17.9359703,20.5641346,18.594595,21.0133495,19.3247051z"/>
	<path class="st1" d="M17.4495602,16.3628731c0,0.2173538-0.1784039,0.3954506-0.3959084,0.3954506
		c-0.2184219,0-0.3954506-0.1780968-0.3954506-0.3954506v-0.6728306c0-0.2173529,0.1770287-0.3957567,0.3954506-0.3957567
		c0.2175045,0,0.3959084,0.1784039,0.3959084,0.3957567V16.3628731z"/>
	<path class="st1" d="M31.6190338,24.1767273v4.8868465c0,0.2184219-0.1780987,0.3954506-0.3954506,0.3954506h-3.8419361
		c-0.2184219,0-0.3957424-0.1770287-0.3957424-0.3954506v-4.8868465c0-0.2173538,0.1773205-0.3957558,0.3957424-0.3957558h3.8419361
		C31.4409351,23.7809715,31.6190338,23.9593735,31.6190338,24.1767273L31.6190338,24.1767273z M30.8270626,28.6678181V24.573246
		h-3.0498104v4.0945721H30.8270626z"/>
	<path class="st1" d="M7.9992223,11.0440702V6.1587505c0-0.2184219,0.178556-0.3969779,0.3959088-0.3969779h3.8419466
		c0.2171879,0,0.3957443,0.178556,0.3957443,0.3969779v4.8853197c0,0.2185745-0.1785564,0.3959084-0.3957443,0.3959084H8.3951311
		C8.1777782,11.4399786,7.9992223,11.2626448,7.9992223,11.0440702L7.9992223,11.0440702z M8.7905817,6.5542011v4.0944185h3.0508928
		V6.5542011H8.7905817z"/>
</g>
</svg>
