<?xml version="1.0" encoding="utf-8"?>
<!-- Generator: Adobe Illustrator 22.0.1, SVG Export Plug-In . SVG Version: 6.00 Build 0)  -->
<svg version="1.1" id="Слой_1" xmlns="http://www.w3.org/2000/svg" xmlns:xlink="http://www.w3.org/1999/xlink" x="0px" y="0px"
	 viewBox="0 0 38 38.0013771" style="enable-background:new 0 0 38 38.0013771;" xml:space="preserve">
<style type="text/css">
	.st0{fill-rule:evenodd;clip-rule:evenodd;fill:#D7DDC3;}
	.st1{fill-rule:evenodd;clip-rule:evenodd;fill:#3E4530;}
</style>
<path class="st0" d="M18.9996185,38.0013771C29.4635677,38.0013771,38,29.4657078,38,19.0006886
	C38,8.5364323,29.4635677,0,18.9996185,0C8.5353746,0,0,8.5364323,0,19.0006886
	C0,29.4657078,8.5353746,38.0013771,18.9996185,38.0013771z"/>
<g>
	<g>
		<path class="st1" d="M9.5475454,13.1313601c-0.1865044-0.1090622-0.2494354-0.3522358-0.1403742-0.5387402
			c0.1093674-0.1865044,0.352541-0.2505054,0.5390453-0.1403742l5.221817,3.0602903
			c0.1863518,0.1093674,0.2500467,0.352541,0.1399164,0.5390463c-0.1090622,0.1863499-0.3522358,0.2500458-0.5387402,0.1399155
			L9.5475454,13.1313601z"/>
		<path class="st1" d="M15.3090191,16.0503597c-0.1082983,0.1875725-0.3504019,0.2512684-0.5390453,0.1432762
			c-0.1872559-0.1082973-0.2511158-0.3514709-0.1432762-0.5401134l3.0830498-5.3134661
			c-0.6036453-1.3146954-1.1045151-2.3604031-1.8700848-2.701335c-0.5142994-0.2297316-1.0664806-0.2668495-1.5734491-0.150456
			c-0.5245342,0.1196012-0.9992723,0.4070716-1.3322611,0.8170447c-0.1368494,0.1680222-0.3873549,0.1938362-0.555377,0.0566692
			c-0.167881-0.1370144-0.193696-0.3862977-0.0577507-0.5553885c0.4442015-0.5462246,1.0748825-0.9293146,1.7683554-1.0881715
			c0.6655197-0.1522889,1.3929014-0.1029515,2.0718632,0.2010155c1.0623569,0.4729052,1.6208,1.687551,2.319315,3.2055535
			l0.0320759,0.0698051c0.0516281,0.1133385,0.04949,0.2492838-0.0175667,0.3638439L15.3090191,16.0503597z"/>
		<path class="st1" d="M12.2910395,7.8510404c0.1135025-0.1857409,0.3565121-0.2442431,0.5419464-0.1309047
			c0.1857414,0.1130333,0.2442436,0.355443,0.1309052,0.5419474l-2.880661,4.7354698
			c-0.1134787,0.1854353-0.3566647,0.2442427-0.5419464,0.1309042C9.3555422,13.014966,9.29811,12.7717924,9.4103785,12.5865107
			L12.2910395,7.8510404z"/>
		<path class="st1" d="M21.3686543,13.2188835c0.0927181,0.1959753,0.0061111,0.430748-0.1886425,0.5223961
			c-0.1959743,0.0925646-0.430748,0.0071793-0.5234642-0.1883373l-0.1156292-0.2453127
			c-0.8170452-1.7330694-1.6400356-3.4797344-2.7737389-5.0073595c-0.2005558-0.2700577-0.4223461-0.5358377-0.6426067-0.7255497
			c-0.1857414-0.1596208-0.3670521-0.2689877-0.5204105-0.277389c-0.4235668-0.0213842-0.5790634-0.1810055-0.4646568-0.5272832
			c0.0636959-0.1956692,0.2708206-0.3061056,0.4657269-0.2584486c0,0,2.4046993-0.0568218,3.6908321-0.0661392l2.8238373-0.0258145
			c0.0061092-0.001833,1.4394894,0.0711803,1.9453888,1.2612338c0.2205677,0.5822725,1.0765629,1.8616838,1.4251328,2.4531212
			c0.1101303,0.1865044,0.0473499,0.430747-0.1391544,0.5401144c-0.1865044,0.1101303-0.4307461,0.0473509-0.5408764-0.1391535
			l-0.8894482-1.5096006l-0.5808983-1.0354733c-0.3122139-0.7347145-1.2146454-0.7800803-1.2169361-0.7800803l-2.8220062,0.021843
			c-1.0984039,0.0082483-2.4276981-0.0307693-2.4076538-0.0098681c0.1797123,0.187396,0.3497314,0.3970475,0.5054932,0.6074152
			c1.1798191,1.5887237,2.0217743,3.3734231,2.8540821,5.1425414L21.3686543,13.2188835z"/>
		<path class="st1" d="M26.3512688,10.6741152c-0.1865044,0.1101303-0.4307461,0.0473509-0.5408764-0.1391535
			c-0.1093674-0.1865044-0.0465755-0.430747,0.1399155-0.5408773l1.7414722-1.0356264
			c0.1865044-0.1093674,0.4307461-0.0475044,0.5408764,0.140069c0.0730133,0.1238785,0.0690422,0.2732649,0.002903,0.39256
			l-2.8053551,4.9868927c-0.0763741,0.1348753-0.2217903,0.2094164-0.367815,0.2010155l-5.7671261,0.1257105
			c-0.2162895,0.0041246-0.3965321-0.1689386-0.4004898-0.3852282c-0.0021515-0.1475544,0.0759029-0.2761669,0.1933651-0.3464308
			l1.7240582-1.0272255c0.1863518-0.1093674,0.4305935-0.0471992,0.5407257,0.1393051
			c0.1090603,0.1875744,0.046587,0.4302893-0.1402225,0.5408783l-0.436552,0.2595177l4.0739212-0.08951l1.9718151-3.5020361
			L26.3512688,10.6741152z"/>
	</g>
	<polygon class="st1" points="23.1136513,24.1228981 23.1136513,24.1228981 23.1136513,24.1228981 23.1136513,24.1228981 	"/>
	<g>
		<path class="st1" d="M19.3497524,28.7421932c0.0127182,0.2156773-0.1546974,0.402935-0.3703747,0.4156532
			c-0.2158451,0.0124645-0.4039936-0.1543579-0.415823-0.3706284L18.213068,22.744875
			c-0.0123787-0.2157192,0.1546135-0.4036121,0.3708839-0.4154415c0.2155495-0.0126343,0.4034424,0.1543579,0.4152718,0.3706284
			L19.3497524,28.7421932z"/>
		<path class="st1" d="M18.5823421,22.3292217c0.2161427-0.0139465,0.4034424,0.1521549,0.4182377,0.3690186
			c0.0137711,0.2158794-0.1531296,0.4039097-0.3699093,0.4188309l-6.1312227,0.382391
			c-0.7589979,1.2315578-1.351203,2.2283859-1.2101784,3.0544872c0.0941572,0.5553513,0.3695898,1.0353718,0.7476654,1.3926144
			c0.3904886,0.370079,0.8930264,0.6056042,1.4188557,0.6552334c0.2157145,0.0206547,0.3761568,0.2147617,0.355238,0.4306526
			c-0.0208693,0.2156868-0.2139597,0.375452-0.4300613,0.356144c-0.7008877-0.0665779-1.3694906-0.3788071-1.8863573-0.8676701
			c-0.4958963-0.4692497-0.8583517-1.1018219-0.9820871-1.8353558c-0.195858-1.1462479,0.5049706-2.2846947,1.3804979-3.7079678
			l0.0402861-0.0654125c0.0656605-0.1058292,0.1799564-0.1794624,0.3124723-0.1872215L18.5823421,22.3292217z"/>
		<path class="st1" d="M13.434473,29.3887177c-0.2175055,0.0086002-0.4009867-0.1611366-0.4095535-0.3782959
			c-0.0089903-0.2172451,0.1602478-0.4003944,0.3782969-0.4095535l5.538043-0.2301502
			c0.2172375-0.0084496,0.4010715,0.1612644,0.4095535,0.3782959c0.0086079,0.2174988-0.1618576,0.4001827-0.3782978,0.4095535
			L13.434473,29.3887177z"/>
		<path class="st1" d="M12.8649817,18.8581657c0.1116219-0.1858578,0.3550034-0.2440338,0.5392933-0.1328354
			c0.1857309,0.1117058,0.2449245,0.3544102,0.1336832,0.5400143l-0.1399622,0.2322903
			c-0.9887161,1.6411991-1.985445,3.2948856-2.6275644,5.0855846c-0.1134386,0.316679-0.2115402,0.6486511-0.2471991,0.9371548
			c-0.0297718,0.2430897-0.0201883,0.4546146,0.0578957,0.5868721c0.2171755,0.3642826,0.1706266,0.5822086-0.1809521,0.6791115
			c-0.1981363,0.0555477-0.4049215-0.0555229-0.4733906-0.2441273c0,0-1.3812513-1.9692516-2.1024671-3.0341797L6.2363558,21.172863
			c-0.0049148-0.0040665-0.7393131-1.2371788-0.0297971-2.3182659c0.3621097-0.506525,0.9517617-1.9284725,1.2504892-2.5465813
			c0.0940833-0.1950932,0.3321257-0.2783489,0.5265822-0.1838436c0.1950922,0.0940838,0.2783489,0.3321266,0.1842661,0.5272179
			l-0.76262,1.5774746L6.8659797,19.286602c-0.4381042,0.6673431,0.0247607,1.4433556,0.026032,1.445261l1.5836411,2.3358669
			c0.616188,0.9093266,1.3211308,2.0369778,1.3274021,2.0087051c0.0562258-0.2534809,0.1363459-0.5112419,0.2249708-0.7575378
			c0.6673717-1.8629627,1.6852255-3.5535297,2.6954679-5.2274246L12.8649817,18.8581657z"/>
		<path class="st1" d="M7.9836302,16.1241722c0.1950922,0.0940838,0.2783489,0.3321266,0.1842661,0.5272179
			c-0.0945072,0.194458-0.3325562,0.2777042-0.5276418,0.1836319l-1.8277249-0.8744516
			c-0.1944571-0.0945072-0.2784762-0.3320408-0.1835032-0.5277262c0.0625668-0.1294689,0.1890635-0.2090349,0.3250103-0.2201824
			l5.7054577-0.4322777c0.1545877-0.0112762,0.2972746,0.0683632,0.3712912,0.194521l3.3038263,4.7286644
			c0.123415,0.1776714,0.0794086,0.4236412-0.0983543,0.5469189c-0.1215754,0.083643-0.271884,0.0900459-0.3955059,0.031292
			l-1.8110762-0.8646221c-0.1943722-0.0943794-0.2781363-0.3320827-0.1840534-0.5271759
			c0.0955658-0.1947956,0.3321676-0.2774601,0.5278111-0.1833763l0.4580965,0.2192593l-2.3344259-3.3399563l-4.0076227,0.302103
			L7.9836302,16.1241722z"/>
	</g>
	<g>
		<path class="st1" d="M28.8182392,13.2340651c0.1847878-0.1119442,0.4285488-0.0513239,0.540493,0.1334639
			c0.1117992,0.1850567,0.0521183,0.429327-0.1336098,0.5407619l-5.1796989,3.1310463
			c-0.1849842,0.1116657-0.4291096,0.0517159-0.5405445-0.1340122c-0.1118107-0.1847153-0.0518608-0.4288387,0.1338673-0.5402737
			L28.8182392,13.2340651z"/>
		<path class="st1" d="M23.5054436,16.9068489c-0.1132488-0.1846275-0.0538101-0.4278126,0.1310577-0.5421467
			c0.1844769-0.1129684,0.4286785-0.0531654,0.5430851,0.1315689l3.200758,5.2434025
			c1.4434547,0.0961914,2.6014595,0.15448,3.2661514-0.3559284c0.4471455-0.3425522,0.7430382-0.8102379,0.8824348-1.3113689
			c0.1449509-0.5181026,0.1185989-1.0724678-0.0830173-1.5606384c-0.082449-0.2004032,0.0142937-0.4329109,0.2149754-0.5152092
			c0.2004795-0.0822468,0.4319153,0.0139141,0.5157356,0.2140312c0.2683601,0.6508884,0.3044167,1.3879223,0.1134262,2.0732403
			c-0.1834373,0.6576176-0.5736027,1.2734833-1.1645088,1.7253838c-0.9221992,0.7083702-2.2561569,0.6201458-3.9235535,0.5104141
			l-0.0766544-0.005085c-0.1242409-0.0086536-0.2427216-0.0753479-0.3114529-0.1889114L23.5054436,16.9068489z"/>
		<path class="st1" d="M32.1517525,18.1631851c0.1091576,0.1883278,0.0447197,0.4298325-0.1433182,0.5387974
			c-0.1879139,0.1093788-0.4288921,0.045229-0.5387974-0.1433182l-2.7891788-4.7899227
			c-0.1088982-0.1881618-0.0446472-0.429966,0.1433182-0.5387974c0.1883183-0.1091614,0.4294567-0.0437078,0.5387974,0.1433172
			L32.1517525,18.1631851z"/>
		<path class="st1" d="M23.1053104,23.5833988c-0.2164726-0.0119343-0.3815517-0.1999969-0.3692608-0.4148865
			c0.0120697-0.2163982,0.1990585-0.382061,0.4151287-0.3703442l0.2707653,0.015316
			c1.9129581,0.108078,3.8407021,0.2174129,5.7240448-0.0508099c0.3330078-0.0475388,0.6723785-0.1157799,0.9441547-0.2189445
			c0.2288666-0.0871696,0.4114475-0.1944027,0.491951-0.3252029c0.2207432-0.3621311,0.4351902-0.4227142,0.6850319-0.1570511
			c0.1416302,0.1492805,0.1399536,0.3840027,0.0051365,0.532608c0,0-1.09655,2.1408844-1.7015533,3.2758694l-1.3236408,2.4945354
			c-0.0013008,0.0062447-0.7488804,1.2314129-2.0361671,1.1087246c-0.616993-0.0837288-2.149744,0.0587254-2.8358231,0.0831451
			c-0.2164497,0.0078869-0.4012127-0.1637459-0.4084301-0.3798313c-0.0078869-0.2164497,0.1637459-0.4012146,0.3801956-0.4091015
			l1.7510433-0.062109l1.1871662-0.0169392c0.7946892,0.0758476,1.264822-0.6957836,1.265913-0.6977978l1.3262577-2.4910297
			c0.5164413-0.9694595,1.1845093-2.1193409,1.1565819-2.1116867c-0.2504082,0.0686264-0.5157585,0.1181221-0.7749405,0.1547432
			c-1.9590378,0.2796307-3.9292564,0.1688328-5.8811798,0.0569839L23.1053104,23.5833988z"/>
		<path class="st1" d="M22.9666481,29.176527c-0.0078869-0.2164497,0.1637459-0.4012146,0.3801956-0.4091015
			c0.2160854-0.0072174,0.4008446,0.1644268,0.4087372,0.380867l0.0800552,2.0245571
			c0.0072155,0.2160854-0.1636105,0.4012871-0.3810005,0.4086647c-0.1437035,0.0051193-0.2731247-0.0695953-0.3464546-0.1846123
			l-3.0460892-4.8435993c-0.0821457-0.1314392-0.0783386-0.2948017-0.0013332-0.419157l2.6391106-5.1293888
			c0.0994968-0.192091,0.3375568-0.2680168,0.5295696-0.168375c0.1307297,0.0684586,0.2065697,0.1983891,0.2123299,0.3351421
			l0.0809727,2.0052452c0.007288,0.2159519-0.1638069,0.4010067-0.3802567,0.4088955
			c-0.2168808,0.0064373-0.4004478-0.1641998-0.4085922-0.3811359l-0.0199852-0.5074711l-1.8636589,3.6237583l2.1382732,3.402956
			L22.9666481,29.176527z"/>
	</g>
</g>
</svg>
