<?xml version="1.0" encoding="utf-8"?>
<!-- Generator: Adobe Illustrator 22.0.1, SVG Export Plug-In . SVG Version: 6.00 Build 0)  -->
<svg version="1.1" id="Слой_1" xmlns="http://www.w3.org/2000/svg" xmlns:xlink="http://www.w3.org/1999/xlink" x="0px" y="0px"
	 viewBox="0 0 38 38.0001488" style="enable-background:new 0 0 38 38.0001488;" xml:space="preserve">
<style type="text/css">
	.st0{fill-rule:evenodd;clip-rule:evenodd;fill:#D7DDC3;}
	.st1{fill-rule:evenodd;clip-rule:evenodd;fill:#3E4530;}
</style>
<g>
	<circle class="st0" cx="19" cy="19.0001106" r="19.0000553"/>
	<path class="st1" d="M18.5958977,19.4879932h0.779707c0.869442,0,1.1978397,0.6201115,1.54772,1.2875767
		c0.9751091,1.8208733,2.0365925,3.6113491,3.0020542,5.4351482c0.1198425,0.2315006,0.1999321,0.5803585,0.1951103,0.931263
		c-0.0049706,0.3105679-0.0780449,0.6389656-0.2376385,0.9091949c-0.1568184,0.2649689-0.4003048,0.4732323-0.6554813,0.6161652
		c-0.3057327,0.1673412-0.6497803,0.2553234-0.9071484,0.2553234h-6.4750004c-0.2551775,0-0.6199656-0.0761433-0.9521637-0.2374935
		l-0.0287914-0.0160751c-0.2591228-0.1321201-0.504653-0.3213825-0.6772556-0.5717373
		c-0.1880941-0.2709599-0.2830915-0.6062279-0.3035526-0.9258556c-0.0267448-0.3723888,0.0451603-0.7479916,0.1734791-0.9806614
		c0.9968853-1.8039227,1.9785709-3.6426277,3.0000076-5.4298878C17.403038,20.1005058,17.7330322,19.4879932,18.5958977,19.4879932
		L18.5958977,19.4879932z M19.3756046,20.2451935h-0.779707c-0.4141884,0-0.6380882,0.4159412-0.873682,0.8656425
		c-0.9059792,1.8129826-2.0149603,3.6582642-3.0026379,5.4437714c-0.066206,0.1172104-0.0987968,0.3332195-0.08389,0.564867
		c0.0135918,0.1981773,0.0678139,0.400156,0.1704102,0.5490818c0.0947046,0.1381111,0.2396851,0.2475777,0.3965034,0.3272285
		l0.0216303,0.0100842c0.2228775,0.1081505,0.4603701,0.1595955,0.6209888,0.1595955h6.4750004
		c0.1458569,0,0.3500385-0.0552444,0.541338-0.1595955c0.1498032-0.0831585,0.2889366-0.1992016,0.3716564-0.338335
		c0.0897369-0.1537495,0.1310959-0.3488579,0.133873-0.5373917c0.0042381-0.2215614-0.0413589-0.4336243-0.1084423-0.5616512
		c-0.9888344-1.8129826-2.0327911-3.6141281-2.9997158-5.4379253
		C20.0173454,20.6701946,19.7943211,20.2451935,19.3756046,20.2451935z"/>
	<path class="st1" d="M18.6195736,23.1396809c0-0.2079697,0.1704216-0.3786736,0.3783798-0.3786736
		c0.2089939,0,0.3788204,0.1707039,0.3788204,0.3786736v10.263483c0,0.2079735-0.1698265,0.3786736-0.3788204,0.3786736
		c-0.2079582,0-0.3783798-0.1707001-0.3783798-0.3786736V23.1396809z"/>
	<path class="st1" d="M20.6314774,33.0247841c0.2079582,0,0.3786602,0.1693878,0.3786602,0.3783798
		c0,0.2079735-0.170702,0.3786736-0.3786602,0.3786736h-3.2660122c-0.2089939,0-0.3794041-0.1707001-0.3794041-0.3786736
		c0-0.208992,0.1704102-0.3783798,0.3794041-0.3783798H20.6314774z"/>
	<path class="st1" d="M21.0801544,24.2230854c0.1703987-0.1182346,0.4061375-0.0758514,0.524374,0.0945587
		c0.1182346,0.1708488,0.0748386,0.4062958-0.095583,0.5245304l-2.2939606,1.5899582
		c-0.1708469,0.1186733-0.4062939,0.0751209-0.5245285-0.0955811c-0.1175041-0.1704102-0.0751209-0.4058571,0.0957279-0.5233612
		L21.0801544,24.2230854z"/>
	<path class="st1" d="M10.3374357,7.1790023c1.300437,0,2.4804468,0.5293531,3.334836,1.3831573l0.0188532,0.0197306
		c0.8409433,0.8535118,1.3643045,2.0259218,1.3643045,3.3161287c0,1.3014603-0.5292072,2.4814701-1.3831577,3.336297
		c-0.8543892,0.8538055-2.034399,1.3831577-3.334836,1.3831577c-1.3013134,0-2.4814696-0.5303764-3.3362975-1.3831577
		c-0.8543887-0.8548269-1.3841801-2.0348368-1.3841801-3.336297c0-1.3002911,0.530376-2.4804468,1.3831687-3.334836
		C7.8559661,7.7093782,9.0361223,7.1790023,10.3374357,7.1790023L10.3374357,7.1790023z M13.1380959,9.0953131
		c-0.713501-0.714817-1.70644-1.1582341-2.8006601-1.1582341c-1.0961199,0-2.0890589,0.4434171-2.8037291,1.1582341
		c-0.7148051,0.7146702-1.1585259,1.7076082-1.1585259,2.8027058c0,1.0955353,0.4437208,2.0870123,1.1585259,2.8016834
		c0.7146702,0.7148161,1.7076092,1.1595488,2.8037291,1.1595488c1.0942202,0,2.0871592-0.4447327,2.8006601-1.1595488
		c0.7148161-0.7146711,1.1592684-1.7061481,1.1592684-2.8016834c0-1.0872049-0.4364138-2.0721054-1.1424618-2.7867756
		L13.1380959,9.0953131z"/>
	<path class="st1" d="M7.720047,10.5218763c-0.1766944-0.110343-0.230916-0.3428659-0.121304-0.5195608
		C7.708209,9.8259134,7.9416094,9.770669,8.117281,9.8813038l2.4319248,1.5100155
		c0.1204271,0.0751209,0.1844406,0.2079706,0.1774254,0.3411121l-0.0135918,9.3643742
		c0,0.207386-0.1686563,0.3767719-0.3756037,0.3767719c-0.2079706,0-0.376627-0.1693859-0.376627-0.3767719L9.97367,11.9206724
		L7.720047,10.5218763z"/>
	<path class="st1" d="M11.969924,20.7153549c0.2089939,0,0.3783808,0.1707039,0.3783808,0.3796959
		c0,0.2081165-0.1693869,0.3785267-0.3783808,0.3785267H8.7039242c-0.2079706,0-0.3786726-0.1704102-0.3786726-0.3785267
		c0-0.208992,0.170702-0.3796959,0.3786726-0.3796959H11.969924z"/>
	<path class="st1" d="M12.6669102,11.7474852c0.1704216-0.1186733,0.4061489-0.0751209,0.5243835,0.0955811
		c0.1172123,0.1693878,0.0748291,0.4058571-0.0955811,0.5233612l-2.4439096,1.6937246
		c-0.1703987,0.1182356-0.4061489,0.0758514-0.5243835-0.0945587c-0.1182356-0.170702-0.0751209-0.4061489,0.0957279-0.5248222
		L12.6669102,11.7474852z"/>
	<path class="st1" d="M24.822298,7.1800256h5.6822872c0.5147381,0,0.9870911,0.2138162,1.3261585,0.5530291
		c0.3400898,0.339066,0.5518589,0.8102517,0.5518589,1.3249898v5.6824331c0,0.5142994-0.2117691,0.9866543-0.5518589,1.3257208
		c-0.3390675,0.3400898-0.8114204,0.5522976-1.3261585,0.5522976H24.822298c-0.5147381,0-0.9860706-0.2122078-1.3251362-0.5522976
		c-0.3390675-0.3390665-0.5528831-0.8114214-0.5528831-1.3257208V9.0580444c0-0.5147381,0.2138157-0.9859238,0.5528831-1.3249898
		C23.8362274,7.3938417,24.30756,7.1800256,24.822298,7.1800256L24.822298,7.1800256z M30.5045853,7.9378099H24.822298
		c-0.3085213,0-0.5905895,0.1272955-0.7915459,0.3283978c-0.2011013,0.2022705-0.3283978,0.4830236-0.3283978,0.7918367v5.6824331
		c0,0.3085213,0.1272964,0.5911741,0.3283978,0.7925682c0.2009563,0.2009554,0.4830246,0.3272285,0.7915459,0.3272285h5.6822872
		c0.3085213,0,0.5916119-0.1262732,0.7927132-0.3272285c0.2009563-0.2013941,0.3272285-0.4840469,0.3272285-0.7925682V9.0580444
		c0-0.3088131-0.1262722-0.5895662-0.3272285-0.7918367C31.0961971,8.0651054,30.8131065,7.9378099,30.5045853,7.9378099z"/>
	<path class="st1" d="M27.2869606,11.1795483c0-0.208993,0.1693878-0.3798418,0.3783798-0.3798418
		c0.2079716,0,0.3788319,0.1708488,0.3788319,0.3798418v9.9172573c0,0.2079697-0.1708603,0.3788185-0.3788319,0.3788185
		c-0.208992,0-0.3783798-0.1708488-0.3783798-0.3788185V11.1795483z"/>
	<path class="st1" d="M29.2970982,20.7184238c0.2091408,0,0.3783817,0.1693878,0.3783817,0.3783817
		c0,0.2079697-0.169241,0.3788185-0.3783817,0.3788185h-3.2662907c-0.2079716,0-0.3783817-0.1708488-0.3783817-0.3788185
		c0-0.2089939,0.1704102-0.3783817,0.3783817-0.3783817H29.2970982z"/>
	<path class="st1" d="M30.0000763,9.0597982c0.1704102-0.1182346,0.4061489-0.0748281,0.5243835,0.095582
		c0.1172123,0.1698256,0.0748291,0.4062948-0.0955811,0.5235071l-2.4439087,1.6947479
		c-0.0967522,0.0660591-0.2149868,0.0819893-0.320652,0.0514441c-0.1063976,0.0305452-0.2246323,0.0146151-0.3203602-0.0514441
		l-2.4449196-1.6947479c-0.1704216-0.1172123-0.2128048-0.3536816-0.0955944-0.5235071
		c0.1182346-0.1704102,0.3541203-0.2138166,0.5245304-0.095582l2.3363438,1.6188965L30.0000763,9.0597982z"/>
</g>
</svg>
