<?xml version="1.0" encoding="utf-8"?>
<!-- Generator: Adobe Illustrator 22.0.1, SVG Export Plug-In . SVG Version: 6.00 Build 0)  -->
<svg version="1.1" id="Слой_1" xmlns="http://www.w3.org/2000/svg" xmlns:xlink="http://www.w3.org/1999/xlink" x="0px" y="0px"
	 viewBox="0 0 38 38.0004616" style="enable-background:new 0 0 38 38.0004616;" xml:space="preserve">
<style type="text/css">
	.st0{fill-rule:evenodd;clip-rule:evenodd;fill:#D7DDC3;}
	.st1{fill-rule:evenodd;clip-rule:evenodd;fill:#3E4530;}
</style>
<g>
	<path class="st0" d="M19.000843,38.0004616C29.4649944,38.0004616,38,29.4649982,38,19.0013008
		C38,8.5362272,29.4649944,0,19.000843,0C8.5360708,0,0,8.5362272,0,19.0013008
		C0,29.4649982,8.5360708,38.0004616,19.000843,38.0004616z"/>
	<path class="st0" d="M21.4931545,12.5297079h0.3071671l0.6059341,2.0536375h1.3456707l0.6070042-2.0536375h0.3128185h0.7771587
		h0.3129711l0.604866,2.0536375h1.0406418l0.6057796-2.0536375h0.3134308H29.10116h0.3154144l0.604866,2.0536375h0.0071774
		l1.0026093,1.0322409v11.9175119v2.0886154v1.1075439l-1.0540829,1.022007l-0.62747-2.1295509h-1.032547l-0.6375523,2.1626968
		h-0.3132763h-0.776701h-0.3134308l-0.6389256-2.1626968h-1.0756207l-0.6389256,2.1626968h-0.312973h-0.7771587h-0.3128185
		l-0.63801-2.1626968h-1.2477627l-0.6375523,2.1626968h-0.3143406h-0.7756367h-0.3132763l-0.63801-2.1626968H16.547781
		l-0.6367922,2.1626968h-0.3151102h-0.774868h-0.3132772l-0.6387739-2.1626968h-1.2433319l-0.6277761,2.1295509l-1.0540838-1.022007
		v-1.1075439v-2.0886154v-4.4527798c0.9468613,0.3884258,1.9835281,0.6047115,3.0695353,0.6047115
		c4.4653044,0,8.0847178-3.6194115,8.0847178-8.0847178C22.0980206,14.5120144,21.8828049,13.4765654,21.4931545,12.5297079z"/>
	<path class="st1" d="M21.4943771,12.1353245l0.3059444-0.0010691c0.1909294,0,0.3514633,0.1359415,0.3885803,0.3172483
		l0.5121498,1.7348614h0.7571487l0.5222301-1.7678547c0.04949-0.1701555,0.2083435-0.2824221,0.3785-0.283186l1.4029484-0.0010691
		c0.1918507,0,0.3514633,0.1359415,0.3885803,0.3172483l0.5109272,1.7348614h0.4515095l0.521162-1.7678547
		c0.0494881-0.1701555,0.2080364-0.2824221,0.3780403-0.283186l1.4044762-0.0010691
		c0.1926098,0,0.351162,0.1359415,0.3882751,0.3172483l0.5659142,1.9163208l0.9434967,0.9726706
		c0.074234,0.0762196,0.1124191,0.1751976,0.1124191,0.2750912l0.00107,15.1136713
		c0,0.1217365-0.0545292,0.230032-0.1420517,0.3041134l-1.0334625,1.0003166
		c-0.1556454,0.1527443-0.4059925,0.1483154-0.5575142-0.0073318c-0.0473499-0.0482674-0.0814133-0.1072254-0.0966873-0.1689339
		l-0.5431557-1.8399487h-0.4429569l-0.554306,1.8781338c-0.0494843,0.1712265-0.2083378,0.2824249-0.3780403,0.2845612
		l-1.4034081,0.0007629c-0.1907768,0-0.3514576-0.1370087-0.3885784-0.3174l-0.5440731-1.8460579h-0.4881687l-0.5532379,1.8781338
		c-0.0504055,0.1712265-0.208189,0.2824249-0.3794136,0.2845612l-1.4029503,0.0007629
		c-0.1919994,0-0.3503933-0.1370087-0.3885803-0.3174l-0.5442257-1.8460579h-0.6581707l-0.5532341,1.8781338
		c-0.0505619,0.1712265-0.2081928,0.2824249-0.3791142,0.2845612l-1.4032536,0.0007629
		c-0.1898613,0-0.3505478-0.1370087-0.3885803-0.3174l-0.5437679-1.8460579h-0.8171768l-0.554306,1.8781338
		c-0.0493374,0.1712265-0.2081909,0.2824249-0.3783464,0.2845612l-1.4032555,0.0007629
		c-0.1906242,0-0.3511572-0.1370087-0.3882742-0.3174l-0.5440683-1.8460579h-0.655427l-0.543767,1.8454475
		c-0.0610971,0.2068157-0.281354,0.3274822-0.489543,0.2666912c-0.0629301-0.0184822-0.1195984-0.0516281-0.1638937-0.0959244
		l-1.0548477-1.022007c-0.0795794-0.0771351-0.1195974-0.1793213-0.1195974-0.282423l-0.00107-7.6489391
		c0-0.2173557,0.1784048-0.395607,0.3957586-0.395607c0.0658331,0,0.1298323,0.0164967,0.1843615,0.0462818
		c0.4429569,0.1773357,0.9129524,0.3193874,1.3960762,0.4142399c0.4768658,0.0937843,0.9766426,0.1432743,1.4898615,0.1432743
		c2.1255789,0,4.0480089-0.8614731,5.4379759-2.2512875c1.3887444-1.3888969,2.2512875-3.312397,2.2512875-5.4379768
		c0-0.5142879-0.0505581-1.0129957-0.1431198-1.4898605c-0.096077-0.4958057-0.2443905-0.9760323-0.4296684-1.4302912
		c-0.0824814-0.2007055,0.0142059-0.4325695,0.2152157-0.5139818L21.4943771,12.1353245L21.4943771,12.1353245z
		 M23.7529964,14.9777298h-1.2827415l0.0236759,0.6215134c0,2.3407955-0.9512863,4.4624043-2.4851379,5.996254
		c-1.5330868,1.5330868-3.6546955,2.484375-5.9954901,2.484375c-0.5553761,0-1.1075439-0.0557518-1.6426048-0.1600761
		c-0.3491716-0.0690403-0.6952887-0.1605339-1.0311718-0.272953v6.9165344l0.4638824,0.4515114l0.4336386-1.4724483
		c0.0369682-0.1802368,0.1965809-0.3172493,0.3885803-0.3172493h1.2433319
		c0.1701565,0.002903,0.3285522,0.1144047,0.3780403,0.285326l0.554307,1.8784409h0.8141232l0.543767-1.8465176
		c0.037117-0.1802368,0.1970387-0.3172493,0.3885841-0.3172493h1.4073753
		c0.1701565,0.002903,0.3285503,0.1144047,0.3783455,0.285326l0.5543098,1.8784409h0.8139668l0.5440731-1.8465176
		c0.0369644-0.1802368,0.1965809-0.3172493,0.3881207-0.3172493h1.2488327
		c0.1701546,0.002903,0.3287067,0.1144047,0.3780403,0.285326l0.554306,1.8784409h0.8142757l0.543766-1.8465176
		c0.0369644-0.1802368,0.1979561-0.3172493,0.3884277-0.3172493h1.0756207
		c0.171072,0.002903,0.3288555,0.1144047,0.3783455,0.285326l0.554306,1.8784409h0.813818l0.5440731-1.8465176
		c0.0381851-0.1802368,0.1967335-0.3172493,0.3882732-0.3172493h1.033617
		c0.1709194,0.002903,0.3285503,0.1144047,0.3791084,0.285326l0.4431095,1.5043716l0.4634285-0.4515114V15.7744398
		l-0.8552151-0.8810253c-0.0626259-0.0494881-0.1130314-0.1174593-0.1370125-0.1999407l-0.5213127-1.7680073h-0.814888
		l-0.5121479,1.7348614c-0.0371132,0.1814594-0.1976509,0.3174019-0.3885803,0.3174019H26.366745
		c-0.1696987-0.001833-0.3287048-0.1140995-0.3780403-0.284256l-0.5222263-1.7680073h-0.8142815l-0.5110798,1.7348614
		C24.1033897,14.8417873,23.9434681,14.9777298,23.7529964,14.9777298z"/>
	<path class="st1" d="M26.0711861,15.4694109c-0.1733646-0.1307487-0.2071209-0.3794146-0.0763721-0.5524731
		c0.1309013-0.1729059,0.3780403-0.2060518,0.5510979-0.0751505c1.1231289,0.8530731,2.0452366,1.9627552,2.6780586,3.2363319
		c0.6098995,1.2300434,0.954031,2.6169548,0.954031,4.0788631c0,1.381567-0.3093052,2.6995907-0.8602505,3.8812141
		c-0.5711098,1.2242393-1.4055481,2.3047485-2.4277039,3.1611824c-0.1667995,0.1391487-0.4160767,0.1173058-0.5553799-0.04949
		c-0.1399117-0.1667957-0.1173058-0.4162254,0.04949-0.5553761c0.9344845-0.7851009,1.7011051-1.7719784,2.2215023-2.8900604
		c0.4997768-1.071497,0.7800617-2.2771015,0.7800617-3.5474701c0-1.3412399-0.3122082-2.6085548-0.8686523-3.730608
		C27.9380169,17.2632313,27.095026,16.2484035,26.0711861,15.4694109z"/>
	<path class="st1" d="M15.937871,28.8706741c0.1730623,0.1309013,0.2083426,0.3791084,0.0774412,0.5521679
		c-0.1309013,0.1730576-0.3794107,0.2083416-0.5524731,0.0774403c-0.9457884-0.7120895-1.7527323-1.6073208-2.3632488-2.6293278
		c-0.5979872-0.9963455-1.0119219-2.1194687-1.1955242-3.3116322c-0.0308542-0.2152157,0.1174603-0.4183655,0.3329811-0.4492188
		c0.2150631-0.0310078,0.4183645,0.1173058,0.4492188,0.3328266c0.1667967,1.0901318,0.5459061,2.1162624,1.0912008,3.0249348
		C14.3346748,27.4005165,15.0724268,28.2183056,15.937871,28.8706741z"/>
	<path class="st1" d="M25.3366451,18.8901024c-0.1309052-0.1733627-0.0960789-0.4226398,0.0769787-0.5535412
		c0.1722946-0.1298332,0.4217262-0.0956173,0.5524731,0.0774403c0.3965225,0.528492,0.7149944,1.1270943,0.9302101,1.7689228
		c0.207119,0.6245689,0.320612,1.2900734,0.320612,1.9740582c0,1.7177544-0.6997223,3.2757397-1.8246784,4.4017639
		c-1.130455,1.1281643-2.6872177,1.8268147-4.4046669,1.8268147c-1.0757732,0-2.093504-0.2773838-2.9807911-0.7592888
		c-0.9181404-0.5042076-1.6982021-1.2303505-2.2615204-2.1041965c-0.1174603-0.1831379-0.0640001-0.4285984,0.1195974-0.5459042
		c0.1820707-0.1163902,0.4275293-0.0629311,0.544837,0.1195984c0.493515,0.764328,1.1726112,1.4011154,1.9732933,1.8379631
		c0.7705956,0.4191284,1.6595631,0.6593933,2.6045837,0.6593933c1.5019321,0,2.8642483-0.6088352,3.8470001-1.5909767
		c0.9810715-0.9806137,1.5909767-2.3429337,1.5909767-3.8451672c0-0.6059341-0.0969925-1.1877327-0.2761612-1.7246265
		C25.9618206,19.8759098,25.6847439,19.352459,25.3366451,18.8901024z"/>
	<path class="st1" d="M20.9875736,24.9121723c0.2173576,0,0.3954525,0.1773338,0.3954525,0.3957577
		c0,0.2173538-0.1780949,0.3954525-0.3954525,0.3954525c-0.8623905,0-1.6621552-0.3132763-2.2781696-0.8322983
		c-0.6262493-0.5245228-1.0704269-1.2663975-1.2147694-2.1060295c-0.037117-0.2132301,0.1093636-0.4194336,0.3235111-0.455328
		c0.2133827-0.036047,0.4194336,0.1101284,0.4554806,0.3235111c0.1122665,0.6520615,0.456398,1.2269878,0.9405956,1.6340504
		C19.6903229,24.6679344,20.3115311,24.9121723,20.9875736,24.9121723z"/>
	<path class="st1" d="M21.2933674,19.4196644c-0.2152119-0.0239792-0.3719311-0.2205601-0.3482571-0.4357758
		c0.0239811-0.2155228,0.220562-0.3733063,0.4357777-0.3493252c0.8894272,0.0988255,1.684763,0.529562,2.2502193,1.1620731
		c0.5605679,0.6254845,0.9025612,1.4550343,0.9025612,2.3603458c0,0.2173538-0.1770306,0.3959122-0.3954525,0.3959122
		c-0.2173538,0-0.3957596-0.1785583-0.3957596-0.3959122c0-0.7076607-0.2646999-1.3505573-0.6983433-1.8347549
		C22.6028366,19.8296299,21.9849892,19.4957314,21.2933674,19.4196644z"/>
	<path class="st1" d="M11.7971458,28.2659626c-0.1857357,0.1133347-0.4276819,0.0545292-0.5411701-0.1309013
		c-0.1130304-0.1854305-0.0545292-0.4284458,0.1309013-0.541935l8.0789127-4.9446144
		c0.1852779-0.113184,0.4286022-0.0545292,0.541935,0.1307487c0.1133347,0.1857357,0.0545292,0.4278336-0.1309013,0.5411701
		L11.7971458,28.2659626z"/>
	<path class="st1" d="M22.5596104,21.3576756c-0.1325817,0.1698513-0.3820114,0.1996365-0.5520153,0.0669022
		c-0.1712246-0.1330395-0.2010098-0.3823166-0.0679665-0.5524731l3.3475246-4.2838478
		c0.1338024-0.1712246,0.3820114-0.2010098,0.553236-0.0669003c0.1707687,0.1327343,0.2010117,0.3820114,0.0669022,0.5521679
		L22.5596104,21.3576756z"/>
	<path class="st1" d="M21.6869869,23.1678391c-0.1567116-0.1493816-0.1628208-0.3998814-0.0134411-0.5564442
		c0.1493835-0.1574783,0.3997288-0.1635876,0.5564442-0.0142059l6.0831661,5.7591972
		c0.1565609,0.1493835,0.1628246,0.3998833,0.0134411,0.5565968c-0.1493835,0.1565628-0.3998833,0.1628265-0.5565987,0.013443
		L21.6869869,23.1678391z"/>
	<path class="st1" d="M20.4609146,19.9831371c-0.0369644-0.2141476,0.1072254-0.4212685,0.3213711-0.4583836
		c0.2133884-0.037117,0.4205036,0.1072254,0.4576206,0.3213711l0.0846195,0.4779358
		c0.0378799,0.2144508-0.1061573,0.4205017-0.3206081,0.4586887c-0.2144489,0.037117-0.4212666-0.1072254-0.458231-0.3216782
		L20.4609146,19.9831371z"/>
	<path class="st1" d="M22.6556873,2.7955129c0.0348244-0.214452,0.2398071-0.359864,0.454258-0.3245802
		c0.2144527,0.0337565,0.3595581,0.2398076,0.3256493,0.4542594c-0.0803432,0.4831281-0.2413349,0.9199746-0.3936195,1.3383391
		l-0.0061092,0.0152745c-0.3155689,0.8657508-0.5998211,1.6621556,0.1493835,2.5573854
		c0.4481487,0.5358248,0.8620834,1.1283169,1.046751,1.8123026c0.1915398,0.7110214,0.1380806,1.5022335-0.3688755,2.3884516
		c-0.1082954,0.1875687-0.3514633,0.2532482-0.5387268,0.1454115c-0.1875687-0.108448-0.254776-0.3503933-0.1454124-0.539032
		c0.3864422-0.6768064,0.4318066-1.2682295,0.2905178-1.7898493c-0.1461754-0.5459051-0.5026779-1.0496535-0.8901882-1.5112448
		c-1.0395737-1.2437906-0.6818485-2.2462468-0.2853222-3.3331704l0.0061111-0.0174127
		C22.440012,3.6071923,22.588789,3.2054768,22.6556873,2.7955129z"/>
	<path class="st1" d="M21.6941662,3.7794869c-0.2039127,0.0740807-0.4318066-0.0320761-0.505888-0.2359886
		c-0.0753021-0.2042181,0.0308552-0.4318061,0.2352257-0.5069561l1.4864998-0.5471275
		c0.1741276-0.0639994,0.364603,0.0029023,0.4628143,0.1504526l0.9777107,1.271132
		c0.1319714,0.1712255,0.0988255,0.4205031-0.0723953,0.5524735c-0.1718407,0.1319704-0.4212723,0.099894-0.5532417-0.0724006
		l-0.814888-1.0598876L21.6941662,3.7794869z"/>
	<path class="st1" d="M14.0143719,23.2874374c2.1194744,0,4.0429688-0.8643761,5.4329357-2.2554111
		c1.3908825-1.3898144,2.2552586-3.3133125,2.2552586-5.4327831c0-2.1184006-0.8643761-4.0422058-2.2552586-5.4329367
		c-1.389967-1.3898134-3.3145351-2.2544947-5.4329357-2.2544947c-2.1176329,0-4.042202,0.8646812-5.4327831,2.2544947
		c-1.3921013,1.3917999-2.2554083,3.3157578-2.2554083,5.4329367c0,2.118248,0.863307,4.0429688,2.2543383,5.4327831
		l0.0163441,0.0175648C9.9866762,22.4299355,11.9040661,23.2874374,14.0143719,23.2874374L14.0143719,23.2874374z
		 M20.0055847,21.5903034c-1.5350723,1.5353794-3.6566811,2.4883461-5.9912128,2.4883461
		c-2.3244514,0-4.4353676-0.9456348-5.9707422-2.4686413l-0.0207739-0.0197048
		c-1.5349197-1.5349197-2.489109-3.6575966-2.489109-5.9910603c0-2.3328524,0.9541893-4.4540024,2.4901791-5.9904509
		c1.5353746-1.5352249,3.6577463-2.4883451,5.9904461-2.4883451c2.3334637,0,4.4561405,0.9531202,5.9912128,2.4883451
		c1.5341568,1.5372114,2.4883461,3.6575985,2.4883461,5.9904509C22.4939308,17.9337749,21.5397415,20.0553837,20.0055847,21.5903034
		z"/>
	<path class="st1" d="M7.2977824,16.9218502c-0.1527433-0.1533546-0.1527433-0.4049244,0-0.558279
		c0.1533546-0.1525898,0.4049234-0.1525898,0.5582776,0l4.341732,4.3770199c0.1536608,0.1522865,0.1536608,0.4038544,0,0.557209
		c-0.1522846,0.1525917-0.4038534,0.1525917-0.5572081,0L7.2977824,16.9218502z"/>
	<path class="st1" d="M11.9370594,21.4122047c-0.1072264,0.0051937-0.2150631-0.0340614-0.2964754-0.1144047
		c-0.1538134-0.1533546-0.1538134-0.4049225,0-0.557209l0.0174122-0.0178699c0.1533546-0.1533546,0.4049234-0.1533546,0.557209,0
		l0.0178709,0.0178699c0.1533546,0.1522865,0.1533546,0.4038544,0,0.557209
		C12.1524277,21.3781433,12.0442848,21.4173985,11.9370594,21.4122047z"/>
	<path class="st1" d="M12.2330761,21.2967319c-0.1527433,0.1525898-0.4032431,0.1536598-0.5565977,0.0010681
		c-0.1533546-0.1533546-0.1544237-0.4038544-0.0010691-0.5564442l8.0106373-8.0488234
		c0.1538124-0.1533546,0.4049225-0.1533546,0.5585823,0c0.1522903,0.1538134,0.1522903,0.4049234,0,0.5575142L12.2330761,21.2967319
		z"/>
	<path class="st1" d="M20.2446289,12.6936016c0.1522903,0.1533546,0.1513691,0.4038544-0.0021381,0.5564451
		c-0.1522846,0.1535072-0.4026318,0.1522856-0.5564442-0.0010691l-1.8347569-1.8352137l-5.6360846,5.6371546
		c-0.1522856,0.1533546-0.4038544,0.1533546-0.557209,0l-1.9648924-1.9670324L7.854991,16.9218502
		c-0.1533546,0.1527424-0.4038539,0.1516743-0.5572085-0.001833c-0.1527433-0.1525917-0.1515217-0.4030914,0.001833-0.5564461
		l2.1164107-2.115345c0.1522856-0.1522856,0.4027853-0.1512165,0.5561438,0.0021381l1.9648895,1.9638252l5.6360855-5.6366968
		c0.1533546-0.1527433,0.4038525-0.1515217,0.5572071,0.0007639L20.2446289,12.6936016z"/>
	<path class="st1" d="M27.3702698,4.8375416c0.035284-0.2144518,0.2402649-0.3606277,0.4542599-0.3256493
		c0.2144508,0.0348258,0.3598633,0.2401128,0.3245792,0.4542594c-0.0791206,0.4812951-0.2408772,0.9181418-0.3925514,1.3375754
		c-0.3193855,0.8715549-0.6120434,1.6731534,0.1414413,2.5734243c0.199482,0.2362938,0.3925514,0.4863348,0.5582771,0.7450829
		c0.1730595,0.268981,0.3224411,0.5564451,0.4256973,0.8593349c0.0698032,0.2049818-0.0403252,0.4318066-0.2454605,0.5016098
		c-0.2060509,0.0701094-0.4318047-0.0400181-0.5014553-0.2449999c-0.0826302-0.2381277-0.2032986-0.4710617-0.3442841-0.6896381
		c-0.1475506-0.2314062-0.32061-0.4542589-0.4976387-0.6665726c-1.0459881-1.2495947-0.6781826-2.2541895-0.2795219-3.3472228
		C27.1539841,5.6484575,27.3022995,5.2496438,27.3702698,4.8375416z"/>
	<path class="st1" d="M26.4081383,5.8192248c-0.2042179,0.0740805-0.4318066-0.0308542-0.5071087-0.234767
		c-0.0740776-0.2049818,0.0310059-0.4328752,0.2359924-0.5071087l1.4869537-0.5469747
		c0.1747398-0.0629306,0.3656693,0.0039711,0.4634247,0.1515217l0.9766426,1.269299
		c0.1330395,0.1718364,0.0998936,0.4205031-0.0719433,0.553237c-0.1712246,0.1318178-0.4206543,0.0988255-0.5521679-0.073164
		l-0.8159561-1.059124L26.4081383,5.8192248z"/>
</g>
</svg>
