<?xml version="1.0" encoding="utf-8"?>
<!-- Generator: Adobe Illustrator 22.0.1, SVG Export Plug-In . SVG Version: 6.00 Build 0)  -->
<svg version="1.1" id="Слой_1" xmlns="http://www.w3.org/2000/svg" xmlns:xlink="http://www.w3.org/1999/xlink" x="0px" y="0px"
	 viewBox="0 0 38 38.0007591" style="enable-background:new 0 0 38 38.0007591;" xml:space="preserve">
<style type="text/css">
	.st0{fill-rule:evenodd;clip-rule:evenodd;fill:#D7DDC3;}
	.st1{fill-rule:evenodd;clip-rule:evenodd;fill:#3E4530;}
</style>
<g>
	<path class="st0" d="M19.0008297,38.0007591C29.4652328,38.0007591,38,29.4652367,38,19.0014381
		C38,8.5365829,29.4652328,0,19.0008297,0C8.5358229,0,0,8.5365829,0,19.0014381
		C0,29.4652367,8.5358229,38.0007591,19.0008297,38.0007591z"/>
	<path class="st1" d="M9.7375526,30.7586174c0,0.2153606-0.176342,0.3920059-0.3918552,0.3920059
		c-0.2159662,0-0.3915529-0.1766453-0.3915529-0.3920059V16.1317139c0-0.1184196,0.0527821-0.2245874,0.1367188-0.2968788
		l9.6342611-9.6342621c0.1521454-0.1522956,0.4009342-0.1522956,0.5520153,0l9.6525612,9.6575527
		c0.0756187,0.0756187,0.1144924,0.1746788,0.1144924,0.2746468l0.0018101,4.0041561
		c0,0.21521-0.176342,0.391552-0.3915539,0.391552c-0.2162685,0-0.3920059-0.176342-0.3920059-0.391552v-3.8450546
		l-9.2610092-9.2628231l-9.2638817,9.2628231V30.7586174z"/>
	<path class="st1" d="M28.9002113,19.833849c0.1674194,0.1356602,0.1929779,0.3826294,0.0571671,0.5498981
		c-0.1356602,0.1663609-0.3835335,0.1919193-0.5498943,0.0562592c-0.6733131-0.5470238-1.4434128-0.9836464-2.2747631-1.2784061
		c-0.8011036-0.2846298-1.6692047-0.4397984-2.5720901-0.4397984c-2.1248817,0-4.0487709,0.8612957-5.4393959,2.2514668
		l-0.0173931,0.0166378c-1.3794289,1.38624-2.2351341,3.3040771-2.2351341,5.4220028
		c0,0.7518005,0.1072273,1.4780407,0.3050461,2.1575508c0.2052288,0.7061253,0.5122395,1.3729305,0.8986511,1.9790897
		c0.1144867,0.1817856,0.0612507,0.4242191-0.1200829,0.5387058c-0.180727,0.115242-0.4236145,0.0623093-0.5388584-0.1194763
		c-0.4252777-0.6680164-0.762991-1.4024239-0.9896908-2.1809921c-0.2191467-0.7560349-0.338625-1.554718-0.338625-2.3748779
		c0-2.3269348,0.941906-4.4398689,2.4638062-5.9690285l0.0205669-0.0213242
		c1.5330925-1.5333939,3.652832-2.4842224,5.9911098-2.4842224c0.9896965,0,1.9455147,0.1716537,2.830101,0.4875889
		C27.3110142,18.7506886,28.1596012,19.2310162,28.9002113,19.833849z"/>
	<path class="st1" d="M16.7428589,30.3670635c0.2155132,0,0.3918552,0.1752853,0.3918552,0.3915539
		c0,0.2153606-0.176342,0.3920059-0.3918552,0.3920059H9.3456974c-0.2159662,0-0.3915529-0.1766453-0.3915529-0.3920059
		c0-0.2162685,0.1755867-0.3915539,0.3915529-0.3915539H16.7428589z"/>
	<path class="st1" d="M9.3877411,29.1550503c-0.21521,0-0.3918552-0.1763439-0.3918552-0.3915539
		c0-0.2162685,0.1766453-0.3930645,0.3918552-0.3930645h6.4369574c0.2152109,0,0.3920069,0.176796,0.3920069,0.3930645
		c0,0.21521-0.176796,0.3915539-0.3920069,0.3915539H9.3877411z"/>
	<path class="st1" d="M9.3877411,27.1299839c-0.21521,0-0.3918552-0.176342-0.3918552-0.3927631
		c0-0.21521,0.1766453-0.3915539,0.3918552-0.3915539h6.0965261c0.2159624,0,0.3915491,0.1763439,0.3915491,0.3915539
		c0,0.2164211-0.1755867,0.3927631-0.3915491,0.3927631H9.3877411z"/>
	<path class="st1" d="M9.3877411,25.1041622c-0.21521,0-0.3918552-0.1757374-0.3918552-0.3920078
		c0-0.21521,0.1766453-0.391552,0.3918552-0.391552h6.2689362c0.2162695,0,0.3926086,0.176342,0.3926086,0.391552
		c0,0.2162704-0.1763391,0.3920078-0.3926086,0.3920078H9.3877411z"/>
	<path class="st1" d="M9.3877411,23.0801544c-0.21521,0-0.3918552-0.176796-0.3918552-0.3920059
		c0-0.2152119,0.1766453-0.3915539,0.3918552-0.3915539h6.996233c0.216423,0,0.3927612,0.176342,0.3927612,0.3915539
		c0,0.21521-0.1763382,0.3920059-0.3927612,0.3920059H9.3877411z"/>
	<path class="st1" d="M9.3877411,21.0561466c-0.21521,0-0.3918552-0.176796-0.3918552-0.3920059
		s0.1766453-0.3915539,0.3918552-0.3915539h8.4904556c0.2156639,0,0.3920059,0.1763439,0.3920059,0.3915539
		s-0.176342,0.3920059-0.3920059,0.3920059H9.3877411z"/>
	<path class="st1" d="M9.3877411,19.0309296c-0.21521,0-0.3918552-0.176342-0.3918552-0.391552
		c0-0.2162704,0.1766453-0.3918552,0.3918552-0.3918552h11.9468288c0.2152119,0,0.3920078,0.1755848,0.3920078,0.3918552
		c0,0.21521-0.176796,0.391552-0.3920078,0.391552H9.3877411z"/>
	<path class="st1" d="M25.7857838,19.0309296c-0.2152119,0-0.3920078-0.176342-0.3920078-0.391552
		c0-0.2162704,0.176796-0.3918552,0.3920078-0.3918552h2.8269253c0.2152138,0,0.391552,0.1755848,0.391552,0.3918552
		c0,0.21521-0.1763382,0.391552-0.391552,0.391552H25.7857838z"/>
	<path class="st1" d="M9.3877411,17.0051079c-0.21521,0-0.3918552-0.1766453-0.3918552-0.3929138
		c0-0.21521,0.1766453-0.3915539,0.3918552-0.3915539h19.224968c0.2152138,0,0.391552,0.1763439,0.391552,0.3915539
		c0,0.2162685-0.1763382,0.3929138-0.391552,0.3929138H9.3877411z"/>
	<path class="st1" d="M10.8892241,14.981101c-0.2162695,0-0.3926115-0.1766453-0.3926115-0.3929138
		c0-0.2152109,0.176342-0.3915529,0.3926115-0.3915529h16.2216988c0.2152138,0,0.391552,0.176342,0.391552,0.3915529
		c0,0.2162685-0.1763382,0.3929138-0.391552,0.3929138H10.8892241z"/>
	<path class="st1" d="M12.9132357,12.954977c-0.2162695,0-0.3926163-0.176343-0.3926163-0.3918562
		c0-0.21521,0.1763468-0.3917036,0.3926163-0.3917036h12.1735296c0.21521,0,0.3920059,0.1764936,0.3920059,0.3917036
		c0,0.2155132-0.176796,0.3918562-0.3920059,0.3918562H12.9132357z"/>
	<path class="st1" d="M14.9383011,10.9309692c-0.2152147,0-0.39186-0.176342-0.39186-0.3915529
		c0-0.2156639,0.1766453-0.3920069,0.39186-0.3920069h8.1233978c0.2152119,0,0.3920078,0.176343,0.3920078,0.3920069
		c0,0.2152109-0.176796,0.3915529-0.3920078,0.3915529H14.9383011z"/>
	<path class="st1" d="M16.9633675,8.9059038c-0.2152157,0-0.391861-0.176343-0.391861-0.3915529
		c0-0.2164202,0.1766453-0.3920069,0.391861-0.3920069h4.0744762c0.2150593,0,0.3918552,0.1755867,0.3918552,0.3920069
		c0,0.21521-0.176796,0.3915529-0.3918552,0.3915529H16.9633675z"/>
	<path class="st1" d="M7.1046691,17.8199749c0.1518421-0.1507835,0.4009295-0.1507835,0.5527716,0
		c0.1510859,0.1521435,0.1510859,0.4009285,0,0.5530739c-0.2825108,0.2814522-0.6528907,0.4233131-1.019187,0.4233131
		c-0.3672042,0-0.7353153-0.141861-1.0160117-0.4221039l-0.0276761-0.0288868
		c-0.2642117-0.2785778-0.3988128-0.6373119-0.3988128-0.9915104l0.0033274-0.0529327
		c0.0128551-0.3479958,0.1539593-0.6999264,0.4181709-0.9629269c0.1550179-0.1551704,0.4038033-0.1551704,0.5559478-0.0043869
		c0.1507835,0.1522961,0.1507835,0.4009304,0,0.5530758c-0.1223507,0.1212921-0.1867781,0.2785778-0.195096,0.433445
		l0.0012097,0.0337257c0,0.1622772,0.0592852,0.3242531,0.1755867,0.4499302l0.0140648,0.0133095
		c0.1317277,0.1317272,0.3011131,0.1957016,0.4692893,0.1957016C6.8065805,18.0128021,6.9768734,17.9488277,7.1046691,17.8199749z"
		/>
	<path class="st1" d="M6.1731992,16.8866901c-0.1521444,0.1509342-0.4009299,0.1509342-0.5530744,0
		c-0.1507835-0.1521454-0.1507835-0.4007797,0-0.5530758L18.7251244,3.22967c0.1521454-0.1518424,0.4009342-0.1518424,0.5520153,0
		l13.1028881,13.1039448c0.1518402,0.1522961,0.1518402,0.4009304,0,0.5530758
		c-0.1512375,0.1509342-0.3998718,0.1509342-0.5521679,0L19.0014343,4.0581474L6.1731992,16.8866901z"/>
	<path class="st1" d="M31.8278599,16.8866901c-0.1507835-0.1521454-0.1507835-0.4007797,0-0.5530758
		c0.1522961-0.1507835,0.4009304-0.1507835,0.5521679,0c0.2825089,0.282814,0.4242172,0.6521358,0.4242172,1.0202465
		c0,0.3682632-0.1417084,0.7366772-0.4221001,1.0181293l-0.0237465,0.0213242
		c-0.2781258,0.268446-0.6383705,0.4030476-0.9975586,0.4030476c-0.3672009,0-0.7366772-0.141861-1.0191879-0.4233131
		c-0.1518421-0.1521454-0.1518421-0.4009304,0-0.5530739c0.1521454-0.1507835,0.4007778-0.1507835,0.5520153,0
		c0.1274929,0.1277943,0.2986946,0.1928272,0.4671726,0.1928272c0.1640911,0,0.3284912-0.0589828,0.4531059-0.1763439
		l0.0139141-0.0164833c0.1290054-0.1274929,0.1929798-0.2965775,0.1929798-0.466114S31.9568653,17.014183,31.8278599,16.8866901z"/>
	<path class="st1" d="M30.8936672,17.8220921c0.1518421,0.1512375,0.1507835,0.3988113-0.0010586,0.5509567
		c-0.1518421,0.1507835-0.3988113,0.149725-0.5509567-0.0010586L19.0014343,7.0290504L7.6574407,18.3730488
		c-0.1518421,0.1507835-0.4009295,0.1507835-0.5527716,0c-0.1512375-0.1521454-0.1512375-0.4009304,0-0.5530739L18.7251244,6.200573
		c0.1529045-0.1522956,0.4009342-0.1510859,0.5520153,0.0010586L30.8936672,17.8220921z"/>
	<path class="st1" d="M23.5606308,34.1038322c2.1200466,0,4.0451412-0.8640175,5.4363708-2.2553997
		c1.3916893-1.3916855,2.2558537-3.3157234,2.2558537-5.4365234c0-2.1189842-0.8641644-4.0440826-2.2558537-5.4353123
		c-1.3912296-1.3916855-3.3173866-2.2558537-5.4363708-2.2558537c-2.118681,0-4.0427208,0.8652267-5.4344063,2.2569122
		c-1.3924389,1.3912315-2.2575169,3.3152695-2.2575169,5.4342537c0,2.1186829,0.8640194,4.044838,2.255703,5.4365234
		C19.5168514,33.2398148,21.4419498,34.1038322,23.5606308,34.1038322L23.5606308,34.1038322z M29.5491695,32.4001465
		c-1.5346031,1.5353584-3.6554031,2.4883041-5.9885387,2.4883041c-2.332077,0-4.4540863-0.9529457-5.9882355-2.4883041
		c-1.5343018-1.5341511-2.4872475-3.6561604-2.4872475-5.9882374s0.9540043-4.4521198,2.488306-5.9864216
		c1.5353603-1.5352077,3.6550999-2.4889088,5.9871769-2.4889088s4.4539356,0.9526424,5.9885387,2.4867916
		c1.5341492,1.5356636,2.4870968,3.6564617,2.4870968,5.9885387C32.0362663,28.7458019,31.0833187,30.8659954,29.5491695,32.4001465
		z"/>
	<path class="st1" d="M16.8478184,27.7310009c-0.1518421-0.1512375-0.1518421-0.3998718,0-0.5521679
		c0.1512356-0.1518421,0.4003239-0.1518421,0.552166,0l4.3417168,4.3755951
		c0.1510868,0.1521435,0.1521454,0.3998699,0.0010586,0.5509567c-0.1518421,0.1518402-0.3998699,0.1529007-0.5509567,0.0021172
		L16.8478184,27.7310009z"/>
	<path class="st1" d="M21.4836903,32.2206268c-0.1061687,0.0049896-0.213089-0.0335732-0.2937031-0.1131248
		c-0.1512356-0.1521454-0.1512356-0.4009304,0-0.5530739l0.0172424-0.0172424c0.1518421-0.1507835,0.4009285-0.1507835,0.5527706,0
		l0.0172462,0.0172424c0.1512375,0.1521435,0.1512375,0.4009285,0,0.5530739
		C21.6970901,32.1870537,21.589859,32.2256165,21.4836903,32.2206268z"/>
	<path class="st1" d="M21.7772465,32.107502c-0.1518459,0.1507835-0.4009342,0.1507835-0.5527763,0
		c-0.1507835-0.1521454-0.1507835-0.4009304,0-0.5530739l8.0116386-8.0461216c0.1516895-0.1518421,0.4007778-0.1518421,0.5515614,0
		c0.1518459,0.1512375,0.1518459,0.4003258,0,0.5521679L21.7772465,32.107502z"/>
	<path class="st1" d="M29.7876701,23.5083065c0.1518459,0.1512375,0.1518459,0.4003258,0,0.5521679
		c-0.1507835,0.1518421-0.3998718,0.1518421-0.5515614,0l-1.8376827-1.8382893l-5.6384258,5.6382732
		c-0.1518421,0.1519947-0.4009285,0.1519947-0.5527706,0l-1.9678993-1.968956l-1.8404007,1.8394985
		c-0.1518459,0.1518421-0.3998756,0.1507835-0.5511112-0.0012112c-0.1518421-0.1518421-0.1507835-0.3986607,0.0012093-0.5509567
		l2.1145973-2.1135387c0.1522961-0.1519947,0.4013882-0.1519947,0.5532265,0l1.9668388,1.9666882l5.6382771-5.6382732
		c0.1512375-0.1507835,0.4010773-0.1507835,0.5521641,0L29.7876701,23.5083065z"/>
</g>
</svg>
