<?xml version="1.0" encoding="utf-8"?>
<!-- Generator: Adobe Illustrator 22.0.1, SVG Export Plug-In . SVG Version: 6.00 Build 0)  -->
<svg version="1.1" id="Слой_1" xmlns="http://www.w3.org/2000/svg" xmlns:xlink="http://www.w3.org/1999/xlink" x="0px" y="0px"
	 viewBox="0 0 38 38.0010643" style="enable-background:new 0 0 38 38.0010643;" xml:space="preserve">
<style type="text/css">
	.st0{fill-rule:evenodd;clip-rule:evenodd;fill:#D7DDC3;}
	.st1{fill-rule:evenodd;clip-rule:evenodd;fill:#3E4530;}
</style>
<g>
	<path class="st0" d="M18.9996204,38.0010643C29.4634171,38.0010643,38,29.4652367,38,19.0014381
		C38,8.5365829,29.4634171,0,18.9996204,0C8.5347681,0,0,8.5365829,0,19.0014381
		C0,29.4652367,8.5347681,38.0010643,18.9996204,38.0010643z"/>
	<path class="st1" d="M14.1936054,27.8400421l-4.2786512,4.112442c-0.1541109,0.1489677-0.4027443,0.1439781-0.551713-0.0101337
		c-0.0573149-0.0592842-0.0918007-0.1317272-0.1040516-0.2084045l-0.6153803-3.703949l-3.6755166-0.7589092
		c-0.2102199-0.0417404-0.3458796-0.2490883-0.3041382-0.4603653c0.0154262-0.0806103,0.056109-0.149725,0.1111593-0.202961
		l4.1664329-4.0041561c0.1324797-0.1283989,0.3346844-0.1429176,0.4836569-0.0456734l1.2118597,0.7557335
		c0.0989084,0.0612507,0.1600084,0.1601601,0.1784592,0.2663288l0.3662968,2.1067333l2.106431,0.3649349
		c0.1217461,0.0205688,0.2195969,0.095129,0.2767649,0.195097l0.6885824,1.1067524
		C14.3527107,27.5129166,14.3232155,27.714817,14.1936054,27.8400421L14.1936054,27.8400421z M9.9076948,30.8753719
		l3.515811-3.3790913l-0.4379787-0.7027988l-2.207613-0.3815727c-0.1591015-0.0276756-0.2915859-0.1529007-0.3203211-0.3213787
		l-0.3824787-2.2074585l-0.8109331-0.5060387l-3.4135709,3.2797298l3.1889834,0.6581841
		c0.1640921,0.0234413,0.3030796,0.1518421,0.3315115,0.3242512L9.9076948,30.8753719z"/>
	<path class="st1" d="M24.5757351,27.4962807l3.5153599,3.3790913l0.5355282-3.2361736
		c0.0287342-0.1724091,0.168478-0.3008099,0.3318138-0.3242512l3.1879292-0.6581841l-3.4103985-3.2786713l-0.8121452,0.5049801
		l-0.3826294,2.2097263c-0.0284328,0.1672688-0.1622772,0.2924938-0.3203201,0.320322l-2.2063999,0.3803616L24.5757351,27.4962807
		L24.5757351,27.4962807z M28.0850468,31.9524841l-4.2806225-4.1131973c-0.1294537-0.1255283-0.1591015-0.32864-0.0600395-0.4875889
		l0.6916065-1.1049385c0.0552025-0.099968,0.1541119-0.1745281,0.2743454-0.195097l2.1056747-0.3641796l0.3659935-2.1074886
		c0.0195103-0.1061687,0.0818233-0.2050781,0.1796703-0.2663288l1.2120132-0.7539177
		c0.1489697-0.0978508,0.3519306-0.0824242,0.4844131,0.0449162l4.1643143,4.0030975
		c0.0542946,0.053236,0.0949783,0.1223507,0.1111603,0.202961c0.0421944,0.211277-0.0936165,0.4186249-0.3047409,0.4603653
		l-3.6749096,0.7589092l-0.6117573,3.703949c-0.0143642,0.0766773-0.0490017,0.1491203-0.1051064,0.2084045
		C28.4880886,32.0964622,28.2390022,32.1014519,28.0850468,31.9524841z"/>
	<path class="st1" d="M19.2166462,6.0098629l1.9506569,1.3199983l2.2445145-0.472465
		c0.1651478-0.0346332,0.3281841,0.043859,0.4131756,0.1807284l1.1894798,1.9066472l2.2074585,0.3814201
		c0.1674232,0.0288858,0.2926445,0.1622772,0.3203201,0.3213787l0.3836899,2.2076092l1.9077053,1.1926565
		c0.145792,0.0907421,0.2109756,0.2631531,0.1734676,0.4202881l-0.4692879,2.2352858l1.3201485,1.9474802
		c0.09165,0.1346016,0.0856018,0.3080711,0,0.4364719l-1.3201485,1.9477825l0.4721622,2.2460232
		c0.0346336,0.1643944-0.0428009,0.3286381-0.1784592,0.4124241l-1.9055882,1.191597l-0.3836899,2.2053413
		c-0.0284328,0.168478-0.1612186,0.2937031-0.3203201,0.3213787l-2.2074585,0.3815727l-1.1938648,1.9105778
		c-0.0895329,0.1460953-0.2619438,0.2112789-0.4202881,0.1734695l-2.2349834-0.4700451l-1.9486904,1.3209057
		c-0.1346016,0.092104-0.3080711,0.0848446-0.4366226,0l-1.9462719-1.3209057l-2.245266,0.4733715
		c-0.1656046,0.034483-0.3296976-0.0440083-0.4131804-0.180727l-1.1905394-1.9066467l-2.206852-0.3815727
		c-0.1674204-0.0284328-0.2937031-0.1622772-0.3203211-0.3213787l-0.3824787-2.2074585l-1.9107265-1.191597
		c-0.1450367-0.0896835-0.2102194-0.2620945-0.1734691-0.4204388l0.4692893-2.2358913l-1.3199983-1.9477825
		c-0.0907421-0.1346016-0.084693-0.3080711,0-0.4364719l1.3199983-1.9474802l-0.4714065-2.2463264
		c-0.0346332-0.164546,0.0428004-0.3286381,0.1795182-0.4121208l1.9067945-1.1897831l0.3824787-2.2076092
		c0.0287352-0.1680241,0.1612196-0.2937021,0.3203211-0.3213787l2.206852-0.3814201l1.1923542-1.9107308
		c0.0910454-0.1456413,0.2633076-0.211278,0.4202881-0.1734686l2.2363434,0.4692888l1.9462719-1.3189397
		C18.9146252,5.9198771,19.0880947,5.9259262,19.2166462,6.0098629L19.2166462,6.0098629z M20.8663406,8.069562l-1.8689899-1.265099
		l-1.8515949,1.2549663c-0.0866604,0.0629148-0.1967602,0.0918007-0.3091297,0.0683594l-2.141367-0.4499307l-1.1311026,1.8139386
		c-0.057168,0.0996656-0.1560774,0.1742249-0.2763109,0.1946421l-2.1058264,0.3653889l-0.3641787,2.106432
		c-0.0205688,0.1061687-0.0816689,0.2040186-0.1805773,0.2661772l-1.8290586,1.1416893L9.258131,15.705225
		c0.0193586,0.1001186,0.0010586,0.207346-0.0594358,0.2980881L7.9337511,17.869278l1.2570801,1.8534107
		c0.0621614,0.0868111,0.0905905,0.1979694,0.0672998,0.3101883l-0.4499264,2.1392498l1.8145399,1.1314049
		c0.1001186,0.0573196,0.1734686,0.156229,0.195096,0.2764626l0.3641787,2.1067333l2.1058264,0.3649349
		c0.1057148,0.0195103,0.2047749,0.0806103,0.2658749,0.1796703l1.1415386,1.8292141l2.141367-0.4508381
		c0.1001186-0.0195103,0.207346-0.0010586,0.2968788,0.0589809l1.865057,1.2661591l1.8555279-1.2578411
		c0.0845413-0.0623093,0.1969147-0.0907421,0.3091297-0.0672989l2.1403084,0.4508381l1.1324635-1.8137875
		c0.0552025-0.099968,0.1541119-0.1745281,0.2743454-0.195097l2.1067333-0.3649349l0.3659935-2.1056747
		c0.0205688-0.1061687,0.0816689-0.2040195,0.1807289-0.2663288l1.8260365-1.1415386l-0.4497795-2.1403084
		c-0.0195084-0.099968-0.0012093-0.206892,0.0589828-0.2979374l1.2649479-1.8656616l-1.2555714-1.8538666
		c-0.0633678-0.0866585-0.0918007-0.1978178-0.0683594-0.3101864l0.4497795-2.1390991l-1.8116684-1.1333714
		c-0.099968-0.0550499-0.1734695-0.1539593-0.195097-0.2744951l-0.3659935-2.106432l-2.1067333-0.3653889
		c-0.1051102-0.0193577-0.2041702-0.0806093-0.2663288-0.1795187l-1.14048-1.829062l-2.1269951,0.4467549
		C21.0736904,8.1501713,20.9613171,8.1327791,20.8663406,8.069562z"/>
	<path class="st1" d="M18.9985619,25.5601425c2.1197395,0,4.0457497-0.8641701,5.4381866-2.2547951
		c1.390625-1.3934994,2.2547951-3.3184471,2.2547951-5.4371281c0-2.1189842-0.8652287-4.0451412-2.2564602-5.4365234
		c-1.3918343-1.3913822-3.3179913-2.2553997-5.4365215-2.2553997c-2.1191349,0-4.0430241,0.8640175-5.4344053,2.2553997
		c-1.3916845,1.3913822-2.255703,3.3175392-2.255703,5.4365234c0,2.118681,0.8640184,4.0436287,2.255703,5.4353123
		C14.9555378,24.6959724,16.879427,25.5601425,18.9985619,25.5601425L18.9985619,25.5601425z M24.9866467,23.8564548
		c-1.5352097,1.5341492-3.6549492,2.4870949-5.9880848,2.4870949c-2.332077,0-4.4522676-0.9529457-5.9874802-2.4870949
		c-1.5343008-1.5353603-2.4872465-3.6561584-2.4872465-5.9882355s0.9529457-4.4540863,2.4872465-5.9885387
		c1.5352125-1.5343018,3.6554031-2.4880028,5.9874802-2.4880028s4.4539337,0.953701,5.9880848,2.4880028
		c1.5346069,1.5344524,2.4895153,3.6564608,2.4895153,5.9885387S26.5230637,22.3210945,24.9866467,23.8564548z"/>
	<path class="st1" d="M12.2869577,19.1871586c-0.1522951-0.1518421-0.1522951-0.4009304,0-0.5527725
		c0.1518421-0.1510849,0.4009304-0.1510849,0.5517139,0l4.3420191,4.3761997
		c0.1518421,0.1512375,0.1529045,0.3991146,0.0007553,0.5511074c-0.1518383,0.1518421-0.3988113,0.1529007-0.5506535,0.0010586
		L12.2869577,19.1871586z"/>
	<path class="st1" d="M16.9222298,23.6757259c-0.1057186,0.0054455-0.2129459-0.0323639-0.2924957-0.1129742
		c-0.1522961-0.1512375-0.1522961-0.4009285,0-0.552166l0.0172443-0.0172405c0.1512375-0.1518421,0.399868-0.1518421,0.5520153,0
		l0.0173893,0.0172405c0.1518421,0.1512375,0.1518421,0.4009285,0,0.552166
		C17.1357727,23.643362,17.0285454,23.6811714,16.9222298,23.6757259z"/>
	<path class="st1" d="M17.216383,23.5627518c-0.1522961,0.1518421-0.4009304,0.1518421-0.5521679,0
		c-0.1518383-0.1512375-0.1518383-0.4009285,0-0.552166l8.0104332-8.0467253c0.1518383-0.1521454,0.4009247-0.1521454,0.5527668,0
		c0.1512375,0.1518421,0.1512375,0.4009295,0,0.551713L17.216383,23.5627518z"/>
	<path class="st1" d="M25.2274151,14.9646158c0.1512375,0.1522961,0.1501789,0.4001741-0.0018139,0.5509577
		c-0.1510868,0.1518421-0.3991146,0.1512365-0.5509529-0.0010586l-1.8372345-1.8372297l-5.6384201,5.6394835
		c-0.1521473,0.1510849-0.4007778,0.1510849-0.5520153,0l-1.9689608-1.968956l-1.8404045,1.8393459
		c-0.1519938,0.1512375-0.3988132,0.1501789-0.5506554-0.0021172c-0.1522951-0.1507835-0.150178-0.3988132,0.0010595-0.5506554
		l2.1158075-2.1139927c0.1507835-0.1518421,0.3998709-0.1518421,0.551713,0l1.966692,1.9678974l5.6384201-5.6394825
		c0.1533546-0.1518421,0.4009304-0.1507835,0.5521679,0.0010586L25.2274151,14.9646158z"/>
</g>
</svg>
