<?xml version="1.0" encoding="utf-8"?>
<!-- Generator: Adobe Illustrator 22.0.1, SVG Export Plug-In . SVG Version: 6.00 Build 0)  -->
<svg version="1.1" id="Слой_1" xmlns="http://www.w3.org/2000/svg" xmlns:xlink="http://www.w3.org/1999/xlink" x="0px" y="0px"
	 viewBox="0 0 38 38.0007591" style="enable-background:new 0 0 38 38.0007591;" xml:space="preserve">
<style type="text/css">
	.st0{fill-rule:evenodd;clip-rule:evenodd;fill:#D7DDC3;}
	.st1{fill-rule:evenodd;clip-rule:evenodd;fill:#3E4530;}
</style>
<g>
	<path class="st0" d="M18.9996243,38.0007591C29.4634171,38.0007591,38,29.4652367,38,19.0003796
		C38,8.5365829,29.4634171,0,18.9996243,0C8.5347643,0,0,8.5365829,0,19.0003796
		C0,29.4652367,8.5347643,38.0007591,18.9996243,38.0007591z"/>
	<path class="st1" d="M21.8611794,15.3327274c-0.2162704,0-0.3920078-0.176342-0.3920078-0.3915529
		c0-0.2162695,0.1757374-0.3918552,0.3920078-0.3918552h2.3420582c0.2152157,0,0.3920059,0.1755857,0.3920059,0.3918552
		c0,0.2152109-0.1767902,0.3915529-0.3920059,0.3915529H21.8611794z"/>
	<path class="st1" d="M24.2032375,15.3327274c-0.2162685,0-0.3926125-0.176342-0.3926125-0.3915529
		c0-0.2162695,0.1763439-0.3918552,0.3926125-0.3918552c0.4103107,0,0.785677,0.1695366,1.0560932,0.4397974l0.0222282,0.0232906
		c0.2561951,0.271471,0.4174137,0.6356497,0.4174137,1.0347652c0,0.21521-0.1755867,0.391552-0.3918552,0.391552
		c-0.21521,0-0.391552-0.176342-0.391552-0.391552c0-0.1901054-0.0756187-0.3653898-0.195097-0.4919748l-0.0130062-0.0140657
		C24.5796661,15.4143953,24.4001484,15.3327274,24.2032375,15.3327274z"/>
	<path class="st1" d="M24.9155655,16.0471725c0-0.2162695,0.176342-0.3930664,0.391552-0.3930664
		c0.2162685,0,0.3918552,0.1767969,0.3918552,0.3930664v8.2162609c0,0.2162704-0.1755867,0.3915539-0.3918552,0.3915539
		c-0.21521,0-0.391552-0.1752834-0.391552-0.3915539V16.0471725z"/>
	<path class="st1" d="M24.9155655,24.2634335c0-0.21521,0.176342-0.3920059,0.391552-0.3920059
		c0.2162685,0,0.3918552,0.176796,0.3918552,0.3920059c0,0.4092484-0.1695366,0.7844677-0.439642,1.0569973
		c-0.2704163,0.2713203-0.6457825,0.4405537-1.0560932,0.4405537c-0.2162685,0-0.3926125-0.176342-0.3926125-0.391552
		c0-0.2156658,0.1763439-0.3920078,0.3926125-0.3920078c0.1969109,0,0.3764286-0.0816669,0.5042248-0.2079506
		C24.833746,24.6416779,24.9155655,24.4614029,24.9155655,24.2634335z"/>
	<path class="st1" d="M24.2032375,24.9774246c0.2152157,0,0.3920059,0.176342,0.3920059,0.3920078
		c0,0.21521-0.1767902,0.391552-0.3920059,0.391552H9.170414c-0.2152109,0-0.3920069-0.176342-0.3920069-0.391552
		c0-0.2156658,0.176796-0.3920078,0.3920069-0.3920078H24.2032375z"/>
	<path class="st1" d="M9.170414,24.9774246c0.2162685,0,0.3926115,0.176342,0.3926115,0.3920078
		c0,0.21521-0.176343,0.391552-0.3926115,0.391552c-0.4092484,0-0.7835598-0.1692333-1.055934-0.4397984
		c-0.2713199-0.2732849-0.4416132-0.6485043-0.4416132-1.0577526c0-0.21521,0.1763425-0.3920059,0.3915529-0.3920059
		c0.2162695,0,0.3926086,0.176796,0.3926086,0.3920059c0,0.1979694,0.0806093,0.3782444,0.2084045,0.5060406
		C8.7917156,24.8957577,8.9735031,24.9774246,9.170414,24.9774246z"/>
	<path class="st1" d="M8.4570284,24.2634335c0,0.2162704-0.1763391,0.3915539-0.3926086,0.3915539
		c-0.2152104,0-0.3915529-0.1752834-0.3915529-0.3915539v-3.3940639c0-0.2164211,0.1763425-0.3927631,0.3915529-0.3927631
		c0.2162695,0,0.3926086,0.176342,0.3926086,0.3927631V24.2634335z"/>
	<path class="st1" d="M7.7902269,21.1446209c-0.1522956-0.1507835-0.1533542-0.3988113-0.0010586-0.5506535
		c0.1507835-0.1521454,0.3986616-0.1533546,0.5504999-0.0010605c0.7094536,0.7068844,1.5559273,1.2790146,2.496623,1.6676941
		c0.9028854,0.3735542,1.8984804,0.5805988,2.9420166,0.5805988c2.1259413,0,4.0520983-0.8620529,5.4393969-2.2514687
		c1.390625-1.3913822,2.2525253-3.3154202,2.2525253-5.4415131c0-0.2164202,0.176796-0.3917046,0.3920078-0.3917046
		c0.21521,0,0.391552,0.1752844,0.391552,0.3917046c0,2.3381271-0.9497681,4.4589252-2.4828568,5.9935303
		c-1.5324898,1.5330906-3.6554012,2.4828606-5.9926252,2.4828606c-1.1436558,0-2.2380075-0.2285194-3.2378368-0.6417007
		C9.5057068,22.5546055,8.5715141,21.9251556,7.7902269,21.1446209z"/>
	<path class="st1" d="M22.251976,15.1470079c0,0.2146063-0.1745281,0.3909483-0.3886795,0.3909483
		c-0.2144547,0-0.3907967-0.1745272-0.3907967-0.3886795l-0.0010586-0.2070436c0-0.2144547,0.1734676-0.3907967,0.3886795-0.3907967
		c0.2141552,0,0.3907967,0.1734686,0.3907967,0.3886795L22.251976,15.1470079z"/>
	<path class="st1" d="M25.3071175,18.2147026c-0.21521,0-0.391552-0.176342-0.391552-0.391552
		c0-0.2162704,0.176342-0.3918552,0.391552-0.3918552h1.7814236c0.1212921,0,0.2292747,0.0550499,0.3018684,0.1429176
		l5.1957531,5.4271469c0.0735016,0.0754681,0.1090431,0.173317,0.1090431,0.2713203l0.0018158,3.8716717
		c0,0.21521-0.1763458,0.391552-0.391552,0.391552c-0.2162666,0-0.3918591-0.176342-0.3918591-0.391552v-3.7166538
		l-4.9906712-5.2129955H25.3071175z"/>
	<path class="st1" d="M31.9136105,27.144352c0-0.2152119,0.1755924-0.3920078,0.3918591-0.3920078
		c0.2152061,0,0.391552,0.176796,0.391552,0.3920078c0,0.4092464-0.1701431,0.785677-0.4414597,1.0569954
		c-0.2704163,0.2702618-0.6479034,0.4405537-1.0571461,0.4405537c-0.2162704,0-0.3926163-0.176342-0.3926163-0.3917027
		c0-0.2162704,0.1763458-0.3918571,0.3926163-0.3918571c0.1961498,0,0.3764248-0.0816669,0.5052776-0.2102184
		C31.8322449,27.5207806,31.9136105,27.3400517,31.9136105,27.144352z"/>
	<path class="st1" d="M31.1984158,27.8583412c0.2156582,0,0.3920021,0.1755867,0.3920021,0.3918571
		c0,0.2153606-0.1763439,0.3917027-0.3920021,0.3917027h-2.0485134c-0.2161179,0-0.3924561-0.176342-0.3924561-0.3917027
		c0-0.2162704,0.1763382-0.3918571,0.3924561-0.3918571H31.1984158z"/>
	<path class="st1" d="M29.5307178,28.1614208c0.0479469,0.2090111-0.0827255,0.4213467-0.2918873,0.4692898
		c-0.2102203,0.0477905-0.4221039-0.0828781-0.4703484-0.2918873c-0.0939178-0.3977547-0.322134-0.7486248-0.6333809-0.9936295
		c-0.3030796-0.2375927-0.6907005-0.383688-1.1120472-0.383688c-0.4222488,0-0.8079033,0.1450367-1.1120472,0.383688
		c-0.3088264,0.2450047-0.5384045,0.597084-0.6333809,0.994688c-0.0489998,0.2091599-0.2613373,0.3408871-0.4704933,0.2908287
		c-0.2100735-0.0490017-0.3404408-0.2613392-0.2906837-0.4703484c0.1349087-0.5712223,0.4641476-1.0710621,0.9122677-1.4263172
		c0.4387341-0.3476944,0.994381-0.5559483,1.5943375-0.5559483c0.601017,0,1.1569653,0.2082539,1.5957031,0.5541325
		C29.0674839,27.087183,29.3961163,27.5891399,29.5307178,28.1614208z"/>
	<path class="st1" d="M24.8971138,27.8583412c0.21521,0,0.3915539,0.1755867,0.3915539,0.3918571
		c0,0.2153606-0.1763439,0.3917027-0.3915539,0.3917027H17.806963c-0.2162685,0-0.3926105-0.176342-0.3926105-0.3917027
		c0-0.2162704,0.176342-0.3918571,0.3926105-0.3918571H24.8971138z"/>
	<path class="st1" d="M18.1874809,28.1614208c0.0480881,0.2090111-0.0825806,0.4213467-0.2915897,0.4692898
		c-0.2102203,0.0477905-0.4225559-0.0828781-0.4703484-0.2918873c-0.0928593-0.3977547-0.3224335-0.7486248-0.6333809-0.9936295
		c-0.3030758-0.2375927-0.6899433-0.383688-1.1121941-0.383688c-0.4224091,0-0.8079128,0.1450367-1.112051,0.383688
		c-0.3091288,0.2450047-0.5387068,0.597084-0.6333809,0.994688c-0.0488501,0.2091599-0.2611866,0.3408871-0.4703474,0.2908287
		c-0.2102203-0.0490017-0.3407373-0.2613392-0.2908297-0.4703484c0.1356602-0.5712223,0.4642982-1.0710621,0.9119606-1.4263172
		c0.4387388-0.3476944,0.9948378-0.5559483,1.5946484-0.5559483c0.6007099,0,1.1568089,0.2082539,1.5953979,0.5541325
		C17.7242374,27.087183,18.0527248,27.5891399,18.1874809,28.1614208z"/>
	<path class="st1" d="M13.5538721,27.8583412c0.2162685,0,0.3918552,0.1755867,0.3918552,0.3918571
		c0,0.2153606-0.1755867,0.3917027-0.3918552,0.3917027h-2.0485077c-0.2162695,0-0.3915529-0.176342-0.3915529-0.3917027
		c0-0.2162704,0.1752834-0.3918571,0.3915529-0.3918571H13.5538721z"/>
	<path class="st1" d="M11.5053644,27.8583412c0.2155132,0,0.3918552,0.1755867,0.3918552,0.3918571
		c0,0.2153606-0.176342,0.3917027-0.3918552,0.3917027c-0.4089451,0-0.7864332-0.1702919-1.0577526-0.4405537
		c-0.2713194-0.2713184-0.4408569-0.6477489-0.4408569-1.0569954c0-0.2152119,0.1755867-0.3920078,0.3918562-0.3920078
		c0.21521,0,0.3915529,0.176796,0.3915529,0.3920078c0,0.1956997,0.0818195,0.3764286,0.2091608,0.5037708
		C11.1281786,27.7766743,11.3095121,27.8583412,11.5053644,27.8583412z"/>
	<path class="st1" d="M10.790164,27.144352c0,0.21521-0.176343,0.391552-0.3915529,0.391552
		c-0.2162695,0-0.3918562-0.176342-0.3918562-0.391552v-1.7749195c0-0.2156658,0.1755867-0.3920078,0.3918562-0.3920078h13.8028126
		c0.2164192,0,0.3927612,0.176342,0.3927612,0.3920078c0,0.21521-0.176342,0.391552-0.3927612,0.391552H10.790164V27.144352z"/>
	<path class="st1" d="M24.2014236,25.7609844c-0.2155094,0-0.3918571-0.176342-0.3918571-0.391552
		c0-0.2156658,0.1763477-0.3920078,0.3918571-0.3920078c0.1976662,0,0.3782425-0.0816669,0.5049801-0.2079506
		c0.1273422-0.1296101,0.2091618-0.310339,0.2091618-0.5070992c0-0.21521,0.176342-0.3920059,0.391552-0.3920059
		c0.2162685,0,0.3918552,0.176796,0.3918552,0.3920059c0,0.4103069-0.1695366,0.7862835-0.440855,1.0580559
		C24.9878559,25.5917511,24.6124859,25.7609844,24.2014236,25.7609844z"/>
	<path class="st1" d="M25.6989727,24.2623749c0,0.2152119-0.1755867,0.3915539-0.3918552,0.3915539
		c-0.21521,0-0.391552-0.176342-0.391552-0.3915539v-6.4392242c0-0.2162704,0.176342-0.3918552,0.391552-0.3918552
		c0.2162685,0,0.3918552,0.1755848,0.3918552,0.3918552V24.2623749z"/>
	<path class="st1" d="M25.9110069,18.818594c0-0.2152119,0.1766453-0.3915539,0.3929157-0.3915539
		c0.2152138,0,0.391552,0.176342,0.391552,0.3915539v5.4437809c0,0.2152119-0.1763382,0.3915539-0.391552,0.3915539
		c-0.2162704,0-0.3929157-0.176342-0.3929157-0.3915539V18.818594z"/>
	<path class="st1" d="M25.9110069,24.2623749c0-0.21521,0.1766453-0.3920059,0.3929157-0.3920059
		c0.2152138,0,0.391552,0.176796,0.391552,0.3920059l-0.0172405,0.2773705l-0.0467319,0.2746468
		c-0.0482445,0.2097645-0.2592201,0.3414936-0.4682312,0.2937012c-0.2102184-0.0479412-0.3419476-0.2590694-0.2940044-0.4682293
		L25.9110069,24.2623749z"/>
	<path class="st1" d="M26.2506866,25.1192856c-0.2162685,0-0.3926125-0.176342-0.3926125-0.3915539
		c0-0.2164192,0.1763439-0.3930645,0.3926125-0.3930645h4.6662712v-0.5078545l-4.419302-4.6162128h-0.1937332
		c-0.2162704,0-0.3929157-0.1755867-0.3929157-0.3920059c0-0.2152119,0.1766453-0.3915539,0.3929157-0.3915539h0.3591881
		c0.1029911,0.0018158,0.2047749,0.0417423,0.2814522,0.1202335l4.6274071,4.8336926
		c0.0784893,0.0722904,0.1296062,0.176342,0.1296062,0.2908287v1.0559368c0,0.2152119-0.1766453,0.3915539-0.3926105,0.3915539
		H26.2506866z"/>
	<path class="st1" d="M15.6799679,26.1780968c0.7089958,0,1.3535728,0.2878036,1.821043,0.7549763l0.0184517,0.0205688
		c0.4559803,0.4641457,0.7374325,1.1016102,0.7374325,1.7994194c0,0.7089996-0.2887077,1.3538742-0.7558842,1.8199883
		c-0.4674702,0.46702-1.1120472,0.7560349-1.821043,0.7560349c-0.7077894,0-1.3528204-0.2890148-1.8198404-0.7560349
		l-0.0184507-0.0195103c-0.4559765-0.4642982-0.7377357-1.1005535-0.7377357-1.800478
		c0-0.7079411,0.2897711-1.3535728,0.7572451-1.8178711C14.3271475,26.4659004,14.9721785,26.1780968,15.6799679,26.1780968
		L15.6799679,26.1780968z M16.9489956,27.4858456c-0.3234959-0.3231945-0.7732754-0.5243397-1.2690277-0.5243397
		c-0.4948521,0-0.9446316,0.2011452-1.2681274,0.5243397c-0.3242521,0.3213787-0.5232811,0.7705517-0.5232811,1.2672157
		c0,0.4898567,0.192832,0.9313183,0.5058928,1.2516384l0.0173883,0.0166359
		c0.3234959,0.3231945,0.7732754,0.5243397,1.2681274,0.5243397c0.4957523,0,0.9455318-0.2011452,1.2690277-0.5243397
		c0.3224373-0.3224373,0.5232811-0.7723675,0.5232811-1.2682743c0-0.4887981-0.1928291-0.9304123-0.5060406-1.251791
		L16.9489956,27.4858456z"/>
	<path class="st1" d="M27.0230541,26.1780968c0.7071857,0,1.3528175,0.2896194,1.8181744,0.7549763
		c0.4688339,0.4671707,0.7567902,1.1131058,0.7567902,1.8199883c0,0.7089996-0.2879562,1.3538742-0.7549763,1.8199883
		l-0.0202656,0.0193577c-0.4641476,0.4559803-1.1019135,0.7366772-1.7997227,0.7366772
		c-0.7089996,0-1.3535728-0.2890148-1.8199883-0.7560349l-0.0193539-0.0195103
		c-0.4561348-0.4642982-0.7363777-1.1005535-0.7363777-1.800478c0-0.7079411,0.2896194-1.3535728,0.7567902-1.8178711
		C25.6694813,26.4659004,26.3140545,26.1780968,27.0230541,26.1780968L27.0230541,26.1780968z M28.2901249,27.4840298
		c-0.3213844-0.3224373-0.7701054-0.5225239-1.2670708-0.5225239c-0.4956036,0-0.945837,0.2011452-1.267971,0.5243397
		c-0.3245564,0.3213787-0.5243397,0.7705517-0.5243397,1.2672157c0,0.4898567,0.1935825,0.9313183,0.5070972,1.2516384
		l0.0172424,0.0166359c0.322134,0.3231945,0.7723675,0.5243397,1.267971,0.5243397
		c0.4886475,0,0.9302597-0.1940365,1.2516403-0.5070992l0.0154305-0.0172405
		c0.3233395-0.3224373,0.5244846-0.7723675,0.5244846-1.2682743C28.8146095,28.2563972,28.6145229,27.8072243,28.2901249,27.4840298
		z"/>
	<path class="st1" d="M13.7783079,22.8399906c2.1191349,0,4.0440817-0.8637161,5.4365225-2.2564602
		c1.3913822-1.3913822,2.2553997-3.316328,2.2553997-5.4353123c0-2.1186819-0.8640175-4.0427208-2.2553997-5.4354639
		c-1.3924408-1.3913822-3.3173876-2.2564588-5.4365225-2.2564588c-2.1189842,0-4.0428724,0.8650765-5.4342537,2.2564588
		c-1.3922863,1.3927431-2.257514,3.316782-2.257514,5.4354639c0,2.1189842,0.864018,4.0439301,2.2553997,5.4353123
		C9.7343769,21.9762745,11.6593237,22.8399906,13.7783079,22.8399906L13.7783079,22.8399906z M19.7665443,21.1367569
		c-1.5341511,1.5341492-3.6560078,2.4867935-5.9882364,2.4867935c-2.332077,0-4.4539347-0.9526443-5.988081-2.4867935
		c-1.5346036-1.5356617-2.4872465-3.6564617-2.4872465-5.9885387c0-2.3322287,0.9537015-4.4530277,2.4878516-5.9871769
		c1.5356622-1.5346041,3.6553988-2.4893646,5.9874759-2.4893646c2.3322287,0,4.4540854,0.9547606,5.9882364,2.4893646
		c1.5346031,1.5341492,2.4872456,3.6549482,2.4872456,5.9871769C22.2537899,17.4802952,21.3011475,19.6010952,19.7665443,21.1367569
		z"/>
	<path class="st1" d="M7.0668597,16.4671574c-0.1522961-0.1518421-0.1522961-0.4009304,0-0.5527716
		c0.1507835-0.1507835,0.3997197-0.1507835,0.551713,0l4.3420157,4.376502c0.1507835,0.1509342,0.1507835,0.4009285,0,0.551712
		c-0.1522923,0.1522961-0.4009295,0.1522961-0.5532255,0L7.0668597,16.4671574z"/>
	<path class="st1" d="M11.701519,20.956028c-0.111311,0.0049915-0.2224703-0.0356922-0.3030758-0.1234093
		c-0.1468544-0.1572857-0.1388388-0.4048615,0.0195065-0.552166l0.0183029-0.0172424
		c0.1580391-0.1468506,0.4059172-0.1377773,0.5527687,0.0205688l0.0155773,0.0161819
		c0.1466999,0.1583462,0.138382,0.40592-0.0195103,0.5530739C11.904479,20.9265366,11.802247,20.9610195,11.701519,20.956028z"/>
	<path class="st1" d="M11.9950705,20.8425999c-0.1518421,0.1522961-0.4007788,0.1522961-0.5527678,0
		c-0.1510897-0.1507835-0.1510897-0.4007778,0-0.551712l8.0122395-8.0470285c0.1518421-0.1518421,0.4009285-0.1518421,0.5527706,0
		c0.1512375,0.1518421,0.1512375,0.4009295,0,0.5520163L11.9950705,20.8425999z"/>
	<path class="st1" d="M20.0073128,12.2449179c0.1512375,0.1518421,0.1501789,0.3998709-0.0018139,0.5509577
		c-0.1510868,0.1518421-0.3991146,0.1507835-0.5509567-0.0010595l-1.837225-1.8372288l-5.6384296,5.6391802
		c-0.1521444,0.1510868-0.4009295,0.1510868-0.5520153,0l-1.9689569-1.9686537l-1.8393426,1.8390436
		c-0.1519933,0.1510868-0.4009295,0.1510868-0.551713,0c-0.1522961-0.1518421-0.1522961-0.4009304,0-0.5527716l2.114594-2.1147499
		c0.1519938-0.1522951,0.4010811-0.1522951,0.5529232,0l1.9678984,1.9689569l5.6385756-5.6394825
		c0.1530514-0.1521454,0.4009304-0.1510859,0.5517178,0.0010586L20.0073128,12.2449179z"/>
</g>
</svg>
