<?xml version="1.0" encoding="utf-8"?>
<!-- Generator: Adobe Illustrator 22.0.1, SVG Export Plug-In . SVG Version: 6.00 Build 0)  -->
<svg version="1.1" id="Слой_1" xmlns="http://www.w3.org/2000/svg" xmlns:xlink="http://www.w3.org/1999/xlink" x="0px" y="0px"
	 viewBox="0 0 37.9995613 38" style="enable-background:new 0 0 37.9995613 38;" xml:space="preserve">
<style type="text/css">
	.st0{fill-rule:evenodd;clip-rule:evenodd;fill:#D7DDC3;}
	.st1{fill-rule:evenodd;clip-rule:evenodd;fill:#3E4530;}
</style>
<path class="st0" d="M18.9997807,38c10.4643173,0,18.9997807-8.5354614,18.9997807-19.0002193
	C37.9995613,8.5356083,29.464098,0,18.9997807,0C8.5351696,0,0,8.5356083,0,18.9997807C0,29.4645386,8.5351696,38,18.9997807,38z"/>
<g>
	<path class="st1" d="M13.7285633,14.1948977c1.265769,1.266839,2.9967232,2.0536852,4.9054565,2.1478815l-0.0103474,7.2006989
		h-2.2878399c-0.2087307,0-0.3794622,0.1698399-0.3794622,0.3788376c0,0.2079296,0.1707315,0.3783932,0.3794622,0.3783932h5.3265762
		c0.2089996,0,0.3786602-0.1704636,0.3786602-0.3783932c0-0.2089977-0.1696606-0.3788376-0.3786602-0.3788376h-2.2865009
		l0.010704-7.2030182c1.9001694-0.0997276,3.6228275-0.8838968,4.8844032-2.1455622
		c1.3483696-1.34828,2.1844559-3.2143745,2.1844559-5.2718954c0-2.0574312-0.8360863-3.9225445-2.1854362-5.2713594
		c-1.3506889-1.3486369-3.2138386-2.1846328-5.2712708-2.1846328c-2.0554695,0-3.9226341,0.835996-5.2702007,2.1846328
		c-1.3487253,1.3488152-2.1848106,3.2149098-2.1848106,5.2713594c0,2.0472631,0.8291273,3.9017611,2.1649189,5.251379
		L13.7285633,14.1948977z M14.261631,4.1859593c1.2105532-1.2107315,2.8876305-1.9609158,4.737133-1.9609158
		c1.8512859,0,3.5281849,0.7501843,4.7388268,1.9609158c1.2105541,1.2094822,1.9607372,2.8853993,1.9607372,4.7370429
		c0,1.8511086-0.7501831,3.5281849-1.9607372,4.7387381c-1.1234913,1.1226006-2.6564198,1.8219395-4.3498192,1.9206858
		l0.0049057-3.3367586l3.9724083-2.7551651c0.1703758-0.1172113,0.212925-0.3536844,0.0946426-0.523345
		c-0.1175671-0.1703749-0.3530598-0.213994-0.5237007-0.0957136l-3.5420113,2.4558945l0.0040131-2.6885319
		c0.0068684-0.1329098-0.0574455-0.2659988-0.1774216-0.3408384l-3.9639339-2.4625845
		c-0.1767082-0.1094503-0.4104156-0.055305-0.519599,0.1209569c-0.109539,0.1767082-0.0552149,0.4101486,0.121047,0.5195985
		l3.7866898,2.3513508l-0.0097218,6.7576342c-1.7027664-0.092948-3.2444353-0.7949629-4.3734589-1.9231834l-0.0165911-0.0159664
		c-1.2006512-1.2101965-1.9440565-2.8802261-1.9440565-4.7227716C12.3009834,7.0725183,13.0509892,5.3954415,14.261631,4.1859593z"
		/>
	<path class="st1" d="M31.3916111,14.9157343c-0.6836395-0.0456705-1.4386406,0.3582335-1.5827904,1.371562l-0.8820248,6.0542812
		l-0.0318451,0.0280094c-0.004549-0.0350571-0.0022297-0.0723419-0.0091877-0.1065063
		c-0.0584259-0.2907982-0.2013264-0.547163-0.4121094-0.7433167c-0.205164-0.189106-0.4754448-0.32621-0.7947865-0.3804436
		c-0.5629501-0.097765-1.2944012,0.0549469-2.0988197,0.5894432l-4.7763805,4.7663002
		c-0.0728779,0.0741272-0.1094513,0.1709099-0.1122169,0.2671585v7.5296745c0,0.2091751,0.1703758,0.379818,0.3793736,0.379818
		c0.2080193,0,0.3786602-0.1706429,0.3786602-0.379818v-7.3749084l4.5792465-4.5788002
		c0.6121006-0.3997116,1.1386566-0.5196877,1.5240955-0.452877c0.1685905,0.0289021,0.3083706,0.097765,0.4088993,0.1895542
		c0.0927696,0.0876846,0.1600285,0.204895,0.1852722,0.3360214c0.0451355,0.22229-0.0265827,0.5039883-0.2069473,0.7991562
		l-2.6683731,2.3484955c-0.1669846,0.1455765-0.1826839,0.399622-0.0356808,0.5666084
		c0.1441498,0.1655579,0.4010506,0.1812572,0.5666084,0.0356808l3.7664433-3.3140125
		c0.0713596-0.0627995,0.1184578-0.1484318,0.1327305-0.2426281l0.9034328-6.2012863
		c0.095623-0.6736488,0.5623264-0.7007666,0.7307377-0.6850662c0.3239803,0.0228348,0.6522408,0.2454824,0.6536694,0.6037159
		l-0.4709835,8.0081482l-5.2436199,6.7536221c-0.0556602,0.0713596-0.0856323,0.1569939-0.0856323,0.2469082v3.1884174
		c0,0.2226486,0.1798306,0.4024773,0.4024773,0.4024773s0.4024773-0.1798286,0.4024773-0.4024773v-3.0499763l5.2350559-6.7436295
		c0.0499496-0.0642262,0.0799217-0.1427231,0.0842056-0.2226467l0.4795456-8.1580086
		C32.7902908,15.4794874,32.0695419,14.9628334,31.3916111,14.9157343z"/>
	<path class="st1" d="M17.1955566,26.4950638l-4.7763815-4.7663002c-0.8044186-0.5344963-1.5358706-0.6872082-2.0988207-0.5894432
		c-0.3193417,0.0542336-0.5895329,0.1913376-0.7963018,0.3815136c-0.209177,0.1950836-0.3520775,0.4503784-0.4101477,0.7422466
		c-0.0089207,0.0438862-0.006958,0.09161-0.0118637,0.1370125l-0.0513802-0.0452251l-0.8830948-6.0622196
		c-0.0949106-0.6721334-0.4635797-1.0752344-0.9069109-1.251853c-0.2101588-0.0834932-0.4378901-0.1141777-0.6556306-0.098568
		c-0.2170272,0.0150747-0.4348574,0.0789433-0.6249456,0.1805439c-0.4212093,0.225769-0.7366257,0.6447477-0.7474189,1.1988668
		l0.4761572,8.1514969c-0.0011597,0.083849,0.0235491,0.1676102,0.0789433,0.2378998l5.241745,6.7496967v3.0580025
		c0,0.2082863,0.1693935,0.3786621,0.3783932,0.3786621c0.2079287,0,0.3786602-0.1703758,0.3786602-0.3786621v-3.1870766
		c0-0.0876865-0.0295258-0.1685925-0.0800142-0.2326374L6.456058,24.3362103l-0.4701805-8.0076141
		c0.0066009-0.2466412,0.1548533-0.4368191,0.3488665-0.5416307c0.097765-0.0509338,0.211051-0.0854549,0.3224635-0.0925016
		c0.1101637-0.0068693,0.2235389,0.0070467,0.3233552,0.0463839c0.2089992,0.0836716,0.3874912,0.2948999,0.4386034,0.6586637
		l0.903254,6.2009277c0.0133801,0.0925026,0.0589619,0.1724281,0.1240797,0.2294273l3.7647467,3.3123169
		c0.1568165,0.1370144,0.3974819,0.123455,0.5344067-0.0333614c0.1371021-0.1558342,0.1220274-0.3962326-0.0337181-0.5331573
		l-2.6257343-2.3098717c-0.209445-0.3162193-0.2819662-0.6182537-0.2339754-0.8549061
		c0.0257788-0.1311264,0.0917883-0.2483368,0.1853609-0.3360214c0.1005297-0.0917892,0.2406654-0.1606522,0.4088993-0.1895542
		c0.3868666-0.0668106,0.9150286,0.0531654,1.5282879,0.4546604l4.5760345,4.5753212v7.3766041
		c0,0.2091751,0.1706429,0.379818,0.3796425,0.379818c0.2080173,0,0.3783913-0.1706429,0.3783913-0.379818l-0.0027637-7.5296745
		C17.306078,26.6659737,17.2695045,26.569191,17.1955566,26.4950638z"/>
</g>
</svg>
