<?xml version="1.0" encoding="UTF-8"?>
<!DOCTYPE svg PUBLIC "-//W3C//DTD SVG 1.1//EN" "http://www.w3.org/Graphics/SVG/1.1/DTD/svg11.dtd">
<!-- Creator: CorelDRAW 2018 (64-Bit) -->
<svg xmlns="http://www.w3.org/2000/svg" xml:space="preserve" width="17.1835mm" height="17.0585mm" version="1.1" style="shape-rendering:geometricPrecision; text-rendering:geometricPrecision; image-rendering:optimizeQuality; fill-rule:evenodd; clip-rule:evenodd"
viewBox="0 0 175.19 173.92"
 xmlns:xlink="http://www.w3.org/1999/xlink">
 <defs>
  <style type="text/css">
   <![CDATA[
    .str1 {stroke:#4C4F3B;stroke-width:2.55;stroke-linecap:round;stroke-linejoin:round;stroke-miterlimit:22.926}
    .str0 {stroke:#99B32E;stroke-width:2.55;stroke-linecap:round;stroke-linejoin:round;stroke-miterlimit:22.926}
    .fil2 {fill:none}
    .fil0 {fill:#4C4F3B}
    .fil4 {fill:#96B11F}
    .fil3 {fill:#BED13A}
    .fil1 {fill:#E4E8D0}
   ]]>
  </style>
 </defs>
 <g id="Слой_x0020_1">
  <metadata id="CorelCorpID_0Corel-Layer"/>
  <g id="_1563954963536">
   <path class="fil0" d="M27.38 0l-2.86 0 0 45.29 0 1.43 112.62 0 0 -46.72 -2.86 0 0 43.87 -106.9 0 0 -43.87zm124.04 0l0 49.58c0,3.14 -1.29,6 -3.36,8.07 -2.07,2.08 -4.93,3.36 -8.07,3.36l-118.33 0c-3.14,0 -6,-1.28 -8.07,-3.36 -2.07,-2.07 -3.36,-4.92 -3.36,-8.07l0 -49.58 2.86 0 0 49.58c0,2.35 0.96,4.5 2.52,6.05 1.55,1.56 3.69,2.53 6.05,2.53l118.33 0c2.35,0 4.5,-0.97 6.05,-2.53 1.55,-1.55 2.52,-3.69 2.52,-6.05l0 -49.58 2.86 0z"/>
   <path class="fil1" d="M12.65 69.41l-0.38 0 0 -0.02 0.38 0.02zm147.74 -30.32l0 30.28c-49,0 -97.99,0.03 -146.99,0.03 7.87,-0.21 14.18,-6.92 14.18,-15.17 0,-8.25 -6.31,-14.96 -14.18,-15.17 49,0 98,0.02 146.99,0.02zm-148.12 -0.02l0.38 0 -0.38 0.01 0 -0.01z"/>
   <path class="fil2 str0" d="M12.65 69.41l-0.38 0 0 -0.02 0.38 0.02zm147.74 -30.32l0 30.28c-49,0 -97.99,0.03 -146.99,0.03 7.87,-0.21 14.18,-6.92 14.18,-15.17 0,-8.25 -6.31,-14.96 -14.18,-15.17 49,0 98,0.02 146.99,0.02zm-148.12 -0.02l0.38 0 -0.38 0.01 0 -0.01z"/>
   <path class="fil1" d="M12.65 99.74l-0.38 0 0 -0.02 0.38 0.02zm147.74 -30.31l0 30.28c-49,0 -97.99,0.03 -146.99,0.03 7.87,-0.2 14.18,-6.92 14.18,-15.17 0,-8.25 -6.31,-14.96 -14.18,-15.17 49,0 98,0.03 146.99,0.03zm-148.12 -0.03l0.38 0 -0.38 0.01 0 -0.01z"/>
   <path class="fil2 str0" d="M12.65 99.74l-0.38 0 0 -0.02 0.38 0.02zm147.74 -30.31l0 30.28c-49,0 -97.99,0.03 -146.99,0.03 7.87,-0.2 14.18,-6.92 14.18,-15.17 0,-8.25 -6.31,-14.96 -14.18,-15.17 49,0 98,0.03 146.99,0.03zm-148.12 -0.03l0.38 0 -0.38 0.01 0 -0.01z"/>
   <path class="fil1" d="M12.65 130.09l-0.38 0 0 -0.02 0.38 0.02zm147.74 -30.31l0 30.28c-49,0 -97.99,0.03 -146.99,0.03 7.87,-0.21 14.18,-6.92 14.18,-15.17 0,-8.24 -6.31,-14.96 -14.18,-15.17 49,0 98,0.03 146.99,0.03zm-148.12 -0.03l0.38 0 -0.38 0.01 0 -0.01z"/>
   <path class="fil2 str0" d="M12.65 130.09l-0.38 0 0 -0.02 0.38 0.02zm147.74 -30.31l0 30.28c-49,0 -97.99,0.03 -146.99,0.03 7.87,-0.21 14.18,-6.92 14.18,-15.17 0,-8.24 -6.31,-14.96 -14.18,-15.17 49,0 98,0.03 146.99,0.03zm-148.12 -0.03l0.38 0 -0.38 0.01 0 -0.01z"/>
   <polygon class="fil3 str0" points="1.28,69.38 30.31,69.38 30.31,39.09 1.28,39.09 "/>
   <polygon class="fil3 str0" points="1.28,99.72 30.31,99.72 30.31,69.43 1.28,69.43 "/>
   <polygon class="fil3 str0" points="1.28,130.06 30.31,130.06 30.31,99.78 1.28,99.78 "/>
   <path class="fil0" d="M32.16 47.08c1.58,0 2.37,-1.94 1.29,-3.02 -0.26,-0.31 -0.8,-0.55 -1.29,-0.55l-4.64 0c-0.53,-0.97 -1.94,-1.3 -2.81,-0.44 -0.31,0.27 -0.55,0.8 -0.55,1.3l0 0.93c0,1.12 0.97,1.84 1.92,1.78l6.08 0zm17.85 0c1.59,0 2.37,-1.94 1.29,-3.02 -0.26,-0.31 -0.8,-0.55 -1.29,-0.55l-7.14 0c-1.59,0 -2.37,1.94 -1.3,3.02 0.26,0.31 0.8,0.55 1.3,0.55l7.14 0zm17.85 0c1.59,0 2.37,-1.94 1.29,-3.02 -0.26,-0.31 -0.8,-0.55 -1.29,-0.55l-7.14 0c-1.59,0 -2.37,1.94 -1.29,3.02 0.26,0.31 0.8,0.55 1.29,0.55l7.14 0zm17.86 0c1.58,0 2.37,-1.94 1.29,-3.02 -0.26,-0.31 -0.8,-0.55 -1.29,-0.55l-7.15 0c-1.58,0 -2.37,1.94 -1.29,3.02 0.26,0.31 0.8,0.55 1.29,0.55l7.15 0zm17.85 0c1.59,0 2.37,-1.94 1.29,-3.02 -0.27,-0.31 -0.8,-0.55 -1.29,-0.55l-7.14 0c-1.59,0 -2.37,1.94 -1.3,3.02 0.26,0.31 0.8,0.55 1.3,0.55l7.14 0zm17.85 0c1.59,0 2.37,-1.94 1.29,-3.02 -0.26,-0.31 -0.8,-0.55 -1.29,-0.55l-7.14 0c-1.59,0 -2.37,1.94 -1.3,3.02 0.27,0.31 0.8,0.55 1.3,0.55l7.14 0zm16.05 -5.37c0,-1.59 -1.94,-2.37 -3.01,-1.29 -0.32,0.26 -0.56,0.8 -0.56,1.29l0 1.8 -1.77 0c-1.58,0 -2.37,1.94 -1.29,3.02 0.26,0.31 0.8,0.55 1.29,0.55l3.56 0c1.12,0 1.85,-0.97 1.78,-1.93l0 -3.45zm10.91 -0.83c0.53,0.99 1.95,1.33 2.82,0.46 0.31,-0.26 0.55,-0.8 0.55,-1.29l0 -0.86c0.03,-0.47 -0.12,-0.95 -0.49,-1.32 -0.26,-0.32 -0.8,-0.55 -1.29,-0.55l-6.18 0c-1.59,0 -2.37,1.93 -1.29,3.01 0.26,0.32 0.8,0.56 1.29,0.56l4.6 0zm-2.91 14.77c-1.64,1.37 0.44,4.28 2.42,2.63 2.14,-2 3.4,-4.41 3.78,-7.32 0.28,-2.29 -3.25,-2.79 -3.55,-0.41 0,1.65 -1.41,3.98 -2.6,5.06l-0.05 0.04zm-15.99 2.14c-1.59,0 -2.37,1.94 -1.29,3.02 0.26,0.31 0.8,0.55 1.29,0.55l7.14 0c1.59,0 2.37,-1.94 1.3,-3.02 -0.27,-0.32 -0.8,-0.55 -1.3,-0.55l-7.14 0zm-17.86 0c-1.58,0 -2.37,1.94 -1.29,3.02 0.26,0.31 0.8,0.55 1.29,0.55l7.15 0c1.58,0 2.37,-1.94 1.29,-3.02 -0.26,-0.32 -0.8,-0.55 -1.29,-0.55l-7.15 0zm-17.85 0c-1.58,0 -2.37,1.94 -1.29,3.02 0.26,0.31 0.8,0.55 1.29,0.55l7.15 0c1.58,0 2.37,-1.94 1.29,-3.02 -0.26,-0.32 -0.8,-0.55 -1.29,-0.55l-7.15 0zm-17.85 0c-1.58,0 -2.37,1.94 -1.29,3.02 0.26,0.31 0.8,0.55 1.29,0.55l7.14 0c1.59,0 2.37,-1.94 1.29,-3.02 -0.26,-0.32 -0.8,-0.55 -1.29,-0.55l-7.14 0zm-17.85 0c-1.59,0 -2.37,1.94 -1.3,3.02 0.26,0.31 0.8,0.55 1.3,0.55l7.14 0c1.58,0 2.37,-1.94 1.29,-3.02 -0.26,-0.32 -0.8,-0.55 -1.29,-0.55l-7.14 0zm-17.85 0c-1.59,0 -2.37,1.94 -1.3,3.02 0.26,0.31 0.8,0.55 1.3,0.55l7.14 0c1.58,0 2.37,-1.94 1.29,-3.02 -0.26,-0.32 -0.8,-0.55 -1.29,-0.55l-7.14 0zm-26.78 -8.87c0,-1.58 -1.94,-2.37 -3.02,-1.29 -0.32,0.27 -0.55,0.8 -0.55,1.29l0 0.66c0,2.62 0.85,5.03 2.41,7.12 1.63,1.96 4.22,-0.5 2.84,-2.17 -1.09,-1.46 -1.68,-3.13 -1.68,-4.95l0 -0.66zm16.85 12.44c1.59,0 2.37,-1.94 1.3,-3.02 -0.27,-0.32 -0.8,-0.55 -1.3,-0.55l-0.74 0 -0.03 0 -0.02 0 -2.88 0 -3.47 0c-1.59,0 -2.37,1.94 -1.29,3.02 0.26,0.31 0.8,0.55 1.29,0.55l3.43 0 0.03 0 0.02 0 2.88 0 0.79 0zm-18.62 -24l-0.05 0.02c-0.35,0.12 -0.62,0.34 -0.81,0.62l-0.06 0.09c-0.07,0.11 -0.13,0.23 -0.17,0.36l-0.09 0.36c-0.06,0.37 -0.02,0.75 0.17,1.08l0.02 0.03c0.26,0.54 0.8,0.95 1.63,0.95l0.38 -0.01 0.34 -0.04 0.36 0.04 7.14 0c1.59,0 2.37,-1.94 1.3,-3.02 -0.26,-0.31 -0.8,-0.55 -1.3,-0.55l-7.14 0 -0.38 0.04c-0.26,-0.03 -0.41,-0.04 -0.66,-0.04 -0.22,-0.02 -0.45,0.01 -0.66,0.08z"/>
   <g>
    <path class="fil4" d="M76.71 138.31c11.52,11.52 22.55,22.82 34.07,34.33l0.14 -0.13 0.14 0.13c20.99,-20.99 41.76,-42.03 62.87,-63.13l-16.59 -16.59 -46.41 46.41 -17.61 -17.61 -16.59 16.59z"/>
    <path class="fil2 str1" d="M76.71 138.31c11.52,11.52 22.55,22.82 34.07,34.33l0.14 -0.13 0.14 0.13c20.99,-20.99 41.76,-42.03 62.87,-63.13l-16.59 -16.59 -46.41 46.41 -17.61 -17.61 -16.59 16.59z"/>
   </g>
  </g>
 </g>
</svg>
