<?xml version="1.0" encoding="UTF-8"?>
<!DOCTYPE svg PUBLIC "-//W3C//DTD SVG 1.1//EN" "http://www.w3.org/Graphics/SVG/1.1/DTD/svg11.dtd">
<!-- Creator: CorelDRAW 2018 (64-Bit) -->
<svg xmlns="http://www.w3.org/2000/svg" xml:space="preserve" width="17.1835mm" height="17.1831mm" version="1.1" style="shape-rendering:geometricPrecision; text-rendering:geometricPrecision; image-rendering:optimizeQuality; fill-rule:evenodd; clip-rule:evenodd"
viewBox="0 0 175.83 175.83"
 xmlns:xlink="http://www.w3.org/1999/xlink">
 <defs>
  <style type="text/css">
   <![CDATA[
    .str2 {stroke:#464731;stroke-width:2.56;stroke-linecap:round;stroke-linejoin:round;stroke-miterlimit:22.926}
    .str1 {stroke:#4C4F3B;stroke-width:2.56;stroke-linecap:round;stroke-linejoin:round;stroke-miterlimit:22.926}
    .str0 {stroke:#BED13A;stroke-width:2.56;stroke-linecap:round;stroke-linejoin:round;stroke-miterlimit:22.926}
    .fil0 {fill:none}
    .fil1 {fill:#BED13A}
    .fil2 {fill:white}
   ]]>
  </style>
 </defs>
 <g id="Слой_x0020_1">
  <metadata id="CorelCorpID_0Corel-Layer"/>
  <g id="_1565654806992">
   <path class="fil0 str0" d="M46.03 68.97c0,-4.62 3.75,-8.37 8.38,-8.37 4.62,0 8.37,3.75 8.37,8.37m-16.75 0c0,4.63 -3.75,8.38 -8.37,8.38 -4.63,0 -8.38,-3.75 -8.38,-8.38"/>
   <path class="fil0 str0" d="M12.53 68.97c0,-4.62 3.75,-8.37 8.38,-8.37 4.62,0 8.37,3.75 8.37,8.37"/>
   <path class="fil0 str0" d="M79.54 68.97c0,-4.62 3.75,-8.37 8.38,-8.37 4.62,0 8.37,3.75 8.37,8.37m-16.75 0c0,4.63 -3.75,8.38 -8.37,8.38 -4.63,0 -8.38,-3.75 -8.38,-8.38"/>
   <path class="fil0 str0" d="M113.04 68.97c0,-4.62 3.75,-8.37 8.38,-8.37 4.63,0 8.37,3.75 8.37,8.37m-16.75 0c0,4.63 -3.75,8.38 -8.37,8.38 -4.63,0 -8.38,-3.75 -8.38,-8.38"/>
   <path class="fil0 str0" d="M146.55 68.97c0,-4.62 3.75,-8.37 8.38,-8.37 4.62,0 8.37,3.75 8.37,8.37m-16.75 0c0,4.63 -3.75,8.38 -8.37,8.38 -4.63,0 -8.38,-3.75 -8.38,-8.38"/>
   <path class="fil0 str1" d="M116.61 12.14c-7.18,7.65 -17.38,12.44 -28.7,12.44 -11.32,0 -21.53,-4.79 -28.7,-12.44"/>
   <path class="fil0 str1" d="M105.75 1.28c-4.39,4.89 -10.76,7.95 -17.84,7.95 -7.09,0 -13.45,-3.07 -17.84,-7.95"/>
   <path class="fil0 str1" d="M127.67 23.2c-10.01,10.48 -24.12,17.01 -39.76,17.01 -15.64,0 -29.75,-6.53 -39.76,-17.01"/>
   <g>
    <g>
     <path class="fil1" d="M12.96 174.54l-0.31 0 0 -0.01 0.31 0.01zm0.62 -23.97l148.29 -0c7.09,0 12.46,5.37 12.46,11.99 0,6.62 -5.36,11.99 -12.46,11.98l-148.29 0c6.48,-0.16 11.68,-5.46 11.68,-11.98 0,-6.52 -5.2,-11.83 -11.68,-11.99zm-0.93 0l0.31 0 -0.31 0.01 0 -0.01z"/>
     <path class="fil0 str2" d="M12.96 174.54l-0.31 0 0 -0.01 0.31 0.01zm0.62 -23.97l148.51 -0c7.09,0 12.46,5.37 12.46,11.99 0,6.62 -5.37,11.99 -12.46,11.98l-148.51 0c6.48,-0.16 11.68,-5.46 11.68,-11.98 0,-6.52 -5.2,-11.83 -11.68,-11.99zm-0.93 0l0.31 0 -0.31 0.01 0 -0.01z"/>
     <path class="fil2" d="M13.27 174.55c6.61,0 11.99,-5.38 11.99,-11.99 0,-6.61 -5.39,-11.99 -11.99,-11.99 -6.61,0 -11.99,5.39 -11.99,11.99 0,6.61 5.39,11.99 11.99,11.99z"/>
     <path class="fil0 str2" d="M13.27 174.55c6.61,0 11.99,-5.38 11.99,-11.99 0,-6.61 -5.39,-11.99 -11.99,-11.99 -6.61,0 -11.99,5.39 -11.99,11.99 0,6.61 5.39,11.99 11.99,11.99z"/>
    </g>
    <g>
     <path class="fil1" d="M12.96 150.52l-0.31 0 0 -0.01 0.31 0.01zm0.62 -23.97l148.29 -0c7.09,0 12.46,5.37 12.46,11.99 0,6.62 -5.36,11.99 -12.46,11.98l-148.29 0c6.48,-0.16 11.68,-5.46 11.68,-11.98 0,-6.52 -5.2,-11.83 -11.68,-11.99zm-0.93 0l0.31 0 -0.31 0.01 0 -0.01z"/>
     <path class="fil0 str2" d="M12.96 150.52l-0.31 0 0 -0.01 0.31 0.01zm0.62 -23.97l148.51 -0c7.09,0 12.46,5.37 12.46,11.99 0,6.62 -5.37,11.99 -12.46,11.98l-148.51 0c6.48,-0.16 11.68,-5.46 11.68,-11.98 0,-6.52 -5.2,-11.83 -11.68,-11.99zm-0.93 0l0.31 0 -0.31 0.01 0 -0.01z"/>
     <path class="fil2" d="M13.27 150.52c6.61,0 11.99,-5.38 11.99,-11.99 0,-6.61 -5.39,-11.99 -11.99,-11.99 -6.61,0 -11.99,5.39 -11.99,11.99 0,6.61 5.39,11.99 11.99,11.99z"/>
     <path class="fil0 str2" d="M13.27 150.52c6.61,0 11.99,-5.38 11.99,-11.99 0,-6.61 -5.39,-11.99 -11.99,-11.99 -6.61,0 -11.99,5.39 -11.99,11.99 0,6.61 5.39,11.99 11.99,11.99z"/>
    </g>
    <g>
     <path class="fil1" d="M12.96 126.94l-0.31 0 0 -0.01 0.31 0.01zm0.62 -23.97l148.29 -0c7.09,0 12.46,5.37 12.46,11.99 0,6.62 -5.36,11.99 -12.46,11.98l-148.29 0c6.48,-0.16 11.68,-5.46 11.68,-11.98 0,-6.52 -5.2,-11.83 -11.68,-11.99zm-0.93 0l0.31 0 -0.31 0.01 0 -0.01z"/>
     <path class="fil0 str2" d="M12.96 126.94l-0.31 0 0 -0.01 0.31 0.01zm0.62 -23.97l148.51 -0c7.09,0 12.46,5.37 12.46,11.99 0,6.62 -5.37,11.99 -12.46,11.98l-148.51 0c6.48,-0.16 11.68,-5.46 11.68,-11.98 0,-6.52 -5.2,-11.83 -11.68,-11.99zm-0.93 0l0.31 0 -0.31 0.01 0 -0.01z"/>
     <path class="fil2" d="M13.27 126.94c6.61,0 11.99,-5.38 11.99,-11.99 0,-6.61 -5.39,-11.99 -11.99,-11.99 -6.61,0 -11.99,5.39 -11.99,11.99 0,6.61 5.39,11.99 11.99,11.99z"/>
     <path class="fil0 str2" d="M13.27 126.94c6.61,0 11.99,-5.38 11.99,-11.99 0,-6.61 -5.39,-11.99 -11.99,-11.99 -6.61,0 -11.99,5.39 -11.99,11.99 0,6.61 5.39,11.99 11.99,11.99z"/>
    </g>
   </g>
  </g>
 </g>
</svg>
