<?xml version="1.0" encoding="UTF-8"?>
<!DOCTYPE svg PUBLIC "-//W3C//DTD SVG 1.1//EN" "http://www.w3.org/Graphics/SVG/1.1/DTD/svg11.dtd">
<!-- Creator: CorelDRAW 2018 (64-Bit) -->
<svg xmlns="http://www.w3.org/2000/svg" xml:space="preserve" width="17.1835mm" height="17.0584mm" version="1.1" style="shape-rendering:geometricPrecision; text-rendering:geometricPrecision; image-rendering:optimizeQuality; fill-rule:evenodd; clip-rule:evenodd"
viewBox="0 0 175.83 174.55"
 xmlns:xlink="http://www.w3.org/1999/xlink">
 <defs>
  <style type="text/css">
   <![CDATA[
    .str2 {stroke:#4C4F3B;stroke-width:2.05;stroke-miterlimit:22.926}
    .str1 {stroke:#464731;stroke-width:2.56;stroke-linecap:round;stroke-linejoin:round;stroke-miterlimit:22.926}
    .str0 {stroke:#4C4F3B;stroke-width:2.56;stroke-linecap:round;stroke-linejoin:round;stroke-miterlimit:22.926}
    .fil1 {fill:none}
    .fil5 {fill:#4C4F3B}
    .fil0 {fill:#96B11F}
    .fil2 {fill:#BED13A}
    .fil4 {fill:#E4E8D0}
    .fil3 {fill:white}
   ]]>
  </style>
 </defs>
 <g id="Слой_x0020_1">
  <metadata id="CorelCorpID_0Corel-Layer"/>
  <g id="_1564003716048">
   <g>
    <path class="fil0" d="M87.48 142.52c10.32,10.32 20.21,20.44 30.51,30.75l0.13 -0.12 0.12 0.12c18.81,-18.81 37.41,-37.65 56.32,-56.55l-14.86 -14.86 -41.57 41.58 -15.77 -15.77 -14.86 14.86z"/>
    <path class="fil1 str0" d="M87.48 142.52c10.32,10.32 20.21,20.44 30.51,30.75l0.13 -0.12 0.12 0.12c18.81,-18.81 37.41,-37.65 56.32,-56.55l-14.86 -14.86 -41.57 41.58 -15.77 -15.77 -14.86 14.86z"/>
   </g>
   <path class="fil2" d="M14.14 84.22l-0.34 0 0 -0.01 0.34 0.01zm0.68 -26.39l119.23 0c7.81,0 13.72,5.91 13.72,13.2 0,7.29 -5.91,13.19 -13.72,13.19l-119.23 0c7.14,-0.18 12.86,-6.02 12.86,-13.19 0,-7.18 -5.72,-13.01 -12.86,-13.2zm-1.02 0l0.34 0 -0.34 0.02 0 -0.02z"/>
   <path class="fil1 str1" d="M14.14 84.22l-0.34 0 0 -0.01 0.34 0.01zm0.68 -26.39l119.23 0c7.81,0 13.72,5.91 13.72,13.2 0,7.29 -5.91,13.19 -13.72,13.19l-119.23 0c7.14,-0.18 12.86,-6.02 12.86,-13.19 0,-7.18 -5.72,-13.01 -12.86,-13.2zm-1.02 0l0.34 0 -0.34 0.02 0 -0.02z"/>
   <path class="fil3" d="M14.48 84.22c7.27,0 13.2,-5.93 13.2,-13.19 0,-7.27 -5.93,-13.2 -13.2,-13.2 -7.27,0 -13.2,5.93 -13.2,13.2 0,7.27 5.93,13.19 13.2,13.19z"/>
   <path class="fil1 str1" d="M14.48 84.22c7.27,0 13.2,-5.93 13.2,-13.19 0,-7.27 -5.93,-13.2 -13.2,-13.2 -7.27,0 -13.2,5.93 -13.2,13.2 0,7.27 5.93,13.19 13.2,13.19z"/>
   <polygon class="fil4 str2" points="6.75,49.54 142.3,49.54 142.3,42.54 6.75,42.54 "/>
   <polygon class="fil5" points="65.95,0 65.95,18.55 57.37,18.55 74.52,37.11 91.67,18.55 83.1,18.55 83.1,0 "/>
   <polygon class="fil4 str2" points="6.75,99.5 142.3,99.5 142.3,92.5 6.75,92.5 "/>
   <polygon class="fil5" points="65.95,142.04 65.95,123.49 57.37,123.49 74.52,104.94 91.67,123.49 83.1,123.49 83.1,142.04 "/>
  </g>
 </g>
</svg>
