<?xml version="1.0" encoding="UTF-8"?>
<!DOCTYPE svg PUBLIC "-//W3C//DTD SVG 1.1//EN" "http://www.w3.org/Graphics/SVG/1.1/DTD/svg11.dtd">
<!-- Creator: CorelDRAW 2018 (64-Bit) -->
<svg xmlns="http://www.w3.org/2000/svg" xml:space="preserve" width="17.1836mm" height="17.1835mm" version="1.1" style="shape-rendering:geometricPrecision; text-rendering:geometricPrecision; image-rendering:optimizeQuality; fill-rule:evenodd; clip-rule:evenodd"
viewBox="0 0 175.83 175.83"
 xmlns:xlink="http://www.w3.org/1999/xlink">
 <defs>
  <style type="text/css">
   <![CDATA[
    .str1 {stroke:#464731;stroke-width:2.56;stroke-linecap:round;stroke-linejoin:round;stroke-miterlimit:22.926}
    .str0 {stroke:#96B11F;stroke-width:2.56;stroke-linecap:round;stroke-linejoin:round;stroke-miterlimit:22.926}
    .str2 {stroke:#BED13A;stroke-width:2.56;stroke-linecap:round;stroke-linejoin:round;stroke-miterlimit:22.926}
    .fil1 {fill:none}
    .fil4 {fill:#4C4F3B}
    .fil2 {fill:#96B11F}
    .fil3 {fill:#E4E8D0}
    .fil0 {fill:white}
   ]]>
  </style>
 </defs>
 <g id="Слой_x0020_1">
  <metadata id="CorelCorpID_0Corel-Layer"/>
  <g id="_1565659564992">
   <polygon class="fil0" points="20.46,130.16 20.46,65.71 69.72,16.44 118.99,65.71 118.99,130.16 "/>
   <polygon class="fil1 str0" points="20.46,130.16 20.46,65.71 69.72,16.44 118.99,65.71 118.99,130.16 "/>
   <line class="fil1 str0" x1="20.67" y1="119.83" x2="118.78" y2= "119.83" />
   <line class="fil1 str0" x1="20.67" y1="109.5" x2="118.78" y2= "109.5" />
   <line class="fil1 str0" x1="20.67" y1="99.17" x2="118.78" y2= "99.17" />
   <line class="fil1 str0" x1="20.67" y1="88.83" x2="118.78" y2= "88.83" />
   <line class="fil1 str0" x1="20.67" y1="78.5" x2="118.78" y2= "78.5" />
   <line class="fil1 str0" x1="20.67" y1="68.16" x2="118.78" y2= "68.16" />
   <line class="fil1 str0" x1="28.33" y1="57.84" x2="111.11" y2= "57.84" />
   <line class="fil1 str0" x1="38.66" y1="47.5" x2="100.78" y2= "47.5" />
   <line class="fil1 str0" x1="48.99" y1="37.17" x2="90.45" y2= "37.17" />
   <line class="fil1 str0" x1="59.33" y1="26.84" x2="80.12" y2= "26.84" />
   <path class="fil2" d="M52.44 66.78c-0.04,-0.48 -0.06,-0.96 -0.06,-1.45 0,-9.58 7.76,-17.34 17.34,-17.34 9.58,0 17.35,7.76 17.35,17.34 0,0.49 -0.02,0.97 -0.06,1.45l0.06 16.34 -34.69 0 0.06 -16.34z"/>
   <path class="fil1 str1" d="M52.44 66.78c-0.04,-0.48 -0.06,-0.96 -0.06,-1.45 0,-9.58 7.76,-17.34 17.34,-17.34 9.58,0 17.35,7.76 17.35,17.34 0,0.49 -0.02,0.97 -0.06,1.45l0.06 16.34 -34.69 0 0.06 -16.34z"/>
   <line class="fil1 str1" x1="69.72" y1="47.99" x2="69.72" y2= "83.12" />
   <path class="fil2" d="M10.43 75.73c-2.09,2.09 -5.48,2.09 -7.58,0 -2.09,-2.09 -2.09,-5.48 0,-7.58l66.87 -66.87 66.87 66.87c2.09,2.1 2.09,5.49 0,7.58 -2.09,2.09 -5.49,2.09 -7.58,0l-59.29 -59.29 -59.29 59.29z"/>
   <path class="fil1 str1" d="M10.43 75.73c-2.09,2.09 -5.48,2.09 -7.58,0 -2.09,-2.09 -2.09,-5.48 0,-7.58l66.87 -66.87 66.87 66.87c2.09,2.1 2.09,5.49 0,7.58 -2.09,2.09 -5.49,2.09 -7.58,0l-59.29 -59.29 -59.29 59.29z"/>
   <g>
    <path class="fil3" d="M140.26 174.55c-15.48,-4.83 -28.1,-17.54 -34.3,-34.09l0 -46.52c0.19,-0.52 0.4,-1.03 0.6,-1.55 2.44,0.5 5.01,0.76 7.67,0.76 11.52,0 21.45,-4.97 26.02,-12.16 4.57,7.19 14.5,12.16 26.02,12.16 2.66,0 5.23,-0.26 7.67,-0.76 0.21,0.51 0.41,1.03 0.6,1.55l0 46.52c-6.19,16.55 -18.81,29.26 -34.29,34.09z"/>
    <path class="fil1 str2" d="M140.26 174.55c-15.48,-4.83 -28.1,-17.54 -34.3,-34.09l0 -46.52c0.19,-0.52 0.4,-1.03 0.6,-1.55 2.44,0.5 5.01,0.76 7.67,0.76 11.52,0 21.45,-4.97 26.02,-12.16 4.57,7.19 14.5,12.16 26.02,12.16 2.66,0 5.23,-0.26 7.67,-0.76 0.21,0.51 0.41,1.03 0.6,1.55l0 46.52c-6.19,16.55 -18.81,29.26 -34.29,34.09z"/>
    <path class="fil4" d="M145.75 124.43c2.8,-1.48 5.21,-3.59 7.06,-6.13 4.69,3.76 7.69,9.54 7.69,16.03 0,9.13 -5.96,16.87 -14.2,19.54 0.76,-1.91 1.18,-3.99 1.18,-6.18 0,-5.82 -3,-10.94 -7.52,-13.92 -4.53,2.98 -7.52,8.1 -7.52,13.92 0,2.19 0.42,4.27 1.18,6.18 -8.24,-2.67 -14.21,-10.41 -14.21,-19.54 0,-6.82 3.32,-12.87 8.44,-16.6 2.79,-2.03 4.48,-2.42 7.01,-5.33 3.14,-3.6 5.03,-8.3 5.03,-13.45 4.88,3.75 8.03,9.65 8.03,16.29 0,3.31 -0.78,6.43 -2.17,9.2z"/>
   </g>
  </g>
 </g>
</svg>
