<?xml version="1.0" encoding="UTF-8"?>
<!DOCTYPE svg PUBLIC "-//W3C//DTD SVG 1.1//EN" "http://www.w3.org/Graphics/SVG/1.1/DTD/svg11.dtd">
<!-- Creator: CorelDRAW 2018 (64-Bit) -->
<svg xmlns="http://www.w3.org/2000/svg" xml:space="preserve" width="17.0585mm" height="17.0585mm" version="1.1" style="shape-rendering:geometricPrecision; text-rendering:geometricPrecision; image-rendering:optimizeQuality; fill-rule:evenodd; clip-rule:evenodd"
viewBox="0 0 172.65 172.65"
 xmlns:xlink="http://www.w3.org/1999/xlink">
 <defs>
  <style type="text/css">
   <![CDATA[
    .str0 {stroke:#464731;stroke-width:2.53;stroke-linecap:round;stroke-linejoin:round;stroke-miterlimit:22.926}
    .fil1 {fill:none}
    .fil4 {fill:#4C4F3B}
    .fil5 {fill:#99B32E}
    .fil0 {fill:#BED13A}
    .fil3 {fill:#F8F9F4}
    .fil2 {fill:white}
   ]]>
  </style>
 </defs>
 <g id="Слой_x0020_1">
  <metadata id="CorelCorpID_0Corel-Layer"/>
  <g id="_1565427667920">
   <g>
    <path class="fil0" d="M13.73 78.02l-0.34 0 0 -0.01 0.34 0.01zm0.66 -25.58l115.59 0c7.57,-0.01 13.29,5.72 13.29,12.79 0,7.07 -5.72,12.8 -13.29,12.79l-115.59 0c6.91,-0.18 12.46,-5.83 12.46,-12.79 0,-6.95 -5.55,-12.61 -12.46,-12.79zm-0.99 0l0.34 0 -0.34 0.01 0 -0.01z"/>
    <path class="fil1 str0" d="M13.73 78.02l-0.34 0 0 -0.01 0.34 0.01zm0.66 -25.58l115.59 0c7.57,-0.01 13.29,5.72 13.29,12.79 0,7.07 -5.72,12.8 -13.29,12.79l-115.59 0c6.91,-0.18 12.46,-5.83 12.46,-12.79 0,-6.95 -5.55,-12.61 -12.46,-12.79zm-0.99 0l0.34 0 -0.34 0.01 0 -0.01z"/>
    <path class="fil2" d="M14.06 78.03c7.05,0 12.8,-5.75 12.8,-12.8 0,-7.05 -5.75,-12.79 -12.8,-12.79 -7.05,0 -12.8,5.74 -12.8,12.79 0,7.05 5.75,12.8 12.8,12.8z"/>
    <path class="fil1 str0" d="M14.06 78.03c7.05,0 12.8,-5.75 12.8,-12.8 0,-7.05 -5.75,-12.79 -12.8,-12.79 -7.05,0 -12.8,5.74 -12.8,12.79 0,7.05 5.75,12.8 12.8,12.8z"/>
    <path class="fil0" d="M13.73 52.43l-0.34 0 0 -0.01 0.34 0.01zm0.66 -25.58l115.59 0c7.57,0 13.29,5.72 13.29,12.79 0,7.06 -5.72,12.79 -13.29,12.79l-115.59 -0.01c6.91,-0.17 12.46,-5.83 12.46,-12.79 0,-6.96 -5.55,-12.62 -12.46,-12.79zm-0.99 0l0.34 0 -0.34 0.01 0 -0.01z"/>
    <path class="fil1 str0" d="M13.73 52.43l-0.34 0 0 -0.01 0.34 0.01zm0.66 -25.58l115.59 0c7.57,0 13.29,5.72 13.29,12.79 0,7.06 -5.72,12.79 -13.29,12.79l-115.59 -0.01c6.91,-0.17 12.46,-5.83 12.46,-12.79 0,-6.96 -5.55,-12.62 -12.46,-12.79zm-0.99 0l0.34 0 -0.34 0.01 0 -0.01z"/>
    <path class="fil2" d="M14.06 52.44c7.05,0 12.8,-5.74 12.8,-12.8 0,-7.05 -5.75,-12.79 -12.8,-12.79 -7.05,0 -12.8,5.74 -12.8,12.79 0,7.05 5.75,12.8 12.8,12.8z"/>
    <path class="fil1 str0" d="M14.06 52.44c7.05,0 12.8,-5.74 12.8,-12.8 0,-7.05 -5.75,-12.79 -12.8,-12.79 -7.05,0 -12.8,5.74 -12.8,12.79 0,7.05 5.75,12.8 12.8,12.8z"/>
    <path class="fil0" d="M13.73 26.85l-0.34 0 0 -0.01 0.34 0.01zm0.66 -25.58l115.59 -0c7.57,0 13.29,5.72 13.29,12.79 0,7.07 -5.72,12.8 -13.29,12.79l-115.59 0c6.91,-0.17 12.46,-5.83 12.46,-12.79 0,-6.95 -5.55,-12.62 -12.46,-12.79zm-0.99 0l0.34 0 -0.34 0.01 0 -0.01z"/>
    <path class="fil1 str0" d="M13.73 26.85l-0.34 0 0 -0.01 0.34 0.01zm0.66 -25.58l115.59 -0c7.57,0 13.29,5.72 13.29,12.79 0,7.07 -5.72,12.8 -13.29,12.79l-115.59 0c6.91,-0.17 12.46,-5.83 12.46,-12.79 0,-6.95 -5.55,-12.62 -12.46,-12.79zm-0.99 0l0.34 0 -0.34 0.01 0 -0.01z"/>
    <path class="fil2" d="M14.06 26.85c7.05,0 12.8,-5.74 12.8,-12.8 0,-7.04 -5.75,-12.79 -12.8,-12.79 -7.05,0 -12.8,5.74 -12.8,12.79 0,7.05 5.75,12.8 12.8,12.8z"/>
    <path class="fil1 str0" d="M14.06 26.85c7.05,0 12.8,-5.74 12.8,-12.8 0,-7.04 -5.75,-12.79 -12.8,-12.79 -7.05,0 -12.8,5.74 -12.8,12.79 0,7.05 5.75,12.8 12.8,12.8z"/>
   </g>
   <g>
    <path class="fil3" d="M115.38 163.84c26.69,0 48.46,-21.77 48.46,-48.46 0,-26.69 -21.77,-48.45 -48.46,-48.45 -26.69,0 -48.46,21.77 -48.46,48.45 0,26.69 21.77,48.46 48.46,48.46z"/>
    <path class="fil4" d="M80.56 107.01c3.36,-15.89 14.65,-18.45 29.59,-17.2 6.43,0.54 5.66,0.22 9.16,-1.66 3.51,-1.89 7.5,-1.61 7.5,-1.61 -0.22,-1.83 -0.12,-4.23 0.31,-7.14 2.77,2.38 5.11,3.46 7.59,7.44 0.89,-2.38 4.32,-5.16 5.21,-7.54 3.58,5.07 1.71,8.23 3.75,12.42 1.64,3.39 5.42,7.38 8.38,11.53 0,0 -0.45,3.95 -4.23,4.18 -3.77,0.22 -11.81,-0.85 -15.28,2.43 -3.46,3.28 -7.32,7.9 -3.14,7.32 10.51,-1.46 14.72,6.43 0.72,3.32 -7.28,-1.61 -29.42,2.56 -26.28,4.99 2.89,2.23 5.32,2.48 7.2,2.55 5.08,0.18 5.86,2.64 3.8,3.94 -2.05,1.28 -10.02,-0.13 -12.88,0.12 -4.74,0.99 -11.04,0.84 -15.18,-1.8 -5.93,-3.77 -8.64,-11.94 -6.24,-23.29z"/>
    <path class="fil4" d="M90.13 124.99c-12.84,16.11 -10.82,28.59 -0.36,21.7 9.32,-6.14 13.04,-12.87 30.91,-2.78 4.54,2.56 7.68,0.94 7.68,0.94 0,0 -3.1,3.23 -7.64,0.67 -17.87,-10.08 -21.77,-0.57 -31.31,4.58 -11.02,5.95 -15.9,-8.56 -3.06,-24.67l3.77 -0.45z"/>
    <path class="fil5" d="M143.75 152.65l-65.64 -65.64c-14.01,18.36 -12.63,44.71 4.16,61.49 16.78,16.79 43.13,18.17 61.49,4.16zm-56.74 -74.55l65.64 65.64c14.01,-18.36 12.63,-44.71 -4.16,-61.49 -16.78,-16.78 -43.13,-18.16 -61.49,-4.16zm-12.13 -3.22c22.36,-22.37 58.62,-22.37 80.99,0 22.36,22.37 22.36,58.62 0,81 -22.37,22.36 -58.63,22.36 -80.99,0 -22.37,-22.37 -22.37,-58.63 0,-81z"/>
   </g>
  </g>
 </g>
</svg>
