<?xml version="1.0" encoding="UTF-8"?>
<!DOCTYPE svg PUBLIC "-//W3C//DTD SVG 1.1//EN" "http://www.w3.org/Graphics/SVG/1.1/DTD/svg11.dtd">
<!-- Creator: CorelDRAW 2018 (64-Bit) -->
<svg xmlns="http://www.w3.org/2000/svg" xml:space="preserve" width="17.1835mm" height="17.1834mm" version="1.1" style="shape-rendering:geometricPrecision; text-rendering:geometricPrecision; image-rendering:optimizeQuality; fill-rule:evenodd; clip-rule:evenodd"
viewBox="0 0 175.19 175.19"
 xmlns:xlink="http://www.w3.org/1999/xlink">
 <defs>
  <style type="text/css">
   <![CDATA[
    .str2 {stroke:#464731;stroke-width:2.55;stroke-linecap:round;stroke-linejoin:round;stroke-miterlimit:22.926}
    .str1 {stroke:#4C4F3B;stroke-width:2.55;stroke-linecap:round;stroke-linejoin:round;stroke-miterlimit:22.926}
    .str0 {stroke:#99B32E;stroke-width:2.55;stroke-linecap:round;stroke-linejoin:round;stroke-miterlimit:22.926}
    .fil1 {fill:none}
    .fil2 {fill:#96B11F}
    .fil0 {fill:#BED13A}
   ]]>
  </style>
 </defs>
 <g id="Слой_x0020_1">
  <metadata id="CorelCorpID_0Corel-Layer"/>
  <g id="_1563735404160">
   <path class="fil0" d="M87.55 78.77c-4.03,-8.52 -7.99,-17.16 -13.63,-24.75 -2,-2.7 -4.43,-5.27 -6.79,-5.4 -4.38,-0.23 20.15,-0.28 30.22,-0.42 0,0 5.44,0.27 7.35,4.75 0.19,0.56 4.5,7.85 6.74,11.62l8.1 -4.82 -13.06 23.19 -26.96 0.59 8.03 -4.77zm9.16 47.98c9.42,0.01 18.92,0.12 28.19,-1.73 3.3,-0.66 6.66,-1.74 7.79,-3.82 2.08,-3.86 -8.37,18.33 -12.56,27.49 0,0 -2.58,4.8 -7.44,4.6 -0.58,-0.07 -9.02,0.71 -13.38,1.12l0.89 9.38 -15.37 -21.73 11.01 -24.61 0.88 9.29zm24.94 -46.17l-23.26 15.85 16.73 24.32c7.56,0.09 13.6,0.21 17.24,-2.91 4.72,-4.05 5.87,-10.66 3.45,-15.73l-14.16 -21.53zm-71.66 29.26c-5.24,7.83 -10.61,15.67 -14.23,24.41 -1.28,3.11 -2.25,6.51 -1.14,8.6 2.05,3.87 -10.59,-17.14 -15.89,-25.71 0,0 -2.56,-4.81 0.3,-8.74 0.38,-0.44 4.42,-7.89 6.5,-11.75l-8.29 -4.48 26.6 -0.71 14.36 22.82 -8.21 -4.44zm24.55 46.37l-0.27 -28.14c-9.84,0.14 -19.68,0.27 -29.52,0.41 -4.27,6.24 -7.72,11.2 -7.15,15.95 0.75,6.17 5.61,10.8 11.16,11.6l25.78 0.18zm-39.39 -80.21l24.28 14.23c4.94,-8.51 9.88,-17.02 14.82,-25.54 -3.16,-6.86 -5.64,-12.38 -10.01,-14.34 -5.68,-2.52 -12.15,-0.74 -15.69,3.62l-13.39 22.02z"/>
   <path class="fil1 str0" d="M87.55 78.77c-4.03,-8.52 -7.99,-17.16 -13.63,-24.75 -2,-2.7 -4.43,-5.27 -6.79,-5.4 -4.38,-0.23 20.15,-0.28 30.22,-0.42 0,0 5.44,0.27 7.35,4.75 0.19,0.56 4.5,7.85 6.74,11.62l8.1 -4.82 -13.06 23.19 -26.96 0.59 8.03 -4.77zm9.16 47.98c9.42,0.01 18.92,0.12 28.19,-1.73 3.3,-0.66 6.66,-1.74 7.79,-3.82 2.08,-3.86 -8.37,18.33 -12.56,27.49 0,0 -2.58,4.8 -7.44,4.6 -0.58,-0.07 -9.02,0.71 -13.38,1.12l0.89 9.38 -15.37 -21.73 11.01 -24.61 0.88 9.29zm24.94 -46.17l-23.26 15.85 16.73 24.32c7.56,0.09 13.6,0.21 17.24,-2.91 4.72,-4.05 5.87,-10.66 3.45,-15.73l-14.16 -21.53zm-71.66 29.26c-5.24,7.83 -10.61,15.67 -14.23,24.41 -1.28,3.11 -2.25,6.51 -1.14,8.6 2.05,3.87 -10.59,-17.14 -15.89,-25.71 0,0 -2.56,-4.81 0.3,-8.74 0.38,-0.44 4.42,-7.89 6.5,-11.75l-8.29 -4.48 26.6 -0.71 14.36 22.82 -8.21 -4.44zm24.55 46.37l-0.27 -28.14c-9.84,0.14 -19.68,0.27 -29.52,0.41 -4.27,6.24 -7.72,11.2 -7.15,15.95 0.75,6.17 5.61,10.8 11.16,11.6l25.78 0.18zm-39.39 -80.21l24.28 14.23c4.94,-8.51 9.88,-17.02 14.82,-25.54 -3.16,-6.86 -5.64,-12.38 -10.01,-14.34 -5.68,-2.52 -12.15,-0.74 -15.69,3.62l-13.39 22.02z"/>
   <path class="fil2" d="M81.37 141.41c10.91,10.91 21.35,21.61 32.25,32.51l0.13 -0.13 0.13 0.13c19.88,-19.88 39.54,-39.8 59.52,-59.78l-15.71 -15.71 -43.94 43.94 -16.67 -16.67 -15.71 15.71z"/>
   <path class="fil1 str1" d="M81.89 141.41c10.91,10.91 21.35,21.61 32.25,32.51l0.13 -0.13 0.13 0.13c19.88,-19.88 39.54,-39.8 59.52,-59.78l-15.71 -15.71 -43.94 43.94 -16.67 -16.67 -15.71 15.71z"/>
   <path class="fil2" d="M11.42 69.04c-2.32,1.91 -6.09,1.91 -8.4,0 -2.32,-1.91 -2.32,-5 0,-6.9l74.13 -60.86 74.13 60.86c2.32,1.9 2.32,4.99 0,6.9 -2.32,1.91 -6.09,1.91 -8.41,0l-65.72 -53.96 -65.73 53.96z"/>
   <path class="fil1 str2" d="M11.42 69.04c-2.32,1.91 -6.09,1.91 -8.4,0 -2.32,-1.91 -2.32,-5 0,-6.9l74.13 -60.86 74.13 60.86c2.32,1.9 2.32,4.99 0,6.9 -2.32,1.91 -6.09,1.91 -8.41,0l-65.72 -53.96 -65.73 53.96z"/>
  </g>
 </g>
</svg>
