<?xml version="1.0" encoding="UTF-8"?>
<!DOCTYPE svg PUBLIC "-//W3C//DTD SVG 1.1//EN" "http://www.w3.org/Graphics/SVG/1.1/DTD/svg11.dtd">
<!-- Creator: CorelDRAW 2018 (64-Bit) -->
<svg xmlns="http://www.w3.org/2000/svg" xml:space="preserve" width="17.1833mm" height="17.1833mm" version="1.1" style="shape-rendering:geometricPrecision; text-rendering:geometricPrecision; image-rendering:optimizeQuality; fill-rule:evenodd; clip-rule:evenodd"
viewBox="0 0 175.83 175.83"
 xmlns:xlink="http://www.w3.org/1999/xlink">
 <defs>
  <style type="text/css">
   <![CDATA[
    .str0 {stroke:#464731;stroke-width:2.56;stroke-linecap:round;stroke-linejoin:round;stroke-miterlimit:22.926}
    .str2 {stroke:#4C4F3B;stroke-width:2.56;stroke-linecap:round;stroke-linejoin:round;stroke-miterlimit:22.926}
    .str1 {stroke:#99B32E;stroke-width:2.56;stroke-linecap:round;stroke-linejoin:round;stroke-miterlimit:22.926}
    .fil1 {fill:none}
    .fil4 {fill:#99B32E}
    .fil0 {fill:#BED13A}
    .fil3 {fill:#E4E8D0}
    .fil2 {fill:white}
   ]]>
  </style>
 </defs>
 <g id="Слой_x0020_1">
  <metadata id="CorelCorpID_0Corel-Layer"/>
  <g id="_1565654796624">
   <path class="fil0" d="M14.03 174.55l-0.34 0 0 -0.01 0.34 0.01zm0.68 -26.18l118.26 0c7.74,0 13.61,5.86 13.61,13.09 0,7.23 -5.86,13.09 -13.61,13.09l-118.26 0c7.07,-0.18 12.75,-5.97 12.75,-13.09 0,-7.12 -5.68,-12.91 -12.75,-13.09zm-1.02 0l0.34 0 -0.34 0.02 0 -0.02z"/>
   <path class="fil1 str0" d="M14.03 174.55l-0.34 0 0 -0.01 0.34 0.01zm0.68 -26.18l118.26 0c7.74,0 13.61,5.86 13.61,13.09 0,7.23 -5.86,13.09 -13.61,13.09l-118.26 0c7.07,-0.18 12.75,-5.97 12.75,-13.09 0,-7.12 -5.68,-12.91 -12.75,-13.09zm-1.02 0l0.34 0 -0.34 0.02 0 -0.02z"/>
   <path class="fil2" d="M14.37 174.55c7.21,0 13.09,-5.88 13.09,-13.09 0,-7.21 -5.88,-13.09 -13.09,-13.09 -7.21,0 -13.09,5.88 -13.09,13.09 0,7.21 5.88,13.09 13.09,13.09z"/>
   <path class="fil1 str0" d="M14.37 174.55c7.21,0 13.09,-5.88 13.09,-13.09 0,-7.21 -5.88,-13.09 -13.09,-13.09 -7.21,0 -13.09,5.88 -13.09,13.09 0,7.21 5.88,13.09 13.09,13.09z"/>
  </g>
  <g id="_1565654797520">
   <path class="fil0" d="M84.04 118.56c0,9.49 -7.7,17.19 -17.19,17.19 -9.49,0 -17.19,-7.7 -17.19,-17.19 0,-6.77 13.62,-31.27 17.19,-38.63 3.56,7.36 17.19,31.86 17.19,38.63z"/>
   <path class="fil1 str1" d="M84.04 118.56c0,9.49 -7.7,17.19 -17.19,17.19 -9.49,0 -17.19,-7.7 -17.19,-17.19 0,-6.77 13.62,-31.27 17.19,-38.63 3.56,7.36 17.19,31.86 17.19,38.63z"/>
   <path class="fil3" d="M127.26 81.99l-20.52 -59.7c-1.3,-3.77 0.73,-7.91 4.49,-9.2l33.2 -11.41c3.77,-1.29 7.91,0.73 9.2,4.5l20.52 59.7c1.3,3.77 -0.73,7.91 -4.49,9.21l-33.2 11.41c-3.77,1.29 -7.91,-0.73 -9.21,-4.5z"/>
   <path class="fil1 str2" d="M127.26 81.99l-20.52 -59.7c-1.3,-3.77 0.73,-7.91 4.49,-9.2l33.2 -11.41c3.77,-1.29 7.91,0.73 9.2,4.5l20.52 59.7c1.3,3.77 -0.73,7.91 -4.49,9.21l-33.2 11.41c-3.77,1.29 -7.91,-0.73 -9.21,-4.5z"/>
   <polygon class="fil3" points="110.64,76.36 97.09,36.94 110.23,32.43 123.78,71.84 "/>
   <polygon class="fil1 str2" points="110.64,76.36 97.09,36.94 110.23,32.43 123.78,71.84 "/>
   <path class="fil3" d="M108.15 69.11l-8.57 -24.92 -7.93 2.72c-1.57,6.87 -9.22,14 -19.81,17.64 -1.06,0.37 -2.13,0.69 -3.18,0.96l1.99 5.79c1,-0.43 2.03,-0.83 3.1,-1.2 10.59,-3.64 21.01,-2.71 26.48,1.73l7.92 -2.72z"/>
   <path class="fil1 str2" d="M108.15 69.11l-8.57 -24.92 -7.93 2.72c-1.57,6.87 -9.22,14 -19.81,17.64 -1.06,0.37 -2.13,0.69 -3.18,0.96l1.99 5.79c1,-0.43 2.03,-0.83 3.1,-1.2 10.59,-3.64 21.01,-2.71 26.48,1.73l7.92 -2.72z"/>
   <polygon class="fil4" points="143.96,73.83 124.93,18.45 138.07,13.93 157.1,69.32 "/>
   <polygon class="fil1 str2" points="143.96,73.83 124.93,18.45 138.07,13.93 157.1,69.32 "/>
  </g>
 </g>
</svg>
