<?xml version="1.0" encoding="UTF-8"?>
<!DOCTYPE svg PUBLIC "-//W3C//DTD SVG 1.1//EN" "http://www.w3.org/Graphics/SVG/1.1/DTD/svg11.dtd">
<!-- Creator: CorelDRAW 2018 (64-Bit) -->
<svg xmlns="http://www.w3.org/2000/svg" xml:space="preserve" width="17.1835mm" height="17.1836mm" version="1.1" style="shape-rendering:geometricPrecision; text-rendering:geometricPrecision; image-rendering:optimizeQuality; fill-rule:evenodd; clip-rule:evenodd"
viewBox="0 0 175.83 175.83"
 xmlns:xlink="http://www.w3.org/1999/xlink">
 <defs>
  <style type="text/css">
   <![CDATA[
    .str0 {stroke:#464731;stroke-width:2.56;stroke-linecap:round;stroke-linejoin:round;stroke-miterlimit:22.926}
    .str1 {stroke:#4C4F3B;stroke-width:2.56;stroke-linecap:round;stroke-linejoin:round;stroke-miterlimit:22.926}
    .fil1 {fill:none}
    .fil4 {fill:#4C4F3B}
    .fil0 {fill:#BED13A}
    .fil3 {fill:#E4E8D0}
    .fil2 {fill:white}
   ]]>
  </style>
 </defs>
 <g id="Слой_x0020_1">
  <metadata id="CorelCorpID_0Corel-Layer"/>
  <g id="_1563994381296">
   <g>
    <path class="fil0" d="M12.96 174.55l-0.31 0 0 -0.01 0.31 0.01zm0.62 -23.97l148.29 -0c7.09,0 12.46,5.37 12.46,11.99 0,6.62 -5.36,11.99 -12.46,11.98l-148.29 0c6.48,-0.16 11.68,-5.46 11.68,-11.98 0,-6.52 -5.2,-11.83 -11.68,-11.99zm-0.93 0l0.31 0 -0.31 0.01 0 -0.01z"/>
    <path class="fil1 str0" d="M12.96 174.55l-0.31 0 0 -0.01 0.31 0.01zm0.62 -23.97l148.51 -0c7.09,0 12.46,5.37 12.46,11.99 0,6.62 -5.37,11.99 -12.46,11.98l-148.51 0c6.48,-0.16 11.68,-5.46 11.68,-11.98 0,-6.52 -5.2,-11.83 -11.68,-11.99zm-0.93 0l0.31 0 -0.31 0.01 0 -0.01z"/>
    <path class="fil2" d="M13.27 174.55c6.61,0 11.99,-5.38 11.99,-11.99 0,-6.61 -5.39,-11.99 -11.99,-11.99 -6.61,0 -11.99,5.39 -11.99,11.99 0,6.61 5.39,11.99 11.99,11.99z"/>
    <path class="fil1 str0" d="M13.27 174.55c6.61,0 11.99,-5.38 11.99,-11.99 0,-6.61 -5.39,-11.99 -11.99,-11.99 -6.61,0 -11.99,5.39 -11.99,11.99 0,6.61 5.39,11.99 11.99,11.99z"/>
   </g>
   <g>
    <path class="fil0" d="M12.96 150.52l-0.31 0 0 -0.01 0.31 0.01zm0.62 -23.97l148.29 -0c7.09,0 12.46,5.37 12.46,11.99 0,6.62 -5.36,11.99 -12.46,11.98l-148.29 0c6.48,-0.16 11.68,-5.46 11.68,-11.98 0,-6.52 -5.2,-11.83 -11.68,-11.99zm-0.93 0l0.31 0 -0.31 0.01 0 -0.01z"/>
    <path class="fil1 str0" d="M12.96 150.52l-0.31 0 0 -0.01 0.31 0.01zm0.62 -23.97l148.51 -0c7.09,0 12.46,5.37 12.46,11.99 0,6.62 -5.37,11.99 -12.46,11.98l-148.51 0c6.48,-0.16 11.68,-5.46 11.68,-11.98 0,-6.52 -5.2,-11.83 -11.68,-11.99zm-0.93 0l0.31 0 -0.31 0.01 0 -0.01z"/>
    <path class="fil2" d="M13.27 150.52c6.61,0 11.99,-5.38 11.99,-11.99 0,-6.61 -5.39,-11.99 -11.99,-11.99 -6.61,0 -11.99,5.39 -11.99,11.99 0,6.61 5.39,11.99 11.99,11.99z"/>
    <path class="fil1 str0" d="M13.27 150.52c6.61,0 11.99,-5.38 11.99,-11.99 0,-6.61 -5.39,-11.99 -11.99,-11.99 -6.61,0 -11.99,5.39 -11.99,11.99 0,6.61 5.39,11.99 11.99,11.99z"/>
   </g>
   <g>
    <path class="fil0" d="M12.96 126.94l-0.31 0 0 -0.01 0.31 0.01zm0.62 -23.97l148.29 -0c7.09,0 12.46,5.37 12.46,11.99 0,6.62 -5.36,11.99 -12.46,11.98l-148.29 0c6.48,-0.16 11.68,-5.46 11.68,-11.98 0,-6.52 -5.2,-11.83 -11.68,-11.99zm-0.93 0l0.31 0 -0.31 0.01 0 -0.01z"/>
    <path class="fil1 str0" d="M12.96 126.94l-0.31 0 0 -0.01 0.31 0.01zm0.62 -23.97l148.51 -0c7.09,0 12.46,5.37 12.46,11.99 0,6.62 -5.37,11.99 -12.46,11.98l-148.51 0c6.48,-0.16 11.68,-5.46 11.68,-11.98 0,-6.52 -5.2,-11.83 -11.68,-11.99zm-0.93 0l0.31 0 -0.31 0.01 0 -0.01z"/>
    <path class="fil2" d="M13.27 126.95c6.61,0 11.99,-5.38 11.99,-11.99 0,-6.61 -5.39,-11.99 -11.99,-11.99 -6.61,0 -11.99,5.39 -11.99,11.99 0,6.61 5.39,11.99 11.99,11.99z"/>
    <path class="fil1 str0" d="M13.27 126.95c6.61,0 11.99,-5.38 11.99,-11.99 0,-6.61 -5.39,-11.99 -11.99,-11.99 -6.61,0 -11.99,5.39 -11.99,11.99 0,6.61 5.39,11.99 11.99,11.99z"/>
   </g>
   <g>
    <g>
     <path class="fil1 str1" d="M139.96 51.65c-1.36,8.17 -7.6,14.37 -0.86,22.41 4.43,5.29 8.13,11.57 3.38,19.88"/>
     <polyline class="fil1 str1" points="132.07,54.54 139.96,51.64 145.22,58.48 "/>
    </g>
    <g>
     <path class="fil1 str1" d="M38.49 51.65c-1.36,8.17 -7.59,14.37 -0.86,22.41 4.43,5.29 8.12,11.57 3.39,19.88"/>
     <polyline class="fil1 str1" points="30.62,54.54 38.5,51.64 43.76,58.48 "/>
    </g>
   </g>
   <path class="fil3" d="M98.23 88.54c7.44,3.77 12.54,11.49 12.54,20.4 0,12.62 -10.23,22.85 -22.86,22.85 -12.62,0 -22.85,-10.23 -22.85,-22.85 0,-8.91 5.1,-16.63 12.54,-20.4l0 -76.94c0,-5.67 4.64,-10.31 10.31,-10.31 5.67,0 10.32,4.64 10.32,10.31l0 76.94z"/>
   <path class="fil1 str0" d="M98.23 88.54c7.44,3.77 12.54,11.49 12.54,20.4 0,12.62 -10.23,22.85 -22.86,22.85 -12.62,0 -22.85,-10.23 -22.85,-22.85 0,-8.91 5.1,-16.63 12.54,-20.4l0 -76.94c0,-5.67 4.64,-10.31 10.31,-10.31 5.67,0 10.32,4.64 10.32,10.31l0 76.94z"/>
   <path class="fil4" d="M91.62 92.6l0 -18.64c0,-2.02 -1.68,-3.7 -3.7,-3.7 -2.03,0 -3.71,1.68 -3.71,3.7l0 18.64 -3.62 1.84c-5.47,2.77 -8.91,8.35 -8.91,14.49 0,8.97 7.27,16.24 16.24,16.24 8.97,0 16.24,-7.27 16.24,-16.24 0,-6.14 -3.45,-11.73 -8.91,-14.49l-3.63 -1.84z"/>
  </g>
 </g>
</svg>
