<?xml version="1.0" encoding="UTF-8"?>
<!DOCTYPE svg PUBLIC "-//W3C//DTD SVG 1.1//EN" "http://www.w3.org/Graphics/SVG/1.1/DTD/svg11.dtd">
<!-- Creator: CorelDRAW 2018 (64-Bit) -->
<svg xmlns="http://www.w3.org/2000/svg" xml:space="preserve" width="17.1835mm" height="17.0585mm" version="1.1" style="shape-rendering:geometricPrecision; text-rendering:geometricPrecision; image-rendering:optimizeQuality; fill-rule:evenodd; clip-rule:evenodd"
viewBox="0 0 175.19 173.92"
 xmlns:xlink="http://www.w3.org/1999/xlink">
 <defs>
  <style type="text/css">
   <![CDATA[
    .str0 {stroke:#464731;stroke-width:2.55;stroke-linecap:round;stroke-linejoin:round;stroke-miterlimit:22.926}
    .fil1 {fill:none}
    .fil5 {fill:#464731}
    .fil4 {fill:#99B32E}
    .fil2 {fill:#BED13A}
    .fil0 {fill:#E4E8D0}
    .fil3 {fill:white}
   ]]>
  </style>
 </defs>
 <g id="Слой_x0020_1">
  <metadata id="CorelCorpID_0Corel-Layer"/>
  <g id="_1565654813424">
   <g>
    <path class="fil0" d="M87.6 54.7c7.06,0 12.79,-5.74 12.79,-12.79 0,-7.06 -5.74,-12.79 -12.79,-12.79 -7.06,0 -12.79,5.74 -12.79,12.79 0,7.05 5.74,12.79 12.79,12.79zm6.67 27.84l-13.36 0c-1.05,0 -1.9,-0.85 -1.9,-1.9l0 -7.55c-5.34,-1.46 -10.17,-4.25 -14.14,-8.17l-6.54 3.78c-0.44,0.25 -0.96,0.31 -1.44,0.18 -0.49,-0.13 -0.9,-0.45 -1.16,-0.88l-6.68 -11.58c-0.52,-0.9 -0.21,-2.07 0.7,-2.6l6.53 -3.76c-0.7,-2.66 -1.05,-5.4 -1.05,-8.17 0,-2.78 0.35,-5.53 1.05,-8.18l-6.53 -3.76c-0.91,-0.52 -1.22,-1.69 -0.7,-2.6l6.68 -11.57c0.25,-0.44 0.67,-0.76 1.16,-0.88 0.48,-0.13 1,-0.06 1.44,0.19l6.54 3.78c3.96,-3.91 8.79,-6.7 14.13,-8.17l0 -7.53c0,-1.05 0.85,-1.9 1.9,-1.9l13.36 0c1.05,0 1.9,0.85 1.9,1.9l0 7.53c5.33,1.47 10.17,4.26 14.13,8.17l6.54 -3.77c0.91,-0.52 2.07,-0.21 2.6,0.7l6.67 11.57c0.52,0.9 0.21,2.07 -0.7,2.59l-6.53 3.77c0.7,2.67 1.05,5.4 1.05,8.17 0,2.77 -0.35,5.5 -1.05,8.16l6.53 3.78c0.44,0.25 0.75,0.66 0.88,1.15 0.13,0.49 0.06,1.01 -0.19,1.44l-6.68 11.58c-0.52,0.9 -1.68,1.21 -2.6,0.7l-6.54 -3.78c-3.96,3.92 -8.8,6.71 -14.14,8.17l0 7.55c0,1.05 -0.85,1.9 -1.9,1.9z"/>
    <path class="fil1 str0" d="M87.6 54.7c7.06,0 12.79,-5.74 12.79,-12.79 0,-7.06 -5.74,-12.79 -12.79,-12.79 -7.06,0 -12.79,5.74 -12.79,12.79 0,7.05 5.74,12.79 12.79,12.79zm6.67 27.84l-13.36 0c-1.05,0 -1.9,-0.85 -1.9,-1.9l0 -7.55c-5.34,-1.46 -10.17,-4.25 -14.14,-8.17l-6.54 3.78c-0.44,0.25 -0.96,0.31 -1.44,0.18 -0.49,-0.13 -0.9,-0.45 -1.16,-0.88l-6.68 -11.58c-0.52,-0.9 -0.21,-2.07 0.7,-2.6l6.53 -3.76c-0.7,-2.66 -1.05,-5.4 -1.05,-8.17 0,-2.78 0.35,-5.53 1.05,-8.18l-6.53 -3.76c-0.91,-0.52 -1.22,-1.69 -0.7,-2.6l6.68 -11.57c0.25,-0.44 0.67,-0.76 1.16,-0.88 0.48,-0.13 1,-0.06 1.44,0.19l6.54 3.78c3.96,-3.91 8.79,-6.7 14.13,-8.17l0 -7.53c0,-1.05 0.85,-1.9 1.9,-1.9l13.36 0c1.05,0 1.9,0.85 1.9,1.9l0 7.53c5.33,1.47 10.17,4.26 14.13,8.17l6.54 -3.77c0.91,-0.52 2.07,-0.21 2.6,0.7l6.67 11.57c0.52,0.9 0.21,2.07 -0.7,2.59l-6.53 3.77c0.7,2.67 1.05,5.4 1.05,8.17 0,2.77 -0.35,5.5 -1.05,8.16l6.53 3.78c0.44,0.25 0.75,0.66 0.88,1.15 0.13,0.49 0.06,1.01 -0.19,1.44l-6.68 11.58c-0.52,0.9 -1.68,1.21 -2.6,0.7l-6.54 -3.78c-3.96,3.92 -8.8,6.71 -14.14,8.17l0 7.55c0,1.05 -0.85,1.9 -1.9,1.9z"/>
   </g>
   <path class="fil2" d="M44.12 110.38l-0.25 0 0 -0.01 0.25 0.01zm0.49 -18.99l85.83 0c5.61,0 9.87,4.25 9.87,9.5 0,5.24 -4.25,9.5 -9.87,9.5l-85.83 -0.01c5.13,-0.13 9.26,-4.33 9.26,-9.49 0,-5.17 -4.12,-9.37 -9.26,-9.5zm-0.74 0l0.25 0 -0.25 0.01 0 -0.01z"/>
   <path class="fil1 str0" d="M44.12 110.38l-0.25 0 0 -0.01 0.25 0.01zm0.49 -18.99l85.83 0c5.61,0 9.87,4.25 9.87,9.5 0,5.24 -4.25,9.5 -9.87,9.5l-85.83 -0.01c5.13,-0.13 9.26,-4.33 9.26,-9.49 0,-5.17 -4.12,-9.37 -9.26,-9.5zm-0.74 0l0.25 0 -0.25 0.01 0 -0.01z"/>
   <path class="fil3" d="M44.37 110.39c5.24,0 9.5,-4.27 9.5,-9.5 0,-5.23 -4.27,-9.5 -9.5,-9.5 -5.23,0 -9.5,4.27 -9.5,9.5 0,5.23 4.27,9.5 9.5,9.5z"/>
   <path class="fil1 str0" d="M44.37 110.39c5.24,0 9.5,-4.27 9.5,-9.5 0,-5.23 -4.27,-9.5 -9.5,-9.5 -5.23,0 -9.5,4.27 -9.5,9.5 0,5.23 4.27,9.5 9.5,9.5z"/>
   <path class="fil0" d="M153.86 124.85c11.07,0 20.06,8.45 20.06,18.87 0,10.42 -8.98,18.87 -20.06,18.87l-132.53 0c-11.08,0 -20.06,-8.45 -20.06,-18.87 0,-10.43 8.98,-18.87 20.06,-18.87l132.53 0z"/>
   <path class="fil1 str0" d="M153.86 124.85c11.07,0 20.06,8.45 20.06,18.87 0,10.42 -8.98,18.87 -20.06,18.87l-132.53 0c-11.08,0 -20.06,-8.45 -20.06,-18.87 0,-10.43 8.98,-18.87 20.06,-18.87l132.53 0z"/>
   <path class="fil4" d="M20.67 154.81c6.11,0 11.09,-4.98 11.09,-11.09 0,-6.11 -4.98,-11.09 -11.09,-11.09 -6.11,0 -11.09,4.99 -11.09,11.09 0,6.11 4.98,11.09 11.09,11.09z"/>
   <path class="fil1 str0" d="M20.67 154.81c6.11,0 11.09,-4.98 11.09,-11.09 0,-6.11 -4.98,-11.09 -11.09,-11.09 -6.11,0 -11.09,4.99 -11.09,11.09 0,6.11 4.98,11.09 11.09,11.09z"/>
   <path class="fil4" d="M154.53 154.81c6.11,0 11.09,-4.98 11.09,-11.09 0,-6.11 -4.98,-11.09 -11.09,-11.09 -6.11,0 -11.09,4.99 -11.09,11.09 0,6.11 4.98,11.09 11.09,11.09z"/>
   <path class="fil1 str0" d="M154.53 154.81c6.11,0 11.09,-4.98 11.09,-11.09 0,-6.11 -4.98,-11.09 -11.09,-11.09 -6.11,0 -11.09,4.99 -11.09,11.09 0,6.11 4.98,11.09 11.09,11.09z"/>
   <path class="fil5" d="M45.4 173.92c1.63,0 2.43,-1.8 1.33,-2.79 -0.27,-0.29 -0.82,-0.51 -1.33,-0.51l-7.34 0c-1.63,0 -2.44,1.79 -1.33,2.79 0.27,0.29 0.82,0.51 1.33,0.51l7.34 0zm18.35 0c1.63,0 2.43,-1.8 1.33,-2.79 -0.27,-0.29 -0.82,-0.51 -1.33,-0.51l-7.34 0c-1.63,0 -2.43,1.79 -1.32,2.79 0.27,0.29 0.82,0.51 1.32,0.51l7.34 0zm18.34 0c1.63,0 2.43,-1.8 1.33,-2.79 -0.27,-0.29 -0.82,-0.51 -1.33,-0.51l-7.34 0c-1.63,0 -2.44,1.79 -1.33,2.79 0.27,0.29 0.81,0.51 1.33,0.51l7.34 0zm18.35 0c1.63,0 2.43,-1.8 1.33,-2.79 -0.27,-0.29 -0.82,-0.51 -1.33,-0.51l-7.34 0c-1.63,0 -2.43,1.79 -1.32,2.79 0.27,0.29 0.82,0.51 1.32,0.51l7.34 0zm18.35 0c1.63,0 2.43,-1.8 1.33,-2.79 -0.27,-0.29 -0.82,-0.51 -1.33,-0.51l-7.34 0c-1.63,0 -2.44,1.79 -1.33,2.79 0.27,0.29 0.81,0.51 1.33,0.51l7.34 0zm18.35 0c1.63,0 2.43,-1.8 1.33,-2.79 -0.27,-0.29 -0.82,-0.51 -1.33,-0.51l-7.34 0c-1.63,0 -2.44,1.79 -1.33,2.79 0.27,0.29 0.81,0.51 1.33,0.51l7.34 0zm18.35 0c1.63,0 2.43,-1.8 1.33,-2.79 -0.27,-0.29 -0.82,-0.51 -1.33,-0.51l-7.34 0c-1.63,0 -2.44,1.79 -1.33,2.79 0.27,0.29 0.82,0.51 1.33,0.51l7.34 0zm-135.76 -3.3c-1.63,0 -2.44,1.79 -1.33,2.79 0.27,0.29 0.81,0.51 1.33,0.51l7.34 0c1.63,0 2.43,-1.8 1.33,-2.79 -0.27,-0.29 -0.82,-0.51 -1.33,-0.51l-7.34 0z"/>
  </g>
 </g>
</svg>
