<?xml version="1.0" encoding="UTF-8"?>
<!DOCTYPE svg PUBLIC "-//W3C//DTD SVG 1.1//EN" "http://www.w3.org/Graphics/SVG/1.1/DTD/svg11.dtd">
<!-- Creator: CorelDRAW 2018 (64-Bit) -->
<svg xmlns="http://www.w3.org/2000/svg" xml:space="preserve" width="16.9333mm" height="16.9334mm" version="1.1" style="shape-rendering:geometricPrecision; text-rendering:geometricPrecision; image-rendering:optimizeQuality; fill-rule:evenodd; clip-rule:evenodd"
viewBox="0 0 170.38 170.38"
 xmlns:xlink="http://www.w3.org/1999/xlink">
 <defs>
  <style type="text/css">
   <![CDATA[
    .fil2 {fill:#464731}
    .fil0 {fill:#96B11F}
    .fil3 {fill:#E4E8D0}
    .fil1 {fill:white}
   ]]>
  </style>
 </defs>
 <g id="Слой_x0020_1">
  <metadata id="CorelCorpID_0Corel-Layer"/>
  <g id="_1563698667120">
   <path class="fil0" d="M58.42 3.45c-30.31,0 -54.97,24.66 -54.97,54.97 0,30.31 24.66,54.97 54.97,54.97 30.31,0 54.97,-24.66 54.97,-54.97 0,-30.31 -24.65,-54.97 -54.97,-54.97zm0 113.38c-32.21,0 -58.42,-26.21 -58.42,-58.42 0,-32.21 26.2,-58.41 58.42,-58.41 32.21,0 58.41,26.2 58.41,58.41 0,32.21 -26.2,58.42 -58.41,58.42z"/>
   <polygon class="fil1" points="1.72,155.33 100.35,155.33 100.35,143.01 1.72,143.01 "/>
   <path class="fil0" d="M3.45 153.61l95.18 0 0 -8.87 -95.18 0 0 8.87zm96.9 3.45l-98.62 0c-0.95,0 -1.72,-0.78 -1.72,-1.72l0 -12.32c0,-0.95 0.77,-1.72 1.72,-1.72l98.62 0c0.95,0 1.72,0.77 1.72,1.72l0 12.32c0,0.95 -0.77,1.72 -1.72,1.72z"/>
   <polygon class="fil1" points="12.34,155.33 89.73,155.33 89.73,143.01 12.34,143.01 "/>
   <path class="fil0" d="M14.07 153.61l73.95 0 0 -8.87 -73.95 0 0 8.87zm75.67 3.45l-77.4 0c-0.95,0 -1.72,-0.78 -1.72,-1.72l0 -12.32c0,-0.95 0.77,-1.72 1.72,-1.72l77.4 0c0.95,0 1.72,0.77 1.72,1.72l0 12.32c0,0.95 -0.77,1.72 -1.72,1.72z"/>
   <polygon class="fil1" points="23.43,155.33 78.63,155.33 78.63,143.01 23.43,143.01 "/>
   <path class="fil0" d="M25.16 153.61l51.76 0 0 -8.87 -51.76 0 0 8.87zm53.48 3.45l-55.2 0c-0.95,0 -1.72,-0.78 -1.72,-1.72l0 -12.32c0,-0.95 0.77,-1.72 1.72,-1.72l55.2 0c0.95,0 1.72,0.77 1.72,1.72l0 12.32c0,0.95 -0.77,1.72 -1.72,1.72z"/>
   <polygon class="fil1" points="35.15,155.33 66.92,155.33 66.92,143.01 35.15,143.01 "/>
   <path class="fil0" d="M36.87 153.61l28.32 0 0 -8.87 -28.32 0 0 8.87zm30.04 3.45l-31.76 0c-0.95,0 -1.72,-0.78 -1.72,-1.72l0 -12.32c0,-0.95 0.77,-1.72 1.72,-1.72l31.76 0c0.95,0 1.72,0.77 1.72,1.72l0 12.32c0,0.95 -0.77,1.72 -1.72,1.72z"/>
   <polygon class="fil1" points="46.03,155.33 56.05,155.33 56.05,143.01 46.03,143.01 "/>
   <path class="fil0" d="M47.76 153.61l6.57 0 0 -8.87 -6.57 0 0 8.87zm8.29 3.45l-10.02 0c-0.95,0 -1.72,-0.78 -1.72,-1.72l0 -12.32c0,-0.95 0.77,-1.72 1.72,-1.72l10.02 0c0.95,0 1.72,0.77 1.72,1.72l0 12.32c0,0.95 -0.77,1.72 -1.72,1.72z"/>
   <path class="fil2" d="M168.66 170.37l-126.94 0c-0.95,0 -1.72,-0.77 -1.72,-1.72 0,-0.95 0.77,-1.72 1.72,-1.72l126.94 0c0.95,0 1.72,0.77 1.72,1.72 0,0.95 -0.77,1.72 -1.72,1.72z"/>
   <polygon class="fil1" points="15.83,168.66 114.45,168.66 114.45,156.34 15.83,156.34 "/>
   <path class="fil0" d="M17.55 166.94l95.18 0 0 -8.87 -95.18 0 0 8.87zm96.9 3.44l-98.62 0c-0.95,0 -1.72,-0.77 -1.72,-1.72l0 -12.31c0,-0.95 0.77,-1.73 1.72,-1.73l98.62 0c0.95,0 1.72,0.77 1.72,1.73l0 12.31c0,0.95 -0.78,1.72 -1.72,1.72z"/>
   <polygon class="fil1" points="26.45,168.66 103.85,168.66 103.85,156.34 26.45,156.34 "/>
   <path class="fil0" d="M28.17 166.94l73.95 0 0 -8.87 -73.95 0 0 8.87zm75.67 3.44l-77.4 0c-0.95,0 -1.72,-0.77 -1.72,-1.72l0 -12.31c0,-0.95 0.77,-1.73 1.72,-1.73l77.4 0c0.95,0 1.72,0.77 1.72,1.73l0 12.31c0,0.95 -0.77,1.72 -1.72,1.72z"/>
   <polygon class="fil1" points="37.54,168.66 92.74,168.66 92.74,156.34 37.54,156.34 "/>
   <path class="fil0" d="M39.26 166.94l51.76 0 0 -8.87 -51.76 0 0 8.87zm53.48 3.44l-55.2 0c-0.95,0 -1.72,-0.77 -1.72,-1.72l0 -12.31c0,-0.95 0.77,-1.73 1.72,-1.73l55.2 0c0.95,0 1.72,0.77 1.72,1.73l0 12.31c0,0.95 -0.77,1.72 -1.72,1.72z"/>
   <polygon class="fil1" points="49.26,168.66 81.03,168.66 81.03,156.34 49.26,156.34 "/>
   <path class="fil0" d="M50.98 166.94l28.33 0 0 -8.87 -28.33 0 0 8.87zm30.05 3.44l-31.77 0c-0.95,0 -1.72,-0.77 -1.72,-1.72l0 -12.31c0,-0.95 0.77,-1.73 1.72,-1.73l31.77 0c0.95,0 1.72,0.77 1.72,1.73l0 12.31c0,0.95 -0.77,1.72 -1.72,1.72z"/>
   <polygon class="fil1" points="60.14,168.66 70.16,168.66 70.16,156.34 60.14,156.34 "/>
   <path class="fil0" d="M61.87 166.94l6.57 0 0 -8.87 -6.57 0 0 8.87zm8.29 3.44l-10.02 0c-0.95,0 -1.72,-0.77 -1.72,-1.72l0 -12.31c0,-0.95 0.77,-1.73 1.72,-1.73l10.02 0c0.95,0 1.72,0.77 1.72,1.73l0 12.31c0,0.95 -0.77,1.72 -1.72,1.72z"/>
   <path class="fil1" d="M89.69 167.02c31.23,0 56.69,-25.47 56.69,-56.69 0,-31.23 -25.46,-56.69 -56.69,-56.69 -31.22,0 -56.69,25.47 -56.69,56.69 0,31.22 25.47,56.69 56.69,56.69z"/>
   <path class="fil0" d="M89.69 55.36c-30.31,0 -54.97,24.66 -54.97,54.97 0,30.31 24.66,54.97 54.97,54.97 30.31,0 54.97,-24.66 54.97,-54.97 0,-30.31 -24.65,-54.97 -54.97,-54.97zm0 113.38c-32.21,0 -58.42,-26.21 -58.42,-58.42 0,-32.21 26.2,-58.41 58.42,-58.41 32.21,0 58.41,26.2 58.41,58.41 0,32.21 -26.2,58.42 -58.41,58.42z"/>
   <path class="fil3" d="M89.69 158.42c26.49,0 48.09,-21.61 48.09,-48.09 0,-26.49 -21.6,-48.09 -48.09,-48.09 -26.49,0 -48.09,21.6 -48.09,48.09 0,26.48 21.61,48.09 48.09,48.09z"/>
   <path class="fil0" d="M89.69 63.96c-25.57,0 -46.37,20.8 -46.37,46.37 0,25.57 20.8,46.37 46.37,46.37 25.57,0 46.37,-20.8 46.37,-46.37 0,-25.56 -20.8,-46.37 -46.37,-46.37zm0 96.18c-27.47,0 -49.82,-22.35 -49.82,-49.82 0,-27.47 22.35,-49.81 49.82,-49.81 27.47,0 49.81,22.34 49.81,49.81 0,27.47 -22.34,49.82 -49.81,49.82z"/>
   <path class="fil2" d="M81.11 108.91l14.57 0c4.83,0 8.25,-0.89 10.28,-2.69 2.02,-1.8 3.03,-4.32 3.03,-7.59 0,-2.35 -0.58,-4.37 -1.78,-6.05 -1.19,-1.68 -2.77,-2.79 -4.71,-3.33 -1.26,-0.33 -3.58,-0.51 -6.96,-0.51l-14.42 0 0 20.17zm-7.48 29.61l0 -11.33 -10.96 0 0 -6.46 10.96 0 0 -5.33 -10.96 0 0 -6.46 10.96 0 0 -26.8 21.29 0c3.74,0 6.6,0.19 8.58,0.54 2.77,0.46 5.1,1.34 6.97,2.63 1.88,1.3 3.39,3.12 4.53,5.44 1.14,2.32 1.7,4.88 1.7,7.68 0,4.78 -1.53,8.84 -4.58,12.14 -3.05,3.32 -8.57,4.98 -16.55,4.98l-14.47 0 0 5.2 10.86 0 0 6.46 -10.86 0 0 11.33 -7.48 0z"/>
  </g>
 </g>
</svg>
