<?xml version="1.0" encoding="utf-8"?>
<!-- Generator: Adobe Illustrator 22.1.0, SVG Export Plug-In . SVG Version: 6.00 Build 0)  -->
<svg version="1.1" id="Слой_1" xmlns="http://www.w3.org/2000/svg" xmlns:xlink="http://www.w3.org/1999/xlink" x="0px" y="0px"
	 viewBox="0 0 217 71.4" style="enable-background:new 0 0 217 71.4;" xml:space="preserve">
<style type="text/css">
	.st0{fill:#91B43E;}
	.st1{fill:#3E4530;}
	.st2{fill:#B3D349;}
	.st3{fill:none;stroke:#3E432F;stroke-width:1.3419;stroke-miterlimit:22.9256;}
	.st4{fill:#B3D349;stroke:#3E432F;stroke-width:1.3668;stroke-miterlimit:22.9256;}
	.st5{fill:#DDE4C9;stroke:#3E432F;stroke-width:1.3659;stroke-miterlimit:22.9256;}
</style>
<path class="st0" d="M205.1,61.9c6.3,0,11.5-5.2,11.5-11.5S211.4,39,205.1,39c-6.3,0-11.5,5.2-11.5,11.5S198.7,61.9,205.1,61.9z"/>
<path class="st1" d="M203.8,42.6v8.8v14v5.8h2.4v-5.8v-14v-8.8c-0.4,0-0.8-0.1-1.2-0.1C204.6,42.6,204.2,42.6,203.8,42.6z"/>
<path class="st1" d="M205,38.5c-3.3,0-6.3,1.3-8.4,3.5c-2.2,2.2-3.5,5.2-3.5,8.4c0,3.3,1.3,6.3,3.5,8.4c2.2,2.2,5.2,3.5,8.4,3.5
	c3.3,0,6.3-1.3,8.4-3.5c2.2-2.2,3.5-5.2,3.5-8.4c0-3.3-1.3-6.3-3.5-8.4C211.3,39.8,208.3,38.5,205,38.5L205,38.5z M197.3,42.7
	c2-2,4.7-3.2,7.8-3.2c3,0,5.8,1.2,7.8,3.2c2,2,3.2,4.7,3.2,7.8s-1.2,5.8-3.2,7.8c-2,2-4.7,3.2-7.8,3.2c-3,0-5.8-1.2-7.8-3.2
	c-2-2-3.2-4.7-3.2-7.8S195.3,44.7,197.3,42.7z"/>
<rect x="32.4" y="44.1" class="st2" width="18.7" height="18.7"/>
<rect x="40.5" y="47.7" class="st1" width="2.4" height="23.1"/>
<path class="st1" d="M32.4,43.6H51c0.3,0,0.5,0.2,0.5,0.5v18.7c0,0.3-0.2,0.5-0.5,0.5H32.4c-0.3,0-0.5-0.2-0.5-0.5V44.1
	C31.9,43.8,32.1,43.6,32.4,43.6L32.4,43.6z M50.5,44.6H32.8v17.7h17.7V44.6z"/>
<polygon class="st0" points="0.5,62.3 10.4,43.7 20.3,62.3 "/>
<polygon class="st1" points="11.6,57.7 11.6,65.9 11.6,70.8 9.2,70.8 9.2,65.9 9.2,57.7 9.2,49.6 11.6,49.6 "/>
<path class="st1" d="M0.1,62L10,43.5c0.1-0.2,0.4-0.3,0.6-0.2c0.1,0,0.2,0.1,0.2,0.2l9.9,18.6c0.1,0.2,0,0.5-0.2,0.6
	c-0.1,0-0.1,0.1-0.2,0.1v0H0.5c-0.3,0-0.5-0.2-0.5-0.5C0,62.2,0,62.1,0.1,62L0.1,62z M10.4,44.7L1.3,61.8h18.2L10.4,44.7z"/>
<polygon class="st1" points="59.5,23.3 123.3,0 187,23.3 186.4,25 123.3,1.9 60.1,25 "/>
<rect x="62.1" y="55.9" class="st1" width="122.5" height="15.6"/>
<polygon class="st2" points="126.5,2.7 119.9,2.7 115.1,4.5 131.4,4.5 "/>
<polygon class="st2" points="123.2,1.5 122.6,1.8 123.9,1.8 "/>
<path class="st2" d="M183.6,31.6v-1.8H62.9c0,0,0,0-0.1,0v1.8c0,0,0,0,0.1,0H183.6z"/>
<path class="st2" d="M62.8,54.3v1.9h120.8v-1.9H63C63,54.3,62.9,54.3,62.8,54.3z"/>
<path class="st2" d="M62.8,48.8v1.8c0.1,0,0.1,0,0.2,0h120.6v-1.8H63C63,48.8,62.9,48.8,62.8,48.8z"/>
<path class="st2" d="M62.8,51.6v1.8c0.1,0,0.1,0,0.2,0h120.6v-1.8H63C63,51.6,62.9,51.6,62.8,51.6z"/>
<path class="st2" d="M63,46.1c-0.1,0-0.1,0-0.2,0v1.8c0.1,0,0.1,0,0.2,0h120.6v-1.8H63z"/>
<path class="st2" d="M183.6,37.1v-1.8H62.9c0,0,0,0-0.1,0v1.8c0,0,0,0,0.1,0H183.6z"/>
<path class="st2" d="M183.6,34.4v-1.8H62.9c0,0,0,0-0.1,0v1.8c0,0,0,0,0.1,0H183.6z"/>
<path class="st2" d="M183.6,42.4v-1.7H62.9c0,0,0,0-0.1,0v1.7c0.1,0,0.1,0,0.2,0H183.6z"/>
<path class="st2" d="M183.6,39.8V38H62.9c0,0,0,0-0.1,0v1.8c0,0,0,0,0.1,0H183.6z"/>
<path class="st2" d="M183.6,45.2v-1.8H63c-0.1,0-0.1,0-0.2,0v1.8c0.1,0,0.1,0,0.2,0H183.6z"/>
<polygon class="st2" points="149.1,10.9 97.4,10.9 92.5,12.7 153.9,12.7 "/>
<polygon class="st2" points="156.6,13.6 89.9,13.6 84.8,15.5 161.7,15.5 "/>
<polygon class="st2" points="164.3,16.4 82.2,16.4 77.3,18.2 169.2,18.2 "/>
<path class="st2" d="M183.6,26.4v-1.8H62.9c0,0,0,0-0.1,0v1.8c0,0,0,0,0.1,0H183.6z"/>
<polygon class="st2" points="171.8,19.2 74.7,19.2 69.8,20.9 176.7,20.9 "/>
<path class="st2" d="M183.6,28.9v-1.6H62.9c0,0,0,0-0.1,0v1.6c0,0,0,0,0.1,0H183.6z"/>
<polygon class="st2" points="134.1,5.5 112.4,5.5 107.6,7.2 138.9,7.2 "/>
<path class="st2" d="M183.6,23.7v-0.2l-4.3-1.6H67.2l-4.3,1.6v0.2c0,0,0,0,0.1,0H183.6z"/>
<polygon class="st2" points="141.6,8.2 104.9,8.2 100.1,10 146.4,10 "/>
<polygon class="st3" points="62.9,23.5 123.3,1.5 183.7,23.5 183.7,56.2 62.9,56.2 "/>
<rect x="154.5" y="25.4" class="st4" width="24.7" height="26.2"/>
<rect x="125.5" y="25.4" class="st4" width="53.7" height="26.2"/>
<rect x="96.4" y="25.4" class="st5" width="24.7" height="26.2"/>
<rect x="67.4" y="25.4" class="st5" width="53.7" height="26.2"/>
</svg>
