<?xml version="1.0" encoding="utf-8"?>
<!-- Generator: Adobe Illustrator 22.0.1, SVG Export Plug-In . SVG Version: 6.00 Build 0)  -->
<svg version="1.1" id="Слой_1" xmlns="http://www.w3.org/2000/svg" xmlns:xlink="http://www.w3.org/1999/xlink" x="0px" y="0px"
	 viewBox="0 0 35.6162109 22.9998207" style="enable-background:new 0 0 35.6162109 22.9998207;" xml:space="preserve">
<style type="text/css">
	.st0{fill:#EE6F00;}
</style>
<path class="st0" d="M35.3239746,10.8118324L24.8415527,0.2932774c-0.3896484-0.3891602-1.0224609-0.3920898-1.4140625-0.0024414
	c-0.390625,0.3901367-0.3925781,1.0229492-0.0019531,1.4145508l8.7642212,8.7944336H1c-0.5522461,0-1,0.4477539-1,1s0.4477539,1,1,1
	h31.2241821L23.454834,21.293766c-0.3896484,0.390625-0.3896484,1.0244141,0.0019531,1.4140625
	c0.1953125,0.1943359,0.4501953,0.2919922,0.7060547,0.2919922c0.2568359,0,0.5126953-0.0976562,0.7080078-0.2939453
	l10.453125-10.4819336C35.713623,11.8338051,35.713623,11.2024574,35.3239746,10.8118324z"/>
</svg>
