<svg width="1920" height="10" viewBox="0 0 1920 10" fill="none" xmlns="http://www.w3.org/2000/svg">
<path d="M-3 0H42L33 10H-12L-3 0Z" fill="#E00E26"/>
<path d="M67 0H112L103 10H58L67 0Z" fill="#2A8AD0"/>
<path d="M137 0H182L173 10H128L137 0Z" fill="#E00E26"/>
<path d="M207 0H252L243 10H198L207 0Z" fill="#2A8AD0"/>
<path d="M277.167 0H323L313.833 10H268L277.167 0Z" fill="#E00E26"/>
<path d="M348.167 0H394L384.833 10H339L348.167 0Z" fill="#2A8AD0"/>
<path d="M419.333 0H466L456.667 10H410L419.333 0Z" fill="#E00E26"/>
<path d="M491.333 0H538L528.667 10H482L491.333 0Z" fill="#2A8AD0"/>
<path d="M563.5 0H611L601.5 10H554L563.5 0Z" fill="#E00E26"/>
<path d="M636.5 0H684L674.5 10H627L636.5 0Z" fill="#2A8AD0"/>
<path d="M709.5 0H757L747.5 10H700L709.5 0Z" fill="#E00E26"/>
<path d="M782.5 0H830L820.5 10H773L782.5 0Z" fill="#2A8AD0"/>
<path d="M855.5 0H903L893.5 10H846L855.5 0Z" fill="#E00E26"/>
<path d="M928.5 0H976L966.5 10H919L928.5 0Z" fill="#2A8AD0"/>
<path d="M1001.5 0H1049L1039.5 10H992L1001.5 0Z" fill="#E00E26"/>
<path d="M1074.5 0H1122L1112.5 10H1065L1074.5 0Z" fill="#2A8AD0"/>
<path d="M1147.67 0H1196L1186.33 10H1138L1147.67 0Z" fill="#E00E26"/>
<path d="M1221.67 0H1270L1260.33 10H1212L1221.67 0Z" fill="#2A8AD0"/>
<path d="M1295 0H1340L1331 10H1286L1295 0Z" fill="#E00E26"/>
<path d="M1365 0H1410L1401 10H1356L1365 0Z" fill="#2A8AD0"/>
<path d="M1435 0H1480L1471 10H1426L1435 0Z" fill="#E00E26"/>
<path d="M1505 0H1550L1541 10H1496L1505 0Z" fill="#2A8AD0"/>
<path d="M1575.17 0H1621L1611.83 10H1566L1575.17 0Z" fill="#E00E26"/>
<path d="M1646.17 0H1692L1682.83 10H1637L1646.17 0Z" fill="#2A8AD0"/>
<path d="M1717.33 0H1764L1754.67 10H1708L1717.33 0Z" fill="#E00E26"/>
<path d="M1789.33 0H1836L1826.67 10H1780L1789.33 0Z" fill="#2A8AD0"/>
<path d="M1861.5 0H1909L1899.5 10H1852L1861.5 0Z" fill="#E00E26"/>
</svg>
