<svg width="992" height="10" viewBox="0 0 992 10" fill="none" xmlns="http://www.w3.org/2000/svg">
<g clip-path="url(#clip0_783_1481)">
<path d="M-21 0H24L15 10H-30L-21 0Z" fill="#E00E26"/>
<path d="M49 0H94L85 10H40L49 0Z" fill="#2A8AD0"/>
<path d="M119 0H164L155 10H110L119 0Z" fill="#E00E26"/>
<path d="M189 0H234L225 10H180L189 0Z" fill="#2A8AD0"/>
<path d="M259.167 0H305L295.833 10H250L259.167 0Z" fill="#E00E26"/>
<path d="M330.167 0H376L366.833 10H321L330.167 0Z" fill="#2A8AD0"/>
<path d="M401.333 0H448L438.667 10H392L401.333 0Z" fill="#E00E26"/>
<path d="M473.333 0H520L510.667 10H464L473.333 0Z" fill="#2A8AD0"/>
<path d="M545.5 0H593L583.5 10H536L545.5 0Z" fill="#E00E26"/>
<path d="M618.5 0H666L656.5 10H609L618.5 0Z" fill="#2A8AD0"/>
<path d="M691.5 0H739L729.5 10H682L691.5 0Z" fill="#E00E26"/>
<path d="M764.5 0H812L802.5 10H755L764.5 0Z" fill="#2A8AD0"/>
<path d="M837.5 0H885L875.5 10H828L837.5 0Z" fill="#E00E26"/>
<path d="M910.5 0H958L948.5 10H901L910.5 0Z" fill="#2A8AD0"/>
<path d="M983.5 0H1031L1021.5 10H974L983.5 0Z" fill="#E00E26"/>
</g>
<defs>
<clipPath id="clip0_783_1481">
<rect width="992" height="10" fill="white"/>
</clipPath>
</defs>
</svg>
