<?xml version="1.0" encoding="utf-8"?>
<!-- Generator: Adobe Illustrator 22.0.1, SVG Export Plug-In . SVG Version: 6.00 Build 0)  -->
<svg version="1.1" id="Слой_1" xmlns="http://www.w3.org/2000/svg" xmlns:xlink="http://www.w3.org/1999/xlink" x="0px" y="0px"
	 viewBox="0 0 72 72.0003052" style="enable-background:new 0 0 72 72.0003052;" xml:space="preserve">
<style type="text/css">
	.st0{fill-rule:evenodd;clip-rule:evenodd;fill:#464731;}
	.st1{fill-rule:evenodd;clip-rule:evenodd;fill:#FFFFFF;}
	.st2{fill:#464731;}
	.st3{fill-rule:evenodd;clip-rule:evenodd;fill:#E4E8D0;}
</style>
<g>
	<g>
		<circle class="st0" cx="36" cy="36.0002289" r="36.0001144"/>
	</g>
	<g>
		<g>
			<g>
				<path class="st1" d="M66.4459991,17.736002v48.4301987H12.4289007c-0.9526997,0-1.5621004,0-2.4912996,0
					c-3.4407005,0-6.2300005-2.7889977-6.2300005-6.2296982c0-0.3211975,0.0246999-0.6357994,0.0711-0.9436989v-0.0004997
					C4.2340007,56,6.8178005,53.706501,9.9376011,53.706501c0.1921997,0,0.3823996,0.0096016,0.5709,0.0265999v-1.428299V23.6329021
					V17.736002H66.4459991z"/>
				<path class="st2" d="M66.4464417,66.5412674H9.9376535c-3.6420903,0-6.6049809-2.9628944-6.6049809-6.6049843
					c0-0.3330078,0.0253906-0.6694336,0.0751953-0.9995117c0.4863281-3.1958008,3.293457-5.6054688,6.5297856-5.6054688
					c0.0654297,0,0.1308594,0.0009766,0.1958008,0.0029297V17.7360897c0-0.2070312,0.1679688-0.375,0.375-0.375h55.9379883
					c0.2070312,0,0.375,0.1679688,0.375,0.375v48.4301758C66.8214417,66.3732986,66.6534729,66.5412674,66.4464417,66.5412674z
					 M9.9376535,54.0813026c-2.8686528,0-5.3574224,2.1357422-5.7885747,4.9677734
					c-0.0439453,0.2929688-0.0664062,0.5917969-0.0664062,0.887207c0,3.2285156,2.6264648,5.8549843,5.8549809,5.8549843h56.1337891
					V18.1110897H10.8834543v35.6220703c0,0.1054688-0.0444336,0.2060547-0.1220703,0.2768555
					c-0.0776367,0.0712891-0.1816406,0.1069336-0.2866211,0.0966797
					C10.2975168,54.09058,10.1188059,54.0813026,9.9376535,54.0813026z"/>
			</g>
			<g>
				<path class="st3" d="M10.5085011,23.6329021v28.6718998v1.428299c-0.1885004-0.0169983-0.3787003-0.0265999-0.5709-0.0265999
					c-3.1198006,0-5.7042003,2.293499-6.1589003,5.2863007l-0.0711,0.0135994V17.736002h0.0076001
					c-0.0053-0.1012001-0.0076001-0.203001-0.0076001-0.3062c0-3.4407005,2.7892997-6.2297001,6.2300005-6.2297001
					c0.1921997,0,0.3823996,0.0096998,0.5709,0.0267V23.6329021z"/>
				<path class="st2" d="M3.7648015,59.3689003c-0.0932617,0-0.1948242-0.0258789-0.2602539-0.0800781
					c-0.0864258-0.0712891-0.171875-0.1704102-0.171875-0.2822266V17.7360897c0-0.0200195,0.0014648-0.0395508,0.0043945-0.0585938
					c-0.0029297-0.081543-0.0043945-0.1645508-0.0043945-0.2475586c0-3.6420898,2.9628906-6.6049805,6.6049809-6.6049805
					c0.2036133,0,0.4047852,0.0102539,0.6044922,0.0283203c0.1933594,0.0175781,0.3413086,0.1796875,0.3413086,0.3735352v42.5063477
					c0,0.1054688-0.0444336,0.2060547-0.1220703,0.2768555c-0.0776367,0.0712891-0.1816406,0.1069336-0.2866211,0.0966797
					c-0.1772461-0.0161133-0.355957-0.0253906-0.5371094-0.0253906c-2.8691411,0-5.3579106,2.1357422-5.7885747,4.9677734
					c-0.0239258,0.1572266-0.1435547,0.2817383-0.2993164,0.3120117C3.822907,59.3664589,3.7945867,59.3689003,3.7648015,59.3689003
					z M4.0826726,17.8098202v39.0771484c1.1464844-2.1777344,3.5083008-3.6313477,6.0507817-3.5527344V11.5783749
					c-3.2783208-0.1303711-6.0507817,2.5576172-6.0507817,5.8515625c0,0.097168,0.0024414,0.1928711,0.0068359,0.2880859
					C4.0909734,17.7492733,4.088532,17.780035,4.0826726,17.8098202z"/>
			</g>
			<g>
				<path class="st2" d="M58.8595276,57.5705605H43.9894104c-0.4140625,0-0.75-0.3359375-0.75-0.75s0.3359375-0.75,0.75-0.75
					h14.1201172V26.7033749H16.5089417v29.3671856h19.8579102c0.4140625,0,0.75,0.3359375,0.75,0.75s-0.3359375,0.75-0.75,0.75
					H15.7589426c-0.4140625,0-0.75-0.3359375-0.75-0.75V25.9533749c0-0.4140625,0.3359375-0.75,0.75-0.75h43.1005859
					c0.4140625,0,0.75,0.3359375,0.75,0.75v30.8671856C59.6095276,57.234623,59.2735901,57.5705605,58.8595276,57.5705605z"/>
			</g>
			<g>
				<path class="st2" d="M31.1925354,57.5705605c-0.4140625,0-0.75-0.3359375-0.75-0.75v-9.5996094
					c0-0.4140625,0.3359375-0.75,0.75-0.75s0.75,0.3359375,0.75,0.75v9.5996094
					C31.9425354,57.234623,31.6065979,57.5705605,31.1925354,57.5705605z M31.1925354,36.2077675
					c-0.4140625,0-0.75-0.3359375-0.75-0.75v-9.5043926c0-0.4140625,0.3359375-0.75,0.75-0.75s0.75,0.3359375,0.75,0.75v9.5043926
					C31.9425354,35.87183,31.6065979,36.2077675,31.1925354,36.2077675z"/>
			</g>
			<g>
				<path class="st2" d="M43.9894104,57.5705605c-0.4140625,0-0.75-0.3359375-0.75-0.75v-9.5996094
					c0-0.4140625,0.3359375-0.75,0.75-0.75s0.75,0.3359375,0.75,0.75v9.5996094
					C44.7394104,57.234623,44.4034729,57.5705605,43.9894104,57.5705605z M50.2228088,36.2077675
					c-0.4140625,0-0.75-0.3359375-0.75-0.75v-9.5043926c0-0.4140625,0.3359375-0.75,0.75-0.75s0.75,0.3359375,0.75,0.75v9.5043926
					C50.9728088,35.87183,50.6368713,36.2077675,50.2228088,36.2077675z"/>
			</g>
			<g>
				<path class="st2" d="M35.9444885,37.2429237h-9.5039062c-0.4140625,0-0.75-0.3359375-0.75-0.75s0.3359375-0.75,0.75-0.75
					h9.5039062c0.4140625,0,0.75,0.3359375,0.75,0.75S36.358551,37.2429237,35.9444885,37.2429237z"/>
			</g>
			<g>
				<path class="st2" d="M35.9923401,46.8425331h-9.5996094c-0.4140625,0-0.75-0.3359375-0.75-0.75s0.3359375-0.75,0.75-0.75
					h9.5996094c0.4140625,0,0.75,0.3359375,0.75,0.75S36.4064026,46.8425331,35.9923401,46.8425331z"/>
			</g>
			<g>
				<path class="st2" d="M52.9083557,37.2429237h-5.4414062c-0.4140625,0-0.75-0.3359375-0.75-0.75s0.3359375-0.75,0.75-0.75
					h5.4414062c0.4140625,0,0.75,0.3359375,0.75,0.75S53.3224182,37.2429237,52.9083557,37.2429237z"/>
			</g>
			<g>
				<rect x="14.8574009" y="5.8341017" class="st3" width="50.4410973" height="6.5878"/>
				<path class="st2" d="M65.2989807,12.7971249H14.8575754c-0.2070312,0-0.375-0.1679688-0.375-0.375V5.8342342
					c0-0.2070312,0.1679688-0.375,0.375-0.375h50.4414062c0.2070312,0,0.375,0.1679688,0.375,0.375v6.5878906
					C65.6739807,12.6291561,65.506012,12.7971249,65.2989807,12.7971249z M15.2325754,12.0471249h49.6914062V6.2092342H15.2325754
					V12.0471249z"/>
			</g>
			<g>
				<g>
					<path class="st2" d="M23.2574768,9.5031796c-0.2070312,0-0.375-0.1679688-0.375-0.375V5.8342342
						c0-0.2070312,0.1679688-0.375,0.375-0.375s0.375,0.1679688,0.375,0.375v3.2939453
						C23.6324768,9.3352108,23.4645081,9.5031796,23.2574768,9.5031796z"/>
				</g>
				<g>
					<path class="st2" d="M31.599762,9.5031796c-0.2070312,0-0.375-0.1679688-0.375-0.375V5.8342342
						c0-0.2070312,0.1679688-0.375,0.375-0.375s0.375,0.1679688,0.375,0.375v3.2939453
						C31.974762,9.3352108,31.8067932,9.5031796,31.599762,9.5031796z"/>
				</g>
				<g>
					<path class="st2" d="M39.7608948,9.5031796c-0.2070312,0-0.375-0.1679688-0.375-0.375V5.8342342
						c0-0.2070312,0.1679688-0.375,0.375-0.375s0.375,0.1679688,0.375,0.375v3.2939453
						C40.1358948,9.3352108,39.967926,9.5031796,39.7608948,9.5031796z"/>
				</g>
				<g>
					<path class="st2" d="M48.1036682,9.5031796c-0.2070312,0-0.375-0.1679688-0.375-0.375V5.8342342
						c0-0.2070312,0.1679688-0.375,0.375-0.375s0.375,0.1679688,0.375,0.375v3.2939453
						C48.4786682,9.3352108,48.3106995,9.5031796,48.1036682,9.5031796z"/>
				</g>
				<g>
					<path class="st2" d="M56.8985901,9.5031796c-0.2070312,0-0.375-0.1679688-0.375-0.375V5.8342342
						c0-0.2070312,0.1679688-0.375,0.375-0.375s0.375,0.1679688,0.375,0.375v3.2939453
						C57.2735901,9.3352108,57.1056213,9.5031796,56.8985901,9.5031796z"/>
				</g>
			</g>
		</g>
		<g>
			<path class="st2" d="M68.2921448,51.5622597c-0.2070312,0-0.375-0.1679688-0.375-0.375V20.8127499
				c0-0.2070312,0.1679688-0.375,0.375-0.375s0.375,0.1679688,0.375,0.375v30.3745098
				C68.6671448,51.3942909,68.499176,51.5622597,68.2921448,51.5622597z"/>
		</g>
		<g>
			<path class="st2" d="M8.7608957,44.1560097c-0.2070312,0-0.375-0.1679688-0.375-0.375V13.4064999
				c0-0.2070312,0.1679688-0.375,0.375-0.375s0.375,0.1679688,0.375,0.375v30.3745098
				C9.1358957,43.9880409,8.967927,44.1560097,8.7608957,44.1560097z"/>
		</g>
		<g>
			<path class="st2" d="M46.8233948,66.5412674c-0.2070312,0-0.375-0.1679688-0.375-0.375v-4.9721718
				c0-0.2070312,0.1679688-0.375,0.375-0.375s0.375,0.1679688,0.375,0.375v4.9721718
				C47.1983948,66.3732986,47.030426,66.5412674,46.8233948,66.5412674z"/>
		</g>
		<g>
			<path class="st2" d="M66.4464417,61.5695839H46.8233948c-0.2070312,0-0.375-0.1679688-0.375-0.375s0.1679688-0.375,0.375-0.375
				h19.6230469c0.2070312,0,0.375,0.1679688,0.375,0.375S66.6534729,61.5695839,66.4464417,61.5695839z"/>
		</g>
	</g>
</g>
</svg>
