<?xml version="1.0" encoding="utf-8"?>
<!-- Generator: Adobe Illustrator 22.0.1, SVG Export Plug-In . SVG Version: 6.00 Build 0)  -->
<svg version="1.1" id="Слой_1" xmlns="http://www.w3.org/2000/svg" xmlns:xlink="http://www.w3.org/1999/xlink" x="0px" y="0px"
	 viewBox="0 0 72 72.0003052" style="enable-background:new 0 0 72 72.0003052;" xml:space="preserve">
<style type="text/css">
	.st0{fill-rule:evenodd;clip-rule:evenodd;fill:#464731;}
	.st1{fill-rule:evenodd;clip-rule:evenodd;fill:#FFFFFF;}
	.st2{fill:#464731;}
	.st3{fill-rule:evenodd;clip-rule:evenodd;fill:#E4E8D0;}
	.st4{fill-rule:evenodd;clip-rule:evenodd;fill:#96B11F;}
</style>
<g>
	<g>
		<circle class="st0" cx="36" cy="36.0000763" r="36.0000381"/>
	</g>
	<g>
		<g>
			<g>
				<g>
					<path class="st1" d="M25.8864498,29.0039997c6.7424984,0,13.4847012,0,20.2269001,0
						c0.8097992,0,1.4723015,0.6624012,1.4723015,1.4723015v5.3337002c0,0.8097992-0.6625023,1.4722977-1.4723015,1.4722977
						c-6.7421989,0-13.4844017,0-20.2269001,0c-0.8095989,0-1.4722996-0.6624985-1.4722996-1.4722977v-5.3337002
						C24.4141502,29.6664009,25.0768509,29.0039997,25.8864498,29.0039997z"/>
					<path class="st2" d="M46.1138344,37.657505h-20.227541c-1.0185547,0-1.847168-0.8291016-1.847168-1.8476562v-5.3339844
						c0-1.0185547,0.8286133-1.8466797,1.847168-1.8466797h20.227541c1.0185547,0,1.8466797,0.828125,1.8466797,1.8466797v5.3339844
						C47.9605141,36.8284035,47.1323891,37.657505,46.1138344,37.657505z M25.8862934,29.3791847
						c-0.6049805,0-1.097168,0.4921875-1.097168,1.0966797v5.3339844c0,0.6054688,0.4921875,1.0976562,1.097168,1.0976562h20.227541
						c0.6044922,0,1.0966797-0.4921875,1.0966797-1.0976562v-5.3339844c0-0.6044922-0.4921875-1.0966797-1.0966797-1.0966797
						H25.8862934z"/>
				</g>
				<g>
					<path class="st1" d="M2.7151508,29.0039997c6.7421999,0,13.4843998,0,20.2265987,0
						c0.8099003,0,1.4724007,0.6624012,1.4724007,1.4723015v5.3337002c0,0.8097992-0.6625004,1.4722977-1.4724007,1.4722977
						c-6.7421989,0-13.4843988,0-20.2265987,0c-0.8098,0-1.4722999-0.6624985-1.4722999-1.4722977v-5.3337002
						C1.2428509,29.6664009,1.9053508,29.0039997,2.7151508,29.0039997z"/>
					<path class="st2" d="M22.9419575,37.657505H2.7149069c-1.0185546,0-1.8471678-0.8291016-1.8471678-1.8476562v-5.3339844
						c0-1.0185547,0.8286133-1.8466797,1.8471678-1.8466797h20.2270508c1.0185547,0,1.847168,0.828125,1.847168,1.8466797v5.3339844
						C24.7891254,36.8284035,23.9605122,37.657505,22.9419575,37.657505z M2.7149069,29.3791847
						c-0.6049805,0-1.0971678,0.4921875-1.0971678,1.0966797v5.3339844c0,0.6054688,0.4921874,1.0976562,1.0971678,1.0976562
						h20.2270508c0.6049805,0,1.097168-0.4921875,1.097168-1.0976562v-5.3339844
						c0-0.6044922-0.4921875-1.0966797-1.097168-1.0966797H2.7149069z"/>
				</g>
				<g>
					<path class="st1" d="M49.0579491,29.0039997c6.7421989,0,13.4846992,0,20.226902,0
						c0.8098984,0,1.4722977,0.6624012,1.4722977,1.4723015v5.3337002c0,0.8097992-0.6623993,1.4722977-1.4722977,1.4722977
						c-6.7422028,0-13.4847031,0-20.226902,0c-0.8096008,0-1.4722977-0.6624985-1.4722977-1.4722977v-5.3337002
						C47.5856514,29.6664009,48.2483482,29.0039997,49.0579491,29.0039997z"/>
					<path class="st2" d="M69.284729,37.657505H49.0581703c-1.0185547,0-1.8476562-0.8291016-1.8476562-1.8476562v-5.3339844
						c0-1.0185547,0.8291016-1.8466797,1.8476562-1.8466797H69.284729c1.0185547,0,1.8476562,0.828125,1.8476562,1.8466797
						v5.3339844C71.1323853,36.8284035,70.3032837,37.657505,69.284729,37.657505z M49.0581703,29.3791847
						c-0.6054688,0-1.0976562,0.4921875-1.0976562,1.0966797v5.3339844c0,0.6054688,0.4921875,1.0976562,1.0976562,1.0976562
						H69.284729c0.6054688,0,1.0976562-0.4921875,1.0976562-1.0976562v-5.3339844
						c0-0.6044922-0.4921875-1.0966797-1.0976562-1.0966797H49.0581703z"/>
				</g>
			</g>
			<g>
				<g>
					<path class="st1" d="M37.4721489,37.282299c6.7425003,0,13.4846992,0,20.226902,0
						c0.8098984,0,1.4723969,0.6624031,1.4723969,1.4723015v5.3336983c0,0.809803-0.6624985,1.4723015-1.4723969,1.4723015
						c-6.7422028,0-13.4844017,0-20.226902,0c-0.8094978,0-1.4722977-0.6624985-1.4722977-1.4723015v-5.3336983
						C35.9998512,37.9447021,36.6626511,37.282299,37.4721489,37.282299z"/>
					<path class="st2" d="M57.6987953,45.9358253H37.4722328c-1.0185547,0-1.847168-0.8291016-1.847168-1.8476562v-5.3339844
						c0-1.0185547,0.8286133-1.8466797,1.847168-1.8466797h20.2265625c1.0185547,0,1.8476562,0.828125,1.8476562,1.8466797
						v5.3339844C59.5464516,45.1067238,58.71735,45.9358253,57.6987953,45.9358253z M37.4722328,37.657505
						c-0.6049805,0-1.097168,0.4921875-1.097168,1.0966797v5.3339844c0,0.6054688,0.4921875,1.0976562,1.097168,1.0976562
						h20.2265625c0.6054688,0,1.0976562-0.4921875,1.0976562-1.0976562v-5.3339844
						c0-0.6044922-0.4921875-1.0966797-1.0976562-1.0966797H37.4722328z"/>
				</g>
				<g>
					<path class="st1" d="M14.300951,37.282299c6.7421989,0,13.4843998,0,20.2265987,0
						c0.8098984,0,1.4723015,0.6624031,1.4723015,1.4723015v5.3336983c0,0.809803-0.6624031,1.4723015-1.4723015,1.4723015
						c-6.7421989,0-13.4843998,0-20.2265987,0c-0.8099003,0-1.4723005-0.6624985-1.4723005-1.4723015v-5.3336983
						C12.8286505,37.9447021,13.4910507,37.282299,14.300951,37.282299z"/>
					<path class="st2" d="M34.5274086,45.9358253H14.3008442c-1.0185547,0-1.847168-0.8291016-1.847168-1.8476562v-5.3339844
						c0-1.0185547,0.8286133-1.8466797,1.847168-1.8466797h20.2265644c1.0185547,0,1.8476562,0.828125,1.8476562,1.8466797
						v5.3339844C36.3750648,45.1067238,35.5459633,45.9358253,34.5274086,45.9358253z M14.3008442,37.657505
						c-0.6049805,0-1.097168,0.4921875-1.097168,1.0966797v5.3339844c0,0.6054688,0.4921875,1.0976562,1.097168,1.0976562
						h20.2265644c0.6054688,0,1.0976562-0.4921875,1.0976562-1.0976562v-5.3339844
						c0-0.6044922-0.4921875-1.0966797-1.0976562-1.0966797H14.3008442z"/>
				</g>
			</g>
			<g>
				<g>
					<path class="st1" d="M37.4721489,53.8394012c6.7425003,0,13.4846992,0,20.226902,0
						c0.8098984,0,1.4723969,0.6624985,1.4723969,1.4724007v5.3335991c0,0.8098984-0.6624985,1.4722977-1.4723969,1.4722977
						c-6.7422028,0-13.4844017,0-20.226902,0c-0.8094978,0-1.4722977-0.6623993-1.4722977-1.4722977v-5.3335991
						C35.9998512,54.5018997,36.6626511,53.8394012,37.4721489,53.8394012z"/>
					<path class="st2" d="M57.6987953,62.492466H37.4722328c-1.0185547,0-1.847168-0.828125-1.847168-1.8466797v-5.3339844
						c0-1.0185547,0.8286133-1.8476562,1.847168-1.8476562h20.2265625c1.0185547,0,1.8476562,0.8291016,1.8476562,1.8476562
						v5.3339844C59.5464516,61.664341,58.71735,62.492466,57.6987953,62.492466z M37.4722328,54.2141457
						c-0.6049805,0-1.097168,0.4921875-1.097168,1.0976562v5.3339844c0,0.6044922,0.4921875,1.0966797,1.097168,1.0966797
						h20.2265625c0.6054688,0,1.0976562-0.4921875,1.0976562-1.0966797v-5.3339844
						c0-0.6054688-0.4921875-1.0976562-1.0976562-1.0976562H37.4722328z"/>
				</g>
				<g>
					<path class="st1" d="M14.300951,53.8394012c6.7421989,0,13.4843998,0,20.2265987,0
						c0.8098984,0,1.4723015,0.6624985,1.4723015,1.4724007v5.3335991c0,0.8098984-0.6624031,1.4722977-1.4723015,1.4722977
						c-6.7421989,0-13.4843998,0-20.2265987,0c-0.8099003,0-1.4723005-0.6623993-1.4723005-1.4722977v-5.3335991
						C12.8286505,54.5018997,13.4910507,53.8394012,14.300951,53.8394012z"/>
					<path class="st2" d="M34.5274086,62.492466H14.3008442c-1.0185547,0-1.847168-0.828125-1.847168-1.8466797v-5.3339844
						c0-1.0185547,0.8286133-1.8476562,1.847168-1.8476562h20.2265644c1.0185547,0,1.8476562,0.8291016,1.8476562,1.8476562
						v5.3339844C36.3750648,61.664341,35.5459633,62.492466,34.5274086,62.492466z M14.3008442,54.2141457
						c-0.6049805,0-1.097168,0.4921875-1.097168,1.0976562v5.3339844c0,0.6044922,0.4921875,1.0966797,1.097168,1.0966797
						h20.2265644c0.6054688,0,1.0976562-0.4921875,1.0976562-1.0966797v-5.3339844
						c0-0.6054688-0.4921875-1.0976562-1.0976562-1.0976562H14.3008442z"/>
				</g>
			</g>
			<g>
				<g>
					<path class="st1" d="M25.8864498,45.5606003c6.7424984,0,13.4847012,0,20.2269001,0
						c0.8097992,0,1.4723015,0.6627007,1.4723015,1.4723015v5.3338966c0,0.8096008-0.6625023,1.4724007-1.4723015,1.4724007
						c-6.7421989,0-13.4844017,0-20.2269001,0c-0.8095989,0-1.4722996-0.6627998-1.4722996-1.4724007v-5.3338966
						C24.4141502,46.2233009,25.0768509,45.5606003,25.8864498,45.5606003z"/>
					<path class="st2" d="M46.1138344,54.2141457h-20.227541c-1.0185547,0-1.847168-0.8291016-1.847168-1.8476562V47.032505
						c0-1.0185547,0.8286133-1.8466797,1.847168-1.8466797h20.227541c1.0185547,0,1.8466797,0.828125,1.8466797,1.8466797v5.3339844
						C47.9605141,53.3850441,47.1323891,54.2141457,46.1138344,54.2141457z M25.8862934,45.9358253
						c-0.6049805,0-1.097168,0.4921875-1.097168,1.0966797v5.3339844c0,0.6054688,0.4921875,1.0976562,1.097168,1.0976562h20.227541
						c0.6044922,0,1.0966797-0.4921875,1.0966797-1.0976562V47.032505c0-0.6044922-0.4921875-1.0966797-1.0966797-1.0966797
						H25.8862934z"/>
				</g>
				<g>
					<path class="st1" d="M2.7151508,45.5606003c6.7421999,0,13.4843998,0,20.2265987,0
						c0.8099003,0,1.4724007,0.6627007,1.4724007,1.4723015v5.3338966c0,0.8096008-0.6625004,1.4724007-1.4724007,1.4724007
						c-6.7421989,0-13.4843988,0-20.2265987,0c-0.8098,0-1.4722999-0.6627998-1.4722999-1.4724007v-5.3338966
						C1.2428509,46.2233009,1.9053508,45.5606003,2.7151508,45.5606003z"/>
					<path class="st2" d="M22.9419575,54.2141457H2.7149069c-1.0185546,0-1.8471678-0.8291016-1.8471678-1.8476562V47.032505
						c0-1.0185547,0.8286133-1.8466797,1.8471678-1.8466797h20.2270508c1.0185547,0,1.847168,0.828125,1.847168,1.8466797v5.3339844
						C24.7891254,53.3850441,23.9605122,54.2141457,22.9419575,54.2141457z M2.7149069,45.9358253
						c-0.6049805,0-1.0971678,0.4921875-1.0971678,1.0966797v5.3339844c0,0.6054688,0.4921874,1.0976562,1.0971678,1.0976562
						h20.2270508c0.6049805,0,1.097168-0.4921875,1.097168-1.0976562V47.032505c0-0.6044922-0.4921875-1.0966797-1.097168-1.0966797
						H2.7149069z"/>
				</g>
				<g>
					<path class="st1" d="M49.0579491,45.5606003c6.7421989,0,13.4846992,0,20.226902,0
						c0.8098984,0,1.4722977,0.6627007,1.4722977,1.4723015v5.3338966c0,0.8096008-0.6623993,1.4724007-1.4722977,1.4724007
						c-6.7422028,0-13.4847031,0-20.226902,0c-0.8096008,0-1.4722977-0.6627998-1.4722977-1.4724007v-5.3338966
						C47.5856514,46.2233009,48.2483482,45.5606003,49.0579491,45.5606003z"/>
					<path class="st2" d="M69.284729,54.2141457H49.0581703c-1.0185547,0-1.8476562-0.8291016-1.8476562-1.8476562V47.032505
						c0-1.0185547,0.8291016-1.8466797,1.8476562-1.8466797H69.284729c1.0185547,0,1.8476562,0.828125,1.8476562,1.8466797
						v5.3339844C71.1323853,53.3850441,70.3032837,54.2141457,69.284729,54.2141457z M49.0581703,45.9358253
						c-0.6054688,0-1.0976562,0.4921875-1.0976562,1.0966797v5.3339844c0,0.6054688,0.4921875,1.0976562,1.0976562,1.0976562
						H69.284729c0.6054688,0,1.0976562-0.4921875,1.0976562-1.0976562V47.032505
						c0-0.6044922-0.4921875-1.0966797-1.0976562-1.0966797H49.0581703z"/>
				</g>
			</g>
			<g>
				<g>
					<path class="st1" d="M37.4721489,20.7254009c6.7425003,0,13.4846992,0,20.226902,0
						c0.8098984,0,1.4723969,0.6626987,1.4723969,1.4722996v5.3339996c0,0.8094997-0.6624985,1.4722996-1.4723969,1.4722996
						c-6.7422028,0-13.4844017,0-20.226902,0c-0.8094978,0-1.4722977-0.6627998-1.4722977-1.4722996v-5.3339996
						C35.9998512,21.3880997,36.6626511,20.7254009,37.4721489,20.7254009z"/>
					<path class="st2" d="M57.6987953,29.3791847H37.4722328c-1.0185547,0-1.847168-0.8291016-1.847168-1.8476562v-5.3339844
						c0-1.0185547,0.8286133-1.8466797,1.847168-1.8466797h20.2265625c1.0185547,0,1.8476562,0.828125,1.8476562,1.8466797
						v5.3339844C59.5464516,28.5500832,58.71735,29.3791847,57.6987953,29.3791847z M37.4722328,21.1008644
						c-0.6049805,0-1.097168,0.4921875-1.097168,1.0966797v5.3339844c0,0.6054688,0.4921875,1.0976562,1.097168,1.0976562
						h20.2265625c0.6054688,0,1.0976562-0.4921875,1.0976562-1.0976562v-5.3339844
						c0-0.6044922-0.4921875-1.0966797-1.0976562-1.0966797H37.4722328z"/>
				</g>
				<g>
					<path class="st1" d="M14.300951,20.7254009c6.7421989,0,13.4843998,0,20.2265987,0
						c0.8098984,0,1.4723015,0.6626987,1.4723015,1.4722996v5.3339996c0,0.8094997-0.6624031,1.4722996-1.4723015,1.4722996
						c-6.7421989,0-13.4843998,0-20.2265987,0c-0.8099003,0-1.4723005-0.6627998-1.4723005-1.4722996v-5.3339996
						C12.8286505,21.3880997,13.4910507,20.7254009,14.300951,20.7254009z"/>
					<path class="st2" d="M34.5274086,29.3791847H14.3008442c-1.0185547,0-1.847168-0.8291016-1.847168-1.8476562v-5.3339844
						c0-1.0185547,0.8286133-1.8466797,1.847168-1.8466797h20.2265644c1.0185547,0,1.8476562,0.828125,1.8476562,1.8466797
						v5.3339844C36.3750648,28.5500832,35.5459633,29.3791847,34.5274086,29.3791847z M14.3008442,21.1008644
						c-0.6049805,0-1.097168,0.4921875-1.097168,1.0966797v5.3339844c0,0.6054688,0.4921875,1.0976562,1.097168,1.0976562
						h20.2265644c0.6054688,0,1.0976562-0.4921875,1.0976562-1.0976562v-5.3339844
						c0-0.6044922-0.4921875-1.0966797-1.0976562-1.0966797H14.3008442z"/>
				</g>
			</g>
			<g>
				<g>
					<path class="st1" d="M37.4721489,4.1688004c6.7425003,0,13.4846992,0,20.226902,0
						c0.8098984,0,1.4723969,0.6626997,1.4723969,1.4723001v5.3340001c0,0.8094997-0.6624985,1.4722996-1.4723969,1.4722996
						c-6.7422028,0-13.4844017,0-20.226902,0c-0.8094978,0-1.4722977-0.6627998-1.4722977-1.4722996V5.6411004
						C35.9998512,4.8315001,36.6626511,4.1688004,37.4721489,4.1688004z"/>
					<path class="st2" d="M57.6987953,12.8225431H37.4722328c-1.0185547,0-1.847168-0.8291016-1.847168-1.8476562V5.640903
						c0-1.0185547,0.8286133-1.8466797,1.847168-1.8466797h20.2265625c1.0185547,0,1.8476562,0.828125,1.8476562,1.8466797
						v5.3339839C59.5464516,11.9934416,58.71735,12.8225431,57.6987953,12.8225431z M37.4722328,4.5442233
						c-0.6049805,0-1.097168,0.4921875-1.097168,1.0966797v5.3339839c0,0.6054688,0.4921875,1.0976562,1.097168,1.0976562
						h20.2265625c0.6054688,0,1.0976562-0.4921875,1.0976562-1.0976562V5.640903
						c0-0.6044922-0.4921875-1.0966797-1.0976562-1.0966797H37.4722328z"/>
				</g>
				<g>
					<path class="st1" d="M14.300951,4.1688004c6.7421989,0,13.4843998,0,20.2265987,0
						c0.8098984,0,1.4723015,0.6626997,1.4723015,1.4723001v5.3340001c0,0.8094997-0.6624031,1.4722996-1.4723015,1.4722996
						c-6.7421989,0-13.4843998,0-20.2265987,0c-0.8099003,0-1.4723005-0.6627998-1.4723005-1.4722996V5.6411004
						C12.8286505,4.8315001,13.4910507,4.1688004,14.300951,4.1688004z"/>
					<path class="st2" d="M34.5274086,12.8225431H14.3008442c-1.0185547,0-1.847168-0.8291016-1.847168-1.8476562V5.640903
						c0-1.0185547,0.8286133-1.8466797,1.847168-1.8466797h20.2265644c1.0185547,0,1.8476562,0.828125,1.8476562,1.8466797
						v5.3339839C36.3750648,11.9934416,35.5459633,12.8225431,34.5274086,12.8225431z M14.3008442,4.5442233
						c-0.6049805,0-1.097168,0.4921875-1.097168,1.0966797v5.3339839c0,0.6054688,0.4921875,1.0976562,1.097168,1.0976562
						h20.2265644c0.6054688,0,1.0976562-0.4921875,1.0976562-1.0976562V5.640903
						c0-0.6044922-0.4921875-1.0966797-1.0976562-1.0966797H14.3008442z"/>
				</g>
			</g>
			<g>
				<g>
					<path class="st1" d="M25.8864498,12.4471006c6.7424984,0,13.4847012,0,20.2269001,0
						c0.8097992,0,1.4723015,0.6624994,1.4723015,1.4722996v5.3336992c0,0.8098011-0.6625023,1.4723015-1.4723015,1.4723015
						c-6.7421989,0-13.4844017,0-20.2269001,0c-0.8095989,0-1.4722996-0.6625004-1.4722996-1.4723015v-5.3336992
						C24.4141502,13.1096001,25.0768509,12.4471006,25.8864498,12.4471006z"/>
					<path class="st2" d="M46.1138344,21.1008644h-20.227541c-1.0185547,0-1.847168-0.8291016-1.847168-1.8476562v-5.3339853
						c0-1.0185547,0.8286133-1.8466797,1.847168-1.8466797h20.227541c1.0185547,0,1.8466797,0.828125,1.8466797,1.8466797v5.3339853
						C47.9605141,20.2717628,47.1323891,21.1008644,46.1138344,21.1008644z M25.8862934,12.8225431
						c-0.6049805,0-1.097168,0.4921875-1.097168,1.0966797v5.3339853c0,0.6054688,0.4921875,1.0976562,1.097168,1.0976562h20.227541
						c0.6044922,0,1.0966797-0.4921875,1.0966797-1.0976562v-5.3339853c0-0.6044922-0.4921875-1.0966797-1.0966797-1.0966797
						H25.8862934z"/>
				</g>
				<g>
					<path class="st1" d="M2.7151508,12.4471006c6.7421999,0,13.4843998,0,20.2265987,0
						c0.8099003,0,1.4724007,0.6624994,1.4724007,1.4722996v5.3336992c0,0.8098011-0.6625004,1.4723015-1.4724007,1.4723015
						c-6.7421989,0-13.4843988,0-20.2265987,0c-0.8098,0-1.4722999-0.6625004-1.4722999-1.4723015v-5.3336992
						C1.2428509,13.1096001,1.9053508,12.4471006,2.7151508,12.4471006z"/>
					<path class="st2" d="M22.9419575,21.1008644H2.7149069c-1.0185546,0-1.8471678-0.8291016-1.8471678-1.8476562v-5.3339853
						c0-1.0185547,0.8286133-1.8466797,1.8471678-1.8466797h20.2270508c1.0185547,0,1.847168,0.828125,1.847168,1.8466797v5.3339853
						C24.7891254,20.2717628,23.9605122,21.1008644,22.9419575,21.1008644z M2.7149069,12.8225431
						c-0.6049805,0-1.0971678,0.4921875-1.0971678,1.0966797v5.3339853c0,0.6054688,0.4921874,1.0976562,1.0971678,1.0976562
						h20.2270508c0.6049805,0,1.097168-0.4921875,1.097168-1.0976562v-5.3339853
						c0-0.6044922-0.4921875-1.0966797-1.097168-1.0966797H2.7149069z"/>
				</g>
				<g>
					<path class="st1" d="M49.0579491,12.4471006c6.7421989,0,13.4846992,0,20.226902,0
						c0.8098984,0,1.4722977,0.6624994,1.4722977,1.4722996v5.3336992c0,0.8098011-0.6623993,1.4723015-1.4722977,1.4723015
						c-6.7422028,0-13.4847031,0-20.226902,0c-0.8096008,0-1.4722977-0.6625004-1.4722977-1.4723015v-5.3336992
						C47.5856514,13.1096001,48.2483482,12.4471006,49.0579491,12.4471006z"/>
					<path class="st2" d="M69.284729,21.1008644H49.0581703c-1.0185547,0-1.8476562-0.8291016-1.8476562-1.8476562v-5.3339853
						c0-1.0185547,0.8291016-1.8466797,1.8476562-1.8466797H69.284729c1.0185547,0,1.8476562,0.828125,1.8476562,1.8466797
						v5.3339853C71.1323853,20.2717628,70.3032837,21.1008644,69.284729,21.1008644z M49.0581703,12.8225431
						c-0.6054688,0-1.0976562,0.4921875-1.0976562,1.0966797v5.3339853c0,0.6054688,0.4921875,1.0976562,1.0976562,1.0976562
						H69.284729c0.6054688,0,1.0976562-0.4921875,1.0976562-1.0976562v-5.3339853
						c0-0.6044922-0.4921875-1.0966797-1.0976562-1.0966797H49.0581703z"/>
				</g>
			</g>
		</g>
		<g>
			<g>
				<path class="st3" d="M16.3980503,37.976799l23.0006008-15.4763985c0.4095993-0.2758007,0.9690971-0.1662998,1.2448997,0.2432995
					l3.8838005,5.7721996c0.2754974,0.4096012,0.1660995,0.969101-0.2434998,1.2448997L21.2832508,45.2374001
					c-0.4096012,0.2756004-0.9692001,0.1660995-1.2446995-0.2434998l-3.8840008-5.7722015
					C15.8789501,38.8120995,15.9884501,38.2526016,16.3980503,37.976799z"/>
				<path class="st2" d="M20.786684,45.7649269c-0.0825195,0-0.1655273-0.0078125-0.2480469-0.0244141
					c-0.3339844-0.0654297-0.6220703-0.2568359-0.8115234-0.5380859l-3.8837891-5.7714844
					c-0.3911133-0.5820312-0.2363281-1.3740234,0.3452148-1.765625L39.1900063,22.188755
					c0.5800781-0.3886719,1.3720703-0.2373047,1.7646484,0.3457031l3.8837891,5.7724609
					c0.1884766,0.2792969,0.2578125,0.6181641,0.1923828,0.9521484c-0.0644531,0.3339844-0.2558594,0.6230469-0.5371094,0.8125
					L21.4927387,45.5491066C21.2808247,45.6907082,21.036684,45.7649269,20.786684,45.7649269z M39.8989906,22.7229347
					c-0.1005859,0-0.2011719,0.0283203-0.2910156,0.0888672L16.6074848,38.2883644c0,0,0,0-0.0004883,0
					c-0.2382812,0.1601562-0.3017578,0.4853516-0.1411133,0.7246094l3.8837891,5.7714844
					c0.0776367,0.1152344,0.1958008,0.1933594,0.3330078,0.2197266c0.137207,0.0283203,0.2763672,0,0.3916016-0.078125
					l23.0004902-15.4765625c0.1152344-0.0771484,0.1933594-0.1962891,0.2197266-0.3339844
					c0.0273438-0.1367188-0.0009766-0.2753906-0.078125-0.3896484l-3.8847656-5.7734375
					C40.2310219,22.8030128,40.0669594,22.7229347,39.8989906,22.7229347z M16.3980122,37.976841h0.0092773H16.3980122z"/>
			</g>
			<g>
				<path class="st3" d="M52.0037498,67.5233994l-9.5619011-14.2100983
					c-0.214798-0.3192024-0.1294975-0.7554016,0.1900024-0.9703026l4.5-3.0278969
					c0.3190994-0.214901,0.7561989-0.1284027,0.9702988,0.1895981l9.5615005,14.2103996
					c0.2140007,0.3180046,0.1283989,0.7561989-0.1896019,0.9703026l-4.5,3.0279007
					C52.6559486,67.9272995,52.2183495,67.8429031,52.0037498,67.5233994z"/>
				<path class="st2" d="M52.5845375,68.2073059c-0.3457031,0-0.6855469-0.1669922-0.8925781-0.4746094l-9.5615234-14.2099571
					c-0.1591797-0.2373047-0.2167969-0.5234375-0.1621094-0.8056641s0.2158203-0.5253906,0.4541016-0.6855469l4.5-3.0283203
					c0.2363281-0.1591797,0.5244141-0.2167969,0.8066406-0.1611328s0.5253906,0.2167969,0.6845703,0.4541016l9.5615234,14.2099609
					c0.3291016,0.4902344,0.1992188,1.1591759-0.2910156,1.4902306l-4.5009766,3.0283203
					C52.9995766,68.1477356,52.7915688,68.2073059,52.5845375,68.2073059z M47.5191078,49.5715675
					c-0.0634766,0-0.125,0.0185547-0.1787109,0.0546875l-4.5,3.0283203c-0.1474609,0.0996094-0.1875,0.3017578-0.0869141,0.4501953
					l9.5615234,14.2099571l0,0c0.0986328,0.1455078,0.3037109,0.1865234,0.4501953,0.0869141l4.5-3.0273438
					c0.1445312-0.0976562,0.1855469-0.3046875,0.0869141-0.4501915l-9.5615234-14.2099609
					c-0.0478516-0.0712891-0.1210938-0.1191406-0.2070312-0.1357422
					C47.5620766,49.5735207,47.5405922,49.5715675,47.5191078,49.5715675z"/>
			</g>
			<g>
				<path class="st2" d="M44.6968422,51.3284035c-0.1201172,0-0.2382812-0.0576172-0.3115234-0.1660156l-2.7431641-4.0771484
					c-0.0742188-0.1113281-0.0839844-0.2539062-0.0253906-0.3740234l7.8183594-15.9414062l-4.3056641-6.3994141
					l-2.3349609,1.5703125c-0.1699219,0.1132812-0.4042969,0.0703125-0.5205078-0.1025391
					c-0.1152344-0.171875-0.0693359-0.4042969,0.1025391-0.5205078l2.6455078-1.7792969
					c0.1679688-0.1152344,0.4023438-0.0712891,0.5205078,0.1025391l4.6367188,6.890625
					c0.0742188,0.1113281,0.0839844,0.2539062,0.0253906,0.3740234l-7.8183594,15.9414062l2.6220703,3.8974609
					c0.1152344,0.171875,0.0693359,0.4042969-0.1025391,0.5205078C44.84235,51.3078957,44.7691078,51.3284035,44.6968422,51.3284035
					z"/>
			</g>
		</g>
		<g>
			<path class="st4" d="M7.7968507,40.0004005c1.355,2.0401001,3.9304996,5.9127998,3.9304996,8.0833015
				c0,2.1707993-1.7596998,3.9305-3.9304996,3.9305c-2.1704998,0-3.9301999-1.7597008-3.9301999-3.9305
				C3.8666508,45.9132004,6.516151,41.9285011,7.7968507,40.0004005z"/>
			<path class="st2" d="M7.7969384,52.3889503c-2.3740234,0-4.3051758-1.9316406-4.3051758-4.3056641
				c0-2.2802734,2.5947268-6.1865234,3.9887698-8.2841797c0.0693359-0.1044922,0.1884766-0.1708984,0.3144531-0.1708984l0,0
				c0.1254883,0,0.2446284,0.0595703,0.3144526,0.1650391l-0.3124995,0.2070312l0.320312-0.1962891
				c1.3925781,2.0976562,3.9848633,6,3.9848633,8.2792969C12.1021137,50.4573097,10.1709614,52.3889503,7.7969384,52.3889503z
				 M7.7969384,40.6789894c-1.328125,2.0097656-3.5551758,5.5068359-3.5551758,7.4042969
				c0,1.9609375,1.5947266,3.5556641,3.5551758,3.5556641s3.5551753-1.5947266,3.5551753-3.5556641
				C11.3521137,46.1858253,9.1231098,42.6868019,7.7969384,40.6789894z"/>
		</g>
		<g>
			<path class="st4" d="M16.0130501,30.4638004l12.6546993-8.5149994l-1.291399-1.9196014
				c-0.9640999-1.4322987-0.5806007-3.3930988,0.851799-4.3570995l1.4360008-0.9660997
				c1.4323997-0.9639997,3.393898-0.5794001,4.3571014,0.8521004l3.0441971,4.5241003l1.8473015,2.7451L17.0080509,37.5662994
				l-1.8471003-2.7453003C14.1972504,33.3885994,14.580451,31.4279003,16.0130501,30.4638004L16.0130501,30.4638004z
				 M43.7979507,30.0876999L21.8935509,44.8267021l0.9209995,1.3687973l4.8855,7.2604027
				c0.9638004,1.4325981,2.924799,1.8158989,4.3571014,0.8520966l1.4357986-0.9659996
				c1.4319992-0.9637985,1.8156013-2.9250984,0.8521004-4.3572006l-3.1329002-4.655899l12.4636993-8.3866005l0.1912994-0.1287003
				c1.4323997-0.9636993,1.8158989-2.9244995,0.851799-4.3567982L43.7979507,30.0876999z"/>
			<path class="st2" d="M30.3169575,55.2160988c-0.2275391,0-0.4570312-0.0224609-0.6860352-0.0673828
				c-0.9238281-0.1806641-1.7202148-0.7070312-2.2416992-1.4833984l-5.8066406-8.6298828
				c-0.1157227-0.171875-0.0703125-0.4042969,0.1015625-0.5205078l21.9052753-14.7382812
				c0.1679688-0.1152344,0.4023438-0.0712891,0.5205078,0.1025391l0.9208984,1.3681641
				c1.0810547,1.6074219,0.6533203,3.7958984-0.9550781,4.8779297l-12.3432636,8.3056641l2.92383,4.3447266
				c1.081543,1.6074219,0.6533203,3.7958984-0.9541016,4.8779297l-1.4355469,0.9658203
				C31.6826801,55.0119972,31.0083637,55.2160988,30.3169575,55.2160988z M22.4141254,44.9280128l5.597168,8.3193359
				c0.4101562,0.609375,1.0361328,1.0234375,1.7636719,1.1650391s1.4628906-0.0058594,2.0727539-0.4160156l1.4355488-0.9658203
				c1.2646484-0.8505859,1.6010742-2.5722656,0.7509766-3.8369141l-3.1333027-4.6552734
				c-0.0556641-0.0820312-0.0761719-0.1835938-0.0571289-0.28125s0.0761719-0.1835938,0.1586914-0.2392578l12.6542988-8.5146484
				c1.265625-0.8515625,1.6025391-2.5732422,0.7509766-3.8378906l-0.7109375-1.0566406L22.4141254,44.9280128z
				 M17.0078754,37.9416847c-0.0239258,0-0.0478516-0.0019531-0.0717773-0.0068359
				c-0.0976562-0.0195312-0.184082-0.0761719-0.2392578-0.1591797l-1.847168-2.7460938
				c-0.5219727-0.7753906-0.7099609-1.7109375-0.5292969-2.6347656s0.7075195-1.7197266,1.4833984-2.2421875l12.3432617-8.3056641
				l-1.081543-1.6083984c-0.5224609-0.7753906-0.7104492-1.7119141-0.5297852-2.6357422s0.7070312-1.7197275,1.4829102-2.2421885
				l1.4360352-0.9658203c0.7763672-0.5224609,1.7119141-0.7109375,2.6362324-0.5292969
				c0.9238281,0.1806641,1.7197266,0.7070312,2.2412109,1.4833984l4.8920898,7.2695322
				c0.0546875,0.0820312,0.0751953,0.1835938,0.0566406,0.28125c-0.0195312,0.0976562-0.0761719,0.1835938-0.1591797,0.2392578
				L17.2173481,37.8782082C17.1548481,37.9202003,17.0820942,37.9416847,17.0078754,37.9416847z M31.4058247,14.5491056
				c-0.5439453,0-1.0737305,0.1601562-1.5322266,0.46875l-1.4360352,0.9658203
				c-0.6098633,0.4101572-1.0239258,1.0361338-1.1660156,1.7636728c-0.1420898,0.7265625,0.0058594,1.4628906,0.4160156,2.0732422
				l1.2910156,1.9189453c0.1157227,0.171875,0.0703125,0.4042969-0.1015625,0.5205078l-12.6542969,8.515625l0,0
				c-0.6098633,0.4101562-1.0239258,1.0361328-1.1660156,1.7636719c-0.1425781,0.7265625,0.0048828,1.4628906,0.4150391,2.0722656
				l1.6381836,2.4345703l21.2822285-14.3203125l-4.6821289-6.9589853c-0.4101562-0.609375-1.0361328-1.0224609-1.7631855-1.1650391
				C31.7661762,14.5666838,31.5850239,14.5491056,31.4058247,14.5491056z M16.0132465,30.4641457h0.0092773H16.0132465z"/>
		</g>
		<g>
			<path class="st2" d="M28.0742817,33.0920753c-0.1206055,0-0.2392578-0.0576172-0.3115234-0.1660156
				c-0.1157227-0.171875-0.0703125-0.4042969,0.1015625-0.5205078l11.1372089-7.4931641
				c0.1689453-0.1152344,0.4033203-0.0712891,0.5205078,0.1025391c0.1152344,0.171875,0.0693359,0.4042969-0.1025391,0.5205078
				l-11.1362324,7.4931641C28.2188129,33.0715675,28.146059,33.0920753,28.0742817,33.0920753z"/>
		</g>
		<g>
			<path class="st2" d="M52.7700844,60.7619972c-0.1201172,0-0.2382812-0.0576172-0.3115234-0.1660156l-5.4833984-8.1503906
				c-0.1152344-0.171875-0.0693359-0.4042969,0.1025391-0.5205078c0.1689453-0.1152344,0.4023438-0.0722656,0.5205078,0.1025391
				l5.4833984,8.1503906c0.1152344,0.171875,0.0693359,0.4042969-0.1025391,0.5205078
				C52.9155922,60.7414894,52.84235,60.7619972,52.7700844,60.7619972z"/>
		</g>
	</g>
</g>
</svg>
