<?xml version="1.0" encoding="utf-8"?>
<!-- Generator: Adobe Illustrator 22.0.1, SVG Export Plug-In . SVG Version: 6.00 Build 0)  -->
<svg version="1.1" id="Слой_1" xmlns="http://www.w3.org/2000/svg" xmlns:xlink="http://www.w3.org/1999/xlink" x="0px" y="0px"
	 viewBox="0 0 40 40.5001831" style="enable-background:new 0 0 40 40.5001831;" xml:space="preserve">
<style type="text/css">
	.st0{fill-rule:evenodd;clip-rule:evenodd;fill:#E4E8D0;}
	.st1{fill-rule:evenodd;clip-rule:evenodd;fill:#96B11F;}
	.st2{fill-rule:evenodd;clip-rule:evenodd;fill:#FFFFFF;}
	.st3{fill:#464731;}
</style>
<path class="st0" d="M20.0004425,40.0000305C31.0156155,40.0000305,40,31.0160885,40,20.0009155
	c0-11.0156155-8.9843845-20.000885-19.9995575-20.000885S0,8.9853001,0,20.0009155
	C0,31.0160885,8.9852705,40.0000305,20.0004425,40.0000305z"/>
<polygon class="st1" points="30.4172745,28.6606445 30.4172745,0 9.581398,0 9.581398,28.6606445 8.2123795,28.6606445 
	8.2123795,30.1005249 31.7854385,30.1005249 31.7854385,28.6606445 "/>
<path class="st2" d="M21.0821304,26.8175659V1.7443237h7.2861328v25.0732422H21.0821304z M11.6304703,26.8175659V1.7443237
	h7.2861328v25.0732422H11.6304703z"/>
<g>
	<path class="st3" d="M22.9366226,10.975769c0.1230469,0,0.2460938-0.0449219,0.3422852-0.1357422l1.2460938-1.1708984
		c0.2011719-0.1894531,0.2114258-0.5058594,0.0219727-0.7070312c-0.1879883-0.2011719-0.5058594-0.2099609-0.706543-0.0214844
		l-1.2460938,1.1708984c-0.2011719,0.1894531-0.2114258,0.5058594-0.0219727,0.7070312
		C22.6705093,10.9230347,22.8033218,10.975769,22.9366226,10.975769z"/>
	<path class="st3" d="M20.5821304,1.2438965c0,9.4619751,0,17.6599121,0,26.0735474h8.2863159V1.2438965H20.5821304z
		 M27.8684464,26.3174438h-6.2863159V2.2438965h6.2863159V26.3174438z"/>
	<path class="st3" d="M11.1307144,27.3174438h8.2858276V1.2438965h-8.2858276V27.3174438z M12.1307144,2.2438965h6.2858276
		v24.0735474h-6.2858276V2.2438965z"/>
	<path class="st3" d="M15.0279312,5.9640503c0.2011719-0.1894531,0.2109375-0.5058594,0.0219727-0.7070312
		c-0.1879883-0.2011719-0.5058594-0.2099609-0.706543-0.0214844l-1.246582,1.171875
		c-0.2011719,0.1894531-0.2109375,0.5058594-0.0219727,0.7070312c0.0981445,0.1044922,0.230957,0.1572266,0.3642578,0.1572266
		c0.1230469,0,0.2460938-0.0449219,0.3422852-0.1357422L15.0279312,5.9640503z"/>
	<path class="st3" d="M16.8663101,5.5197144l-2.9379883,2.7626953C13.72715,8.4718628,13.7173843,8.788269,13.9063492,8.9894409
		c0.0986328,0.1044922,0.2314453,0.1572266,0.3642578,0.1572266c0.1230469,0,0.2460938-0.0449219,0.3422852-0.1357422
		L17.5508804,6.24823c0.2011719-0.1894531,0.2109375-0.5058594,0.0219727-0.7070312
		C17.3829117,5.3400269,17.0660172,5.3312378,16.8663101,5.5197144z"/>
	<path class="st3" d="M23.6563492,12.482605c0.0981445,0.1044922,0.2314453,0.1572266,0.3642578,0.1572266
		c0.1230469,0,0.2460938-0.0449219,0.3422852-0.1357422l2.9384766-2.7626953
		c0.2011719-0.1894531,0.2109375-0.5058594,0.0219727-0.7070312s-0.5063477-0.2109375-0.706543-0.0214844l-2.9384766,2.7626953
		C23.47715,11.9650269,23.4673843,12.2814331,23.6563492,12.482605z"/>
</g>
<rect x="5.3176994" y="35.2638054" class="st0" width="29.3650379" height="1.510342"/>
<rect x="9.7673454" y="36.774147" class="st2" width="3.4183958" height="3.225884"/>
<rect x="26.8133831" y="36.774147" class="st2" width="3.4179583" height="3.225884"/>
<path class="st3" d="M35.8456802,18.7672729v-2.0699463H4.154335v2.0699463h1.2485962v15.996582H5.317482
	c-0.2763672,0-0.5,0.2236328-0.5,0.5v1.5107422c0,0.2763672,0.2236328,0.5,0.5,0.5h3.949707v2.7255859
	c0,0.2763672,0.2236328,0.5,0.5,0.5h3.418457c0.2763672,0,0.5-0.2236328,0.5-0.5v-2.7255859h12.6279297v2.7255859
	c0,0.2763672,0.2236328,0.5,0.5,0.5h3.4179688c0.2763672,0,0.5-0.2236328,0.5-0.5v-2.7255859h3.9511719
	c0.2763672,0,0.5-0.2236328,0.5-0.5V35.263855c0-0.2763672-0.2236328-0.5-0.5-0.5h-0.0854492v-15.996582H35.8456802z
	 M33.5972672,18.8917847V34.763855H25.661232V18.8917847H33.5972672z M24.661232,18.8917847V34.763855h-9.3237305V18.8917847
	H24.661232z M14.3375015,18.8917847V34.763855H6.4029312V18.8917847H14.3375015z M12.6856461,39.5001831h-2.418457v-2.2255859
	h2.418457V39.5001831z M29.7315445,39.5001831h-2.4179688v-2.2255859h2.4179688V39.5001831z M34.1827164,36.2745972h-3.9511719
	h-3.4179688H13.1856461H9.767189H5.817482V35.763855h0.0854492h8.9345703H25.161232h8.9360352h0.0854492V36.2745972z"/>
</svg>
