<?xml version="1.0" encoding="utf-8"?>
<!-- Generator: Adobe Illustrator 22.0.1, SVG Export Plug-In . SVG Version: 6.00 Build 0)  -->
<svg version="1.1" id="Слой_1" xmlns="http://www.w3.org/2000/svg" xmlns:xlink="http://www.w3.org/1999/xlink" x="0px" y="0px"
	 viewBox="0 0 40 40" style="enable-background:new 0 0 40 40;" xml:space="preserve">
<style type="text/css">
	.st0{fill-rule:evenodd;clip-rule:evenodd;fill:#E4E8D0;}
	.st1{fill-rule:evenodd;clip-rule:evenodd;fill:#FFFFFF;}
	.st2{fill:#96B11F;}
	.st3{fill:#464731;}
	.st4{fill-rule:evenodd;clip-rule:evenodd;fill:#464731;}
</style>
<g>
	<path class="st0" d="M20.0004425,40C31.0156155,40,40,31.016058,40,20.000885C40,8.9852705,31.0156155,0,20.0004425,0
		S0,8.9852705,0,20.000885C0,31.016058,8.9852705,40,20.0004425,40z"/>
	<polygon class="st1" points="9.2533283,34.6261787 9.2533283,17.4527359 20.5896397,6.1177511 31.9237404,17.4527359 
		31.9237404,34.6261787 	"/>
	<g>
		<path class="st2" d="M38.6858177,14.4821711h-8.9829082c-0.1328125,0-0.2597656-0.0527344-0.3535156-0.1464844
			l-2.9501953-2.9506836c-0.09375-0.09375-0.1464844-0.2207031-0.1464844-0.3535156V10.898675
			c0-0.2587891,0.1972656-0.4746094,0.4550781-0.4980469c0.0522461-0.0043945,0.1044922-0.0083008,0.15625-0.0102539
			c0.6064453-1.3242188,1.9360352-2.190918,3.4155273-2.190918c1.5048828,0,2.8559551,0.90625,3.4448223,2.2573242
			c0.2080078-0.0458984,0.4213867-0.0693359,0.6381836-0.0693359c1.1147461,0,2.1171875,0.6289062,2.6098633,1.6015625
			c1.1201172-0.0537109,2.1201172,0.8256836,2.2119141,1.9526367c0.0112305,0.1391602-0.0361328,0.2768555-0.1308594,0.3793945
			S38.8254662,14.4821711,38.6858177,14.4821711z M29.9099407,13.4821711h8.0854473
			c-0.2539062-0.3725586-0.7319336-0.5805664-1.2109375-0.4594727c-0.2509766,0.0610352-0.5126953-0.0776367-0.5961914-0.3251953
			c-0.2646484-0.7836914-0.9980469-1.3100586-1.8256836-1.3100586c-0.2617188,0-0.5146484,0.0507812-0.7524414,0.1508789
			c-0.1313477,0.0566406-0.2822266,0.0532227-0.4116211-0.0102539c-0.1293945-0.0625-0.2255859-0.1772461-0.2641602-0.315918
			c-0.3310547-1.1850586-1.4223614-2.0126953-2.6547832-2.0126953c-1.1767578,0-2.2241211,0.746582-2.6064453,1.8579102
			c-0.0151367,0.0449219-0.0366211,0.0869141-0.0629883,0.1245117L29.9099407,13.4821711z"/>
	</g>
	<path class="st2" d="M32.2771492,17.0993614l-1.8101807-1.8103628c-0.0010376-0.0010376-0.0019531-0.0019531-0.0029907-0.0029907
		l-4.7497559-4.7501831c-0.0020142-0.0020142-0.0038452-0.0038452-0.0058594-0.0058594l-4.7651978-4.765564
		c-0.1953125-0.1953125-0.5117188-0.1953125-0.7070312,0l-4.7662973,4.765686
		c-0.0019531,0.0018921-0.0037231,0.0036621-0.0056152,0.0056152l-4.7511597,4.7505493
		c-0.0008545,0.0008545-0.0015869,0.0015869-0.0024414,0.0024414l-1.8109131,1.810668
		c-0.09375,0.09375-0.1464844,0.2207031-0.1464844,0.3535156v17.1733398c0,0.2763672,0.2236328,0.5,0.5,0.5h22.6704102
		c0.2763672,0,0.5-0.2236328,0.5-0.5V17.452877C32.4236336,17.3200645,32.3708992,17.1931114,32.2771492,17.0993614z
		 M31.4236336,24.6501427H9.7532225v-3.7543945h21.6704102V24.6501427z M9.7532225,25.6501427h21.6704102v3.7548828H9.7532225
		V25.6501427z M16.0280037,11.3859835h9.1222534l3.7545776,3.7548828H12.2726316L16.0280037,11.3859835z M20.5896492,6.8249483
		l3.56073,3.5610352h-7.1222534L20.5896492,6.8249483z M11.2724485,16.1408653h18.6322632l1.5189209,1.519043v2.2358398H9.7532225
		v-2.2358398L11.2724485,16.1408653z M9.7532225,34.1262169v-3.7211914h21.6704102v3.7211914H9.7532225z"/>
	<g>
		<path class="st1" d="M16.6125546,17.7000046c-0.0088482-0.1105843-0.0137138-0.2207279-0.0137138-0.3335247
			c0-2.2032995,1.7866154-3.9899149,3.9894733-3.9899149c2.2046261,0,3.9912415,1.7866154,3.9912415,3.9899149
			c0,0.1127968-0.0048656,0.2229404-0.0150394,0.3335247l0.0150394,3.7590122h-7.9807148L16.6125546,17.7000046z"/>
		<path class="st3" d="M24.5793743,21.9592209h-7.9804688c-0.1328125,0-0.2602539-0.0527344-0.3540039-0.1469727
			c-0.0942383-0.0942383-0.1464844-0.2216797-0.1459961-0.3549805l0.0136719-3.7387695
			c-0.0087891-0.1166992-0.0136719-0.2329102-0.0136719-0.3520508c0-2.475585,2.0136719-4.4897451,4.4892578-4.4897451
			c2.4765625,0,4.4912109,2.0141602,4.4912109,4.4897451c0,0.1279297-0.0053711,0.2524414-0.0166016,0.3774414l0.0166016,3.7133789
			c0.0004883,0.1328125-0.0517578,0.2607422-0.1459961,0.3549805
			C24.8396282,21.9064865,24.7121868,21.9592209,24.5793743,21.9592209z M17.1008587,20.9592209h6.9765625l-0.0126953-3.2573242
			c0.0102539-0.1416016,0.0146484-0.237793,0.0146484-0.3354492c0-1.9243155-1.565918-3.4897451-3.4912109-3.4897451
			c-1.9238281,0-3.4892578,1.5654297-3.4892578,3.4897451c0,0.0996094,0.0043945,0.1967773,0.012207,0.2939453
			c0.0009766,0.0136719,0.0014648,0.0273438,0.0014648,0.0415039L17.1008587,20.9592209z"/>
	</g>
	<g>
		<path class="st3" d="M20.5881634,21.9592209c-0.2763672,0-0.5-0.2236328-0.5-0.5v-8.0825186c0-0.2763672,0.2236328-0.5,0.5-0.5
			s0.5,0.2236328,0.5,0.5v8.0825186C21.0881634,21.7355881,20.8645306,21.9592209,20.5881634,21.9592209z"/>
	</g>
	<g>
		<path class="st4" d="M6.9474058,20.3805904c-0.481267,0.4817085-1.2624412,0.4817085-1.7441502,0
			c-0.481267-0.481266-0.481267-1.2624416,0-1.7441502l15.386384-15.386385l15.3850574,15.386385
			c0.4817085,0.4817085,0.4817085,1.2628841,0,1.7441502c-0.481266,0.4817085-1.2624397,0.4817085-1.7441483,0L20.5896397,6.7396827
			L6.9474058,20.3805904z"/>
	</g>
	<rect x="1.8228867" y="2.3962648" class="st1" width="4.2845135" height="32.2299118"/>
	<path class="st3" d="M6.1072063,35.1262131H1.8230265c-0.2763672,0-0.5-0.2236328-0.5-0.5V2.3962331
		c0-0.2763672,0.2236328-0.5,0.5-0.5h4.2841797c0.2763672,0,0.5,0.2236328,0.5,0.5v32.2299805
		C6.6072063,34.9025803,6.3835735,35.1262131,6.1072063,35.1262131z M2.3230267,34.1262131h3.2841797V2.8962331H2.3230267
		V34.1262131z"/>
	<g>
		<g>
			<path class="st3" d="M6.1072063,24.4274826H3.9660931c-0.2763672,0-0.5-0.2236328-0.5-0.5s0.2236328-0.5,0.5-0.5h2.1411133
				c0.2763672,0,0.5,0.2236328,0.5,0.5S6.3835735,24.4274826,6.1072063,24.4274826z"/>
		</g>
		<g>
			<path class="st3" d="M6.1072063,13.88305H3.9660931c-0.2763672,0-0.5-0.2236328-0.5-0.5s0.2236328-0.5,0.5-0.5h2.1411133
				c0.2763672,0,0.5,0.2236328,0.5,0.5S6.3835735,13.88305,6.1072063,13.88305z"/>
		</g>
	</g>
	<g>
		<path class="st3" d="M38.0461693,35.1247482H5.5783978c-0.2763672,0-0.5-0.2236328-0.5-0.5s0.2236328-0.5,0.5-0.5h32.4677734
			c0.2763672,0,0.5,0.2236328,0.5,0.5S38.3225365,35.1247482,38.0461693,35.1247482z"/>
	</g>
</g>
</svg>
