<?xml version="1.0" encoding="utf-8"?>
<!-- Generator: Adobe Illustrator 22.0.1, SVG Export Plug-In . SVG Version: 6.00 Build 0)  -->
<svg version="1.1" id="Capa_1" xmlns="http://www.w3.org/2000/svg" xmlns:xlink="http://www.w3.org/1999/xlink" x="0px" y="0px"
	 viewBox="0 0 22 22.0008259" style="enable-background:new 0 0 22 22.0008259;" xml:space="preserve">
<style type="text/css">
	.st0{fill:#464731;}
	.st1{fill:#BCD031;}
</style>
<path class="st0" d="M7.726428,17.248642l-3.2822776,1.7903709c-0.1926112,0.1050224-0.3657122,0.2341213-0.5267749,0.3748436
	c1.9136581,1.6135349,4.3839798,2.5869694,7.0830269,2.5869694c2.679122,0,5.1336708-0.9589062,7.0419331-2.5504379
	c-0.1760082-0.1486111-0.3669586-0.2822762-0.5786648-0.3877144l-3.514739-1.7571621
	c-0.4541311-0.227066-0.7409716-0.6911602-0.7409716-1.1988392v-1.3789968
	c0.0987959-0.1124945,0.2117052-0.2569532,0.3325024-0.4275627c0.4790373-0.67663,0.8414288-1.4209232,1.0925703-2.201746
	c0.4508095-0.139061,0.7828989-0.5554171,0.7828989-1.0502291v-1.471981c0-0.3237867-0.144043-0.6131182-0.3677883-0.8156919
	V6.6326094c0,0,0.4371119-3.3113353-4.0473261-3.3113353S6.9534917,6.6326094,6.9534917,6.6326094v2.1278553
	C6.729332,8.9630384,6.5857043,9.2523699,6.5857043,9.5761566v1.471981c0,0.3877134,0.2038188,0.7289343,0.508925,0.9261112
	c0.3677878,1.6010799,1.3308439,2.7534266,1.3308439,2.7534266v1.3449583
	C8.4250584,16.5624638,8.1568966,17.013689,7.726428,17.248642z"/>
<g>
	<path class="st1" d="M11.188447,0.0016381C5.1141381-0.1021395,0.1054168,4.7380466,0.0016392,10.8123569
		c-0.0589457,3.444171,1.4761324,6.5396481,3.9203022,8.5981789c0.1598177-0.1394768,0.3312583-0.2673302,0.5217934-0.371109
		l3.2822776-1.7903709c0.4304695-0.234951,0.6986313-0.6861763,0.6986313-1.176836v-1.3449593
		c0,0-0.9634719-1.1523466-1.3308439-2.7534266c-0.3046908-0.1971769-0.5089254-0.5379829-0.5089254-0.9261103v-1.471981
		c0-0.3237867,0.1440434-0.6131182,0.3677878-0.8156919V6.632195c0,0-0.4371109-3.3113351,4.0473256-3.3113351
		s4.0473261,3.3113351,4.0473261,3.3113351v2.1278558c0.2241602,0.2025738,0.3677883,0.4919052,0.3677883,0.8156919v1.471981
		c0,0.4948111-0.3320875,0.9111671-0.7828989,1.0502291c-0.2511415,0.7808228-0.613533,1.525116-1.0925703,2.201745
		c-0.1207972,0.1706095-0.2337074,0.3150682-0.3325033,0.4275627v1.3789978c0,0.507679,0.2868414,0.9721889,0.7409725,1.1988392
		l3.514739,1.7571602c0.2108746,0.1054401,0.4014111,0.2386894,0.5770035,0.3868828
		c2.3702793-1.9767551,3.9016228-4.9323406,3.9584904-8.2606955C22.1029434,5.1141367,17.2631721,0.1054157,11.188447,0.0016381z"/>
</g>
</svg>
