<?xml version="1.0" encoding="utf-8"?>
<!-- Generator: Adobe Illustrator 22.0.1, SVG Export Plug-In . SVG Version: 6.00 Build 0)  -->
<svg version="1.1" id="Слой_1" xmlns="http://www.w3.org/2000/svg" xmlns:xlink="http://www.w3.org/1999/xlink" x="0px" y="0px"
	 viewBox="0 0 72 72.0004044" style="enable-background:new 0 0 72 72.0004044;" xml:space="preserve">
<style type="text/css">
	.st0{fill-rule:evenodd;clip-rule:evenodd;fill:#464731;}
	.st1{fill-rule:evenodd;clip-rule:evenodd;fill:#E4E8D0;}
	.st2{fill:#464731;}
	.st3{fill-rule:evenodd;clip-rule:evenodd;fill:#FFFFFF;}
</style>
<g>
	<g>
		<circle class="st0" cx="36" cy="36.0002518" r="36.0001259"/>
	</g>
	<g>
		<g>
			<rect x="8.0626011" y="3.6223018" class="st1" width="55.8753967" height="61.4925995"/>
			<path class="st2" d="M63.9382019,65.489975H8.0627136c-0.2070317,0-0.3750005-0.1679688-0.3750005-0.375V3.6223023
				c0-0.2070312,0.1679688-0.375,0.3750005-0.375h55.8754883c0.2070312,0,0.375,0.1679688,0.375,0.375v61.492672
				C64.3132019,65.3220062,64.1452332,65.489975,63.9382019,65.489975z M8.4377136,64.739975h55.1254883V3.9973023H8.4377136
				V64.739975z"/>
		</g>
		<g>
			<path class="st2" d="M62.2887878,65.489975H9.7116394c-0.2070312,0-0.375-0.1679688-0.375-0.375V5.4758177
				c0-0.2070312,0.1679688-0.375,0.375-0.375h52.5771484c0.2070312,0,0.375,0.1679688,0.375,0.375V65.114975
				C62.6637878,65.3220062,62.4958191,65.489975,62.2887878,65.489975z M10.0866394,64.739975h51.8271484V5.8508177H10.0866394
				V64.739975z"/>
		</g>
		<g>
			<path class="st3" d="M12.2159004,7.1713018h22.2205009v56.2478981H12.2159004V7.1713018L12.2159004,7.1713018z
				 M37.5635986,7.1713018h22.2205009v56.2478981H37.5635986V37.3844032l2.6938019,1.7982979l0.6278992-0.9405975
				l-3.321701-2.2178001V7.1713018z"/>
			<path class="st2" d="M59.783905,63.7946663H37.5636902c-0.2070312,0-0.375-0.1679688-0.375-0.375V37.38451
				c0-0.1381836,0.0761719-0.265625,0.1982422-0.3305664c0.121582-0.0654297,0.2714844-0.0576172,0.3847656,0.0185547
				l2.3823242,1.5898438l0.2109375-0.3168945l-3.0092773-2.0092773c-0.1044922-0.0698242-0.1669922-0.1865234-0.1669922-0.3120117
				V7.1711302c0-0.2070312,0.1679688-0.375,0.375-0.375H59.783905c0.2070312,0,0.375,0.1679688,0.375,0.375v56.2485352
				C60.158905,63.6266975,59.9909363,63.7946663,59.783905,63.7946663z M37.9386902,63.0446663H59.408905V7.5461302H37.9386902
				v28.2773438l3.1547852,2.1064453c0.0830078,0.0551758,0.140625,0.1411133,0.1601562,0.2387695
				s-0.0009766,0.1987305-0.0566406,0.28125l-0.6279297,0.9404297c-0.1152344,0.1738281-0.3486328,0.2197266-0.5195312,0.1035156
				l-2.1108398-1.4082031V63.0446663z M34.4362488,63.7946663H12.2160339c-0.2070312,0-0.375-0.1679688-0.375-0.375V7.1711302
				c0-0.2070312,0.1679688-0.375,0.375-0.375h22.2202148c0.2070312,0,0.375,0.1679688,0.375,0.375v56.2485352
				C34.8112488,63.6266975,34.64328,63.7946663,34.4362488,63.7946663z M12.5910339,63.0446663h21.4702148V7.5461302H12.5910339
				V63.0446663z"/>
		</g>
		<g>
			<path class="st2" d="M22.3732605,21.1208382c-0.0961914,0-0.1918945-0.0366211-0.2651367-0.1098633
				c-0.1464844-0.1464844-0.1464844-0.3837891,0-0.5302734l3.3427734-3.3432617
				c0.1464844-0.1464844,0.3837891-0.1464844,0.5302734,0s0.1464844,0.3837891,0,0.5302734l-3.3427734,3.3432617
				C22.565155,21.0842171,22.4694519,21.1208382,22.3732605,21.1208382z"/>
		</g>
		<g>
			<path class="st2" d="M22.0002136,24.938221c-0.0961914,0-0.1918945-0.0366211-0.2651367-0.1098633
				c-0.1464844-0.1464844-0.1464844-0.3837891,0-0.5302734l7.8803711-7.8803711
				c0.1464844-0.1464844,0.3837891-0.1464844,0.5302734,0s0.1464844,0.3837891,0,0.5302734l-7.8803711,7.8803711
				C22.1921082,24.9015999,22.096405,24.938221,22.0002136,24.938221z"/>
		</g>
		<g>
			<path class="st2" d="M43.8766785,33.8835335c-0.0957031,0-0.1923828-0.0366211-0.265625-0.1098633
				c-0.1455078-0.1464844-0.1455078-0.3837891,0-0.5302734l3.3427734-3.3427734c0.1464844-0.1464844,0.3847656-0.1464844,0.53125,0
				c0.1455078,0.1464844,0.1455078,0.3837891,0,0.5302734l-3.3427734,3.3427734
				C44.0690613,33.8469124,43.9723816,33.8835335,43.8766785,33.8835335z"/>
		</g>
		<g>
			<path class="st2" d="M43.5036316,37.7014046c-0.0957031,0-0.1923828-0.0366211-0.265625-0.1098633
				c-0.1455078-0.1464844-0.1455078-0.3837891,0-0.5302734l7.8808594-7.8803711c0.1464844-0.1464844,0.3847656-0.1464844,0.53125,0
				c0.1455078,0.1464844,0.1455078,0.3837891,0,0.5302734l-7.8808594,7.8803711
				C43.6960144,37.6647835,43.5993347,37.7014046,43.5036316,37.7014046z"/>
		</g>
		<g>
			<rect x="5.067801" y="65.1148987" class="st1" width="61.864399" height="3.2632"/>
			<path class="st2" d="M66.9323425,68.7526703H5.067596c-0.2070312,0-0.375-0.1679688-0.375-0.375V65.114975
				c0-0.2070312,0.1679688-0.375,0.375-0.375h61.8647461c0.2070312,0,0.375,0.1679688,0.375,0.375v3.2626953
				C67.3073425,68.5847015,67.1393738,68.7526703,66.9323425,68.7526703z M5.442596,68.0026703h61.1147461V65.489975H5.442596
				V68.0026703z"/>
		</g>
		<g>
			<path class="st2" d="M36.5104675,39.1130257h-1.1308594c-0.2070312,0-0.375-0.1679688-0.375-0.375v-2.8120117
				c0-0.0473633,0.0087891-0.0932617,0.0253906-0.1357422c-0.0166016-0.0424805-0.0253906-0.0883789-0.0253906-0.1357422v-2.9321289
				c0-0.2070312,0.1679688-0.375,0.375-0.375h1.1308594c0.2070312,0,0.375,0.1679688,0.375,0.375v2.5991211
				c0,0.1381836-0.0761719,0.265625-0.1982422,0.3305664c-0.121582,0.065918-0.2700195,0.059082-0.3847656-0.0185547
				l-0.3168945-0.2114258l-0.2114258,0.3164062l0.9448242,0.6308594c0.1040039,0.0698242,0.1665039,0.1865234,0.1665039,0.3120117
				v2.0566406C36.8854675,38.9450569,36.7174988,39.1130257,36.5104675,39.1130257z M35.7546082,38.3630257h0.3808594v-1.480957
				l-0.3808594-0.2543945V38.3630257z M35.8825378,34.5270882c0.0712891,0,0.1435547,0.0205078,0.2075195,0.0629883
				l0.0454102,0.0302734v-1.5229492h-0.3808594v1.4521484C35.7956238,34.5344124,35.8385925,34.5270882,35.8825378,34.5270882z"/>
		</g>
		<g>
			<path class="st2" d="M40.2575378,39.5573616c-0.0722656,0-0.1445312-0.0205078-0.2080078-0.0634766l-5.003418-3.3393555
				c-0.0830078-0.0551758-0.1401367-0.1411133-0.159668-0.2387695s0.0004883-0.1987305,0.0556641-0.2817383l0.628418-0.9404297
				c0.1142578-0.171875,0.347168-0.2182617,0.5200195-0.1035156l5.0029297,3.3398438
				c0.0830078,0.0551758,0.140625,0.1411133,0.1601562,0.2387695s-0.0009766,0.1987305-0.0566406,0.28125l-0.6279297,0.9404297
				C40.4967957,39.4987679,40.3786316,39.5573616,40.2575378,39.5573616z M35.7741394,35.7390022l4.3798828,2.9233398
				l0.2109375-0.3168945l-4.3789062-2.9233398L35.7741394,35.7390022z"/>
		</g>
	</g>
</g>
</svg>
