<?xml version="1.0" encoding="utf-8"?>
<!-- Generator: Adobe Illustrator 22.0.1, SVG Export Plug-In . SVG Version: 6.00 Build 0)  -->
<svg version="1.1" id="Слой_1" xmlns="http://www.w3.org/2000/svg" xmlns:xlink="http://www.w3.org/1999/xlink" x="0px" y="0px"
	 viewBox="0 0 40 40" style="enable-background:new 0 0 40 40;" xml:space="preserve">
<style type="text/css">
	.st0{fill-rule:evenodd;clip-rule:evenodd;fill:#E4E8D0;}
	.st1{fill-rule:evenodd;clip-rule:evenodd;fill:#96B11F;}
	.st2{fill-rule:evenodd;clip-rule:evenodd;fill:#FFFFFF;}
	.st3{fill:#464731;}
</style>
<g>
	<path class="st0" d="M20.0004425,40C31.0156136,40,40,31.0160561,40,20.0004425C40,8.9852705,31.0156136,0,20.0004425,0
		S0,8.9852705,0,20.0004425C0,31.0160561,8.9852695,40,20.0004425,40z"/>
</g>
<g>
	<path class="st1" d="M30.1356354,14.9598808c-0.3060303,1.6834717-0.5404053,3.932251-0.1517334,5.7674561
		c0.3876343,1.8352051,1.1934814,3.0474243,1.8751831,4.4140015h0.8662109
		c0.1028442-1.3665771,0.2722168-2.6525269-0.116394-4.4877319C32.2186432,18.8184013,31.1535187,16.6433525,30.1356354,14.9598808z
		"/>
	<path class="st1" d="M35.5664215,16.9493828c-0.9810181,1.2771606-1.942749,2.7616577-2.3641357,4.4804688
		c-0.3076172,1.2595215-0.203186,2.5553589-0.1117554,3.7114868h0.9986572
		c0.5845337-0.9981689,1.2886353-1.718811,1.6450806-3.1768188C36.0891266,20.5065117,35.8698273,18.4401054,35.5664215,16.9493828z
		"/>
</g>
<polygon class="st2" points="30.2384205,25.1413288 32.1104088,25.1413288 34.045208,25.1413288 35.9171944,25.1413288 
	35.1625595,30.6272392 34.7985115,30.6272392 31.3557739,30.6272392 30.9921703,30.6272392 "/>
<path class="st2" d="M10.3839893,24.6660023h8.9449654c0.879303,0,1.5989399,0.719183,1.5989399,1.5989399v0.0009098
	c0,0.8797588-0.7196369,1.5989399-1.5989399,1.5989399h-8.9449654c-0.8806677,0-1.5989399-0.7191811-1.5989399-1.5989399v-0.0009098
	C8.7850494,25.3851852,9.5033216,24.6660023,10.3839893,24.6660023z"/>
<path class="st2" d="M10.3839893,21.4681225h8.9449654c0.879303,0,1.5989399,0.719183,1.5989399,1.5989399v0.0009098
	c0,0.8797588-0.7196369,1.5989399-1.5989399,1.5989399h-8.9449654c-0.8806677,0-1.5989399-0.7191811-1.5989399-1.5989399v-0.0009098
	C8.7850494,22.1873055,9.5033216,21.4681225,10.3839893,21.4681225z"/>
<path class="st2" d="M5.714994,25.4716129v-4.649435c0-0.7778625,0.6614103-1.4133434,1.4683862-1.4133434h0.0013647
	c0.8074303,0,1.4688416,0.6368465,1.4688416,1.4133434v4.649435c0,0.7764988-0.662776,1.4133453-1.4688416,1.4133453H7.1833801
	C6.3764043,26.8849583,5.714994,26.2494774,5.714994,25.4716129z"/>
<path class="st2" d="M20.992033,25.4716129v-4.649435c0-0.7778625,0.6618671-1.4133434,1.4688416-1.4133434h0.0013657
	c0.8069744,0,1.4688416,0.6368465,1.4688416,1.4133434v4.649435c0,0.7764988-0.6618671,1.4133453-1.4688416,1.4133453h-0.0013657
	C21.65481,26.8849583,20.992033,26.2494774,20.992033,25.4716129z"/>
<path class="st2" d="M20.992033,21.4098969c-0.108263,0.2051563-0.2797565,0.3871117-0.4935551,0.5299473
	c-0.2670212-0.2911301-0.634573-0.4717216-1.0394249-0.4717216H10.25389c-0.4062166,0-0.7751331,0.1815014-1.0421534,0.4730873
	c-0.2642918-0.1778622-0.4626236-0.4125862-0.5581503-0.6796074v-0.253828c0-0.2501907-0.0541325-0.4862785-0.1496592-0.6978016
	c-0.2797575-1.2855206-1.154057-3.7314663-1.154057-4.4770327l0,0c0-0.7646704,0.8160729-1.3887806,1.8154674-1.3887806h11.382268
	c0.9980297,0,1.8154678,0.6282043,1.8154678,1.3887806l0,0c0,0.7014418-0.7855949,2.9363184-1.1062927,4.2632341
	c-0.1664906,0.2579231-0.2647476,0.573616-0.2647476,0.9116001V21.4098969z"/>
<path class="st3" d="M38.9239655,30.1272392h-3.1880493l0.6763306-4.9179688
	c0.0200195-0.1430664-0.0234375-0.2875977-0.1181641-0.3964844c-0.0952148-0.1088867-0.2324219-0.1713867-0.3769531-0.1713867
	h-5.6787109c-0.1445312,0-0.2817383,0.0625-0.3769531,0.1713867c-0.0947266,0.1088867-0.1381836,0.253418-0.1181641,0.3964844
	l0.6758423,4.9179688H19.8672028c0.013855-0.083252,0.0145264-0.1691284-0.0169678-0.2539062l-0.5611572-1.5083008h0.0396729
	c0.8981934,0,1.6604614-0.5701294,1.9595337-1.3657227c0.3287964,0.2390137,0.7324219,0.3857422,1.1737671,0.3857422
	c1.0859375,0,1.9692383-0.8583984,1.9692383-1.9135742v-4.6494141c0-1.0546875-0.8837891-1.9130859-1.9702148-1.9130859
	c-0.1256714,0-0.2478638,0.0140991-0.3670654,0.0360718c0.0431519-0.1468506,0.0842896-0.2897339,0.1282959-0.4384155
	c0.3984375-1.3442383,0.640625-2.1953125,0.640625-2.6738281c0-1.0415039-1.0385742-1.8886719-2.3154297-1.8886719H9.1651764
	c-1.2768555,0-2.3154297,0.847168-2.3154297,1.8886719c0,0.4824219,0.2426758,1.3354492,0.6420898,2.6831055
	c0.0438232,0.1481323,0.0878296,0.2970581,0.1312866,0.4450684c-0.1419678-0.0316772-0.288208-0.052002-0.4398804-0.052002
	c-1.0854492,0-1.9682617,0.8583984-1.9682617,1.9130859v4.6494141c0,1.0551758,0.8837891,1.9135742,1.9697266,1.9135742
	c0.4658813,0,0.8887329-0.1647339,1.2262573-0.4286499c0.2844238,0.809082,1.0448608,1.3929443,1.9470215,1.40448
	l-0.5639038,1.5119629c-0.0317383,0.0848999-0.0311279,0.1709595-0.017334,0.2543945H1.0758212c-0.2763672,0-0.5,0.2236328-0.5,0.5
	s0.2236328,0.5,0.5,0.5h29.9165039h4.1704102h3.7612305c0.2763672,0,0.5-0.2236328,0.5-0.5
	S39.2003326,30.1272392,38.9239655,30.1272392z M22.4620514,19.9089775c0.534668,0,0.9692383,0.409668,0.9692383,0.9130859
	v4.6494141c0,0.5039062-0.4350586,0.9135742-0.9702148,0.9135742c-0.534668,0-0.9692383-0.409668-0.9692383-0.9135742v-4.0615234
	v-0.4023438c0-0.230957,0.0639648-0.4526367,0.1855469-0.640625c0.0253296-0.0396118,0.0413208-0.0837402,0.0547485-0.1286621
	C21.9102325,20.0411797,22.1660919,19.9089775,22.4620514,19.9089775z M8.1534576,21.2615166v4.2099609
	c0,0.5039062-0.4350586,0.9135742-0.9702148,0.9135742c-0.5336914,0-0.9682617-0.409668-0.9682617-0.9135742v-4.6494141
	c0-0.503418,0.4350586-0.9130859,0.9697266-0.9130859c0.352478,0,0.6480713,0.1873779,0.8175659,0.4533691
	c0.0037842,0.0168457,0.0094604,0.0375366,0.0130005,0.0539551c0.0078125,0.0336914,0.0185547,0.0668945,0.0327148,0.0986328
	c0.0698242,0.1552734,0.1054688,0.3212891,0.1054688,0.4926758V21.2615166z M9.1534576,21.1614189v-0.1538086v-0.1855469
	c0-0.3088379-0.0829468-0.5966797-0.2174072-0.8552246c-0.1226807-0.5058594-0.3048706-1.1260986-0.4857178-1.7351074
	c-0.2675781-0.902832-0.6005859-2.0268555-0.6005859-2.3989258c0-0.4819336,0.6025391-0.8886719,1.3154297-0.8886719h11.3823242
	c0.7006836,0,1.3154297,0.4150391,1.3154297,0.8886719c0,0.3681641-0.3320312,1.4887695-0.5991211,2.3896484
	c-0.1601562,0.5397949-0.3148193,1.0699463-0.4335327,1.5288086c-0.2134399,0.3058472-0.3384399,0.6743774-0.3384399,1.0708008
	v0.1855469v0.2617188c-0.0019531,0.0024414-0.003418,0.0048828-0.0053711,0.0073242
	c-0.2229004-0.1462402-0.4744263-0.2235718-0.7341919-0.2655029c-0.0016479-0.0003662-0.003479-0.0004883-0.005127-0.0007935
	c-0.0959473-0.0151978-0.189209-0.0422974-0.2880249-0.0422974h-0.1303711h-8.9448242h-0.1298828
	c-0.098999,0-0.1924438,0.0270996-0.2885742,0.0422974c-0.0016479,0.0003052-0.003418,0.0004272-0.0050659,0.0007935
	c-0.260498,0.0418701-0.5126953,0.1193848-0.7356567,0.2659912C9.1969147,21.2395439,9.1729889,21.2009697,9.1534576,21.1614189z
	 M20.4278717,23.0681572c0,0.6047974-0.4915771,1.0961304-1.0958862,1.0979614
	c-0.0010986,0-0.0021362-0.0003052-0.0032349-0.0003052h-8.9448242c-0.0010986,0-0.0021362,0.0003052-0.0032349,0.0003052
	c-0.6043091-0.0018311-1.0958862-0.4936523-1.0958862-1.098938c0-0.605957,0.4931641-1.0991211,1.0991211-1.0991211h8.9448242
	C19.9347076,21.9680595,20.4278717,22.4617119,20.4278717,23.0681572z M9.2848053,26.2649345
	c0-0.6047974,0.4915771-1.0966187,1.0958862-1.0984497c0.0010986,0,0.0021362,0.0003052,0.0032349,0.0003052h8.9448242
	c0.0010986,0,0.0021362-0.0003052,0.0032349-0.0003052c0.6043091,0.0018311,1.0958862,0.4941406,1.0958862,1.0994263
	c0,0.605957-0.4931641,1.0991211-1.0991211,1.0991211h-8.9448242C9.7779694,27.3650322,9.2848053,26.8713799,9.2848053,26.2649345z
	 M10.7661285,30.1272392l0.6572266-1.762207h6.7985229l0.6556396,1.762207H10.7661285z M31.42836,30.1272392l-0.6166992-4.4858398
	h4.5322266l-0.6171875,4.4858398H31.42836z"/>
</svg>
