<?xml version="1.0" encoding="utf-8"?>
<!-- Generator: Adobe Illustrator 22.0.1, SVG Export Plug-In . SVG Version: 6.00 Build 0)  -->
<svg version="1.1" id="_x31_" xmlns="http://www.w3.org/2000/svg" xmlns:xlink="http://www.w3.org/1999/xlink" x="0px" y="0px"
	 viewBox="0 0 88 88" style="enable-background:new 0 0 88 88;" xml:space="preserve">
<style type="text/css">
	.st0{fill-rule:evenodd;clip-rule:evenodd;fill:#F8F9F4;}
	.st1{fill-rule:evenodd;clip-rule:evenodd;fill:#FFFFFF;}
	.st2{fill:#96B11F;}
	.st3{fill-rule:evenodd;clip-rule:evenodd;fill:#464731;}
	.st4{fill-rule:evenodd;clip-rule:evenodd;fill:#96B11F;}
	.st5{fill:#464731;}
</style>
<g>
	<path class="st0" d="M44.0014305,88C68.235466,88,88,68.2350388,88,44.0004768C88,19.7649612,68.235466,0,44.0014305,0
		S0,19.7649612,0,44.0004768C0,68.2350388,19.7673912,88,44.0014305,88z"/>
</g>
<g>
	<g>
		<rect x="15.9781723" y="18.0781059" class="st1" width="42.0806198" height="30.8187237"/>
		<path class="st2" d="M58.0587921,49.7541428H15.9782248c-0.4736328,0-0.8574219-0.3837891-0.8574219-0.8574219V18.0778751
			c0-0.4736328,0.3837891-0.8574219,0.8574219-0.8574219h42.0805664c0.4736328,0,0.8574219,0.3837891,0.8574219,0.8574219
			v30.8188457C58.916214,49.3703537,58.5324249,49.7541428,58.0587921,49.7541428z M16.8356457,48.039299h40.3657227V18.935297
			H16.8356457V48.039299z"/>
	</g>
	<g>
		<polygon class="st3" points="33.0120277,23.3231773 46.5425034,33.4912796 33.0120277,43.6574745 		"/>
	</g>
	<g>
		<path class="st4" d="M61.4459343,67.9963226v3.1089249H49.664772c0.1267204-1.1824036,0.5106926-2.3009644,1.1481018-3.3566513
			c0.637413-1.0585403,1.8988991-2.462944,3.7758827-4.2132072c1.5149231-1.4129791,2.4410286-2.371479,2.7840309-2.8735924
			c0.45924-0.6945801,0.6917191-1.3805847,0.6917191-2.0608711c0-0.7507935-0.2000847-1.3262749-0.6021576-1.7312088
			c-0.4001694-0.4049301-0.9565926-0.6050148-1.6607018-0.6050148c-0.7022018,0-1.258625,0.2134209-1.6749916,0.6374092
			c-0.4106483,0.4211311-0.647892,1.123333-0.7126808,2.1066055L50.056366,58.673336
			c0.2029419-1.852211,0.8270149-3.1842003,1.8798409-3.9912071c1.0537796-0.8051033,2.3657608-1.2071762,3.9464264-1.2071762
			c1.7312088,0,3.0889244,0.4668617,4.0807724,1.4043999c0.9880333,0.9337273,1.4825287,2.0951729,1.4825287,3.4890938
			c0,0.7917633-0.1429176,1.5425568-0.4239883,2.2609558c-0.2839279,0.7126808-0.7317352,1.4606133-1.3481865,2.2438011
			c-0.4049339,0.5240326-1.1423874,1.2691078-2.2037888,2.2447548c-1.0661621,0.9747009-1.7388306,1.6206894-2.0199013,1.9446335
			c-0.2858353,0.3182297-0.5154533,0.6316986-0.6917191,0.9337311H61.4459343L61.4459343,67.9963226z M70.2906189,71.1052475
			v-3.5243378h-7.1515884v-2.9279099l7.5841522-11.1542282h2.8250046v11.140892h2.1799698v2.941246h-2.1799698v3.5243378H70.2906189
			L70.2906189,71.1052475z M70.2906189,64.6396637v-5.9872894l-4.0074005,5.9872894H70.2906189z"/>
	</g>
	<g>
		<path class="st1" d="M51.7180214,43.0391197c5.2336349-3.0222282,11.2056808-3.6329651,16.6117744-2.1904488
			c2.9307556,0.7936668,5.7100296,2.1818733,8.1138992,4.1293602l3.2137375-1.8579254l-1.16716,9.5849991l-8.8666-3.7844582
			l2.9250412-1.6902351c-1.6283035-1.086174-3.4138184-1.8903236-5.2822266-2.3876762
			c-4.3866119-1.1747818-9.234375-0.6831436-13.4856911,1.7664604c-4.2484627,2.4553223-7.1087151,6.4007988-8.2806396,10.7978935
			c-1.1747818,4.3828011-0.6745682,9.2334213,1.7769394,13.4818802c2.4524651,4.2484589,6.406517,7.1058578,10.7845535,8.2787323
			c4.3942375,1.1795425,9.241993,0.6745682,13.4875984-1.7778931c4.2513199-2.4515152,7.1115723-6.400795,8.283493-10.7864609
			c0.7641373-2.8497734,0.8184433-5.8958206,0.0943298-8.837059l3.6948929-2.1418571
			c1.218605,3.9864426,1.2395706,8.1672554,0.1972275,12.0508003c-1.4501419,5.4099045-4.9716263,10.2681427-10.1957321,13.2960892
			c-5.239357,3.0222244-11.2133064,3.6329575-16.6260681,2.1847305
			c-5.4070435-1.4529953-10.2786255-4.9668579-13.3008537-10.2033539
			c-3.0174637-5.2336349-3.6358185-11.2085419-2.1828232-16.6155853
			C42.9619446,50.9224472,46.4805717,46.0632515,51.7180214,43.0391197z"/>
		<path class="st5" d="M62.7082062,84.7692795c-1.9785156,0-3.9697266-0.2597656-5.9326172-0.7851562
			c-5.8789062-1.5795898-10.7871094-5.3452148-13.8217773-10.6025391
			c-3.0385742-5.2705078-3.8442383-11.4023438-2.2680664-17.2670898
			c1.5698242-5.8686523,5.3354492-10.7763672,10.6035156-13.8178711c5.2573242-3.0351562,11.387207-3.8427734,17.2617188-2.2763672
			c2.9311523,0.7939453,5.6079102,2.112793,7.9667969,3.9243164l2.7104492-1.5668945
			c0.28125-0.1625977,0.6318359-0.1523438,0.9018555,0.0268555c0.2714844,0.1791992,0.4179688,0.4960938,0.378418,0.8188477
			l-1.1669922,9.5854492c-0.0322266,0.2680664-0.1889648,0.5043945-0.4228516,0.6391602s-0.5185547,0.1508789-0.7646484,0.0458984
			l-8.8666992-3.784668c-0.2988281-0.1274414-0.5-0.4125977-0.5195312-0.7368164s0.1455078-0.6318359,0.4267578-0.7939453
			l1.6743164-0.9677734c-1.206543-0.6679688-2.487793-1.184082-3.8232422-1.5395508
			c-4.3691406-1.1699219-8.9267578-0.5732422-12.8364258,1.6811523c-3.9189453,2.2651367-6.7182617,5.9145508-7.8803711,10.2753906
			c-1.1689453,4.3608398-0.5683594,8.9174805,1.690918,12.8325195c2.2587891,3.9130859,5.9038086,6.7114258,10.2636719,7.8793945
			c4.3623047,1.1704102,8.9208984,0.5703125,12.8369141-1.6923828c3.9194336-2.2602539,6.7192383-5.9057617,7.8837891-10.2651367
			c0.7373047-2.7485352,0.7680664-5.6567383,0.090332-8.4106445c-0.0913086-0.3701172,0.0727539-0.7558594,0.4023438-0.9467773
			l3.6948242-2.1420898c0.2260742-0.1318359,0.5004883-0.1523438,0.7436523-0.0566406
			c0.2436523,0.0957031,0.4301758,0.2973633,0.5063477,0.5478516c1.2426758,4.0644531,1.3139648,8.3955078,0.2055664,12.5234375
			c-1.5708008,5.8603516-5.3330078,10.7670898-10.59375,13.815918
			C70.5465851,83.7360764,66.6535187,84.7692795,62.7082062,84.7692795z M62.6354523,40.9548264
			c-3.6484375,0-7.2480469,0.9555664-10.4887695,2.8271484l0,0c-4.8710938,2.8125-8.3530273,7.3500977-9.8041992,12.7768555
			c-1.4575195,5.4228516-0.7128906,11.0927734,2.0966797,15.9658203c2.8056641,4.8603516,7.3447266,8.3422852,12.7807617,9.8032227
			c5.4321289,1.4526367,11.1064453,0.7075195,15.9750977-2.0991211c4.8637695-2.8193359,8.3432617-7.3564453,9.7958984-12.7758789
			c0.9301758-3.4648438,0.9619141-7.0825195,0.1015625-10.5302734l-2.1894531,1.269043
			c0.5952148,2.8452148,0.5136719,5.8164062-0.2421875,8.6337891c-1.2832031,4.8022461-4.3671875,8.8183594-8.6835938,11.3071289
			c-4.3134766,2.4912109-9.3369141,3.1513672-14.1376953,1.8632812c-4.8022461-1.2866211-8.8173828-4.3686523-11.3051758-8.6782227
			c-2.4882812-4.3120117-3.1494141-9.3310547-1.8623047-14.1328125c1.2797852-4.8027344,4.362793-8.8227539,8.6796875-11.3178711
			c4.3081055-2.4829102,9.3286133-3.1416016,14.1362305-1.8525391c1.9707031,0.5244141,3.8334961,1.3666992,5.5366211,2.5024414
			c0.246582,0.1645508,0.390625,0.4448242,0.3808594,0.7407227c-0.0092773,0.2963867-0.1713867,0.5668945-0.4277344,0.7148438
			l-1.4404297,0.8325195l6.2397461,2.6635742l0.8212891-6.7456055l-1.7255859,0.9975586
			c-0.3071289,0.1782227-0.6933594,0.1479492-0.9692383-0.0761719c-2.2832031-1.8500977-4.9067383-3.1850586-7.7978516-3.9677734
			C66.2960968,41.1935959,64.459671,40.9548264,62.6354523,40.9548264z M51.7179718,43.039299h0.0097656H51.7179718z"/>
	</g>
</g>
</svg>
