<?xml version="1.0" encoding="utf-8"?>
<!-- Generator: Adobe Illustrator 22.0.1, SVG Export Plug-In . SVG Version: 6.00 Build 0)  -->
<svg version="1.1" id="Слой_1" xmlns="http://www.w3.org/2000/svg" xmlns:xlink="http://www.w3.org/1999/xlink" x="0px" y="0px"
	 viewBox="0 0 58 58" style="enable-background:new 0 0 58 58;" xml:space="preserve">
<style type="text/css">
	.st0{fill:#BCD031;}
	.st1{fill:#E4E8D0;}
	.st2{fill:#464731;}
	.st3{fill:#FFFFFF;}
	.st4{fill:#96B11F;}
</style>
<g>
	<circle class="st0" cx="29" cy="29" r="29"/>
</g>
<g>
	<path class="st1" d="M52.0520515,23.1596527V50.534874H7.1926236c-0.5385113,0-0.8829618,0-1.4083037,0
		c-1.9449036,0-3.5214744-1.5763664-3.5214744-3.5214081c0-0.1814346,0.0137835-0.3591881,0.0402586-0.5332565v-0.0004082
		c0.257246-1.6912766,1.7177489-2.987812,3.4812157-2.987812c0.1086984,0,0.2160325,0.0055962,0.3226151,0.0152893v-0.8075638
		V26.4929352v-3.3332825H52.0520515z"/>
	<path class="st2" d="M52.0519981,50.7904587H5.7842646c-2.0827851,0-3.7770002-1.6942139-3.7770002-3.7765846
		c0-0.1907463,0.0141602-0.3831558,0.0424805-0.5722351c0.2815363-1.8499756,1.9116142-3.2618217,3.8015721-3.2043457V23.1595097
		c0-0.1411839,0.1145306-0.2557144,0.2557149-0.2557144h45.9449654c0.1415977,0,0.2557144,0.1145306,0.2557144,0.2557144v27.3752346
		C52.3077126,50.6763458,52.1935959,50.7904587,52.0519981,50.7904587z M5.7842646,43.7478867
		c-1.6000919,0-2.9881988,1.1911163-3.2285042,2.7703857C2.531605,46.679863,2.5186942,46.845623,2.5186942,47.0138741
		c0,1.8000031,1.4651546,3.2651558,3.2655704,3.2651558h46.0120163V23.415226H6.3627467v20.091938
		c0,0.0716362-0.0299864,0.14077-0.0832949,0.1890831c-0.0537248,0.0491409-0.1253586,0.0749626-0.1961589,0.0657997
		C5.9845886,43.7528877,5.8850513,43.7478867,5.7842646,43.7478867z"/>
</g>
<g>
	<path class="st3" d="M6.106935,26.4929352v16.2067795v0.8075638c-0.1065826-0.0096931-0.2139168-0.0152893-0.3226151-0.0152893
		c-1.7634668,0-3.2243791,1.2965355-3.4812157,2.9882202l-0.0402586,0.0077133v-23.32827h0.0040939
		c-0.002934-0.057251-0.0040939-0.1149082-0.0040939-0.1731129c0-1.9448357,1.5765707-3.5214748,3.5214744-3.5214748
		c0.1086984,0,0.2160325,0.0054588,0.3226151,0.0151482V26.4929352z"/>
	<path class="st2" d="M2.2946315,46.7365036c-0.0620546,0-0.128274-0.0174942-0.1732531-0.054142
		c-0.0595558-0.0483131-0.114114-0.1174431-0.114114-0.1940765V23.1595097c0-0.0116596,0.0004165-0.0229053,0.0020826-0.0341492
		c-0.0016661-0.0458126-0.0020826-0.0924587-0.0020826-0.1386871c0-2.0827866,1.6942151-3.7774162,3.7770002-3.7774162
		c0.1166124,0,0.231976,0.0058308,0.3465061,0.016243c0.1316056,0.0124931,0.231976,0.12286,0.231976,0.2548809v24.026783
		c0,0.0716362-0.0299864,0.14077-0.0832949,0.1890831c-0.0537248,0.0491409-0.1253586,0.0749626-0.1961589,0.0657997
		c-0.0987043-0.0091591-0.1982417-0.0141602-0.2990284-0.0141602c-1.6005082,0-2.9886153,1.1911163-3.2285042,2.7703857
		c-0.015826,0.1057854-0.095789,0.1907463-0.2007403,0.2123985C2.3358624,46.7348404,2.315455,46.7365036,2.2946315,46.7365036z
		 M2.5186942,23.2053223V45.119751c0.6630263-1.1303101,1.8970382-1.8832932,3.2655704-1.8832932
		c0.0224895,0,0.0445628,0,0.0670524,0.0008354V19.7215195c-1.8274865-0.041647-3.3326228,1.4418316-3.3326228,3.2651539
		c0,0.0528927,0.000833,0.1057854,0.0037484,0.1578426C2.5236919,23.1653404,2.5224426,23.1857471,2.5186942,23.2053223z"/>
</g>
<g>
	<path class="st2" d="M5.1191564,38.1371574c-0.1411848,0-0.2557149-0.1141167-0.2557149-0.2557182V20.7123108
		c0-0.1411858,0.1145301-0.2557163,0.2557149-0.2557163c0.1411843,0,0.2557144,0.1145306,0.2557144,0.2557163v17.1691284
		C5.3748708,38.0230408,5.2603407,38.1371574,5.1191564,38.1371574z"/>
</g>
<g>
	<path class="st2" d="M47.8955879,47.6760674H34.7358513c-0.2823677,0-0.5114288-0.2290611-0.5114288-0.5114288
		s0.2290611-0.5114326,0.5114288-0.5114326h12.6483078V31.7634392H10.2638559v14.8897667h17.725956
		c0.2823677,0,0.5114307,0.2290649,0.5114307,0.5114326s-0.229063,0.5114288-0.5114307,0.5114288H9.7524261
		c-0.2823687,0-0.5114288-0.2290611-0.5114288-0.5114288V31.2520123c0-0.2823715,0.2290602-0.5114326,0.5114288-0.5114326
		h38.1431618c0.2823715,0,0.5114288,0.2290611,0.5114288,0.5114326v15.9126263
		C48.4070168,47.4470062,48.1779594,47.6760674,47.8955879,47.6760674z"/>
</g>
<g>
	<path class="st2" d="M23.4110985,47.6760674c-0.2823696,0-0.5114307-0.2290611-0.5114307-0.5114288v-4.9485397
		c0-0.2823715,0.2290611-0.5114288,0.5114307-0.5114288s0.5114288,0.2290573,0.5114288,0.5114288v4.9485397
		C23.9225273,47.4470062,23.6934681,47.6760674,23.4110985,47.6760674z M23.4110985,36.662838
		c-0.2823696,0-0.5114307-0.2290611-0.5114307-0.5114288v-4.8993969c0-0.2823715,0.2290611-0.5114326,0.5114307-0.5114326
		s0.5114288,0.2290611,0.5114288,0.5114326v4.8993969C23.9225273,36.4337769,23.6934681,36.662838,23.4110985,36.662838z"/>
</g>
<g>
	<path class="st2" d="M34.7358513,47.6760674c-0.2823677,0-0.5114288-0.2290611-0.5114288-0.5114288v-4.9485397
		c0-0.2823715,0.2290611-0.5114288,0.5114288-0.5114288c0.2823715,0,0.5114326,0.2290573,0.5114326,0.5114288v4.9485397
		C35.2472839,47.4470062,35.0182228,47.6760674,34.7358513,47.6760674z M40.2516289,36.662838
		c-0.2823715,0-0.5114288-0.2290611-0.5114288-0.5114288v-4.8993969c0-0.2823715,0.2290573-0.5114326,0.5114288-0.5114326
		s0.5114288,0.2290611,0.5114288,0.5114326v4.8993969C40.7630577,36.4337769,40.5340004,36.662838,40.2516289,36.662838z"/>
</g>
<g>
	<path class="st2" d="M27.615818,37.1959229h-8.4102726c-0.2823677,0-0.5114288-0.2290573-0.5114288-0.5114288
		s0.2290611-0.5114288,0.5114288-0.5114288h8.4102726c0.2823677,0,0.5114288,0.2290573,0.5114288,0.5114288
		S27.8981857,37.1959229,27.615818,37.1959229z"/>
</g>
<g>
	<path class="st2" d="M27.6582985,42.145298h-8.4952316c-0.2823696,0-0.5114307-0.2290611-0.5114307-0.5114288
		s0.2290611-0.5114326,0.5114307-0.5114326h8.4952316c0.2823677,0,0.5114288,0.2290649,0.5114288,0.5114326
		S27.9406662,42.145298,27.6582985,42.145298z"/>
</g>
<g>
	<path class="st2" d="M42.6280289,37.1959229h-4.8152695c-0.2823677,0-0.5114326-0.2290573-0.5114326-0.5114288
		s0.2290649-0.5114288,0.5114326-0.5114288h4.8152695c0.2823677,0,0.5114288,0.2290573,0.5114288,0.5114288
		S42.9103966,37.1959229,42.6280289,37.1959229z"/>
</g>
<g>
	<g>
		<path class="st3" d="M11.9815636,15.2657433h7.4157867c0,0.1301231,0.0499477,0.2603168,0.1489563,0.3595304
			c0.1984272,0.1984272,0.5204983,0.1984272,0.7189255,0l0.3593941-0.3595304h1.8106155v12.736414H11.9815636V15.2657433
			L11.9815636,15.2657433z M34.2955208,15.2657433h1.6641808l0.3593941,0.3595304
			c0.1984291,0.1984272,0.5204964,0.1984272,0.7189255,0c0.0992813-0.0992136,0.1489563-0.2294073,0.1489563-0.3595304h7.5622215
			v12.736414H34.2955208V15.2657433z"/>
		<path class="st2" d="M44.7495461,28.2575645H34.2952232c-0.1416016,0-0.2557144-0.1141129-0.2557144-0.2557144V15.265667
			c0-0.1411839,0.1141129-0.2557144,0.2557144-0.2557144h1.6642265c0.0674706,0,0.1324387,0.0266542,0.180748,0.0745487
			l0.3598366,0.359416c0.0974541,0.0966225,0.2615471,0.0941238,0.3573341,0.0004168
			c0.0474777-0.0478935,0.074131-0.1111975,0.074131-0.1786671c0-0.0678854,0.0266571-0.1328545,0.0749702-0.1807489
			c0.0474739-0.0483112,0.1132774-0.0749655,0.180748-0.0749655h7.5623283c0.1415977,0,0.2557144,0.1145306,0.2557144,0.2557144
			v12.7361832C45.0052605,28.1434517,44.8911438,28.2575645,44.7495461,28.2575645z M34.5509377,27.7461338h9.942894V15.5213823
			h-7.0942116c-0.0374832,0.1057844-0.0991211,0.2028217-0.1807518,0.2844515c-0.2873688,0.2873669-0.7913017,0.2894478-1.0803337,0
			l-0.2848663-0.2844515h-1.3027306V27.7461338z M22.434885,28.2575645H11.9813938
			c-0.1416016,0-0.2557154-0.1141129-0.2557154-0.2557144V15.265667c0-0.1411839,0.1141138-0.2557144,0.2557154-0.2557144h7.4157314
			c0.1415997,0,0.2557144,0.1145306,0.2557144,0.2557144c0,0.0674696,0.0266552,0.1307735,0.0741329,0.1786671
			c0.0974541,0.0953732,0.2615433,0.0937071,0.3573341,0l0.3598328-0.3598328
			c0.0483112-0.0478945,0.1132812-0.0745487,0.1807499-0.0745487h1.8099957c0.1415997,0,0.2557144,0.1145306,0.2557144,0.2557144
			v12.7361832C22.6905994,28.1434517,22.5764847,28.2575645,22.434885,28.2575645z M12.2371082,27.7461338h9.9420605V15.5213823
			h-1.4484959l-0.2848682,0.2848673c-0.2881985,0.2869511-0.7912998,0.289032-1.0803318-0.0004158
			c-0.0816288-0.0816298-0.1432686-0.1786671-0.1807499-0.2844515h-6.9476147V27.7461338z"/>
	</g>
	<g>
		<path class="st4" d="M10.0254698,15.2657433h9.3718805c0-0.1299887,0.0499477-0.2601795,0.1489563-0.3593941l8.3863602-8.3864288
			c0.1984959-0.1984277,0.5204983-0.1984277,0.7189941,0l8.3863602,8.3864288
			c0.0992813,0.0992146,0.1489563,0.2294054,0.1489563,0.3593941h9.5183144l-9.6865807-9.7535191
			c-5.769001,0-11.5376606,0-17.3066616,0L10.0254698,15.2657433L10.0254698,15.2657433z M34.2955208,13.60149l1.6641808,1.6642532
			h-1.6641808V13.60149z"/>
		<path class="st2" d="M46.705307,15.5213823h-9.5180893c-0.0674706,0-0.1332741-0.0266552-0.180748-0.0749645
			c-0.0483131-0.0478964-0.0749702-0.1128654-0.0749702-0.1807508c0-0.0674686-0.0266533-0.1307716-0.074131-0.178668
			l-8.3861141-8.3865299c-0.0982876-0.0974545-0.2598801-0.0978713-0.3581676,0.0004168l-8.3861141,8.3861141
			c-0.0474777,0.0478964-0.0741329,0.1111994-0.0741329,0.178668c0,0.1411839-0.1141148,0.2557154-0.2557144,0.2557154h-9.3714924
			c-0.1032858,0-0.1965752-0.0620556-0.236557-0.1574268c-0.0391483-0.0953732-0.0174923-0.2053213,0.0549746-0.2786207
			l9.686347-9.7533989c0.0483093-0.0483112,0.1132793-0.0753818,0.1815815-0.0753818H37.018959
			c0.0683022,0,0.1332741,0.0270705,0.1815834,0.0753818l9.686348,9.7533989
			c0.072464,0.0732994,0.09412,0.1832476,0.0549736,0.2786207C46.9018822,15.4593267,46.8085899,15.5213823,46.705307,15.5213823z
			 M37.3996201,15.0099525h8.6909714l-9.1782455-9.2419682h-17.09375l-9.1782475,9.2419682h8.5443745
			c0.0374813-0.1057854,0.0991211-0.2028227,0.1807499-0.2844515l8.3861141-8.3865318
			c0.2981949-0.2973623,0.7829704-0.2977791,1.0811672-0.0004168l8.3861141,8.3869486
			C37.300499,14.8071299,37.3621368,14.9041672,37.3996201,15.0099525z M35.9594498,15.5213823h-1.6642265
			c-0.1416016,0-0.2557144-0.1145315-0.2557144-0.2557154v-1.6642284c0-0.1037025,0.0624695-0.1969929,0.1574287-0.236557
			c0.0949516-0.0391493,0.2049026-0.017909,0.2790337,0.0558071l1.6642265,1.6642294
			c0.0733032,0.0728817,0.0949593,0.1832476,0.0558128,0.2786207
			C36.1560287,15.4593267,36.0627365,15.5213823,35.9594498,15.5213823z M34.5509377,15.0099525h0.7904663l-0.7904663-0.7908831
			V15.0099525z"/>
	</g>
	<g>
		<g>
			<path class="st2" d="M44.7495461,24.2810726H34.2952232c-0.1416016,0-0.2557144-0.1145306-0.2557144-0.2557144
				s0.1141129-0.2557125,0.2557144-0.2557125h10.4543228c0.1415977,0,0.2557144,0.1145287,0.2557144,0.2557125
				S44.8911438,24.2810726,44.7495461,24.2810726z M22.434885,24.2810726H12.0055494
				c-0.1416016,0-0.2557154-0.1145306-0.2557154-0.2557144s0.1141138-0.2557125,0.2557154-0.2557125H22.434885
				c0.1415997,0,0.2557144,0.1145287,0.2557144,0.2557125S22.5764847,24.2810726,22.434885,24.2810726z"/>
		</g>
		<g>
			<path class="st2" d="M44.7495461,22.3211498H34.2952232c-0.1416016,0-0.2557144-0.1145325-0.2557144-0.2557163
				s0.1141129-0.2557144,0.2557144-0.2557144h10.4543228c0.1415977,0,0.2557144,0.1145306,0.2557144,0.2557144
				S44.8911438,22.3211498,44.7495461,22.3211498z M22.434885,22.3211498H12.0055494
				c-0.1416016,0-0.2557154-0.1145325-0.2557154-0.2557163s0.1141138-0.2557144,0.2557154-0.2557144H22.434885
				c0.1415997,0,0.2557144,0.1145306,0.2557144,0.2557144S22.5764847,22.3211498,22.434885,22.3211498z"/>
		</g>
		<g>
			<path class="st2" d="M44.7495461,20.3612232H34.2952232c-0.1416016,0-0.2557144-0.1145287-0.2557144-0.2557144
				s0.1141129-0.2557144,0.2557144-0.2557144h10.4543228c0.1415977,0,0.2557144,0.1145287,0.2557144,0.2557144
				S44.8911438,20.3612232,44.7495461,20.3612232z M22.434885,20.3612232H12.0055494
				c-0.1416016,0-0.2557154-0.1145287-0.2557154-0.2557144s0.1141138-0.2557144,0.2557154-0.2557144H22.434885
				c0.1415997,0,0.2557144,0.1145287,0.2557144,0.2557144S22.5764847,20.3612232,22.434885,20.3612232z"/>
		</g>
		<g>
			<path class="st2" d="M44.7495461,18.4008808H34.2952232c-0.1416016,0-0.2557144-0.1145306-0.2557144-0.2557144
				c0-0.1411858,0.1141129-0.2557144,0.2557144-0.2557144h10.4543228c0.1415977,0,0.2557144,0.1145287,0.2557144,0.2557144
				C45.0052605,18.2863503,44.8911438,18.4008808,44.7495461,18.4008808z M22.434885,18.4008808H12.0055494
				c-0.1416016,0-0.2557154-0.1145306-0.2557154-0.2557144c0-0.1411858,0.1141138-0.2557144,0.2557154-0.2557144H22.434885
				c0.1415997,0,0.2557144,0.1145287,0.2557144,0.2557144C22.6905994,18.2863503,22.5764847,18.4008808,22.434885,18.4008808z"/>
		</g>
		<g>
			<path class="st2" d="M44.7495461,16.4405384H34.2952232c-0.1416016,0-0.2557144-0.1145306-0.2557144-0.2557144
				s0.1141129-0.2557135,0.2557144-0.2557135h10.4543228c0.1415977,0,0.2557144,0.1145296,0.2557144,0.2557135
				S44.8911438,16.4405384,44.7495461,16.4405384z M22.434885,16.4405384H12.0055494
				c-0.1416016,0-0.2557154-0.1145306-0.2557154-0.2557144s0.1141138-0.2557135,0.2557154-0.2557135H22.434885
				c0.1415997,0,0.2557144,0.1145296,0.2557144,0.2557135S22.5764847,16.4405384,22.434885,16.4405384z"/>
		</g>
		<g>
			<path class="st2" d="M44.7495461,26.41675H34.2952232c-0.1416016,0-0.2557144-0.1141129-0.2557144-0.2557125
				c0-0.1416016,0.1141129-0.2557163,0.2557144-0.2557163h10.4543228c0.1415977,0,0.2557144,0.1141148,0.2557144,0.2557163
				C45.0052605,26.3026371,44.8911438,26.41675,44.7495461,26.41675z M22.434885,26.41675H12.0055494
				c-0.1416016,0-0.2557154-0.1141129-0.2557154-0.2557125c0-0.1416016,0.1141138-0.2557163,0.2557154-0.2557163H22.434885
				c0.1415997,0,0.2557144,0.1141148,0.2557144,0.2557163C22.6905994,26.3026371,22.5764847,26.41675,22.434885,26.41675z"/>
		</g>
	</g>
	<g>
		<polygon class="st3" points="34.2955208,13.60149 34.2955208,28.0021572 22.4352417,28.0021572 22.4352417,13.4550581 
			28.2920609,7.598238 		"/>
		<path class="st2" d="M34.2952232,28.2575645H22.434885c-0.1416016,0-0.2557163-0.1141129-0.2557163-0.2557144V13.4552555
			c0-0.0678854,0.0266533-0.1328545,0.0749645-0.1807489l5.8572884-5.8568702c0.0999527-0.0999537,0.2615452-0.0999537,0.3614998,0
			l6.0030499,6.0030522c0.0483131,0.0478945,0.0749664,0.1128645,0.0749664,0.1807499v14.4004116
			C34.5509377,28.1434517,34.4368248,28.2575645,34.2952232,28.2575645z M22.6905994,27.7461338h11.3489094V13.7072229
			l-5.7473392-5.7469211l-5.6015701,5.600738V27.7461338z"/>
	</g>
	<g>
		<path class="st4" d="M20.2652321,15.6252737c-0.1984272,0.1984272-0.5204983,0.1984272-0.7189255,0
			c-0.1984272-0.1984262-0.1984272-0.5204973,0-0.7189245l8.3863602-8.3864288c0.1984959-0.1984277,0.5204983-0.1984277,0.7189941,0
			l8.3863602,8.3864288c0.198494,0.1984272,0.198494,0.5204983,0,0.7189245c-0.1984291,0.1984272-0.5204964,0.1984272-0.7189255,0
			L28.2920609,7.598238L20.2652321,15.6252737z"/>
		<path class="st2" d="M36.6791191,16.0298958c-0.2049065,0-0.3964844-0.079545-0.5405846-0.224062l-7.846365-7.8455319
			l-7.846365,7.8455319c-0.2881985,0.2873669-0.7912998,0.2894478-1.0803318,0
			c-0.2981949-0.2973623-0.2981949-0.7821379,0-1.0803328l8.3861141-8.3865318
			c0.2981949-0.2973623,0.7829704-0.2977791,1.0811672-0.0004168l8.3861141,8.3869486
			c0.2981949,0.2981949,0.2981949,0.7829704,0,1.0803328C37.0747681,15.9503508,36.8831902,16.0298958,36.6791191,16.0298958z
			 M28.2921696,7.3426714c0.0658035,0,0.1307735,0.0249887,0.1807518,0.074965l8.027113,8.0266972
			c0.0957909,0.0937071,0.2598801,0.0953732,0.3573341,0c0.0982857-0.0982885,0.0982857-0.2586288,0-0.3573351l-8.3861141-8.3865299
			c-0.0982876-0.0974545-0.2598801-0.0978713-0.3581676,0.0004168l-8.3861141,8.3861141
			c-0.0982895,0.0987062-0.0982895,0.2590466,0,0.3573351c0.0974541,0.0953732,0.2615433,0.0937071,0.3573341,0l0,0
			l8.0271149-8.0266972C28.1613979,7.36766,28.226368,7.3426714,28.2921696,7.3426714z"/>
	</g>
	<g>
		<g>
			<polygon class="st3" points="19.1012096,9.0636539 21.2623501,6.9023089 23.4236279,9.0636539 			"/>
			<path class="st2" d="M23.4235916,9.3192549H19.101429c-0.1032848,0-0.1965752-0.0620537-0.236557-0.1578426
				c-0.0391502-0.0953722-0.0174923-0.2057381,0.0558052-0.2786207l2.1606674-2.1610827
				c0.0941219-0.0962052,0.2657108-0.097455,0.3614979,0l2.1615009,2.1610827
				c0.0732975,0.0728827,0.0949554,0.1828308,0.0558052,0.2786207C23.6201687,9.2572012,23.5268764,9.3192549,23.4235916,9.3192549z
				 M19.7194748,8.807826h3.086071l-1.5434513-1.5434513L19.7194748,8.807826z"/>
		</g>
		<g>
			<polygon class="st3" points="33.3071327,9.0636539 35.4682045,6.9023089 37.6293449,9.0636539 			"/>
			<path class="st2" d="M37.6295128,9.3192549h-4.3221664c-0.1032867,0-0.1965752-0.0620537-0.236557-0.1578426
				c-0.0391502-0.0953722-0.0174942-0.2057381,0.055809-0.2786207l2.1606674-2.1610827
				c0.09412-0.0962052,0.2648735-0.097455,0.361496,0l2.161499,2.1610827
				c0.0732994,0.0728827,0.0949554,0.1828308,0.055809,0.2786207C37.826088,9.2572012,37.7327957,9.3192549,37.6295128,9.3192549z
				 M33.9253922,8.807826h3.086071l-1.5434494-1.5434513L33.9253922,8.807826z"/>
		</g>
	</g>
	<g>
		<g>
			<path class="st2" d="M34.2952232,24.2810726H22.434885c-0.1416016,0-0.2557163-0.1145306-0.2557163-0.2557144
				s0.1141148-0.2557125,0.2557163-0.2557125h11.8603382c0.1416016,0,0.2557144,0.1145287,0.2557144,0.2557125
				S34.4368248,24.2810726,34.2952232,24.2810726z"/>
		</g>
		<g>
			<path class="st2" d="M34.2952232,22.3211498H22.434885c-0.1416016,0-0.2557163-0.1145325-0.2557163-0.2557163
				s0.1141148-0.2557144,0.2557163-0.2557144h11.8603382c0.1416016,0,0.2557144,0.1145306,0.2557144,0.2557144
				S34.4368248,22.3211498,34.2952232,22.3211498z"/>
		</g>
		<g>
			<path class="st2" d="M34.2952232,20.3612232H22.434885c-0.1416016,0-0.2557163-0.1145287-0.2557163-0.2557144
				s0.1141148-0.2557144,0.2557163-0.2557144h11.8603382c0.1416016,0,0.2557144,0.1145287,0.2557144,0.2557144
				S34.4368248,20.3612232,34.2952232,20.3612232z"/>
		</g>
		<g>
			<path class="st2" d="M34.2952232,18.4008808H22.434885c-0.1416016,0-0.2557163-0.1145306-0.2557163-0.2557144
				c0-0.1411858,0.1141148-0.2557144,0.2557163-0.2557144h11.8603382c0.1416016,0,0.2557144,0.1145287,0.2557144,0.2557144
				C34.5509377,18.2863503,34.4368248,18.4008808,34.2952232,18.4008808z"/>
		</g>
		<g>
			<path class="st2" d="M34.2952232,16.4405384H22.434885c-0.1416016,0-0.2557163-0.1145306-0.2557163-0.2557144
				s0.1141148-0.2557135,0.2557163-0.2557135h11.8603382c0.1416016,0,0.2557144,0.1145296,0.2557144,0.2557135
				S34.4368248,16.4405384,34.2952232,16.4405384z"/>
		</g>
		<g>
			<path class="st2" d="M34.2952232,14.4806147H22.434885c-0.1416016,0-0.2557163-0.1145315-0.2557163-0.2557154
				s0.1141148-0.2557144,0.2557163-0.2557144h11.8603382c0.1416016,0,0.2557144,0.1145306,0.2557144,0.2557144
				S34.4368248,14.4806147,34.2952232,14.4806147z"/>
		</g>
		<g>
			<path class="st2" d="M32.9583435,12.5202723h-9.332346c-0.1416016,0-0.2557144-0.1145296-0.2557144-0.2557144
				s0.1141129-0.2557154,0.2557144-0.2557154h9.332346c0.1415977,0,0.2557144,0.1145306,0.2557144,0.2557154
				S33.0999413,12.5202723,32.9583435,12.5202723z"/>
		</g>
		<g>
			<path class="st2" d="M30.9984169,10.5603466h-5.4124928c-0.1416016,0-0.2557144-0.1145296-0.2557144-0.2557144
				s0.1141129-0.2557144,0.2557144-0.2557144h5.4124928c0.1416016,0,0.2557163,0.1145296,0.2557163,0.2557144
				S31.1400185,10.5603466,30.9984169,10.5603466z"/>
		</g>
		<g>
			<path class="st2" d="M29.0384903,8.6000051h-1.4926414c-0.1416016,0-0.2557144-0.1145296-0.2557144-0.2557144
				s0.1141129-0.2557154,0.2557144-0.2557154h1.4926414c0.1416016,0,0.2557163,0.1145306,0.2557163,0.2557154
				S29.1800919,8.6000051,29.0384903,8.6000051z"/>
		</g>
		<g>
			<path class="st2" d="M34.2952232,26.396759H22.434885c-0.1416016,0-0.2557163-0.1141129-0.2557163-0.2557125
				c0-0.1416016,0.1141148-0.2557163,0.2557163-0.2557163h11.8603382c0.1416016,0,0.2557144,0.1141148,0.2557144,0.2557163
				C34.5509377,26.2826462,34.4368248,26.396759,34.2952232,26.396759z"/>
		</g>
	</g>
	<g>
		<g>
			<rect x="13.0918169" y="18.9563732" class="st1" width="8.2595119" height="6.3916454"/>
			<path class="st2" d="M21.3512192,25.6037941H13.091713c-0.1416016,0-0.2557154-0.1141129-0.2557154-0.2557144v-6.3916225
				c0-0.1411858,0.1141138-0.2557144,0.2557154-0.2557144h8.2595062c0.1416016,0,0.2557144,0.1145287,0.2557144,0.2557144v6.3916225
				C21.6069336,25.4896812,21.4928207,25.6037941,21.3512192,25.6037941z M13.3474274,25.0923634h7.7480774v-5.8801918h-7.7480774
				V25.0923634z"/>
		</g>
		<g>
			<g>
				<path class="st2" d="M15.8362751,25.4613609c-0.1416016,0-0.2557163-0.1141148-0.2557163-0.2557163V19.168026
					c0-0.1411839,0.1141148-0.2557144,0.2557163-0.2557144c0.1416006,0,0.2557144,0.1145306,0.2557144,0.2557144v6.0376186
					C16.0919895,25.3472462,15.9778757,25.4613609,15.8362751,25.4613609z"/>
			</g>
			<g>
				<path class="st2" d="M18.606657,25.4613609c-0.1416016,0-0.2557144-0.1141148-0.2557144-0.2557163V19.168026
					c0-0.1411839,0.1141129-0.2557144,0.2557144-0.2557144s0.2557163,0.1145306,0.2557163,0.2557144v6.0376186
					C18.8623734,25.3472462,18.7482586,25.4613609,18.606657,25.4613609z"/>
			</g>
		</g>
	</g>
	<g>
		<rect x="25.42346" y="17.5786381" class="st1" width="5.883296" height="10.4233141"/>
		<path class="st2" d="M31.3066063,28.2575645h-5.8831062c-0.1416016,0-0.2557144-0.1141129-0.2557144-0.2557144V17.5787621
			c0-0.1411858,0.1141129-0.2557144,0.2557144-0.2557144h5.8831062c0.1416016,0,0.2557163,0.1145287,0.2557163,0.2557144v10.4230881
			C31.5623226,28.1434517,31.4482079,28.2575645,31.3066063,28.2575645z M25.6792126,27.7461338H31.05089v-9.9116573h-5.3716774
			V27.7461338z"/>
	</g>
	<g>
		<g>
			<rect x="35.4220085" y="18.9563732" class="st1" width="8.2595119" height="6.3916454"/>
			<path class="st2" d="M43.6817055,25.6037941h-8.2595062c-0.1416016,0-0.2557144-0.1141129-0.2557144-0.2557144v-6.3916225
				c0-0.1411858,0.1141129-0.2557144,0.2557144-0.2557144h8.2595062c0.1416016,0,0.2557144,0.1145287,0.2557144,0.2557144v6.3916225
				C43.9374199,25.4896812,43.823307,25.6037941,43.6817055,25.6037941z M35.6779175,25.0923634h7.7480774v-5.8801918h-7.7480774
				V25.0923634z"/>
		</g>
		<g>
			<g>
				<path class="st2" d="M38.1667633,25.4613609c-0.1416016,0-0.2557182-0.1141148-0.2557182-0.2557163V19.168026
					c0-0.1411839,0.1141167-0.2557144,0.2557182-0.2557144s0.2557144,0.1145306,0.2557144,0.2557144v6.0376186
					C38.4224777,25.3472462,38.3083649,25.4613609,38.1667633,25.4613609z"/>
			</g>
			<g>
				<path class="st2" d="M40.9371452,25.4613609c-0.1415977,0-0.2557144-0.1141148-0.2557144-0.2557163V19.168026
					c0-0.1411839,0.1141167-0.2557144,0.2557144-0.2557144c0.1416016,0,0.2557144,0.1145306,0.2557144,0.2557144v6.0376186
					C41.1928596,25.3472462,41.0787468,25.4613609,40.9371452,25.4613609z"/>
			</g>
		</g>
	</g>
</g>
<g>
	<g>
		<path class="st3" d="M48.4023666,23.8397503H50.18787c0.1121788,0,0.2036819,0.0912991,0.2036819,0.2036819v1.6813793
			c0,0.1123848-0.0915031,0.203886-0.2036819,0.203886h-1.7855034l-0.0106468-0.0002041l-7.4511986-0.0002041
			c0.1063766-0.0065498,0.1911278-0.0953255,0.1911278-0.2034779v-1.6813793c0-0.1079483-0.084343-0.196516-0.1905174-0.2033405
			h7.4482689L48.4023666,23.8397503z"/>
		<path class="st2" d="M50.1878586,26.1843586h-9.2473831c-0.1382675,0-0.2515488-0.1099491-0.2557106-0.247385
			c-0.0041695-0.1216106,0.0774612-0.2265625,0.1915741-0.2557144v-1.5938454
			c-0.1132812-0.0295696-0.1949081-0.1345215-0.1907463-0.2561321c0.0050011-0.1378536,0.1174469-0.2469692,0.2557182-0.2469692
			l9.2465477-0.0004158c0.2532196,0,0.4597893,0.2061539,0.4597893,0.4593697v1.6813049
			C50.6476479,25.977787,50.4410782,26.1843586,50.1878586,26.1843586z M41.3877678,25.6729279h8.7484474v-1.5776005
			l-8.7484474,0.0004158V25.6729279z"/>
	</g>
	<g>
		<path class="st3" d="M48.4023666,25.9286976H50.18787c0.1121788,0,0.2036819,0.0912991,0.2036819,0.2036839v1.6813793
			c0,0.1123829-0.0915031,0.203886-0.2036819,0.203886h-1.7855034l-0.0106468-0.0002041l-7.4511986-0.000206
			c0.1063766-0.0065498,0.1911278-0.0953255,0.1911278-0.203476v-1.6813793c0-0.1079483-0.084343-0.1965179-0.1905174-0.2032719
			h7.4482689L48.4023666,25.9286976z"/>
		<path class="st2" d="M50.1878586,28.2733917l-9.2473831-0.0008335c-0.1382675,0-0.2523804-0.1099491-0.2557106-0.249052
			c-0.003334-0.1207771,0.0782928-0.2248955,0.1915741-0.2540474v-1.5925961
			c-0.1132812-0.0291538-0.1949081-0.1341057-0.1907463-0.2557163c0.0041656-0.1374359,0.1174469-0.247385,0.2557182-0.247385
			l9.2465477-0.0008335c0.2532196,0,0.4597893,0.2065735,0.4597893,0.4597893v1.6808872
			C50.6476479,28.0668201,50.4410782,28.2733917,50.1878586,28.2733917z M41.3877678,27.7611294l8.7484474,0.0008316v-1.5776024
			l-8.7484474,0.0008335V27.7611294z"/>
	</g>
	<g>
		<path class="st3" d="M48.4023666,28.0176468H50.18787c0.1121788,0,0.2036819,0.0912971,0.2036819,0.2036819v1.6813774
			c0,0.1123867-0.0915031,0.2038898-0.2036819,0.2038898h-1.7855034l-0.0106468-0.0002041l-7.4511986-0.0001373
			c0.1063766-0.0066204,0.1911278-0.0953922,0.1911278-0.2035484v-1.6813774c0-0.1079483-0.084343-0.1965179-0.1905174-0.2032719
			h7.4482689L48.4023666,28.0176468z"/>
		<path class="st2" d="M50.1878586,30.3624229l-9.2473831-0.0008335c-0.1382675,0-0.2523804-0.1099491-0.2557106-0.2490501
			c-0.003334-0.1207771,0.0782928-0.2248974,0.1915741-0.2540493v-1.5934277
			c-0.1141129-0.0299873-0.1949081-0.1349392-0.1907463-0.2565498c0.0050011-0.1374359,0.1182823-0.2465515,0.2557182-0.2465515
			h9.2465477c0.2532196,0,0.4597893,0.2057381,0.4597893,0.4589539v1.6817207
			C50.6476479,30.1558533,50.4410782,30.3624229,50.1878586,30.3624229z M41.3877678,29.8501606l8.7484474,0.0008316v-1.5776005
			h-8.7484474V29.8501606z M50.1878586,28.2733917h0.0066643H50.1878586z"/>
	</g>
	<g>
		<path class="st3" d="M39.1424599,23.8397503h1.7855072c0.1121788,0,0.2036819,0.0912991,0.2036819,0.2036819v1.6813793
			c0,0.1123848-0.0915031,0.203886-0.2036819,0.203886h-1.7855072c-0.1121788,0-0.2036819-0.0915012-0.2036819-0.203886v-1.6813793
			C38.9387779,23.9310493,39.0302811,23.8397503,39.1424599,23.8397503z"/>
		<path class="st2" d="M40.9279823,26.1843586h-1.7858391c-0.2532158,0-0.4589539-0.2065716-0.4589539-0.4597874v-1.6813049
			c0-0.2532158,0.2057381-0.4593697,0.4589539-0.4593697h1.7858391c0.2532158,0,0.4597855,0.2061539,0.4597855,0.4593697v1.6813049
			C41.3877678,25.977787,41.1811981,26.1843586,40.9279823,26.1843586z M39.1946182,25.6729279h1.6817207v-1.5776005h-1.6817207
			V25.6729279z M40.9279823,24.0953274h0.0066643H40.9279823z"/>
	</g>
	<g>
		<path class="st3" d="M39.1424599,25.9286976h1.7855072c0.1121788,0,0.2036819,0.0912991,0.2036819,0.2036839v1.6813793
			c0,0.1123829-0.0915031,0.203886-0.2036819,0.203886h-1.7855072c-0.1121788,0-0.2036819-0.0915031-0.2036819-0.203886v-1.6813793
			C38.9387779,26.0199966,39.0302811,25.9286976,39.1424599,25.9286976z"/>
		<path class="st2" d="M40.9279823,28.2733917h-1.7858391c-0.2532158,0-0.4589539-0.2065716-0.4589539-0.4597874v-1.6808872
			c0-0.2532158,0.2057381-0.4597893,0.4589539-0.4597893h1.7858391c0.2532158,0,0.4597855,0.2065735,0.4597855,0.4597893v1.6808872
			C41.3877678,28.0668201,41.1811981,28.2733917,40.9279823,28.2733917z M39.1946182,27.761961h1.6817207v-1.5776024h-1.6817207
			V27.761961z M40.9279823,26.1843586h0.0066643H40.9279823z"/>
	</g>
	<g>
		<path class="st3" d="M39.1424599,28.0176468h1.7855072c0.1121788,0,0.2036819,0.0912971,0.2036819,0.2036819v1.6813774
			c0,0.1123867-0.0915031,0.2038898-0.2036819,0.2038898h-1.7855072c-0.1121788,0-0.2036819-0.0915031-0.2036819-0.2038898
			v-1.6813774C38.9387779,28.1089439,39.0302811,28.0176468,39.1424599,28.0176468z"/>
		<path class="st2" d="M40.9279823,30.3624229h-1.7858391c-0.2532158,0-0.4589539-0.2065697-0.4589539-0.4597874v-1.6817207
			c0-0.2532158,0.2057381-0.4589539,0.4589539-0.4589539h1.7858391c0.2532158,0,0.4597855,0.2057381,0.4597855,0.4589539v1.6817207
			C41.3877678,30.1558533,41.1811981,30.3624229,40.9279823,30.3624229z M39.1946182,29.8509922h1.6817207v-1.5776005h-1.6817207
			V29.8509922z M40.9279823,28.2733917h0.0066643H40.9279823z"/>
	</g>
</g>
</svg>
