<?xml version="1.0" encoding="utf-8"?>
<!-- Generator: Adobe Illustrator 22.0.1, SVG Export Plug-In . SVG Version: 6.00 Build 0)  -->
<svg version="1.1" id="Слой_1" xmlns="http://www.w3.org/2000/svg" xmlns:xlink="http://www.w3.org/1999/xlink" x="0px" y="0px"
	 viewBox="0 0 24 24" style="enable-background:new 0 0 24 24;" xml:space="preserve">
<style type="text/css">
	.st0{fill-rule:evenodd;clip-rule:evenodd;fill:#BE835C;}
	.st1{fill-rule:evenodd;clip-rule:evenodd;fill:#F8D3A9;}
</style>
<rect class="st0" width="24" height="24"/>
<path class="st1" d="M0.8803781,0h1.4904796C3.612206,0.8966303,5.1555986,1.750721,6.6677246,1.9012339
	c0.0846806,0.0084774,0.1729689,0.0138837,0.2638626,0.0149497C7.8940406,1.92791,7.9239044,1.3892363,7.937233,1.2411854
	C7.9739108,0.8378465,7.8071551,0.4083899,7.6142435,0h1.537981c0.2152596,0.4498127,0.4084721,0.9251845,0.3680859,1.3736266
	c-0.0328703,0.3627031-0.2431192,1.0043243-2.2250471,0.980085C7.0367117,2.350539,6.7835717,2.3344977,6.5430584,2.3106897
	C4.342063,2.0924587,2.3634419,1.0494275,0.8803781,0L0.8803781,0z"/>
<path class="st1" d="M12.500267,0c0.1457109,0.4954488,0.1477156,0.9979282-0.1397982,1.4741378
	C11.4292822,3.0148261,7.5219469,3.8114529,2.00157,4.3758125C1.3064872,4.4468813,0.6394642,4.5470366,0,4.6695538v0.6259608
	c0.9030265-0.2236118,1.8623731-0.4007497,2.8731294-0.5040784c5.9472871-0.6079397,10.0546494-1.480813,11.0536804-3.134551
	C14.2518034,1.1193792,14.2327633,0.554664,14.0512762,0H12.500267L12.500267,0z"/>
<path class="st1" d="M20.4715729,0c0.192009,0.6429412,0.1980228,1.2955021-0.1758747,1.9141785
	c-1.2010632,1.9874045-6.2256823,3.0163488-13.3498802,3.74475C4.3230224,5.9270597,2.0094869,6.5237303,0,7.2274604v0.8266788
	C2.2052045,7.1765194,4.8318081,6.379766,7.8173771,6.0745015C15.3664818,5.3026977,20.593132,4.1968722,21.8620396,2.096926
	C22.2731152,1.416953,22.2506676,0.7021565,22.0228825,0H20.4715729L20.4715729,0z"/>
<path class="st1" d="M24,6.2928591v0.9348044c-2.4335918,0.9458957-5.9913807,1.695744-10.9819279,2.2058635
	C7.9105759,9.9557285,3.3517504,11.6824636,0,13.0908375V12.213726c3.2806988-1.3149958,7.424439-2.7130899,12.1466131-3.1957722
	C17.963522,8.4232893,21.7311592,7.4907942,24,6.2928591L24,6.2928591z"/>
<path class="st1" d="M24,10.9377422c-2.344101,0.5523291-5.2149258,1.0154667-8.6976547,1.3770781
	c-4.1136761,0.4270706-7.5080175,1.3700991-10.1351223,2.2508154C3.3150721,15.1866217,1.6194549,15.8479643,0,16.5202465v0.8922138
	c2.0106895-0.8594971,4.1065607-1.7152376,6.4552712-2.5049353c2.505445-0.8423643,5.7918563-1.768259,9.7251472-2.1766996
	C19.2153931,12.4156876,21.8044167,12.0258007,24,11.5690079V10.9377422L24,10.9377422z"/>
<path class="st1" d="M24,15.0919228v0.5884724c-7.8855228,1.1628838-14.4773855,3.5210609-19.4554043,5.2150555
	C3.1430051,21.3723965,1.6271713,21.8963985,0,22.4300213V21.578392c1.0271914-0.3463573,2.0009687-0.6816483,2.918025-0.9936886
	C8.3156404,18.7478886,15.3861237,16.2214298,24,15.0919228L24,15.0919228z"/>
<path class="st1" d="M24,20.0825291c-0.1562328,0.0105572-0.312767,0.0214977-0.4696026,0.0333004
	C16.414217,20.6516857,10.4429779,22.4226856,5.6609769,24h2.5781999C12.569315,22.6016254,17.8814468,21.1146202,24,20.6057186
	V20.0825291z"/>
</svg>
