<?xml version="1.0" encoding="utf-8"?>
<!-- Generator: Adobe Illustrator 22.0.1, SVG Export Plug-In . SVG Version: 6.00 Build 0)  -->
<svg version="1.1" id="_x31_" xmlns="http://www.w3.org/2000/svg" xmlns:xlink="http://www.w3.org/1999/xlink" x="0px" y="0px"
	 viewBox="0 0 88 88" style="enable-background:new 0 0 88 88;" xml:space="preserve">
<style type="text/css">
	.st0{fill-rule:evenodd;clip-rule:evenodd;fill:#F8F9F4;}
	.st1{fill-rule:evenodd;clip-rule:evenodd;fill:#FFFFFF;}
	.st2{fill:#96B11F;}
	.st3{fill-rule:evenodd;clip-rule:evenodd;fill:#96B11F;}
	.st4{fill:#464731;}
</style>
<g>
	<path class="st0" d="M43.9995232,88C68.2350388,88,88,68.2350388,88,44.0004768C88,19.7649612,68.2350388,0,43.9995232,0
		C19.7649612,0,0,19.7649612,0,44.0004768C0,68.2350388,19.7649612,88,43.9995232,88z"/>
</g>
<g>
	<g>
		<polygon class="st1" points="21.3444557,55.1995125 21.3444557,33.5041695 45.0559273,9.7850723 68.7769318,33.5060768 
			68.7769318,55.1995125 		"/>
		<path class="st2" d="M68.7770462,56.0573845H21.3444271c-0.4736328,0-0.8574219-0.3837891-0.8574219-0.8574219V33.5046501
			c0-0.2275391,0.090332-0.4453125,0.2509766-0.6064453L44.4494095,9.1784773c0.3212891-0.3222656,0.890625-0.3222656,1.2128906,0
			l23.7211914,23.7207031c0.1606445,0.1611328,0.2509766,0.3789062,0.2509766,0.6064453v21.6943359
			C69.6344681,55.6735954,69.250679,56.0573845,68.7770462,56.0573845z M22.201849,54.3425407h45.7177734V33.8610954
			L45.0558548,10.9978132L22.201849,33.8601189V54.3425407z"/>
	</g>
	<g>
		<path class="st3" d="M16.5099277,38.3329773c-1.0071125,1.0071144-2.6411715,1.0071144-3.6482849,0
			c-1.0080662-1.0071106-1.0080662-2.6411705,0-3.6492386L45.0587883,2.4865959l32.1942863,32.1971436
			c1.0071106,1.0080681,1.0071106,2.642128,0,3.6492386c-1.0080719,1.0071144-2.642128,1.0071144-3.6492386,0L45.0587883,9.7879314
			L16.5099277,38.3329773z"/>
		<path class="st4" d="M14.6857357,39.9441032c-0.8803711,0-1.7602539-0.3349609-2.4306641-1.0048828
			c-0.6494141-0.6484375-1.0068359-1.5117188-1.0068359-2.4306641c0-0.9179688,0.3574219-1.78125,1.0068359-2.4316406
			L44.4523392,1.880626c0.3222656-0.3222656,0.8916016-0.3222656,1.2128906,0l32.1943359,32.1962891
			c1.3393555,1.3417969,1.3388672,3.5234375,0,4.8623047c-1.3417969,1.3398438-3.5224609,1.3398438-4.8623047,0
			L45.0587845,11.0007429L17.1163998,38.9392204l0,0C16.4459896,39.6091423,15.5661068,39.9441032,14.6857357,39.9441032z
			 M16.5099545,38.3327751h0.0097656H16.5099545z M45.0587845,3.6999619L13.4679623,35.2898064
			c-0.3256836,0.3251953-0.5048828,0.7587891-0.5048828,1.21875s0.1791992,0.8925781,0.5043945,1.2177734
			c0.6728516,0.6728516,1.7661133,0.671875,2.4360352,0l28.54883-28.5449219c0.3349609-0.3339844,0.8779297-0.3339844,1.2128906,0
			l28.5449219,28.5449219c0.671875,0.6728516,1.7651367,0.6699219,2.4370117,0
			c0.6708984-0.6708984,0.6704102-1.7646484-0.0009766-2.4375L45.0587845,3.6999619z"/>
	</g>
	<g>
		<rect x="38.2005043" y="29.5986271" class="st3" width="13.7098932" height="16.6616802"/>
		<path class="st4" d="M51.910347,47.1179314H38.200386c-0.4736328,0-0.8574219-0.3837891-0.8574219-0.8574219V29.5984001
			c0-0.4736328,0.3837891-0.8574219,0.8574219-0.8574219H51.910347c0.4736328,0,0.8574219,0.3837891,0.8574219,0.8574219v16.6621094
			C52.7677689,46.7341423,52.3839798,47.1179314,51.910347,47.1179314z M39.0578079,45.4030876h11.9951172V30.455822H39.0578079
			V45.4030876z"/>
	</g>
	<g>
		<rect x="18.7604504" y="55.1995125" class="st1" width="52.5909538" height="7.0278807"/>
		<path class="st2" d="M71.351265,63.0847282H18.7604427c-0.4736328,0-0.8574219-0.3837891-0.8574219-0.8574219v-7.0273438
			c0-0.4736328,0.3837891-0.8574219,0.8574219-0.8574219H71.351265c0.4736328,0,0.8574219,0.3837891,0.8574219,0.8574219v7.0273438
			C72.2086868,62.7009392,71.8248978,63.0847282,71.351265,63.0847282z M19.6178646,61.3698845h50.8759766v-5.3125H19.6178646
			V61.3698845z"/>
	</g>
	<g>
		<path class="st4" d="M75.0216751,63.2067986H2.3092711c-0.4736328,0-0.8574219-0.3837891-0.8574219-0.8574219
			s0.3837891-0.8574219,0.8574219-0.8574219h72.7124023c0.4736328,0,0.8574219,0.3837891,0.8574219,0.8574219
			S75.4953079,63.2067986,75.0216751,63.2067986z"/>
	</g>
	<g>
		<path class="st1" d="M71.0541306,55.6158867c2.770752,0.6212273,5.2261276,2.0790176,7.0869522,4.0941963l3.5329971-2.0361404
			l3.0137177,5.2232704l-3.5244217,2.0361443c0.4020844,1.2939072,0.6212311,2.6688004,0.6212311,4.0951462
			c0,1.4253922-0.2191467,2.800293-0.6212311,4.0913391l3.5272827,2.0361404l-3.0165787,5.2242279l-3.5301361-2.0370941
			c-1.8608246,2.0180359-4.3190613,3.4767761-7.0898132,4.0970535v4.0732346h-6.0341034v-4.0732346
			c-2.7707558-0.6202774-5.2261314-2.0818787-7.086956-4.0970535l-3.5301399,2.0370941l-3.0137177-5.2242279l3.5244217-2.0332794
			c-0.4020844-1.2939072-0.6212273-2.668808-0.6212273-4.0942001c0-1.4263458,0.2162857-2.8041,0.6212273-4.0980072
			l-3.5244217-2.0361404l3.0165787-5.2232704l3.5301361,2.0389977c1.8608284-2.0151787,4.313343-3.4729691,7.0840988-4.0941963
			v-4.0732384h6.0341034V55.6158867L71.0541306,55.6158867z M68.0404129,64.1101303
			c-2.7145386,0-4.9183731,2.2038345-4.9183731,4.9183731c0,2.7135849,2.2038345,4.9155121,4.9183731,4.9155121
			c2.7135849,0,4.9174194-2.2019272,4.9174194-4.9155121C72.9578323,66.3139648,70.7539978,64.1101303,68.0404129,64.1101303z"/>
		<path class="st4" d="M71.0539017,87.3708572h-6.0336914c-0.4736328,0-0.8574219-0.3837891-0.8574219-0.8574219v-3.4033203
			c-2.4072266-0.6591797-4.590332-1.921875-6.3803711-3.6894531l-2.9506836,1.703125
			c-0.1972656,0.1132812-0.4311523,0.1435547-0.6508789,0.0849609s-0.4072266-0.2021484-0.5205078-0.3994141l-3.0136719-5.2246094
			c-0.2368164-0.4101562-0.0961914-0.9345703,0.3139648-1.171875l2.9448242-1.6982422
			c-0.3125-1.203125-0.4707031-2.4394531-0.4707031-3.6865234c0-1.2558594,0.1577148-2.4931641,0.4702148-3.6904297
			l-2.9448242-1.7011681c-0.409668-0.2363281-0.550293-0.7607422-0.3134766-1.1708984l3.0166016-5.2236328
			c0.1137695-0.1972656,0.3012695-0.3408203,0.5209961-0.3994141c0.2182617-0.0595703,0.453125-0.0283203,0.6503906,0.0859375
			l2.9501953,1.7041016c1.7875977-1.7646484,3.9702148-3.0263672,6.3779297-3.6865234v-3.4033203
			c0-0.4736328,0.3837891-0.8574219,0.8574219-0.8574219h6.0336914c0.4736328,0,0.8574219,0.3837891,0.8574219,0.8574219v3.4033203
			c2.409668,0.6601562,4.59375,1.921875,6.3813477,3.6865234l2.953125-1.7021484
			c0.4101562-0.2353516,0.9350586-0.0947266,1.1708984,0.3144531l3.0136719,5.2236328
			c0.2368164,0.4101562,0.0961914,0.9345703-0.3134766,1.1708984l-2.9458008,1.7021446
			c0.3125,1.2021484,0.4707031,2.4384766,0.4707031,3.6865234s-0.1577148,2.484375-0.4702148,3.6835938l2.9477539,1.7021484
			c0.1967773,0.1132812,0.3408203,0.3007812,0.3994141,0.5205078c0.059082,0.2197266,0.0283203,0.453125-0.0854492,0.6503906
			l-3.0166016,5.2246094c-0.2363281,0.4101562-0.7587891,0.5498047-1.1713867,0.3144531l-2.9501953-1.703125
			c-1.7875977,1.7666016-3.972168,3.0292969-6.3837891,3.6894531v3.4033203
			C71.9113235,86.9870682,71.5275345,87.3708572,71.0539017,87.3708572z M65.8776321,85.6560135h4.3188477v-3.2158203
			c0-0.4013672,0.2783203-0.7490234,0.6699219-0.8369141c2.559082-0.5722656,4.8574219-1.9003906,6.6469727-3.8408203
			c0.2719727-0.2949219,0.7119141-0.3613281,1.059082-0.1621094l2.7875977,1.609375l2.1591797-3.7402344l-2.784668-1.6074219
			c-0.347168-0.2001953-0.5092773-0.6142578-0.3901367-0.9970703c0.3867188-1.2402344,0.5825195-2.53125,0.5825195-3.8369141
			s-0.1962891-2.5976562-0.5825195-3.8398438c-0.1191406-0.3828125,0.0429688-0.796875,0.3896484-0.9970703l2.7827148-1.6074181
			l-2.1572266-3.7392578l-2.7900391,1.6083984c-0.3457031,0.2001953-0.7856445,0.1328125-1.0581055-0.1611328
			c-1.7905273-1.9384766-4.0883789-3.265625-6.6450195-3.8388672c-0.3916016-0.0878906-0.6699219-0.4355469-0.6699219-0.8369141
			v-3.2158203h-4.3188477v3.2158203c0,0.4013672-0.2783203,0.7490234-0.6699219,0.8369141
			c-2.5546875,0.5722656-4.8510742,1.8994141-6.6420898,3.8388672c-0.2719727,0.2939453-0.7109375,0.3632812-1.0585938,0.1601562
			l-2.7875977-1.609375l-2.1586914,3.7382812l2.7822266,1.6074181c0.347168,0.2001953,0.5092773,0.6152344,0.3891602,0.9980469
			c-0.3862305,1.234375-0.5825195,2.5263672-0.5825195,3.8417969c0,1.3037109,0.1962891,2.5957031,0.5830078,3.8398438
			c0.1191406,0.3828125-0.0429688,0.796875-0.3901367,0.9980469l-2.7817383,1.6044922l2.1567383,3.7382812l2.7871094-1.6083984
			c0.3486328-0.1992188,0.7875977-0.1328125,1.0585938,0.1611328c1.7939453,1.9423828,4.0913086,3.2705078,6.6445312,3.8417969
			c0.3916016,0.0878906,0.6699219,0.4355469,0.6699219,0.8369141V85.6560135z M68.0402298,74.8015213
			c-3.1845703,0-5.7753906-2.5898438-5.7753906-5.7734375c0-3.1845703,2.5908203-5.7753868,5.7753906-5.7753868
			s5.7749023,2.5908165,5.7749023,5.7753868C73.8151321,72.2116776,71.2248001,74.8015213,68.0402298,74.8015213z
			 M68.0402298,64.9675369c-2.2387695,0-4.0605469,1.8212891-4.0605469,4.0605469
			c0,2.2382812,1.8217773,4.0585938,4.0605469,4.0585938s4.0600586-1.8203125,4.0600586-4.0585938
			C72.1002884,66.788826,70.2789993,64.9675369,68.0402298,64.9675369z"/>
	</g>
</g>
</svg>
