<?xml version="1.0" encoding="utf-8"?>
<!-- Generator: Adobe Illustrator 22.0.1, SVG Export Plug-In . SVG Version: 6.00 Build 0)  -->
<svg version="1.1" id="Слой_1" xmlns="http://www.w3.org/2000/svg" xmlns:xlink="http://www.w3.org/1999/xlink" x="0px" y="0px"
	 viewBox="0 0 40.1777344 40" style="enable-background:new 0 0 40.1777344 40;" xml:space="preserve">
<style type="text/css">
	.st0{fill-rule:evenodd;clip-rule:evenodd;fill:#E4E8D0;}
	.st1{fill-rule:evenodd;clip-rule:evenodd;fill:#464731;}
	.st2{fill-rule:evenodd;clip-rule:evenodd;fill:#FFFFFF;}
	.st3{fill:#464731;}
</style>
<g>
	<path class="st0" d="M20.0896931,40c11.0151711,0,19.9995556-8.983942,19.9995556-19.9995575
		C40.0892487,8.9852705,31.1048641,0,20.0896931,0S0.0892502,8.9852705,0.0892502,20.0004425
		C0.0892502,31.016058,9.0745201,40,20.0896931,40z"/>
</g>
<g>
	<path class="st1" d="M21.2181034,8.5212545c0.0765247-1.2624407,0.9567833-2.2594771,2.031229-2.2594771
		c1.0748901,0,1.9551468,0.9970365,2.0303459,2.2594771H21.2181034z"/>
</g>
<rect x="0.5001848" y="23.1224842" class="st0" width="10.4613619" height="1.5424427"/>
<path class="st2" d="M10.3670406,24.6649265c-0.1729555,2.7549-2.1816254,4.9290047-4.6366172,4.9290047
	c-2.4541073,0-4.4641042-2.1741047-4.6357327-4.9290047H10.3670406z"/>
<path class="st2" d="M2.7371025,15.989296h5.9875259c0.3724508,0,0.6781082,0.3047733,0.6781082,0.6807632v6.4537525H2.057667
	v-6.4537525C2.057667,16.2940693,2.3637669,15.989296,2.7371025,15.989296z"/>
<path class="st3" d="M10.9614258,22.6225567H9.902832V16.66992c0-0.6508789-0.5283203-1.1806641-1.1782227-1.1806641H2.7373047
	c-0.6503906,0-1.1796875,0.5297852-1.1796875,1.1806641v5.9526367H0.5c-0.2763672,0-0.5,0.2236328-0.5,0.5v1.5424805
	c0,0.2763672,0.2236328,0.5,0.5,0.5h0.1657104c0.3824463,2.7946777,2.5170898,4.9287109,5.0647583,4.9287109
	c2.5463257,0,4.6814575-2.133667,5.0654907-4.9287109h0.1654663c0.2763672,0,0.5-0.2236328,0.5-0.5v-1.5424805
	C11.4614258,22.8461895,11.237793,22.6225567,10.9614258,22.6225567z M2.5576172,16.66992
	c0-0.0996094,0.0805664-0.1806641,0.1796875-0.1806641h5.9873047c0.0981445,0,0.1782227,0.0810547,0.1782227,0.1806641v5.9526367
	H2.5576172V16.66992z M1,23.6225567h1.050354c0.0025635,0.000061,0.0046997,0.0014648,0.0072632,0.0014648H9.402832
	c0.0025635,0,0.0046997-0.0014038,0.0072632-0.0014648h1.0513306v0.5424805h-0.0942383H1.0947266H1V23.6225567z
	 M5.7304688,29.0937481c-2.0083008,0-3.7177734-1.6870117-4.0776367-3.9287109h8.1557617
	C9.4472656,27.4067364,7.7373047,29.0937481,5.7304688,29.0937481z"/>
<polygon class="st2" points="8.4587812,32.8840637 6.4850569,32.8840637 4.9766746,32.8840637 3.0029495,32.8840637 
	3.8066828,29.0750656 4.1716142,29.0750656 7.2901173,29.0750656 7.6537213,29.0750656 "/>
<path class="st3" d="M39.4072266,32.4345703h-3.8641968l-1.4297485-3.5463886
	c-0.1035156-0.2563477-0.3945312-0.3779297-0.6508789-0.2768555c-0.2558594,0.1035156-0.3798828,0.3945312-0.2768555,0.6508789
	l1.2789307,3.1723652H18.2384644l1.2781372-3.1723652c0.1030273-0.2563477-0.0209961-0.5473633-0.2768555-0.6508789
	c-0.2553711-0.1005859-0.546875,0.0209961-0.6508789,0.2768555l-1.428833,3.5463886H8.875061l-0.7319946-3.4628925
	c-0.0488281-0.230957-0.2529297-0.3964844-0.4892578-0.3964844h-3.847168c-0.2363281,0-0.4404297,0.1655273-0.4892578,0.3969727
	L2.586792,32.4345703H0.690918c-0.2763672,0-0.5,0.2236328-0.5,0.5s0.2236328,0.5,0.5,0.5h38.7163086
	c0.2763672,0,0.5-0.2236328,0.5-0.5S39.6835938,32.4345703,39.4072266,32.4345703z M3.6196289,32.3842773l0.5922852-2.8090839
	h3.0366211l0.59375,2.8090839H3.6196289z"/>
<rect x="13.0241814" y="21.9843426" class="st2" width="26.6536922" height="1.5406733"/>
<path class="st2" d="M38.6719894,23.5250149v3.3993893c0,2.185606-1.787941,3.9735489-3.9735489,3.9735489h-16.693943
	c-2.185606,0-3.9735479-1.7879429-3.9735479-3.9735489v-3.3993893H38.6719894z"/>
<path class="st3" d="M39.6777344,21.4843731h-12.78125V6.3544908c0-1.0556641-0.8579102-1.9145508-1.9125977-1.9145508h-0.2851562
	c-1.0551758,0-1.9140625,0.8588867-1.9140625,1.9145508c0,0.2763672,0.2236328,0.5,0.5,0.5c0.2763634,0,0.5-0.2236328,0.5-0.5
	c0-0.5043945,0.4101562-0.9145508,0.9140625-0.9145508h0.2851562c0.503418,0,0.9125977,0.4101562,0.9125977,0.9145508v15.1298828
	H13.0244141c-0.2763672,0-0.5,0.2236328-0.5,0.5v1.5405273c0,0.2763672,0.2236328,0.5,0.5,0.5h0.5063477v2.8994141
	c0,2.4667969,2.0068359,4.4736328,4.4736328,4.4736328h16.6938477c2.4667969,0,4.4736328-2.0068359,4.4736328-4.4736328v-2.8994141
	h0.5058594c0.2763672,0,0.5-0.2236328,0.5-0.5v-1.5405273C40.1777344,21.7080059,39.9541016,21.4843731,39.6777344,21.4843731z
	 M38.171875,26.9243145c0,1.9155273-1.5581055,3.4736328-3.4736328,3.4736328H18.0043945
	c-1.9155273,0-3.4736328-1.5581055-3.4736328-3.4736328v-2.8994141H38.171875V26.9243145z M39.1777344,23.0249004H38.671875
	H14.0307617h-0.5063477v-0.5405273h25.6533203V23.0249004z"/>
</svg>
