<?xml version="1.0" encoding="utf-8"?>
<!-- Generator: Adobe Illustrator 22.0.1, SVG Export Plug-In . SVG Version: 6.00 Build 0)  -->
<svg version="1.1" id="Слой_1" xmlns="http://www.w3.org/2000/svg" xmlns:xlink="http://www.w3.org/1999/xlink" x="0px" y="0px"
	 viewBox="0 0 40 40" style="enable-background:new 0 0 40 40;" xml:space="preserve">
<style type="text/css">
	.st0{fill-rule:evenodd;clip-rule:evenodd;fill:#E4E8D0;}
	.st1{fill-rule:evenodd;clip-rule:evenodd;fill:#FFFFFF;}
	.st2{fill-rule:evenodd;clip-rule:evenodd;fill:#464731;}
</style>
<path class="st0" d="M20.0006256,40C31.0167599,40,40,31.0167618,40,20.0006256C40,8.9849062,31.0167599,0,20.0006256,0
	S0,8.9849062,0,20.0006256C0,31.0167618,8.9844894,40,20.0006256,40z"/>
<rect x="2.2558098" y="4.9607816" class="st1" width="35.4858818" height="30.076355"/>
<path class="st2" d="M19.2352161,34.21381c0.3320808,0,0.601244,0.2695808,0.601244,0.5999947
	c0,0.3320808-0.2691631,0.6012459-0.601244,0.6012459H2.5228903c-0.3320799,0-0.6012437-0.269165-0.6012437-0.6012459V5.1874461
	c0-0.3316631,0.2691638-0.601244,0.6012437-0.601244h34.9554672c0.3308296,0,0.5999947,0.2695808,0.5999947,0.601244v29.626358
	c0,0.3320808-0.269165,0.6012459-0.5999947,0.6012459H25.4180679c-0.3316631,0-0.6008263-0.269165-0.6008263-0.6012459
	c0-0.3304138,0.2691631-0.5999947,0.6008263-0.5999947h11.4590492V5.7874398H3.122884V34.21381H19.2352161z"/>
<path class="st2" d="M15.6398373,34.8138046c0,0.3320808-0.2691641,0.6012459-0.601244,0.6012459
	c-0.3304129,0-0.5999937-0.269165-0.5999937-0.6012459V24.5172443c0-0.3308296,0.2695808-0.5999928,0.5999937-0.5999928
	c0.3320799,0,0.601244,0.2691631,0.601244,0.5999928V34.8138046L15.6398373,34.8138046z M15.6398373,15.3035908
	c0,0.3308296-0.2691641,0.5999937-0.601244,0.5999937c-0.3304129,0-0.5999937-0.2691641-0.5999937-0.5999937V5.1874461
	c0-0.3316631,0.2695808-0.601244,0.5999937-0.601244c0.3320799,0,0.601244,0.2695808,0.601244,0.601244V15.3035908z"/>
<path class="st2" d="M26.0180626,34.8138046c0,0.3320808-0.269165,0.6012459-0.5999947,0.6012459
	c-0.3316631,0-0.6008263-0.269165-0.6008263-0.6012459v-4.5516186c0-0.3320808,0.2691631-0.5999947,0.6008263-0.5999947
	c0.3308296,0,0.5999947,0.2679138,0.5999947,0.5999947V34.8138046L26.0180626,34.8138046z M31.0742588,14.3090181
	c0,0.3320799-0.2691631,0.5999937-0.6008263,0.5999937c-0.3308296,0-0.5999947-0.2679138-0.5999947-0.5999937V5.1874461
	c0-0.3316631,0.269165-0.601244,0.5999947-0.601244c0.3316631,0,0.6008263,0.2695808,0.6008263,0.601244V14.3090181z"/>
<path class="st2" d="M18.8927193,14.7023468c0.3316631,0,0.601244,0.2691641,0.601244,0.601244
	c0,0.3308296-0.2695808,0.5999937-0.601244,0.5999937h-7.7078362c-0.3308296,0-0.5999937-0.2691641-0.5999937-0.5999937
	c0-0.3320799,0.2691641-0.601244,0.5999937-0.601244H18.8927193z"/>
<path class="st2" d="M18.931469,23.9172516c0.3320808,0,0.601244,0.2691631,0.601244,0.5999928
	c0,0.331665-0.2691631,0.601244-0.601244,0.601244h-7.784502c-0.3316631,0-0.6008272-0.2695789-0.6008272-0.601244
	c0-0.3308296,0.2691641-0.5999928,0.6008272-0.5999928H18.931469z"/>
<path class="st2" d="M32.6513252,14.050271c0.3304138,0,0.5999947,0.2695799,0.5999947,0.601243
	c0,0.3308306-0.2695808,0.5999937-0.5999947,0.5999937h-4.4128685c-0.331665,0-0.6008282-0.2691631-0.6008282-0.5999937
	c0-0.3316631,0.2691631-0.601243,0.6008282-0.601243H32.6513252z"/>
</svg>
