<?xml version="1.0" encoding="utf-8"?>
<!-- Generator: Adobe Illustrator 22.0.1, SVG Export Plug-In . SVG Version: 6.00 Build 0)  -->
<svg version="1.1" id="Слой_1" xmlns="http://www.w3.org/2000/svg" xmlns:xlink="http://www.w3.org/1999/xlink" x="0px" y="0px"
	 viewBox="0 0 72 72.0004044" style="enable-background:new 0 0 72 72.0004044;" xml:space="preserve">
<style type="text/css">
	.st0{fill-rule:evenodd;clip-rule:evenodd;fill:#BCD031;}
	.st1{fill-rule:evenodd;clip-rule:evenodd;fill:#E4E8D0;}
	.st2{fill:#464731;}
	.st3{fill-rule:evenodd;clip-rule:evenodd;fill:#FFFFFF;}
</style>
<g>
	<g>
		<circle class="st0" cx="36" cy="36.0002518" r="36.0001259"/>
	</g>
	<g>
		<g>
			<polygon class="st1" points="9.8161631,64.6312485 9.8161631,32.6683502 30.9135628,11.570652 52.0104637,32.6692505 
				52.0104637,64.6312485 			"/>
			<path class="st2" d="M52.0101051,65.0060272H9.8162575c-0.2070312,0-0.375-0.1679688-0.375-0.375V32.6681366
				c0-0.0996094,0.0395508-0.1948242,0.1098633-0.2651367l21.097168-21.0976562
				c0.0703125-0.0703125,0.1655273-0.1098633,0.2651367-0.1098633l0,0c0.0996094,0,0.1948242,0.0395508,0.2651367,0.1098633
				l21.097168,21.0986328c0.0703125,0.0703125,0.109375,0.1655273,0.109375,0.2651367v31.9619141
				C52.3851051,64.8380585,52.2171364,65.0060272,52.0101051,65.0060272z M10.1912575,64.2560272h41.4438477V32.8243866
				L30.9134254,12.1007538L10.1912575,32.82341V64.2560272z"/>
		</g>
		<g>
			<path class="st2" d="M7.4339328,60.8776093c-0.2070312,0-0.375-0.1679688-0.375-0.375V48.2970428
				c0-0.2070312,0.1679688-0.375,0.375-0.375s0.375,0.1679688,0.375,0.375v12.2055664
				C7.8089328,60.7096405,7.640964,60.8776093,7.4339328,60.8776093z"/>
		</g>
		<g>
			<path class="st3" d="M54.7489624,18.0075512c2.7813988,0,5.1245003,1.8740005,5.8362999,4.4286003
				c0.5416985-0.229599,1.1366997-0.3563004,1.762001-0.3563004c1.9895973,0,3.6787987,1.2855015,4.282299,3.0716
				c0.2391968-0.0606995,0.4891968-0.0929985,0.7472-0.0929985c1.5894012,0,2.8927994,1.223999,3.0191956,2.7813988H53.6749611
				l-5.4898987-5.4902v-0.2474003c0.1501999-0.0147991,0.3022003-0.0223999,0.4561005-0.0223999
				c0.1273003,0,0.2530975,0.0051003,0.3775978,0.0156002C49.8365631,19.7174511,52.0929604,18.0075512,54.7489624,18.0075512z"/>
			<path class="st2" d="M70.3958435,28.2150116H53.6751442c-0.0996094,0-0.1953125-0.0395508-0.265625-0.1098633
				l-5.4902344-5.4902344c-0.0703125-0.0703125-0.109375-0.1655273-0.109375-0.2651367v-0.2475586
				c0-0.1928711,0.1464844-0.3544922,0.3388672-0.3730469c0.2021484-0.0205078,0.40625-0.0292969,0.6142578-0.0229492
				c0.9638672-2.4482422,3.3349609-4.0737305,5.9863281-4.0737305c2.7402344,0,5.1826172,1.7543945,6.0751953,4.3139648
				c0.4902344-0.1606445,1-0.2416992,1.5224609-0.2416992c1.9902306,0,3.7675743,1.1992188,4.520504,3.0166016
				c1.9238281-0.2861328,3.7470703,1.1665039,3.9023438,3.0883789c0.0078125,0.1044922-0.0273438,0.2075195-0.0986328,0.284668
				C70.6009216,28.1710663,70.5003357,28.2150116,70.3958435,28.2150116z M53.8304176,27.4650116h16.1269493
				c-0.2832031-1.1669922-1.3466797-2.0317383-2.5810547-2.0317383c-0.2197266,0-0.4404297,0.0273438-0.6552734,0.0820312
				c-0.1884766,0.0449219-0.3847656-0.0581055-0.4472656-0.2436523c-0.5693359-1.6850586-2.1474609-2.8168945-3.926754-2.8168945
				c-0.5595703,0-1.1035156,0.1098633-1.6152344,0.3266602c-0.0986328,0.0424805-0.2109375,0.0395508-0.3095703-0.0073242
				c-0.0966797-0.046875-0.1689453-0.1333008-0.1982422-0.2373047c-0.6816406-2.4458008-2.9326172-4.1542969-5.4746094-4.1542969
				c-2.4267578,0-4.5878906,1.5410156-5.3759766,3.8349609c-0.0546875,0.1616211-0.2226562,0.2685547-0.3847656,0.2514648
				c-0.0546875-0.0043945-0.109375-0.0078125-0.1640625-0.0102539L53.8304176,27.4650116z"/>
		</g>
		<g>
			<path class="st3" d="M14.4278631,9.9665518c2.7813005,0,5.1246996,1.8740005,5.8364992,4.4280005
				c0.3759003-0.1593008,0.778101-0.2690001,1.1979008-0.3212004v0.4549999l-5.2693005,5.2699003H3.9739633
				c-0.1125-0.3943005-0.1726-0.8106995-0.1726-1.2410011c0-2.4958992,2.0231001-4.5189991,4.5187006-4.5189991
				c0.1271992,0,0.2533998,0.0057001,0.3778,0.0158997C9.5153627,11.6758518,11.7720633,9.9665518,14.4278631,9.9665518z"/>
			<path class="st2" d="M16.1927223,20.1730194h-12.21875c-0.1674805,0-0.3149414-0.1113281-0.3608398-0.2724609
				c-0.1240234-0.4355469-0.1870117-0.8876953-0.1870117-1.3432617c-0.0004883-2.7392578,2.2583005-4.9663086,5.0161133-4.8925781
				c0.9638672-2.4482422,3.3339844-4.0732422,5.9858398-4.0732422c2.7407227,0,5.1826172,1.7543945,6.0756836,4.3134766
				c0.2954102-0.0966797,0.6010742-0.1650391,0.9121094-0.2036133c0.109375-0.0141602,0.2143555,0.0200195,0.2944336,0.0908203
				c0.0805664,0.0712891,0.1269531,0.1738281,0.1269531,0.28125v0.4550781c0,0.0996094-0.0395508,0.1948242-0.1098633,0.2651367
				l-5.2695312,5.2695312C16.3875465,20.1334686,16.2923317,20.1730194,16.1927223,20.1730194z M4.2669406,19.4230194h11.7705078
				l4.8515625-4.8520508c-0.1625977,0.0463867-0.3222656,0.1030273-0.4780273,0.1689453
				c-0.0991211,0.0424805-0.2119141,0.0395508-0.309082-0.0073242s-0.1694336-0.1333008-0.1987305-0.2373047
				c-0.6816406-2.4458008-2.9331055-4.1538086-5.4750977-4.1538086c-2.4267578,0-4.5869141,1.5410156-5.3754883,3.8349609
				c-0.0556641,0.1621094-0.2182617,0.2680664-0.3852539,0.2514648c-0.1142578-0.0092773-0.2304688-0.0146484-0.347168-0.0146484
				c-2.2851567,0-4.1440434,1.8588867-4.1440434,4.144043C4.1761203,18.8492889,4.2063937,19.139328,4.2669406,19.4230194z"/>
		</g>
		<g>
			<g>
				<path class="st2" d="M51.9202614,60.6446991H9.9061012c-0.2070312,0-0.375-0.1679688-0.375-0.375s0.1679688-0.375,0.375-0.375
					h42.0141602c0.2070312,0,0.375,0.1679688,0.375,0.375S52.1272926,60.6446991,51.9202614,60.6446991z"/>
			</g>
			<g>
				<path class="st2" d="M51.9202614,56.2203827H9.9061012c-0.2070312,0-0.375-0.1679688-0.375-0.375s0.1679688-0.375,0.375-0.375
					h42.0141602c0.2070312,0,0.375,0.1679688,0.375,0.375S52.1272926,56.2203827,51.9202614,56.2203827z"/>
			</g>
			<g>
				<path class="st2" d="M51.9202614,51.795578H9.9061012c-0.2070312,0-0.375-0.1679688-0.375-0.375s0.1679688-0.375,0.375-0.375
					h42.0141602c0.2070312,0,0.375,0.1679688,0.375,0.375S52.1272926,51.795578,51.9202614,51.795578z"/>
			</g>
			<g>
				<path class="st2" d="M51.9202614,47.3707733H9.9061012c-0.2070312,0-0.375-0.1679688-0.375-0.375s0.1679688-0.375,0.375-0.375
					h42.0141602c0.2070312,0,0.375,0.1679688,0.375,0.375S52.1272926,47.3707733,51.9202614,47.3707733z"/>
			</g>
			<g>
				<path class="st2" d="M51.9202614,42.9454803H9.9061012c-0.2070312,0-0.375-0.1679688-0.375-0.375s0.1679688-0.375,0.375-0.375
					h42.0141602c0.2070312,0,0.375,0.1679688,0.375,0.375S52.1272926,42.9454803,51.9202614,42.9454803z"/>
			</g>
			<g>
				<path class="st2" d="M51.9202614,38.5211639H9.9061012c-0.2070312,0-0.375-0.1679688-0.375-0.375s0.1679688-0.375,0.375-0.375
					h42.0141602c0.2070312,0,0.375,0.1679688,0.375,0.375S52.1272926,38.5211639,51.9202614,38.5211639z"/>
			</g>
			<g>
				<path class="st2" d="M51.9202614,34.0963593H9.9061012c-0.2070312,0-0.375-0.1679688-0.375-0.375s0.1679688-0.375,0.375-0.375
					h42.0141602c0.2070312,0,0.375,0.1679688,0.375,0.375S52.1272926,34.0963593,51.9202614,34.0963593z"/>
			</g>
			<g>
				<path class="st2" d="M48.6380348,29.6710663H13.1878395c-0.2070312,0-0.375-0.1679688-0.375-0.375s0.1679688-0.375,0.375-0.375
					h35.4501953c0.2070312,0,0.375,0.1679688,0.375,0.375S48.8450661,29.6710663,48.6380348,29.6710663z"/>
			</g>
			<g>
				<path class="st2" d="M44.2132301,25.2462616H17.6126442c-0.2070312,0-0.375-0.1679688-0.375-0.375s0.1679688-0.375,0.375-0.375
					h26.6005859c0.2070312,0,0.375,0.1679688,0.375,0.375S44.4202614,25.2462616,44.2132301,25.2462616z"/>
			</g>
			<g>
				<path class="st2" d="M39.7884254,20.8214569H22.0379372c-0.2070312,0-0.375-0.1679688-0.375-0.375s0.1679688-0.375,0.375-0.375
					h17.7504883c0.2070312,0,0.375,0.1679688,0.375,0.375S39.9954567,20.8214569,39.7884254,20.8214569z"/>
			</g>
			<g>
				<path class="st2" d="M35.3645973,16.3971405h-8.9018555c-0.2070312,0-0.375-0.1679688-0.375-0.375s0.1679688-0.375,0.375-0.375
					h8.9018555c0.2070312,0,0.375,0.1679688,0.375,0.375S35.5716286,16.3971405,35.3645973,16.3971405z"/>
			</g>
		</g>
		<g>
			<g>
				<path class="st3" d="M23.5120621,33.1281509c-0.0170002-0.2043991-0.0261002-0.4106979-0.0261002-0.6195984
					c0-4.1015015,3.3256016-7.4271011,7.427-7.4271011c4.1014996,0,7.4268017,3.3255997,7.4268017,7.4271011
					c0,0.2089005-0.0091019,0.4151993-0.0258026,0.6195984l0.0258026,6.9958992H23.4859619L23.5120621,33.1281509z"/>
				<path class="st2" d="M38.3401833,40.4991913H23.4861794c-0.0996094,0-0.1953125-0.0395508-0.265625-0.1103516
					s-0.1098633-0.1665039-0.109375-0.2661133l0.0258789-6.9799805c-0.0170898-0.2089844-0.0258789-0.4204102-0.0258789-0.6342773
					c0-4.3022461,3.5-7.8022461,7.8017578-7.8022461c4.3022461,0,7.8022461,3.5,7.8022461,7.8022461
					c0,0.2192383-0.0097656,0.4360352-0.0273438,0.6499023l0.0273438,6.9643555c0,0.0996094-0.0390625,0.1953125-0.109375,0.2661133
					S38.4397926,40.4991913,38.3401833,40.4991913z M23.8626442,39.7491913h14.1015625l-0.0253906-6.6196289
					c0.0166016-0.2260742,0.0263672-0.4223633,0.0263672-0.6210938c0-3.8886719-3.1635742-7.0522461-7.0522461-7.0522461
					c-3.8881836,0-7.0517578,3.1635742-7.0517578,7.0522461c0,0.1982422,0.0083008,0.3945312,0.0244141,0.5883789
					c0.0009766,0.0107422,0.0014648,0.0219727,0.0014648,0.0327148L23.8626442,39.7491913z"/>
			</g>
			<g>
				<path class="st2" d="M30.9129372,40.4991913c-0.2070312,0-0.375-0.1679688-0.375-0.375V25.0812225
					c0-0.2070312,0.1679688-0.375,0.375-0.375s0.375,0.1679688,0.375,0.375v15.0429688
					C31.2879372,40.3312225,31.1199684,40.4991913,30.9129372,40.4991913z"/>
			</g>
		</g>
		<g>
			<path class="st3" d="M5.5230632,36.9614525c-0.8962998,0.8963013-2.3504999,0.8963013-3.2467999,0
				s-0.8962998-2.350502,0-3.2467995L30.9135628,5.077352L59.5494614,33.714653
				c0.8963013,0.8962975,0.8963013,2.3504982,0,3.2467995s-2.3504982,0.8963013-3.2467995,0l-25.3890991-25.390501
				L5.5230632,36.9614525z"/>
			<path class="st2" d="M57.9261208,38.0084686c-0.7138672,0-1.3847656-0.2773438-1.8886719-0.7817383L30.9134254,12.1012421
				l-25.125,25.1254883l0,0c-1.0410156,1.0410156-2.7363279,1.0410156-3.7773435,0
				c-1.041504-1.0415039-1.041504-2.7358398,0-3.7773438l28.637207-28.637207c0.140625-0.140625,0.3896484-0.140625,0.5302734,0
				l28.6362305,28.637207c1.0410156,1.0415039,1.0410156,2.7358398,0,3.7773438
				C59.3099098,37.7311249,58.6390114,38.0084686,57.9261208,38.0084686z M30.9134254,11.1959686
				c0.0996094,0,0.1948242,0.0395508,0.2651367,0.1098633l25.3901367,25.390625
				c0.7226562,0.7236328,1.9873047,0.7250977,2.7158203,0c0.7480469-0.7490234,0.7480469-1.9677734-0.0009766-2.7167969
				L30.9134254,5.6075897L2.5413549,33.97966c-0.7490236,0.7490234-0.7490236,1.9677734,0,2.7167969
				c0.7495117,0.7485352,1.9682615,0.7475586,2.7167966,0l25.3901367-25.390625
				C30.7186012,11.2355194,30.8138161,11.1959686,30.9134254,11.1959686z M5.5232882,36.9615936h0.0092773H5.5232882z"/>
		</g>
		<g>
			<g>
				<g>
					<path class="st1" d="M40.3756638,62.3394508h0.0597992l-0.0597992,0.0023003V62.3394508L40.3756638,62.3394508z
						 M40.5533638,62.3394508l20.7095985-0.0002975c1.3558006-0.0003014,2.382,1.0261993,2.382,2.2920952
						c0,1.2660065-1.0261993,2.2921066-2.382,2.2918015l-20.7095985-0.0002975
						c1.2389984-0.0314026,2.2336998-1.0450974,2.2336998-2.2915039
						C42.7870636,63.3848534,41.7923622,62.3709526,40.5533638,62.3394508L40.5533638,62.3394508z M40.435463,66.9227524h-0.0597992
						v-0.0021973L40.435463,66.9227524z"/>
					<path class="st2" d="M61.2640114,67.2980194h-0.0009766l-20.7099609-0.0004883
						c-0.0205078,0-0.0400391-0.0014648-0.0585938-0.0043945c-0.0195312,0.0029297-0.0380859,0.0043945-0.0585938,0.0043945
						h-0.0605469c-0.2070312,0-0.375-0.1679688-0.375-0.375c0-0.1015625,0.0410156-0.199707,0.1142578-0.2705078
						s0.1630859-0.1137695,0.2724609-0.1064453c0.0283203,0.0009766,0.0556641,0.0048828,0.0820312,0.0112305
						c0.0234375-0.0053711,0.0488281-0.0083008,0.0742188-0.0092773c1.0478516-0.0263672,1.8691406-0.8681641,1.8691406-1.9165039
						c0-1.0307617-0.8378906-1.890625-1.8691406-1.9165039c-0.0166016-0.0004883-0.0332031-0.0019531-0.0488281-0.0043945
						c-0.0195312,0.0024414-0.0371094,0.0029297-0.0595703,0.0043945c-0.0986328,0-0.21875-0.0361328-0.2890625-0.1035156
						c-0.0732422-0.0703125-0.1455078-0.1669922-0.1455078-0.269043c0-0.2070312,0.1679688-0.3774414,0.375-0.3774414h0.0605469
						c0.0195312,0,0.0390625,0.0014648,0.0585938,0.0043945c0.0195312-0.0029297,0.0390625-0.0043945,0.0585938-0.0043945
						l20.7099609-0.0004883c1.5458984,0,2.7568321,1.1713867,2.7568321,2.6669922
						c0,0.71875-0.2822227,1.3896484-0.7958946,1.8896484C62.7093239,67.0221405,62.0130348,67.2980194,61.2640114,67.2980194z
						 M42.3587379,66.5475311l18.9042969,0.0004883h0.0009766c0.5527344,0,1.0625-0.2006836,1.4365234-0.5649414
						c0.3671875-0.3569336,0.5693359-0.8374023,0.5693359-1.3520508c0-1.0751953-0.8818359-1.9169922-2.0068359-1.9169922
						l-18.9042969,0.0004883c0.4980469,0.4833984,0.8037109,1.1616211,0.8037109,1.9165039
						S42.8567848,66.0641327,42.3587379,66.5475311z"/>
				</g>
				<g>
					<path class="st3" d="M40.4946632,66.9230499c1.2625999,0,2.2924004-1.0294952,2.2924004-2.292099
						c0-1.2625008-1.0298004-2.2922974-2.2924004-2.2922974c-1.2625008,0-2.292099,1.0297966-2.292099,2.2922974
						C38.2025642,65.8935547,39.2321625,66.9230499,40.4946632,66.9230499z"/>
					<path class="st2" d="M40.4944801,67.2980194c-1.4707031,0-2.6669922-1.1962891-2.6669922-2.6669922
						s1.1962891-2.6674805,2.6669922-2.6674805s2.6679688,1.1967773,2.6679688,2.6674805
						S41.9651833,67.2980194,40.4944801,67.2980194z M40.4944801,62.7135468c-1.0566406,0-1.9169922,0.8603516-1.9169922,1.9174805
						s0.8603516,1.9169922,1.9169922,1.9169922c1.0576172,0,1.9179688-0.8598633,1.9179688-1.9169922
						S41.5520973,62.7135468,40.4944801,62.7135468z"/>
				</g>
			</g>
			<g>
				<g>
					<path class="st1" d="M40.3756638,57.7552528h0.0597992l-0.0597992,0.0019989V57.7552528L40.3756638,57.7552528z
						 M40.5533638,57.7552528l20.7095985-0.0004997c1.3558006-0.0003014,2.382,1.0261002,2.382,2.2919998
						c0,1.2659988-1.0261993,2.292099-2.382,2.2919006l-20.7095985-0.0003014
						c1.2389984-0.0312004,2.2336998-1.0452003,2.2336998-2.2915993
						C42.7870636,58.8004532,41.7923622,57.7864532,40.5533638,57.7552528L40.5533638,57.7552528z M40.435463,62.3383522h-0.0597992
						v-0.0023003L40.435463,62.3383522z"/>
					<path class="st2" d="M61.2640114,62.7135468h-0.0009766H40.5530739c-0.0205078,0-0.0400391-0.0014648-0.0595703-0.0043945
						c-0.0185547,0.0029297-0.0371094,0.0043945-0.0576172,0.0043945h-0.0605469c-0.2070312,0-0.375-0.1679688-0.375-0.375
						c0-0.1020508,0.0419922-0.2011719,0.1152344-0.2714844c0.0742188-0.0703125,0.1699219-0.1152344,0.2744141-0.1054688
						c0.0273438,0.0009766,0.0537109,0.0048828,0.0800781,0.0112305c0.0234375-0.0053711,0.0478516-0.0083008,0.0732422-0.0092773
						c1.03125-0.0258789,1.8691406-0.8857422,1.8691406-1.9169922c0-1.0307617-0.8378906-1.890625-1.8691406-1.9165039
						c-0.0166016-0.0004883-0.0332031-0.0019531-0.0488281-0.0043945c-0.0195312,0.0019531-0.0371094,0.003418-0.0595703,0.0043945
						c-0.0986328,0-0.21875-0.0361328-0.2890625-0.1035156c-0.0732422-0.0703125-0.1455078-0.1669922-0.1455078-0.269043
						c0-0.2070312,0.1679688-0.3774414,0.375-0.3774414h0.0605469c0.0195312,0,0.0390625,0.0014648,0.0585938,0.0043945
						c0.0195312-0.0029297,0.0390625-0.0043945,0.0585938-0.0043945l20.7099609-0.0004883
						c1.5458984,0,2.7568321,1.1713867,2.7568321,2.6669922c0,0.71875-0.2822227,1.3896484-0.7958946,1.8896484
						C62.7093239,62.4376678,62.0130348,62.7135468,61.2640114,62.7135468z M42.3587379,61.9635468h18.9042969h0.0009766
						c0.5527344,0,1.0625-0.2006836,1.4365234-0.5649414c0.3671875-0.3569336,0.5693359-0.8374023,0.5693359-1.3520508
						c0-1.074707-0.8818359-1.9169922-2.0068359-1.9169922l-18.9042969,0.0004883
						c0.4980469,0.4833984,0.8037109,1.1616211,0.8037109,1.9165039
						C43.1624489,60.8019257,42.8567848,61.4801483,42.3587379,61.9635468z"/>
				</g>
				<g>
					<path class="st3" d="M40.4946632,62.3386536c1.2625999,0,2.2924004-1.0296021,2.2924004-2.2921028
						c0-1.2625999-1.0298004-2.2924004-2.2924004-2.2924004c-1.2625008,0-2.292099,1.0298004-2.292099,2.2924004
						C38.2025642,61.3090515,39.2321625,62.3386536,40.4946632,62.3386536z"/>
					<path class="st2" d="M40.4944801,62.7135468c-1.4707031,0-2.6669922-1.1962891-2.6669922-2.6669922
						s1.1962891-2.6674805,2.6669922-2.6674805s2.6679688,1.1967773,2.6679688,2.6674805
						S41.9651833,62.7135468,40.4944801,62.7135468z M40.4944801,58.1290741c-1.0566406,0-1.9169922,0.8603516-1.9169922,1.9174805
						s0.8603516,1.9169922,1.9169922,1.9169922c1.0576172,0,1.9179688-0.8598633,1.9179688-1.9169922
						S41.5520973,58.1290741,40.4944801,58.1290741z"/>
				</g>
			</g>
			<g>
				<g>
					<path class="st1" d="M40.3756638,53.1707535h0.0597992l-0.0597992,0.0019989V53.1707535L40.3756638,53.1707535z
						 M40.5533638,53.1707535l20.7095985-0.0002022c1.3558006-0.0005989,2.382,1.0257988,2.382,2.2918015
						c0,1.2658997-1.0261993,2.292099-2.382,2.2917976l-20.7095985-0.0002975
						c1.2389984-0.0312004,2.2336998-1.0451012,2.2336998-2.2915001
						C42.7870636,54.21595,41.7923622,53.2019501,40.5533638,53.1707535L40.5533638,53.1707535z M40.435463,57.7538528h-0.0597992
						v-0.0023003L40.435463,57.7538528z"/>
					<path class="st2" d="M61.2640114,58.1290741h-0.0009766H40.5530739c-0.0205078,0-0.0400391-0.0014648-0.0595703-0.0048828
						c-0.0185547,0.003418-0.0371094,0.0048828-0.0576172,0.0048828h-0.0605469c-0.2070312,0-0.375-0.1679688-0.375-0.375
						c0-0.1020508,0.0419922-0.2011719,0.1152344-0.2714844c0.0742188-0.0708008,0.1699219-0.1113281,0.2744141-0.1054688
						c0.0273438,0.0009766,0.0537109,0.0048828,0.0800781,0.0112305c0.0234375-0.0053711,0.0478516-0.0083008,0.0732422-0.0092773
						c1.03125-0.0258789,1.8691406-0.8857422,1.8691406-1.9165039c0-1.03125-0.8378906-1.8911133-1.8691406-1.9169922
						c-0.0166016-0.0004883-0.0332031-0.0019531-0.0488281-0.0043945c-0.0195312,0.0029297-0.0380859,0.0053711-0.0585938,0.0043945
						l0,0l0,0c-0.0996094,0-0.2207031-0.0366211-0.2910156-0.1044922c-0.0732422-0.0708008-0.1445312-0.1669922-0.1445312-0.2685547
						c0-0.2070312,0.1679688-0.3769531,0.375-0.3769531h0.0605469c0.0195312,0,0.0390625,0.0014648,0.0585938,0.0043945
						c0.0195312-0.0029297,0.0390625-0.0043945,0.0585938-0.0043945h20.7099609h0.0009766
						c0.7490234,0,1.4453125,0.2758789,1.9599609,0.7773438c0.5136719,0.5,0.7958946,1.1708984,0.7958946,1.8896484
						s-0.2822227,1.3896484-0.7958946,1.8891602C62.7093239,57.8531952,62.0130348,58.1290741,61.2640114,58.1290741z
						 M42.3587379,57.3790741h18.9042969h0.0009766c0.5527344,0,1.0625-0.2006836,1.4365234-0.5644531
						c0.3671875-0.3574219,0.5693359-0.8374023,0.5693359-1.3520508s-0.2021484-0.9951172-0.5693359-1.3520508
						c-0.3740234-0.3642578-0.8837891-0.5649414-1.4365234-0.5649414h-0.0009766H42.3587379
						c0.4980469,0.4833984,0.8037109,1.1616211,0.8037109,1.9169922
						C43.1624489,56.217453,42.8567848,56.8956757,42.3587379,57.3790741z"/>
				</g>
				<g>
					<path class="st3" d="M40.4946632,57.7541504c1.2625999,0,2.2924004-1.0295982,2.2924004-2.292099
						c0-1.2625999-1.0298004-2.2924004-2.2924004-2.2924004c-1.2625008,0-2.292099,1.0298004-2.292099,2.2924004
						C38.2025642,56.7245522,39.2321625,57.7541504,40.4946632,57.7541504z"/>
					<path class="st2" d="M40.4944801,58.1290741c-1.4707031,0-2.6669922-1.1962891-2.6669922-2.6669922
						s1.1962891-2.6674805,2.6669922-2.6674805s2.6679688,1.1967773,2.6679688,2.6674805
						S41.9651833,58.1290741,40.4944801,58.1290741z M40.4944801,53.5446014c-1.0566406,0-1.9169922,0.8603516-1.9169922,1.9174805
						s0.8603516,1.9169922,1.9169922,1.9169922c1.0576172,0,1.9179688-0.8598633,1.9179688-1.9169922
						S41.5520973,53.5446014,40.4944801,53.5446014z"/>
				</g>
			</g>
		</g>
	</g>
</g>
</svg>
