<?xml version="1.0" encoding="utf-8"?>
<!-- Generator: Adobe Illustrator 22.0.1, SVG Export Plug-In . SVG Version: 6.00 Build 0)  -->
<svg version="1.1" id="_x31_" xmlns="http://www.w3.org/2000/svg" xmlns:xlink="http://www.w3.org/1999/xlink" x="0px" y="0px"
	 viewBox="0 0 88 88" style="enable-background:new 0 0 88 88;" xml:space="preserve">
<style type="text/css">
	.st0{fill-rule:evenodd;clip-rule:evenodd;fill:#F8F9F4;}
	.st1{fill:#464731;}
	.st2{fill-rule:evenodd;clip-rule:evenodd;fill:#FFFFFF;}
	.st3{fill:#96B11F;}
	.st4{fill-rule:evenodd;clip-rule:evenodd;fill:#96B11F;}
</style>
<g>
	<circle class="st0" cx="44" cy="44" r="44"/>
</g>
<g>
	<g>
		<path class="st1" d="M81.237114,75.5560684H6.7546883c-0.4736328,0-0.8574219-0.3837891-0.8574219-0.8574219
			s0.3837891-0.8574219,0.8574219-0.8574219H81.237114c0.4736328,0,0.8574219,0.3837891,0.8574219,0.8574219
			S81.7107468,75.5560684,81.237114,75.5560684z"/>
	</g>
	<g>
		<path class="st2" d="M43.9971428,59.3060074c12.9020538,0,23.4249306-10.5247841,23.4249306-23.4277916
			c0-12.9020576-10.5228767-23.4239826-23.4249306-23.4239826S20.570303,22.9761581,20.570303,35.8782158
			C20.570303,48.7812233,31.0950871,59.3060074,43.9971428,59.3060074z"/>
		<path class="st3" d="M43.997364,60.1634903c-13.390625,0-24.284668-10.894043-24.284668-24.2851562
			c0-13.3891582,10.894043-24.2817383,24.284668-24.2817383c13.3891602,0,24.2822304,10.8925791,24.2822304,24.2817383
			C68.2795944,49.2694473,57.3865242,60.1634903,43.997364,60.1634903z M43.997364,13.3114405
			c-12.4448242,0-22.5698242,10.1235361-22.5698242,22.5668945c0,12.4453125,10.125,22.5703125,22.5698242,22.5703125
			c12.4438477,0,22.5673866-10.125,22.5673866-22.5703125C66.5647507,23.4349766,56.4412117,13.3114405,43.997364,13.3114405z"/>
	</g>
	<g>
		<path class="st4" d="M41.3664207,74.6634674c0.8804016-17.0429878,1.7474632-39.5332108,2.630722-56.6104965l1.1910172,28.799757
			l7.8006897-10.3799553l-7.5138931,15.8538742l-0.0028572-0.0019073l1.1557617,22.3387299H41.3664207z"/>
		<path class="st1" d="M46.6277351,75.5209122h-5.2612305c-0.2348633,0-0.4599609-0.0961914-0.621582-0.2670898
			c-0.1621094-0.1704102-0.2470703-0.3999023-0.2348633-0.6347656c0.4389648-8.4946289,0.8818359-18.5136719,1.3105469-28.203125
			c0.4311523-9.7548828,0.8774414-19.8413067,1.3203125-28.4072247c0.0234375-0.4560547,0.4003906-0.8129883,0.8564453-0.8129883
			c0.0014648,0,0.0029297,0,0.0043945,0c0.4580078,0.0024414,0.8334961,0.3642578,0.8525391,0.8217773l1.0913086,26.3999004
			l6.3579102-8.4599609c0.2651367-0.3520508,0.7529297-0.4462891,1.1289062-0.21875
			c0.3769531,0.2275391,0.5200195,0.7036133,0.331543,1.1010742l-7.4238281,15.6640625l1.144043,22.1152344
			c0.012207,0.2348633-0.0727539,0.4643555-0.234375,0.6347656C47.0876961,75.4247208,46.8630867,75.5209122,46.6277351,75.5209122z
			 M42.2693367,73.8060684h3.4555664l-1.109375-21.4370117c-0.0087891-0.1713867,0.0336914-0.3378906,0.1176758-0.4799805
			l3.8544922-8.1323242l-2.7138672,3.6113281c-0.2177734,0.2895508-0.5947266,0.4101562-0.9404297,0.3037109
			c-0.3457031-0.1074219-0.5869141-0.4213867-0.6020508-0.7832031L43.938282,37.38517
			c-0.1357422,3.0302734-0.2709961,6.0844727-0.4042969,9.1064453
			C43.1204109,55.8436661,42.6931648,65.5028458,42.2693367,73.8060684z"/>
	</g>
	<g>
		<path class="st4" d="M24.0461674,12.6047773c2.6250038,0.3487301,5.0994625,1.7503195,6.7354431,4.0894785
			c1.6340771,2.339159,2.1047649,5.145195,1.5292683,7.7301807c-2.6259575-0.3487301-5.0994625-1.7503204-6.7363968-4.0894794
			C23.9404049,17.9958,23.4706688,15.1897621,24.0461674,12.6047773z"/>
	</g>
	<g>
		<path class="st4" d="M14.6628551,26.9922695c2.1743221-1.5149746,4.9451046-2.1495476,7.7301807-1.5283127
			c2.7869816,0.6240921,5.0260944,2.3772697,6.3466949,4.6725998c-2.1743221,1.5149746-4.9451065,2.1495495-7.729229,1.5264072
			C18.2225685,31.041729,15.9834557,29.2885513,14.6628551,26.9922695z"/>
	</g>
</g>
</svg>
