<?xml version="1.0" encoding="utf-8"?>
<!-- Generator: Adobe Illustrator 22.0.1, SVG Export Plug-In . SVG Version: 6.00 Build 0)  -->
<svg version="1.1" id="Layer_1" xmlns="http://www.w3.org/2000/svg" xmlns:xlink="http://www.w3.org/1999/xlink" x="0px" y="0px"
	 viewBox="0 0 15 15" style="enable-background:new 0 0 15 15;" xml:space="preserve">
<style type="text/css">
	.st0{fill:#59AAE7;}
	.st1{fill:#FCFCFC;}
	.st2{fill:#D8D7DA;}
</style>
<circle class="st0" cx="7.5" cy="7.5" r="7.5"/>
<path class="st1" d="M4.824873,9.1154585l-2.4188085-1.209404c-0.066299-0.033164-0.0669436-0.1275296-0.0011134-0.1616015
	l9.1892872-4.7530956c0.0674992-0.0349219,0.1454296,0.0237596,0.1305466,0.0982912l-1.5821486,7.9106541
	c-0.0112791,0.0564556-0.07166,0.088213-0.1245995,0.0655375l-2.1501851-0.9214745
	c-0.0257521-0.0110455-0.0551953-0.009551-0.0797172,0.0040722l-2.7784863,1.5435934
	c-0.06041,0.0335445-0.1346774-0.010108-0.1346774-0.0792475V9.1965523C4.875,9.1621876,4.8556056,9.1308107,4.824873,9.1154585z"/>
<path class="st2" d="M5.8684568,9.9306746l-0.015029-2.4148836C5.8533397,7.5003219,5.8613381,7.4859667,5.8745213,7.47791
	l3.922823-2.3964257C9.8418169,5.0543261,9.88834,5.1132126,9.8516016,5.1501856L6.8662505,8.1567478
	C6.8629689,8.1600876,6.8601856,8.1638956,6.8581057,8.1680851L6.3474612,9.1893158L5.9516897,9.9506836
	C5.930449,9.9915533,5.8687501,9.9766989,5.8684568,9.9306746z"/>
</svg>
