<?xml version="1.0" encoding="utf-8"?>
<!-- Generator: Adobe Illustrator 22.0.1, SVG Export Plug-In . SVG Version: 6.00 Build 0)  -->
<svg version="1.1" id="Слой_1" xmlns="http://www.w3.org/2000/svg" xmlns:xlink="http://www.w3.org/1999/xlink" x="0px" y="0px"
	 viewBox="0 0 69.6 63.1" style="enable-background:new 0 0 69.6 63.1;" xml:space="preserve">
<style type="text/css">
	.st0{fill:#D67E33;}
	.st1{fill:none;stroke:#BC582C;stroke-width:2.0001;stroke-linecap:round;stroke-linejoin:round;stroke-miterlimit:22.9256;}
	.st2{fill:none;stroke:#BC582C;stroke-width:0.5669;stroke-miterlimit:22.9256;}
</style>
<g>
	<path class="st0" d="M8.6,1h4.5l1,5.3h0.3h2.1h0.3l1-5.3h3.3l1,5.3h0.3h2.1h0.3l1-5.3H29l1,5.3h0.3h2.1h0.3l1-5.3H37l1,5.3h0.3h2.1
		h0.3l1-5.3h3.4l1,5.3h0.3h2.1h0.3l1-5.3h3.3l1,5.3h0.3h2.3H57L58,1h3.8l6.8,6.8v49.4l-4.5,4.5l-2.9-3.6c-1.1,0-2.2,0-3.3,0l-0.8,4
		h-3.7l-0.8-4h-0.3h-2.1h-0.3l-0.8,4h-3.8l-0.8-4h-0.3h-2.1h-0.3l-0.8,4h-3.9l-0.8-4H36h-2.1h-0.3l-0.8,4H29l-0.8-4h-0.3h-2.1h-0.3
		l-0.8,4h-3.8l-0.8-4h-0.3h-2.1h-0.3l-0.8,4h-4.1l-0.8-4c-1.1,0-2.2,0-3.3,0l-2.8,3.5L1,57V8L8.6,1z"/>
	<path class="st1" d="M8.6,1h4.5l1,5.3h0.3h2.1h0.3l1-5.3h3.3l1,5.3h0.3h2.1h0.3l1-5.3H29l1,5.3h0.3h2.1h0.3l1-5.3H37l1,5.3h0.3h2.1
		h0.3l1-5.3h3.4l1,5.3h0.3h2.1h0.3l1-5.3h3.3l1,5.3h0.3h2.3H57L58,1h3.8l6.8,6.8v49.4l-4.5,4.5l-2.9-3.6c-1.1,0-2.2,0-3.3,0l-0.8,4
		h-3.7l-0.8-4h-0.3h-2.1h-0.3l-0.8,4h-3.8l-0.8-4h-0.3h-2.1h-0.3l-0.8,4h-3.9l-0.8-4H36h-2.1h-0.3l-0.8,4H29l-0.8-4h-0.3h-2.1h-0.3
		l-0.8,4h-3.8l-0.8-4h-0.3h-2.1h-0.3l-0.8,4h-4.1l-0.8-4c-1.1,0-2.2,0-3.3,0l-2.8,3.5L1,57V8L8.6,1z"/>
	<g>
		<line class="st2" x1="15.5" y1="6.4" x2="15.5" y2="62.2"/>
		<line class="st2" x1="41.9" y1="1" x2="41.9" y2="58.4"/>
		<line class="st2" x1="29.3" y1="2.4" x2="29.3" y2="62"/>
		<line class="st2" x1="55.5" y1="6.4" x2="55.5" y2="62.2"/>
	</g>
	<g>
		<path class="st2" d="M68.6,51.9c-6-5.2-9.8-12.8-9.8-21.4s3.8-16.2,9.8-21.4V51.9z"/>
		<path class="st2" d="M68.6,44.3c-2.9-3.8-4.6-8.6-4.6-13.8s1.7-9.9,4.6-13.8V44.3z"/>
		<path class="st2" d="M55.8,53.4c-1.8,0.5-3.7,0.8-5.7,0.8c-2.8,0-5.6-0.5-8.1-1.5 M42,11.7c2.5-1,5.2-1.5,8.1-1.5
			c2,0,3.9,0.3,5.7,0.8"/>
		<path class="st2" d="M55.8,45.8c-1.8,0.7-3.7,1.1-5.7,1.1c-3,0-5.7-0.9-8.1-2.4 M42,19.7c2.3-1.5,5.1-2.4,8.1-2.4
			c2,0,4,0.4,5.7,1.1"/>
		<path class="st2" d="M55.6,36.2c-1.3,1.8-3.4,3-5.7,3c-3.9,0-7-3.1-7-7s3.1-7,7-7c2.4,0,4.5,1.2,5.7,3"/>
		<path class="st2" d="M50.1,29.7c1.4,0,2.5,1.1,2.5,2.5s-1.1,2.5-2.5,2.5s-2.5-1.1-2.5-2.5S48.7,29.7,50.1,29.7z"/>
		<path class="st2" d="M15.5,49.6c-3.6,3.9-8.3,6.6-13.7,7.5l-0.3-0.3v-49l0.1-0.1c5.4,0.9,10.2,3.6,13.8,7.5"/>
		<path class="st2" d="M1.5,17.3C8.1,19,13,25.2,13,32.5S8.1,45.9,1.5,47.7V17.3z"/>
		<path class="st2" d="M1.5,24.5c2.9,1.4,4.9,4.5,4.9,8s-2,6.5-4.9,8V24.5z"/>
		<path class="st2" d="M15.5,21.5c2-0.7,4.1-1,6.3-1c2.7,0,5.2,0.5,7.5,1.5"/>
		<path class="st2" d="M29.3,49.4c-2.1,1.5-4.7,2.4-7.5,2.4c-2.3,0-4.4-0.6-6.3-1.6 M15.5,28.2c1.9-1,4-1.6,6.3-1.6
			c2.8,0,5.4,0.9,7.5,2.4"/>
		<path class="st2" d="M21.8,33.2c3.4,0,6.1,2.7,6.1,5.9S25.2,45,21.8,45c-3.4,0-6.1-2.7-6.1-5.9S18.4,33.2,21.8,33.2z"/>
		<path class="st2" d="M21.8,37.1c1.2,0,2.2,0.9,2.2,2.1s-1,2.1-2.2,2.1s-2.2-0.9-2.2-2.1S20.6,37.1,21.8,37.1z"/>
		<path class="st2" d="M15.5,12.7c2-0.5,3.9-0.7,6.3-0.7c2.4,0,5.2,0.3,7.6,1"/>
		<path class="st2" d="M41.9,48.7C35,44.8,30.3,37,30.3,28.1c0-9,4.7-16.7,11.7-20.6"/>
		<path class="st2" d="M37.3,26c0-4.7,1.8-8.9,4.7-12"/>
		<path class="st2" d="M41.8,56.1c-5.4-2.4-9.8-6.7-12.5-12.3"/>
	</g>
</g>
</svg>
