<?xml version="1.0" encoding="utf-8"?>
<!-- Generator: Adobe Illustrator 22.0.1, SVG Export Plug-In . SVG Version: 6.00 Build 0)  -->
<svg version="1.1" id="Слой_1" xmlns="http://www.w3.org/2000/svg" xmlns:xlink="http://www.w3.org/1999/xlink" x="0px" y="0px"
	 viewBox="0 0 10.909091 24" style="enable-background:new 0 0 10.909091 24;" xml:space="preserve">
<style type="text/css">
	.st0{fill-rule:evenodd;clip-rule:evenodd;fill:#BE835C;}
	.st1{fill:#F8D3A9;}
</style>
<rect class="st0" width="10.909091" height="24"/>
<path class="st1" d="M7.2953215,2.3536711C9.2771883,2.3779075,9.4874601,1.736306,9.5203524,1.373624
	C9.5607023,0.925182,9.3675423,0.4497736,9.152277,0H7.6142578c0.1928935,0.4083585,0.3596859,0.837824,0.322998,1.2411888
	c-0.0133166,0.1480157-0.0432129,0.6866788-1.0056152,0.67496C6.8406873,1.9150834,6.7524638,1.9096901,6.667769,1.901234
	C5.1556506,1.7506881,3.6122382,0.8966175,2.3709161,0h-1.490545c1.4830878,1.0494274,3.4616923,2.0924628,5.6626863,2.3106577
	C6.7836246,2.3344948,7.0367098,2.3505416,7.2953215,2.3536711z"/>
<path class="st1" d="M2.0015757,4.3758211C1.3065075,4.446866,0.6394709,4.547008,0,4.6695223v0.6259546
	c0.9030762-0.2235885,1.8624157-0.4007015,2.8731577-0.5040398C6.2032804,4.4509945,8.955389,4.0272551,10.909091,3.4301314
	V2.5988326C9.1169882,3.4393198,5.9824886,3.9688609,2.0015757,4.3758211z"/>
<path class="st1" d="M6.9458232,5.6588912C4.3230205,5.9270244,2.0094993,6.5236816,0,7.2274723v0.8266382
	c2.2052557-0.8775744,4.8318539-1.6743832,7.8174052-1.9796033c1.0819869-0.1105957,2.1099744-0.229115,3.0916858-0.3554244
	V5.1856799C9.6776896,5.3583317,8.3548031,5.5148702,6.9458232,5.6588912z"/>
<path class="st1" d="M0,12.2137337v0.8771086c2.8822799-1.2110929,6.660378-2.6529646,10.909091-3.366477V9.1755152
	C6.7015934,9.7563257,2.9895463,11.0154257,0,12.2137337z"/>
<path class="st1" d="M5.1672363,14.5656071C3.3150747,15.1866341,1.6194514,15.8479452,0,16.5202408v0.8922234
	c2.0106978-0.8595295,4.1065564-1.7152653,6.4552999-2.5049486c1.2843351-0.4317961,2.7770114-0.8844995,4.4537911-1.2792749
	v-0.6300163C8.7100945,13.4536581,6.7912154,14.0212183,5.1672363,14.5656071z"/>
<path class="st1" d="M2.9180353,20.5847168C2.0009766,20.8967285,1.0271884,21.2320442,0,21.5783463v0.851675
	c1.6271751-0.5336704,3.1430221-1.0576172,4.544611-1.5345573c1.8930445-0.6441994,4.0222616-1.3842773,6.36448-2.1182976
	v-0.8034668C7.9430485,18.8609943,5.2631836,19.786644,2.9180353,20.5847168z"/>
<path class="st1" d="M5.6610217,24H8.239213c0.8490105-0.2741928,1.7466936-0.5505142,2.669878-0.8234425v-0.7794304
	C9.0297632,22.9178143,7.2720838,23.4685955,5.6610217,24z"/>
</svg>
