<?xml version="1.0" encoding="utf-8"?>
<!-- Generator: Adobe Illustrator 22.0.1, SVG Export Plug-In . SVG Version: 6.00 Build 0)  -->
<svg version="1.1" id="_x31_" xmlns="http://www.w3.org/2000/svg" xmlns:xlink="http://www.w3.org/1999/xlink" x="0px" y="0px"
	 viewBox="0 0 88 88" style="enable-background:new 0 0 88 88;" xml:space="preserve">
<style type="text/css">
	.st0{fill-rule:evenodd;clip-rule:evenodd;fill:#F8F9F4;}
	.st1{fill:#464731;}
	.st2{fill-rule:evenodd;clip-rule:evenodd;fill:#E4E8D0;}
	.st3{fill-rule:evenodd;clip-rule:evenodd;fill:#96B11F;}
	.st4{fill-rule:evenodd;clip-rule:evenodd;fill:#FFFFFF;}
</style>
<g>
	<path class="st0" d="M44.0004768,87.999527C68.2352982,87.999527,88.000473,68.2345657,88.000473,44
		S68.2352982,0.0004753,44.0004768,0.0004753C19.764698,0.0004753-0.0004753,19.7654362-0.0004753,44
		S19.764698,87.999527,44.0004768,87.999527z"/>
</g>
<g>
	<g>
		<path class="st1" d="M83.8248444,74.9397964H4.1754279c-0.4736326,0-0.8574216-0.3837891-0.8574216-0.8574219
			s0.3837891-0.8574219,0.8574216-0.8574219h79.6494141c0.4736328,0,0.8574219,0.3837891,0.8574219,0.8574219
			S84.2984772,74.9397964,83.8248444,74.9397964z"/>
	</g>
	<g>
		<g>
			<g>
				<path class="st2" d="M53.8854446,43.435463c1.258667,0,2.2848473,1.0261688,2.2848473,2.2848244v4.5515442
					c0,1.2586517-1.0261803,2.2848244-2.2848473,2.2848244c-13.1621704,0-26.3443546,0.0781288-39.5141487,0.0781288
					c0.2534485-0.0057182,0.5021334-0.0323944,0.7422419-0.0781288h3.1519089c1.258667,0,2.2848492-1.0261726,2.2848492-2.2848244
					v-4.5515442c0-1.2395973-0.9937859-2.25243-2.2248211-2.2848244
					C30.1794319,43.435463,42.0305328,43.435463,53.8854446,43.435463z"/>
				<path class="st1" d="M14.3712292,53.4925308c-0.4697266,0-0.8520508-0.3779297-0.8574219-0.8476562
					s0.3681641-0.8564453,0.8374023-0.8671875c0.206543-0.0048828,0.4091797-0.0273438,0.6044922-0.0634766
					c0.0517578-0.0097656,0.1044922-0.0146484,0.1577148-0.0146484h3.1518555c0.7871094,0,1.4277344-0.640625,1.4277344-1.4277344
					v-4.5517578c0-0.7666016-0.6235352-1.4072266-1.3901367-1.4277344
					c-0.4692383-0.0117188-0.8413086-0.3989258-0.8349609-0.8681641s0.3881836-0.8461914,0.8574219-0.8461914h35.5600586
					c1.7324219,0,3.1425781,1.409668,3.1425781,3.1420898v4.5517578c0,1.7324219-1.4101562,3.1425781-3.1425781,3.1425781
					c-6.5791016,0-13.1635742,0.0195312-19.7485352,0.0390625C27.547987,53.4729996,20.9581432,53.4925308,14.3712292,53.4925308z
					 M21.0597057,44.2933121c0.222168,0.4296875,0.3481445,0.9150391,0.3481445,1.4267578v4.5517578
					c0,0.5429688-0.1381836,1.0537109-0.3813477,1.5c4.3676758-0.0078125,8.7368164-0.0205078,13.1049786-0.0332031
					c6.5869141-0.0195312,13.1728516-0.0390625,19.7539062-0.0390625c0.7871094,0,1.4277344-0.640625,1.4277344-1.4277344
					v-4.5517578c0-0.7871094-0.640625-1.4267578-1.4277344-1.4267578H21.0597057z"/>
			</g>
			<g>
				<path class="st2" d="M53.8854446,53.9877663c1.258667,0,2.2848473,1.0261688,2.2848473,2.2848244v4.5515404
					c0,1.2586555-1.0261803,2.2848244-2.2848473,2.2848244c-13.166935,0-26.3424492,0.0457344-39.5141487,0.0457344
					c0.181035-0.0057144,0.3620691-0.0190544,0.5373869-0.0457344h3.3567638c1.258667,0,2.2848492-1.0261688,2.2848492-2.2848244
					v-4.5515404c0-1.2586555-1.0261822-2.2848244-2.2848492-2.2848244h-3.3567638
					c-0.1753178-0.02668-0.3563519-0.04002-0.5373869-0.0457344C27.5429955,53.9420319,40.7185097,53.9877663,53.8854446,53.9877663
					z"/>
				<path class="st1" d="M14.3712292,64.0120621c-0.4682617,0-0.8496094-0.375-0.8574219-0.84375
					c-0.0073242-0.4677734,0.3618164-0.8554688,0.8295898-0.8710938c0.1459961-0.0039062,0.2919922-0.0136719,0.4331055-0.0361328
					c0.0439453-0.0068359,0.0878906-0.0097656,0.1323242-0.0097656h3.3564453c0.7871094,0,1.4277344-0.6396484,1.4277344-1.4267578
					v-4.5517578c0-0.7871094-0.640625-1.4277344-1.4277344-1.4277344h-3.3564453
					c-0.0424805,0-0.0854492-0.0029297-0.1274414-0.0097656c-0.1430664-0.0214844-0.2905273-0.03125-0.4379883-0.0361328
					c-0.4677734-0.015625-0.8369141-0.4033203-0.8295898-0.8710938c0.0078125-0.46875,0.3891602-0.84375,0.8574219-0.84375
					c6.5869141,0,13.1748047,0.0117188,19.7622051,0.0224609c6.5849609,0.0117188,13.1699219,0.0234375,19.7519531,0.0234375
					c1.7324219,0,3.1425781,1.4101562,3.1425781,3.1425781v4.5517578c0,1.7324219-1.4101562,3.1416016-3.1425781,3.1416016
					c-6.5820312,0-13.1669922,0.0117188-19.7519531,0.0234375C27.5460339,64.0003433,20.9581432,64.0120621,14.3712292,64.0120621z
					 M21.0426159,54.8030777c0.2329102,0.4384766,0.3652344,0.9394531,0.3652344,1.4697266v4.5517578
					c0,0.5302734-0.1318359,1.0302734-0.3652344,1.46875c4.362793-0.0039062,8.7255859-0.0117188,13.0878887-0.0195312
					c6.5859375-0.0107422,13.171875-0.0224609,19.7548828-0.0224609c0.7871094,0,1.4277344-0.6396484,1.4277344-1.4267578
					v-4.5517578c0-0.7871094-0.640625-1.4277344-1.4277344-1.4277344c-6.5830078,0-13.1689453-0.0117188-19.7548828-0.0224609
					C29.7682018,54.8147964,25.4049206,54.8069839,21.0426159,54.8030777z"/>
			</g>
			<g>
				<path class="st2" d="M53.8854446,64.4971924c1.258667,0,2.2848473,1.0261688,2.2848473,2.2848206v4.5505905
					c0,1.2586517-1.0261803,2.2848282-2.2848473,2.2848282c-13.166935,0-26.3424492,0.0438232-39.5141487,0.0438232
					c0.1753178-0.0057144,0.3477774-0.0190506,0.5183306-0.0438232h3.3758202c1.258667,0,2.2848492-1.0261765,2.2848492-2.2848282
					v-4.5505905c0-1.2586517-1.0261822-2.2848206-2.2848492-2.2848206h-3.3653393
					c-0.1724586-0.0247726-0.3506355-0.0381165-0.5288115-0.0438309
					C27.5429955,64.4533615,40.7185097,64.4971924,53.8854446,64.4971924z"/>
				<path class="st1" d="M14.3712292,74.518898c-0.4682617,0-0.8496094-0.375-0.8574219-0.8427734
					c-0.0078125-0.46875,0.3608398-0.8564453,0.8286133-0.8720703c0.144043-0.0048828,0.2856445-0.015625,0.4262695-0.0351562
					c0.0400391-0.0058594,0.0805664-0.0087891,0.1210938-0.0087891h3.3754883c0.7871094,0,1.4277344-0.640625,1.4277344-1.4277344
					v-4.5507812c0-0.7871094-0.640625-1.4267578-1.4277344-1.4267578h-3.3652344c-0.0419922,0-0.0834961-0.0029297-0.125-0.0087891
					c-0.140625-0.0205078-0.2866211-0.0302734-0.4321289-0.0351562c-0.4677734-0.015625-0.8369141-0.4033203-0.8291016-0.8710938
					c0.0078125-0.46875,0.3891602-0.84375,0.8574219-0.84375c6.5869141,0,13.1748047,0.0107422,19.7622051,0.0214844
					c6.5849609,0.0117188,13.1699219,0.0224609,19.7519531,0.0224609c1.7324219,0,3.1425781,1.4091797,3.1425781,3.1416016
					v4.5507812c0,1.7324219-1.4101562,3.1425781-3.1425781,3.1425781c-6.5820312,0-13.1669922,0.0107422-19.7519531,0.0224609
					C27.5460339,74.5081558,20.9581432,74.518898,14.3712292,74.518898z M21.0435925,65.3147964
					c0.2324219,0.4375,0.3642578,0.9375,0.3642578,1.4667969v4.5507812c0,0.5302734-0.1318359,1.0292969-0.3642578,1.4677734
					c4.3618164-0.0039062,8.7250977-0.0107422,13.0869122-0.0185547c6.5859375-0.0107422,13.171875-0.0214844,19.7548828-0.0214844
					c0.7871094,0,1.4277344-0.640625,1.4277344-1.4277344v-4.5507812c0-0.7871094-0.640625-1.4267578-1.4277344-1.4267578
					c-6.5830078,0-13.1689453-0.0107422-19.7548828-0.0214844C29.7686901,65.3255386,25.4058971,65.3187027,21.0435925,65.3147964z"
					/>
			</g>
			<g>
				<path class="st3" d="M13.7148066,43.435463h4.5506392c1.258667,0,2.2848492,1.0261688,2.2848492,2.2848244v4.5515442
					c0,1.2586517-1.0261822,2.2848244-2.2848492,2.2848244h-4.5506392c-1.2586679,0-2.2848482-1.0261726-2.2848482-2.2848244
					v-4.5515442C11.4299583,44.4616318,12.4561386,43.435463,13.7148066,43.435463z"/>
				<path class="st1" d="M18.2652721,53.4144058h-4.550293c-1.7329102,0-3.1425781-1.4101562-3.1425781-3.1425781v-4.5517578
					c0-1.7324219,1.409668-3.1420898,3.1425781-3.1420898h4.550293c1.7329102,0,3.1425781,1.409668,3.1425781,3.1420898v4.5517578
					C21.4078503,52.0042496,19.9981823,53.4144058,18.2652721,53.4144058z M13.7149792,44.2933121
					c-0.7871094,0-1.4277344,0.6396484-1.4277344,1.4267578v4.5517578c0,0.7871094,0.640625,1.4277344,1.4277344,1.4277344h4.550293
					c0.7871094,0,1.4277344-0.640625,1.4277344-1.4277344v-4.5517578c0-0.7871094-0.640625-1.4267578-1.4277344-1.4267578
					H13.7149792z"/>
			</g>
			<g>
				<path class="st3" d="M13.7148066,53.9877663h4.5506392c1.258667,0,2.2848492,1.0261688,2.2848492,2.2848244v4.5515404
					c0,1.2586555-1.0261822,2.2848244-2.2848492,2.2848244h-4.5506392c-1.2586679,0-2.2848482-1.0261688-2.2848482-2.2848244
					v-4.5515404C11.4299583,55.0139351,12.4561386,53.9877663,13.7148066,53.9877663z"/>
				<path class="st1" d="M18.2652721,63.9661636h-4.550293c-1.7329102,0-3.1425781-1.4091797-3.1425781-3.1416016v-4.5517578
					c0-1.7324219,1.409668-3.1425781,3.1425781-3.1425781h4.550293c1.7329102,0,3.1425781,1.4101562,3.1425781,3.1425781v4.5517578
					C21.4078503,62.5569839,19.9981823,63.9661636,18.2652721,63.9661636z M13.7149792,54.8450699
					c-0.7871094,0-1.4277344,0.640625-1.4277344,1.4277344v4.5517578c0,0.7871094,0.640625,1.4267578,1.4277344,1.4267578h4.550293
					c0.7871094,0,1.4277344-0.6396484,1.4277344-1.4267578v-4.5517578c0-0.7871094-0.640625-1.4277344-1.4277344-1.4277344
					H13.7149792z"/>
			</g>
			<g>
				<path class="st3" d="M13.7148066,64.4971924h4.5506392c1.258667,0,2.2848492,1.0261688,2.2848492,2.2848206v4.5505905
					c0,1.2586517-1.0261822,2.2848282-2.2848492,2.2848282h-4.5506392c-1.2586679,0-2.2848482-1.0261765-2.2848482-2.2848282
					v-4.5505905C11.4299583,65.5233612,12.4561386,64.4971924,13.7148066,64.4971924z"/>
				<path class="st1" d="M18.2652721,74.4749527h-4.550293c-1.7329102,0-3.1425781-1.4101562-3.1425781-3.1425781v-4.5507812
					c0-1.7324219,1.409668-3.1416016,3.1425781-3.1416016h4.550293c1.7329102,0,3.1425781,1.4091797,3.1425781,3.1416016v4.5507812
					C21.4078503,73.0647964,19.9981823,74.4749527,18.2652721,74.4749527z M13.7149792,65.3548355
					c-0.7871094,0-1.4277344,0.6396484-1.4277344,1.4267578v4.5507812c0,0.7871094,0.640625,1.4277344,1.4277344,1.4277344h4.550293
					c0.7871094,0,1.4277344-0.640625,1.4277344-1.4277344v-4.5507812c0-0.7871094-0.640625-1.4267578-1.4277344-1.4267578
					H13.7149792z"/>
			</g>
			<g>
				<path class="st2" d="M53.8854446,34.1284752c1.258667,0,2.2848473,1.0261726,2.2848473,2.2848244v4.5515442
					c0,1.2586555-1.0261803,2.2848244-2.2848473,2.2848244c-13.1621704,0-26.3443546,0.0781288-39.5141487,0.0781288
					c0.2534485-0.0057182,0.5021334-0.0323944,0.7422419-0.0781288h3.1519089c1.258667,0,2.2848492-1.0261688,2.2848492-2.2848244
					v-4.5515442c0-1.2395973-0.9937859-2.2524261-2.2248211-2.2848244
					C30.1794319,34.1284752,42.0305328,34.1284752,53.8854446,34.1284752z"/>
				<path class="st1" d="M14.3712292,44.1858902c-0.4697266,0-0.8520508-0.378418-0.8574219-0.8481445
					s0.3681641-0.8564453,0.8374023-0.8671875c0.2060547-0.0043945,0.4082031-0.0263672,0.6025391-0.0634766
					c0.0527344-0.0097656,0.105957-0.0146484,0.159668-0.0146484h3.1518555c0.7871094,0,1.4277344-0.640625,1.4277344-1.4277344
					v-4.5512695c0-0.7670898-0.6240234-1.4077148-1.390625-1.4277344c-0.46875-0.0126953-0.8408203-0.3999023-0.8344727-0.8686523
					c0.0063477-0.4692383,0.3881836-0.8461914,0.8574219-0.8461914h35.5600586c1.7324219,0,3.1425781,1.409668,3.1425781,3.1425781
					v4.5512695c0,1.7329102-1.4101562,3.1425781-3.1425781,3.1425781c-6.5791016,0-13.1635742,0.0195312-19.7485352,0.0390625
					C27.547987,44.1658707,20.9581432,44.1858902,14.3712292,44.1858902z M21.0592175,34.9856949
					c0.2226562,0.4301758,0.3486328,0.9160156,0.3486328,1.4277344v4.5512695c0,0.5429688-0.1381836,1.0537109-0.3813477,1.5
					c4.3676758-0.0073242,8.7368164-0.0205078,13.1049786-0.0332031c6.5869141-0.0195312,13.1728516-0.0390625,19.7539062-0.0390625
					c0.7871094,0,1.4277344-0.640625,1.4277344-1.4277344v-4.5512695c0-0.7871094-0.640625-1.4277344-1.4277344-1.4277344
					H21.0592175z"/>
			</g>
			<g>
				<path class="st3" d="M13.7148066,34.1284752h4.5506392c1.258667,0,2.2848492,1.0261726,2.2848492,2.2848244v4.5515442
					c0,1.2586555-1.0261822,2.2848244-2.2848492,2.2848244h-4.5506392c-1.2586679,0-2.2848482-1.0261688-2.2848482-2.2848244
					v-4.5515442C11.4299583,35.1546478,12.4561386,34.1284752,13.7148066,34.1284752z"/>
				<path class="st1" d="M18.2652721,44.1072769h-4.550293c-1.7329102,0-3.1425781-1.409668-3.1425781-3.1425781v-4.5512695
					c0-1.7329102,1.409668-3.1425781,3.1425781-3.1425781h4.550293c1.7329102,0,3.1425781,1.409668,3.1425781,3.1425781v4.5512695
					C21.4078503,42.6976089,19.9981823,44.1072769,18.2652721,44.1072769z M13.7149792,34.9856949
					c-0.7871094,0-1.4277344,0.640625-1.4277344,1.4277344v4.5512695c0,0.7871094,0.640625,1.4277344,1.4277344,1.4277344h4.550293
					c0.7871094,0,1.4277344-0.640625,1.4277344-1.4277344v-4.5512695c0-0.7871094-0.640625-1.4277344-1.4277344-1.4277344
					H13.7149792z"/>
			</g>
		</g>
		<g>
			<g>
				<path class="st2" d="M74.2823334,43.435463c1.258667,0,2.2848511,1.0261688,2.2848511,2.2848244v4.5515442
					c0,1.2586517-1.0261841,2.2848244-2.2848511,2.2848244c-13.1612167,0-26.3443527,0.0781288-39.5141487,0.0781288
					c0.2544022-0.0057182,0.5021324-0.0323944,0.7431946-0.0781288h3.1519089c1.258667,0,2.2848473-1.0261726,2.2848473-2.2848244
					v-4.5515442c0-1.2395973-0.993782-2.25243-2.2257729-2.2848244C50.5763206,43.435463,62.4283752,43.435463,74.2823334,43.435463
					z"/>
				<path class="st1" d="M34.7681999,53.4925308c-0.4697266,0-0.8520508-0.3779297-0.8574219-0.8476562
					s0.3681641-0.8564453,0.8378906-0.8671875c0.2070312-0.0048828,0.4091797-0.0273438,0.6054688-0.0634766
					c0.0522461-0.0097656,0.1044922-0.0146484,0.1572266-0.0146484h3.1518555c0.7871094,0,1.4277344-0.640625,1.4277344-1.4277344
					v-4.5517578c0-0.7666016-0.6240234-1.4072266-1.3911133-1.4277344
					c-0.4692383-0.0117188-0.8413086-0.3989258-0.8349609-0.8681641s0.3881836-0.8461914,0.8574219-0.8461914h35.5595741
					c1.7324219,0,3.1425781,1.409668,3.1425781,3.1420898v4.5517578c0,1.7324219-1.4101562,3.1425781-3.1425781,3.1425781
					c-6.5791016,0-13.1630898,0.0195312-19.7480507,0.0390625C47.9449577,53.4729996,41.355114,53.4925308,34.7681999,53.4925308z
					 M41.4571648,44.2933121c0.2226562,0.4296875,0.3486328,0.9150391,0.3486328,1.4267578v4.5517578
					c0,0.5429688-0.1381836,1.0537109-0.3813477,1.5c4.3681641-0.0078125,8.7363281-0.0205078,13.1044922-0.0332031
					c6.5869141-0.0195312,13.1728554-0.0390625,19.7529335-0.0390625c0.7871094,0,1.4277344-0.640625,1.4277344-1.4277344
					v-4.5517578c0-0.7871094-0.640625-1.4267578-1.4277344-1.4267578H41.4571648z"/>
			</g>
			<g>
				<path class="st2" d="M74.2823334,53.9877663c1.258667,0,2.2848511,1.0261688,2.2848511,2.2848244v4.5515404
					c0,1.2586555-1.0261841,2.2848244-2.2848511,2.2848244c-13.166935,0-26.3414955,0.0457344-39.5141487,0.0457344
					c0.1810341-0.0057144,0.3620682-0.0190544,0.5373878-0.0457344h3.3577156c1.258667,0,2.2848473-1.0261688,2.2848473-2.2848244
					v-4.5515404c0-1.2586555-1.0261803-2.2848244-2.2848473-2.2848244h-3.3577156
					c-0.1753197-0.02668-0.3563538-0.04002-0.5373878-0.0457344C47.9408379,53.9420319,61.1153984,53.9877663,74.2823334,53.9877663
					z"/>
				<path class="st1" d="M34.7681999,64.0120621c-0.4682617,0-0.8496094-0.375-0.8574219-0.84375
					c-0.0073242-0.4677734,0.3618164-0.8554688,0.8295898-0.8710938c0.1459961-0.0039062,0.2919922-0.0136719,0.4335938-0.0361328
					c0.043457-0.0068359,0.0878906-0.0097656,0.1318359-0.0097656h3.3574219c0.7871094,0,1.4277344-0.6396484,1.4277344-1.4267578
					v-4.5517578c0-0.7871094-0.640625-1.4277344-1.4277344-1.4277344h-3.3574219
					c-0.0424805,0-0.0849609-0.0029297-0.1274414-0.0097656c-0.1430664-0.0214844-0.2900391-0.03125-0.4379883-0.0361328
					c-0.4677734-0.015625-0.8369141-0.4033203-0.8295898-0.8710938c0.0078125-0.46875,0.3891602-0.84375,0.8574219-0.84375
					c6.5878906,0,13.1757812,0.0117188,19.7636719,0.0224609c6.5849609,0.0117188,13.1679726,0.0234375,19.7500038,0.0234375
					c1.7324219,0,3.1425781,1.4101562,3.1425781,3.1425781v4.5517578c0,1.7324219-1.4101562,3.1416016-3.1425781,3.1416016
					c-6.5820312,0-13.1650429,0.0117188-19.7500038,0.0234375C47.9439812,64.0003433,41.3560905,64.0120621,34.7681999,64.0120621z
					 M41.4405632,54.8030777c0.2329102,0.4384766,0.3652344,0.9394531,0.3652344,1.4697266v4.5517578
					c0,0.5302734-0.1318359,1.0302734-0.3652344,1.46875c4.362793-0.0039062,8.7250977-0.0117188,13.0883789-0.0195312
					c6.5849609-0.0107422,13.1699257-0.0224609,19.7529335-0.0224609c0.7871094,0,1.4277344-0.6396484,1.4277344-1.4267578
					v-4.5517578c0-0.7871094-0.640625-1.4277344-1.4277344-1.4277344c-6.5830078,0-13.1679726-0.0117188-19.7529335-0.0224609
					C50.1656609,54.8147964,45.8033562,54.8069839,41.4405632,54.8030777z"/>
			</g>
			<g>
				<path class="st2" d="M74.2823334,64.4971924c1.258667,0,2.2848511,1.0261688,2.2848511,2.2848206v4.5505905
					c0,1.2586517-1.0261841,2.2848282-2.2848511,2.2848282c-13.166935,0-26.3414955,0.0438232-39.5141487,0.0438232
					c0.1753197-0.0057144,0.348732-0.0190506,0.5183296-0.0438232h3.3767738c1.258667,0,2.2848473-1.0261765,2.2848473-2.2848282
					v-4.5505905c0-1.2586517-1.0261803-2.2848206-2.2848473-2.2848206h-3.3653374
					c-0.1734123-0.0247726-0.3515892-0.0381165-0.5297661-0.0438309
					C47.9408379,64.4533615,61.1153984,64.4971924,74.2823334,64.4971924z"/>
				<path class="st1" d="M34.7681999,74.518898c-0.4677734,0-0.8496094-0.375-0.8574219-0.8427734
					c-0.0078125-0.46875,0.3608398-0.8564453,0.8286133-0.8720703c0.144043-0.0048828,0.2861328-0.015625,0.425293-0.0351562
					c0.0405273-0.0058594,0.0810547-0.0087891,0.1220703-0.0087891h3.3764648c0.7871094,0,1.4277344-0.640625,1.4277344-1.4277344
					v-4.5507812c0-0.7871094-0.640625-1.4267578-1.4277344-1.4267578h-3.3652344
					c-0.0415039,0-0.0830078-0.0029297-0.1245117-0.0087891c-0.1416016-0.0205078-0.2875977-0.0302734-0.4335938-0.0351562
					c-0.4677734-0.015625-0.8369141-0.4033203-0.8291016-0.8710938c0.0078125-0.46875,0.3891602-0.84375,0.8574219-0.84375
					c6.5878906,0,13.1757812,0.0107422,19.7636719,0.0214844c6.5839844,0.0117188,13.1679726,0.0224609,19.7500038,0.0224609
					c1.7324219,0,3.1425781,1.4091797,3.1425781,3.1416016v4.5507812c0,1.7324219-1.4101562,3.1425781-3.1425781,3.1425781
					c-6.5820312,0-13.1660194,0.0107422-19.7500038,0.0224609C47.9439812,74.5081558,41.3560905,74.518898,34.7681999,74.518898z
					 M41.4415398,65.3147964c0.2324219,0.4375,0.3642578,0.9375,0.3642578,1.4667969v4.5507812
					c0,0.5302734-0.1318359,1.0292969-0.3642578,1.4677734c4.362793-0.0039062,8.7250977-0.0107422,13.0874023-0.0185547
					c6.5859375-0.0107422,13.1699257-0.0214844,19.7529335-0.0214844c0.7871094,0,1.4277344-0.640625,1.4277344-1.4277344
					v-4.5507812c0-0.7871094-0.640625-1.4267578-1.4277344-1.4267578c-6.5830078,0-13.166996-0.0107422-19.7529335-0.0214844
					C50.1666374,65.3255386,45.8043327,65.3187027,41.4415398,65.3147964z"/>
			</g>
			<g>
				<path class="st4" d="M34.1116943,43.435463h4.5515938c1.258667,0,2.2848473,1.0261688,2.2848473,2.2848244v4.5515442
					c0,1.2586517-1.0261803,2.2848244-2.2848473,2.2848244h-4.5515938c-1.258667,0-2.2848473-1.0261726-2.2848473-2.2848244
					v-4.5515442C31.8268471,44.4616318,32.8530273,43.435463,34.1116943,43.435463z"/>
				<path class="st1" d="M38.6632195,53.4144058h-4.5517578c-1.7324219,0-3.1420879-1.4101562-3.1420879-3.1425781v-4.5517578
					c0-1.7324219,1.4096661-3.1420898,3.1420879-3.1420898h4.5517578c1.7329102,0,3.1425781,1.409668,3.1425781,3.1420898v4.5517578
					C41.8057976,52.0042496,40.3961296,53.4144058,38.6632195,53.4144058z M34.1114616,44.2933121
					c-0.7871094,0-1.4272461,0.6396484-1.4272461,1.4267578v4.5517578c0,0.7871094,0.6401367,1.4277344,1.4272461,1.4277344
					h4.5517578c0.7871094,0,1.4277344-0.640625,1.4277344-1.4277344v-4.5517578c0-0.7871094-0.640625-1.4267578-1.4277344-1.4267578
					H34.1114616z"/>
			</g>
			<g>
				<path class="st4" d="M34.1116943,53.9877663h4.5515938c1.258667,0,2.2848473,1.0261688,2.2848473,2.2848244v4.5515404
					c0,1.2586555-1.0261803,2.2848244-2.2848473,2.2848244h-4.5515938c-1.258667,0-2.2848473-1.0261688-2.2848473-2.2848244
					v-4.5515404C31.8268471,55.0139351,32.8530273,53.9877663,34.1116943,53.9877663z"/>
				<path class="st1" d="M38.6632195,63.9661636h-4.5517578c-1.7324219,0-3.1420879-1.4091797-3.1420879-3.1416016v-4.5517578
					c0-1.7324219,1.4096661-3.1425781,3.1420879-3.1425781h4.5517578c1.7329102,0,3.1425781,1.4101562,3.1425781,3.1425781
					v4.5517578C41.8057976,62.5569839,40.3961296,63.9661636,38.6632195,63.9661636z M34.1114616,54.8450699
					c-0.7871094,0-1.4272461,0.640625-1.4272461,1.4277344v4.5517578c0,0.7871094,0.6401367,1.4267578,1.4272461,1.4267578
					h4.5517578c0.7871094,0,1.4277344-0.6396484,1.4277344-1.4267578v-4.5517578
					c0-0.7871094-0.640625-1.4277344-1.4277344-1.4277344H34.1114616z"/>
			</g>
			<g>
				<path class="st4" d="M34.1116943,64.4971924h4.5515938c1.258667,0,2.2848473,1.0261688,2.2848473,2.2848206v4.5505905
					c0,1.2586517-1.0261803,2.2848282-2.2848473,2.2848282h-4.5515938c-1.258667,0-2.2848473-1.0261765-2.2848473-2.2848282
					v-4.5505905C31.8268471,65.5233612,32.8530273,64.4971924,34.1116943,64.4971924z"/>
				<path class="st1" d="M38.6632195,74.4749527h-4.5517578c-1.7324219,0-3.1420879-1.4101562-3.1420879-3.1425781v-4.5507812
					c0-1.7324219,1.4096661-3.1416016,3.1420879-3.1416016h4.5517578c1.7329102,0,3.1425781,1.4091797,3.1425781,3.1416016
					v4.5507812C41.8057976,73.0647964,40.3961296,74.4749527,38.6632195,74.4749527z M34.1114616,65.3548355
					c-0.7871094,0-1.4272461,0.6396484-1.4272461,1.4267578v4.5507812c0,0.7871094,0.6401367,1.4277344,1.4272461,1.4277344
					h4.5517578c0.7871094,0,1.4277344-0.640625,1.4277344-1.4277344v-4.5507812c0-0.7871094-0.640625-1.4267578-1.4277344-1.4267578
					H34.1114616z"/>
			</g>
		</g>
	</g>
	<g>
		<path class="st4" d="M62.6036949,18.9493599c0.6479111,0.1162415,1.2805824,0.2810764,1.8875237,0.4916477l2.5287704-4.3781338
			l1.7903366,6.6848717l-0.1915131,0.0514507c0.4964142,0.4211388,0.9613876,0.8803902,1.3882446,1.3720379l4.3800888-2.5306473
			l-1.7903366,6.6848717l-0.1886597-0.0514526c0.2181931,0.6078892,0.3887482,1.2367401,0.5154724,1.8798828h5.0565872
			l-4.8917465,4.8936005l-0.1400681-0.1400642c-0.1162415,0.6479073-0.2839355,1.2796173-0.4945068,1.8875046l4.3810349,2.5277901
			l-6.6849442,1.7912712L70.098526,39.921524c-0.4211426,0.497364-0.880394,0.9623299-1.3720474,1.3882332l2.5306702,4.3809929
			l-6.6849442-1.7903175l0.0514526-0.1896095c-0.6078949,0.2191467-1.2367516,0.389698-1.8798981,0.5135612v5.0584373
			l-4.8936539-4.8907433l0.1400642-0.1410141c-0.6479149-0.1162415-1.2796288-0.2801247-1.8875275-0.4916458l-2.527813,4.3781319
			l-1.7912903-6.683918l0.1924667-0.0514526c-0.4973679-0.4211388-0.9623413-0.8803902-1.3882484-1.372036l-4.3810387,2.5306473
			l1.7903366-6.6848717l0.1896095,0.0514526c-0.2191467-0.6078911-0.3897018-1.2367401-0.5164261-1.8798828h-5.0556297
			l4.8907928-4.8936005l0.1410179,0.1400623c0.1162415-0.6479073,0.2829857-1.2805691,0.493557-1.8875046l-4.380085-2.5287418
			l6.6839905-1.7903175l0.0514526,0.1915131c0.4211426-0.4964104,0.8803978-0.9613781,1.3720512-1.3882351l-2.530674-4.3800392
			l6.6849442,1.7903194l-0.0514526,0.1886539c0.6078949-0.2181911,1.2367516-0.3887444,1.8799019-0.5126076v-5.0593882
			l4.8936539,4.8916941L62.6036949,18.9493599L62.6036949,18.9493599z M60.2969322,29.0833817
			c-1.3882523,0-2.517334,1.1290722-2.517334,2.5173073c0,1.3882332,1.1290817,2.5173073,2.517334,2.5173073
			c1.3882484,0,2.517334-1.1290741,2.517334-2.5173073C62.8142662,30.2124538,61.6851807,29.0833817,60.2969322,29.0833817z"/>
		<path class="st1" d="M63.6012077,51.3519058l-6.3876953-6.3837891c-0.2412109-0.0556641-0.4785156-0.1162109-0.7128906-0.1835938
			l-3.2177734,5.5742188l-2.3388672-8.7265625c-0.1796875-0.1669922-0.3544922-0.3388672-0.5244141-0.5151367l-5.5771484,3.222168
			l2.3369141-8.7250977c-0.0712891-0.2324219-0.1367188-0.46875-0.1962891-0.7089844h-6.4379883l6.3852539-6.38867
			c0.0546875-0.2387695,0.1162109-0.4765625,0.1845703-0.7119141l-5.5766602-3.2192383l8.7280273-2.3378906
			c0.1669922-0.1791992,0.3388672-0.3540039,0.5146484-0.5239258l-3.2226562-5.5771484l8.7236328,2.3369141
			c0.2333984-0.0712891,0.4707031-0.1367188,0.7109375-0.1958008v-6.4394541l6.3867188,6.3847666
			c0.2402344,0.0546875,0.4785156,0.1157227,0.7128944,0.1831055l3.2207031-5.5742197l2.3369141,8.7280283
			c0.1796875,0.1669922,0.3544922,0.3388672,0.5244141,0.5146484l5.5771484-3.2226562l-2.3369141,8.7236328
			c0.0712891,0.2324219,0.1367188,0.4697266,0.1962891,0.7109375h6.4384766l-6.3847656,6.38867
			c-0.0556641,0.2382812-0.1171875,0.4760742-0.1855469,0.7119141l5.5771484,3.2177734l-8.7285156,2.3398438
			c-0.1669922,0.1787109-0.3388672,0.3535156-0.5146484,0.5229492l3.2226562,5.5776367l-8.7246094-2.3369141
			c-0.2333984,0.0712891-0.4697304,0.1367188-0.7099648,0.1953125V51.3519058z M59.0611687,44.3899918l2.8251953,2.8232422V43.51548
			l0.6953125-0.1337891c0.6054688-0.1162109,1.1943359-0.2768555,1.7509804-0.4775391l1.5537109-0.5605469l-0.2597656,0.9511719
			l3.8525391,1.0317383l-1.8496094-3.2011719l0.5351562-0.4633789c0.4560547-0.3950195,0.8867188-0.8305664,1.2792969-1.2944336
			l1.0576172-1.2485352l0.2539062,0.9453125l3.8574219-1.0336914l-3.2011719-1.847168l0.2314453-0.6699219
			c0.1992188-0.5722656,0.3544922-1.1640625,0.4619141-1.7587891l0.2919922-1.6157227l0.6923828,0.6948242l2.8212891-2.822752
			H72.218399l-0.1357422-0.6914062c-0.1220703-0.6147461-0.2841797-1.2055664-0.4814453-1.7553711l-0.5595703-1.5551758
			l0.9492188,0.2612305l1.0322266-3.8510742l-3.1982422,1.8481445l-0.4638672-0.5332031
			c-0.3974609-0.4570312-0.8339844-0.8881836-1.296875-1.2817383l-1.2470703-1.0585938l0.9433594-0.2524414l-1.0332031-3.8574219
			l-1.8486328,3.1992188L64.20961,20.2508335c-0.5625038-0.1948242-1.1533241-0.3491211-1.7568398-0.4570312l-1.6123047-0.2895508
			l0.6914062-0.6938477L58.707653,15.987649v3.6972666l-0.6953125,0.1337891
			c-0.6044922,0.1166992-1.1943359,0.2773438-1.7519531,0.4780273l-1.5546875,0.5581055l0.2607422-0.9487305l-3.8515625-1.03125
			l1.8496094,3.1992188l-0.5341797,0.4638672c-0.4570312,0.3964844-0.8876953,0.8320312-1.2802734,1.2954102l-1.0556641,1.2441406
			L49.839489,24.137064l-3.8574219,1.0332031l3.2011719,1.8481445l-0.2333984,0.6699219
			c-0.1982422,0.5717773-0.3535156,1.1625977-0.4599609,1.7568359l-0.2890625,1.6123047l-0.6943359-0.6918945l-2.8227539,2.8247051
			h3.6928711l0.1357422,0.6923828c0.1191406,0.6103516,0.28125,1.2001953,0.4814453,1.753418l0.5605469,1.5517578
			l-0.9521484-0.2587891l-1.03125,3.8535156l3.2011719-1.8491211l0.4638672,0.5351562
			c0.3945312,0.4560547,0.8300781,0.8862305,1.2939453,1.2788086l1.2539062,1.0605469l-0.9492188,0.2529297l1.0322266,3.8544922
			l1.8476562-3.1982422l0.6689453,0.2324219c0.5585938,0.1943359,1.1503906,0.3481445,1.7587891,0.4580078l1.6064453,0.2895508
			L59.0611687,44.3899918z M60.2965202,34.975441c-1.8603516,0-3.3740234-1.5136719-3.3740234-3.3745098
			c0-1.8608398,1.5136719-3.375,3.3740234-3.375c1.8613281,0,3.375,1.5141602,3.375,3.375
			C63.6715202,33.4617691,62.1578484,34.975441,60.2965202,34.975441z M60.2965202,29.9407749
			c-0.9150391,0-1.6591797,0.7446289-1.6591797,1.6601562c0,0.9150372,0.7441406,1.6596661,1.6591797,1.6596661
			s1.6601562-0.7446289,1.6601562-1.6596661C61.9566765,30.6854038,61.2115593,29.9407749,60.2965202,29.9407749z"/>
	</g>
</g>
</svg>
