<?xml version="1.0" encoding="utf-8"?>
<!-- Generator: Adobe Illustrator 22.0.1, SVG Export Plug-In . SVG Version: 6.00 Build 0)  -->
<svg version="1.1" id="Слой_1" xmlns="http://www.w3.org/2000/svg" xmlns:xlink="http://www.w3.org/1999/xlink" x="0px" y="0px"
	 viewBox="0 0 58 58.0003242" style="enable-background:new 0 0 58 58.0003242;" xml:space="preserve">
<style type="text/css">
	.st0{fill-rule:evenodd;clip-rule:evenodd;fill:#BCD031;}
	.st1{fill-rule:evenodd;clip-rule:evenodd;fill:#E4E8D0;}
	.st2{fill:#464731;}
	.st3{fill-rule:evenodd;clip-rule:evenodd;fill:#FFFFFF;}
	.st4{fill-rule:evenodd;clip-rule:evenodd;fill:#96B11F;}
</style>
<g>
	<circle class="st0" cx="29" cy="29.0001221" r="29.000061"/>
</g>
<g>
	<path class="st1" d="M53.8944855,13.3630219v27.3753166H9.0348997c-0.5385132,0-0.8829651,0-1.4083085,0
		c-1.9449105,0-3.5214872-1.5764389-3.5214872-3.5214882c0-0.1814346,0.0137839-0.3591881,0.0402589-0.5332565v-0.0004082
		c0.257247-1.6912804,1.7177553-2.987751,3.4812284-2.987751c0.1086988,0,0.216033,0.0055923,0.3226166,0.0152817v-0.8075638
		V16.6962471v-3.3332253H53.8944855z"/>
	<path class="st2" d="M53.8945618,40.9940109H7.6266689c-2.0827923,0-3.7774298-1.6942215-3.7774298-3.7774315
		c0-0.1915779,0.0145767-0.3839874,0.0433135-0.5714035c0.2777889-1.8274918,1.883301-3.2051926,3.7341163-3.2051926
		c0.0220733,0,0.0445628,0,0.0666361,0.0008354V13.3633814c0-0.1416016,0.114531-0.2557154,0.2557158-0.2557154h45.9455414
		c0.1416016,0,0.2557182,0.1141138,0.2557182,0.2557154v27.3749161
		C54.15028,40.8798981,54.0361633,40.9940109,53.8945618,40.9940109z M7.6266689,33.951416
		c-1.6000977,0-2.9882092,1.1911201-3.2285156,2.7703934C4.3735814,36.8834,4.3606706,37.0491562,4.3606706,37.2165794
		c0,1.8008385,1.4651599,3.2659988,3.2659984,3.2659988h46.0121765V13.6190968H8.2047367v20.0915966
		c0,0.0716324-0.0304031,0.14077-0.0832949,0.1890793c-0.0533094,0.0483093-0.1232767,0.0724678-0.1965766,0.0658035
		C7.8265772,33.9564133,7.7274561,33.951416,7.6266689,33.951416z"/>
</g>
<g>
	<path class="st3" d="M7.9492078,16.6962471v16.2069054v0.8075638c-0.1065836-0.0096893-0.2139177-0.0152817-0.3226166-0.0152817
		c-1.763473,0-3.2243905,1.2964706-3.4812284,2.9881592L4.105104,36.6913033V13.3630219h0.0040941
		c-0.002934-0.0573177-0.0040941-0.1149082-0.0040941-0.1731129c0-1.944911,1.5765767-3.5214872,3.5214872-3.5214872
		c0.1086988,0,0.216033,0.0053902,0.3226166,0.0150795V16.6962471z"/>
	<path class="st2" d="M4.1382728,36.9400406c-0.0633039,0-0.1316061-0.0183258-0.1765852-0.0558052
		c-0.058723-0.0491447-0.1124485-0.1174469-0.1124485-0.1932449v-23.32761c0-0.0116615,0.000833-0.0233231,0.0020826-0.0349836
		c-0.0016661-0.0458126-0.0020826-0.0916252-0.0020826-0.1382704c0-2.083209,1.6946375-3.7774296,3.7774298-3.7774296
		c0.1166134,0,0.2323933,0.0049973,0.3465075,0.0158262c0.1311898,0.0124941,0.2315602,0.1224432,0.2315602,0.2548828v24.0272865
		c0,0.0716324-0.0304031,0.14077-0.0832949,0.1890793c-0.0533094,0.0483093-0.1232767,0.0724678-0.1965766,0.0658035
		c-0.0982881-0.0091629-0.1974092-0.0141602-0.2981963-0.0141602c-1.6005139,0-2.9886255,1.1911201-3.2285156,2.7703934
		c-0.0162425,0.1074486-0.0991211,0.1932449-0.2061548,0.2132339C4.1749229,36.9383774,4.1570144,36.9400406,4.1382728,36.9400406z
		 M4.3606706,13.409194v21.9149246c0.6730242-1.1494751,1.9386921-1.9032936,3.3326344-1.8841362V9.924962
		c-1.8354058-0.0674686-3.3326344,1.4418373-3.3326344,3.2651653c0,0.054142,0.0012498,0.1074505,0.0041647,0.1599264
		C4.3656683,13.3700447,4.364419,13.3900356,4.3606706,13.409194z"/>
</g>
<g>
	<g>
		<rect x="14.9360237" y="43.3692856" class="st3" width="37.9998932" height="4.963026"/>
		<path class="st2" d="M52.9358368,48.5880203H14.9358082c-0.1416016,0-0.2557154-0.1141167-0.2557154-0.2557182v-4.9627151
			c0-0.1416016,0.1141138-0.2557182,0.2557154-0.2557182h38.0000305c0.1416016,0,0.2557144,0.1141167,0.2557144,0.2557182v4.9627151
			C53.1915512,48.4739037,53.0774384,48.5880203,52.9358368,48.5880203z M15.1915245,48.0765877h37.4885979v-4.4512863H15.1915245
			V48.0765877z"/>
	</g>
	<g>
		<g>
			<path class="st2" d="M21.2645664,46.1066589c-0.1416016,0-0.2557163-0.1141129-0.2557163-0.2557144v-2.4813576
				c0-0.1416016,0.1141148-0.2557182,0.2557163-0.2557182s0.2557144,0.1141167,0.2557144,0.2557182v2.4813576
				C21.5202808,45.9925461,21.406168,46.1066589,21.2645664,46.1066589z"/>
		</g>
		<g>
			<path class="st2" d="M27.5491753,46.1066589c-0.1416016,0-0.2557144-0.1141129-0.2557144-0.2557144v-2.4813576
				c0-0.1416016,0.1141129-0.2557182,0.2557144-0.2557182s0.2557163,0.1141167,0.2557163,0.2557182v2.4813576
				C27.8048916,45.9925461,27.6907768,46.1066589,27.5491753,46.1066589z"/>
		</g>
		<g>
			<path class="st2" d="M33.6971817,46.1066589c-0.1416016,0-0.2557144-0.1141129-0.2557144-0.2557144v-2.4813576
				c0-0.1416016,0.1141129-0.2557182,0.2557144-0.2557182s0.2557182,0.1141167,0.2557182,0.2557182v2.4813576
				C33.9528999,45.9925461,33.8387833,46.1066589,33.6971817,46.1066589z"/>
		</g>
		<g>
			<path class="st2" d="M39.9817924,46.1066589c-0.1416016,0-0.2557144-0.1141129-0.2557144-0.2557144v-2.4813576
				c0-0.1416016,0.1141129-0.2557182,0.2557144-0.2557182s0.2557182,0.1141167,0.2557182,0.2557182v2.4813576
				C40.2375107,45.9925461,40.123394,46.1066589,39.9817924,46.1066589z"/>
		</g>
		<g>
			<path class="st2" d="M46.607914,46.1066589c-0.1416016,0-0.2557182-0.1141129-0.2557182-0.2557144v-2.4813576
				c0-0.1416016,0.1141167-0.2557182,0.2557182-0.2557182s0.2557144,0.1141167,0.2557144,0.2557182v2.4813576
				C46.8636284,45.9925461,46.7495155,46.1066589,46.607914,46.1066589z"/>
		</g>
	</g>
</g>
<g>
	<path class="st2" d="M6.9615583,28.340662c-0.1411853,0-0.2557158-0.1141148-0.2557158-0.2557163V10.9153404
		c0-0.1416016,0.1145306-0.2557163,0.2557158-0.2557163c0.1411848,0,0.2557158,0.1141148,0.2557158,0.2557163v17.1696053
		C7.2172742,28.2265472,7.1027431,28.340662,6.9615583,28.340662z"/>
</g>
<g>
	<path class="st2" d="M46.9460907,34.7077332H14.3868942c-0.1416016,0-0.2557154-0.1141129-0.2557154-0.2557144
		s0.1141138-0.2557144,0.2557154-0.2557144h32.5591965c0.1416016,0,0.2557144,0.1141129,0.2557144,0.2557144
		S47.0876923,34.7077332,46.9460907,34.7077332z"/>
</g>
<g>
	<path class="st2" d="M46.9460907,36.7542953H14.3868942c-0.1416016,0-0.2557154-0.1141167-0.2557154-0.2557182
		s0.1141138-0.2557144,0.2557154-0.2557144h32.5591965c0.1416016,0,0.2557144,0.1141129,0.2557144,0.2557144
		S47.0876923,36.7542953,46.9460907,36.7542953z"/>
</g>
<g>
	<g>
		<path class="st3" d="M12.0496025,15.9482517h7.6738091c0,0.1346283,0.0514507,0.2692566,0.154213,0.3719501
			c0.205183,0.2052517,0.5384445,0.2052517,0.7439003,0l0.3719501-0.3719501h1.8734684v13.1794434H12.0496025V15.9482517
			L12.0496025,15.9482517z M35.1398125,15.9482517h1.7222595l0.3719482,0.3719501
			c0.2053871,0.2052517,0.5385132,0.2052517,0.7439003,0c0.1026955-0.1026936,0.1539421-0.2373219,0.1539421-0.3719501h7.8254929
			v13.1794434h-10.817543V15.9482517z"/>
		<path class="st2" d="M45.9573784,29.3835163h-10.817524c-0.1416016,0-0.2557182-0.1141148-0.2557182-0.2557163V15.9480267
			c0-0.1416016,0.1141167-0.2557163,0.2557182-0.2557163h1.722538c0.0683022,0,0.1332741,0.0266542,0.1807518,0.0749655
			l0.3714943,0.3723288c0.1066208,0.1049519,0.2773743,0.1049519,0.3823242,0
			c0.0508118-0.0508099,0.0791321-0.119112,0.0791321-0.1915779c0-0.0674696,0.0266533-0.1332722,0.0749664-0.1807508
			c0.0474777-0.0483112,0.1132812-0.0749655,0.180748-0.0749655h7.8255692c0.1416016,0,0.2557182,0.1141148,0.2557182,0.2557163
			V29.1278C46.2130966,29.2694016,46.0989799,29.3835163,45.9573784,29.3835163z M35.3955688,28.8720837H45.701664V16.203743
			h-7.356617c-0.0383186,0.1116142-0.1016197,0.2132339-0.1874161,0.2981949c-0.3031921,0.303194-0.799633,0.303194-1.1044922,0
			l-0.2965279-0.2981949h-1.361042V28.8720837z M22.8671627,29.3835163H12.0496359
			c-0.1416016,0-0.2557163-0.1141148-0.2557163-0.2557163V15.9480267c0-0.1416016,0.1141148-0.2557163,0.2557163-0.2557163
			h7.6739721c0.1416016,0,0.2557144,0.1141148,0.2557144,0.2557163c0,0.0724659,0.0283203,0.1407681,0.0791302,0.1915779
			c0.1049519,0.1049519,0.2773724,0.1057854,0.3823242-0.0008335l0.3723297-0.3714952
			c0.0474777-0.0483112,0.1132812-0.0749655,0.1807499-0.0749655h1.8733063c0.1416016,0,0.2557144,0.1141148,0.2557144,0.2557163
			V29.1278C23.1228771,29.2694016,23.0087643,29.3835163,22.8671627,29.3835163z M12.3053513,28.8720837h10.3060951V16.203743
			h-1.5118046l-0.2973633,0.2973633c-0.3048611,0.3048592-0.8021317,0.3048592-1.1053257,0
			c-0.0857944-0.0849609-0.1482658-0.1865826-0.1865807-0.2973633h-7.2050209V28.8720837z"/>
	</g>
	<g>
		<path class="st4" d="M10.025403,15.9482517h9.6980085c0-0.1346283,0.0514507-0.269393,0.154213-0.3719501l8.6780949-8.6783009
			c0.205389-0.2053881,0.5386505-0.2053881,0.7439022,0l8.678299,8.6783009
			c0.1026955,0.1025572,0.1539421,0.2373219,0.1539421,0.3719501h9.8496933L37.9577942,5.8552966
			c-5.969635,0-11.9389935,0-17.9086266,0L10.025403,15.9482517L10.025403,15.9482517z M35.1398125,14.2260618l1.7222595,1.7221899
			h-1.7222595V14.2260618z"/>
		<path class="st2" d="M47.9814491,16.203743h-9.8496399c-0.0674667,0-0.1332703-0.0266552-0.180748-0.0749664
			c-0.0483131-0.0474777-0.0749664-0.1132812-0.0749664-0.1807499c0-0.0724669-0.0283203-0.1399364-0.0782967-0.1899128
			L29.118454,7.0787706c-0.0508099-0.0508099-0.1182785-0.0791302-0.1907444-0.0791302l0,0
			c-0.0724678,0-0.1399364,0.0283203-0.1915798,0.0791302l-8.6776772,8.6785097
			c-0.0508099,0.0508099-0.0791302,0.119112-0.0791302,0.1907463c0,0.1416016-0.1141129,0.2557163-0.2557144,0.2557163h-9.6980419
			c-0.1032858,0-0.1965761-0.0616398-0.236558-0.1574287c-0.0391483-0.0949564-0.0174913-0.2049055,0.0549746-0.2782049
			L19.8677082,5.6752496c0.0483112-0.0491443,0.1132812-0.0757985,0.1815834-0.0757985h17.9084339
			c0.0682983,0,0.1332703,0.0266542,0.1815796,0.0757985l10.0237274,10.0928593
			c0.072464,0.0732994,0.0941238,0.1832485,0.0549736,0.2782049C48.1780243,16.1421032,48.0847359,16.203743,47.9814491,16.203743z
			 M38.345047,15.6923103h9.0216827l-9.515625-9.5814285H20.1559086l-9.515625,9.5814285h8.8700886
			c0.0383148-0.1107826,0.1016197-0.2115688,0.1865807-0.2965298L28.37463,6.7172704
			c0.1474323-0.1482654,0.3440075-0.2290611,0.5530796-0.2290611c0,0,0,0,0.0008316,0
			c0.2082386,0,0.4048138,0.0816288,0.5522461,0.2290611l8.6776791,8.6785107
			C38.2434273,15.479908,38.3067284,15.5815277,38.345047,15.6923103z M36.8623924,16.203743h-1.722538
			c-0.1416016,0-0.2557182-0.1141148-0.2557182-0.2557163v-1.7217083c0-0.1032867,0.0624733-0.1965771,0.1574287-0.236558
			c0.0949554-0.0408154,0.2049065-0.0183249,0.2790375,0.0558071l1.7225418,1.7217083
			c0.0732994,0.0733004,0.0949554,0.1832495,0.055809,0.2790384C37.0589714,16.1412716,36.9656792,16.203743,36.8623924,16.203743z
			 M35.3955688,15.6923103h0.8487778l-0.8487778-0.8487759V15.6923103z"/>
	</g>
	<g>
		<g>
			<path class="st2" d="M45.9573784,25.2687416h-10.817524c-0.1416016,0-0.2557182-0.1141148-0.2557182-0.2557163
				s0.1141167-0.2557163,0.2557182-0.2557163h10.817524c0.1416016,0,0.2557182,0.1141148,0.2557182,0.2557163
				S46.0989799,25.2687416,45.9573784,25.2687416z M22.8671627,25.2687416H12.0737915
				c-0.1416016,0-0.2557163-0.1141148-0.2557163-0.2557163s0.1141148-0.2557163,0.2557163-0.2557163h10.7933712
				c0.1416016,0,0.2557144,0.1141148,0.2557144,0.2557163S23.0087643,25.2687416,22.8671627,25.2687416z"/>
		</g>
		<g>
			<path class="st2" d="M45.9573784,23.2405071h-10.817524c-0.1416016,0-0.2557182-0.1141148-0.2557182-0.2557163
				s0.1141167-0.2557163,0.2557182-0.2557163h10.817524c0.1416016,0,0.2557182,0.1141148,0.2557182,0.2557163
				S46.0989799,23.2405071,45.9573784,23.2405071z M22.8671627,23.2405071H12.0737915
				c-0.1416016,0-0.2557163-0.1141148-0.2557163-0.2557163s0.1141148-0.2557163,0.2557163-0.2557163h10.7933712
				c0.1416016,0,0.2557144,0.1141148,0.2557144,0.2557163S23.0087643,23.2405071,22.8671627,23.2405071z"/>
		</g>
		<g>
			<path class="st2" d="M45.9573784,21.2122726h-10.817524c-0.1416016,0-0.2557182-0.1141148-0.2557182-0.2557163
				s0.1141167-0.2557144,0.2557182-0.2557144h10.817524c0.1416016,0,0.2557182,0.1141129,0.2557182,0.2557144
				S46.0989799,21.2122726,45.9573784,21.2122726z M22.8671627,21.2122726H12.0737915
				c-0.1416016,0-0.2557163-0.1141148-0.2557163-0.2557163s0.1141148-0.2557144,0.2557163-0.2557144h10.7933712
				c0.1416016,0,0.2557144,0.1141129,0.2557144,0.2557144S23.0087643,21.2122726,22.8671627,21.2122726z"/>
		</g>
		<g>
			<path class="st2" d="M45.9573784,19.1832047h-10.817524c-0.1416016,0-0.2557182-0.1141129-0.2557182-0.2557144
				s0.1141167-0.2557163,0.2557182-0.2557163h10.817524c0.1416016,0,0.2557182,0.1141148,0.2557182,0.2557163
				S46.0989799,19.1832047,45.9573784,19.1832047z M22.8671627,19.1832047H12.0737915
				c-0.1416016,0-0.2557163-0.1141129-0.2557163-0.2557144s0.1141148-0.2557163,0.2557163-0.2557163h10.7933712
				c0.1416016,0,0.2557144,0.1141148,0.2557144,0.2557163S23.0087643,19.1832047,22.8671627,19.1832047z"/>
		</g>
		<g>
			<path class="st2" d="M45.9573784,17.1549721h-10.817524c-0.1416016,0-0.2557182-0.1141148-0.2557182-0.2557163
				s0.1141167-0.2557163,0.2557182-0.2557163h10.817524c0.1416016,0,0.2557182,0.1141148,0.2557182,0.2557163
				S46.0989799,17.1549721,45.9573784,17.1549721z M22.8671627,17.1549721H12.0737915
				c-0.1416016,0-0.2557163-0.1141148-0.2557163-0.2557163s0.1141148-0.2557163,0.2557163-0.2557163h10.7933712
				c0.1416016,0,0.2557144,0.1141148,0.2557144,0.2557163S23.0087643,17.1549721,22.8671627,17.1549721z"/>
		</g>
		<g>
			<path class="st2" d="M45.9573784,27.4785576h-10.817524c-0.1416016,0-0.2557182-0.1141129-0.2557182-0.2557144
				s0.1141167-0.2557163,0.2557182-0.2557163h10.817524c0.1416016,0,0.2557182,0.1141148,0.2557182,0.2557163
				S46.0989799,27.4785576,45.9573784,27.4785576z M22.8671627,27.4785576H12.0737915
				c-0.1416016,0-0.2557163-0.1141129-0.2557163-0.2557144s0.1141148-0.2557163,0.2557163-0.2557163h10.7933712
				c0.1416016,0,0.2557144,0.1141148,0.2557144,0.2557163S23.0087643,27.4785576,22.8671627,27.4785576z"/>
		</g>
	</g>
	<g>
		<polygon class="st3" points="35.1398125,14.2260618 35.1398125,29.1276951 22.8669434,29.1276951 22.8669434,14.0745792 
			28.9276714,8.0138521 		"/>
		<path class="st2" d="M35.1398544,29.3835163H22.8671627c-0.1416016,0-0.2557163-0.1141148-0.2557163-0.2557163V14.0747213
			c0-0.0674696,0.0266552-0.1332722,0.0749645-0.1807508l6.0605469-6.0605464c0.0999546-0.0999541,0.2615471-0.0999541,0.3615017,0
			l6.2121429,6.2121434c0.0483131,0.0474787,0.0749664,0.1132812,0.0749664,0.1807508V29.1278
			C35.3955688,29.2694016,35.281456,29.3835163,35.1398544,29.3835163z M23.1228771,28.8720837h11.7612591V14.3321028
			l-5.9564266-5.9564285l-5.8048325,5.8048315V28.8720837z"/>
	</g>
	<g>
		<path class="st4" d="M20.6215248,16.3202019c-0.2054558,0.2052517-0.5387173,0.2052517-0.7439003,0
			c-0.2054577-0.2053871-0.2054577-0.5384436,0-0.7439003l8.6780949-8.6783009c0.205389-0.2053881,0.5386505-0.2053881,0.7439022,0
			l8.678299,8.6783009c0.2053909,0.2054567,0.2053909,0.5385132,0,0.7439003c-0.2053871,0.2052517-0.5385132,0.2052517-0.7439003,0
			l-8.3063488-8.3063498L20.6215248,16.3202019z"/>
		<path class="st2" d="M37.6062202,16.7293339c-0.1999092,0-0.40065-0.075798-0.5530815-0.227396l-8.1254292-8.1262636
			l-8.1254311,8.125432v0.0008316c-0.3048611,0.303194-0.8021317,0.3040276-1.1053257-0.0008316
			c-0.1482658-0.1482658-0.2298946-0.3448429-0.2290611-0.5539131c0-0.2082376,0.0816288-0.4048138,0.2290611-0.5522461
			L28.37463,6.7172704c0.1474323-0.1482654,0.3440075-0.2290611,0.5530796-0.2290611c0,0,0,0,0.0008316,0
			c0.2082386,0,0.4048138,0.0816288,0.5522461,0.2290611l8.6776791,8.6785107
			c0.1474304,0.1465988,0.2290611,0.3431749,0.2290611,0.5514126c0.0008316,0.2090702-0.0807991,0.4056473-0.2290611,0.5539131
			C38.0068665,16.6535358,37.8061256,16.7293339,37.6062202,16.7293339z M20.6215286,16.3203545h0.0066624H20.6215286z
			 M28.9277096,7.7584581c0.0658016,0,0.1307716,0.0249887,0.1807499,0.074966l8.306179,8.306181
			c0.1049538,0.1049519,0.2773743,0.1049519,0.3823242,0c0.0508118-0.0516434,0.0791321-0.119112,0.0791321-0.1915779
			c0-0.0716343-0.0283203-0.1399364-0.0791321-0.1899128L29.118454,7.0787706
			c-0.0508099-0.0508099-0.119112-0.0791302-0.1907444-0.0791302l0,0c-0.0724678,0-0.1399364,0.0283203-0.1915798,0.0791302
			l-8.6776772,8.6785097c-0.0508099,0.0508099-0.0791302,0.119112-0.0791302,0.1907463
			c0,0.0724659,0.0283203,0.1399345,0.0791302,0.1915779c0.1049519,0.1049519,0.2773724,0.1057854,0.3823242-0.0008335
			l8.306181-8.3053474C28.796936,7.7834468,28.8619061,7.7584581,28.9277096,7.7584581z"/>
	</g>
	<g>
		<g>
			<polygon class="st3" points="19.4170361,9.5301085 21.6534481,7.2937651 23.8897915,9.5301085 			"/>
			<path class="st2" d="M23.8900242,9.7858591h-4.4729424c-0.1032867,0-0.1965771-0.0624704-0.2365589-0.1574268
				c-0.0391483-0.0957899-0.0174904-0.205739,0.055809-0.2790384l2.2364712-2.2364721
				c0.0999546-0.0999541,0.2615471-0.0999541,0.3614998,0l2.2364731,2.2364721
				c0.0732994,0.0732994,0.0949554,0.1832485,0.0558071,0.2790384C24.0866013,9.7233887,23.9933109,9.7858591,23.8900242,9.7858591z
				 M20.0351315,9.2744284h3.236845l-1.6184235-1.619256L20.0351315,9.2744284z"/>
		</g>
		<g>
			<polygon class="st3" points="34.1171684,9.5301085 36.3535805,7.2937651 38.5899239,9.5301085 			"/>
			<path class="st2" d="M38.5899315,9.7858591h-4.4729424c-0.1032867,0-0.1965752-0.0624704-0.236557-0.1574268
				c-0.0391502-0.0957899-0.0174942-0.205739,0.055809-0.2790384l2.2364693-2.2364721
				c0.0999565-0.0999541,0.2615471-0.0999541,0.3614998,0l2.2364731,2.2364721
				c0.0732994,0.0732994,0.0949554,0.1832485,0.055809,0.2790384C38.7865105,9.7233887,38.6932182,9.7858591,38.5899315,9.7858591z
				 M34.7350388,9.2744284h3.2368469l-1.6184235-1.619256L34.7350388,9.2744284z"/>
		</g>
	</g>
	<g>
		<g>
			<path class="st2" d="M35.1398544,25.2687416H22.8671627c-0.1416016,0-0.2557163-0.1141148-0.2557163-0.2557163
				s0.1141148-0.2557163,0.2557163-0.2557163h12.2726917c0.1416016,0,0.2557144,0.1141148,0.2557144,0.2557163
				S35.281456,25.2687416,35.1398544,25.2687416z"/>
		</g>
		<g>
			<path class="st2" d="M35.1398544,23.2405071H22.8671627c-0.1416016,0-0.2557163-0.1141148-0.2557163-0.2557163
				s0.1141148-0.2557163,0.2557163-0.2557163h12.2726917c0.1416016,0,0.2557144,0.1141148,0.2557144,0.2557163
				S35.281456,23.2405071,35.1398544,23.2405071z"/>
		</g>
		<g>
			<path class="st2" d="M35.1398544,21.2122726H22.8671627c-0.1416016,0-0.2557163-0.1141148-0.2557163-0.2557163
				s0.1141148-0.2557144,0.2557163-0.2557144h12.2726917c0.1416016,0,0.2557144,0.1141129,0.2557144,0.2557144
				S35.281456,21.2122726,35.1398544,21.2122726z"/>
		</g>
		<g>
			<path class="st2" d="M35.1398544,19.1832047H22.8671627c-0.1416016,0-0.2557163-0.1141129-0.2557163-0.2557144
				s0.1141148-0.2557163,0.2557163-0.2557163h12.2726917c0.1416016,0,0.2557144,0.1141148,0.2557144,0.2557163
				S35.281456,19.1832047,35.1398544,19.1832047z"/>
		</g>
		<g>
			<path class="st2" d="M35.1398544,17.1549721H22.8671627c-0.1416016,0-0.2557163-0.1141148-0.2557163-0.2557163
				s0.1141148-0.2557163,0.2557163-0.2557163h12.2726917c0.1416016,0,0.2557144,0.1141148,0.2557144,0.2557163
				S35.281456,17.1549721,35.1398544,17.1549721z"/>
		</g>
		<g>
			<path class="st2" d="M35.1398544,15.1267376H22.8671627c-0.1416016,0-0.2557163-0.1141148-0.2557163-0.2557163
				s0.1141148-0.2557154,0.2557163-0.2557154h12.2726917c0.1416016,0,0.2557144,0.1141138,0.2557144,0.2557154
				S35.281456,15.1267376,35.1398544,15.1267376z"/>
		</g>
		<g>
			<path class="st2" d="M33.756321,13.0985031h-9.6572247c-0.1416016,0-0.2557163-0.1141138-0.2557163-0.2557154
				s0.1141148-0.2557163,0.2557163-0.2557163h9.6572247c0.1416016,0,0.2557182,0.1141148,0.2557182,0.2557163
				S33.8979225,13.0985031,33.756321,13.0985031z"/>
		</g>
		<g>
			<path class="st2" d="M31.7280884,11.0702686h-5.6007595c-0.1416016,0-0.2557144-0.1141138-0.2557144-0.2557154
				s0.1141129-0.2557154,0.2557144-0.2557154h5.6007595c0.1416016,0,0.2557163,0.1141138,0.2557163,0.2557154
				S31.8696899,11.0702686,31.7280884,11.0702686z"/>
		</g>
		<g>
			<path class="st2" d="M29.6998539,9.0420351h-1.5442905c-0.1416016,0-0.2557144-0.1141148-0.2557144-0.2557163
				s0.1141129-0.2557154,0.2557144-0.2557154h1.5442905c0.1416016,0,0.2557163,0.1141138,0.2557163,0.2557154
				S29.8414555,9.0420351,29.6998539,9.0420351z"/>
		</g>
		<g>
			<path class="st2" d="M35.1398544,27.4577351H22.8671627c-0.1416016,0-0.2557163-0.1141148-0.2557163-0.2557163
				s0.1141148-0.2557163,0.2557163-0.2557163h12.2726917c0.1416016,0,0.2557144,0.1141148,0.2557144,0.2557163
				S35.281456,27.4577351,35.1398544,27.4577351z"/>
		</g>
	</g>
	<g>
		<g>
			<rect x="13.1983442" y="19.7675858" class="st1" width="8.5469484" height="6.6139107"/>
			<path class="st2" d="M21.7451782,26.6372776h-8.5469036c-0.1416016,0-0.2557163-0.1141129-0.2557163-0.2557144v-6.6136265
				c0-0.1416016,0.1141148-0.2557163,0.2557163-0.2557163h8.5469036c0.1416016,0,0.2557163,0.1141148,0.2557163,0.2557163v6.6136265
				C22.0008945,26.5231647,21.8867798,26.6372776,21.7451782,26.6372776z M13.45399,26.1258469h8.0354719V20.023653H13.45399
				V26.1258469z"/>
		</g>
		<g>
			<g>
				<path class="st2" d="M16.0386353,26.4898453c-0.1416016,0-0.2557163-0.1141129-0.2557163-0.2557144v-6.247961
					c0-0.1416016,0.1141148-0.2557163,0.2557163-0.2557163s0.2557163,0.1141148,0.2557163,0.2557163v6.247961
					C16.2943516,26.3757324,16.1802368,26.4898453,16.0386353,26.4898453z"/>
			</g>
			<g>
				<path class="st2" d="M18.9056492,26.4898453c-0.1416016,0-0.2557144-0.1141129-0.2557144-0.2557144v-6.247961
					c0-0.1416016,0.1141129-0.2557163,0.2557144-0.2557163s0.2557163,0.1141148,0.2557163,0.2557163v6.247961
					C19.1613655,26.3757324,19.0472507,26.4898453,18.9056492,26.4898453z"/>
			</g>
		</g>
	</g>
	<g>
		<rect x="25.9592304" y="18.3416729" class="st1" width="6.0879526" height="10.7860212"/>
		<path class="st2" d="M32.0471077,29.3835163H25.959074c-0.1416016,0-0.2557163-0.1141148-0.2557163-0.2557163V18.3419266
			c0-0.1416016,0.1141148-0.2557163,0.2557163-0.2557163h6.0880337c0.1416016,0,0.2557144,0.1141148,0.2557144,0.2557163V29.1278
			C32.3028221,29.2694016,32.1887093,29.3835163,32.0471077,29.3835163z M26.2147903,28.8720837h5.576601V18.597641h-5.576601
			V28.8720837z"/>
	</g>
	<g>
		<g>
			<rect x="36.3056107" y="19.7675858" class="st1" width="8.5469484" height="6.6139107"/>
			<path class="st2" d="M44.8528862,26.6372776h-8.5469017c-0.1416016,0-0.2557182-0.1141129-0.2557182-0.2557144v-6.6136265
				c0-0.1416016,0.1141167-0.2557163,0.2557182-0.2557163h8.5469017c0.1416016,0,0.2557182,0.1141148,0.2557182,0.2557163v6.6136265
				C45.1086044,26.5231647,44.9944878,26.6372776,44.8528862,26.6372776z M36.5616989,26.1258469h8.0354729V20.023653h-8.0354729
				V26.1258469z"/>
		</g>
		<g>
			<g>
				<path class="st2" d="M39.1455116,26.4898453c-0.1416016,0-0.2557182-0.1141129-0.2557182-0.2557144v-6.247961
					c0-0.1416016,0.1141167-0.2557163,0.2557182-0.2557163s0.2557144,0.1141148,0.2557144,0.2557163v6.247961
					C39.401226,26.3757324,39.2871132,26.4898453,39.1455116,26.4898453z"/>
			</g>
			<g>
				<path class="st2" d="M42.0125275,26.4898453c-0.1416016,0-0.2557182-0.1141129-0.2557182-0.2557144v-6.247961
					c0-0.1416016,0.1141167-0.2557163,0.2557182-0.2557163s0.2557144,0.1141148,0.2557144,0.2557163v6.247961
					C42.2682419,26.3757324,42.154129,26.4898453,42.0125275,26.4898453z"/>
			</g>
		</g>
	</g>
</g>
<g>
	<g>
		<path class="st3" d="M49.8069191,25.0385571h1.7854462c0.1121788,0,0.2036819,0.0912991,0.2036819,0.2036839v1.6814537
			c0,0.1123829-0.0915031,0.2038193-0.2036819,0.2038193h-1.7854462l-0.010643-0.0001373l-7.4512253-0.0002041
			c0.1063766-0.0066185,0.1910553-0.0953941,0.1910553-0.2034779v-1.6814537c0-0.1079483-0.0843353-0.1965179-0.1905098-0.2032738
			h7.4483566L49.8069191,25.0385571z"/>
		<path class="st2" d="M51.592289,27.3836021l-9.2474174-0.0008335c-0.1382675,0-0.2515488-0.1099491-0.2557144-0.247385
			c-0.0041656-0.1216125,0.0774651-0.2265625,0.1915779-0.2557163V25.286232
			c-0.1132812-0.0291519-0.1949081-0.1341038-0.1907463-0.2557144c0.0041656-0.1374378,0.1174469-0.2473869,0.2557182-0.2473869
			h9.246582c0.2532158,0,0.4597893,0.2057381,0.4597893,0.4589558v1.6817265
			C52.0520782,27.1770306,51.8455048,27.3836021,51.592289,27.3836021z M42.7921677,26.8713379l8.7484779,0.0008316v-1.5776062
			h-8.7484779V26.8713379z M51.592289,25.2945633h0.0066643H51.592289z"/>
	</g>
	<g>
		<path class="st3" d="M49.8069191,27.1275139h1.7854462c0.1121788,0,0.2036819,0.0912991,0.2036819,0.2036819v1.6814537
			c0,0.1123829-0.0915031,0.2038879-0.2036819,0.2038879h-1.7854462l-0.010643-0.000206l-7.4512253-0.0002041
			c0.1063766-0.0065498,0.1910553-0.0953922,0.1910553-0.2034779v-1.6814537c0-0.1078796-0.0843353-0.1965179-0.1905098-0.2032738
			h7.4483566L49.8069191,27.1275139z"/>
		<path class="st2" d="M51.592289,29.472641l-9.2474174-0.0008316c-0.1382675,0-0.2515488-0.109951-0.2557144-0.2473869
			c-0.0041656-0.1216106,0.0774651-0.2265625,0.1915779-0.2557163v-1.5934334
			c-0.1132812-0.0291538-0.1949081-0.1341057-0.1907463-0.2557163c0.0041656-0.1374359,0.1174469-0.2473869,0.2557182-0.2473869
			h9.246582c0.2532158,0,0.4597893,0.20574,0.4597893,0.4589558v1.6817284
			C52.0520782,29.2660694,51.8455048,29.472641,51.592289,29.472641z M42.7921677,28.9603767l8.7484779,0.0008335v-1.5776081
			h-8.7484779V28.9603767z M51.592289,27.3836021h0.0066643H51.592289z"/>
	</g>
	<g>
		<path class="st3" d="M49.8069191,29.2165375h1.7854462c0.1121788,0,0.2036819,0.0912991,0.2036819,0.2036133v1.6814537
			c0,0.1123848-0.0915031,0.2038879-0.2036819,0.2038879h-1.7854462l-0.010643-0.000206l-7.4512253-0.0002041
			c0.1063766-0.0065498,0.1910553-0.0953236,0.1910553-0.2034779v-1.6814537c0-0.1078796-0.0843353-0.1965179-0.1905098-0.2032738
			h7.4483566L49.8069191,29.2165375z"/>
		<path class="st2" d="M51.592289,31.5608482h-9.2474174c-0.1382675,0-0.2515488-0.1099491-0.2557144-0.2473869
			c-0.0041656-0.1216106,0.0774651-0.2265625,0.1915779-0.2557144v-1.5934353
			c-0.1132812-0.0291538-0.1949081-0.1341038-0.1907463-0.2557163c0.0041656-0.1374359,0.1174469-0.247385,0.2557182-0.247385
			h9.246582c0.2532158,0,0.4597893,0.2057381,0.4597893,0.4589558v1.6817265
			C52.0520782,31.3551102,51.8455048,31.5608482,51.592289,31.5608482z M42.7921677,31.0494156h8.7484779V29.472641h-8.7484779
			V31.0494156z M51.592289,29.472641h0.0066643H51.592289z"/>
	</g>
	<g>
		<path class="st3" d="M40.5469818,25.0385571h1.7854424c0.1121788,0,0.2036819,0.0912991,0.2036819,0.2036839v1.6814537
			c0,0.1123829-0.0915031,0.2038193-0.2036819,0.2038193h-1.7854424c-0.1121788,0-0.2036819-0.0914364-0.2036819-0.2038193
			v-1.6814537C40.3432999,25.1298561,40.434803,25.0385571,40.5469818,25.0385571z"/>
		<path class="st2" d="M42.3323784,27.3836021h-1.7850113c-0.2532158,0-0.4597893-0.2065716-0.4597893-0.4597893v-1.6817265
			c0-0.2532177,0.2065735-0.4589558,0.4597893-0.4589558h1.7850113c0.2532158,0,0.4597893,0.2057381,0.4597893,0.4589558v1.6817265
			C42.7921677,27.1770306,42.5855942,27.3836021,42.3323784,27.3836021z M40.5990105,26.8721695h1.6817245v-1.5776062h-1.6817245
			V26.8721695z M42.3323784,25.2945633h0.0066643H42.3323784z"/>
	</g>
	<g>
		<path class="st3" d="M40.5469818,27.1275139h1.7854424c0.1121788,0,0.2036819,0.0912991,0.2036819,0.2036819v1.6814537
			c0,0.1123829-0.0915031,0.2038879-0.2036819,0.2038879h-1.7854424c-0.1121788,0-0.2036819-0.0915051-0.2036819-0.2038879
			v-1.6814537C40.3432999,27.2188129,40.434803,27.1275139,40.5469818,27.1275139z"/>
		<path class="st2" d="M42.3323784,29.472641h-1.7850113c-0.2532158,0-0.4597893-0.2065716-0.4597893-0.4597874v-1.6817284
			c0-0.2532158,0.2065735-0.4589558,0.4597893-0.4589558h1.7850113c0.2532158,0,0.4597893,0.20574,0.4597893,0.4589558v1.6817284
			C42.7921677,29.2660694,42.5855942,29.472641,42.3323784,29.472641z M40.5990105,28.9612103h1.6817245v-1.5776081h-1.6817245
			V28.9612103z M42.3323784,27.3836021h0.0066643H42.3323784z"/>
	</g>
	<g>
		<path class="st3" d="M40.5469818,29.2165375h1.7854424c0.1121788,0,0.2036819,0.0912991,0.2036819,0.2036133v1.6814537
			c0,0.1123848-0.0915031,0.2038879-0.2036819,0.2038879h-1.7854424c-0.1121788,0-0.2036819-0.0915031-0.2036819-0.2038879
			v-1.6814537C40.3432999,29.3078365,40.434803,29.2165375,40.5469818,29.2165375z"/>
		<path class="st2" d="M42.3323784,31.5608482h-1.7850113c-0.2532158,0-0.4597893-0.2057381-0.4597893-0.4589558V29.420166
			c0-0.2532177,0.2065735-0.4589558,0.4597893-0.4589558h1.7850113c0.2532158,0,0.4597893,0.2057381,0.4597893,0.4589558v1.6817265
			C42.7921677,31.3551102,42.5855942,31.5608482,42.3323784,31.5608482z M40.5990105,31.0494156h1.6817245V29.472641h-1.6817245
			V31.0494156z M42.3323784,29.472641h0.0066643H42.3323784z"/>
	</g>
</g>
</svg>
