<?xml version="1.0" encoding="utf-8"?>
<!-- Generator: Adobe Illustrator 22.0.1, SVG Export Plug-In . SVG Version: 6.00 Build 0)  -->
<svg version="1.1" id="Слой_1" xmlns="http://www.w3.org/2000/svg" xmlns:xlink="http://www.w3.org/1999/xlink" x="0px" y="0px"
	 viewBox="0 0 58 57.9999924" style="enable-background:new 0 0 58 57.9999924;" xml:space="preserve">
<style type="text/css">
	.st0{fill:#BCD031;}
	.st1{fill:#E4E8D0;}
	.st2{fill:#464731;}
	.st3{fill:#FFFFFF;}
	.st4{fill:#96B11F;}
</style>
<g>
	<circle class="st0" cx="29" cy="28.9999981" r="28.9999981"/>
</g>
<g>
	<path class="st1" d="M53.8944054,16.4424648v27.3752995H9.0349636c-0.5385113,0-0.8829613,0-1.4083033,0
		c-1.9449043,0-3.5214758-1.5764351-3.5214758-3.5214767c0-0.1814346,0.0137835-0.3591919,0.0402589-0.5332565v-0.0004082
		c0.257246-1.6912766,1.7177496-2.987812,3.4812169-2.987812c0.1086984,0,0.2160316,0.0056648,0.3226156,0.0152855v-0.8074951
		v-16.206852v-3.3332844H53.8944054z"/>
	<path class="st2" d="M53.8944817,44.0732727H7.6267366c-2.0827856,0-3.7774179-1.6942177-3.7774179-3.7770004
		c0-0.1915779,0.0145767-0.3839912,0.043313-0.5718231c0.2815363-1.8487244,1.9311893-3.2135086,3.80074-3.2047653V16.4423161
		c0-0.1411858,0.114531-0.2557163,0.2557154-0.2557163h45.9453964c0.1415977,0,0.2557144,0.1145306,0.2557144,0.2557163v27.3752422
		C54.1501961,43.958744,54.0360794,44.0732727,53.8944817,44.0732727z M7.6267366,37.0306969
		c-1.6000929,0-2.9877834,1.1911163-3.2285056,2.7703857c-0.0245714,0.1620102-0.0374823,0.326931-0.0374823,0.4951897
		c0,1.800415,1.4651546,3.2655678,3.2659879,3.2655678h46.0120316V16.6980305H8.2048025v20.0919437
		c0,0.0720558-0.0299873,0.1403542-0.0832949,0.1890831c-0.0524759,0.0483093-0.1232762,0.074131-0.1953263,0.0657997
		C7.827477,37.0361137,7.7275229,37.0306969,7.6267366,37.0306969z"/>
</g>
<g>
	<path class="st3" d="M7.9492741,19.7757492v16.206852v0.8074951c-0.1065836-0.0096207-0.2139173-0.0152855-0.3226156-0.0152855
		c-1.7634673,0-3.22438,1.2965355-3.4812169,2.9882202l-0.0402589,0.0077095V16.4424648h0.0040941
		c-0.002934-0.0572472-0.0040941-0.1148396-0.0040941-0.1731129c0-1.9448347,1.5765715-3.5214062,3.5214758-3.5214062
		c0.1086984,0,0.216032,0.0053902,0.3226156,0.0150805V19.7757492z"/>
	<path class="st2" d="M4.1383514,40.0193138c-0.0633039,0-0.1316056-0.0179062-0.1765847-0.0558052
		c-0.058723-0.0483131-0.112448-0.1166153-0.112448-0.1928291V16.4423161c0-0.0120792,0.0008328-0.0237408,0.0020823-0.0349865
		c-0.0016658-0.0458107-0.0020823-0.0916233-0.0020823-0.1378517c0-2.0827856,1.6946323-3.7774172,3.7774179-3.7774172
		c0.1166124,0,0.2323918,0.0058308,0.3465061,0.016242c0.1311893,0.0124941,0.2315598,0.12286,0.2315598,0.2548819v24.0267906
		c0,0.0720558-0.0299873,0.1403542-0.0832949,0.1890831c-0.0524759,0.0483093-0.1232762,0.074131-0.1953263,0.0657997
		c-0.0987043-0.0087433-0.1986585-0.0141602-0.2994447-0.0141602c-1.6005092,0-2.9882002,1.1915321-3.2285056,2.7708054
		c-0.0162425,0.1078644-0.0991206,0.1932411-0.2061543,0.2132301C4.1750011,40.0180664,4.1570926,40.0193138,4.1383514,40.0193138z
		 M4.3607488,16.4881268v21.9156857c0.6730218-1.1494675,1.9386859-1.926609,3.332623-1.8841286V13.0043221
		c-1.8353996-0.0387316-3.332623,1.4422483-3.332623,3.2651539c0,0.0537262,0.0012488,0.1070347,0.0041642,0.1599274
		C4.3657465,16.4493961,4.3644967,16.4689693,4.3607488,16.4881268z"/>
</g>
<g>
	<path class="st2" d="M6.961628,31.4199638c-0.1411848,0-0.2557154-0.1145287-0.2557154-0.2557144v-17.169136
		c0-0.1411848,0.1145306-0.2557144,0.2557154-0.2557144c0.1411843,0,0.2557149,0.1145296,0.2557149,0.2557144v17.169136
		C7.2173429,31.3054352,7.1028123,31.4199638,6.961628,31.4199638z"/>
</g>
<g>
	<g>
		<path class="st3" d="M32.317997,34.7648125l15.7427864,9.2821503l-6.6850586,11.3382149l-15.7427864-9.2823601
			l-4.0719261-5.0137062c1.4660969-2.4866257,2.9324703-4.9736557,4.3985672-7.4602776L32.317997,34.7648125z"/>
		<path class="st2" d="M41.3761101,55.6408348c-0.0449791,0-0.0899582-0.0120811-0.12994-0.0354004l-15.7435436-9.2823715
			c-0.0266533-0.0154114-0.0491428-0.0354004-0.0683022-0.0591393l-4.0714474-5.0135117
			c-0.0674706-0.0828781-0.0766315-0.1990738-0.0224895-0.2911148l4.3987961-7.4602966
			c0.054142-0.0924568,0.1599255-0.1390991,0.2657089-0.1220284l6.3578892,1.1357269
			c0.0299911,0.0054131,0.0591393,0.0162392,0.0849609,0.0316505l15.7427101,9.2823715
			c0.1216125,0.0716286,0.162426,0.2286453,0.0907936,0.3502541l-6.6844025,11.3380814
			c-0.0349846,0.0583038-0.0907936,0.1007843-0.1565971,0.1178627
			C41.4194221,55.6383362,41.3977661,55.6408348,41.3761101,55.6408348z M25.8024864,45.9057579l15.4828339,9.1291046
			l6.4245224-10.8974533l-15.4819946-9.1291046l-6.1379948-1.0961609l-4.2180462,7.1537704L25.8024864,45.9057579z"/>
	</g>
	<g>
		<path class="st1" d="M28.1655502,37.9125633c0.8373814,0.4938164,1.1160545,1.5730934,0.6222363,2.4106064
			c-0.4937477,0.8375168-1.5730896,1.1160545-2.4106083,0.6222382c-0.8375168-0.4938202-1.1160526-1.5730896-0.6224403-2.4106102
			C26.2485561,37.6972809,27.3280354,37.4187469,28.1655502,37.9125633z"/>
		<path class="st2" d="M27.267643,41.4449043c-0.3473396,0-0.6996765-0.0899582-1.0203609-0.2790375
			c-0.4639511-0.2736206-0.7937984-0.711338-0.9287376-1.2331772c-0.1341038-0.5214272-0.0574722-1.0640907,0.2157345-1.527626
			c0.5647373-0.9587212,1.8041649-1.2769089,2.7612209-0.7130051l0,0c0.9578896,0.565155,1.2777405,1.8037491,0.7130051,2.7612228
			C28.632843,41.0900726,27.9589882,41.4449043,27.267643,41.4449043z M27.2743073,37.9248657
			c-0.5155964,0-1.0186958,0.2644615-1.2985668,0.7400742c-0.2049046,0.3460922-0.2615452,0.7509041-0.1615925,1.1403084
			c0.1007881,0.3889847,0.3465061,0.7159157,0.6930141,0.9199905c0.7138367,0.4198036,1.6392403,0.1815796,2.0598812-0.5318375
			c0.4214706-0.7146683,0.1832466-1.6388245-0.5314236-2.0607147l0,0
			C27.7965641,37.9919205,27.5333538,37.9248657,27.2743073,37.9248657z"/>
	</g>
	<g>
		<path class="st2" d="M26.0082264,40.219223c-0.1057854,0-0.214901-0.0050011-0.3281822-0.0154076
			c-0.8104591-0.0728836-1.7441921-0.40065-2.6304474-0.9233246c-0.8862591-0.5226746-1.6259155-1.1811218-2.0815372-1.8545609
			c-0.4939384-0.7292442-0.6047192-1.4030991-0.3131886-1.8978691c0.5372505-0.9133263,2.2564545-0.8791771,4.086441,0.0803795
			c0.1249428,0.0653877,0.1732521,0.220314,0.1074505,0.3452568c-0.06497,0.1257744-0.2182331,0.1740837-0.3456726,0.1078682
			c-1.5034714-0.7879715-3.0319309-0.9104118-3.4067574-0.2736244c-0.1832485,0.3106918-0.075798,0.8029633,0.2956963,1.3510399
			c0.4139767,0.6118011,1.0953274,1.2161064,1.9174461,1.700882c0.8221188,0.4847717,1.6800575,0.7879639,2.4163818,0.8546028
			c0.6530304,0.0583038,1.1419716-0.0845451,1.3252201-0.395649c0.193243-0.3277664,0.0608044-0.8637657-0.3531704-1.4339218
			c-0.0832939-0.1141129-0.0583076-0.2740402,0.055809-0.3573303c0.1141129-0.0828819,0.2732067-0.0583115,0.3573322,0.0566406
			c0.5464134,0.7504845,0.6855164,1.4776459,0.3814907,1.9944916C27.2384892,39.9897461,26.7170658,40.219223,26.0082264,40.219223z
			"/>
	</g>
</g>
<g>
	<g>
		<path class="st3" d="M12.0374422,17.6192474h7.6274519c0,0.1338768,0.0510387,0.2678909,0.1529846,0.369833
			c0.2042274,0.204092,0.5353699,0.204092,0.7394619,0l0.3696289-0.369833h1.8624096v13.0999069H12.0374422V17.6192474
			L12.0374422,17.6192474z M34.9877625,17.6192474h1.7118149l0.3698311,0.369833c0.2040215,0.204092,0.5351677,0.204092,0.7392616,0
			c0.1020775-0.1019421,0.1531868-0.2359562,0.1531868-0.369833h7.7778435v13.0999069H34.9877625V17.6192474z"/>
		<path class="st2" d="M45.7399254,30.9747524H34.9874001c-0.1416016,0-0.2557106-0.1145306-0.2557106-0.2557125V17.6192684
			c0-0.1411839,0.114109-0.2557144,0.2557106-0.2557144h1.7125435c0.0674667,0,0.1332703,0.0266552,0.180748,0.0749664
			l0.3698273,0.3698292c0.1057854,0.1037025,0.2732086,0.1028671,0.377327,0
			c0.050808-0.0508099,0.0782967-0.1174469,0.0782967-0.1890812c0-0.1411839,0.1141129-0.2557144,0.2557144-0.2557144h7.7780685
			c0.1416016,0,0.2557106,0.1145306,0.2557106,0.2557144v13.0997715
			C45.995636,30.8602219,45.8815269,30.9747524,45.7399254,30.9747524z M35.2431145,30.4633236h10.2410927V17.8749847h-7.3091125
			c-0.0383186,0.1103649-0.1007919,0.2107353-0.1857491,0.2952785c-0.3040237,0.3040276-0.797966,0.3027782-1.1003227-0.0004139
			l-0.2948647-0.2948647h-1.3510437V30.4633236z M22.7897167,30.9747524H12.0371943
			c-0.1416016,0-0.2557154-0.1145306-0.2557154-0.2557125V17.6192684c0-0.1411839,0.1141138-0.2557144,0.2557154-0.2557144
			h7.6273012c0.1416016,0,0.2557163,0.1145306,0.2557163,0.2557144c0,0.0712185,0.0283203,0.1382713,0.0791302,0.1890812
			c0.1032848,0.1041164,0.2723732,0.1041164,0.3773251,0l0.3698292-0.3698292
			c0.0474758-0.0483112,0.1132793-0.0749664,0.180748-0.0749664h1.8624725c0.1415997,0,0.2557125,0.1145306,0.2557125,0.2557144
			v13.0997715C23.0454292,30.8602219,22.9313164,30.9747524,22.7897167,30.9747524z M12.2929096,30.4633236h10.2410927V17.8749847
			h-1.5009727l-0.2948627,0.2948647c-0.2931976,0.2940292-0.8079605,0.2940292-1.1011562,0
			c-0.0849609-0.0845451-0.1474323-0.1853313-0.1857491-0.2948647h-7.1583519V30.4633236z"/>
	</g>
	<g>
		<path class="st4" d="M10.0254622,17.6192474h9.639432c0-0.133604,0.0510387-0.2676868,0.1529846-0.3696289l8.6256638-8.6256647
			c0.2042255-0.2040224,0.5353718-0.2040224,0.7394619,0l8.6256657,8.6256647
			c0.1020775,0.1019421,0.1531868,0.2360249,0.1531868,0.3696289h9.7898216L37.7887421,7.5875998
			c-5.9334469,0-11.8668957,0-17.8002777,0L10.0254622,17.6192474L10.0254622,17.6192474z M34.9877625,15.9077063
			l1.7118149,1.7115412h-1.7118149V15.9077063z"/>
		<path class="st2" d="M47.7514915,17.8749847h-9.7896347c-0.1416016,0-0.2557144-0.1145306-0.2557144-0.2557163
			c0-0.0716324-0.0274887-0.1382675-0.0782967-0.1886616l-8.6260052-8.6260061c-0.1057873-0.1037025-0.2732086-0.102869-0.377327,0
			l-8.6260052,8.6255903c-0.0499763,0.0508099-0.0782967,0.1178627-0.0782967,0.1890774
			c0,0.1411858-0.1141148,0.2557163-0.2557163,0.2557163h-9.6388702c-0.1032848,0-0.1965752-0.0620537-0.236557-0.1574268
			c-0.0391483-0.0953732-0.0174913-0.2053223,0.0549755-0.2786217l9.9628868-10.0316048
			c0.0483093-0.0483108,0.1132812-0.0753818,0.1815815-0.0753818h17.8000927c0.0683022,0,0.1332703,0.027071,0.1815834,0.0753818
			l9.9628868,10.0316048c0.0724678,0.0732994,0.0941238,0.1832485,0.0549736,0.2786217
			C47.9480667,17.8129311,47.8547783,17.8749847,47.7514915,17.8749847z M38.1750946,17.363554h8.9616814l-9.4547882-9.520174
			H20.0951309l-9.4547901,9.520174h8.8109207c0.0383167-0.1095333,0.1007881-0.2099018,0.1849136-0.2948627l8.6268406-8.6255894
			c0.3023586-0.3036098,0.796299-0.305275,1.1003227,0l8.6260071,8.6255894
			C38.0743027,17.1528187,38.136776,17.2531891,38.1750946,17.363554z M36.6999435,17.8749847h-1.7125435
			c-0.1416016,0-0.2557106-0.1145306-0.2557106-0.2557163v-1.7117062c0-0.1032858,0.0624695-0.1965761,0.1574249-0.236558
			c0.0949554-0.0391474,0.2049065-0.0179071,0.2790375,0.0553913l1.7125397,1.7117071
			c0.0732994,0.0733013,0.0949554,0.1832485,0.0558052,0.2790375
			C36.8965149,17.8129311,36.8032265,17.8749847,36.6999435,17.8749847z M35.2431145,17.363554h0.8387794l-0.8387794-0.8383617
			V17.363554z"/>
	</g>
	<g>
		<g>
			<path class="st2" d="M45.7399254,26.8849792H34.9874001c-0.1416016,0-0.2557106-0.1145287-0.2557106-0.2557144
				s0.114109-0.2557144,0.2557106-0.2557144h10.7525253c0.1416016,0,0.2557106,0.1145287,0.2557106,0.2557144
				S45.8815269,26.8849792,45.7399254,26.8849792z M22.7897167,26.8849792H12.0621834
				c-0.1416016,0-0.2557154-0.1145287-0.2557154-0.2557144s0.1141138-0.2557144,0.2557154-0.2557144h10.7275333
				c0.1415997,0,0.2557125,0.1145287,0.2557125,0.2557144S22.9313164,26.8849792,22.7897167,26.8849792z"/>
		</g>
		<g>
			<path class="st2" d="M45.7399254,24.8688297H34.9874001c-0.1416016,0-0.2557106-0.1145287-0.2557106-0.2557144
				s0.114109-0.2557144,0.2557106-0.2557144h10.7525253c0.1416016,0,0.2557106,0.1145287,0.2557106,0.2557144
				S45.8815269,24.8688297,45.7399254,24.8688297z M22.7897167,24.8688297H12.0621834
				c-0.1416016,0-0.2557154-0.1145287-0.2557154-0.2557144s0.1141138-0.2557144,0.2557154-0.2557144h10.7275333
				c0.1415997,0,0.2557125,0.1145287,0.2557125,0.2557144S22.9313164,24.8688297,22.7897167,24.8688297z"/>
		</g>
		<g>
			<path class="st2" d="M45.7399254,22.8526802H34.9874001c-0.1416016,0-0.2557106-0.1145306-0.2557106-0.2557163
				c0-0.1411839,0.114109-0.2557125,0.2557106-0.2557125h10.7525253c0.1416016,0,0.2557106,0.1145287,0.2557106,0.2557125
				C45.995636,22.7381496,45.8815269,22.8526802,45.7399254,22.8526802z M22.7897167,22.8526802H12.0621834
				c-0.1416016,0-0.2557154-0.1145306-0.2557154-0.2557163c0-0.1411839,0.1141138-0.2557125,0.2557154-0.2557125h10.7275333
				c0.1415997,0,0.2557125,0.1145287,0.2557125,0.2557125C23.0454292,22.7381496,22.9313164,22.8526802,22.7897167,22.8526802z"/>
		</g>
		<g>
			<path class="st2" d="M45.7399254,20.8365288H34.9874001c-0.1416016,0-0.2557106-0.1145287-0.2557106-0.2557144
				c0-0.1411839,0.114109-0.2557125,0.2557106-0.2557125h10.7525253c0.1416016,0,0.2557106,0.1145287,0.2557106,0.2557125
				C45.995636,20.7220001,45.8815269,20.8365288,45.7399254,20.8365288z M22.7897167,20.8365288H12.0621834
				c-0.1416016,0-0.2557154-0.1145287-0.2557154-0.2557144c0-0.1411839,0.1141138-0.2557125,0.2557154-0.2557125h10.7275333
				c0.1415997,0,0.2557125,0.1145287,0.2557125,0.2557125C23.0454292,20.7220001,22.9313164,20.8365288,22.7897167,20.8365288z"/>
		</g>
		<g>
			<path class="st2" d="M45.7399254,18.8203793H34.9874001c-0.1416016,0-0.2557106-0.1145287-0.2557106-0.2557144
				c0-0.1411839,0.114109-0.2557144,0.2557106-0.2557144h10.7525253c0.1416016,0,0.2557106,0.1145306,0.2557106,0.2557144
				C45.995636,18.7058506,45.8815269,18.8203793,45.7399254,18.8203793z M22.7897167,18.8203793H12.0621834
				c-0.1416016,0-0.2557154-0.1145287-0.2557154-0.2557144c0-0.1411839,0.1141138-0.2557144,0.2557154-0.2557144h10.7275333
				c0.1415997,0,0.2557125,0.1145306,0.2557125,0.2557144C23.0454292,18.7058506,22.9313164,18.8203793,22.7897167,18.8203793z"/>
		</g>
		<g>
			<path class="st2" d="M45.7399254,29.0814629H34.9874001c-0.1416016,0-0.2557106-0.1145306-0.2557106-0.2557163
				c0-0.1411819,0.114109-0.2557144,0.2557106-0.2557144h10.7525253c0.1416016,0,0.2557106,0.1145325,0.2557106,0.2557144
				C45.995636,28.9669323,45.8815269,29.0814629,45.7399254,29.0814629z M22.7897167,29.0814629H12.0621834
				c-0.1416016,0-0.2557154-0.1145306-0.2557154-0.2557163c0-0.1411819,0.1141138-0.2557144,0.2557154-0.2557144h10.7275333
				c0.1415997,0,0.2557125,0.1145325,0.2557125,0.2557144C23.0454292,28.9669323,22.9313164,29.0814629,22.7897167,29.0814629z"/>
		</g>
	</g>
	<g>
		<polygon class="st3" points="34.9877625,15.9077063 34.9877625,30.7191544 22.7893791,30.7191544 22.7893791,15.7569761 
			28.8133736,9.7330475 		"/>
		<path class="st2" d="M34.9874001,30.9747524H22.7897167c-0.1416016,0-0.2557144-0.1145306-0.2557144-0.2557125V15.7567987
			c0-0.0678844,0.0266533-0.1328545,0.0749645-0.1807499l6.0238762-6.0238771c0.0949574-0.0966215,0.2665443-0.0966215,0.3615017,0
			l6.1738071,6.1746407c0.0483131,0.0478945,0.0749626,0.1128645,0.0749626,0.1807499v14.8114777
			C35.2431145,30.8602219,35.1290016,30.9747524,34.9874001,30.9747524z M23.0454292,30.4633236h11.6862602v-14.449976
			l-5.9180965-5.9185104l-5.7681637,5.767746V30.4633236z"/>
	</g>
	<g>
		<path class="st4" d="M20.5573406,17.9890804c-0.204092,0.204092-0.5352345,0.204092-0.7394619,0
			c-0.204092-0.2042274-0.204092-0.5353699,0-0.7394619l8.6256638-8.6256647c0.2042255-0.2040224,0.5353718-0.2040224,0.7394619,0
			l8.6256657,8.6256647c0.2040215,0.204092,0.2040215,0.5352345,0,0.7394619c-0.2040939,0.204092-0.5352402,0.204092-0.7392616,0
			l-8.2560349-8.2560329L20.5573406,17.9890804z"/>
		<path class="st2" d="M20.1875877,18.3976593c-0.1990757,0-0.398983-0.075798-0.5505772-0.2278099
			c-0.3040276-0.3036098-0.3040276-0.7975483,0-1.1011581l8.6260052-8.6255894c0.3040276-0.3048592,0.7979622-0.3031931,1.1003227,0
			l8.6260071,8.6255894c0.3040237,0.3036098,0.3040237,0.7975483,0,1.1011581c-0.3040237,0.3048573-0.797966,0.3031921-1.1003227,0
			l-8.0754299-8.0750122l-8.0754261,8.0750122C20.5865688,18.3218613,20.3866615,18.3976593,20.1875877,18.3976593z
			 M28.8127613,8.7267208c-0.0708008,0-0.1374378,0.0274868-0.1882477,0.0778799l-8.6260052,8.6255903
			c-0.1041183,0.1045341-0.1041183,0.2736225,0,0.3781586c0.1049519,0.1041164,0.2732067,0.1041164,0.3781586,0l8.256176-8.2561779
			c0.0999546-0.0999537,0.2615471-0.0999537,0.3615017,0l8.2561741,8.2561779c0.1057854,0.1037025,0.2732086,0.1028671,0.377327,0
			c0.1041183-0.1045361,0.1041183-0.2736244,0-0.3781586l-8.6260052-8.6255903
			C28.9510307,8.7542076,28.8843918,8.7267208,28.8127613,8.7267208z"/>
	</g>
	<g>
		<g>
			<polygon class="st3" points="19.3602257,11.2402239 21.5830498,9.0173979 23.8058071,11.2402239 			"/>
			<path class="st2" d="M23.805912,11.4958553h-4.4454422c-0.1032848,0-0.1965752-0.0620556-0.236557-0.1578436
				c-0.0391464-0.0953732-0.0174923-0.205739,0.0558071-0.2786217l2.2223053-2.2227201
				c0.0941238-0.0962057,0.2657089-0.0978718,0.3614998,0l2.2231369,2.2227201
				c0.0732994,0.0728827,0.0949574,0.1832485,0.0558071,0.2786217
				C24.0024891,11.4337997,23.9091969,11.4958553,23.805912,11.4958553z M19.9785175,10.9844246h3.2093468l-1.6050911-1.6050901
				L19.9785175,10.9844246z"/>
		</g>
		<g>
			<polygon class="st3" points="33.9713326,11.2402239 36.1941566,9.0173979 38.4169846,11.2402239 			"/>
			<path class="st2" d="M38.4166489,11.4958553h-4.445446c-0.1032829,0-0.1965714-0.0620556-0.2365532-0.1578436
				c-0.0391502-0.0953732-0.0174942-0.205739,0.0558052-0.2786217l2.2231369-2.2227201
				c0.0474777-0.0483112,0.1132812-0.0749655,0.1807518-0.0749655l0,0c0.0683022,0,0.1332703,0.0266542,0.180748,0.0749655
				l2.2223053,2.2227201c0.0732994,0.0728827,0.0949554,0.1832485,0.055809,0.2786217
				C38.613224,11.4337997,38.5199318,11.4958553,38.4166489,11.4958553z M34.5892525,10.9844246h3.2093468l-1.6042557-1.6050901
				L34.5892525,10.9844246z"/>
		</g>
	</g>
	<g>
		<g>
			<path class="st2" d="M34.9874001,26.8849792H22.7897167c-0.1416016,0-0.2557144-0.1145287-0.2557144-0.2557144
				s0.1141129-0.2557144,0.2557144-0.2557144h12.1976833c0.1416016,0,0.2557144,0.1145287,0.2557144,0.2557144
				S35.1290016,26.8849792,34.9874001,26.8849792z"/>
		</g>
		<g>
			<path class="st2" d="M34.9874001,24.8688297H22.7897167c-0.1416016,0-0.2557144-0.1145287-0.2557144-0.2557144
				s0.1141129-0.2557144,0.2557144-0.2557144h12.1976833c0.1416016,0,0.2557144,0.1145287,0.2557144,0.2557144
				S35.1290016,24.8688297,34.9874001,24.8688297z"/>
		</g>
		<g>
			<path class="st2" d="M34.9874001,22.8526802H22.7897167c-0.1416016,0-0.2557144-0.1145306-0.2557144-0.2557163
				c0-0.1411839,0.1141129-0.2557125,0.2557144-0.2557125h12.1976833c0.1416016,0,0.2557144,0.1145287,0.2557144,0.2557125
				C35.2431145,22.7381496,35.1290016,22.8526802,34.9874001,22.8526802z"/>
		</g>
		<g>
			<path class="st2" d="M34.9874001,20.8365288H22.7897167c-0.1416016,0-0.2557144-0.1145287-0.2557144-0.2557144
				c0-0.1411839,0.1141129-0.2557125,0.2557144-0.2557125h12.1976833c0.1416016,0,0.2557144,0.1145287,0.2557144,0.2557125
				C35.2431145,20.7220001,35.1290016,20.8365288,34.9874001,20.8365288z"/>
		</g>
		<g>
			<path class="st2" d="M34.9874001,18.8203793H22.7897167c-0.1416016,0-0.2557144-0.1145287-0.2557144-0.2557144
				c0-0.1411839,0.1141129-0.2557144,0.2557144-0.2557144h12.1976833c0.1416016,0,0.2557144,0.1145306,0.2557144,0.2557144
				C35.2431145,18.7058506,35.1290016,18.8203793,34.9874001,18.8203793z"/>
		</g>
		<g>
			<path class="st2" d="M34.9874001,16.8042297H22.7897167c-0.1416016,0-0.2557144-0.1145287-0.2557144-0.2557144
				s0.1141129-0.2557144,0.2557144-0.2557144h12.1976833c0.1416016,0,0.2557144,0.1145287,0.2557144,0.2557144
				S35.1290016,16.8042297,34.9874001,16.8042297z"/>
		</g>
		<g>
			<path class="st2" d="M33.6130371,14.7884979h-9.5988884c-0.1416016,0-0.2557144-0.1145315-0.2557144-0.2557163
				c0-0.1411839,0.1141129-0.2557144,0.2557144-0.2557144h9.5988884c0.1416016,0,0.2557144,0.1145306,0.2557144,0.2557144
				C33.8687515,14.6739664,33.7546387,14.7884979,33.6130371,14.7884979z"/>
		</g>
		<g>
			<path class="st2" d="M31.5964718,12.7719307h-5.5665894c-0.1416016,0-0.2557163-0.1145306-0.2557163-0.2557144
				c0-0.1411848,0.1141148-0.2557154,0.2557163-0.2557154h5.5665894c0.1416016,0,0.2557163,0.1145306,0.2557163,0.2557154
				C31.8521881,12.6574001,31.7380733,12.7719307,31.5964718,12.7719307z"/>
		</g>
		<g>
			<path class="st2" d="M29.58074,10.7561979h-1.5342903c-0.1416016,0-0.2557163-0.1145315-0.2557163-0.2557154
				c0-0.1411848,0.1141148-0.2557154,0.2557163-0.2557154H29.58074c0.1416016,0,0.2557125,0.1145306,0.2557125,0.2557154
				C29.8364525,10.6416664,29.7223415,10.7561979,29.58074,10.7561979z"/>
		</g>
		<g>
			<path class="st2" d="M34.9874001,29.0606384H22.7897167c-0.1416016,0-0.2557144-0.1145306-0.2557144-0.2557125
				c0-0.1411858,0.1141129-0.2557163,0.2557144-0.2557163h12.1976833c0.1416016,0,0.2557144,0.1145306,0.2557144,0.2557163
				C35.2431145,28.9461079,35.1290016,29.0606384,34.9874001,29.0606384z"/>
		</g>
	</g>
	<g>
		<g>
			<rect x="13.1790152" y="21.415369" class="st1" width="8.4953356" height="6.5738349"/>
			<path class="st2" d="M21.6744003,28.2447681h-8.4952345c-0.1416016,0-0.2557154-0.1145306-0.2557154-0.2557163v-6.5736217
				c0-0.1411858,0.1141138-0.2557163,0.2557154-0.2557163h8.4952345c0.1415997,0,0.2557144,0.1145306,0.2557144,0.2557163v6.5736217
				C21.9301147,28.1302376,21.816,28.2447681,21.6744003,28.2447681z M13.4348803,27.7333374h7.9838037v-6.0621929h-7.9838037
				V27.7333374z"/>
		</g>
		<g>
			<g>
				<path class="st2" d="M16.0020256,28.0985851c-0.1416006,0-0.2557154-0.1145306-0.2557154-0.2557163v-6.210041
					c0-0.1411839,0.1141148-0.2557144,0.2557154-0.2557144c0.1416016,0,0.2557144,0.1145306,0.2557144,0.2557144v6.210041
					C16.25774,27.9840546,16.1436272,28.0985851,16.0020256,28.0985851z"/>
			</g>
			<g>
				<path class="st2" d="M18.8515396,28.0985851c-0.1416016,0-0.2557144-0.1145306-0.2557144-0.2557163v-6.210041
					c0-0.1411839,0.1141129-0.2557144,0.2557144-0.2557144c0.1415997,0,0.2557144,0.1145306,0.2557144,0.2557144v6.210041
					C19.107254,27.9840546,18.9931393,28.0985851,18.8515396,28.0985851z"/>
			</g>
		</g>
	</g>
	<g>
		<rect x="25.8630943" y="19.9983311" class="st1" width="6.0510168" height="10.7206841"/>
		<path class="st2" d="M31.913826,30.9747524h-6.0505333c-0.1416016,0-0.2557144-0.1145306-0.2557144-0.2557125V19.998167
			c0-0.1411839,0.1141129-0.2557144,0.2557144-0.2557144h6.0505333c0.1416016,0,0.2557106,0.1145306,0.2557106,0.2557144v10.7208729
			C32.1695366,30.8602219,32.0554276,30.9747524,31.913826,30.9747524z M26.119009,30.4633236h5.5391006V20.2538834H26.119009
			V30.4633236z"/>
	</g>
	<g>
		<g>
			<rect x="36.1465988" y="21.415369" class="st1" width="8.4950619" height="6.5738349"/>
			<path class="st2" d="M44.6412659,28.2447681h-8.4944c-0.1416016,0-0.2557182-0.1145306-0.2557182-0.2557163v-6.5736217
				c0-0.1411858,0.1141167-0.2557163,0.2557182-0.2557163h8.4944c0.1416016,0,0.2557144,0.1145306,0.2557144,0.2557163v6.5736217
				C44.8969803,28.1302376,44.7828674,28.2447681,44.6412659,28.2447681z M36.4025803,27.7333374h7.9829712v-6.0621929h-7.9829712
				V27.7333374z"/>
		</g>
		<g>
			<g>
				<path class="st2" d="M38.9697227,28.0985851c-0.1416016,0-0.2557106-0.1145306-0.2557106-0.2557163v-6.210041
					c0-0.1411839,0.114109-0.2557144,0.2557106-0.2557144s0.2557182,0.1145306,0.2557182,0.2557144v6.210041
					C39.225441,27.9840546,39.1113243,28.0985851,38.9697227,28.0985851z"/>
			</g>
			<g>
				<path class="st2" d="M41.8192368,28.0985851c-0.1415977,0-0.2557144-0.1145306-0.2557144-0.2557163v-6.210041
					c0-0.1411839,0.1141167-0.2557144,0.2557144-0.2557144c0.1416016,0,0.2557182,0.1145306,0.2557182,0.2557144v6.210041
					C42.074955,27.9840546,41.9608383,28.0985851,41.8192368,28.0985851z"/>
			</g>
		</g>
	</g>
</g>
<g>
	<g>
		<path class="st3" d="M49.554039,26.616724h1.7854385c0.1121788,0,0.2036819,0.0912991,0.2036819,0.2036152v1.681448
			c0,0.1123829-0.0915031,0.2038841-0.2036819,0.2038841H49.554039l-0.010643-0.0002041l-7.4512024-0.0002041
			c0.1063805-0.0065517,0.1910553-0.0953255,0.1910553-0.203476v-1.681448c0-0.1078815-0.0843353-0.1965179-0.1905098-0.2032738
			h7.4483337L49.554039,26.616724z"/>
		<path class="st2" d="M51.3398285,28.9615173l-9.2473831-0.0004158c-0.1382713,0-0.2515526-0.1095333-0.2557144-0.2478008
			c-0.0041656-0.1211948,0.0774651-0.225729,0.1907463-0.2552986v-1.5934296
			c-0.1132812-0.0295696-0.194912-0.1341038-0.1907463-0.2552986c0.0041618-0.1382694,0.1174431-0.2478008,0.2557144-0.2478008
			l9.2473831-0.0004177c0.2532196,0,0.4589539,0.2061539,0.4589539,0.4593716v1.681303
			C51.7987823,28.7553654,51.5930481,28.9615173,51.3398285,28.9615173z M42.5389061,28.4496727l8.7484474,0.0004158v-1.5776024
			l-8.7484474,0.0004158V28.4496727z"/>
	</g>
	<g>
		<path class="st3" d="M49.554039,28.7056713h1.7854385c0.1121788,0,0.2036819,0.0912991,0.2036819,0.2036819v1.6813812
			c0,0.1123848-0.0915031,0.2038879-0.2036819,0.2038879H49.554039l-0.010643-0.0002041l-7.4512024-0.0002041
			c0.1063805-0.0065536,0.1910553-0.0953255,0.1910553-0.2034798v-1.6813812c0-0.1079464-0.0843353-0.196516-0.1905098-0.2033405
			h7.4483337L49.554039,28.7056713z"/>
		<path class="st2" d="M51.3398285,31.0501347h-9.2473831c-0.1382713,0-0.2515526-0.1095333-0.2557144-0.2478027
			c-0.0041656-0.121191,0.0774651-0.2257271,0.1907463-0.2552967v-1.5934277
			c-0.1132812-0.0295734-0.194912-0.1341057-0.1907463-0.2553005c0.0041618-0.1382694,0.1174431-0.2478027,0.2557144-0.2478027
			l9.2473831-0.0004158c0.2532196,0,0.4589539,0.2061558,0.4589539,0.4593697v1.6813068
			C51.7987823,30.8439808,51.5930481,31.0501347,51.3398285,31.0501347z M42.5389061,30.5387058h8.7484474v-1.5771885
			l-8.7484474,0.0004196V30.5387058z"/>
	</g>
	<g>
		<path class="st3" d="M49.554039,30.7946224h1.7854385c0.1121788,0,0.2036819,0.0912991,0.2036819,0.20368v1.6813812
			c0,0.112381-0.0915031,0.2038841-0.2036819,0.2038841H49.554039l-0.010643-0.0002022l-7.4512024-0.000206
			c0.1063805-0.0065498,0.1910553-0.0953255,0.1910553-0.203476v-1.6813812c0-0.1079464-0.0843353-0.196516-0.1905098-0.2032719
			h7.4483337L49.554039,30.7946224z"/>
		<path class="st2" d="M51.3398285,33.1391678l-9.2473831-0.0004158c-0.1382713,0-0.2515526-0.109951-0.2557144-0.2482185
			c-0.003334-0.1211967,0.0774651-0.2253113,0.1907463-0.2548828V31.042223
			c-0.1132812-0.0295734-0.194912-0.1345215-0.1907463-0.2557163c0.0041618-0.1382675,0.1174431-0.2473869,0.2557144-0.2473869
			l9.2473831-0.0004139c0.2532196,0,0.4589539,0.2061558,0.4589539,0.4597836v1.6813049
			C51.7987823,32.9330139,51.5930481,33.1391678,51.3398285,33.1391678z M42.5389061,32.6273232l8.7484474,0.000412v-1.5776005
			l-8.7484474,0.0004177V32.6273232z"/>
	</g>
	<g>
		<path class="st3" d="M40.2941284,26.616724h1.7854424c0.1122437,0,0.2036781,0.0912991,0.2036781,0.2036152v1.681448
			c0,0.1123829-0.0914345,0.2038841-0.2036781,0.2038841h-1.7854424c-0.112175,0-0.2036781-0.0915012-0.2036781-0.2038841v-1.681448
			C40.0904503,26.7080231,40.1819534,26.616724,40.2941284,26.616724z"/>
		<path class="st2" d="M42.0799522,28.9615173h-1.7858391c-0.2532196,0-0.4597893-0.206152-0.4597893-0.4597874v-1.681303
			c0-0.2532177,0.2065697-0.4593716,0.4597893-0.4593716h1.7858391c0.2532158,0,0.4589539,0.2061539,0.4589539,0.4593716v1.681303
			C42.5389061,28.7553654,42.333168,28.9615173,42.0799522,28.9615173z M40.3457527,28.4500885h1.6817245v-1.5776024h-1.6817245
			V28.4500885z M42.0799522,26.8724861h0.0066643H42.0799522z"/>
	</g>
	<g>
		<path class="st3" d="M40.2941284,28.7056713h1.7854424c0.1122437,0,0.2036781,0.0912991,0.2036781,0.2036819v1.6813812
			c0,0.1123848-0.0914345,0.2038879-0.2036781,0.2038879h-1.7854424c-0.112175,0-0.2036781-0.0915031-0.2036781-0.2038879
			v-1.6813812C40.0904503,28.7969704,40.1819534,28.7056713,40.2941284,28.7056713z"/>
		<path class="st2" d="M42.0799522,31.0501347h-1.7858391c-0.2532196,0-0.4597893-0.2061539-0.4597893-0.4593697v-1.6813068
			c0-0.2532139,0.2065697-0.4593697,0.4597893-0.4593697h1.7858391c0.2532158,0,0.4589539,0.2061558,0.4589539,0.4593697v1.6813068
			C42.5389061,30.8439808,42.333168,31.0501347,42.0799522,31.0501347z M40.3457527,30.5387058h1.6817245v-1.5771885h-1.6817245
			V30.5387058z M42.0799522,28.9615173h0.0066643H42.0799522z"/>
	</g>
	<g>
		<path class="st3" d="M40.2941284,30.7946224h1.7854424c0.1122437,0,0.2036781,0.0912991,0.2036781,0.20368v1.6813812
			c0,0.112381-0.0914345,0.2038841-0.2036781,0.2038841h-1.7854424c-0.112175,0-0.2036781-0.0915031-0.2036781-0.2038841v-1.6813812
			C40.0904503,30.8859215,40.1819534,30.7946224,40.2941284,30.7946224z"/>
		<path class="st2" d="M42.0799522,33.1391678h-1.7858391c-0.2532196,0-0.4597893-0.2061539-0.4597893-0.4593735v-1.6813049
			c0-0.2536278,0.2065697-0.4597836,0.4597893-0.4597836h1.7858391c0.2532158,0,0.4589539,0.2061558,0.4589539,0.4597836v1.6813049
			C42.5389061,32.9330139,42.333168,33.1391678,42.0799522,33.1391678z M40.3457527,32.6277351h1.6817245v-1.5776005h-1.6817245
			V32.6277351z M42.0799522,31.0501347h0.0066643H42.0799522z"/>
	</g>
</g>
</svg>
