<?xml version="1.0" encoding="utf-8"?>
<!-- Generator: Adobe Illustrator 22.0.1, SVG Export Plug-In . SVG Version: 6.00 Build 0)  -->
<svg version="1.1" id="Слой_1" xmlns="http://www.w3.org/2000/svg" xmlns:xlink="http://www.w3.org/1999/xlink" x="0px" y="0px"
	 viewBox="0 0 40.0010223 40" style="enable-background:new 0 0 40.0010223 40;" xml:space="preserve">
<style type="text/css">
	.st0{fill-rule:evenodd;clip-rule:evenodd;fill:#E4E8D0;}
	.st1{fill-rule:evenodd;clip-rule:evenodd;fill:#FFFFFF;}
	.st2{fill:#464731;}
</style>
<g>
	<path class="st0" d="M20.0004425,40C31.0156155,40,40,31.016058,40,20.0004425C40,8.9852705,31.0156155,0,20.0004425,0
		S0,8.9852705,0,20.0004425C0,31.016058,8.9852705,40,20.0004425,40z"/>
</g>
<rect x="6.2678866" y="20.0206833" class="st1" width="6.6372991" height="1.5989659"/>
<g>
	<polygon class="st1" points="6.2833986,13.7564764 5.0646844,13.7564764 6.2678866,20.0206833 7.4866009,20.0206833 	"/>
	<path class="st2" d="M7.4866171,20.5205078h-1.21875c-0.2397461,0-0.4458008-0.1699219-0.4912109-0.4052734l-1.203125-6.2636709
		c-0.027832-0.1464844,0.0107422-0.2978516,0.105957-0.4130859c0.0947266-0.1152344,0.2363281-0.1816406,0.3852539-0.1816406
		h1.21875c0.2397461,0,0.4458008,0.1699219,0.4912109,0.4052734l1.203125,6.2636709
		c0.027832,0.1464844-0.0107422,0.2978516-0.105957,0.4130859C7.7771444,20.4541016,7.6355429,20.5205078,7.4866171,20.5205078z
		 M6.680953,19.5205078h0.2006836l-1.0112305-5.2636709H5.6697226L6.680953,19.5205078z"/>
</g>
<rect x="3.3373439" y="29.5480537" class="st1" width="2.5718689" height="2.428678"/>
<rect x="34.0915833" y="29.5480537" class="st1" width="2.5730622" height="2.428678"/>
<rect x="17.1586018" y="18.0140209" class="st1" width="14.1296053" height="2.0210178"/>
<path class="st2" d="M40.0010223,28.0731812h-0.7653809v-3.7958374c0-0.2763672-0.2236328-0.5-0.5-0.5h-1.4101562
	c-0.2763672,0-0.5,0.2236328-0.5,0.5v3.7958374h-4.9261475l-2.0302734-7.5341187h1.4193115
	c0.2783203,0,0.5039062-0.2255859,0.5039062-0.5039062v-2.0214844c0-0.2783203-0.2255859-0.5039062-0.5039062-0.5039062H17.158493
	c-0.2783203,0-0.5039062,0.2255859-0.5039062,0.5039062v2.0214844c0,0.2783203,0.2255859,0.5039062,0.5039062,0.5039062h1.4188232
	l-2.0298462,7.5341187h-2.621583c0.0006714-0.0456543,0.003479-0.0913086-0.0090942-0.1376343l-1.5802002-5.8154297h0.5684814
	c0.2763672,0,0.5-0.2236328,0.5-0.5v-1.5996094c0-0.2763672-0.2236328-0.5-0.5-0.5h-6.637207c-0.2763672,0-0.5,0.2236328-0.5,0.5
	v1.5996094c0,0.2763672,0.2236328,0.5,0.5,0.5h0.5234985l-1.8555298,5.7939453
	c-0.0170288,0.0529785-0.0184937,0.1063843-0.0177612,0.1591187H3.1765587v-3.7958374c0-0.2763672-0.2236328-0.5-0.5-0.5H1.2664024
	c-0.2763672,0-0.5,0.2236328-0.5,0.5v3.7958374H0.0010215V29.875h2.8361816v2.1015625c0,0.2763672,0.2236328,0.5,0.5,0.5h2.5717742
	c0.27637,0,0.5-0.2236328,0.5-0.5V29.875h27.182621v2.1015625c0,0.2763672,0.2236328,0.5,0.5,0.5h2.5732422
	c0.2763672,0,0.5-0.2236328,0.5-0.5V29.875h2.8361816V28.0731812z M2.1765587,27.9130859H1.7664024v-3.1357422h0.4101564V27.9130859
	z M5.4089775,31.4765625H3.8372033v-1.4287109h1.5717742V31.4765625z M6.7678671,21.1201172v-0.5996094h5.637207v0.5996094
	H6.7678671z M5.9346151,28.0731812l1.9064941-5.953064h3.4595337l1.6176147,5.953064H5.9346151z M17.6623993,19.53125v-1.0136719
	h13.1220703V19.53125H17.6623993z M17.5915985,28.0731812l2.0298462-7.5341187h9.2034912l2.0302734,7.5341187H17.5915985z
	 M36.1648407,31.4765625h-1.5732422v-1.4287109h1.5732422V31.4765625z M38.2356415,27.9130859h-0.4101562v-3.1357422h0.4101562
	V27.9130859z"/>
</svg>
