<?xml version="1.0" encoding="utf-8"?>
<!-- Generator: Adobe Illustrator 22.0.1, SVG Export Plug-In . SVG Version: 6.00 Build 0)  -->
<svg version="1.1" id="Capa_1" xmlns="http://www.w3.org/2000/svg" xmlns:xlink="http://www.w3.org/1999/xlink" x="0px" y="0px"
	 viewBox="0 0 15 15" style="enable-background:new 0 0 15 15;" xml:space="preserve">
<style type="text/css">
	.st0{fill:#828282;}
	.st1{fill:#FFFFFF;}
</style>
<circle id="XMLID_11_" class="st0" cx="7.5" cy="7.5" r="7.5"/>
<path class="st1" d="M7.216701,10.789423h0.5886574c0,0,0.177814-0.0195198,0.2685924-0.117384
	c0.083559-0.0898428,0.0808849-0.2585649,0.0808849-0.2585649s-0.0114975-0.7898674,0.355093-0.9061823
	c0.3613768-0.1145763,0.8254309,0.7633963,1.3172932,1.100975c0.3719378,0.2554913,0.6545687,0.1994724,0.6545687,0.1994724
	l1.3151541-0.0183163c0,0,0.687993-0.0423813,0.3617773-0.5833101c-0.0267382-0.0442524-0.1899796-0.4001474-0.9778423-1.1314564
	c-0.8246279-0.7654018-0.7141972-0.6416006,0.2791538-1.9655786c0.6049681-0.8063126,0.8468218-1.2985759,0.7712841-1.5094123
	c-0.0720615-0.200809-0.5169964-0.1477323-0.5169964-0.1477323l-1.4808025,0.0092249c0,0-0.1097631-0.0149736-0.1911831,0.0336909
	C9.9627867,5.5425777,9.9115829,5.6538119,9.9115829,5.6538119S9.6772165,6.2777648,9.3646374,6.8083982
	c-0.6593819,1.1196923-0.923027,1.1787853-1.0307856,1.1092644c-0.2506771-0.1620383-0.1881084-0.650959-0.1881084-0.9982977
	c0-1.0850654,0.1645784-1.537488-0.3204656-1.6546044C7.6643095,5.2258554,7.545856,5.2001858,7.1342106,5.1960416
	C6.6058493,5.1905603,6.1586409,5.1976461,5.9054232,5.3217144C5.736968,5.4042039,5.607017,5.5880342,5.6861639,5.5985956
	c0.0978646,0.0131021,0.31953,0.0597615,0.437048,0.2197943c0.1517429,0.2064242,0.1463957,0.6700773,0.1463957,0.6700773
	s0.0871692,1.2773185-0.2036166,1.4360142C5.866385,8.033309,5.5925784,7.8111081,5.0047231,6.7952967
	c-0.3012137-0.520339-0.5286283-1.0954933-0.5286283-1.0954933S4.4322433,5.5923123,4.354032,5.5348239
	C4.259109,5.465169,4.1264839,5.4429755,4.1264839,5.4429755L2.719348,5.4522004c0,0-0.2112374,0.0058827-0.2887802,0.0977306
	C2.3615813,5.6316185,2.4250863,5.8006086,2.4250863,5.8006086S3.5267298,8.3779736,4.7741008,9.676816
	C5.9178581,10.8676338,7.216701,10.789423,7.216701,10.789423L7.216701,10.789423z"/>
</svg>
