<?xml version="1.0" encoding="utf-8"?>
<!-- Generator: Adobe Illustrator 22.0.1, SVG Export Plug-In . SVG Version: 6.00 Build 0)  -->
<svg version="1.1" id="Слой_1" xmlns="http://www.w3.org/2000/svg" xmlns:xlink="http://www.w3.org/1999/xlink" x="0px" y="0px"
	 viewBox="0 0 17.454546 24" style="enable-background:new 0 0 17.454546 24;" xml:space="preserve">
<style type="text/css">
	.st0{fill-rule:evenodd;clip-rule:evenodd;fill:#BE835C;}
	.st1{fill:#F8D3A9;}
</style>
<rect class="st0" width="17.454546" height="24"/>
<path class="st1" d="M7.2953215,2.3536711C9.2771883,2.3779075,9.4874601,1.736306,9.5203524,1.373624
	C9.5607023,0.925182,9.3675423,0.4497736,9.152277,0H7.6142578c0.1928935,0.4083585,0.3596859,0.837824,0.322998,1.2411888
	c-0.0133166,0.1480157-0.0432129,0.6866788-1.0056152,0.67496C6.8406873,1.9150834,6.7524638,1.9096901,6.667769,1.901234
	C5.1556506,1.7506881,3.6122382,0.8966175,2.3709161,0h-1.490545c1.4830878,1.0494274,3.4616923,2.0924628,5.6626863,2.3106577
	C6.7836246,2.3344948,7.0367098,2.3505416,7.2953215,2.3536711z"/>
<path class="st1" d="M13.9268684,1.6568714C14.2517977,1.1193404,14.2328215,0.5546431,14.0513144,0h-1.5510035
	c0.1456852,0.4954501,0.1476831,0.9978915-0.1398258,1.4740989c-0.9311752,1.5406828-4.8385124,2.337358-10.3589096,2.9017222
	C1.3065075,4.446866,0.6394709,4.547008,0,4.6695223v0.6259546c0.9030762-0.2235885,1.8624157-0.4007015,2.8731577-0.5040398
	C8.8204231,4.1834607,12.9277792,3.3106134,13.9268684,1.6568714z"/>
<path class="st1" d="M6.9458232,5.6588912C4.3230205,5.9270244,2.0094993,6.5236816,0,7.2274723v0.8266382
	c2.2052557-0.8775744,4.8318539-1.6743832,7.8174052-1.9796033c3.91606-0.4003682,7.199307-0.8922896,9.6371403-1.5645862V3.7678444
	C15.0636539,4.6252441,11.4195223,5.2015271,6.9458232,5.6588912z"/>
<path class="st1" d="M12.1466179,9.017911C7.4244938,9.5006437,3.2807174,10.8987036,0,12.2137337v0.8771086
	c3.3517623-1.4083805,7.9106221-3.1350985,13.0180664-3.6573153c1.6337004-0.1669922,3.0990772-0.362216,4.4364796-0.5790129
	V8.2798958C15.9100676,8.5634098,14.1587801,8.8122339,12.1466179,9.017911z"/>
<path class="st1" d="M15.3023567,12.3148079c-4.1136808,0.4270687-7.5079899,1.3700953-10.1351204,2.2507992
	C3.3150747,15.1866341,1.6194514,15.8479452,0,16.5202408v0.8922234c2.0106978-0.8595295,4.1065564-1.7152653,6.4552999-2.5049486
	c2.5054154-0.8423519,5.7918591-1.7682667,9.7251644-2.176692c0.4407196-0.045743,0.8520069-0.0964794,1.2740822-0.1453524
	v-0.5204849C16.7604752,12.1521444,16.05229,12.2369719,15.3023567,12.3148079z"/>
<path class="st1" d="M2.9180353,20.5847168C2.0009766,20.8967285,1.0271884,21.2320442,0,21.5783463v0.851675
	c1.6271751-0.5336704,3.1430221-1.0576172,4.544611-1.5345573c3.5264788-1.2001076,7.8773975-2.7269402,12.909935-3.9325733
	v-0.7059879C11.7457161,17.5228596,6.8775744,19.2372608,2.9180353,20.5847168z"/>
<path class="st1" d="M5.6610217,24H8.239213c2.7032366-0.8729801,5.7893963-1.7803841,9.215333-2.4629345v-0.636076
	C12.9546785,21.7048569,9.0097208,22.8954411,5.6610217,24z"/>
</svg>
