<?xml version="1.0" encoding="utf-8"?>
<!-- Generator: Adobe Illustrator 22.0.1, SVG Export Plug-In . SVG Version: 6.00 Build 0)  -->
<svg version="1.1" id="Слой_1" xmlns="http://www.w3.org/2000/svg" xmlns:xlink="http://www.w3.org/1999/xlink" x="0px" y="0px"
	 viewBox="0 0 72 72.0003052" style="enable-background:new 0 0 72 72.0003052;" xml:space="preserve">
<style type="text/css">
	.st0{fill-rule:evenodd;clip-rule:evenodd;fill:#BCD031;}
	.st1{fill:#464731;}
	.st2{fill-rule:evenodd;clip-rule:evenodd;fill:#FFFFFF;}
	.st3{fill-rule:evenodd;clip-rule:evenodd;fill:#E4E8D0;}
</style>
<g>
	<g>
		<circle class="st0" cx="36" cy="36.0000763" r="36.0000381"/>
	</g>
	<g>
		<path class="st1" d="M13.5383348,43.7959595c-0.2070312,0-0.375-0.1679688-0.375-0.375V29.0596313
			c0-0.0996094,0.0395508-0.1953125,0.1098633-0.265625L30.489994,11.578186c0.1464844-0.1464844,0.3837891-0.1464844,0.5302734,0
			l17.2163086,17.2167969c0.0703125,0.0703125,0.109375,0.1660156,0.109375,0.265625v10.6103516
			c0,0.2070312-0.1679688,0.375-0.375,0.375s-0.375-0.1679688-0.375-0.375V29.2158813L30.7551308,12.3740845L13.9133348,29.2149048
			v14.2060547C13.9133348,43.6279907,13.7453661,43.7959595,13.5383348,43.7959595z"/>
	</g>
	<g>
		<path class="st1" d="M10.9060106,42.640686c-0.2070312,0-0.375-0.1679688-0.375-0.375v-6.8076172
			c0-0.2070312,0.1679688-0.375,0.375-0.375s0.375,0.1679688,0.375,0.375v6.8076172
			C11.2810106,42.4727173,11.1130419,42.640686,10.9060106,42.640686z"/>
	</g>
	<g>
		<path class="st1" d="M36.8156776,35.5195923H24.6936073c-0.0996094,0-0.1953125-0.0400391-0.265625-0.1103516
			s-0.1098633-0.1660156-0.109375-0.265625l0.0214844-5.6943359c-0.0136719-0.1708984-0.0214844-0.3447266-0.0214844-0.5205078
			c0-3.5488281,2.887207-6.4355469,6.4360352-6.4355469s6.4360352,2.8867188,6.4360352,6.4355469
			c0,0.1816406-0.0078125,0.3603516-0.0224609,0.5371094l0.0224609,5.6777344c0,0.0996094-0.0390625,0.1953125-0.109375,0.265625
			S36.915287,35.5195923,36.8156776,35.5195923z M25.0700722,34.7695923h11.3696289l-0.0205078-5.3339844
			c0.0136719-0.1875,0.0214844-0.3466797,0.0214844-0.5068359c0-3.1347656-2.5507812-5.6855469-5.6860352-5.6855469
			s-5.6860352,2.5507812-5.6860352,5.6855469c0,0.1601562,0.0073242,0.3193359,0.0200195,0.4746094
			c0.0009766,0.0107422,0.0014648,0.0214844,0.0014648,0.0322266L25.0700722,34.7695923z"/>
	</g>
	<g>
		<path class="st1" d="M30.7546425,35.5195923c-0.2070312,0-0.375-0.1679688-0.375-0.375V22.8682251
			c0-0.2070312,0.1679688-0.375,0.375-0.375s0.375,0.1679688,0.375,0.375v12.2763672
			C31.1296425,35.3516235,30.9616737,35.5195923,30.7546425,35.5195923z"/>
	</g>
	<g>
		<path class="st2" d="M50.2057991,17.0960522c2.2696991,0,4.1819,1.5292988,4.7626991,3.6138992
			c0.4420013-0.1873989,0.9275017-0.2908993,1.4378014-0.2908993c1.6236,0,3.0020981,1.049099,3.4944992,2.5066986
			c0.1953011-0.0495987,0.3993988-0.0758991,0.6096992-0.0758991c1.2972031,0,2.3607025,0.9988995,2.4639015,2.2696991H49.3292999
			l-4.4799004-4.4801998v-0.2017994c0.1225014-0.0121994,0.2466011-0.0184994,0.3722-0.0184994
			c0.1038017,0,0.2066002,0.0042992,0.3081017,0.0128002C46.1969986,18.491251,48.0383987,17.0960522,50.2057991,17.0960522z"/>
		<path class="st1" d="M62.9748573,25.4942017H49.3293495c-0.0996094,0-0.1953125-0.0390625-0.265625-0.109375l-4.4794922-4.4794922
			c-0.0703125-0.0703125-0.109375-0.1660156-0.109375-0.265625V20.437561c0-0.1923828,0.1455078-0.3535156,0.3359375-0.3730469
			c0.1523438-0.0146484,0.3164062-0.0195312,0.4628906-0.0205078c0.8085938-1.9990234,2.7558594-3.3232422,4.9316406-3.3232422
			c2.2441406,0,4.2451172,1.421875,5.0009766,3.5039062c0.3867188-0.1201172,0.7890625-0.1806641,1.2001953-0.1806641
			c1.6347656,0,3.0947266,0.9736328,3.7314453,2.4550781c1.5839844-0.21875,3.0800781,1,3.2109375,2.5898438
			c0.0078125,0.1044922-0.0273438,0.2070312-0.0986328,0.2841797
			C63.1799355,25.4502563,63.0793495,25.4942017,62.9748573,25.4942017z M49.484623,24.7442017h13.0419922
			c-0.2539062-0.8789062-1.0722656-1.5195312-2.0166016-1.5195312c-0.1748047,0-0.3486328,0.0214844-0.5166016,0.0644531
			c-0.1943359,0.0478516-0.3857422-0.0585938-0.4482422-0.2431641c-0.4541016-1.3466797-1.7158203-2.2519531-3.1386719-2.2519531
			c-0.4482422,0-0.8828125,0.0878906-1.2919922,0.2617188c-0.0996094,0.0410156-0.2119141,0.0380859-0.3095703-0.0078125
			c-0.0966797-0.046875-0.1689453-0.1337891-0.1982422-0.2373047c-0.546875-1.9667969-2.3574219-3.3398438-4.4013672-3.3398438
			c-1.9511719,0-3.6875,1.2392578-4.3212891,3.0830078c-0.0507812,0.1464844-0.1855469,0.2460938-0.3369141,0.2529297
			L49.484623,24.7442017z"/>
	</g>
	<g>
		<path class="st2" d="M17.302,10.534152c2.269701,0,4.1820011,1.5292997,4.7628002,3.6135998
			c0.3066998-0.1301003,0.6350002-0.2196999,0.9776993-0.2622004v0.3712997L18.7423,18.557251H8.7712011
			c-0.0919008-0.3216991-0.1409006-0.6616001-0.1409006-1.0128002c0-2.0366993,1.6508999-3.6875992,3.6876001-3.6875992
			c0.1036997,0,0.2066002,0.0046005,0.3080997,0.0130997C13.2933006,11.9290514,15.1347008,10.534152,17.302,10.534152z"/>
		<path class="st1" d="M18.7424355,18.9326782H8.771245c-0.1674805,0-0.3149414-0.1113281-0.3608398-0.2724609
			c-0.1030273-0.3623047-0.1552734-0.7373047-0.1552734-1.1162109c0-2.2402344,1.8227539-4.0625,4.0629883-4.0625
			c0.0175781,0,0.0351562,0,0.0532227,0c0.8076172-1.9980469,2.7543945-3.3222656,4.9306631-3.3222656
			c2.2436523,0,4.2451172,1.421875,5.0004883,3.5029297c0.2265625-0.0703125,0.4589844-0.1201172,0.6948242-0.1484375
			c0.1044922-0.0136719,0.2133789,0.0195312,0.2939453,0.0908203s0.1264648,0.1738281,0.1264648,0.28125v0.3710938
			c0,0.0996094-0.0395508,0.1943359-0.1098633,0.265625l-4.300293,4.3007812
			C18.9372597,18.8936157,18.8420448,18.9326782,18.7424355,18.9326782z M9.0666552,18.1826782h9.5205069l3.7333984-3.734375
			c-0.0366211,0.0146484-0.0732422,0.0292969-0.109375,0.0449219c-0.0991211,0.0419922-0.2109375,0.0390625-0.3095703-0.0078125
			c-0.0966797-0.046875-0.1694336-0.1337891-0.1982422-0.2373047c-0.5473633-1.9658203-2.3574219-3.3388672-4.4013672-3.3388672
			c-1.9511709,0-3.687499,1.2392578-4.3212881,3.0830078c-0.0556641,0.1630859-0.2148438,0.2714844-0.3867188,0.2519531
			c-0.0908203-0.0078125-0.1831055-0.0126953-0.2758789-0.0126953c-1.8266602,0-3.3129883,1.4863281-3.3129883,3.3125
			C9.0051317,17.7588501,9.0256395,17.9727173,9.0666552,18.1826782z"/>
	</g>
	<g>
		<path class="st3" d="M10.0354004,32.5629501c-0.7315998,0.7317009-1.9181995,0.7317009-2.6494999,0
			c-0.7315998-0.7312984-0.7315998-1.9178982,0-2.6491985l23.3691006-23.3694l23.3681984,23.3694
			c0.7313995,0.7313004,0.7313995,1.9179001,0,2.6491985c-0.7313004,0.7317009-1.9182014,0.7317009-2.649498,0
			L30.7550011,11.8434515L10.0354004,32.5629501z"/>
		<path class="st1" d="M52.7980995,33.4863892c-0.6005859,0-1.1650391-0.2333984-1.5898438-0.6591797l-20.453125-20.453125
			L10.3005419,32.828186c-0.8496094,0.8496094-2.3310552,0.8505859-3.179688-0.0009766
			c-0.4248047-0.4238281-0.6586914-0.9882812-0.6586914-1.5888672s0.2338867-1.1650391,0.6586914-1.5898438L30.489994,6.2783809
			c0.140625-0.140625,0.3896484-0.140625,0.5302734,0l23.3686523,23.3701172
			c0.4238281,0.4248047,0.6582031,0.9892578,0.6582031,1.5898438s-0.234375,1.1650391-0.6591797,1.5898438
			C53.9641151,33.2529907,53.399662,33.4863892,52.7980995,33.4863892z M30.7551308,11.468811
			c0.0961914,0,0.1918945,0.0361328,0.2651367,0.109375l20.7192383,20.71875
			c0.5654297,0.5683594,1.5537109,0.5654297,2.1181641,0.0009766c0.2832031-0.2832031,0.4394531-0.6591797,0.4394531-1.0595703
			s-0.15625-0.7763672-0.4384766-1.0585938L30.7551308,7.0742793L7.6511273,30.1797485
			c-0.2832031,0.2822266-0.4389648,0.6582031-0.4389648,1.0585938s0.1557617,0.7763672,0.4389648,1.0585938
			c0.5664067,0.5683594,1.5527349,0.5673828,2.1191411,0.0009766c0,0,0,0,0-0.0009766l20.7197266-20.71875
			C30.5632362,11.5049438,30.6589394,11.468811,30.7551308,11.468811z"/>
	</g>
	<g>
		<path class="st3" d="M36.8885994,61.6249504C36.8806992,61.7221527,36.8764,61.8205528,36.8764,61.9197502
			c0,1.9528008,1.5834007,3.5361977,3.5359001,3.5361977c1.952301,0,3.5356979-1.5833969,3.5356979-3.5361977
			c0,1.9528008,1.5834007,3.5361977,3.5359001,3.5361977c1.952301,0,3.5357018-1.5833969,3.5357018-3.5361977
			c0,1.9528008,1.5834007,3.5361977,3.5359001,3.5361977c1.952198,0,3.5356979-1.5833969,3.5356979-3.5361977
			c0,1.9528008,1.5834007,3.5361977,3.5359001,3.5361977c1.9522018,0,3.5356979-1.5833969,3.5356979-3.5361977
			c0-0.0991974-0.0042953-0.1975975-0.0121994-0.2947998c0.0121994-6.3255005,0.0003052-12.6226997,0.0121994-18.9379997
			c-9.4288979,0-18.8574982,0-28.286396,0C36.8883018,49.0022507,36.8764,55.2994499,36.8885994,61.6249504L36.8885994,61.6249504z
			 M58.0916977,61.8434525l-0.0004997,0.0485001l-0.0005989-0.0485001H58.0916977L58.0916977,61.8434525z M51.0201988,61.8434525
			l-0.0005989,0.0485001l-0.0005989-0.0485001H51.0201988L51.0201988,61.8434525z M43.9486008,61.8434525l-0.0006027,0.0485001
			l-0.0005989-0.0485001H43.9486008z"/>
		<path class="st1" d="M61.6272011,65.8311157c-1.5595703,0-2.9082031-0.9169922-3.5361328-2.2402344
			c-0.6279297,1.3232422-1.9765625,2.2402344-3.5351562,2.2402344c-1.5595703,0-2.9082031-0.9169922-3.5361328-2.2402344
			c-0.6279297,1.3232422-1.9765625,2.2402344-3.5361328,2.2402344s-2.9082031-0.9169922-3.5361328-2.2402344
			c-0.6279297,1.3232422-1.9765625,2.2402344-3.5351562,2.2402344c-2.15625,0-3.9111328-1.7548828-3.9111328-3.9111328
			c0-0.1044922,0.0048828-0.2080078,0.0126953-0.3095703c-0.0068359-3.2216797-0.0068359-6.4375-0.0068359-9.6513672
			c0-3.0898438,0-6.1787109-0.0058594-9.2714844c0-0.0996094,0.0390625-0.1953125,0.109375-0.265625
			s0.1660156-0.1103516,0.265625-0.1103516h28.2861366c0.0996094,0,0.1953125,0.0400391,0.265625,0.1103516
			s0.109375,0.1660156,0.109375,0.265625c-0.0058594,3.1572266-0.0058594,6.3105469-0.0058594,9.4648438
			s0,6.3105469-0.0058594,9.4736328c0.0078125,0.0751953,0.0117188,0.1845703,0.0117188,0.2939453
			C65.5373611,64.0762329,63.7834511,65.8311157,61.6272011,65.8311157z M58.4660683,61.9053345
			c0,0.0048828,0,0.0097656,0,0.0146484c0,1.7431641,1.4179688,3.1611328,3.1611328,3.1611328
			c1.7421875,0,3.1601601-1.4179688,3.1601601-3.1611328c0-0.0898438-0.0039062-0.1777344-0.0107422-0.2646484
			c0.0048828-3.1933594,0.0048828-6.3486328,0.0048828-9.5029297c0-3.0302734,0-6.0585938,0.0048828-9.0908203H37.2522011
			c0.0048828,2.9677734,0.0048828,5.9326172,0.0048828,8.8974609c0,3.21875,0,6.4384766,0.0068359,9.6650391
			c0,0.0107422,0,0.0205078-0.0009766,0.03125c-0.0068359,0.0869141-0.0117188,0.1748047-0.0117188,0.2646484
			c0,1.7431641,1.4179688,3.1611328,3.1611328,3.1611328c1.7421875,0,3.1601562-1.4179688,3.1601562-3.1611328
			c0-0.0048828,0-0.0097656,0-0.0136719c0-0.0048828,0-0.0087891,0-0.0136719l0,0l0,0c0-0.0009766,0-0.0009766,0-0.0009766
			c0-0.0029297,0-0.0048828,0-0.0078125c0.0039062-0.2050781,0.171875-0.390625,0.3759766-0.390625
			c0.0029297,0,0.0048828,0,0.0068359,0c0.2070312,0.0039062,0.3720703,0.1513672,0.3681641,0.3583984l-0.0009766,0.0478516
			c0,0,0,0.0039062,0,0.0058594c0,0.0048828,0,0.0097656,0,0.0146484c0,1.7431641,1.4179688,3.1611328,3.1611328,3.1611328
			s3.1611328-1.4179688,3.1611328-3.1611328c0-0.0048828,0-0.0097656,0-0.0136719c0-0.0029297,0-0.0048828,0-0.0068359
			c0-0.0029297,0-0.0048828,0-0.0078125c0-0.2070312,0.1679688-0.3984375,0.375-0.3984375s0.375,0.1435547,0.375,0.3505859
			v0.0478516c0,0.0009766,0,0.0009766,0,0.0019531l0,0c0,0.0009766,0,0.0009766,0,0.0009766s0,0,0,0.0009766l0,0v0.0009766l0,0
			c0,0.0009766,0,0.0009766,0,0.0009766v0.0009766l0,0c0,0.0009766,0,0.0009766,0,0.0009766s0,0,0,0.0009766l0,0v0.0009766
			c0,0,0,0,0,0.0009766l0,0v0.0009766l0,0c0,0.0009766,0,0.0009766,0,0.0009766s0,0,0,0.0009766l0,0
			c0,0.0048828,0,0.0097656,0,0.0146484c0,1.7431641,1.4179688,3.1611328,3.1611328,3.1611328
			c1.7421875,0,3.1601562-1.4179688,3.1601562-3.1611328c0-0.0048828,0-0.0097656,0-0.0136719c0-0.0078125,0-0.0146484,0-0.0224609
			c0.0039062-0.2050781,0.171875-0.390625,0.3759766-0.390625c0.0029297,0,0.0048828,0,0.0068359,0
			c0.2070312,0.0039062,0.3720703,0.1513672,0.3681641,0.3583984l-0.0009766,0.0478516
			C58.4660683,61.9033813,58.4660683,61.9053345,58.4660683,61.9053345z"/>
	</g>
	<g>
		<g>
			<path class="st1" d="M40.4123573,65.8311157c-2.15625,0-3.9111328-1.7548828-3.9111328-3.9111328
				c0-0.109375,0.0048828-0.21875,0.0136719-0.3251953c0.0166016-0.2060547,0.1826172-0.3623047,0.4042969-0.34375
				c0.2060547,0.0166016,0.3603516,0.1982422,0.34375,0.4042969c-0.0068359,0.0869141-0.0117188,0.1748047-0.0117188,0.2646484
				c0,1.7431641,1.4179688,3.1611328,3.1611328,3.1611328c1.7421875,0,3.1601562-1.4179688,3.1601562-3.1611328
				c0-0.0898438-0.0039062-0.1777344-0.0107422-0.2646484l0.0029297-2.3017578c0-0.2070312,0.1679688-0.3740234,0.375-0.3740234
				c0,0,0,0,0.0009766,0c0.2070312,0,0.3740234,0.1689453,0.3740234,0.3759766l-0.0039062,2.2705078
				c0.0078125,0.0751953,0.0117188,0.1845703,0.0117188,0.2939453
				C44.3225136,64.0762329,42.5686073,65.8311157,40.4123573,65.8311157z"/>
		</g>
		<g>
			<path class="st1" d="M47.4836464,65.8311157c-2.15625,0-3.9111328-1.7548828-3.9111328-3.9111328
				c0-0.109375,0.0048828-0.21875,0.0136719-0.3251953l-0.0048828-2.2392578c0-0.0996094,0.0390625-0.1953125,0.109375-0.265625
				c0.2177734-0.2148438,0.6435547-0.0419922,0.6435547,0.2646484c0,0.0175781-0.0009766,0.0341797-0.0029297,0.0507812
				l0.0039062,2.21875c-0.0078125,0.1181641-0.0126953,0.2060547-0.0126953,0.2958984
				c0,1.7431641,1.4179688,3.1611328,3.1611328,3.1611328s3.1611328-1.4179688,3.1611328-3.1611328
				c0-0.0898438-0.0048828-0.1777344-0.0117188-0.2646484l0.0039062-2.3017578c0-0.2070312,0.1679688-0.3740234,0.375-0.3740234
				h0.0009766c0.2070312,0,0.3740234,0.1689453,0.3740234,0.3759766l-0.0048828,2.2705078
				c0.0078125,0.0751953,0.0126953,0.1845703,0.0126953,0.2939453
				C51.3947792,64.0762329,49.6398964,65.8311157,47.4836464,65.8311157z"/>
		</g>
		<g>
			<path class="st1" d="M54.555912,65.8311157c-2.15625,0-3.9111328-1.7548828-3.9111328-3.9111328
				c0-0.109375,0.0039062-0.21875,0.0126953-0.3251953l-0.0048828-2.2392578c0-0.0996094,0.0390625-0.1953125,0.109375-0.265625
				c0.2167969-0.2148438,0.6455078-0.0419922,0.6445312,0.2646484c0,0.0175781-0.0019531,0.0341797-0.0039062,0.0507812
				l0.0039062,2.21875c-0.0078125,0.1181641-0.0117188,0.2060547-0.0117188,0.2958984
				c0,1.7431641,1.4179688,3.1611328,3.1611328,3.1611328c1.7421875,0,3.1601562-1.4179688,3.1601562-3.1611328
				c0-0.0898438-0.0039062-0.1777344-0.0107422-0.2646484l0.0029297-2.3017578c0-0.2070312,0.1679688-0.3740234,0.375-0.3740234
				c0,0,0,0,0.0009766,0c0.2070312,0,0.3740234,0.1689453,0.3740234,0.3759766l-0.0039062,2.2705078
				c0.0078125,0.0751953,0.0117188,0.1845703,0.0117188,0.2939453C58.4660683,64.0762329,56.712162,65.8311157,54.555912,65.8311157
				z"/>
		</g>
		<g>
			<path class="st1" d="M61.6272011,65.8311157c-2.15625,0-3.9111328-1.7548828-3.9111328-3.9111328
				c0-0.1113281,0.0048828-0.2207031,0.0146484-0.3291016l-0.0068359-2.2353516c0-0.0996094,0.0390625-0.1953125,0.109375-0.265625
				c0.2177734-0.2148438,0.6445312-0.0419922,0.6435547,0.2646484c0,0.0175781-0.0009766,0.0341797-0.0029297,0.0507812
				l0.0048828,2.21875c-0.0097656,0.1201172-0.0126953,0.2080078-0.0126953,0.2958984
				c0,1.7431641,1.4179688,3.1611328,3.1611328,3.1611328c1.7421875,0,3.1601601-1.4179688,3.1601601-3.1611328
				c0-0.0898438-0.0039062-0.1777344-0.0107422-0.2646484c-0.0166016-0.2060547,0.1376953-0.3876953,0.34375-0.4042969
				c0.2275391-0.0195312,0.3876953,0.1376953,0.4042969,0.34375c0.0087891,0.1064453,0.0126953,0.2158203,0.0126953,0.3251953
				C65.5373611,64.0762329,63.7834511,65.8311157,61.6272011,65.8311157z"/>
		</g>
		<g>
			<g>
				<path class="st1" d="M36.9143105,59.7285767c-0.2060547,0-0.3740234-0.1660156-0.375-0.3720703
					c-0.0009766-0.2080078,0.1650391-0.3769531,0.3720703-0.3779297c1.7324219-0.0117188,3.140625-1.4287109,3.140625-3.1601562
					c0-0.0898438-0.0048828-0.1777344-0.0117188-0.2646484l0.0039062-2.5566406
					c-0.0019531-0.0166016-0.0029297-0.0332031-0.0029297-0.0498047c0-0.3056641,0.4248047-0.4804688,0.6396484-0.2646484
					c0.0703125,0.0703125,0.1132812,0.1660156,0.1132812,0.265625l-0.0048828,2.5761719
					c0.0078125,0.0751953,0.0126953,0.1845703,0.0126953,0.2939453c0,2.1416016-1.7431641,3.8964844-3.8847656,3.9101562
					C36.9162636,59.7285767,36.915287,59.7285767,36.9143105,59.7285767z"/>
			</g>
			<g>
				<path class="st1" d="M43.9631386,59.7295532c-2.15625,0-3.9111328-1.7548828-3.9111328-3.9111328
					c0-0.1044922,0.0039062-0.2080078,0.0117188-0.3095703l-0.0048828-2.5605469c0-0.2070312,0.1660156-0.375,0.3730469-0.3759766
					c1.7314453-0.0107422,3.140625-1.4287109,3.140625-3.1611328c0-0.0068359,0-0.0136719,0.0009766-0.0205078
					c-0.0009766-0.0078125-0.0009766-0.0146484-0.0009766-0.0214844c0-0.0732422-0.0029297-0.1464844-0.0097656-0.2177734
					c-0.0097656-0.1054688,0.0244141-0.2207031,0.0957031-0.2988281c0.2099609-0.2324219,0.6757812-0.0712891,0.6767578,0.2412109
					c-0.0087891,0.1289062-0.0126953,0.2021484-0.0126953,0.2753906c0,0.0068359,0,0.0136719-0.0009766,0.0214844
					c0.0009766,0.0068359,0.0009766,0.0136719,0.0009766,0.0205078c0,1.7431641,1.4179688,3.1611328,3.1611328,3.1611328
					c0.0996094,0,0.1992188,0.0400391,0.2695312,0.1103516s0.1132812,0.1660156,0.1132812,0.265625l-0.0048828,2.5761719
					c0.0078125,0.0751953,0.0117188,0.1845703,0.0117188,0.2939453
					C47.8732948,57.9746704,46.1193886,59.7295532,43.9631386,59.7295532z M40.8098183,53.3018188l0.0039062,2.2207031
					c0,0.0107422,0,0.0205078-0.0009766,0.03125c-0.0068359,0.0869141-0.0107422,0.1748047-0.0107422,0.2646484
					c0,1.7431641,1.4179688,3.1611328,3.1611328,3.1611328c1.7421875,0,3.1601562-1.4179688,3.1601562-3.1611328
					c0-0.0898438-0.0039062-0.1777344-0.0107422-0.2646484l0.0029297-2.2490234
					c-1.4033203-0.1337891-2.5917969-1.0078125-3.1689453-2.2246094
					C43.3732948,52.2891235,42.196537,53.1611938,40.8098183,53.3018188z"/>
			</g>
			<g>
				<path class="st1" d="M51.0344276,59.7295532c-2.15625,0-3.9111328-1.7548828-3.9111328-3.9111328
					c0-0.1044922,0.0039062-0.2089844,0.0126953-0.3105469l-0.0048828-2.5595703c0-0.2070312,0.1660156-0.375,0.3730469-0.3759766
					c1.7314453-0.0107422,3.140625-1.4287109,3.140625-3.1611328c0-0.0068359,0-0.0136719,0.0009766-0.0205078
					c-0.0009766-0.0078125-0.0009766-0.0146484-0.0009766-0.0214844c0-0.0732422-0.0039062-0.1464844-0.0107422-0.2177734
					c-0.0097656-0.1054688,0.0244141-0.2207031,0.0957031-0.2988281c0.2109375-0.2324219,0.6757812-0.0712891,0.6767578,0.2412109
					c-0.0087891,0.1289062-0.0117188,0.2021484-0.0117188,0.2753906c0,0.0068359,0,0.0136719-0.0009766,0.0214844
					c0.0009766,0.0068359,0.0009766,0.0136719,0.0009766,0.0205078c0,1.7431641,1.4179688,3.1611328,3.1611328,3.1611328
					c0.0996094,0,0.1982422,0.0400391,0.2685547,0.1103516s0.1132812,0.1660156,0.1132812,0.265625l-0.0048828,2.5761719
					c0.0078125,0.0751953,0.0117188,0.1845703,0.0117188,0.2939453
					C54.9445839,57.9746704,53.1906776,59.7295532,51.0344276,59.7295532z M47.8820839,53.3018188l0.0039062,2.2207031
					c0,0.0117188-0.0009766,0.0234375-0.0019531,0.0351562c-0.0078125,0.0849609-0.0107422,0.1728516-0.0107422,0.2607422
					c0,1.7431641,1.4179688,3.1611328,3.1611328,3.1611328c1.7421875,0,3.1601562-1.4179688,3.1601562-3.1611328
					c0-0.0898438-0.0039062-0.1777344-0.0107422-0.2646484l0.0029297-2.2490234
					c-1.4033203-0.1337891-2.5908203-1.0078125-3.1679688-2.2246094
					C50.4455605,52.2891235,49.2688026,53.1611938,47.8820839,53.3018188z"/>
			</g>
			<g>
				<path class="st1" d="M58.1057167,59.7295532c-2.15625,0-3.9111328-1.7548828-3.9111328-3.9111328
					c0-0.1044922,0.0048828-0.2080078,0.0126953-0.3095703l-0.0048828-2.5605469c0-0.2070312,0.1660156-0.375,0.3730469-0.3759766
					c1.7314453-0.0107422,3.140625-1.4287109,3.140625-3.1611328c0-0.0068359,0-0.0136719,0.0009766-0.0205078
					c-0.0009766-0.0078125-0.0009766-0.0146484-0.0009766-0.0214844c0-0.0732422-0.0029297-0.1464844-0.0097656-0.2177734
					c-0.0097656-0.1054688,0.0244141-0.2207031,0.0957031-0.2988281c0.2099609-0.2324219,0.6757812-0.0712891,0.6767578,0.2412109
					c-0.0097656,0.1318359-0.0126953,0.2041016-0.0126953,0.2753906c0,0.0068359,0,0.0136719-0.0009766,0.0214844
					c0.0009766,0.0068359,0.0009766,0.0136719,0.0009766,0.0205078c0,1.7431641,1.4179688,3.1611328,3.1611328,3.1611328
					c0.0996094,0,0.1982422,0.0400391,0.2685547,0.1103516s0.1132812,0.1660156,0.1132812,0.265625l-0.0048828,2.5761719
					c0.0078125,0.0751953,0.0126953,0.1845703,0.0126953,0.2939453
					C62.0168495,57.9746704,60.2619667,59.7295532,58.1057167,59.7295532z M54.953373,53.3018188l0.0039062,2.2207031
					c0,0.0107422,0,0.0205078-0.0009766,0.03125c-0.0068359,0.0869141-0.0117188,0.1748047-0.0117188,0.2646484
					c0,1.7431641,1.4179688,3.1611328,3.1611328,3.1611328s3.1611328-1.4179688,3.1611328-3.1611328
					c0-0.0898438-0.0048828-0.1777344-0.0117188-0.2646484l0.0029297-2.2490234
					c-1.4033203-0.1337891-2.5908203-1.0078125-3.1679688-2.2246094
					C57.5168495,52.2891235,56.3400917,53.1611938,54.953373,53.3018188z"/>
			</g>
			<g>
				<path class="st1" d="M65.1535721,59.7285767c-0.0009766,0-0.0019531,0-0.0029297,0
					c-2.1416054-0.0136719-3.8837929-1.7685547-3.8837929-3.9101562c0-0.109375,0.0039062-0.21875,0.0126953-0.3251953
					l-0.0058594-2.5449219c0-0.2070312,0.1669922-0.3759766,0.3740234-0.3759766c0.0009766,0,0.0009766,0,0.0009766,0
					c0.2070312,0,0.375,0.1669922,0.375,0.3740234l0.0048828,2.5761719
					c-0.0078125,0.1181641-0.0117188,0.2060547-0.0117188,0.2958984c0,1.7314453,1.4082031,3.1484375,3.1396523,3.1601562
					c0.2070312,0.0009766,0.3730469,0.1699219,0.3720703,0.3779297
					C65.5275955,59.562561,65.3596268,59.7285767,65.1535721,59.7285767z"/>
			</g>
		</g>
		<g>
			<g>
				<path class="st1" d="M40.4123573,53.3223267c-2.15625,0-3.9111328-1.7548828-3.9111328-3.9111328
					c0-0.109375,0.0048828-0.2167969,0.0136719-0.3251953c0.0166016-0.2060547,0.1835938-0.3623047,0.4042969-0.34375
					c0.2060547,0.0166016,0.3603516,0.1972656,0.34375,0.4042969c-0.0068359,0.0869141-0.0117188,0.1748047-0.0117188,0.2646484
					c0,1.7431641,1.4179688,3.1611328,3.1611328,3.1611328c1.7421875,0,3.1601562-1.4179688,3.1601562-3.1611328
					c0-0.0898438-0.0039062-0.1777344-0.0107422-0.2646484l0.0107422-6.4609375c0-0.2070312,0.1679688-0.3740234,0.375-0.3740234
					c0,0,0,0,0.0009766,0c0.2070312,0,0.3740234,0.1689453,0.3740234,0.3759766l-0.0117188,6.4296875
					c0.0078125,0.0771484,0.0117188,0.1845703,0.0117188,0.2939453
					C44.3225136,51.5674438,42.5686073,53.3223267,40.4123573,53.3223267z"/>
			</g>
			<g>
				<path class="st1" d="M47.4836464,53.3223267c-2.15625,0-3.9111328-1.7548828-3.9111328-3.9111328
					c0-0.109375,0.0048828-0.2167969,0.0136719-0.3251953l-0.0136719-6.3984375
					c0-0.2070312,0.1669922-0.3759766,0.3740234-0.3759766c0.0009766,0,0.0009766,0,0.0009766,0
					c0.2070312,0,0.375,0.1669922,0.375,0.3740234l0.0126953,6.4296875
					c-0.0078125,0.1181641-0.0126953,0.2060547-0.0126953,0.2958984c0,1.7431641,1.4179688,3.1611328,3.1611328,3.1611328
					s3.1611328-1.4179688,3.1611328-3.1611328c0-0.0898438-0.0048828-0.1777344-0.0117188-0.2646484l0.0117188-6.4609375
					c0-0.2070312,0.1679688-0.3740234,0.375-0.3740234c0,0,0,0,0.0009766,0c0.2070312,0,0.3740234,0.1689453,0.3740234,0.3759766
					l-0.0126953,6.4296875c0.0078125,0.0771484,0.0126953,0.1845703,0.0126953,0.2939453
					C51.3947792,51.5674438,49.6398964,53.3223267,47.4836464,53.3223267z"/>
			</g>
			<g>
				<path class="st1" d="M54.5549355,53.3223267c-2.15625,0-3.9101562-1.7548828-3.9101562-3.9111328
					c0-0.1113281,0.0048828-0.2197266,0.0146484-0.328125l-0.0146484-6.3955078
					c0-0.2070312,0.1669922-0.3759766,0.3740234-0.3759766c0.0009766,0,0.0009766,0,0.0009766,0
					c0.2070312,0,0.375,0.1669922,0.375,0.3740234l0.0126953,6.4296875
					c-0.0097656,0.1210938-0.0126953,0.2080078-0.0126953,0.2958984c0,1.7431641,1.4179688,3.1611328,3.1601562,3.1611328
					c1.7431641,0,3.1611328-1.4179688,3.1611328-3.1611328c0-0.0878906-0.0029297-0.1748047-0.0107422-0.2617188
					l0.0107422-6.4638672c0-0.2070312,0.1679688-0.3740234,0.375-0.3740234c0,0,0,0,0.0009766,0
					c0.2070312,0,0.3740234,0.1689453,0.3740234,0.3759766l-0.0126953,6.4296875
					c0.0078125,0.0742188,0.0126953,0.1826172,0.0126953,0.2939453
					C58.4660683,51.5674438,56.7111855,53.3223267,54.5549355,53.3223267z"/>
			</g>
			<g>
				<path class="st1" d="M61.6272011,53.3223267c-2.15625,0-3.9111328-1.7548828-3.9111328-3.9111328
					c0-0.1113281,0.0048828-0.2197266,0.0146484-0.328125l-0.0146484-6.3955078
					c0-0.2070312,0.1669922-0.3759766,0.3740234-0.3759766h0.0009766c0.2070312,0,0.375,0.1669922,0.375,0.3740234
					l0.0126953,6.4296875c-0.0097656,0.1210938-0.0126953,0.2080078-0.0126953,0.2958984
					c0,1.7431641,1.4179688,3.1611328,3.1611328,3.1611328c1.7421875,0,3.1601601-1.4179688,3.1601601-3.1611328
					c0-0.0898438-0.0039062-0.1777344-0.0107422-0.2646484c-0.0166016-0.2070312,0.1376953-0.3876953,0.34375-0.4042969
					c0.2255859-0.0166016,0.3886719,0.1376953,0.4042969,0.34375c0.0087891,0.1083984,0.0126953,0.2158203,0.0126953,0.3251953
					C65.5373611,51.5674438,63.7834511,53.3223267,61.6272011,53.3223267z"/>
			</g>
		</g>
	</g>
</g>
</svg>
