<?xml version="1.0" encoding="utf-8"?>
<!-- Generator: Adobe Illustrator 22.0.1, SVG Export Plug-In . SVG Version: 6.00 Build 0)  -->
<svg version="1.1" id="_x31_" xmlns="http://www.w3.org/2000/svg" xmlns:xlink="http://www.w3.org/1999/xlink" x="0px" y="0px"
	 viewBox="0 0 88 88" style="enable-background:new 0 0 88 88;" xml:space="preserve">
<style type="text/css">
	.st0{fill-rule:evenodd;clip-rule:evenodd;fill:#F8F9F4;}
	.st1{fill-rule:evenodd;clip-rule:evenodd;fill:#FFFFFF;}
	.st2{fill:#96B11F;}
	.st3{fill:#464731;}
	.st4{fill-rule:evenodd;clip-rule:evenodd;fill:#E4E8D0;}
	.st5{fill-rule:evenodd;clip-rule:evenodd;fill:#464731;}
</style>
<g>
	<path class="st0" d="M44,88c24.2348251,0,44-19.7649612,44-43.9995232C88,19.7649612,68.2348251,0,44,0S0,19.7649612,0,44.0004768
		C0,68.2350388,19.7651749,88,44,88z"/>
</g>
<g>
	<g>
		<g>
			<rect x="6.5295992" y="57.4812775" class="st1" width="42.5025826" height="5.3092146"/>
		</g>
		<g>
			<path class="st2" d="M49.0319824,63.5322266H6.529541c-0.4101562,0-0.7421875-0.3320312-0.7421875-0.7421875v-5.3085938
				c0-0.4101562,0.3320312-0.7421875,0.7421875-0.7421875h42.5024414c0.4101562,0,0.7421875,0.3320312,0.7421875,0.7421875
				v5.3085938C49.7741699,63.2001953,49.4421387,63.5322266,49.0319824,63.5322266z M7.2717285,62.0478516h41.0180664v-3.8242188
				H7.2717285V62.0478516z"/>
		</g>
	</g>
	<g>
		<g>
			<rect x="11.1055689" y="57.4812775" class="st1" width="33.3539391" height="5.3092146"/>
		</g>
		<g>
			<path class="st2" d="M44.4597168,63.5322266H11.1057129c-0.4101562,0-0.7421875-0.3320312-0.7421875-0.7421875v-5.3085938
				c0-0.4101562,0.3320312-0.7421875,0.7421875-0.7421875h33.3540039c0.4101562,0,0.7421875,0.3320312,0.7421875,0.7421875
				v5.3085938C45.2019043,63.2001953,44.869873,63.5322266,44.4597168,63.5322266z M11.8479004,62.0478516h31.8696289v-3.8242188
				H11.8479004V62.0478516z"/>
		</g>
	</g>
	<g>
		<g>
			<rect x="15.8860893" y="57.4812775" class="st1" width="23.7896023" height="5.3092146"/>
		</g>
		<g>
			<path class="st2" d="M39.6755371,63.5322266H15.8859863c-0.4101562,0-0.7421875-0.3320312-0.7421875-0.7421875v-5.3085938
				c0-0.4101562,0.3320312-0.7421875,0.7421875-0.7421875h23.7895508c0.4101562,0,0.7421875,0.3320312,0.7421875,0.7421875
				v5.3085938C40.4177246,63.2001953,40.0856934,63.5322266,39.6755371,63.5322266z M16.6281738,62.0478516h22.3051758v-3.8242188
				H16.6281738V62.0478516z"/>
		</g>
	</g>
	<g>
		<g>
			<rect x="20.9363174" y="57.4812775" class="st1" width="13.6891451" height="5.3092146"/>
		</g>
		<g>
			<path class="st2" d="M34.6252441,63.5322266H20.9362793c-0.4101562,0-0.7421875-0.3320312-0.7421875-0.7421875v-5.3085938
				c0-0.4101562,0.3320312-0.7421875,0.7421875-0.7421875h13.6889648c0.4101562,0,0.7421875,0.3320312,0.7421875,0.7421875
				v5.3085938C35.3674316,63.2001953,35.0354004,63.5322266,34.6252441,63.5322266z M21.6784668,62.0478516h12.2045898v-3.8242188
				H21.6784668V62.0478516z"/>
		</g>
	</g>
	<g>
		<g>
			<rect x="25.6261101" y="57.4812775" class="st1" width="4.3161592" height="5.3092146"/>
		</g>
		<g>
			<path class="st2" d="M29.9421387,63.5322266h-4.315918c-0.4101562,0-0.7421875-0.3320312-0.7421875-0.7421875v-5.3085938
				c0-0.4101562,0.3320312-0.7421875,0.7421875-0.7421875h4.315918c0.4101562,0,0.7421875,0.3320312,0.7421875,0.7421875v5.3085938
				C30.6843262,63.2001953,30.3522949,63.5322266,29.9421387,63.5322266z M26.3684082,62.0478516h2.831543v-3.8242188h-2.831543
				V62.0478516z"/>
		</g>
	</g>
</g>
<g>
	<g>
		<path class="st3" d="M78.470459,69.2724609H23.7658691c-0.4101562,0-0.7421875-0.3320312-0.7421875-0.7421875
			s0.3320312-0.7421875,0.7421875-0.7421875H78.470459c0.4101562,0,0.7421875,0.3320312,0.7421875,0.7421875
			S78.8806152,69.2724609,78.470459,69.2724609z"/>
	</g>
</g>
<g>
	<g>
		<g>
			<rect x="12.6083479" y="63.2276344" class="st1" width="42.5025826" height="5.3075647"/>
		</g>
		<g>
			<path class="st2" d="M55.111084,69.2773438H12.6081543c-0.4101562,0-0.7421875-0.3320312-0.7421875-0.7421875v-5.3076172
				c0-0.4101562,0.3320312-0.7421875,0.7421875-0.7421875H55.111084c0.4101562,0,0.7421875,0.3320312,0.7421875,0.7421875v5.3076172
				C55.8532715,68.9453125,55.5212402,69.2773438,55.111084,69.2773438z M13.3503418,67.7929688h41.0185547v-3.8232422H13.3503418
				V67.7929688z"/>
		</g>
	</g>
	<g>
		<g>
			<rect x="17.1859684" y="63.2276344" class="st1" width="33.3539391" height="5.3075647"/>
		</g>
		<g>
			<path class="st2" d="M50.5397949,69.2773438H17.185791c-0.4101562,0-0.7421875-0.3320312-0.7421875-0.7421875v-5.3076172
				c0-0.4101562,0.3320312-0.7421875,0.7421875-0.7421875h33.3540039c0.4101562,0,0.7421875,0.3320312,0.7421875,0.7421875
				v5.3076172C51.2819824,68.9453125,50.9499512,69.2773438,50.5397949,69.2773438z M17.9279785,67.7929688h31.8696289v-3.8232422
				H17.9279785V67.7929688z"/>
		</g>
	</g>
	<g>
		<g>
			<rect x="21.964838" y="63.2276344" class="st1" width="23.7896023" height="5.3075647"/>
		</g>
		<g>
			<path class="st2" d="M45.7546387,69.2773438H21.9645996c-0.4101562,0-0.7421875-0.3320312-0.7421875-0.7421875v-5.3076172
				c0-0.4101562,0.3320312-0.7421875,0.7421875-0.7421875h23.7900391c0.4101562,0,0.7421875,0.3320312,0.7421875,0.7421875
				v5.3076172C46.4968262,68.9453125,46.1647949,69.2773438,45.7546387,69.2773438z M22.7067871,67.7929688h22.3056641v-3.8232422
				H22.7067871V67.7929688z"/>
		</g>
	</g>
	<g>
		<g>
			<rect x="27.0175419" y="63.2276344" class="st1" width="13.6916199" height="5.3075647"/>
		</g>
		<g>
			<path class="st2" d="M40.7092285,69.2773438H27.017334c-0.4101562,0-0.7421875-0.3320312-0.7421875-0.7421875v-5.3076172
				c0-0.4101562,0.3320312-0.7421875,0.7421875-0.7421875h13.6918945c0.4101562,0,0.7421875,0.3320312,0.7421875,0.7421875
				v5.3076172C41.451416,68.9453125,41.1193848,69.2773438,40.7092285,69.2773438z M27.7595215,67.7929688H39.967041v-3.8232422
				H27.7595215V67.7929688z"/>
		</g>
	</g>
	<g>
		<g>
			<rect x="31.7056828" y="63.2276344" class="st1" width="4.3153348" height="5.3075647"/>
		</g>
		<g>
			<path class="st2" d="M36.0212402,69.2773438h-4.3154297c-0.4101562,0-0.7421875-0.3320312-0.7421875-0.7421875v-5.3076172
				c0-0.4101562,0.3320312-0.7421875,0.7421875-0.7421875h4.3154297c0.4101562,0,0.7421875,0.3320312,0.7421875,0.7421875v5.3076172
				C36.7634277,68.9453125,36.4313965,69.2773438,36.0212402,69.2773438z M32.447998,67.7929688h2.8310547v-3.8232422H32.447998
				V67.7929688z"/>
		</g>
	</g>
</g>
<g>
	<g>
		<path class="st1" d="M44.4413261,67.8273468c13.4557304,0,24.4296455-10.977211,24.4296455-24.4321175
			c0-13.4557266-10.9739151-24.4304676-24.4296455-24.4304676c-13.4549026,0-24.4321175,10.974741-24.4321175,24.4304676
			C20.0092087,56.8501358,30.9864235,67.8273468,44.4413261,67.8273468z"/>
	</g>
	<g>
		<path class="st2" d="M44.4411621,68.5693359c-13.8813477,0-25.1743164-11.2929688-25.1743164-25.1738281
			s11.2929688-25.1728516,25.1743164-25.1728516c13.8798828,0,25.171875,11.2919922,25.171875,25.1728516
			S58.3210449,68.5693359,44.4411621,68.5693359z M44.4411621,19.7070312c-13.0625,0-23.6899414,10.6269531-23.6899414,23.6884766
			c0,13.0625,10.6274414,23.6894531,23.6899414,23.6894531c13.0610352,0,23.6875-10.6269531,23.6875-23.6894531
			C68.1286621,30.3339844,57.5021973,19.7070312,44.4411621,19.7070312z"/>
	</g>
</g>
<g>
	<g>
		<path class="st4" d="M44.4413261,64.1215363c11.4143562,0,20.723835-9.3127708,20.723835-20.7263069
			c0-11.4143562-9.3094788-20.7246571-20.723835-20.7246571s-20.7263069,9.3103008-20.7263069,20.7246571
			C23.7150192,54.8087654,33.0269699,64.1215363,44.4413261,64.1215363z"/>
	</g>
	<g>
		<path class="st2" d="M44.4411621,64.8632812c-11.8378906,0-21.4682617-9.6298828-21.4682617-21.4677734
			c0-11.8369141,9.6303711-21.4667969,21.4682617-21.4667969c11.8364258,0,21.4663086,9.6298828,21.4663086,21.4667969
			C65.9074707,55.2333984,56.2775879,64.8632812,44.4411621,64.8632812z M44.4411621,23.4130859
			c-11.019043,0-19.9838867,8.9638672-19.9838867,19.9824219s8.9648438,19.9833984,19.9838867,19.9833984
			c11.0180664,0,19.9819336-8.9648438,19.9819336-19.9833984S55.4592285,23.4130859,44.4411621,23.4130859z"/>
	</g>
</g>
<g>
	<g>
		<path class="st5" d="M37.5163383,55.5477829v-4.8836212h-4.7227859v-2.7845116h4.7227859v-2.2987099h-4.7227859v-2.7820358
			h4.7227859V31.2468052h9.1766815c1.6108284,0,2.8455505,0.0791798,3.6983871,0.2309418
			c1.1951294,0.1987762,2.19561,0.5781841,3.004734,1.1316204c0.809124,0.5616875,1.4590645,1.3427696,1.9522934,2.3432465
			c0.4907532,1.0004807,0.7340698,2.1040573,0.7340698,3.3082581c0,2.0595169-0.6573639,3.8064384-1.9737396,5.2325096
			c-1.3139,1.4310226-3.6934357,2.1436462-7.1328392,2.1436462H40.742939v2.2426224h4.6782455v2.7845116H40.742939v4.8836212
			H37.5163383L37.5163383,55.5477829z M40.742939,42.7873573h6.2775269c2.0809593,0,3.5532227-0.3860054,4.4283295-1.1596642
			c0.8718109-0.7761345,1.3064804-1.8615646,1.3064804-3.2711449c0-1.0120239-0.252388-1.8821831-0.7687111-2.6071815
			c-0.5146751-0.7241707-1.1926575-1.2033768-2.0298233-1.4351425c-0.542717-0.1426926-1.5456696-0.2177467-2.9973106-0.2177467
			H40.742939V42.7873573z"/>
	</g>
</g>
</svg>
