<?xml version="1.0" encoding="utf-8"?>
<!-- Generator: Adobe Illustrator 22.0.1, SVG Export Plug-In . SVG Version: 6.00 Build 0)  -->
<svg version="1.1" id="_x31_" xmlns="http://www.w3.org/2000/svg" xmlns:xlink="http://www.w3.org/1999/xlink" x="0px" y="0px"
	 viewBox="0 0 88 88" style="enable-background:new 0 0 88 88;" xml:space="preserve">
<style type="text/css">
	.st0{fill-rule:evenodd;clip-rule:evenodd;fill:#F8F9F4;}
	.st1{fill-rule:evenodd;clip-rule:evenodd;fill:#96B11F;}
	.st2{fill:#464731;}
	.st3{fill-rule:evenodd;clip-rule:evenodd;fill:#FFFFFF;}
	.st4{fill:#FFFFFF;}
</style>
<g>
	<g>
		<circle class="st0" cx="44" cy="44" r="44"/>
	</g>
	<g>
		<g>
			<polygon class="st1" points="29.947422,13.753871 63.8752251,13.753871 71.413887,21.2896786 71.413887,68.7817459 
				29.947422,68.7817459 			"/>
			<path class="st2" d="M71.4137115,69.6390228H29.947401c-0.4736328,0-0.8574219-0.3837891-0.8574219-0.8574219V13.7537661
				c0-0.4736328,0.3837891-0.8574219,0.8574219-0.8574219h33.9277344c0.2275429,0,0.4453163,0.090332,0.6064491,0.2509766
				l7.5385742,7.5361319c0.1606445,0.1606445,0.2509766,0.3789062,0.2509766,0.6064453v47.491703
				C72.2711334,69.2552338,71.8873444,69.6390228,71.4137115,69.6390228z M30.8048229,67.9241791h39.7514648V21.6453667
				l-7.0361366-7.0341787h-32.715332V67.9241791z"/>
		</g>
		<g>
			<polygon class="st3" points="71.416748,21.2382259 63.9266777,21.2382259 63.9266777,13.753871 			"/>
			<path class="st2" d="M71.4166412,22.095562h-7.4897499c-0.4736328,0-0.8574219-0.3837891-0.8574219-0.8574219v-7.484374
				c0-0.3466797,0.2089844-0.659668,0.5292969-0.7919922c0.3178711-0.1347656,0.6875038-0.0605469,0.9340858,0.1855469
				l7.4897461,7.484374c0.2456055,0.2451172,0.3188477,0.6137695,0.1865234,0.9345703
				C72.0763092,21.8865776,71.7633209,22.095562,71.4166412,22.095562z M64.784317,20.3807182h4.5610352L64.784317,15.823102
				V20.3807182z"/>
		</g>
		<g>
			<path class="st3" d="M38.7190285,39.4636536c3.1223717,0.7003174,5.8855324,2.3420181,7.9817238,4.6106682l3.9751396-2.2934265
				l3.3958282,5.8807716l-3.9703751,2.292469c0.4535408,1.4559021,0.6993637,3.0032692,0.6993637,4.6106682
				c0,1.604538-0.2429657,3.1519089-0.6993637,4.6078072l3.9722824,2.2905655l-3.3977356,5.8817253l-3.9722824-2.2953339
				c-2.0961914,2.2715073-4.8622093,3.913208-7.984581,4.6135254v4.5830383h-6.789753v-4.5830383
				c-3.1195126-0.7003174-5.8826752-2.3448715-7.9779129-4.6135254l-3.9732342,2.2953339l-3.3948765-5.8817253l3.9675179-2.2877045
				c-0.4516335-1.4587593-0.6974602-3.0061302-0.6974602-4.6106682c0-1.607399,0.2439213-3.1547661,0.6974602-4.6135254
				l-3.9675179-2.2924728l3.3977356-5.8798141l3.9722805,2.29533c2.0933323-2.2686501,4.8564949-3.9103508,7.9760075-4.6106682
				V34.877758h6.789753V39.4636536L38.7190285,39.4636536z M35.3298683,49.0279999
				c-3.057579,0-5.5368023,2.4792252-5.5368023,5.5368042c0,3.0547218,2.4792233,5.5339432,5.5368023,5.5339432
				c3.0547218,0,5.5339432-2.4792213,5.5339432-5.5339432C40.8638115,51.507225,38.3845901,49.0279999,35.3298683,49.0279999z"/>
			<path class="st2" d="M38.7188835,75.1033783h-6.7895489c-0.4736328,0-0.8574219-0.3837891-0.8574219-0.8574219v-3.9116211
				c-2.75-0.7397461-5.2416992-2.1811523-7.2729492-4.206543l-3.3916016,1.9599609
				c-0.1972656,0.1137695-0.4311523,0.1445312-0.6508789,0.0854492c-0.2197266-0.0585938-0.4072266-0.2026367-0.5209961-0.3994141
				l-3.3950195-5.8818398c-0.1137695-0.1972656-0.1445312-0.4311523-0.0854492-0.6508789s0.2026367-0.4072266,0.3999023-0.5205078
				l3.387207-1.953125c-0.362793-1.371582-0.5463867-2.7822266-0.5463867-4.2026367
				c0-1.4272461,0.1831055-2.8388672,0.5458984-4.2060547l-3.3876953-1.9570312
				c-0.1967773-0.1137695-0.340332-0.3012695-0.3994141-0.5209961c-0.0585938-0.2197266-0.027832-0.4536133,0.0859375-0.6508789
				l3.3979492-5.8798828c0.2373047-0.409668,0.7612305-0.550293,1.171875-0.3134766l3.390625,1.9589844
				c2.0273438-2.0229492,4.5185547-3.4628906,7.2709961-4.203125v-3.9145508c0-0.4736328,0.3837891-0.8574219,0.8574219-0.8574219
				h6.7895489c0.4736328,0,0.8574219,0.3837891,0.8574219,0.8574219v3.9140625
				c2.753418,0.7402344,5.2460938,2.1801758,7.2768555,4.2045898l3.394043-1.9580078
				c0.4130859-0.2363281,0.9350586-0.0957031,1.1713867,0.3139648l3.3959961,5.8803711
				c0.1137695,0.1967773,0.1445312,0.4306641,0.0854492,0.6503906c-0.0585938,0.2197266-0.2021484,0.4072266-0.3994141,0.5209961
				l-3.3896484,1.9570312c0.3632812,1.3681641,0.5473633,2.7788086,0.5473633,4.2036133
				c0,1.4301758-0.1835938,2.8398438-0.5463867,4.2006836l3.3901367,1.9550781
				c0.1972656,0.1132812,0.3413086,0.3007812,0.3999023,0.5205078c0.059082,0.2197266,0.0283203,0.4541016-0.0854492,0.6513672
				l-3.3979492,5.8818398c-0.1137695,0.1967773-0.3012695,0.340332-0.5209961,0.3994141
				c-0.2192383,0.0581055-0.4541016,0.0273438-0.6508789-0.0859375l-3.390625-1.9594727
				c-2.0297852,2.0249023-4.5234375,3.4658203-7.2797852,4.206543v3.9111328
				C39.5763054,74.7195892,39.1925163,75.1033783,38.7188835,75.1033783z M32.7867546,73.3885345h5.074707v-3.7255859
				c0-0.4013672,0.2783203-0.7490234,0.6699219-0.8369141c2.9038086-0.6508789,5.512207-2.1582031,7.5419922-4.3579102
				c0.2719727-0.2944336,0.7119141-0.3603516,1.0595703-0.1611328l3.2294922,1.8666992l2.5395508-4.3964882l-3.2290039-1.8618164
				c-0.3481445-0.2006836-0.5102539-0.6157227-0.3901367-0.9990234c0.4384766-1.3979492,0.6606445-2.8618164,0.6606445-4.3515625
				c0-1.4824219-0.2226562-2.9482422-0.6611328-4.355957c-0.1191406-0.3828125,0.0429688-0.796875,0.3901367-0.9975586
				l3.2280273-1.8637695l-2.5385742-4.3955078l-3.2324219,1.8647461c-0.347168,0.2006836-0.7861328,0.1337891-1.0585938-0.1606445
				c-2.0317383-2.1992188-4.6391602-3.7050781-7.5395508-4.3554688c-0.3916016-0.0878906-0.6699219-0.4355469-0.6699219-0.8369141
				v-3.7285156h-5.074707v3.7285156c0,0.4013672-0.2783203,0.7490234-0.6694336,0.8369141
				c-2.9003887,0.6508789-5.5053692,2.1567383-7.5336895,4.3549805c-0.2714844,0.2949219-0.7104492,0.3618164-1.0595703,0.1611328
				l-3.2294922-1.8662109L17.75453,47.345562l3.2255859,1.8632812c0.3466797,0.2006836,0.5087891,0.6147461,0.3896484,0.9975586
				c-0.4375,1.4057617-0.6591797,2.8725586-0.6591797,4.3583984c0,1.4780273,0.222168,2.9438477,0.659668,4.3574219
				c0.1181641,0.3823242-0.0439453,0.7963867-0.3911133,0.9960938l-3.2246094,1.859375l2.5375977,4.3955116l3.2299805-1.8662109
				c0.3486328-0.1992188,0.7875977-0.1333008,1.059082,0.1606445c2.0327148,2.2011719,4.6386719,3.7084961,7.5361309,4.3583984
				c0.3911133,0.0878906,0.6694336,0.4355469,0.6694336,0.8369141V73.3885345z M35.3297234,60.9564018
				c-3.525877,0-6.3940411-2.8671875-6.3940411-6.3916016c0-3.5258789,2.8681641-6.394043,6.3940411-6.394043
				c3.5244141,0,6.3916016,2.8681641,6.3916016,6.394043C41.7213249,58.0892143,38.8541374,60.9564018,35.3297234,60.9564018z
				 M35.3297234,49.885601c-2.5800781,0-4.6791973,2.0991211-4.6791973,4.6791992
				c0,2.5786133,2.0991192,4.6767578,4.6791973,4.6767578c2.5786133,0,4.6767578-2.0981445,4.6767578-4.6767578
				C40.0064812,51.9847221,37.9083366,49.885601,35.3297234,49.885601z"/>
		</g>
		<g>
			<path class="st4" d="M65.884903,27.4788628H35.4727898c-0.4736328,0-0.8574219-0.3837891-0.8574219-0.8574219
				s0.3837891-0.8574219,0.8574219-0.8574219H65.884903c0.4736328,0,0.8574219,0.3837891,0.8574219,0.8574219
				S66.3585358,27.4788628,65.884903,27.4788628z"/>
		</g>
		<g>
			<path class="st4" d="M65.884903,34.5496635H51.4840202c-0.4736328,0-0.8574219-0.3837891-0.8574219-0.8574219
				s0.3837891-0.8574219,0.8574219-0.8574219H65.884903c0.4736328,0,0.8574219,0.3837891,0.8574219,0.8574219
				S66.3585358,34.5496635,65.884903,34.5496635z"/>
		</g>
	</g>
</g>
</svg>
