<?xml version="1.0" encoding="utf-8"?>
<!-- Generator: Adobe Illustrator 22.0.1, SVG Export Plug-In . SVG Version: 6.00 Build 0)  -->
<svg version="1.1" id="Слой_1" xmlns="http://www.w3.org/2000/svg" xmlns:xlink="http://www.w3.org/1999/xlink" x="0px" y="0px"
	 viewBox="0 0 45.4 45.4" style="enable-background:new 0 0 45.4 45.4;" xml:space="preserve">
<style type="text/css">
	.st0{fill:url(#SVGID_1_);}
	.st1{fill:#FFFFFF;}
</style>
<linearGradient id="SVGID_1_" gradientUnits="userSpaceOnUse" x1="0" y1="22.7" x2="45.3543" y2="22.7">
	<stop  offset="0" style="stop-color:#FFC107"/>
	<stop  offset="0.507" style="stop-color:#F44336"/>
	<stop  offset="0.99" style="stop-color:#9C27B0"/>
</linearGradient>
<circle class="st0" cx="22.7" cy="22.7" r="22.7"/>
<g>
	<path class="st1" d="M29.1,5.7H16.3c-5.9,0-10.6,4.8-10.6,10.6v12.8c0,5.9,4.8,10.6,10.6,10.6h12.8c5.9,0,10.6-4.8,10.6-10.6V16.3
		C39.7,10.5,34.9,5.7,29.1,5.7z M36.5,29.1c0,4.1-3.3,7.4-7.4,7.4H16.3c-4.1,0-7.4-3.3-7.4-7.4V16.3c0-4.1,3.3-7.4,7.4-7.4h12.8
		c4.1,0,7.4,3.3,7.4,7.4V29.1z"/>
	<path class="st1" d="M22.7,14.2c-4.7,0-8.5,3.8-8.5,8.5s3.8,8.5,8.5,8.5s8.5-3.8,8.5-8.5S27.4,14.2,22.7,14.2z M22.7,28
		c-2.9,0-5.3-2.4-5.3-5.3c0-2.9,2.4-5.3,5.3-5.3s5.3,2.4,5.3,5.3C28,25.6,25.6,28,22.7,28z"/>
	<path class="st1" d="M31.8,12.4c-0.6,0-1.1,0.5-1.1,1.1s0.5,1.1,1.1,1.1s1.1-0.5,1.1-1.1S32.5,12.4,31.8,12.4z"/>
</g>
</svg>
