<?xml version="1.0" encoding="utf-8"?>
<!-- Generator: Adobe Illustrator 22.0.1, SVG Export Plug-In . SVG Version: 6.00 Build 0)  -->
<svg version="1.1" id="_x31_" xmlns="http://www.w3.org/2000/svg" xmlns:xlink="http://www.w3.org/1999/xlink" x="0px" y="0px"
	 viewBox="0 0 112.2084961 101.2504883" style="enable-background:new 0 0 112.2084961 101.2504883;" xml:space="preserve">
<style type="text/css">
	.st0{fill:#464731;}
	.st1{fill-rule:evenodd;clip-rule:evenodd;fill:#BCD031;}
	.st2{fill-rule:evenodd;clip-rule:evenodd;fill:#E4E8D0;}
	.st3{fill-rule:evenodd;clip-rule:evenodd;fill:#96B11F;}
</style>
<g>
	<path class="st0" d="M111.5834961,101.2504883H0.625c-0.3452148,0-0.625-0.2802734-0.625-0.625s0.2797852-0.625,0.625-0.625
		h110.9584961c0.3452148,0,0.625,0.2802734,0.625,0.625S111.9287109,101.2504883,111.5834961,101.2504883z"/>
</g>
<g>
	<g>
		<rect x="38.8434296" y="52.9453697" class="st1" width="34.7164612" height="44.6699295"/>
		<path class="st0" d="M73.5600586,98.2407227H38.8432617c-0.3452148,0-0.625-0.2802734-0.625-0.625V52.9453125
			c0-0.3452148,0.2797852-0.625,0.625-0.625h34.7167969c0.3452148,0,0.625,0.2797852,0.625,0.625v44.6704102
			C74.1850586,97.9604492,73.9052734,98.2407227,73.5600586,98.2407227z M39.4682617,96.9907227h33.4667969V53.5703125H39.4682617
			V96.9907227z"/>
	</g>
	<g>
		<path class="st1" d="M69.0124969,59.4476242c4.8752289,1.0583458,8.5092773,5.1605682,8.5092773,10.0593033v28.107872H60.5032158
			v-28.107872C60.5032158,64.6081924,64.1372681,60.50597,69.0124969,59.4476242z"/>
		<path class="st0" d="M77.5219727,98.2397461H60.503418c-0.3452148,0-0.625-0.2802734-0.625-0.625V69.5073242
			c0-5.1318359,3.7016602-9.5195312,9.0014648-10.6699219c0.0878906-0.0195312,0.1777344-0.0195312,0.265625,0
			c5.2998047,1.1503906,9.0014648,5.5380859,9.0014648,10.6699219v28.1074219
			C78.1469727,97.9594727,77.8671875,98.2397461,77.5219727,98.2397461z M61.128418,96.9897461h15.7685547V69.5073242
			c0-4.4960938-3.2348633-8.3505859-7.8842773-9.4189453c-4.6494141,1.0683594-7.8842773,4.9228516-7.8842773,9.4189453V96.9897461z
			"/>
	</g>
	<g>
		<path class="st1" d="M43.3911552,59.4476242c4.874733,1.0583458,8.5087814,5.1605682,8.5087814,10.0593033v28.107872H34.8820419
			v-28.107872C34.8820419,64.6081924,38.5160904,60.50597,43.3911552,59.4476242z"/>
		<path class="st0" d="M51.8999023,98.2397461H34.8818359c-0.3452148,0-0.625-0.2802734-0.625-0.625V69.5073242
			c0-5.1318359,3.7016602-9.5195312,9.0014648-10.6699219c0.0878906-0.0195312,0.1777344-0.0195312,0.265625,0
			c5.2998047,1.1503906,9.0009766,5.5380859,9.0009766,10.6699219v28.1074219
			C52.5249023,97.9594727,52.2451172,98.2397461,51.8999023,98.2397461z M35.5068359,96.9897461h15.7680664V69.5073242
			c0-4.4960938-3.2348633-8.3505859-7.8837891-9.4189453c-4.6494141,1.0683594-7.8842773,4.9228516-7.8842773,9.4189453V96.9897461z
			"/>
	</g>
	<g>
		<rect x="37.3694077" y="52.9453697" class="st2" width="37.6645012" height="2.2393632"/>
		<path class="st0" d="M75.0336914,55.8100586H37.3696289c-0.3452148,0-0.625-0.2802734-0.625-0.625v-2.2397461
			c0-0.3452148,0.2797852-0.625,0.625-0.625h37.6640625c0.3452148,0,0.625,0.2797852,0.625,0.625v2.2397461
			C75.6586914,55.5297852,75.3789062,55.8100586,75.0336914,55.8100586z M37.9946289,54.5600586h36.4140625v-0.9897461H37.9946289
			V54.5600586z"/>
	</g>
	<g>
		<g>
			<rect x="80.2936478" y="18.519577" class="st2" width="6.5007534" height="8.0051069"/>
			<path class="st0" d="M86.7944336,27.1499023H80.293457c-0.3452148,0-0.625-0.2797852-0.625-0.625v-8.0053711
				c0-0.3452148,0.2797852-0.625,0.625-0.625h6.5009766c0.3452148,0,0.625,0.2797852,0.625,0.625v8.0053711
				C87.4194336,26.8701172,87.1396484,27.1499023,86.7944336,27.1499023z M80.918457,25.8999023h5.2509766v-6.7553711H80.918457
				V25.8999023z"/>
		</g>
		<g>
			<rect x="80.2936478" y="26.5246849" class="st1" width="6.5007534" height="45.2071037"/>
			<path class="st0" d="M86.7944336,72.3569336H80.293457c-0.3452148,0-0.625-0.2802734-0.625-0.625V26.5249023
				c0-0.3452148,0.2797852-0.625,0.625-0.625h6.5009766c0.3452148,0,0.625,0.2797852,0.625,0.625v45.2070312
				C87.4194336,72.0766602,87.1396484,72.3569336,86.7944336,72.3569336z M80.918457,71.1069336h5.2509766V27.1499023H80.918457
				V71.1069336z"/>
		</g>
		<g>
			<rect x="79.6478043" y="73.5568085" class="st1" width="7.7924371" height="24.0579872"/>
			<path class="st0" d="M87.4404297,98.2397461h-7.7924805c-0.3452148,0-0.625-0.2802734-0.625-0.625V73.5571289
				c0-0.3447266,0.2797852-0.625,0.625-0.625h7.7924805c0.3452148,0,0.625,0.2802734,0.625,0.625v24.0576172
				C88.0654297,97.9594727,87.7856445,98.2397461,87.4404297,98.2397461z M80.2729492,96.9897461h6.5424805V74.1821289h-6.5424805
				V96.9897461z"/>
		</g>
		<g>
			<rect x="79.2088013" y="26.5246849" class="st2" width="8.6704483" height="1.8250244"/>
			<path class="st0" d="M87.8793945,28.9746094h-8.6704102c-0.3452148,0-0.625-0.2797852-0.625-0.625v-1.824707
				c0-0.3452148,0.2797852-0.625,0.625-0.625h8.6704102c0.3452148,0,0.625,0.2797852,0.625,0.625v1.824707
				C88.5043945,28.6948242,88.2246094,28.9746094,87.8793945,28.9746094z M79.8339844,27.7246094h7.4204102v-0.574707h-7.4204102
				V27.7246094z"/>
		</g>
		<g>
			<rect x="79.2088013" y="18.519577" class="st2" width="8.6704483" height="1.8250244"/>
			<path class="st0" d="M87.8793945,20.9697266h-8.6704102c-0.3452148,0-0.625-0.2797852-0.625-0.625v-1.8251953
				c0-0.3452148,0.2797852-0.625,0.625-0.625h8.6704102c0.3452148,0,0.625,0.2797852,0.625,0.625v1.8251953
				C88.5043945,20.6899414,88.2246094,20.9697266,87.8793945,20.9697266z M79.8339844,19.7197266h7.4204102v-0.5751953h-7.4204102
				V19.7197266z"/>
		</g>
		<g>
			<rect x="79.2088013" y="71.7317886" class="st2" width="8.6704483" height="1.8250244"/>
			<path class="st0" d="M87.8793945,74.1821289h-8.6704102c-0.3452148,0-0.625-0.2802734-0.625-0.625v-1.8251953
				c0-0.3447266,0.2797852-0.625,0.625-0.625h8.6704102c0.3452148,0,0.625,0.2802734,0.625,0.625v1.8251953
				C88.5043945,73.9018555,88.2246094,74.1821289,87.8793945,74.1821289z M79.8339844,72.9321289h7.4204102v-0.5751953h-7.4204102
				V72.9321289z"/>
		</g>
		<g>
			<polygon class="st3" points="81.1633224,15.1722002 83.5440216,6.2500811 85.9252243,15.1722002 			"/>
			<path class="st0" d="M85.925293,15.7973633h-4.762207c-0.1943359,0-0.3774414-0.090332-0.4956055-0.2441406
				c-0.1181641-0.1542969-0.1582031-0.3544922-0.1083984-0.5419922l2.3808594-8.9223633
				C83.0131836,5.8154297,83.2607422,5.625,83.5439453,5.625s0.5307617,0.1904297,0.6040039,0.4638672l2.3813477,8.9223633
				c0.0498047,0.1875,0.0097656,0.3876953-0.1083984,0.5419922C86.3027344,15.7070312,86.1196289,15.7973633,85.925293,15.7973633z
				 M81.9765625,14.5473633h3.1352539l-1.5678711-5.8735352L81.9765625,14.5473633z"/>
		</g>
		<g>
			<rect x="80.2936478" y="15.2370338" class="st2" width="6.5007534" height="3.2825437"/>
			<path class="st0" d="M86.7944336,19.1445312H80.293457c-0.3452148,0-0.625-0.2797852-0.625-0.625v-3.2827148
				c0-0.3452148,0.2797852-0.625,0.625-0.625h6.5009766c0.3452148,0,0.625,0.2797852,0.625,0.625v3.2827148
				C87.4194336,18.8647461,87.1396484,19.1445312,86.7944336,19.1445312z M80.918457,17.8945312h5.2509766v-2.0327148H80.918457
				V17.8945312z"/>
		</g>
		<g>
			<path class="st3" d="M84.427536,0.6251726c0.754509,0,1.4456863,0.2716703,1.9810257,0.7228429
				c-0.105835-0.0141668-0.2141724-0.0218335-0.324173-0.0218335c-1.3110123,0-2.3740311,1.0630141-2.3740311,2.3740315
				c0,1.3111842,1.0630188,2.3741982,2.3740311,2.3741982c0.1100006,0,0.218338-0.0076666,0.324173-0.0218334
				c-0.5353394,0.4511724-1.2265167,0.7228427-1.9810257,0.7228427c-1.6985245,0-3.0752106-1.3766847-3.0752106-3.0752075
				C81.3523254,2.0018575,82.7290115,0.6251726,84.427536,0.6251726z"/>
			<path class="st0" d="M84.4277344,7.4003906c-2.0405273,0-3.7001953-1.659668-3.7001953-3.7001953S82.387207,0,84.4277344,0
				c0.8710938,0,1.7172852,0.309082,2.3837891,0.8701172c0.2124023,0.1791992,0.28125,0.4765625,0.1689453,0.730957
				s-0.3823242,0.4013672-0.6547852,0.3666992c-0.0786133-0.0107422-0.1591797-0.0166016-0.2412109-0.0166016
				c-0.9643555,0-1.7490234,0.784668-1.7490234,1.7490234s0.784668,1.7490234,1.7490234,1.7490234
				c0.0820312,0,0.1625977-0.0053711,0.2412109-0.0161133c0.2739258-0.0307617,0.5424805,0.1123047,0.6547852,0.3666992
				s0.043457,0.5517578-0.1689453,0.730957C86.1455078,7.0917969,85.2988281,7.4003906,84.4277344,7.4003906z M84.3554688,1.2509766
				c-1.3178711,0.0385742-2.3779297,1.1225586-2.3779297,2.4492188s1.0600586,2.4106445,2.3779297,2.4492188
				c-0.7680664-0.5439453-1.2700195-1.4389648-1.2700195-2.4492188S83.5874023,1.7949219,84.3554688,1.2509766z"/>
		</g>
		<g>
			<path class="st3" d="M83.5440216,21.9372902c0.6368408,0.1275024,1.1111832,0.6203423,1.1111832,1.2093487v3.378046H82.433342
				v-3.378046C82.433342,22.5576324,82.9076843,22.0647926,83.5440216,21.9372902z"/>
			<path class="st0" d="M84.6552734,27.1499023h-2.222168c-0.3452148,0-0.625-0.2797852-0.625-0.625v-3.378418
				c0-0.8823242,0.6630859-1.6313477,1.6132812-1.8217773c0.0810547-0.0166016,0.1640625-0.0166016,0.2451172,0
				c0.9501953,0.1899414,1.6137695,0.9394531,1.6137695,1.8217773v3.378418
				C85.2802734,26.8701172,85.0004883,27.1499023,84.6552734,27.1499023z M83.0581055,25.8999023h0.972168v-2.753418
				c0-0.2416992-0.1982422-0.4648438-0.4863281-0.5629883c-0.2875977,0.0981445-0.4858398,0.3212891-0.4858398,0.5629883V25.8999023
				z"/>
		</g>
		<g>
			<rect x="82.4201736" y="73.5568085" class="st2" width="2.2473633" height="24.0579872"/>
			<path class="st0" d="M84.6674805,98.2397461h-2.2470703c-0.3452148,0-0.625-0.2802734-0.625-0.625V73.5571289
				c0-0.3447266,0.2797852-0.625,0.625-0.625h2.2470703c0.3452148,0,0.625,0.2802734,0.625,0.625v24.0576172
				C85.2924805,97.9594727,85.0126953,98.2397461,84.6674805,98.2397461z M83.0454102,96.9897461h0.9970703V74.1821289h-0.9970703
				V96.9897461z"/>
		</g>
	</g>
	<g>
		<g>
			<rect x="25.6087532" y="18.519577" class="st2" width="6.5009198" height="8.0051069"/>
			<path class="st0" d="M32.1098633,27.1499023h-6.5009766c-0.3452148,0-0.625-0.2797852-0.625-0.625v-8.0053711
				c0-0.3452148,0.2797852-0.625,0.625-0.625h6.5009766c0.3452148,0,0.625,0.2797852,0.625,0.625v8.0053711
				C32.7348633,26.8701172,32.4550781,27.1499023,32.1098633,27.1499023z M26.2338867,25.8999023h5.2509766v-6.7553711h-5.2509766
				V25.8999023z"/>
		</g>
		<g>
			<rect x="25.6087532" y="26.5246849" class="st1" width="6.5009198" height="45.2071037"/>
			<path class="st0" d="M32.1098633,72.3569336h-6.5009766c-0.3452148,0-0.625-0.2802734-0.625-0.625V26.5249023
				c0-0.3452148,0.2797852-0.625,0.625-0.625h6.5009766c0.3452148,0,0.625,0.2797852,0.625,0.625v45.2070312
				C32.7348633,72.0766602,32.4550781,72.3569336,32.1098633,72.3569336z M26.2338867,71.1069336h5.2509766V27.1499023h-5.2509766
				V71.1069336z"/>
		</g>
		<g>
			<rect x="24.96241" y="73.5568085" class="st1" width="7.7921038" height="24.0579872"/>
			<path class="st0" d="M32.7543945,98.2397461h-7.7919922c-0.3452148,0-0.625-0.2802734-0.625-0.625V73.5571289
				c0-0.3447266,0.2797852-0.625,0.625-0.625h7.7919922c0.3452148,0,0.625,0.2802734,0.625,0.625v24.0576172
				C33.3793945,97.9594727,33.0996094,98.2397461,32.7543945,98.2397461z M25.5874023,96.9897461h6.5419922V74.1821289h-6.5419922
				V96.9897461z"/>
		</g>
		<g>
			<rect x="24.5230713" y="26.5246849" class="st2" width="8.6707821" height="1.8250244"/>
			<path class="st0" d="M33.1938477,28.9746094h-8.6708984c-0.3452148,0-0.625-0.2797852-0.625-0.625v-1.824707
				c0-0.3452148,0.2797852-0.625,0.625-0.625h8.6708984c0.3452148,0,0.625,0.2797852,0.625,0.625v1.824707
				C33.8188477,28.6948242,33.5390625,28.9746094,33.1938477,28.9746094z M25.1479492,27.7246094h7.4208984v-0.574707h-7.4208984
				V27.7246094z"/>
		</g>
		<g>
			<rect x="24.5230713" y="18.519577" class="st2" width="8.6707821" height="1.8250244"/>
			<path class="st0" d="M33.1938477,20.9697266h-8.6708984c-0.3452148,0-0.625-0.2797852-0.625-0.625v-1.8251953
				c0-0.3452148,0.2797852-0.625,0.625-0.625h8.6708984c0.3452148,0,0.625,0.2797852,0.625,0.625v1.8251953
				C33.8188477,20.6899414,33.5390625,20.9697266,33.1938477,20.9697266z M25.1479492,19.7197266h7.4208984v-0.5751953h-7.4208984
				V19.7197266z"/>
		</g>
		<g>
			<rect x="24.5230713" y="71.7317886" class="st2" width="8.6707821" height="1.8250244"/>
			<path class="st0" d="M33.1938477,74.1821289h-8.6708984c-0.3452148,0-0.625-0.2802734-0.625-0.625v-1.8251953
				c0-0.3447266,0.2797852-0.625,0.625-0.625h8.6708984c0.3452148,0,0.625,0.2802734,0.625,0.625v1.8251953
				C33.8188477,73.9018555,33.5390625,74.1821289,33.1938477,74.1821289z M25.1479492,72.9321289h7.4208984v-0.5751953h-7.4208984
				V72.9321289z"/>
		</g>
		<g>
			<polygon class="st3" points="26.4785976,15.1722002 28.8592968,6.2500811 31.2398281,15.1722002 			"/>
			<path class="st0" d="M31.2397461,15.7973633h-4.7612305c-0.1943359,0-0.3774414-0.090332-0.4956055-0.2441406
				c-0.1181641-0.1542969-0.1582031-0.3544922-0.1083984-0.5419922l2.3808594-8.9223633
				C28.3286133,5.8154297,28.5761719,5.625,28.859375,5.625l0,0c0.2832031,0,0.5307617,0.1904297,0.6040039,0.4638672
				l2.3803711,8.9223633c0.0498047,0.1875,0.0097656,0.3876953-0.1083984,0.5419922
				C31.6171875,15.7070312,31.434082,15.7973633,31.2397461,15.7973633z M27.2919922,14.5473633h3.1342773L28.859375,8.6743164
				L27.2919922,14.5473633z"/>
		</g>
		<g>
			<rect x="25.6087532" y="15.2370338" class="st2" width="6.5009198" height="3.2825437"/>
			<path class="st0" d="M32.1098633,19.1445312h-6.5009766c-0.3452148,0-0.625-0.2797852-0.625-0.625v-3.2827148
				c0-0.3452148,0.2797852-0.625,0.625-0.625h6.5009766c0.3452148,0,0.625,0.2797852,0.625,0.625v3.2827148
				C32.7348633,18.8647461,32.4550781,19.1445312,32.1098633,19.1445312z M26.2338867,17.8945312h5.2509766v-2.0327148h-5.2509766
				V17.8945312z"/>
		</g>
		<g>
			<path class="st3" d="M29.7423077,0.6251726c0.7548428,0,1.4460201,0.2716703,1.9808598,0.7228429
				c-0.105835-0.0141668-0.2140026-0.0218335-0.3236713-0.0218335c-1.3115177,0-2.3740311,1.0630141-2.3740311,2.3740315
				c0,1.3111842,1.0625134,2.3741982,2.3740311,2.3741982c0.1096687,0,0.2178364-0.0076666,0.3236713-0.0218334
				c-0.5348396,0.4511724-1.226017,0.7228427-1.9808598,0.7228427c-1.6985226,0-3.0752068-1.3766847-3.0752068-3.0752075
				C26.6671009,2.0018575,28.0437851,0.6251726,29.7423077,0.6251726z"/>
			<path class="st0" d="M29.7421875,7.4003906c-2.0405273,0-3.7001953-1.659668-3.7001953-3.7001953S27.7016602,0,29.7421875,0
				c0.8720703,0,1.71875,0.309082,2.3837891,0.8706055c0.2124023,0.1791992,0.28125,0.4765625,0.168457,0.7304688
				c-0.112793,0.2543945-0.3862305,0.3955078-0.6542969,0.3666992c-0.0786133-0.0107422-0.1591797-0.0166016-0.2407227-0.0166016
				c-0.9643555,0-1.7490234,0.784668-1.7490234,1.7490234c-0.0004883,1.0458984,0.9799805,1.8706055,1.9897461,1.7329102
				c0.2680664-0.0341797,0.5415039,0.1118164,0.6542969,0.3666992c0.112793,0.2539062,0.0439453,0.5512695-0.168457,0.7304688
				C31.4614258,7.0913086,30.6147461,7.4003906,29.7421875,7.4003906z M29.6704102,1.2509766
				c-1.3178711,0.0380859-2.378418,1.1220703-2.378418,2.4492188s1.0605469,2.4111328,2.378418,2.4492188
				c-0.7680664-0.5439453-1.2700195-1.4389648-1.2700195-2.4492188S28.9023438,1.7949219,29.6704102,1.2509766z"/>
		</g>
		<g>
			<path class="st3" d="M28.8592968,21.9372902c0.6363411,0.1275024,1.1106815,0.6203423,1.1106815,1.2093487v3.378046h-2.2215309
				v-3.378046C27.7484474,22.5576324,28.2227879,22.0647926,28.8592968,21.9372902z"/>
			<path class="st0" d="M29.9702148,27.1499023h-2.2216797c-0.3452148,0-0.625-0.2797852-0.625-0.625v-3.378418
				c0-0.8823242,0.6635742-1.6318359,1.6132812-1.8217773c0.0810547-0.0166016,0.1640625-0.0166016,0.2451172,0
				c0.9501953,0.1904297,1.6132812,0.9394531,1.6132812,1.8217773v3.378418
				C30.5952148,26.8701172,30.3154297,27.1499023,29.9702148,27.1499023z M28.3735352,25.8999023h0.9716797v-2.753418
				c0-0.2416992-0.1982422-0.4648438-0.4858398-0.5629883c-0.2875977,0.0981445-0.4858398,0.3212891-0.4858398,0.5629883V25.8999023
				z"/>
		</g>
		<g>
			<rect x="27.7347813" y="73.5568085" class="st2" width="2.24753" height="24.0579872"/>
			<path class="st0" d="M29.9824219,98.2397461h-2.2475586c-0.3452148,0-0.625-0.2802734-0.625-0.625V73.5571289
				c0-0.3447266,0.2797852-0.625,0.625-0.625h2.2475586c0.3452148,0,0.625,0.2802734,0.625,0.625v24.0576172
				C30.6074219,97.9594727,30.3276367,98.2397461,29.9824219,98.2397461z M28.3598633,96.9897461h0.9975586V74.1821289h-0.9975586
				V96.9897461z"/>
		</g>
	</g>
	<g>
		<polygon class="st3" points="55.0114784,38.4630089 56.2016602,29.5403919 57.3921776,38.4630089 		"/>
		<path class="st0" d="M57.3920898,39.0878906h-2.3803711c-0.1801758,0-0.3515625-0.0776367-0.4702148-0.2133789
			c-0.1186523-0.1352539-0.1733398-0.3154297-0.1494141-0.4941406l1.1899414-8.9223633
			c0.0415039-0.3105469,0.3061523-0.5424805,0.6196289-0.5424805c0.3129883,0,0.578125,0.2319336,0.6196289,0.5424805
			l1.1904297,8.9223633c0.0239258,0.1782227-0.0307617,0.3588867-0.1494141,0.4941406
			C57.7436523,39.0102539,57.5722656,39.0878906,57.3920898,39.0878906z M55.7255859,37.8378906h0.9526367l-0.4765625-3.5703125
			L55.7255859,37.8378906z"/>
	</g>
	<g>
		<path class="st3" d="M56.595665,24.2498207c0.7550087,0,1.4461861,0.2716713,1.9810257,0.7228432
			c-0.105835-0.0141659-0.2140007-0.0216675-0.3236694-0.0216675c-1.3110199,0-2.3740311,1.063015-2.3740311,2.374033
			c0,1.3110161,1.0630112,2.3740311,2.3740311,2.3740311c0.1096687,0,0.2178345-0.0074997,0.3236694-0.0216675
			c-0.5348396,0.4511738-1.226017,0.7228432-1.9810257,0.7228432c-1.6980209,0-3.0752068-1.376852-3.0752068-3.0752068
			C53.5204582,25.6265068,54.897644,24.2498207,56.595665,24.2498207z"/>
		<path class="st0" d="M56.5957031,31.0253906c-2.0405273,0-3.7001953-1.659668-3.7001953-3.7001953
			S54.5551758,23.625,56.5957031,23.625c0.8725586,0,1.7192383,0.309082,2.3837891,0.8701172
			c0.2124023,0.1791992,0.28125,0.4765625,0.168457,0.7304688c-0.112793,0.2543945-0.3857422,0.3994141-0.6542969,0.3666992
			c-0.0786133-0.0107422-0.1591797-0.0161133-0.2407227-0.0161133c-0.9643555,0-1.7490234,0.784668-1.7490234,1.7490234
			s0.784668,1.7490234,1.7490234,1.7490234c0.081543,0,0.1621094-0.0058594,0.2407227-0.0166016
			c0.2685547-0.0351562,0.5415039,0.1118164,0.6542969,0.3666992c0.112793,0.2539062,0.0439453,0.5512695-0.168457,0.7304688
			C58.3144531,30.7163086,57.4677734,31.0253906,56.5957031,31.0253906z M56.5239258,24.8759766
			c-1.3178711,0.0380859-2.378418,1.1220703-2.378418,2.4492188s1.0605469,2.4111328,2.378418,2.4492188
			c-0.7680664-0.5439453-1.2700195-1.4389648-1.2700195-2.4492188S55.7558594,25.4199219,56.5239258,24.8759766z"/>
	</g>
	<g>
		<rect x="87.4332428" y="88.1596756" class="st1" width="5.6017413" height="9.4551258"/>
		<path class="st0" d="M93.0351562,98.2397461h-5.6020508c-0.3452148,0-0.625-0.2802734-0.625-0.625V88.159668
			c0-0.3447266,0.2797852-0.625,0.625-0.625h5.6020508c0.3452148,0,0.625,0.2802734,0.625,0.625v9.4550781
			C93.6601562,97.9594727,93.3803711,98.2397461,93.0351562,98.2397461z M88.0581055,96.9897461h4.3520508V88.784668h-4.3520508
			V96.9897461z"/>
	</g>
	<g>
		<rect x="19.1721668" y="88.1596756" class="st1" width="5.6017413" height="9.4551258"/>
		<path class="st0" d="M24.7739258,98.2397461h-5.6015625c-0.3452148,0-0.625-0.2802734-0.625-0.625V88.159668
			c0-0.3447266,0.2797852-0.625,0.625-0.625h5.6015625c0.3452148,0,0.625,0.2802734,0.625,0.625v9.4550781
			C25.3989258,97.9594727,25.1191406,98.2397461,24.7739258,98.2397461z M19.7973633,96.9897461h4.3515625V88.784668h-4.3515625
			V96.9897461z"/>
	</g>
	<g>
		<g>
			<path class="st2" d="M64.4274368,40.6027069c0.6476746,0.3746719,1.2670135,0.7923431,1.8543549,1.2500153H46.3161964
				c0.5871735-0.4576721,1.2065163-0.8753433,1.8543549-1.2500153H64.4274368L64.4274368,40.6027069z M69.1396637,44.7124252
				c0.3165054,0.4063416,0.6141739,0.8283463,0.8910141,1.2643509H42.5678101
				c0.2768402-0.4360046,0.5745087-0.8580093,0.8905144-1.2643509H69.1396637L69.1396637,44.7124252z M71.4720306,48.836483
				c0.1578369,0.4091721,0.2994995,0.8258438,0.4243393,1.2500153H40.701622
				c0.1246681-0.4241714,0.2665024-0.8408432,0.4241714-1.2500153H71.4720306z"/>
		</g>
		<g>
			<path class="st2" d="M73.6572266,54.1963882H38.9412651v-1.2500191h34.7159615V54.1963882L73.6572266,54.1963882z
				 M38.9412651,57.0560913h34.7159615v1.2501831H38.9412651V57.0560913L38.9412651,57.0560913z M73.6572266,61.1659813v1.2500153
				H38.9412651v-1.2500153H73.6572266L73.6572266,61.1659813z M73.6572266,65.2757034v1.2501831H38.9412651v-1.2501831H73.6572266
				L73.6572266,65.2757034z M73.6572266,69.322258v1.3133469H38.9412651V69.322258H73.6572266L73.6572266,69.322258z
				 M73.6572266,73.4321442v1.2500153H38.9412651v-1.2500153H73.6572266L73.6572266,73.4321442z M73.6572266,77.5418625v1.2501831
				H38.9412651v-1.2501831H73.6572266L73.6572266,77.5418625z M73.6572266,81.6517563v1.264183H38.9412651v-1.264183H73.6572266
				L73.6572266,81.6517563z M73.6572266,85.7756424v1.2501831H38.9412651v-1.2501831H73.6572266L73.6572266,85.7756424z
				 M73.6572266,89.8855286v1.2501831H38.9412651v-1.2501831H73.6572266L73.6572266,89.8855286z M73.6572266,93.9954147v1.2500229
				H38.9412651v-1.2500229H73.6572266z"/>
		</g>
		<g>
			<path class="st2" d="M73.1038818,61.1659813c0.5438461,0.3731689,1.0493469,0.7913437,1.5108566,1.2500153H63.6044235
				c0.4615097-0.4586716,0.9680176-0.8768463,1.5113525-1.2500153H73.1038818L73.1038818,61.1659813z M76.6552658,65.2757034
				c0.1933365,0.4035034,0.3600082,0.8211746,0.4975052,1.2501831h-16.08638
				c0.1375008-0.4290085,0.3043365-0.8466797,0.4975052-1.2501831H76.6552658L76.6552658,65.2757034z M77.6162796,69.322258
				l0.0023346,0.1846695v1.1286774H60.6005516v-1.1286774l0.0023346-0.1846695H77.6162796L77.6162796,69.322258z
				 M77.6186142,73.4321442v1.2500153H60.6005516v-1.2500153H77.6186142L77.6186142,73.4321442z M77.6186142,77.5418625v1.2501831
				H60.6005516v-1.2501831H77.6186142L77.6186142,77.5418625z M77.6186142,81.6517563v1.264183H60.6005516v-1.264183H77.6186142
				L77.6186142,81.6517563z M77.6186142,85.7756424v1.2501831H60.6005516v-1.2501831H77.6186142L77.6186142,85.7756424z
				 M77.6186142,89.8855286v1.2501831H60.6005516v-1.2501831H77.6186142L77.6186142,89.8855286z M77.6186142,93.9954147v1.2500229
				H60.6005516v-1.2500229H77.6186142z"/>
		</g>
		<g>
			<path class="st2" d="M47.4825439,61.1659813c0.5438423,0.3731689,1.0493469,0.7913437,1.5110207,1.2500153h-11.010479
				c0.4616699-0.4586716,0.9680099-0.8768463,1.5113525-1.2500153H47.4825439L47.4825439,61.1659813z M51.0339241,65.2757034
				c0.1933365,0.4035034,0.3600044,0.8211746,0.4975052,1.2501831H35.4452171
				c0.1373367-0.4290085,0.3041725-0.8466797,0.4973412-1.2501831H51.0339241L51.0339241,65.2757034z M51.9949379,69.322258
				l0.0023346,0.1846695v1.1286774H34.9793777v-1.1286774l0.0023346-0.1846695H51.9949379L51.9949379,69.322258z
				 M51.9972725,73.4321442v1.2500153H34.9793777v-1.2500153H51.9972725L51.9972725,73.4321442z M51.9972725,77.5418625v1.2501831
				H34.9793777v-1.2501831H51.9972725L51.9972725,77.5418625z M51.9972725,81.6517563v1.264183H34.9793777v-1.264183H51.9972725
				L51.9972725,81.6517563z M51.9972725,85.7756424v1.2501831H34.9793777v-1.2501831H51.9972725L51.9972725,85.7756424z
				 M51.9972725,89.8855286v1.2501831H34.9793777v-1.2501831H51.9972725L51.9972725,89.8855286z M51.9972725,93.9954147v1.2500229
				H34.9793777v-1.2500229H51.9972725z"/>
		</g>
		<g>
			<path class="st2" d="M56.2994957,62.3554955l0.0916672,0.0605011h-0.1833344L56.2994957,62.3554955L56.2994957,62.3554955z
				 M58.1453514,65.2757034c0.1308365,0.3888397,0.249836,0.8070068,0.3551712,1.2501831h-4.4032249
				c0.105835-0.4431763,0.2245026-0.8613434,0.3553391-1.2501831H58.1453514L58.1453514,65.2757034z M58.9508629,69.322258
				c0.0401688,0.4266663,0.0698357,0.865509,0.0873337,1.3133469h-5.478405
				c0.017334-0.4478378,0.0471687-0.8866806,0.0873337-1.3133469H58.9508629L58.9508629,69.322258z M59.058033,73.4321442v1.2500153
				h-5.5182419v-1.2500153H59.058033L59.058033,73.4321442z M59.058033,77.5418625v1.2501831h-5.5182419v-1.2501831H59.058033
				L59.058033,77.5418625z M59.058033,81.6517563v1.264183h-5.5182419v-1.264183H59.058033L59.058033,81.6517563z
				 M59.058033,85.7756424v1.2501831h-5.5182419v-1.2501831H59.058033L59.058033,85.7756424z M59.058033,89.8855286v1.2501831
				h-5.5182419v-1.2501831H59.058033L59.058033,89.8855286z M59.058033,93.9954147v1.2500229h-5.5182419v-1.2500229H59.058033z"/>
		</g>
		<g>
			<rect x="37.4667435" y="52.9463692" class="st2" width="37.6645012" height="1.2500167"/>
		</g>
		<g>
			<path class="st2" d="M86.8917313,20.0860996v1.2808495h-6.5007477v-1.2808495H86.8917313L86.8917313,20.0860996z
				 M86.8917313,24.2266541v1.2501831h-6.5007477v-1.2501831H86.8917313z"/>
		</g>
		<g>
			<path class="st2" d="M86.8917313,54.1963882h-6.5007477v-1.2500191h6.5007477V54.1963882L86.8917313,54.1963882z
				 M80.3909836,57.0560913h6.5007477v1.2501831h-6.5007477V57.0560913L80.3909836,57.0560913z M86.8917313,70.6356049V69.322258
				h-6.5007477v1.3133469H86.8917313L86.8917313,70.6356049z M86.8917313,66.5258865v-1.2501831h-6.5007477v1.2501831H86.8917313
				L86.8917313,66.5258865z M86.8917313,62.4159966v-1.2500153h-6.5007477v1.2500153H86.8917313L86.8917313,62.4159966z
				 M86.8917313,50.0864983V48.836483h-6.5007477v1.2500153H86.8917313L86.8917313,50.0864983z M86.8917313,45.9767761v-1.2643509
				h-6.5007477v1.2643509H86.8917313L86.8917313,45.9767761z M86.8917313,41.8527222v-1.2500153h-6.5007477v1.2500153H86.8917313
				L86.8917313,41.8527222z M86.8917313,37.743v-1.2501831h-6.5007477V37.743H86.8917313L86.8917313,37.743z M86.8917313,33.6964455
				v-1.3133507h-6.5007477v1.3133507H86.8917313L86.8917313,33.6964455z M86.8917313,29.5865593v-1.2500172h-6.5007477v1.2500172
				H86.8917313z"/>
		</g>
		<g>
			<path class="st2" d="M79.7451401,73.5568085h7.7924347v1.125351h-7.7924347V73.5568085L79.7451401,73.5568085z
				 M87.5375748,77.5418625v1.2501831h-7.7924347v-1.2501831H87.5375748L87.5375748,77.5418625z M87.5375748,81.6517563v1.264183
				h-7.7924347v-1.264183H87.5375748L87.5375748,81.6517563z M87.5375748,85.7756424v1.2501831h-7.7924347v-1.2501831H87.5375748
				L87.5375748,85.7756424z M87.5375748,89.8855286v1.2501831h-7.7924347v-1.2501831H87.5375748L87.5375748,89.8855286z
				 M87.5375748,93.9954147v1.2500229h-7.7924347v-1.2500229H87.5375748z"/>
		</g>
		<g>
			<rect x="79.3061371" y="28.3365421" class="st2" width="8.6704483" height="0.0131668"/>
		</g>
		<g>
			<rect x="79.3061371" y="20.0860996" class="st2" width="8.6704483" height="0.2585034"/>
		</g>
		<g>
			<rect x="79.3061371" y="73.4321442" class="st2" width="8.6704483" height="0.1246683"/>
		</g>
		<g>
			<rect x="80.3909836" y="15.7642078" class="st2" width="6.5007534" height="1.4621862"/>
		</g>
		<g>
			<rect x="82.5306778" y="24.2266541" class="st2" width="2.2218628" height="1.2501833"/>
		</g>
		<g>
			<path class="st2" d="M82.5178452,73.5568085h2.2475281v1.125351h-2.2475281V73.5568085L82.5178452,73.5568085z
				 M84.7653732,77.5418625v1.2501831h-2.2475281v-1.2501831H84.7653732L84.7653732,77.5418625z M84.7653732,81.6517563v1.264183
				h-2.2475281v-1.264183H84.7653732L84.7653732,81.6517563z M84.7653732,85.7756424v1.2501831h-2.2475281v-1.2501831H84.7653732
				L84.7653732,85.7756424z M84.7653732,89.8855286v1.2501831h-2.2475281v-1.2501831H84.7653732L84.7653732,89.8855286z
				 M84.7653732,93.9954147v1.2500229h-2.2475281v-1.2500229H84.7653732z"/>
		</g>
		<g>
			<path class="st2" d="M32.2070084,20.0860996v1.2808495h-6.5009212v-1.2808495H32.2070084L32.2070084,20.0860996z
				 M32.2070084,24.2266541v1.2501831h-6.5009212v-1.2501831H32.2070084z"/>
		</g>
		<g>
			<path class="st2" d="M32.2070084,54.1963882h-6.5009212v-1.2500191h6.5009212V54.1963882L32.2070084,54.1963882z
				 M25.7060871,57.0560913h6.5009212v1.2501831h-6.5009212V57.0560913L25.7060871,57.0560913z M32.2070084,70.6356049V69.322258
				h-6.5009212v1.3133469H32.2070084L32.2070084,70.6356049z M32.2070084,66.5258865v-1.2501831h-6.5009212v1.2501831H32.2070084
				L32.2070084,66.5258865z M32.2070084,62.4159966v-1.2500153h-6.5009212v1.2500153H32.2070084L32.2070084,62.4159966z
				 M32.2070084,50.0864983V48.836483h-6.5009212v1.2500153H32.2070084L32.2070084,50.0864983z M32.2070084,45.9767761v-1.2643509
				h-6.5009212v1.2643509H32.2070084L32.2070084,45.9767761z M32.2070084,41.8527222v-1.2500153h-6.5009212v1.2500153H32.2070084
				L32.2070084,41.8527222z M32.2070084,37.743v-1.2501831h-6.5009212V37.743H32.2070084L32.2070084,37.743z M32.2070084,33.6964455
				v-1.3133507h-6.5009212v1.3133507H32.2070084L32.2070084,33.6964455z M32.2070084,29.5865593v-1.2500172h-6.5009212v1.2500172
				H32.2070084z"/>
		</g>
		<g>
			<path class="st2" d="M25.0602455,73.5568085h7.7921028v1.125351h-7.7921028V73.5568085L25.0602455,73.5568085z
				 M32.8523483,77.5418625v1.2501831h-7.7921028v-1.2501831H32.8523483L32.8523483,77.5418625z M32.8523483,81.6517563v1.264183
				h-7.7921028v-1.264183H32.8523483L32.8523483,81.6517563z M32.8523483,85.7756424v1.2501831h-7.7921028v-1.2501831H32.8523483
				L32.8523483,85.7756424z M32.8523483,89.8855286v1.2501831h-7.7921028v-1.2501831H32.8523483L32.8523483,89.8855286z
				 M32.8523483,93.9954147v1.2500229h-7.7921028v-1.2500229H32.8523483z"/>
		</g>
		<g>
			<rect x="24.6209068" y="28.3365421" class="st2" width="8.6707821" height="0.0131668"/>
		</g>
		<g>
			<rect x="24.6209068" y="20.0860996" class="st2" width="8.6707821" height="0.2585034"/>
		</g>
		<g>
			<rect x="24.6209068" y="73.4321442" class="st2" width="8.6707821" height="0.1246683"/>
		</g>
		<g>
			<rect x="25.7060871" y="15.7642078" class="st2" width="6.5009198" height="1.4621862"/>
		</g>
		<g>
			<rect x="27.8457832" y="24.2266541" class="st2" width="2.2215295" height="1.2501833"/>
		</g>
		<g>
			<path class="st2" d="M27.8326149,73.5568085h2.247364v1.125351h-2.247364V73.5568085L27.8326149,73.5568085z
				 M30.0799789,77.5418625v1.2501831h-2.247364v-1.2501831H30.0799789L30.0799789,77.5418625z M30.0799789,81.6517563v1.264183
				h-2.247364v-1.264183H30.0799789L30.0799789,81.6517563z M30.0799789,85.7756424v1.2501831h-2.247364v-1.2501831H30.0799789
				L30.0799789,85.7756424z M30.0799789,89.8855286v1.2501831h-2.247364v-1.2501831H30.0799789L30.0799789,89.8855286z
				 M30.0799789,93.9954147v1.2500229h-2.247364v-1.2500229H30.0799789z"/>
		</g>
		<g>
			<path class="st2" d="M55.2048149,37.743l0.1666679-1.2501831h1.8548584L57.393177,37.743H55.2048149L55.2048149,37.743z
				 M55.7448196,33.6964455l0.1751709-1.3133507h0.7583427l0.1753349,1.3133507H55.7448196L55.7448196,33.6964455z
				 M56.2933273,29.5865593l0.0061684-0.0461674l0.0060005,0.0461674H56.2933273z"/>
		</g>
		<g>
			<path class="st2" d="M56.6930008,24.2498207c0.7550087,0,1.4461861,0.2716713,1.9810257,0.7228432
				c-0.105835-0.0141659-0.2136688-0.0216675-0.3236694-0.0216675c-0.5641747,0-1.0823479,0.197504-1.4896889,0.5258408h-2.6258659
				C54.7961426,24.7318268,55.6881523,24.2498207,56.6930008,24.2498207L56.6930008,24.2498207z M56.2026596,28.3365421
				c0.2786713,0.591507,0.794178,1.0488472,1.4243507,1.2500172h-3.01754
				c-0.3685036-0.3391724-0.6528397-0.7671776-0.8211746-1.2500172H56.2026596z"/>
		</g>
		<g>
			<path class="st2" d="M47.1505394,65.2757034c0.216835,0.3246689,0.4123383,0.7483444,0.5796738,1.2501831h-2.2220306
				c0.1673355-0.5018387,0.3633385-0.9255142,0.5801773-1.2501831H47.1505394L47.1505394,65.2757034z M48.2743874,69.322258
				c0.0383339,0.4223328,0.0615005,0.8616791,0.0681686,1.3133469h-3.4465446
				c0.0064964-0.4516678,0.0301666-0.8910141,0.0680008-1.3133469H48.2743874L48.2743874,69.322258z M48.3448906,73.4321442
				v1.2500153h-3.4512138v-1.2500153H48.3448906L48.3448906,73.4321442z M48.3448906,77.5418625v1.2501831h-3.4512138v-1.2501831
				H48.3448906L48.3448906,77.5418625z M48.3448906,81.6517563v1.264183h-3.4512138v-1.264183H48.3448906L48.3448906,81.6517563z
				 M48.3448906,85.7756424v1.2501831h-3.4512138v-1.2501831H48.3448906L48.3448906,85.7756424z M48.3448906,89.8855286v1.2501831
				h-3.4512138v-1.2501831H48.3448906L48.3448906,89.8855286z M48.3448906,93.9954147v1.2500229h-3.4512138v-1.2500229H48.3448906z"
				/>
		</g>
		<g>
			<path class="st2" d="M40.8886223,65.2757034c0.216835,0.3246689,0.4125061,0.7483444,0.5796738,1.2501831h-2.2218628
				c0.1673355-0.5018387,0.3633385-0.9255142,0.5801773-1.2501831H40.8886223L40.8886223,65.2757034z M42.0126381,69.322258
				c0.0383339,0.4223328,0.0613327,0.8616791,0.0680008,1.3133469h-3.4465446
				c0.0066643-0.4516678,0.0303307-0.8910141,0.0681648-1.3133469H42.0126381L42.0126381,69.322258z M42.0829735,73.4321442
				v1.2500153h-3.4512138v-1.2500153H42.0829735L42.0829735,73.4321442z M42.0829735,77.5418625v1.2501831h-3.4512138v-1.2501831
				H42.0829735L42.0829735,77.5418625z M42.0829735,81.6517563v1.264183h-3.4512138v-1.264183H42.0829735L42.0829735,81.6517563z
				 M42.0829735,85.7756424v1.2501831h-3.4512138v-1.2501831H42.0829735L42.0829735,85.7756424z M42.0829735,89.8855286v1.2501831
				h-3.4512138v-1.2501831H42.0829735L42.0829735,89.8855286z M42.0829735,93.9954147v1.2500229h-3.4512138v-1.2500229H42.0829735z"
				/>
		</g>
		<g>
			<path class="st2" d="M72.7717133,65.2757034c0.216835,0.3246689,0.4130096,0.7483444,0.5801773,1.2501831h-2.2223663
				c0.1673355-0.5018387,0.3633423-0.9255142,0.5801773-1.2501831H72.7717133L72.7717133,65.2757034z M73.896225,69.322258
				c0.0378342,0.4223328,0.0613403,0.8616791,0.0680084,1.3133469h-3.447052
				c0.0066681-0.4516678,0.0303345-0.8910141,0.0681686-1.3133469H73.896225L73.896225,69.322258z M73.9665604,73.4321442v1.2500153
				h-3.4517136v-1.2500153H73.9665604L73.9665604,73.4321442z M73.9665604,77.5418625v1.2501831h-3.4517136v-1.2501831H73.9665604
				L73.9665604,77.5418625z M73.9665604,81.6517563v1.264183h-3.4517136v-1.264183H73.9665604L73.9665604,81.6517563z
				 M73.9665604,85.7756424v1.2501831h-3.4517136v-1.2501831H73.9665604L73.9665604,85.7756424z M73.9665604,89.8855286v1.2501831
				h-3.4517136v-1.2501831H73.9665604L73.9665604,89.8855286z M73.9665604,93.9954147v1.2500229h-3.4517136v-1.2500229H73.9665604z"
				/>
		</g>
		<g>
			<path class="st2" d="M66.5094604,65.2757034c0.2168427,0.3246689,0.4130096,0.7483444,0.5801773,1.2501831H64.867775
				c0.1671677-0.5018387,0.3628387-0.9255142,0.5796738-1.2501831H66.5094604L66.5094604,65.2757034z M67.6343155,69.322258
				c0.0378342,0.4223328,0.0615005,0.8616791,0.068161,1.3133469h-3.4470444
				c0.0066681-0.4516678,0.0298386-0.8910141,0.0680008-1.3133469H67.6343155L67.6343155,69.322258z M67.7048111,73.4321442
				v1.2500153h-3.4517136v-1.2500153H67.7048111L67.7048111,73.4321442z M67.7048111,77.5418625v1.2501831h-3.4517136v-1.2501831
				H67.7048111L67.7048111,77.5418625z M67.7048111,81.6517563v1.264183h-3.4517136v-1.264183H67.7048111L67.7048111,81.6517563z
				 M67.7048111,85.7756424v1.2501831h-3.4517136v-1.2501831H67.7048111L67.7048111,85.7756424z M67.7048111,89.8855286v1.2501831
				h-3.4517136v-1.2501831H67.7048111L67.7048111,89.8855286z M67.7048111,93.9954147v1.2500229h-3.4517136v-1.2500229H67.7048111z"
				/>
		</g>
		<g>
			<path class="st2" d="M59.6023712,57.0560913h1.1371841c0.4223366,0.279171,0.7610092,0.7186775,0.9603462,1.2501831H58.641861
				C58.8411942,57.7747688,59.1798668,57.3352623,59.6023712,57.0560913L59.6023712,57.0560913z M61.8965683,61.1659813v1.2500153
				h-2.9783707c-0.1521721-0.1998367-0.3098373-0.3888397-0.4728394-0.5660057v-0.6840096H61.8965683L61.8965683,61.1659813z
				 M61.5633965,65.2757034c-0.1931686,0.4035034-0.3595047,0.8211746-0.4970055,1.2501831h-0.2351685
				c-0.1135025-0.4323425-0.2438393-0.8495102-0.3903389-1.2501831H61.5633965z"/>
		</g>
		<g>
			<path class="st2" d="M51.8584366,57.0560913h1.1371803c0.4223404,0.279171,0.7615089,0.7186775,0.9610138,1.2501831h-3.0587082
				C51.0972595,57.7747688,51.4360962,57.3352623,51.8584366,57.0560913L51.8584366,57.0560913z M54.1531334,61.1659813v0.6845093
				c-0.163002,0.177166-0.3208389,0.3656693-0.4730072,0.565506h-2.9787064v-1.2500153H54.1531334L54.1531334,61.1659813z
				 M52.1569405,65.2757034c-0.1458359,0.4006729-0.2763367,0.8178406-0.3896713,1.2501831h-0.2348366
				c-0.1380043-0.4290085-0.3046722-0.8466797-0.4980087-1.2501831H52.1569405z"/>
		</g>
		<g>
			<path class="st2" d="M67.6211472,57.0560913h1.1371765c0.4223404,0.279171,0.7611771,0.7186775,0.9605179,1.2501831h-3.0582123
				C66.8599701,57.7747688,67.1988068,57.3352623,67.6211472,57.0560913z"/>
		</g>
		<g>
			<path class="st2" d="M43.8396606,57.0560913h1.1371841c0.4223366,0.279171,0.7615089,0.7186775,0.9608459,1.2501831h-3.0585403
				C43.0784836,57.7747688,43.4171562,57.3352623,43.8396606,57.0560913z"/>
		</g>
		<g>
			<path class="st2" d="M93.1328201,95.2454376v-1.2500229h-5.6017456v1.2500229H93.1328201L93.1328201,95.2454376z
				 M93.1328201,91.1357117v-1.2501831h-5.6017456v1.2501831H93.1328201z"/>
		</g>
		<g>
			<path class="st2" d="M24.8717422,95.2454376v-1.2500229h-5.6017399v1.2500229H24.8717422L24.8717422,95.2454376z
				 M24.8717422,91.1357117v-1.2501831h-5.6017399v1.2501831H24.8717422z"/>
		</g>
	</g>
	<g>
		<g>
			<path class="st0" d="M72.4648438,53.5703125H40.1337891c-0.1772461,0-0.3461914-0.0751953-0.4648438-0.2070312
				c-0.1181641-0.1318359-0.175293-0.3076172-0.1567383-0.4838867c0.9135742-8.5961914,8.1298828-15.078125,16.7866211-15.078125
				c8.65625,0,15.8730469,6.4819336,16.7875977,15.078125c0.0185547,0.1762695-0.0380859,0.3520508-0.1567383,0.4838867
				S72.6420898,53.5703125,72.4648438,53.5703125z M40.8442383,52.3203125h30.9101562
				c-1.1489258-7.6123047-7.6743164-13.269043-15.4555664-13.269043
				C48.5170898,39.0512695,41.9916992,44.7080078,40.8442383,52.3203125z"/>
		</g>
		<g>
			<path class="st0" d="M38.940918,62.3969727c-0.3452148,0-0.625-0.2802734-0.625-0.625v-6.5869141
				c0-0.3447266,0.2797852-0.625,0.625-0.625h34.7163086c0.3452148,0,0.625,0.2802734,0.625,0.625v6.3525391
				c0,0.3447266-0.2797852,0.625-0.625,0.625s-0.625-0.2802734-0.625-0.625v-5.7275391H39.565918v5.9619141
				C39.565918,62.1166992,39.2861328,62.3969727,38.940918,62.3969727z"/>
		</g>
		<g>
			<path class="st0" d="M77.6191406,98.2397461H60.6005859c-0.3452148,0-0.625-0.2802734-0.625-0.625V69.5073242
				c0-5.1318359,3.7016602-9.5195312,9.0014648-10.6699219c0.0878906-0.0195312,0.1777344-0.0195312,0.265625,0
				c5.2998047,1.1503906,9.0014648,5.5380859,9.0014648,10.6699219v28.1074219
				C78.2441406,97.9594727,77.9643555,98.2397461,77.6191406,98.2397461z M61.2255859,96.9897461h15.7685547V69.5073242
				c0-4.4960938-3.2348633-8.3505859-7.8842773-9.4189453c-4.6494141,1.0683594-7.8842773,4.9228516-7.8842773,9.4189453V96.9897461
				z"/>
		</g>
		<g>
			<path class="st0" d="M51.9970703,98.2397461H34.9794922c-0.3452148,0-0.625-0.2802734-0.625-0.625V69.5073242
				c0-5.1318359,3.7011719-9.5195312,9.0009766-10.6699219c0.0878906-0.0195312,0.1777344-0.0195312,0.265625,0
				c5.2998047,1.1503906,9.0009766,5.5380859,9.0009766,10.6699219v28.1074219
				C52.6220703,97.9594727,52.3422852,98.2397461,51.9970703,98.2397461z M35.6044922,96.9897461h15.7675781V69.5073242
				c0-4.4960938-3.2348633-8.3505859-7.8837891-9.4189453c-4.6489258,1.0683594-7.8837891,4.9228516-7.8837891,9.4189453V96.9897461
				z"/>
		</g>
		<g>
			<path class="st0" d="M59.0581055,98.2397461h-5.5185547c-0.3452148,0-0.625-0.2802734-0.625-0.625V71.6489258
				c0-4.7460938,1.2280273-8.6943359,3.0556641-9.8242188c0.2011719-0.125,0.4560547-0.125,0.6572266,0
				c1.8276367,1.1298828,3.0556641,5.078125,3.0556641,9.8242188v25.9658203
				C59.6831055,97.9594727,59.4033203,98.2397461,59.0581055,98.2397461z M54.1645508,96.9897461h4.2685547V71.6489258
				c0-4.2714844-1.0473633-7.4033203-2.1342773-8.4951172c-1.0869141,1.0917969-2.1342773,4.2246094-2.1342773,8.4951172V96.9897461
				z"/>
		</g>
		<g>
			<path class="st0" d="M75.1313477,55.8100586H37.4667969c-0.3452148,0-0.625-0.2802734-0.625-0.625v-2.2397461
				c0-0.3452148,0.2797852-0.625,0.625-0.625h37.6645508c0.3452148,0,0.625,0.2797852,0.625,0.625v2.2397461
				C75.7563477,55.5297852,75.4765625,55.8100586,75.1313477,55.8100586z M38.0917969,54.5600586h36.4145508v-0.9897461H38.0917969
				V54.5600586z"/>
		</g>
		<g>
			<g>
				<path class="st0" d="M86.8916016,27.1499023h-6.5004883c-0.3452148,0-0.625-0.2797852-0.625-0.625v-8.0053711
					c0-0.3452148,0.2797852-0.625,0.625-0.625h6.5004883c0.3452148,0,0.625,0.2797852,0.625,0.625v8.0053711
					C87.5166016,26.8701172,87.2368164,27.1499023,86.8916016,27.1499023z M81.0161133,25.8999023h5.2504883v-6.7553711h-5.2504883
					V25.8999023z"/>
			</g>
			<g>
				<path class="st0" d="M86.8916016,72.3569336h-6.5004883c-0.3452148,0-0.625-0.2802734-0.625-0.625V26.5249023
					c0-0.3452148,0.2797852-0.625,0.625-0.625h6.5004883c0.3452148,0,0.625,0.2797852,0.625,0.625v45.2070312
					C87.5166016,72.0766602,87.2368164,72.3569336,86.8916016,72.3569336z M81.0161133,71.1069336h5.2504883V27.1499023h-5.2504883
					V71.1069336z"/>
			</g>
			<g>
				<path class="st0" d="M87.5375977,98.2397461h-7.7924805c-0.3452148,0-0.625-0.2802734-0.625-0.625V73.5571289
					c0-0.3447266,0.2797852-0.625,0.625-0.625h7.7924805c0.3452148,0,0.625,0.2802734,0.625,0.625v24.0576172
					C88.1625977,97.9594727,87.8828125,98.2397461,87.5375977,98.2397461z M80.3701172,96.9897461h6.5424805V74.1821289h-6.5424805
					V96.9897461z"/>
			</g>
			<g>
				<path class="st0" d="M87.9765625,28.9746094h-8.6704102c-0.3452148,0-0.625-0.2797852-0.625-0.625v-1.824707
					c0-0.3452148,0.2797852-0.625,0.625-0.625h8.6704102c0.3452148,0,0.625,0.2797852,0.625,0.625v1.824707
					C88.6015625,28.6948242,88.3217773,28.9746094,87.9765625,28.9746094z M79.9311523,27.7246094h7.4204102v-0.574707h-7.4204102
					V27.7246094z"/>
			</g>
			<g>
				<path class="st0" d="M87.9765625,20.9697266h-8.6704102c-0.3452148,0-0.625-0.2797852-0.625-0.625v-1.8251953
					c0-0.3452148,0.2797852-0.625,0.625-0.625h8.6704102c0.3452148,0,0.625,0.2797852,0.625,0.625v1.8251953
					C88.6015625,20.6899414,88.3217773,20.9697266,87.9765625,20.9697266z M79.9311523,19.7197266h7.4204102v-0.5751953h-7.4204102
					V19.7197266z"/>
			</g>
			<g>
				<path class="st0" d="M87.9765625,74.1821289h-8.6704102c-0.3452148,0-0.625-0.2802734-0.625-0.625v-1.8251953
					c0-0.3447266,0.2797852-0.625,0.625-0.625h8.6704102c0.3452148,0,0.625,0.2802734,0.625,0.625v1.8251953
					C88.6015625,73.9018555,88.3217773,74.1821289,87.9765625,74.1821289z M79.9311523,72.9321289h7.4204102v-0.5751953h-7.4204102
					V72.9321289z"/>
			</g>
			<g>
				<path class="st0" d="M86.0224609,15.7973633h-4.7617188c-0.1943359,0-0.3774414-0.090332-0.4956055-0.2441406
					c-0.1181641-0.1542969-0.1582031-0.3544922-0.1083984-0.5419922l2.3808594-8.9223633
					C83.1108398,5.8154297,83.3583984,5.625,83.6416016,5.625s0.5307617,0.1904297,0.6040039,0.4638672l2.3808594,8.9223633
					c0.0498047,0.1875,0.0097656,0.3876953-0.1083984,0.5419922C86.3999023,15.7070312,86.2167969,15.7973633,86.0224609,15.7973633
					z M82.0742188,14.5473633h3.1347656l-1.5673828-5.8730469L82.0742188,14.5473633z"/>
			</g>
			<g>
				<path class="st0" d="M86.8916016,19.1445312h-6.5004883c-0.3452148,0-0.625-0.2797852-0.625-0.625v-3.2827148
					c0-0.3452148,0.2797852-0.625,0.625-0.625h6.5004883c0.3452148,0,0.625,0.2797852,0.625,0.625v3.2827148
					C87.5166016,18.8647461,87.2368164,19.1445312,86.8916016,19.1445312z M81.0161133,17.8945312h5.2504883v-2.0327148h-5.2504883
					V17.8945312z"/>
			</g>
			<g>
				<path class="st0" d="M84.5249023,7.4003906c-2.0405273,0-3.7001953-1.659668-3.7001953-3.7001953S82.484375,0,84.5249023,0
					c0.871582,0,1.7182617,0.309082,2.3837891,0.8701172c0.2124023,0.1791992,0.28125,0.4770508,0.1689453,0.730957
					c-0.112793,0.2543945-0.3837891,0.3955078-0.6547852,0.3666992c-0.0786133-0.0107422-0.1591797-0.0166016-0.2412109-0.0166016
					c-0.9643555,0-1.7490234,0.784668-1.7490234,1.7490234s0.784668,1.7490234,1.7490234,1.7490234
					c0.0820312,0,0.1625977-0.0053711,0.2412109-0.0161133c0.2709961-0.0341797,0.5419922,0.1118164,0.6547852,0.3666992
					c0.1123047,0.2539062,0.043457,0.5517578-0.1689453,0.730957C86.2431641,7.0913086,85.3969727,7.4003906,84.5249023,7.4003906z
					 M84.4526367,1.2509766c-1.3178711,0.0385742-2.3779297,1.1225586-2.3779297,2.4492188s1.0600586,2.4106445,2.3779297,2.4492188
					c-0.7680664-0.5439453-1.2700195-1.4389648-1.2700195-2.4492188S83.6845703,1.7949219,84.4526367,1.2509766z"/>
			</g>
			<g>
				<path class="st0" d="M84.7524414,27.1499023h-2.2216797c-0.3452148,0-0.625-0.2797852-0.625-0.625v-3.378418
					c0-0.8823242,0.6635742-1.6318359,1.6132812-1.8217773c0.0810547-0.0166016,0.1640625-0.0166016,0.2451172,0
					c0.949707,0.1899414,1.6132812,0.9394531,1.6132812,1.8217773v3.378418
					C85.3774414,26.8701172,85.0976562,27.1499023,84.7524414,27.1499023z M83.1557617,25.8999023h0.9716797v-2.753418
					c0-0.2416992-0.1982422-0.4648438-0.4858398-0.5629883c-0.2875977,0.0981445-0.4858398,0.3212891-0.4858398,0.5629883
					V25.8999023z"/>
			</g>
			<g>
				<path class="st0" d="M84.7646484,98.2397461h-2.2470703c-0.3452148,0-0.625-0.2802734-0.625-0.625V73.5571289
					c0-0.3447266,0.2797852-0.625,0.625-0.625h2.2470703c0.3452148,0,0.625,0.2802734,0.625,0.625v24.0576172
					C85.3896484,97.9594727,85.1098633,98.2397461,84.7646484,98.2397461z M83.1425781,96.9897461h0.9970703V74.1821289h-0.9970703
					V96.9897461z"/>
			</g>
		</g>
		<g>
			<g>
				<path class="st0" d="M32.2070312,27.1499023h-6.5009766c-0.3452148,0-0.625-0.2797852-0.625-0.625v-8.0053711
					c0-0.3452148,0.2797852-0.625,0.625-0.625h6.5009766c0.3452148,0,0.625,0.2797852,0.625,0.625v8.0053711
					C32.8320312,26.8701172,32.5522461,27.1499023,32.2070312,27.1499023z M26.3310547,25.8999023h5.2509766v-6.7553711h-5.2509766
					V25.8999023z"/>
			</g>
			<g>
				<path class="st0" d="M32.2070312,72.3569336h-6.5009766c-0.3452148,0-0.625-0.2802734-0.625-0.625V26.5249023
					c0-0.3452148,0.2797852-0.625,0.625-0.625h6.5009766c0.3452148,0,0.625,0.2797852,0.625,0.625v45.2070312
					C32.8320312,72.0766602,32.5522461,72.3569336,32.2070312,72.3569336z M26.3310547,71.1069336h5.2509766V27.1499023h-5.2509766
					V71.1069336z"/>
			</g>
			<g>
				<path class="st0" d="M32.8520508,98.2397461h-7.7924805c-0.3452148,0-0.625-0.2802734-0.625-0.625V73.5571289
					c0-0.3447266,0.2797852-0.625,0.625-0.625h7.7924805c0.3452148,0,0.625,0.2802734,0.625,0.625v24.0576172
					C33.4770508,97.9594727,33.1972656,98.2397461,32.8520508,98.2397461z M25.6845703,96.9897461h6.5424805V74.1821289h-6.5424805
					V96.9897461z"/>
			</g>
			<g>
				<path class="st0" d="M33.2910156,28.9746094h-8.6704102c-0.3452148,0-0.625-0.2797852-0.625-0.625v-1.824707
					c0-0.3452148,0.2797852-0.625,0.625-0.625h8.6704102c0.3452148,0,0.625,0.2797852,0.625,0.625v1.824707
					C33.9160156,28.6948242,33.6362305,28.9746094,33.2910156,28.9746094z M25.2456055,27.7246094h7.4204102v-0.574707h-7.4204102
					V27.7246094z"/>
			</g>
			<g>
				<path class="st0" d="M33.2910156,20.9697266h-8.6704102c-0.3452148,0-0.625-0.2797852-0.625-0.625v-1.8251953
					c0-0.3452148,0.2797852-0.625,0.625-0.625h8.6704102c0.3452148,0,0.625,0.2797852,0.625,0.625v1.8251953
					C33.9160156,20.6899414,33.6362305,20.9697266,33.2910156,20.9697266z M25.2456055,19.7197266h7.4204102v-0.5751953h-7.4204102
					V19.7197266z"/>
			</g>
			<g>
				<path class="st0" d="M33.2910156,74.1821289h-8.6704102c-0.3452148,0-0.625-0.2802734-0.625-0.625v-1.8251953
					c0-0.3447266,0.2797852-0.625,0.625-0.625h8.6704102c0.3452148,0,0.625,0.2802734,0.625,0.625v1.8251953
					C33.9160156,73.9018555,33.6362305,74.1821289,33.2910156,74.1821289z M25.2456055,72.9321289h7.4204102v-0.5751953h-7.4204102
					V72.9321289z"/>
			</g>
			<g>
				<path class="st0" d="M31.3374023,15.7973633h-4.7612305c-0.1943359,0-0.3774414-0.090332-0.4956055-0.2441406
					c-0.1181641-0.1542969-0.1582031-0.3544922-0.1083984-0.5419922l2.3803711-8.9223633
					C28.4257812,5.8154297,28.6733398,5.625,28.956543,5.625s0.5307617,0.1904297,0.6040039,0.4638672l2.3808594,8.9223633
					c0.0498047,0.1875,0.0097656,0.3876953-0.1083984,0.5419922C31.7148438,15.7070312,31.5317383,15.7973633,31.3374023,15.7973633
					z M27.3896484,14.5473633h3.1342773L28.956543,8.6743164L27.3896484,14.5473633z"/>
			</g>
			<g>
				<path class="st0" d="M32.2070312,19.1445312h-6.5009766c-0.3452148,0-0.625-0.2797852-0.625-0.625v-3.2827148
					c0-0.3452148,0.2797852-0.625,0.625-0.625h6.5009766c0.3452148,0,0.625,0.2797852,0.625,0.625v3.2827148
					C32.8320312,18.8647461,32.5522461,19.1445312,32.2070312,19.1445312z M26.3310547,17.8945312h5.2509766v-2.0327148h-5.2509766
					V17.8945312z"/>
			</g>
			<g>
				<path class="st0" d="M29.8393555,7.4003906c-2.0400391,0-3.699707-1.659668-3.699707-3.7001953S27.7993164,0,29.8393555,0
					c0.8720703,0,1.71875,0.309082,2.3842773,0.8706055c0.2119141,0.1791992,0.2807617,0.4770508,0.1679688,0.730957
					s-0.3833008,0.3950195-0.6542969,0.3662109c-1.0136719-0.1376953-1.9897461,0.6870117-1.9897461,1.7324219
					s0.9770508,1.8735352,1.9897461,1.7329102c0.2709961-0.0341797,0.5415039,0.1118164,0.6542969,0.3662109
					c0.112793,0.2539062,0.0439453,0.5517578-0.1679688,0.730957C31.5585938,7.0913086,30.7119141,7.4003906,29.8393555,7.4003906z
					 M29.7675781,1.2509766c-1.3173828,0.0380859-2.3779297,1.1220703-2.3779297,2.4492188s1.0605469,2.4111328,2.3779297,2.4492188
					c-0.7680664-0.5439453-1.2700195-1.4389648-1.2700195-2.4492188S28.9995117,1.7949219,29.7675781,1.2509766z"/>
			</g>
			<g>
				<path class="st0" d="M30.0673828,27.1499023h-2.2216797c-0.3452148,0-0.625-0.2797852-0.625-0.625v-3.378418
					c0-0.8823242,0.6630859-1.6313477,1.6132812-1.8217773c0.0810547-0.0166016,0.1640625-0.0166016,0.2451172,0
					c0.9501953,0.1904297,1.6132812,0.9394531,1.6132812,1.8217773v3.378418
					C30.6923828,26.8701172,30.4125977,27.1499023,30.0673828,27.1499023z M28.4707031,25.8999023h0.9716797v-2.753418
					c0-0.2416992-0.1982422-0.4648438-0.4858398-0.5629883c-0.2875977,0.0981445-0.4858398,0.3212891-0.4858398,0.5629883
					V25.8999023z"/>
			</g>
			<g>
				<path class="st0" d="M30.0795898,98.2397461h-2.2475586c-0.3452148,0-0.625-0.2802734-0.625-0.625V73.5571289
					c0-0.3447266,0.2797852-0.625,0.625-0.625h2.2475586c0.3452148,0,0.625,0.2802734,0.625,0.625v24.0576172
					C30.7045898,97.9594727,30.4248047,98.2397461,30.0795898,98.2397461z M28.4570312,96.9897461h0.9975586V74.1821289h-0.9975586
					V96.9897461z"/>
			</g>
		</g>
		<g>
			<path class="st0" d="M57.4897461,39.0878906h-2.3808594c-0.1801758,0-0.3515625-0.0776367-0.4702148-0.2133789
				c-0.1186523-0.1352539-0.1733398-0.3154297-0.1494141-0.4941406l1.1899414-8.9223633
				c0.0415039-0.3105469,0.3061523-0.5424805,0.6196289-0.5424805c0.3129883,0,0.578125,0.2319336,0.6196289,0.5424805
				l1.190918,8.9223633c0.0239258,0.1782227-0.0307617,0.3583984-0.1494141,0.4941406S57.6699219,39.0878906,57.4897461,39.0878906z
				 M55.8227539,37.8378906h0.953125l-0.4765625-3.5712891L55.8227539,37.8378906z"/>
		</g>
		<g>
			<path class="st0" d="M56.6928711,31.0253906c-2.0405273,0-3.7001953-1.659668-3.7001953-3.7001953
				S54.6523438,23.625,56.6928711,23.625c0.8725586,0,1.7192383,0.309082,2.3842773,0.8701172
				c0.2119141,0.1791992,0.2807617,0.4770508,0.1679688,0.730957S58.8623047,25.625,58.5908203,25.5922852
				c-1.0141602-0.1420898-1.9892578,0.6870117-1.9892578,1.7329102c0,1.0454102,0.9765625,1.8671875,1.9892578,1.7324219
				c0.2714844-0.0351562,0.5415039,0.1118164,0.6542969,0.3662109c0.112793,0.2539062,0.0439453,0.5517578-0.1679688,0.730957
				C58.4116211,30.7163086,57.5649414,31.0253906,56.6928711,31.0253906z M56.621582,24.8759766
				c-1.3183594,0.0380859-2.3789062,1.1220703-2.3789062,2.4492188s1.0605469,2.4111328,2.3789062,2.4492188
				c-0.7680664-0.5439453-1.2700195-1.4389648-1.2700195-2.4492188S55.8535156,25.4199219,56.621582,24.8759766z"/>
		</g>
		<g>
			<g>
				<path class="st0" d="M48.3452148,98.2397461h-3.4516602c-0.3452148,0-0.625-0.2802734-0.625-0.625V70.9135742
					c0-2.6865234,0.6206055-5.8076172,2.0068359-6.7216797c0.2089844-0.1386719,0.4794922-0.1386719,0.6884766,0
					c1.3862305,0.9150391,2.0063477,4.0351562,2.0063477,6.7216797v26.7011719
					C48.9702148,97.9594727,48.6904297,98.2397461,48.3452148,98.2397461z M45.5185547,96.9897461h2.2016602V70.9135742
					c0-2.4775391-0.515625-4.4609375-1.1005859-5.3144531c-0.5854492,0.8535156-1.1010742,2.8369141-1.1010742,5.3144531V96.9897461
					z"/>
			</g>
			<g>
				<path class="st0" d="M42.0830078,98.2397461h-3.4511719c-0.3452148,0-0.625-0.2802734-0.625-0.625V70.9135742
					c0-2.6865234,0.6201172-5.8076172,2.0058594-6.7216797c0.2080078-0.1386719,0.4785156-0.1396484,0.6884766,0
					c1.3862305,0.9140625,2.0068359,4.0341797,2.0068359,6.7216797v26.7011719
					C42.7080078,97.9594727,42.4282227,98.2397461,42.0830078,98.2397461z M39.2568359,96.9897461h2.2011719V70.9135742
					c0-2.4785156-0.515625-4.4609375-1.1010742-5.3144531c-0.5844727,0.8535156-1.1000977,2.8359375-1.1000977,5.3144531V96.9897461
					z"/>
			</g>
		</g>
		<g>
			<g>
				<path class="st0" d="M73.9667969,98.2397461h-3.4521484c-0.3452148,0-0.625-0.2802734-0.625-0.625V70.9135742
					c0-2.6865234,0.6206055-5.8066406,2.0068359-6.7216797c0.2089844-0.1386719,0.4794922-0.1386719,0.6884766,0
					c1.3862305,0.9140625,2.0068359,4.0351562,2.0068359,6.7216797v26.7011719
					C74.5917969,97.9594727,74.3120117,98.2397461,73.9667969,98.2397461z M71.1396484,96.9897461h2.2021484V70.9135742
					c0-2.4785156-0.515625-4.4609375-1.1010742-5.3144531c-0.5849609,0.8535156-1.1010742,2.8369141-1.1010742,5.3144531V96.9897461
					z"/>
			</g>
			<g>
				<path class="st0" d="M67.7041016,98.2397461h-3.4511719c-0.3452148,0-0.625-0.2802734-0.625-0.625V70.9135742
					c0-2.6865234,0.6206055-5.8076172,2.0068359-6.7216797c0.2089844-0.1386719,0.4794922-0.1386719,0.6884766,0
					c1.3857422,0.9140625,2.0058594,4.0351562,2.0058594,6.7216797v26.7011719
					C68.3291016,97.9594727,68.0493164,98.2397461,67.7041016,98.2397461z M64.8779297,96.9897461h2.2011719V70.9135742
					c0-2.4775391-0.515625-4.4609375-1.1000977-5.3144531c-0.5854492,0.8535156-1.1010742,2.8369141-1.1010742,5.3144531V96.9897461
					z"/>
			</g>
		</g>
		<g>
			<g>
				<path class="st0" d="M60.9379883,67.5854492c-0.0039062,0-0.0078125,0-0.0117188,0
					c-0.2866211-0.0058594-0.5327148-0.2050781-0.597168-0.484375c-0.453125-1.9628906-1.2851562-3.6767578-2.34375-4.828125
					c-0.105957-0.1152344-0.1650391-0.265625-0.1650391-0.4228516v-2.4414062c0-1.5361328,0.8974609-2.8583984,2.1831055-3.2167969
					c0.109375-0.0292969,0.2255859-0.0292969,0.3349609,0c1.2856445,0.3583984,2.1831055,1.6806641,2.1831055,3.2167969v5.2314453
					c0,0.1083984-0.0283203,0.2148438-0.0820312,0.3095703c-0.3911133,0.6855469-0.6933594,1.4169922-0.8984375,2.1738281
					C61.4672852,67.3969727,61.2197266,67.5854492,60.9379883,67.5854492z M59.0703125,61.6118164
					c0.7919922,0.9140625,1.4467773,2.0615234,1.9350586,3.3828125c0.0839844-0.1748047,0.1723633-0.3476562,0.2661133-0.5175781
					v-5.0683594c0-0.8867188-0.4536133-1.6748047-1.1005859-1.953125c-0.6469727,0.2783203-1.1005859,1.0664062-1.1005859,1.953125
					V61.6118164z"/>
			</g>
			<g>
				<path class="st0" d="M51.6601562,67.5854492c-0.2822266,0-0.5297852-0.1894531-0.6035156-0.4619141
					c-0.2036133-0.7539062-0.5058594-1.4853516-0.8979492-2.1738281c-0.0537109-0.0947266-0.0820312-0.2011719-0.0820312-0.3095703
					v-5.2314453c0-1.5361328,0.8974609-2.8583984,2.1821289-3.2167969c0.1103516-0.0292969,0.2260742-0.0292969,0.3354492,0
					c1.2856445,0.3583984,2.1835938,1.6806641,2.1835938,3.2167969v2.4414062c0,0.15625-0.0585938,0.3076172-0.1650391,0.4228516
					c-1.0595703,1.1523438-1.8916016,2.8671875-2.34375,4.828125c-0.0644531,0.2792969-0.3105469,0.4785156-0.597168,0.484375
					C51.6679688,67.5854492,51.6640625,67.5854492,51.6601562,67.5854492z M51.3266602,64.4770508
					c0.09375,0.1699219,0.1821289,0.3427734,0.2661133,0.5175781c0.487793-1.3212891,1.1425781-2.4677734,1.9350586-3.3828125
					v-2.203125c0-0.8867188-0.4536133-1.6748047-1.1010742-1.953125c-0.6464844,0.2783203-1.1000977,1.0664062-1.1000977,1.953125
					V64.4770508z"/>
			</g>
		</g>
		<g>
			<g>
				<path class="st0" d="M66.4643555,60.9995117c-0.1147461,0-0.2285156-0.03125-0.3291016-0.09375
					c-0.184082-0.1142578-0.2958984-0.3144531-0.2958984-0.53125v-0.9658203c0-1.5361328,0.8974609-2.8583984,2.1831055-3.2167969
					c0.109375-0.0292969,0.2250977-0.0292969,0.3354492,0c1.2851562,0.3583984,2.1826172,1.6816406,2.1826172,3.2167969v0.2451172
					c0,0.1972656-0.0927734,0.3828125-0.2509766,0.5009766c-0.1582031,0.1171875-0.3637695,0.1523438-0.5512695,0.0986328
					c-0.206543-0.0615234-0.4160156-0.1171875-0.6279297-0.1650391c-0.8212891,0.1884766-1.6171875,0.4726562-2.3676758,0.8457031
					C66.6547852,60.9780273,66.5595703,60.9995117,66.4643555,60.9995117z M68.1899414,57.4555664
					c-0.6469727,0.2783203-1.1005859,1.0664062-1.1005859,1.953125v0.0029297
					c0.6108398-0.2421875,1.2431641-0.4345703,1.8881836-0.5751953c0.0810547-0.0166016,0.1650391-0.0175781,0.2480469-0.0029297
					C69.078125,58.1948242,68.6923828,57.6713867,68.1899414,57.4555664z"/>
			</g>
			<g>
				<path class="st0" d="M46.1337891,60.9995117c-0.0952148,0-0.1904297-0.0214844-0.2783203-0.0654297
					c-0.7495117-0.3730469-1.5454102-0.6572266-2.3676758-0.8457031c-0.2119141,0.0478516-0.4213867,0.1035156-0.628418,0.1650391
					c-0.1894531,0.0537109-0.3925781,0.0185547-0.5507812-0.0986328c-0.1582031-0.1181641-0.2509766-0.3037109-0.2509766-0.5009766
					v-0.2451172c0-1.5361328,0.8974609-2.8583984,2.1831055-3.2167969c0.109375-0.0292969,0.2255859-0.0292969,0.3349609,0
					c1.2856445,0.3583984,2.1831055,1.6806641,2.1831055,3.2167969v0.9658203c0,0.2167969-0.1118164,0.4169922-0.2958984,0.53125
					C46.3623047,60.9682617,46.2480469,60.9995117,46.1337891,60.9995117z M43.4882812,58.8227539
					c0.0444336,0,0.0888672,0.0048828,0.1323242,0.0136719c0.6455078,0.140625,1.2773438,0.3330078,1.8881836,0.5751953v-0.0029297
					c0-0.8867188-0.4536133-1.6748047-1.1005859-1.953125c-0.5024414,0.2158203-0.8881836,0.7392578-1.0356445,1.3779297
					C43.4111328,58.8266602,43.449707,58.8227539,43.4882812,58.8227539z"/>
			</g>
		</g>
		<g>
			<g>
				<path class="st0" d="M84.3583984,39.6611328c-0.3452148,0-0.625-0.2797852-0.625-0.625v-2.7421875
					c0-0.3452148,0.2797852-0.625,0.625-0.625s0.625,0.2797852,0.625,0.625v2.7421875
					C84.9833984,39.3813477,84.7036133,39.6611328,84.3583984,39.6611328z M82.9243164,39.6611328
					c-0.3452148,0-0.625-0.2797852-0.625-0.625v-2.7421875c0-0.3452148,0.2797852-0.625,0.625-0.625s0.625,0.2797852,0.625,0.625
					v2.7421875C83.5493164,39.3813477,83.2695312,39.6611328,82.9243164,39.6611328z"/>
			</g>
			<g>
				<path class="st0" d="M84.3583984,47.2978516c-0.3452148,0-0.625-0.2797852-0.625-0.625v-2.7421875
					c0-0.3452148,0.2797852-0.625,0.625-0.625s0.625,0.2797852,0.625,0.625v2.7421875
					C84.9833984,47.0180664,84.7036133,47.2978516,84.3583984,47.2978516z M82.9243164,47.2978516
					c-0.3452148,0-0.625-0.2797852-0.625-0.625v-2.7421875c0-0.3452148,0.2797852-0.625,0.625-0.625s0.625,0.2797852,0.625,0.625
					v2.7421875C83.5493164,47.0180664,83.2695312,47.2978516,82.9243164,47.2978516z"/>
			</g>
			<g>
				<path class="st0" d="M84.3583984,54.934082c-0.3452148,0-0.625-0.2802734-0.625-0.625v-2.7416992
					c0-0.3452148,0.2797852-0.625,0.625-0.625s0.625,0.2797852,0.625,0.625v2.7416992
					C84.9833984,54.6538086,84.7036133,54.934082,84.3583984,54.934082z M82.9243164,54.934082
					c-0.3452148,0-0.625-0.2802734-0.625-0.625v-2.7416992c0-0.3452148,0.2797852-0.625,0.625-0.625s0.625,0.2797852,0.625,0.625
					v2.7416992C83.5493164,54.6538086,83.2695312,54.934082,82.9243164,54.934082z"/>
			</g>
			<g>
				<path class="st0" d="M84.3583984,62.5708008c-0.3452148,0-0.625-0.2802734-0.625-0.625v-2.7421875
					c0-0.3447266,0.2797852-0.625,0.625-0.625s0.625,0.2802734,0.625,0.625v2.7421875
					C84.9833984,62.2905273,84.7036133,62.5708008,84.3583984,62.5708008z M82.9243164,62.5708008
					c-0.3452148,0-0.625-0.2802734-0.625-0.625v-2.7421875c0-0.3447266,0.2797852-0.625,0.625-0.625s0.625,0.2802734,0.625,0.625
					v2.7421875C83.5493164,62.2905273,83.2695312,62.5708008,82.9243164,62.5708008z"/>
			</g>
		</g>
		<g>
			<g>
				<path class="st0" d="M29.6738281,39.6611328c-0.3452148,0-0.625-0.2797852-0.625-0.625v-2.7421875
					c0-0.3452148,0.2797852-0.625,0.625-0.625s0.625,0.2797852,0.625,0.625v2.7421875
					C30.2988281,39.3813477,30.019043,39.6611328,29.6738281,39.6611328z M28.2392578,39.6611328
					c-0.3452148,0-0.625-0.2797852-0.625-0.625v-2.7421875c0-0.3452148,0.2797852-0.625,0.625-0.625s0.625,0.2797852,0.625,0.625
					v2.7421875C28.8642578,39.3813477,28.5844727,39.6611328,28.2392578,39.6611328z"/>
			</g>
			<g>
				<path class="st0" d="M29.6738281,47.2978516c-0.3452148,0-0.625-0.2797852-0.625-0.625v-2.7421875
					c0-0.3452148,0.2797852-0.625,0.625-0.625s0.625,0.2797852,0.625,0.625v2.7421875
					C30.2988281,47.0180664,30.019043,47.2978516,29.6738281,47.2978516z M28.2392578,47.2978516
					c-0.3452148,0-0.625-0.2797852-0.625-0.625v-2.7421875c0-0.3452148,0.2797852-0.625,0.625-0.625s0.625,0.2797852,0.625,0.625
					v2.7421875C28.8642578,47.0180664,28.5844727,47.2978516,28.2392578,47.2978516z"/>
			</g>
			<g>
				<path class="st0" d="M29.6738281,54.934082c-0.3452148,0-0.625-0.2802734-0.625-0.625v-2.7416992
					c0-0.3452148,0.2797852-0.625,0.625-0.625s0.625,0.2797852,0.625,0.625v2.7416992
					C30.2988281,54.6538086,30.019043,54.934082,29.6738281,54.934082z M28.2392578,54.934082
					c-0.3452148,0-0.625-0.2802734-0.625-0.625v-2.7416992c0-0.3452148,0.2797852-0.625,0.625-0.625s0.625,0.2797852,0.625,0.625
					v2.7416992C28.8642578,54.6538086,28.5844727,54.934082,28.2392578,54.934082z"/>
			</g>
			<g>
				<path class="st0" d="M29.6738281,62.5708008c-0.3452148,0-0.625-0.2802734-0.625-0.625v-2.7421875
					c0-0.3447266,0.2797852-0.625,0.625-0.625s0.625,0.2802734,0.625,0.625v2.7421875
					C30.2988281,62.2905273,30.019043,62.5708008,29.6738281,62.5708008z M28.2392578,62.5708008
					c-0.3452148,0-0.625-0.2802734-0.625-0.625v-2.7421875c0-0.3447266,0.2797852-0.625,0.625-0.625s0.625,0.2802734,0.625,0.625
					v2.7421875C28.8642578,62.2905273,28.5844727,62.5708008,28.2392578,62.5708008z"/>
			</g>
		</g>
		<g>
			<path class="st0" d="M93.1323242,98.2397461h-5.6015625c-0.3452148,0-0.625-0.2802734-0.625-0.625V88.159668
				c0-0.3447266,0.2797852-0.625,0.625-0.625h5.6015625c0.3452148,0,0.625,0.2802734,0.625,0.625v9.4550781
				C93.7573242,97.9594727,93.4775391,98.2397461,93.1323242,98.2397461z M88.1557617,96.9897461h4.3515625V88.784668h-4.3515625
				V96.9897461z"/>
		</g>
		<g>
			<path class="st0" d="M24.8710938,98.2397461h-5.6015625c-0.3452148,0-0.625-0.2802734-0.625-0.625V88.159668
				c0-0.3447266,0.2797852-0.625,0.625-0.625h5.6015625c0.3452148,0,0.625,0.2802734,0.625,0.625v9.4550781
				C25.4960938,97.9594727,25.2163086,98.2397461,24.8710938,98.2397461z M19.8945312,96.9897461h4.3515625V88.784668h-4.3515625
				V96.9897461z"/>
		</g>
	</g>
	<g>
		<path class="st2" d="M56.2016602,38.4265099c8.3916092,0,15.2978668,6.3577499,16.1657181,14.5188599H40.0364456
			C40.9037895,44.7842598,47.8100471,38.4265099,56.2016602,38.4265099z"/>
		<path class="st0" d="M72.3671875,53.5703125H40.0366211c-0.1772461,0-0.3461914-0.0751953-0.4648438-0.2070312
			c-0.1181641-0.1318359-0.175293-0.3076172-0.1567383-0.4838867c0.9135742-8.5961914,8.1298828-15.078125,16.7866211-15.078125
			c8.65625,0,15.8730469,6.4819336,16.7871094,15.078125c0.0185547,0.1762695-0.0380859,0.3520508-0.1567383,0.4838867
			S72.5444336,53.5703125,72.3671875,53.5703125z M40.7470703,52.3203125h30.909668
			c-1.1484375-7.6123047-7.6733398-13.269043-15.4550781-13.269043S41.8945312,44.7080078,40.7470703,52.3203125z"/>
	</g>
	<g>
		<path class="st3" d="M56.2016602,62.3554955c1.5808525,0.9775124,2.759037,4.7675667,2.759037,9.2931252v25.9661789h-5.518074
			V71.6486206C53.4426231,67.1230621,54.6208038,63.3330078,56.2016602,62.3554955z"/>
		<path class="st0" d="M58.9609375,98.2397461h-5.5185547c-0.3452148,0-0.625-0.2802734-0.625-0.625V71.6489258
			c0-4.7460938,1.2280273-8.6943359,3.0556641-9.8242188c0.2011719-0.125,0.4560547-0.125,0.6572266,0
			c1.8276367,1.1298828,3.0556641,5.078125,3.0556641,9.8242188v25.9658203
			C59.5859375,97.9594727,59.3061523,98.2397461,58.9609375,98.2397461z M54.0673828,96.9897461h4.2685547V71.6489258
			c0-4.2714844-1.0473633-7.4033203-2.1342773-8.4951172c-1.0869141,1.0917969-2.1342773,4.2236328-2.1342773,8.4951172V96.9897461z
			"/>
	</g>
	<g>
		<g>
			<path class="st3" d="M46.5221977,64.713028c0.9883461,0.6525116,1.7258568,3.1810379,1.7258568,6.2009125v26.7008591h-3.4517136
				V70.9139404C44.7963409,67.8940659,45.5333519,65.3655396,46.5221977,64.713028z"/>
			<path class="st0" d="M48.2480469,98.2397461h-3.4516602c-0.3452148,0-0.625-0.2802734-0.625-0.625V70.9135742
				c0-2.6865234,0.6206055-5.8076172,2.0063477-6.7216797c0.2089844-0.1386719,0.4794922-0.1386719,0.6884766,0
				c1.3862305,0.9140625,2.0068359,4.0351562,2.0068359,6.7216797v26.7011719
				C48.8730469,97.9594727,48.5932617,98.2397461,48.2480469,98.2397461z M45.4213867,96.9897461h2.2016602V70.9135742
				c0-2.4785156-0.5161133-4.4609375-1.1010742-5.3144531c-0.5849609,0.8535156-1.1005859,2.8359375-1.1005859,5.3144531V96.9897461
				z"/>
		</g>
		<g>
			<path class="st3" d="M40.2597809,64.713028c0.9888458,0.6525116,1.7258568,3.1810379,1.7258568,6.2009125v26.7008591h-3.4512138
				V70.9139404C38.5344238,67.8940659,39.2714348,65.3655396,40.2597809,64.713028z"/>
			<path class="st0" d="M41.9858398,98.2397461H38.534668c-0.3452148,0-0.625-0.2802734-0.625-0.625V70.9135742
				c0-2.6865234,0.6201172-5.8076172,2.0058594-6.7216797c0.2089844-0.1386719,0.4794922-0.1386719,0.6884766,0
				c1.3862305,0.9140625,2.0068359,4.0351562,2.0068359,6.7216797v26.7011719
				C42.6108398,97.9594727,42.3310547,98.2397461,41.9858398,98.2397461z M39.159668,96.9897461h2.2011719V70.9135742
				c0-2.4775391-0.515625-4.4609375-1.1010742-5.3144531c-0.5844727,0.8535156-1.1000977,2.8369141-1.1000977,5.3144531V96.9897461z
				"/>
		</g>
	</g>
	<g>
		<g>
			<path class="st3" d="M72.1433716,64.713028c0.9888458,0.6525116,1.7258606,3.1810379,1.7258606,6.2009125v26.7008591h-3.4517136
				V70.9139404C70.4175186,67.8940659,71.1550293,65.3655396,72.1433716,64.713028z"/>
			<path class="st0" d="M73.8691406,98.2397461h-3.4516602c-0.3452148,0-0.625-0.2802734-0.625-0.625V70.9135742
				c0-2.6865234,0.6206055-5.8076172,2.0068359-6.7216797c0.2089844-0.1386719,0.4794922-0.1386719,0.6884766,0
				c1.3857422,0.9140625,2.0063477,4.0351562,2.0063477,6.7216797v26.7011719
				C74.4941406,97.9594727,74.2143555,98.2397461,73.8691406,98.2397461z M71.0424805,96.9897461h2.2016602V70.9135742
				c0-2.4785156-0.515625-4.4609375-1.1005859-5.3144531c-0.5849609,0.8535156-1.1010742,2.8359375-1.1010742,5.3144531V96.9897461z
				"/>
		</g>
		<g>
			<path class="st3" d="M65.8816223,64.713028c0.9883499,0.6525116,1.7253571,3.1810379,1.7253571,6.2009125v26.7008591h-3.45121
				V70.9139404C64.1557693,67.8940659,64.8927765,65.3655396,65.8816223,64.713028z"/>
			<path class="st0" d="M67.6069336,98.2397461h-3.4511719c-0.3452148,0-0.625-0.2802734-0.625-0.625V70.9135742
				c0-2.6875,0.6206055-5.8076172,2.0068359-6.7216797c0.2089844-0.1396484,0.4794922-0.1386719,0.6884766,0
				c1.3857422,0.9140625,2.0058594,4.0351562,2.0058594,6.7216797v26.7011719
				C68.2319336,97.9594727,67.9521484,98.2397461,67.6069336,98.2397461z M64.7807617,96.9897461h2.2011719V70.9135742
				c0-2.4785156-0.515625-4.4609375-1.1000977-5.3144531c-0.5854492,0.8535156-1.1010742,2.8359375-1.1010742,5.3144531V96.9897461z
				"/>
		</g>
	</g>
	<g>
		<g>
			<path class="st3" d="M60.0733795,56.7949219c0.9888458,0.2748375,1.7258568,1.3403511,1.7258568,2.613533v5.2319031
				c-0.4138412,0.7256775-0.7375107,1.5033569-0.958683,2.3197021c-0.4841728-2.0995331-1.3643494-3.8830566-2.4925308-5.1100693
				v-2.4415359C58.3480225,58.135273,59.0850334,57.0697594,60.0733795,56.7949219z"/>
			<path class="st0" d="M60.840332,67.5854492c-0.0039062,0-0.0078125,0-0.0117188,0
				c-0.2866211-0.0058594-0.5327148-0.2050781-0.597168-0.484375c-0.4521484-1.9619141-1.2841797-3.6767578-2.3432617-4.828125
				c-0.105957-0.1152344-0.1650391-0.2666016-0.1650391-0.4228516v-2.4414062c0-1.5361328,0.8974609-2.8583984,2.1821289-3.2167969
				c0.1103516-0.0292969,0.2260742-0.0292969,0.3354492,0c1.2856445,0.3583984,2.1835938,1.6806641,2.1835938,3.2167969v5.2314453
				c0,0.1083984-0.0283203,0.2158203-0.0820312,0.3095703c-0.3911133,0.6855469-0.6933594,1.4169922-0.8989258,2.1738281
				C61.3696289,67.3969727,61.1220703,67.5854492,60.840332,67.5854492z M58.9731445,61.6118164
				c0.7919922,0.9140625,1.4467773,2.0615234,1.9345703,3.3828125c0.0839844-0.1748047,0.1728516-0.3476562,0.2666016-0.5175781
				v-5.0683594c0-0.8867188-0.4536133-1.6748047-1.1010742-1.953125c-0.6464844,0.2783203-1.1000977,1.0664062-1.1000977,1.953125
				V61.6118164z"/>
		</g>
		<g>
			<path class="st3" d="M52.3294411,56.7949219c0.9888458,0.2748375,1.7258568,1.3403511,1.7258568,2.613533v2.4420357
				c-1.1281815,1.2270164-2.008358,3.01054-2.4926987,5.1095695c-0.2205048-0.8168488-0.5446739-1.5945206-0.9585152-2.3201981
				v-5.2314072C50.604084,58.135273,51.341095,57.0697594,52.3294411,56.7949219z"/>
			<path class="st0" d="M51.5625,67.5854492c-0.2822266,0-0.5297852-0.1894531-0.6035156-0.4628906
				c-0.203125-0.7539062-0.5053711-1.484375-0.8979492-2.1728516c-0.0537109-0.09375-0.0820312-0.2011719-0.0820312-0.3095703
				v-5.2314453c0-1.5351562,0.8974609-2.8583984,2.1826172-3.2167969c0.1103516-0.0292969,0.2260742-0.0292969,0.3354492,0
				c1.2856445,0.3583984,2.1831055,1.6806641,2.1831055,3.2167969v2.4414062c0,0.15625-0.0585938,0.3076172-0.1645508,0.4228516
				c-1.0595703,1.1523438-1.8916016,2.8671875-2.3442383,4.828125c-0.0644531,0.2792969-0.3105469,0.4794922-0.5976562,0.484375
				C51.5698242,67.5854492,51.5664062,67.5854492,51.5625,67.5854492z M51.2290039,64.4770508
				c0.09375,0.1699219,0.1826172,0.3427734,0.2666016,0.5175781c0.487793-1.3203125,1.1425781-2.4677734,1.9345703-3.3828125
				v-2.203125c0-0.8867188-0.4536133-1.6748047-1.1005859-1.953125c-0.6469727,0.2783203-1.1005859,1.0664062-1.1005859,1.953125
				V64.4770508z"/>
		</g>
	</g>
	<g>
		<g>
			<path class="st3" d="M68.0926514,56.7949219c0.9883499,0.2748375,1.7253571,1.3403511,1.7253571,2.613533v0.2451706
				c-0.2640076-0.0779991-0.5328445-0.1469994-0.8055115-0.2060013c-0.9330139,0.2026672-1.8203583,0.5168381-2.6456985,0.9265099
				v-0.9656792C66.3667984,58.135273,67.1038055,57.0697594,68.0926514,56.7949219z"/>
			<path class="st0" d="M66.3666992,60.9995117c-0.1147461,0-0.2285156-0.03125-0.3291016-0.09375
				c-0.184082-0.1142578-0.2958984-0.3144531-0.2958984-0.53125v-0.9658203c0-1.5361328,0.8979492-2.8583984,2.1835938-3.2167969
				c0.109375-0.0292969,0.2250977-0.0292969,0.3354492,0c1.284668,0.3583984,2.1821289,1.6806641,2.1821289,3.2167969v0.2451172
				c0,0.1972656-0.0932617,0.3828125-0.2509766,0.5009766c-0.1582031,0.1171875-0.362793,0.1523438-0.5517578,0.0986328
				c-0.2055664-0.0615234-0.4150391-0.1171875-0.6269531-0.1650391c-0.8212891,0.1884766-1.6171875,0.4726562-2.3686523,0.8457031
				C66.5571289,60.9780273,66.4619141,60.9995117,66.3666992,60.9995117z M68.0927734,57.4555664
				c-0.6474609,0.2783203-1.1010742,1.0664062-1.1010742,1.953125v0.0029297
				c0.6113281-0.2421875,1.2436523-0.4345703,1.8886719-0.5751953c0.081543-0.0166016,0.1655273-0.0175781,0.2475586-0.0029297
				C68.9804688,58.1948242,68.5947266,57.6713867,68.0927734,57.4555664z"/>
		</g>
		<g>
			<path class="st3" d="M44.3110008,56.7949219c0.9885139,0.2748375,1.7255249,1.3403511,1.7255249,2.613533v0.9656792
				c-0.8250122-0.4096718-1.7126923-0.7238426-2.6453705-0.9265099c-0.2730026,0.0590019-0.5413399,0.1285019-0.8058434,0.206501
				v-0.2456703C42.5853119,58.135273,43.3223228,57.0697594,44.3110008,56.7949219z"/>
			<path class="st0" d="M46.0366211,60.9995117c-0.0952148,0-0.1904297-0.0214844-0.2783203-0.0654297
				c-0.75-0.3730469-1.5458984-0.6572266-2.3676758-0.8457031c-0.2119141,0.0478516-0.4213867,0.1035156-0.6279297,0.1650391
				c-0.1875,0.0546875-0.3925781,0.0185547-0.5512695-0.0986328c-0.1582031-0.1181641-0.2509766-0.3037109-0.2509766-0.5009766
				v-0.2451172c0-1.5361328,0.8974609-2.8583984,2.1831055-3.2167969c0.109375-0.0292969,0.2250977-0.0292969,0.3354492,0
				c1.2851562,0.3583984,2.1826172,1.6816406,2.1826172,3.2167969v0.9658203c0,0.2167969-0.1118164,0.4169922-0.2958984,0.53125
				C46.2651367,60.9682617,46.1513672,60.9995117,46.0366211,60.9995117z M43.3911133,58.8227539
				c0.0444336,0,0.0888672,0.0048828,0.1323242,0.0146484c0.6455078,0.1396484,1.2773438,0.3320312,1.8881836,0.5742188v-0.0029297
				c0-0.8867188-0.4536133-1.6748047-1.1005859-1.953125c-0.5024414,0.2158203-0.8881836,0.7392578-1.0356445,1.3779297
				C43.3139648,58.8266602,43.3525391,58.8227539,43.3911133,58.8227539z"/>
		</g>
	</g>
	<g>
		<g>
			<path class="st0" d="M84.2612305,39.6611328c-0.3452148,0-0.625-0.2797852-0.625-0.625v-2.7421875
				c0-0.3452148,0.2797852-0.625,0.625-0.625s0.625,0.2797852,0.625,0.625v2.7421875
				C84.8862305,39.3813477,84.6064453,39.6611328,84.2612305,39.6611328z M82.8266602,39.6611328
				c-0.3452148,0-0.625-0.2797852-0.625-0.625v-2.7421875c0-0.3452148,0.2797852-0.625,0.625-0.625s0.625,0.2797852,0.625,0.625
				v2.7421875C83.4516602,39.3813477,83.171875,39.6611328,82.8266602,39.6611328z"/>
		</g>
		<g>
			<path class="st0" d="M84.2612305,47.2978516c-0.3452148,0-0.625-0.2797852-0.625-0.625v-2.7421875
				c0-0.3452148,0.2797852-0.625,0.625-0.625s0.625,0.2797852,0.625,0.625v2.7421875
				C84.8862305,47.0180664,84.6064453,47.2978516,84.2612305,47.2978516z M82.8266602,47.2978516
				c-0.3452148,0-0.625-0.2797852-0.625-0.625v-2.7421875c0-0.3452148,0.2797852-0.625,0.625-0.625s0.625,0.2797852,0.625,0.625
				v2.7421875C83.4516602,47.0180664,83.171875,47.2978516,82.8266602,47.2978516z"/>
		</g>
		<g>
			<path class="st0" d="M84.2612305,54.934082c-0.3452148,0-0.625-0.2802734-0.625-0.625v-2.7416992
				c0-0.3452148,0.2797852-0.625,0.625-0.625s0.625,0.2797852,0.625,0.625v2.7416992
				C84.8862305,54.6538086,84.6064453,54.934082,84.2612305,54.934082z M82.8266602,54.934082
				c-0.3452148,0-0.625-0.2802734-0.625-0.625v-2.7416992c0-0.3452148,0.2797852-0.625,0.625-0.625s0.625,0.2797852,0.625,0.625
				v2.7416992C83.4516602,54.6538086,83.171875,54.934082,82.8266602,54.934082z"/>
		</g>
		<g>
			<path class="st0" d="M84.2612305,62.5708008c-0.3452148,0-0.625-0.2802734-0.625-0.625v-2.7421875
				c0-0.3447266,0.2797852-0.625,0.625-0.625s0.625,0.2802734,0.625,0.625v2.7421875
				C84.8862305,62.2905273,84.6064453,62.5708008,84.2612305,62.5708008z M82.8266602,62.5708008
				c-0.3452148,0-0.625-0.2802734-0.625-0.625v-2.7421875c0-0.3447266,0.2797852-0.625,0.625-0.625s0.625,0.2802734,0.625,0.625
				v2.7421875C83.4516602,62.2905273,83.171875,62.5708008,82.8266602,62.5708008z"/>
		</g>
	</g>
	<g>
		<g>
			<path class="st0" d="M29.5766602,39.6611328c-0.3452148,0-0.625-0.2797852-0.625-0.625v-2.7421875
				c0-0.3452148,0.2797852-0.625,0.625-0.625s0.625,0.2797852,0.625,0.625v2.7421875
				C30.2016602,39.3813477,29.921875,39.6611328,29.5766602,39.6611328z M28.1420898,39.6611328
				c-0.3452148,0-0.625-0.2797852-0.625-0.625v-2.7421875c0-0.3452148,0.2797852-0.625,0.625-0.625s0.625,0.2797852,0.625,0.625
				v2.7421875C28.7670898,39.3813477,28.4873047,39.6611328,28.1420898,39.6611328z"/>
		</g>
		<g>
			<path class="st0" d="M29.5766602,47.2978516c-0.3452148,0-0.625-0.2797852-0.625-0.625v-2.7421875
				c0-0.3452148,0.2797852-0.625,0.625-0.625s0.625,0.2797852,0.625,0.625v2.7421875
				C30.2016602,47.0180664,29.921875,47.2978516,29.5766602,47.2978516z M28.1420898,47.2978516
				c-0.3452148,0-0.625-0.2797852-0.625-0.625v-2.7421875c0-0.3452148,0.2797852-0.625,0.625-0.625s0.625,0.2797852,0.625,0.625
				v2.7421875C28.7670898,47.0180664,28.4873047,47.2978516,28.1420898,47.2978516z"/>
		</g>
		<g>
			<path class="st0" d="M29.5766602,54.934082c-0.3452148,0-0.625-0.2802734-0.625-0.625v-2.7416992
				c0-0.3452148,0.2797852-0.625,0.625-0.625s0.625,0.2797852,0.625,0.625v2.7416992
				C30.2016602,54.6538086,29.921875,54.934082,29.5766602,54.934082z M28.1420898,54.934082
				c-0.3452148,0-0.625-0.2802734-0.625-0.625v-2.7416992c0-0.3452148,0.2797852-0.625,0.625-0.625s0.625,0.2797852,0.625,0.625
				v2.7416992C28.7670898,54.6538086,28.4873047,54.934082,28.1420898,54.934082z"/>
		</g>
		<g>
			<path class="st0" d="M29.5766602,62.5708008c-0.3452148,0-0.625-0.2802734-0.625-0.625v-2.7421875
				c0-0.3447266,0.2797852-0.625,0.625-0.625s0.625,0.2802734,0.625,0.625v2.7421875
				C30.2016602,62.2905273,29.921875,62.5708008,29.5766602,62.5708008z M28.1420898,62.5708008
				c-0.3452148,0-0.625-0.2802734-0.625-0.625v-2.7421875c0-0.3447266,0.2797852-0.625,0.625-0.625s0.625,0.2802734,0.625,0.625
				v2.7421875C28.7670898,62.2905273,28.4873047,62.5708008,28.1420898,62.5708008z"/>
		</g>
	</g>
</g>
</svg>
