<svg width="164" height="67" viewBox="0 0 164 67" fill="none" xmlns="http://www.w3.org/2000/svg">
<path d="M27.908 37.7808C29.4667 37.1054 30.918 36.2279 32.2284 35.1815C33.9757 33.7863 35.4725 32.0909 36.6397 30.1743C37.515 28.7368 38.2049 27.1749 38.676 25.5217C38.9901 24.4196 39.2069 23.2769 39.3165 22.1036C39.3713 21.517 39.3994 20.9227 39.3994 20.3219C39.3994 19.3101 39.3181 18.3171 39.1651 17.3477L22.9427 33.5487V39.1673C23.5227 39.088 24.0946 38.9826 24.657 38.8522C25.7818 38.5915 26.8688 38.2311 27.908 37.7808Z" fill="#8FB23E"/>
<path d="M3.03446 12.3979C2.75645 13.0015 2.50878 13.6218 2.29378 14.257C1.64876 16.1624 1.29709 18.2013 1.29709 20.3215C1.29709 23.7411 2.20977 26.95 3.79754 29.7262L12.0915 21.4431L3.03446 12.3979Z" fill="#8FB23E"/>
<path d="M29.6318 23.2044V3.71608C28.6165 3.14761 27.5442 2.66976 26.4258 2.29298C25.3073 1.91626 24.1427 1.64055 22.9427 1.47656V29.8846L26.2873 26.5445L29.6318 23.2044Z" fill="#DBE1C8"/>
<path d="M33.3925 6.46993C32.628 5.75119 31.8042 5.0947 30.929 4.50879V21.909L38.4492 14.3987C37.4441 11.3431 35.6857 8.62622 33.3925 6.46993Z" fill="#B2D148"/>
<path d="M4.33542 10.0335L17.7539 23.4346V1.47656C12.131 2.24491 7.28475 5.47095 4.33542 10.0335Z" fill="#B2D148"/>
<path d="M4.49628 30.8606C5.6075 32.5222 6.97339 33.9996 8.53783 35.2371C11.1451 37.2995 14.3038 38.6955 17.7539 39.1671V27.0985L13.0086 22.3594L4.49628 30.8606Z" fill="#DBE1C8"/>
<path d="M22.9426 40.4734C32.9547 39.1999 40.6966 30.6667 40.6966 20.3217C40.6966 9.09842 31.5864 0 20.3483 0C9.11025 0 0 9.09842 0 20.3217C0 30.6667 7.74189 39.1999 17.754 40.4734V45.2481V46.789V52.2433V55.2178V55.2244V55.8473V65.6064H22.9426H28.1314V55.8473V55.2244V55.2178H22.9426V53.2745V52.2433H28.1314V48.0926V46.789H22.9426V45.2481V40.4734ZM30.929 4.50859V4.50853C31.8042 5.09451 32.6281 5.75099 33.3925 6.46974C35.6857 8.62603 37.4442 11.3429 38.4492 14.3985L30.929 21.9088V4.50859ZM22.9427 1.4765C24.1428 1.64049 25.3073 1.9162 26.4258 2.29291C27.5442 2.6697 28.6165 3.14755 29.6318 3.71595V3.71601V23.2043L26.2873 26.5445L22.9427 29.8846V1.4765ZM22.9427 33.5485V33.5484L39.1651 17.3475C39.3181 18.3169 39.3994 19.3099 39.3994 20.3217C39.3994 20.9225 39.3713 21.5168 39.3165 22.1034C39.2069 23.2767 38.9901 24.4194 38.676 25.5215C38.2049 27.1747 37.515 28.7366 36.6397 30.1741C35.4725 32.0907 33.9757 33.7862 32.2285 35.1813C30.918 36.2277 29.4667 37.1052 27.908 37.7806C26.8688 38.2309 25.7818 38.5914 24.657 38.852C24.0946 38.9824 23.5227 39.0878 22.9427 39.1671V33.5485ZM1.29709 20.3217C1.29709 18.2015 1.64877 16.1627 2.29378 14.2572C2.50878 13.6221 2.75646 13.0017 3.03446 12.3981L12.0915 21.4433L3.79754 29.7264C2.20978 26.9502 1.29709 23.7414 1.29709 20.3217ZM17.7539 39.1671C14.3038 38.6956 11.1452 37.2996 8.53784 35.2371C6.97341 33.9996 5.60751 32.5222 4.49629 30.8606V30.8605L13.0086 22.3594L17.7539 27.0985V39.1671ZM17.7539 23.4346L4.33542 10.0334C7.28475 5.47089 12.131 2.24484 17.7539 1.4765V23.4346Z" fill="#3D4430"/>
<path d="M52.23 59.8843V60.3759C53.4025 60.4417 54.575 61.1377 54.575 62.8564C54.575 64.5762 53.4192 65.256 52.2138 65.346V65.8539H51.2626V65.346C50.082 65.2641 48.9182 64.6166 48.9182 62.8979C48.9182 61.1205 50.2132 60.4498 51.2793 60.3759V59.8843H52.23ZM51.2707 61.0719C50.6807 61.1286 49.9428 61.5798 49.9428 62.8726C49.9428 64.0522 50.6316 64.5681 51.2707 64.6419V61.0719ZM52.2219 64.6419C52.8448 64.5843 53.5499 64.1179 53.5499 62.8564C53.5499 61.5798 52.8697 61.1286 52.2219 61.0719V64.6419Z" fill="white"/>
<path d="M56.6966 60.1138V62.0622C56.6966 62.9382 56.6799 63.7485 56.6308 64.486L56.6556 64.4941C56.9422 63.8719 57.2948 63.2083 57.6559 62.5862L59.115 60.1138H60.1396V65.6322H59.2052V63.6838C59.2052 62.8077 59.2214 62.1036 59.2872 61.3904H59.2624C59 62.0217 58.6313 62.7096 58.2869 63.2984L56.885 65.6322H55.7617V60.1138H56.6966Z" fill="white"/>
<path d="M65.5487 60.1138V65.6322H64.5403V60.9403H63.0321V62.4142C63.0321 63.7323 62.909 64.9362 62.1057 65.444C61.8596 65.5826 61.5071 65.706 61.1217 65.706L60.9905 64.8957C61.2447 64.8623 61.4661 64.7399 61.5972 64.6003C61.9827 64.2159 62.048 63.3398 62.048 62.488V60.1138H65.5487Z" fill="white"/>
<path d="M71.9338 62.8158C71.9338 64.6661 70.811 65.7222 69.2941 65.7222C67.7281 65.7222 66.7445 64.5264 66.7445 62.9139C66.7445 61.2104 67.8182 60.0156 69.3761 60.0156C70.9832 60.0156 71.9338 61.2356 71.9338 62.8158ZM67.8101 62.8896C67.8101 64.0196 68.3759 64.9119 69.3432 64.9119C70.3192 64.9119 70.8682 64.0024 70.8682 62.8482C70.8682 61.8082 70.3516 60.8259 69.3432 60.8259C68.3429 60.8259 67.8101 61.7516 67.8101 62.8896Z" fill="white"/>
<path d="M77.0811 65.4766C76.8431 65.5919 76.3184 65.7224 75.6463 65.7224C73.8919 65.7224 72.8262 64.6248 72.8262 62.9384C72.8262 61.1205 74.097 60.0239 75.7856 60.0239C76.4495 60.0239 76.917 60.1625 77.1221 60.2698L76.9089 61.072C76.6466 60.9566 76.2773 60.8585 75.8266 60.8585C74.7032 60.8585 73.8919 61.5626 73.8919 62.8899C73.8919 64.1099 74.5969 64.8787 75.8185 64.8787C76.2201 64.8787 76.6466 64.7968 76.917 64.6824L77.0811 65.4766Z" fill="white"/>
<path d="M82.9744 62.8158C82.9744 64.6661 81.8516 65.7222 80.3347 65.7222C78.7687 65.7222 77.7851 64.5264 77.7851 62.9139C77.7851 61.2104 78.8588 60.0156 80.4167 60.0156C82.0238 60.0156 82.9744 61.2356 82.9744 62.8158ZM78.8507 62.8896C78.8507 64.0196 79.4165 64.9119 80.3838 64.9119C81.3593 64.9119 81.9088 64.0024 81.9088 62.8482C81.9088 61.8082 81.3922 60.8259 80.3838 60.8259C79.3835 60.8259 78.8507 61.7516 78.8507 62.8896Z" fill="white"/>
<path d="M87.1782 59.8843V60.3759C88.3506 60.4417 89.5231 61.1377 89.5231 62.8564C89.5231 64.5762 88.3669 65.256 87.162 65.346V65.8539H86.2108V65.346C85.0302 65.2641 83.8663 64.6166 83.8663 62.8979C83.8663 61.1205 85.1614 60.4498 86.2275 60.3759V59.8843H87.1782ZM86.2189 61.0719C85.6289 61.1286 84.8909 61.5798 84.8909 62.8726C84.8909 64.0522 85.5797 64.5681 86.2189 64.6419V61.0719ZM87.1701 64.6419C87.793 64.5843 88.4985 64.1179 88.4985 62.8564C88.4985 61.5798 87.8178 61.1286 87.1701 61.0719V64.6419Z" fill="white"/>
<path d="M91.6447 60.1138V62.0622C91.6447 62.9382 91.628 63.7485 91.5789 64.486L91.6037 64.4941C91.8904 63.8719 92.2429 63.2083 92.604 62.5862L94.0631 60.1138H95.0877V65.6322H94.1533V63.6838C94.1533 62.8077 94.1695 62.1036 94.2353 61.3904H94.2105C93.9482 62.0217 93.5795 62.7096 93.2351 63.2984L91.8331 65.6322H90.7098V60.1138H91.6447Z" fill="white"/>
<path d="M96.0703 65.6321C96.1767 65.4683 96.2587 65.272 96.3246 65.0677C96.554 64.4364 96.6933 63.7323 97.1278 63.3064C97.2509 63.184 97.415 63.0859 97.5872 63.0282V63.0039C96.9394 62.8896 96.3985 62.4304 96.3985 61.6524C96.3985 61.1537 96.6112 60.7602 96.9394 60.5062C97.3248 60.2038 97.9397 60.0723 98.6447 60.0723C99.1856 60.0723 99.727 60.1218 100.112 60.1876V65.6321H99.1122V63.3641H98.71C98.4153 63.3641 98.2021 63.4379 98.0299 63.6018C97.6606 63.962 97.5132 64.7065 97.341 65.1982C97.2838 65.3459 97.2347 65.4683 97.1526 65.6321H96.0703ZM99.1122 60.8917C99.0053 60.8664 98.8088 60.834 98.5297 60.834C97.9149 60.834 97.4069 61.0798 97.4069 61.7263C97.4069 62.3079 97.923 62.6276 98.5956 62.6276C98.7921 62.6276 98.9891 62.6276 99.1122 62.6104V60.8917Z" fill="white"/>
<path d="M109.787 65.4766C109.549 65.5919 109.024 65.7224 108.352 65.7224C106.598 65.7224 105.532 64.6248 105.532 62.9384C105.532 61.1205 106.803 60.0239 108.491 60.0239C109.155 60.0239 109.623 60.1625 109.828 60.2698L109.615 61.072C109.352 60.9566 108.984 60.8585 108.532 60.8585C107.409 60.8585 106.598 61.5626 106.598 62.8899C106.598 64.1099 107.303 64.8787 108.524 64.8787C108.926 64.8787 109.352 64.7968 109.623 64.6824L109.787 65.4766Z" fill="white"/>
<path d="M110.966 60.1957C111.286 60.1299 111.868 60.0723 112.442 60.0723C113.18 60.0723 113.647 60.1704 114.016 60.4243C114.36 60.6297 114.59 60.9898 114.59 61.4643C114.59 61.9721 114.27 62.4304 113.672 62.6519V62.6762C114.254 62.8239 114.787 63.2821 114.787 64.0358C114.787 64.5264 114.574 64.9119 114.262 65.182C113.869 65.5178 113.221 65.6898 112.204 65.6898C111.647 65.6898 111.228 65.6483 110.966 65.616V60.1957ZM111.966 62.3737H112.483C113.188 62.3737 113.573 62.0459 113.573 61.5796C113.573 61.0556 113.18 60.8178 112.54 60.8178C112.245 60.8178 112.073 60.834 111.966 60.8583V62.3737ZM111.966 64.9038C112.097 64.9281 112.27 64.9281 112.499 64.9281C113.147 64.9281 113.729 64.6903 113.729 64.0105C113.729 63.3641 113.164 63.1021 112.467 63.1021H111.966V64.9038Z" fill="white"/>
<path d="M120.86 62.8158C120.86 64.6661 119.737 65.7222 118.22 65.7222C116.654 65.7222 115.671 64.5264 115.671 62.9139C115.671 61.2104 116.744 60.0156 118.302 60.0156C119.909 60.0156 120.86 61.2356 120.86 62.8158ZM116.736 62.8896C116.736 64.0196 117.302 64.9119 118.269 64.9119C119.245 64.9119 119.794 64.0024 119.794 62.8482C119.794 61.8082 119.278 60.8259 118.269 60.8259C117.269 60.8259 116.736 61.7516 116.736 62.8896Z" fill="white"/>
<path d="M125.138 63.184H123.055V64.8057H125.384V65.6322H122.047V60.1138H125.261V60.9403H123.055V62.3656H125.138V63.184Z" fill="white"/>
<path d="M129.744 60.1138V60.9403H127.596V65.6322H126.588V60.1138H129.744Z" fill="white"/>
<path d="M135.334 62.8158C135.334 64.6661 134.212 65.7222 132.695 65.7222C131.129 65.7222 130.145 64.5264 130.145 62.9139C130.145 61.2104 131.219 60.0156 132.777 60.0156C134.384 60.0156 135.334 61.2356 135.334 62.8158ZM131.211 62.8896C131.211 64.0196 131.776 64.9119 132.744 64.9119C133.72 64.9119 134.269 64.0024 134.269 62.8482C134.269 61.8082 133.752 60.8259 132.744 60.8259C131.744 60.8259 131.211 61.7516 131.211 62.8896Z" fill="white"/>
<path d="M144.87 60.1138V64.83L145.395 64.8542L145.337 66.9999H144.567L144.509 65.6322H141.156L141.099 66.9999H140.328L140.279 64.8542L140.721 64.83C140.935 64.4445 141.132 64.0439 141.255 63.6099C141.426 63.0202 141.492 62.3484 141.492 61.5543V60.1138H144.87ZM142.427 61.8082C142.427 62.5619 142.345 63.2417 142.164 63.8224C142.058 64.1825 141.902 64.5346 141.755 64.8057H143.862V60.9403H142.427V61.8082Z" fill="white"/>
<path d="M151.345 62.8158C151.345 64.6661 150.222 65.7222 148.705 65.7222C147.139 65.7222 146.155 64.5264 146.155 62.9139C146.155 61.2104 147.229 60.0156 148.787 60.0156C150.394 60.0156 151.345 61.2356 151.345 62.8158ZM147.221 62.8896C147.221 64.0196 147.787 64.9119 148.754 64.9119C149.73 64.9119 150.279 64.0024 150.279 62.8482C150.279 61.8082 149.762 60.8259 148.754 60.8259C147.754 60.8259 147.221 61.7516 147.221 62.8896Z" fill="white"/>
<path d="M157.164 63.3803C157.131 62.6681 157.09 61.8082 157.099 61.0637H157.074C156.894 61.7344 156.664 62.48 156.418 63.176L155.606 65.5664H154.836L154.098 63.2083C153.885 62.5042 153.688 61.7516 153.54 61.0637H153.524C153.499 61.784 153.466 62.66 153.426 63.4137L153.303 65.6322H152.36L152.729 60.1138H154.057L154.778 62.3323C154.975 62.9797 155.147 63.6342 155.287 64.2483H155.311C155.459 63.6504 155.647 62.9716 155.86 62.3242L156.623 60.1138H157.935L158.255 65.6322H157.271L157.164 63.3803Z" fill="white"/>
<path d="M160.663 64.0682L160.188 65.6322H159.146L160.917 60.1138H162.205L164 65.6322H162.91L162.41 64.0682H160.663ZM162.246 63.3064L161.811 61.9478C161.704 61.612 161.614 61.2357 161.532 60.916H161.516C161.434 61.2357 161.344 61.6201 161.253 61.9478L160.827 63.3064H162.246Z" fill="white"/>
<path d="M48.8752 55.2045C48.9987 53.6909 49.0912 52.0588 49.1532 50.3094C49.2147 48.56 49.2457 46.2793 49.2457 43.4639C49.2457 40.7387 49.2147 38.4547 49.1532 36.6097C49.0912 34.7658 48.9987 33.1196 48.8752 31.6733C49.3692 31.7407 49.8659 31.794 50.3658 31.8331C50.8652 31.8722 51.3679 31.8917 51.8733 31.8917C52.3781 31.8917 52.8775 31.8722 53.372 31.8331C53.8659 31.794 54.3545 31.7407 54.837 31.6733C54.7026 33.1424 54.6042 34.8016 54.5427 36.6521C54.4807 38.5025 54.4497 40.7724 54.4497 43.4639C54.4497 46.3912 54.4807 48.7208 54.5427 50.4528C54.6042 52.1849 54.6966 53.7691 54.8201 55.2045C54.2701 55.148 53.7512 55.1067 53.2626 55.0784C52.7741 55.0502 52.3112 55.0361 51.8733 55.0361C51.4125 55.0361 50.9381 55.0502 50.4496 55.0784C49.9616 55.1067 49.4367 55.148 48.8752 55.2045Z" fill="white"/>
<path d="M60.3668 54.0265C60.5686 53.3203 60.765 52.5716 60.9565 51.7816C61.1469 50.9906 61.327 50.1583 61.4951 49.2836H61.9499C62.2529 50.6179 62.8453 51.6523 63.7266 52.3869C64.6079 53.1214 65.6943 53.4887 66.9857 53.4887C68.1532 53.4887 69.0883 53.1725 69.7901 52.5379C70.4913 51.9055 70.8427 51.0612 70.8427 50.0073C70.8427 49.2445 70.618 48.5882 70.1687 48.0394C69.7199 47.4896 68.6248 46.7442 66.8845 45.8022C64.2124 44.3776 62.4748 43.1476 61.6719 42.1099C60.8689 41.0733 60.468 39.7857 60.468 38.2493C60.468 36.1641 61.2089 34.4734 62.6908 33.1782C64.1732 31.883 66.1322 31.2354 68.5688 31.2354C69.6356 31.2354 70.6208 31.3679 71.5249 31.6309C72.4285 31.8949 73.2848 32.3013 74.0931 32.85C73.857 33.5237 73.6438 34.1767 73.4529 34.8102C73.2619 35.4437 73.0938 36.0522 72.948 36.6346H72.5776C72.2294 35.6143 71.6424 34.8102 70.8172 34.2213C69.9919 33.6324 69.0344 33.3379 67.9459 33.3379C66.9351 33.3379 66.1208 33.6161 65.5039 34.1713C64.8859 34.7255 64.5774 35.4578 64.5774 36.3662C64.5774 37.129 64.8075 37.7788 65.2678 38.3166C65.728 38.8556 66.7502 39.5336 68.3332 40.3518C68.6808 40.5431 69.1862 40.7952 69.8488 41.1092C71.6903 42.0176 72.8637 42.7293 73.3691 43.2454C73.9865 43.8843 74.444 44.5852 74.7416 45.348C75.0392 46.1107 75.1877 46.9626 75.1877 47.9047C75.1877 50.2365 74.4016 52.112 72.83 53.5311C71.2578 54.9491 69.1585 55.6586 66.5309 55.6586C65.1497 55.6586 63.954 55.5239 62.9438 55.2544C61.933 54.986 61.074 54.5764 60.3668 54.0265Z" fill="white"/>
<path d="M86.2244 42.4206C87.6726 40.8733 89.1294 39.2032 90.5949 37.4082C92.06 35.6142 93.5337 33.7083 95.0155 31.6895C95.4426 31.746 95.8245 31.7851 96.1612 31.8079C96.4979 31.8296 96.8287 31.8416 97.1546 31.8416C97.4804 31.8416 97.8199 31.8285 98.1735 31.8035C98.5276 31.7786 98.8894 31.7405 99.2599 31.6895C97.7889 33.2118 96.2929 34.7873 94.7718 36.4161C93.2502 38.0449 91.7036 39.7389 90.1315 41.4959L99.8496 55.2043C99.2321 55.1478 98.6506 55.1065 98.1066 55.0783C97.5615 55.05 97.0425 55.0359 96.5485 55.0359C96.0432 55.0359 95.5182 55.05 94.9736 55.0783C94.4291 55.1065 93.8481 55.1478 93.2307 55.2043C92.1078 53.4103 90.9622 51.6327 89.7947 49.8724C88.6267 48.1122 87.437 46.3627 86.2244 44.6242V50.0745C86.2244 50.8819 86.2467 51.7142 86.2913 52.5715C86.3365 53.4299 86.4039 54.3068 86.4937 55.2043C85.9546 55.1478 85.4492 55.1065 84.9781 55.0783C84.5065 55.05 84.0517 55.0359 83.6137 55.0359C83.1644 55.0359 82.7042 55.05 82.2325 55.0783C81.7609 55.1065 81.256 55.1478 80.7169 55.2043C80.8518 53.6581 80.9525 51.9685 81.0199 50.1365C81.0874 48.3045 81.1211 46.0835 81.1211 43.4724C81.1211 41.0515 81.0874 38.8805 81.0199 36.9594C80.9525 35.0372 80.8518 33.2813 80.7169 31.6895C81.1211 31.7405 81.5563 31.7786 82.022 31.8035C82.4876 31.8285 83.0186 31.8416 83.6137 31.8416C84.2089 31.8416 84.7366 31.8285 85.1968 31.8035C85.657 31.7786 86.0895 31.7405 86.4937 31.6895C86.4039 32.7076 86.3365 33.6681 86.2913 34.5743C86.2467 35.4795 86.2244 36.352 86.2244 37.1898V42.4206Z" fill="white"/>
<path d="M100.74 43.7679C100.74 39.8432 101.924 36.7681 104.294 34.5417C106.663 32.3164 109.947 31.2026 114.146 31.2026C118.188 31.2026 121.31 32.2631 123.51 34.382C125.711 36.5008 126.811 39.5183 126.811 43.4311C126.811 47.132 125.627 50.0897 123.258 52.3042C120.889 54.5186 117.728 55.6259 113.776 55.6259C109.588 55.6259 106.368 54.6001 104.117 52.5476C101.866 50.4961 100.74 47.5688 100.74 43.7679ZM106.281 43.4311C106.281 46.6387 106.943 49.1444 108.269 50.9503C109.593 52.7551 111.429 53.6581 113.776 53.6581C116.089 53.6581 117.908 52.7497 119.233 50.9329C120.558 49.1161 121.22 46.6159 121.22 43.4311C121.22 40.2018 120.558 37.6765 119.233 35.8532C117.908 34.0321 116.089 33.1205 113.776 33.1205C111.441 33.1205 109.607 34.0343 108.277 35.8619C106.947 37.6896 106.281 40.2126 106.281 43.4311Z" fill="white"/>
<path d="M130.803 55.2043C130.915 53.556 131.005 51.7783 131.072 49.8724C131.14 47.9665 131.174 45.8977 131.174 43.6658C131.174 41.5578 131.14 39.4999 131.072 37.4929C131.005 35.486 130.909 33.5508 130.786 31.6895C131.066 31.7231 131.359 31.7514 131.662 31.7742C131.965 31.7959 132.296 31.8079 132.655 31.8079C133.004 31.8079 133.329 31.7981 133.632 31.7786C133.935 31.759 134.228 31.7297 134.508 31.6895C136.855 34.3114 139.226 36.9377 141.624 39.5705C144.021 42.2022 146.443 44.8404 148.891 47.4841V43.43C148.891 42.6792 148.88 41.221 148.858 39.0565C148.835 36.8931 148.802 34.4374 148.756 31.6895C148.97 31.7231 149.194 31.7514 149.43 31.7742C149.666 31.7959 149.913 31.8079 150.171 31.8079C150.463 31.8079 150.73 31.7959 150.972 31.7742C151.213 31.7514 151.44 31.7231 151.653 31.6895C151.553 32.6652 151.482 34.1712 151.443 36.2064C151.403 38.2416 151.384 41.5187 151.384 46.0379V47.9383C151.384 49.7768 151.403 51.235 151.443 52.3107C151.482 53.3875 151.553 54.3524 151.653 55.2043C151.384 55.1478 151.128 55.1065 150.887 55.0783C150.646 55.05 150.407 55.0359 150.171 55.0359C149.947 55.0359 149.708 55.05 149.455 55.0783C149.203 55.1065 148.936 55.1478 148.656 55.2043C146.511 52.7595 144.215 50.1951 141.767 47.5091C139.319 44.8241 136.602 41.8882 133.616 38.7034V48.7619C133.616 49.177 133.626 49.9735 133.649 51.1502C133.672 52.3281 133.705 53.6798 133.75 55.2043C133.458 55.1478 133.195 55.1065 132.958 55.0783C132.723 55.05 132.493 55.0359 132.268 55.0359C132.055 55.0359 131.827 55.05 131.586 55.0783C131.344 55.1065 131.083 55.1478 130.803 55.2043Z" fill="white"/>
<path d="M157.266 55.2187C157.389 53.705 157.482 52.073 157.544 50.3236C157.605 48.5742 157.636 46.2934 157.636 43.4781C157.636 40.7529 157.605 38.4689 157.544 36.6239C157.482 34.7799 157.389 33.1337 157.266 31.6875C157.76 31.7549 158.257 31.8081 158.757 31.8472C159.256 31.8863 159.759 31.9059 160.264 31.9059C160.769 31.9059 161.268 31.8863 161.763 31.8472C162.257 31.8081 162.745 31.7549 163.228 31.6875C163.093 33.1566 162.995 34.8158 162.933 36.6662C162.871 38.5167 162.84 40.7866 162.84 43.4781C162.84 46.4053 162.871 48.735 162.933 50.467C162.995 52.199 163.087 53.7833 163.211 55.2187C162.661 55.1622 162.142 55.1209 161.653 55.0926C161.165 55.0644 160.702 55.0502 160.264 55.0502C159.803 55.0502 159.329 55.0644 158.84 55.0926C158.352 55.1209 157.827 55.1622 157.266 55.2187Z" fill="white"/>
</svg>
