<svg width="108" height="45" viewBox="0 0 108 45" fill="none" xmlns="http://www.w3.org/2000/svg">
<g clip-path="url(#clip0_176_1899)">
<path d="M18.3784 25.375C19.4049 24.9214 20.3606 24.332 21.2236 23.6292C22.3742 22.6922 23.36 21.5535 24.1286 20.2662C24.705 19.3007 25.1593 18.2516 25.4696 17.1413C25.6764 16.4011 25.8191 15.6336 25.8914 14.8456C25.9275 14.4516 25.9459 14.0524 25.9459 13.6489C25.9459 12.9693 25.8924 12.3024 25.7916 11.6513L15.1086 22.5326V26.3063C15.4906 26.253 15.8672 26.1822 16.2376 26.0946C16.9782 25.9195 17.6941 25.6775 18.3784 25.375Z" fill="#8FB23E"/>
<path d="M1.99831 8.32713C1.81523 8.7325 1.65213 9.14914 1.51054 9.57571C1.08578 10.8555 0.854187 12.2249 0.854187 13.6489C0.854187 15.9457 1.45522 18.1009 2.50083 19.9655L7.96271 14.4022L1.99831 8.32713Z" fill="#8FB23E"/>
<path d="M19.5136 15.585V2.49583C18.845 2.11402 18.1389 1.79308 17.4024 1.54002C16.6658 1.287 15.8989 1.10182 15.1086 0.991678V20.0717L17.3111 17.8284L19.5136 15.585Z" fill="#DBE1C8"/>
<path d="M21.9902 4.34534C21.4868 3.86261 20.9442 3.42168 20.3679 3.02816V14.7149L25.3202 9.67065C24.6583 7.61838 23.5003 5.7936 21.9902 4.34534Z" fill="#B2D148"/>
<path d="M2.85504 6.73886L11.6916 15.7396V0.991678C7.98875 1.50773 4.79728 3.67448 2.85504 6.73886Z" fill="#B2D148"/>
<path d="M2.96097 20.7273C3.69275 21.8433 4.59224 22.8356 5.62248 23.6667C7.33949 25.0519 9.41959 25.9896 11.6916 26.3063V18.2005L8.56663 15.0175L2.96097 20.7273Z" fill="#DBE1C8"/>
<path d="M15.1085 27.1836C21.7019 26.3283 26.8002 20.597 26.8002 13.6489C26.8002 6.11088 20.8008 0 13.4001 0C5.99943 0 0 6.11088 0 13.6489C0 20.597 5.09832 26.3283 11.6916 27.1836V30.3905V31.4255V35.0888V37.0866V37.091V37.5094V44.064H15.1085H18.5255V37.5094V37.091V37.0866H15.1085V35.7814V35.0888H18.5255V32.301V31.4255H15.1085V30.3905V27.1836ZM20.3679 3.02816V3.02812C20.9442 3.42168 21.4868 3.86261 21.9902 4.34534C23.5004 5.7936 24.6583 7.61838 25.3202 9.67065L20.3679 14.7149V3.02816ZM15.1086 0.991678C15.8989 1.10182 16.6658 1.287 17.4024 1.54002C18.1389 1.79308 18.845 2.11402 19.5136 2.49579V2.49583V15.585L17.3111 17.8284L15.1086 20.0717V0.991678ZM15.1086 22.5326V22.5325L25.7916 11.6513C25.8924 12.3024 25.9459 12.9693 25.9459 13.6489C25.9459 14.0524 25.9275 14.4516 25.8914 14.8456C25.8192 15.6336 25.6764 16.4011 25.4696 17.1413C25.1593 18.2516 24.705 19.3007 24.1286 20.2662C23.36 21.5535 22.3742 22.6922 21.2236 23.6292C20.3607 24.332 19.4049 24.9214 18.3784 25.375C17.6941 25.6775 16.9783 25.9196 16.2376 26.0947C15.8672 26.1822 15.4906 26.253 15.1086 26.3063V22.5326ZM0.854183 13.6489C0.854183 12.2249 1.08577 10.8555 1.51054 9.57571C1.65213 9.14914 1.81523 8.73246 1.9983 8.32708L7.9627 14.4022L2.50082 19.9655C1.45522 18.1009 0.854183 15.9457 0.854183 13.6489ZM11.6916 26.3063C9.41959 25.9896 7.3395 25.052 5.62248 23.6667C4.59224 22.8356 3.69275 21.8433 2.96097 20.7273V20.7272L8.56664 15.0175L11.6916 18.2005V26.3063ZM11.6916 15.7396L2.85503 6.73886C4.79727 3.67448 7.98874 1.50773 11.6916 0.991678V15.7396Z" fill="#3D4430"/>
<path d="M34.3953 40.2639V40.5941C35.1675 40.6383 35.9396 41.1057 35.9396 42.2601C35.9396 43.4152 35.1785 43.8718 34.3847 43.9322V44.2733H33.7583V43.9322C32.9808 43.8772 32.2144 43.4423 32.2144 42.288C32.2144 41.0942 33.0672 40.6437 33.7693 40.5941V40.2639H34.3953ZM33.7636 41.0616C33.3751 41.0996 32.8891 41.4026 32.8891 42.271C32.8891 43.0632 33.3427 43.4097 33.7636 43.4593V41.0616ZM34.39 43.4593C34.8003 43.4206 35.2645 43.1074 35.2645 42.2601C35.2645 41.4026 34.8166 41.0996 34.39 41.0616V43.4593Z" fill="#3D4430"/>
<path d="M37.3368 40.4181V41.7267C37.3368 42.3151 37.3258 42.8594 37.2934 43.3547L37.3097 43.3601C37.4985 42.9423 37.7307 42.4966 37.9685 42.0787L38.9294 40.4181H39.6041V44.1245H38.9887V42.8159C38.9887 42.2275 38.9994 41.7546 39.0428 41.2756H39.0264C38.8537 41.6996 38.6109 42.1616 38.3841 42.557L37.4608 44.1245H36.7211V40.4181H37.3368Z" fill="#3D4430"/>
<path d="M43.1662 40.4181V44.1245H42.5021V40.9732H41.5089V41.9632C41.5089 42.8485 41.4278 43.6571 40.8989 43.9981C40.7368 44.0912 40.5046 44.1741 40.2508 44.1741L40.1644 43.6299C40.3319 43.6075 40.4776 43.5252 40.564 43.4315C40.8178 43.1733 40.8608 42.5849 40.8608 42.0128V40.4181H43.1662Z" fill="#3D4430"/>
<path d="M47.371 42.2329C47.371 43.4756 46.6316 44.185 45.6327 44.185C44.6014 44.185 43.9537 43.3819 43.9537 42.2988C43.9537 41.1546 44.6608 40.3522 45.6867 40.3522C46.745 40.3522 47.371 41.1716 47.371 42.2329ZM44.6554 42.2825C44.6554 43.0415 45.028 43.6407 45.665 43.6407C46.3077 43.6407 46.6693 43.0299 46.6693 42.2547C46.6693 41.5562 46.3291 40.8964 45.665 40.8964C45.0063 40.8964 44.6554 41.5181 44.6554 42.2825Z" fill="#3D4430"/>
<path d="M50.7607 44.0199C50.604 44.0973 50.2584 44.185 49.8158 44.185C48.6605 44.185 47.9587 43.4478 47.9587 42.3151C47.9587 41.0942 48.7956 40.3576 49.9076 40.3576C50.3448 40.3576 50.6527 40.4507 50.7878 40.5227L50.6473 41.0615C50.4746 40.9841 50.2314 40.9182 49.9346 40.9182C49.1948 40.9182 48.6605 41.3911 48.6605 42.2825C48.6605 43.1019 49.1248 43.6183 49.9292 43.6183C50.1937 43.6183 50.4746 43.5633 50.6527 43.4865L50.7607 44.0199Z" fill="#3D4430"/>
<path d="M54.6417 42.2329C54.6417 43.4756 53.9023 44.185 52.9034 44.185C51.8721 44.185 51.2244 43.3819 51.2244 42.2988C51.2244 41.1546 51.9315 40.3522 52.9574 40.3522C54.0157 40.3522 54.6417 41.1716 54.6417 42.2329ZM51.9261 42.2825C51.9261 43.0415 52.2987 43.6407 52.9357 43.6407C53.5781 43.6407 53.94 43.0299 53.94 42.2547C53.94 41.5562 53.5998 40.8964 52.9357 40.8964C52.277 40.8964 51.9261 41.5181 51.9261 42.2825Z" fill="#3D4430"/>
<path d="M57.41 40.2639V40.5941C58.1821 40.6383 58.9543 41.1057 58.9543 42.2601C58.9543 43.4152 58.1928 43.8718 57.3994 43.9322V44.2733H56.773V43.9322C55.9955 43.8772 55.2291 43.4423 55.2291 42.288C55.2291 41.0942 56.0819 40.6437 56.784 40.5941V40.2639H57.41ZM56.7783 41.0616C56.3898 41.0996 55.9038 41.4026 55.9038 42.271C55.9038 43.0632 56.3574 43.4097 56.7783 43.4593V41.0616ZM57.4047 43.4593C57.8149 43.4206 58.2795 43.1074 58.2795 42.2601C58.2795 41.4026 57.8313 41.0996 57.4047 41.0616V43.4593Z" fill="#3D4430"/>
<path d="M60.3514 40.4181V41.7267C60.3514 42.3151 60.3404 42.8594 60.3081 43.3547L60.3244 43.3601C60.5132 42.9423 60.7453 42.4966 60.9831 42.0787L61.944 40.4181H62.6188V44.1245H62.0034V42.8159C62.0034 42.2275 62.0141 41.7546 62.0574 41.2756H62.0411C61.8683 41.6996 61.6255 42.1616 61.3987 42.557L60.4755 44.1245H59.7357V40.4181H60.3514Z" fill="#3D4430"/>
<path d="M63.2658 44.1245C63.3358 44.0144 63.3899 43.8826 63.4332 43.7454C63.5843 43.3214 63.676 42.8485 63.9622 42.5625C64.0433 42.4802 64.1513 42.4143 64.2647 42.3756V42.3593C63.8381 42.2825 63.4819 41.9741 63.4819 41.4516C63.4819 41.1166 63.622 40.8523 63.8381 40.6817C64.092 40.4786 64.4969 40.3903 64.9611 40.3903C65.3174 40.3903 65.6739 40.4235 65.9274 40.4677V44.1245H65.269V42.6012H65.0042C64.8101 42.6012 64.6696 42.6508 64.5562 42.7609C64.3131 43.0027 64.216 43.5028 64.1026 43.833C64.0649 43.9322 64.0326 44.0144 63.9786 44.1245H63.2658ZM65.269 40.9406C65.1986 40.9236 65.0692 40.9019 64.8854 40.9019C64.4805 40.9019 64.146 41.067 64.146 41.5012C64.146 41.8918 64.4859 42.1065 64.9288 42.1065C65.0582 42.1065 65.1879 42.1065 65.269 42.095V40.9406Z" fill="#3D4430"/>
<path d="M72.2987 44.0199C72.1419 44.0973 71.7964 44.185 71.3538 44.185C70.1985 44.185 69.4967 43.4478 69.4967 42.3151C69.4967 41.0942 70.3335 40.3576 71.4455 40.3576C71.8828 40.3576 72.1906 40.4507 72.3257 40.5227L72.1853 41.0615C72.0125 40.9841 71.7697 40.9182 71.4725 40.9182C70.7331 40.9182 70.1985 41.3911 70.1985 42.2825C70.1985 43.1019 70.6627 43.6183 71.4672 43.6183C71.7317 43.6183 72.0125 43.5633 72.1906 43.4865L72.2987 44.0199Z" fill="#3D4430"/>
<path d="M73.0751 40.4731C73.2859 40.429 73.6692 40.3903 74.047 40.3903C74.533 40.3903 74.8408 40.4562 75.0837 40.6267C75.3105 40.7646 75.4616 41.0065 75.4616 41.3252C75.4616 41.6663 75.2511 41.9741 74.8569 42.1228V42.1392C75.2404 42.2384 75.5913 42.5461 75.5913 43.0523C75.5913 43.3819 75.4509 43.6407 75.2458 43.8221C74.9866 44.0477 74.56 44.1632 73.8906 44.1632C73.5234 44.1632 73.2479 44.1354 73.0751 44.1136V40.4731ZM73.7339 41.936H74.0741C74.5383 41.936 74.7922 41.7159 74.7922 41.4026C74.7922 41.0507 74.533 40.891 74.1117 40.891C73.9176 40.891 73.8042 40.9019 73.7339 40.9182V41.936ZM73.7339 43.6353C73.8202 43.6516 73.9336 43.6516 74.0847 43.6516C74.5113 43.6516 74.8949 43.4919 74.8949 43.0353C74.8949 42.6012 74.5223 42.4252 74.0634 42.4252H73.7339V43.6353Z" fill="#3D4430"/>
<path d="M79.5906 42.2329C79.5906 43.4756 78.8512 44.185 77.8523 44.185C76.821 44.185 76.1733 43.3819 76.1733 42.2988C76.1733 41.1546 76.8804 40.3522 77.9063 40.3522C78.9646 40.3522 79.5906 41.1716 79.5906 42.2329ZM76.875 42.2825C76.875 43.0415 77.2476 43.6407 77.8846 43.6407C78.527 43.6407 78.8889 43.0299 78.8889 42.2547C78.8889 41.5562 78.5487 40.8964 77.8846 40.8964C77.2259 40.8964 76.875 41.5181 76.875 42.2825Z" fill="#3D4430"/>
<path d="M82.408 42.4802H81.0365V43.5694H82.5701V44.1245H80.3724V40.4181H82.489V40.9732H81.0365V41.9306H82.408V42.4802Z" fill="#3D4430"/>
<path d="M85.4411 40.4181V40.9732H84.0266V44.1245H83.3625V40.4181H85.4411Z" fill="#3D4430"/>
<path d="M89.1226 42.2329C89.1226 43.4756 88.3832 44.185 87.3843 44.185C86.353 44.185 85.7053 43.3819 85.7053 42.2988C85.7053 41.1546 86.4123 40.3522 87.4383 40.3522C88.4966 40.3522 89.1226 41.1716 89.1226 42.2329ZM86.407 42.2825C86.407 43.0415 86.7796 43.6407 87.4166 43.6407C88.0593 43.6407 88.4209 43.0299 88.4209 42.2547C88.4209 41.5562 88.0807 40.8964 87.4166 40.8964C86.7579 40.8964 86.407 41.5181 86.407 42.2825Z" fill="#3D4430"/>
<path d="M95.4022 40.4181V43.5857L95.7477 43.602L95.71 45.0431H95.2024L95.1647 44.1245H92.9564L92.9187 45.0431H92.4111L92.3787 43.602L92.6702 43.5857C92.8106 43.3268 92.9404 43.0578 93.0214 42.7663C93.1345 42.3702 93.1779 41.919 93.1779 41.3857V40.4181H95.4022ZM93.7932 41.5562C93.7932 42.0624 93.7395 42.519 93.6205 42.909C93.5504 43.1509 93.4477 43.3873 93.3506 43.5694H94.7381V40.9732H93.7932V41.5562Z" fill="#3D4430"/>
<path d="M99.666 42.2329C99.666 43.4756 98.9266 44.185 97.9277 44.185C96.8964 44.185 96.2487 43.3819 96.2487 42.2988C96.2487 41.1546 96.9557 40.3522 97.9817 40.3522C99.04 40.3522 99.666 41.1716 99.666 42.2329ZM96.9504 42.2825C96.9504 43.0415 97.323 43.6407 97.96 43.6407C98.6024 43.6407 98.9643 43.0299 98.9643 42.2547C98.9643 41.5562 98.6241 40.8964 97.96 40.8964C97.3013 40.8964 96.9504 41.5181 96.9504 42.2825Z" fill="#3D4430"/>
<path d="M103.498 42.6121C103.477 42.1337 103.45 41.5562 103.455 41.0561H103.439C103.32 41.5066 103.169 42.0073 103.007 42.4748L102.472 44.0803H101.965L101.479 42.4966C101.339 42.0237 101.209 41.5181 101.112 41.0561H101.101C101.085 41.5399 101.063 42.1283 101.037 42.6345L100.956 44.1245H100.334L100.578 40.4181H101.452L101.927 41.9082C102.057 42.343 102.17 42.7826 102.262 43.195H102.278C102.375 42.7935 102.499 42.3376 102.64 41.9027L103.142 40.4181H104.006L104.216 44.1245H103.568L103.498 42.6121Z" fill="#3D4430"/>
<path d="M105.803 43.0741L105.49 44.1245H104.804L105.97 40.4181H106.818L108 44.1245H107.282L106.953 43.0741H105.803ZM106.845 42.5625L106.558 41.65C106.488 41.4244 106.429 41.1716 106.375 40.9569H106.364C106.31 41.1716 106.251 41.4298 106.191 41.65L105.91 42.5625H106.845Z" fill="#3D4430"/>
<path d="M32.1862 37.1206C32.2675 36.104 32.3284 35.0078 32.3692 33.8329C32.4097 32.6579 32.4301 31.126 32.4301 29.2351C32.4301 27.4048 32.4097 25.8708 32.3692 24.6316C32.3284 23.3931 32.2675 22.2875 32.1862 21.3161C32.5114 21.3613 32.8385 21.3971 33.1678 21.4234C33.4966 21.4497 33.8276 21.4628 34.1605 21.4628C34.4929 21.4628 34.8218 21.4497 35.1474 21.4234C35.4727 21.3971 35.7944 21.3613 36.1122 21.3161C36.0237 22.3028 35.9589 23.4172 35.9184 24.66C35.8775 25.9029 35.8571 27.4274 35.8571 29.2351C35.8571 31.2012 35.8775 32.7659 35.9184 33.9292C35.9589 35.0925 36.0198 36.1565 36.1011 37.1206C35.7389 37.0827 35.3971 37.0549 35.0754 37.0359C34.7537 37.017 34.4488 37.0075 34.1605 37.0075C33.857 37.0075 33.5446 37.017 33.2229 37.0359C32.9016 37.0549 32.5559 37.0827 32.1862 37.1206Z" fill="#3D4430"/>
<path d="M39.7538 36.3295C39.8867 35.8551 40.016 35.3523 40.1421 34.8218C40.2675 34.2905 40.3861 33.7314 40.4968 33.1439H40.7963C40.9958 34.0401 41.386 34.7349 41.9663 35.2283C42.5467 35.7216 43.2621 35.9683 44.1126 35.9683C44.8814 35.9683 45.4972 35.7559 45.9593 35.3297C46.4211 34.905 46.6525 34.3379 46.6525 33.63C46.6525 33.1177 46.5046 32.6769 46.2087 32.3083C45.9131 31.9391 45.192 31.4384 44.0459 30.8057C42.2862 29.8489 41.142 29.0228 40.6132 28.3258C40.0844 27.6296 39.8204 26.7648 39.8204 25.7328C39.8204 24.3324 40.3084 23.1968 41.2842 22.3269C42.2604 21.457 43.5505 21.022 45.1551 21.022C45.8576 21.022 46.5064 21.111 47.1018 21.2876C47.6968 21.465 48.2607 21.7379 48.7931 22.1065C48.6376 22.559 48.4972 22.9976 48.3714 23.423C48.2457 23.8485 48.135 24.2572 48.039 24.6484H47.795C47.5657 23.9631 47.1792 23.423 46.6357 23.0275C46.0922 22.6319 45.4617 22.4342 44.7449 22.4342C44.0793 22.4342 43.543 22.621 43.1367 22.9939C42.7297 23.3661 42.5266 23.858 42.5266 24.4681C42.5266 24.9804 42.6782 25.4168 42.9812 25.7781C43.2843 26.1401 43.9575 26.5955 45 27.145C45.2289 27.2735 45.5617 27.4428 45.998 27.6537C47.2107 28.2638 47.9834 28.7418 48.3162 29.0885C48.7229 29.5176 49.0241 29.9883 49.2201 30.5006C49.4161 31.0129 49.5139 31.5851 49.5139 32.2178C49.5139 33.784 48.9962 35.0436 47.9612 35.9967C46.9259 36.9491 45.5434 37.4257 43.8131 37.4257C42.9035 37.4257 42.1161 37.3352 41.4508 37.1542C40.7852 36.9739 40.2195 36.6988 39.7538 36.3295Z" fill="#3D4430"/>
<path d="M56.7819 28.5345C57.7356 27.4953 58.695 26.3736 59.6601 25.168C60.6248 23.9631 61.5953 22.683 62.5712 21.3271C62.8524 21.365 63.1039 21.3913 63.3257 21.4066C63.5474 21.4212 63.7652 21.4292 63.9798 21.4292C64.1944 21.4292 64.418 21.4205 64.6508 21.4037C64.884 21.3869 65.1223 21.3614 65.3662 21.3271C64.3975 22.3495 63.4124 23.4077 62.4107 24.5017C61.4087 25.5956 60.3902 26.7334 59.3548 27.9135L65.7546 37.1206C65.348 37.0827 64.965 37.0549 64.6068 37.036C64.2478 37.017 63.906 37.0075 63.5807 37.0075C63.2479 37.0075 62.9022 37.017 62.5436 37.036C62.185 37.0549 61.8024 37.0827 61.3958 37.1206C60.6564 35.9157 59.9019 34.7218 59.1331 33.5395C58.3639 32.3572 57.5805 31.1823 56.7819 30.0146V33.6752C56.7819 34.2175 56.7966 34.7765 56.826 35.3523C56.8557 35.9289 56.9001 36.5178 56.9593 37.1206C56.6042 37.0827 56.2714 37.0549 55.9612 37.036C55.6506 37.017 55.3511 37.0075 55.0627 37.0075C54.7668 37.0075 54.4637 37.017 54.1531 37.036C53.8425 37.0549 53.5101 37.0827 53.155 37.1206C53.2439 36.0821 53.3101 34.9473 53.3546 33.7168C53.399 32.4864 53.4212 30.9947 53.4212 29.241C53.4212 27.615 53.399 26.1569 53.3546 24.8666C53.3101 23.5756 53.2439 22.3962 53.155 21.3271C53.4212 21.3614 53.7078 21.3869 54.0145 21.4037C54.3211 21.4205 54.6708 21.4292 55.0627 21.4292C55.4546 21.4292 55.8021 21.4205 56.1052 21.4037C56.4083 21.3869 56.6931 21.3614 56.9593 21.3271C56.9001 22.0109 56.8557 22.656 56.826 23.2647C56.7966 23.8726 56.7819 24.4586 56.7819 25.0213V28.5345Z" fill="#3D4430"/>
<path d="M66.341 29.4394C66.341 26.8034 67.1209 24.738 68.6814 23.2427C70.2412 21.748 72.404 21 75.1696 21C77.8314 21 79.887 21.7123 81.3361 23.1354C82.7853 24.5585 83.51 26.5851 83.51 29.2131C83.51 31.6988 82.7301 33.6854 81.1699 35.1727C79.6098 36.66 77.5283 37.4037 74.9257 37.4037C72.1675 37.4037 70.0471 36.7147 68.5646 35.3362C67.0822 33.9583 66.341 31.9922 66.341 29.4394ZM69.9901 29.2131C69.9901 31.3675 70.4261 33.0504 71.2988 34.2633C72.1711 35.4755 73.3802 36.082 74.9257 36.082C76.4486 36.082 77.6466 35.4719 78.5193 34.2517C79.3916 33.0315 79.8279 31.3522 79.8279 29.2131C79.8279 27.0442 79.3916 25.3481 78.5193 24.1235C77.6466 22.9004 76.4486 22.2881 74.9257 22.2881C73.3877 22.2881 72.1804 22.9019 71.3042 24.1294C70.4282 25.3569 69.9901 27.0515 69.9901 29.2131Z" fill="#3D4430"/>
<path d="M86.1387 37.1206C86.2125 36.0135 86.2716 34.8196 86.316 33.5395C86.3604 32.2594 86.3826 30.8699 86.3826 29.3709C86.3826 27.9551 86.3604 26.5728 86.316 25.2249C86.2716 23.877 86.2085 22.5772 86.1276 21.3271C86.3121 21.3497 86.5044 21.3687 86.7043 21.384C86.9039 21.3986 87.1217 21.4066 87.3585 21.4066C87.5878 21.4066 87.8024 21.4 88.0019 21.3869C88.2015 21.3738 88.3938 21.3541 88.5787 21.3271C90.1238 23.0881 91.6858 24.852 93.2646 26.6203C94.843 28.3879 96.4383 30.1598 98.0504 31.9354V29.2125C98.0504 28.7082 98.0429 27.7288 98.0282 26.2751C98.0135 24.8221 97.9913 23.1727 97.9615 21.3271C98.102 21.3497 98.2499 21.3687 98.4054 21.384C98.5605 21.3986 98.7232 21.4066 98.8933 21.4066C99.0854 21.4066 99.2613 21.3986 99.4203 21.384C99.579 21.3687 99.7288 21.3497 99.8692 21.3271C99.8029 21.9824 99.7567 22.9939 99.7306 24.3608C99.7048 25.7277 99.6919 27.9288 99.6919 30.964V32.2405C99.6919 33.4753 99.7048 34.4547 99.7306 35.1772C99.7567 35.9004 99.8029 36.5485 99.8692 37.1206C99.6919 37.0827 99.5235 37.0549 99.3648 37.036C99.2057 37.017 99.0485 37.0075 98.8933 37.0075C98.7454 37.0075 98.5885 37.017 98.4219 37.036C98.2557 37.0549 98.0798 37.0827 97.8953 37.1206C96.4827 35.4786 94.9709 33.7562 93.3588 31.9522C91.7467 30.1489 89.9576 28.1769 87.9908 26.0379V32.7936C87.9908 33.0724 87.998 33.6074 88.013 34.3977C88.0277 35.1888 88.0499 36.0967 88.0793 37.1206C87.8873 37.0827 87.7135 37.0549 87.558 37.036C87.4029 37.017 87.2514 37.0075 87.1034 37.0075C86.963 37.0075 86.8132 37.017 86.6542 37.036C86.4951 37.0549 86.3232 37.0827 86.1387 37.1206Z" fill="#3D4430"/>
<path d="M103.565 37.1301C103.647 36.1135 103.708 35.0173 103.748 33.8424C103.789 32.6674 103.809 31.1355 103.809 29.2446C103.809 27.4143 103.789 25.8803 103.748 24.6411C103.708 23.4026 103.647 22.297 103.565 21.3256C103.891 21.3708 104.218 21.4066 104.547 21.4329C104.876 21.4591 105.207 21.4723 105.54 21.4723C105.872 21.4723 106.201 21.4591 106.527 21.4329C106.852 21.4066 107.174 21.3708 107.491 21.3256C107.403 22.3123 107.338 23.4267 107.298 24.6695C107.257 25.9124 107.236 27.4369 107.236 29.2446C107.236 31.2107 107.257 32.7754 107.298 33.9387C107.338 35.102 107.399 36.166 107.48 37.1301C107.118 37.0921 106.776 37.0644 106.455 37.0454C106.133 37.0265 105.828 37.017 105.54 37.017C105.236 37.017 104.924 37.0265 104.602 37.0454C104.281 37.0644 103.935 37.0921 103.565 37.1301Z" fill="#3D4430"/>
</g>
<defs>
<clipPath id="clip0_176_1899">
<rect width="108" height="45" fill="white"/>
</clipPath>
</defs>
</svg>
