<?xml version="1.0" encoding="utf-8"?>
<!-- Generator: Adobe Illustrator 22.0.1, SVG Export Plug-In . SVG Version: 6.00 Build 0)  -->
<svg version="1.1" id="_x31_" xmlns="http://www.w3.org/2000/svg" xmlns:xlink="http://www.w3.org/1999/xlink" x="0px" y="0px"
	 viewBox="0 0 112.5546875 101.25" style="enable-background:new 0 0 112.5546875 101.25;" xml:space="preserve">
<style type="text/css">
	.st0{fill-rule:evenodd;clip-rule:evenodd;fill:#FFFFFF;}
	.st1{fill:#464731;}
	.st2{fill-rule:evenodd;clip-rule:evenodd;fill:#BCD031;}
	.st3{fill-rule:evenodd;clip-rule:evenodd;fill:#E4E8D0;}
	.st4{fill-rule:evenodd;clip-rule:evenodd;fill:#96B11F;}
</style>
<g>
	<rect x="35.8906631" y="61.7808189" class="st0" width="40.7740059" height="36.1368027"/>
	<path class="st1" d="M76.6645508,98.5424805H35.890625c-0.3452148,0-0.625-0.2797852-0.625-0.625V61.7807617
		c0-0.3452148,0.2797852-0.625,0.625-0.625h40.7739258c0.3452148,0,0.625,0.2797852,0.625,0.625v36.1367188
		C77.2895508,98.2626953,77.0097656,98.5424805,76.6645508,98.5424805z M36.515625,97.2924805h39.5239258V62.4057617H36.515625
		V97.2924805z"/>
</g>
<g>
	<g>
		<polygon class="st2" points="18.2378483,74.0870895 18.2378483,81.6073151 23.9577293,81.6073151 23.9577293,74.0870895 
			27.7240944,77.1157761 31.4902916,74.0870895 31.4902916,81.6073151 35.8906631,81.6073151 35.8906631,97.9176178 
			10.7056198,97.9176178 10.7056198,84.6021729 10.7056198,81.6073151 10.7056198,74.0870895 14.4714842,77.1157761 		"/>
		<path class="st1" d="M35.890625,98.5424805H10.7055664c-0.3452148,0-0.625-0.2797852-0.625-0.625V74.0869141
			c0-0.2407227,0.1381836-0.4599609,0.3549805-0.5634766c0.2177734-0.1035156,0.4741211-0.0737305,0.6616211,0.0766602
			l3.3745117,2.7133789l3.3745117-2.7133789c0.1870117-0.1513672,0.4448242-0.1816406,0.6616211-0.0766602
			c0.2167969,0.1035156,0.3549805,0.3227539,0.3549805,0.5634766v6.8955078h4.4697266v-6.8955078
			c0-0.2407227,0.1381836-0.4599609,0.3549805-0.5634766c0.2172852-0.1035156,0.4741211-0.0737305,0.6616211,0.0761719
			l3.375,2.7138672l3.3745117-2.7133789c0.1870117-0.1513672,0.4448242-0.1816406,0.6616211-0.0766602
			c0.2167969,0.1035156,0.3549805,0.3227539,0.3549805,0.5634766v6.8955078h3.7753906c0.3452148,0,0.625,0.2797852,0.625,0.625
			v16.3100586C36.515625,98.2626953,36.2358398,98.5424805,35.890625,98.5424805z M11.3305664,97.2924805H35.265625V82.2324219
			h-3.7753906c-0.3452148,0-0.625-0.2797852-0.625-0.625v-6.2158203l-2.7495117,2.2109375
			c-0.2285156,0.1845703-0.5546875,0.184082-0.7832031,0.0004883l-2.75-2.2114258v6.2158203
			c0,0.3452148-0.2797852,0.625-0.625,0.625H18.237793c-0.3452148,0-0.625-0.2797852-0.625-0.625v-6.2158203l-2.7495117,2.2109375
			c-0.2285156,0.1845703-0.5546875,0.1845703-0.7832031,0l-2.7495117-2.2109375V97.2924805z"/>
	</g>
	<g>
		<polygon class="st2" points="76.6646652,81.6073151 81.0555344,81.6073151 81.0555344,74.0870895 84.8218994,77.1157761 
			88.5880966,74.0870895 88.5880966,81.6073151 94.3076477,81.6073151 94.3076477,74.0870895 98.0738449,77.1157761 
			101.84021,74.0870895 101.84021,81.6073151 101.8497086,81.6073151 101.8497086,97.9176178 76.6646652,97.9176178 		"/>
		<path class="st1" d="M101.8496094,98.5424805H76.6645508c-0.3452148,0-0.625-0.2797852-0.625-0.625V81.6074219
			c0-0.3452148,0.2797852-0.625,0.625-0.625h3.7661133v-6.8955078c0-0.2407227,0.1381836-0.4599609,0.3549805-0.5634766
			s0.4746094-0.0737305,0.6616211,0.0766602l3.3745117,2.7133789l3.3745117-2.7133789
			c0.1870117-0.1513672,0.4438477-0.1816406,0.6616211-0.0766602c0.2167969,0.1035156,0.3549805,0.3227539,0.3549805,0.5634766
			v6.8955078h4.4697266v-6.8955078c0-0.2407227,0.1381836-0.4599609,0.3549805-0.5634766
			c0.2177734-0.1035156,0.4741211-0.0737305,0.6616211,0.0766602l3.3745117,2.7133789l3.375-2.7138672
			c0.1875-0.1508789,0.4443359-0.1811523,0.6616211-0.0761719c0.2167969,0.1035156,0.3549805,0.3227539,0.3549805,0.5634766
			v7.4140625c0.0058594,0.034668,0.0092773,0.0703125,0.0092773,0.1064453v16.3100586
			C102.4746094,98.2626953,102.1948242,98.5424805,101.8496094,98.5424805z M77.2895508,97.2924805h23.9350586V81.7138672
			c-0.0058594-0.034668-0.0092773-0.0703125-0.0092773-0.1064453v-6.2158203l-2.75,2.2114258
			c-0.2285156,0.1835938-0.5546875,0.184082-0.7832031-0.0004883l-2.7495117-2.2109375v6.2158203
			c0,0.3452148-0.2797852,0.625-0.625,0.625h-5.7197266c-0.3452148,0-0.625-0.2797852-0.625-0.625v-6.2158203l-2.7495117,2.2109375
			c-0.2285156,0.1845703-0.5546875,0.1845703-0.7832031,0l-2.7495117-2.2109375v6.2158203c0,0.3452148-0.2797852,0.625-0.625,0.625
			h-3.7661133V97.2924805z"/>
	</g>
</g>
<g>
	<rect x="35.8906631" y="73.0462494" class="st3" width="40.7740059" height="2.8071899"/>
	<path class="st1" d="M76.6645508,76.4785156H35.890625c-0.3452148,0-0.625-0.2797852-0.625-0.625v-2.8071289
		c0-0.3452148,0.2797852-0.625,0.625-0.625h40.7739258c0.3452148,0,0.625,0.2797852,0.625,0.625v2.8071289
		C77.2895508,76.1987305,77.0097656,76.4785156,76.6645508,76.4785156z M36.515625,75.2285156h39.5239258v-1.5571289H36.515625
		V75.2285156z"/>
</g>
<g>
	<path class="st4" d="M56.2776642,81.6041489c3.0605278,0,5.541214,2.3493576,5.541214,5.2483826v11.0650864H50.7359543V86.8525314
		C50.7359543,83.9535065,53.2166405,81.6041489,56.2776642,81.6041489z"/>
	<path class="st1" d="M61.8188477,98.5424805H50.7358398c-0.3452148,0-0.625-0.2797852-0.625-0.625V86.8525391
		c0-3.2387695,2.7666016-5.8735352,6.1669922-5.8735352c3.3999023,0,6.1660156,2.6347656,6.1660156,5.8735352v11.0649414
		C62.4438477,98.2626953,62.1640625,98.5424805,61.8188477,98.5424805z M51.3608398,97.2924805h9.8330078V86.8525391
		c0-2.5493164-2.2050781-4.6235352-4.9160156-4.6235352c-2.7114258,0-4.9169922,2.0742188-4.9169922,4.6235352V97.2924805z"/>
</g>
<g>
	<g>
		<path class="st1" d="M42.0830078,69.7880859c-0.3452148,0-0.625-0.2797852-0.625-0.625v-4.359375
			c0-0.3452148,0.2797852-0.625,0.625-0.625s0.625,0.2797852,0.625,0.625v4.359375
			C42.7080078,69.5083008,42.4282227,69.7880859,42.0830078,69.7880859z M39.8027344,69.7880859
			c-0.3452148,0-0.625-0.2797852-0.625-0.625v-4.359375c0-0.3452148,0.2797852-0.625,0.625-0.625s0.625,0.2797852,0.625,0.625
			v4.359375C40.4277344,69.5083008,40.1479492,69.7880859,39.8027344,69.7880859z"/>
	</g>
	<g>
		<path class="st1" d="M49.3969727,69.7880859c-0.3452148,0-0.625-0.2797852-0.625-0.625v-4.359375
			c0-0.3452148,0.2797852-0.625,0.625-0.625s0.625,0.2797852,0.625,0.625v4.359375
			C50.0219727,69.5083008,49.7421875,69.7880859,49.3969727,69.7880859z M47.1157227,69.7880859
			c-0.3452148,0-0.625-0.2797852-0.625-0.625v-4.359375c0-0.3452148,0.2797852-0.625,0.625-0.625s0.625,0.2797852,0.625,0.625
			v4.359375C47.7407227,69.5083008,47.4609375,69.7880859,47.1157227,69.7880859z"/>
	</g>
	<g>
		<path class="st1" d="M57.1821289,69.7880859c-0.3452148,0-0.625-0.2797852-0.625-0.625v-4.359375
			c0-0.3452148,0.2797852-0.625,0.625-0.625s0.625,0.2797852,0.625,0.625v4.359375
			C57.8071289,69.5083008,57.5273438,69.7880859,57.1821289,69.7880859z M54.9013672,69.7880859
			c-0.3452148,0-0.625-0.2797852-0.625-0.625v-4.359375c0-0.3452148,0.2797852-0.625,0.625-0.625s0.625,0.2797852,0.625,0.625
			v4.359375C55.5263672,69.5083008,55.246582,69.7880859,54.9013672,69.7880859z"/>
	</g>
	<g>
		<path class="st1" d="M64.9677734,69.7880859c-0.3452148,0-0.625-0.2797852-0.625-0.625v-4.359375
			c0-0.3452148,0.2797852-0.625,0.625-0.625s0.625,0.2797852,0.625,0.625v4.359375
			C65.5927734,69.5083008,65.3129883,69.7880859,64.9677734,69.7880859z M62.6875,69.7880859
			c-0.3452148,0-0.625-0.2797852-0.625-0.625v-4.359375c0-0.3452148,0.2797852-0.625,0.625-0.625s0.625,0.2797852,0.625,0.625
			v4.359375C63.3125,69.5083008,63.0327148,69.7880859,62.6875,69.7880859z"/>
	</g>
	<g>
		<path class="st1" d="M72.7529297,69.7880859c-0.3452148,0-0.625-0.2797852-0.625-0.625v-4.359375
			c0-0.3452148,0.2797852-0.625,0.625-0.625s0.625,0.2797852,0.625,0.625v4.359375
			C73.3779297,69.5083008,73.0981445,69.7880859,72.7529297,69.7880859z M70.472168,69.7880859
			c-0.3452148,0-0.625-0.2797852-0.625-0.625v-4.359375c0-0.3452148,0.2797852-0.625,0.625-0.625s0.625,0.2797852,0.625,0.625
			v4.359375C71.097168,69.5083008,70.8173828,69.7880859,70.472168,69.7880859z"/>
	</g>
</g>
<g>
	<rect x="41.7702103" y="36.8999443" class="st2" width="29.0147419" height="24.8803749"/>
	<path class="st1" d="M70.7851562,62.4052734H41.7700195c-0.3452148,0-0.625-0.2797852-0.625-0.625V36.8999023
		c0-0.3452148,0.2797852-0.625,0.625-0.625h29.0151367c0.3452148,0,0.625,0.2797852,0.625,0.625v24.8803711
		C71.4101562,62.1254883,71.1303711,62.4052734,70.7851562,62.4052734z M42.3950195,61.1552734h27.7651367V37.5249023H42.3950195
		V61.1552734z"/>
</g>
<g>
	<path class="st0" d="M56.2781639,56.9089432c4.1683693,0,7.5685654-3.3996925,7.5685654-7.5685616
		s-3.4001961-7.5690613-7.5685654-7.5690613c-4.1688652,0-7.5685616,3.4001923-7.5685616,7.5690613
		S52.1092987,56.9089432,56.2781639,56.9089432z"/>
	<path class="st1" d="M56.2783203,57.5341797c-4.5180664,0-8.1938477-3.6757812-8.1938477-8.1938477
		s3.6757812-8.1938477,8.1938477-8.1938477s8.1933594,3.6757812,8.1933594,8.1938477S60.7963867,57.5341797,56.2783203,57.5341797z
		 M56.2783203,42.3964844c-3.8286133,0-6.9438477,3.1152344-6.9438477,6.9438477s3.1152344,6.9438477,6.9438477,6.9438477
		s6.9433594-3.1152344,6.9433594-6.9438477S60.1069336,42.3964844,56.2783203,42.3964844z"/>
</g>
<g>
	<path class="st1" d="M56.277832,49.8339844c-0.3452148,0-0.625-0.2797852-0.625-0.625v-4.3598633
		c0-0.3452148,0.2797852-0.625,0.625-0.625s0.625,0.2797852,0.625,0.625v4.3598633
		C56.902832,49.5541992,56.6230469,49.8339844,56.277832,49.8339844z"/>
</g>
<g>
	<path class="st1" d="M60.6362305,49.965332h-4.3588867c-0.3452148,0-0.625-0.2797852-0.625-0.625s0.2797852-0.625,0.625-0.625
		h4.3588867c0.3452148,0,0.625,0.2797852,0.625,0.625S60.9814453,49.965332,60.6362305,49.965332z"/>
</g>
<g>
	<rect x="45.9622459" y="27.4600334" class="st0" width="20.6308384" height="9.4404116"/>
	<path class="st1" d="M66.5932617,37.5253906H45.9624023c-0.3452148,0-0.625-0.2797852-0.625-0.625v-9.4404297
		c0-0.3452148,0.2797852-0.625,0.625-0.625h20.6308594c0.3452148,0,0.625,0.2797852,0.625,0.625v9.4404297
		C67.2182617,37.2456055,66.9384766,37.5253906,66.5932617,37.5253906z M46.5874023,36.2753906h19.3808594v-8.1904297H46.5874023
		V36.2753906z"/>
</g>
<g>
	<polygon class="st4" points="48.2409325,27.3096981 56.2776642,6.5381918 64.3138962,27.3096981 	"/>
	<path class="st1" d="M64.3139648,27.9345703H48.2407227c-0.2060547,0-0.3989258-0.1015625-0.515625-0.2714844
		c-0.1166992-0.1704102-0.1416016-0.3867188-0.0673828-0.5791016L55.6948242,6.3125
		c0.1865234-0.4814453,0.9794922-0.4814453,1.1660156,0l8.0361328,20.7714844
		c0.0742188,0.1923828,0.0488281,0.4086914-0.0673828,0.5791016C64.7128906,27.8330078,64.5200195,27.9345703,64.3139648,27.9345703
		z M49.152832,26.6845703h14.2490234L56.277832,8.2700195L49.152832,26.6845703z"/>
</g>
<g>
	<polygon class="st4" points="56.2776642,0.6251424 57.4658432,2.5598252 59.6721916,3.0921631 58.200016,4.8195105 
		58.3758507,7.0830297 56.2776642,6.2165222 54.1794815,7.0830297 54.3553162,4.8195105 52.8831367,3.0921631 55.089489,2.5598252 	
		"/>
	<path class="st1" d="M58.3759766,7.7080078c-0.0805664,0-0.1616211-0.015625-0.2387695-0.0473633l-1.859375-0.7680664
		l-1.859375,0.7680664c-0.2016602,0.0830078-0.4301758,0.0561523-0.605957-0.0717773s-0.2729492-0.3378906-0.2558594-0.5541992
		l0.1557617-2.0063477l-1.3046875-1.5307617c-0.1411133-0.1650391-0.1860352-0.3916016-0.1186523-0.5981445
		c0.0668945-0.2070312,0.2363281-0.3637695,0.4477539-0.4145508l1.9550781-0.4716797l1.0532227-1.715332
		C55.8588867,0.112793,56.0605469,0,56.277832,0l0,0c0.2172852,0,0.4189453,0.112793,0.5327148,0.2978516l1.0527344,1.715332
		l1.9555664,0.4716797c0.2114258,0.0507812,0.3808594,0.2075195,0.4477539,0.4145508
		c0.0673828,0.206543,0.0224609,0.4331055-0.1186523,0.5981445l-1.3046875,1.5307617l0.1557617,2.0063477
		c0.0170898,0.2163086-0.0800781,0.4262695-0.2558594,0.5541992C58.6347656,7.6674805,58.5058594,7.7080078,58.3759766,7.7080078z
		 M56.277832,5.5913086c0.0810547,0,0.1621094,0.015625,0.2387695,0.0473633l1.1572266,0.4780273l-0.0966797-1.2490234
		c-0.0126953-0.1645508,0.0400391-0.328125,0.1474609-0.4536133l0.8120117-0.9526367l-1.2172852-0.2939453
		c-0.1606445-0.0385742-0.2998047-0.1396484-0.3862305-0.2802734L56.277832,1.8193359L55.6220703,2.887207
		c-0.0864258,0.140625-0.2255859,0.2416992-0.3862305,0.2802734L54.019043,3.4614258l0.8120117,0.9526367
		c0.1074219,0.1254883,0.1601562,0.2890625,0.1474609,0.4536133l-0.0966797,1.2490234l1.1572266-0.4780273
		C56.1157227,5.6069336,56.1967773,5.5913086,56.277832,5.5913086z"/>
</g>
<g>
	<path class="st1" d="M111.9296875,101.25H0.625c-0.3452148,0-0.625-0.2797852-0.625-0.625S0.2797852,100,0.625,100h111.3046875
		c0.3452148,0,0.625,0.2797852,0.625,0.625S112.2749023,101.25,111.9296875,101.25z"/>
</g>
<g>
	<g>
		<path class="st3" d="M76.6646652,94.7800903v-1.2500076H35.8906631v1.2500076H76.6646652L76.6646652,94.7800903z
			 M76.6646652,90.6702271v-1.2500076H35.8906631v1.2500076H76.6646652L76.6646652,90.6702271z M76.6646652,86.560524v-1.2501755
			H35.8906631v1.2501755H76.6646652L76.6646652,86.560524z M76.6646652,82.4506607v-1.264183H35.8906631v1.264183H76.6646652
			L76.6646652,82.4506607z M76.6646652,78.3267899v-1.2501755H35.8906631v1.2501755H76.6646652L76.6646652,78.3267899z
			 M76.6646652,74.2169189v-1.2500076H35.8906631v1.2500076H76.6646652L76.6646652,74.2169189z M76.6646652,70.1703873V68.857048
			H35.8906631v1.3133392H76.6646652L76.6646652,70.1703873z M76.6646652,66.0606842v-1.2501755H35.8906631v1.2501755H76.6646652
			L76.6646652,66.0606842z M76.6646652,61.9508209v-0.170002H35.8906631v0.170002H76.6646652z"/>
	</g>
	<g>
		<path class="st3" d="M18.2378483,74.0870895v0.1298294h-0.1616669L18.2378483,74.0870895L18.2378483,74.0870895z
			 M18.2378483,77.0766144v1.2501755h-7.5322285v-1.2501755h3.7171974l0.0491676,0.0396652l0.0491667-0.0396652H18.2378483
			L18.2378483,77.0766144z M18.2378483,81.1864777v0.4208374h5.7198811v-0.4208374h7.5325623v0.4208374h4.4008713v0.8433456
			H10.7056198v-0.8433456v-0.4208374H18.2378483L18.2378483,81.1864777z M23.9577293,78.3267899v-1.2501755h3.7171974
			l0.0491676,0.0396652l0.0489998-0.0396652h3.7171974v1.2501755H23.9577293L23.9577293,78.3267899z M23.9577293,74.2169189
			v-0.1298294l0.1615028,0.1298294H23.9577293L23.9577293,74.2169189z M31.3287907,74.2169189l0.1615009-0.1298294v0.1298294
			H31.3287907L31.3287907,74.2169189z M35.8911629,85.3103485v1.2501755H10.7056198v-1.2501755H35.8911629L35.8911629,85.3103485z
			 M35.8911629,89.4202194v1.2500076H10.7056198v-1.2500076H35.8911629L35.8911629,89.4202194z M35.8911629,93.5300827v1.2500076
			H10.7056198v-1.2500076H35.8911629L35.8911629,93.5300827z M10.7056198,74.2169189v-0.1298294l0.1615009,0.1298294H10.7056198z"/>
	</g>
	<g>
		<path class="st3" d="M76.6641693,81.6073151h4.3918686v-0.4208374h7.5320587v0.4208374h5.7198868v-0.4208374h7.5322266v0.4208374
			h0.0094986v0.8433456H76.6641693V81.6073151L76.6641693,81.6073151z M81.0560379,78.3267899v-1.2501755h3.7166977
			l0.0491638,0.0396652l0.0490036-0.0396652h3.7171936v1.2501755H81.0560379L81.0560379,78.3267899z M81.0560379,74.2169189
			v-0.1298294l0.161499,0.1298294H81.0560379L81.0560379,74.2169189z M88.4265976,74.2169189l0.161499-0.1298294v0.1298294
			H88.4265976L88.4265976,74.2169189z M94.3079834,78.3267899v-1.2501755h3.7168655l0.048996,0.0396652l0.0491714-0.0396652
			h3.7171936v1.2501755H94.3079834L94.3079834,78.3267899z M94.3079834,74.2169189v-0.1298294l0.1616669,0.1298294H94.3079834
			L94.3079834,74.2169189z M101.6787109,74.2169189l0.161499-0.1298294v0.1298294H101.6787109L101.6787109,74.2169189z
			 M101.8497086,85.3103485v1.2501755H76.6641693v-1.2501755H101.8497086L101.8497086,85.3103485z M101.8497086,89.4202194
			v1.2500076H76.6641693v-1.2500076H101.8497086L101.8497086,89.4202194z M101.8497086,93.5300827v1.2500076H76.6641693v-1.2500076
			H101.8497086z"/>
	</g>
	<g>
		<path class="st3" d="M56.2776642,81.6041489c1.1135101,0,2.1500206,0.3108368,3.0183601,0.8465118h-6.0372162
			C54.1274796,81.9149857,55.1641541,81.6041489,56.2776642,81.6041489L56.2776642,81.6041489z M61.5757103,85.3103485
			c0.1293335,0.3988342,0.2096672,0.817337,0.2346687,1.2501755H50.7444534
			c0.0249977-0.4328384,0.1053314-0.8513412,0.2346687-1.2501755H61.5757103L61.5757103,85.3103485z M61.8188782,89.4202194
			v1.2500076H50.7359543v-1.2500076H61.8188782L61.8188782,89.4202194z M61.8188782,93.5300827v1.2500076H50.7359543v-1.2500076
			H61.8188782z"/>
	</g>
	<g>
		<path class="st3" d="M70.7849503,53.7312508h-29.01474v-1.2500114h29.01474V53.7312508L70.7849503,53.7312508z
			 M41.7702103,56.5909424h29.01474v1.2501755h-29.01474V56.5909424L41.7702103,56.5909424z M41.7702103,36.900444h29.01474
			v0.3775024h-29.01474V36.900444L41.7702103,36.900444z M70.7849503,40.1376381v1.2500114h-29.01474v-1.2500114H70.7849503
			L70.7849503,40.1376381z M70.7849503,44.2473412v1.2643433h-29.01474v-1.2643433H70.7849503L70.7849503,44.2473412z
			 M70.7849503,48.3713722v1.2500114h-29.01474v-1.2500114H70.7849503L70.7849503,48.3713722z M70.7849503,60.7008095v1.0800095
			h-29.01474v-1.0800095H70.7849503z"/>
	</g>
	<g>
		<path class="st3" d="M62.4435501,53.7312508h-12.331768c-0.2786713-0.3906708-0.5211716-0.8088379-0.7223396-1.2500114h13.7764473
			C62.9645538,52.9224129,62.7222176,53.34058,62.4435501,53.7312508L62.4435501,53.7312508z M54.1001472,56.5909424h4.3550377
			c-0.6898422,0.2070007-1.420681,0.3185005-2.1775208,0.3185005S54.7899857,56.7979431,54.1001472,56.5909424
			L54.1001472,56.5909424z M61.8760452,44.2473412c0.3520012,0.387001,0.6648369,0.8108368,0.9313393,1.2643433H49.7479439
			c0.2665024-0.4535065,0.5793381-0.8773422,0.9311752-1.2643433H61.8760452L61.8760452,44.2473412z M63.7843933,48.3713722
			c0.0405006,0.3175049,0.0618362,0.6411743,0.0618362,0.9695091c0,0.0940018-0.0023346,0.1870003-0.0056686,0.2805023H48.7147675
			c-0.0033302-0.093502-0.0056648-0.1865005-0.0056648-0.2805023c0-0.3283348,0.0211678-0.6520042,0.0618324-0.9695091H63.7843933z"
			/>
	</g>
	<g>
		<path class="st3" d="M45.9622459,36.900444h20.6308403v-0.872673H45.9622459V36.900444L45.9622459,36.900444z
			 M66.5930862,33.2314148v-1.313345H45.9622459v1.313345H66.5930862L66.5930862,33.2314148z M66.5930862,29.1215458v-1.2500095
			H45.9622459v1.2500095H66.5930862z"/>
	</g>
	<g>
		<path class="st3" d="M49.1304398,25.0118465l0.4838371-1.2501774h13.3267784l0.4836693,1.2501774H49.1304398
			L49.1304398,25.0118465z M50.7202873,20.9019775l0.4956703-1.2808437h10.1234169l0.4956703,1.2808437H50.7202873
			L50.7202873,20.9019775z M52.3223,16.7614441l0.5660019-1.4621792h6.7787247l0.5660057,1.4621792H52.3223L52.3223,16.7614441z
			 M53.9943123,12.4395742l0.4838371-1.2501774h3.5990295l0.4838371,1.2501774H53.9943123z"/>
	</g>
</g>
<g>
	<g>
		<path class="st1" d="M76.6645508,98.5424805H35.890625c-0.3452148,0-0.625-0.2797852-0.625-0.625V61.7807617
			c0-0.3452148,0.2797852-0.625,0.625-0.625h40.7739258c0.3452148,0,0.625,0.2797852,0.625,0.625v36.1367188
			C77.2895508,98.2626953,77.0097656,98.5424805,76.6645508,98.5424805z M36.515625,97.2924805h39.5239258V62.4057617H36.515625
			V97.2924805z"/>
	</g>
	<g>
		<g>
			<path class="st1" d="M35.890625,98.5424805H10.7055664c-0.3452148,0-0.625-0.2797852-0.625-0.625V74.0869141
				c0-0.2407227,0.1381836-0.4599609,0.3549805-0.5634766c0.2177734-0.1035156,0.4741211-0.0737305,0.6616211,0.0766602
				l3.3745117,2.7133789l3.3745117-2.7133789c0.1870117-0.1513672,0.4448242-0.1816406,0.6616211-0.0766602
				c0.2167969,0.1035156,0.3549805,0.3227539,0.3549805,0.5634766v6.8955078h4.4697266v-6.8955078
				c0-0.2407227,0.1381836-0.4599609,0.3549805-0.5634766c0.2172852-0.1035156,0.4741211-0.0737305,0.6616211,0.0761719
				l3.375,2.7138672l3.3745117-2.7133789c0.1870117-0.1513672,0.4448242-0.1816406,0.6616211-0.0766602
				c0.2167969,0.1035156,0.3549805,0.3227539,0.3549805,0.5634766v6.8955078h3.7753906c0.3452148,0,0.625,0.2797852,0.625,0.625
				v16.3100586C36.515625,98.2626953,36.2358398,98.5424805,35.890625,98.5424805z M11.3305664,97.2924805H35.265625V82.2324219
				h-3.7753906c-0.3452148,0-0.625-0.2797852-0.625-0.625v-6.2158203l-2.7495117,2.2109375
				c-0.2285156,0.1845703-0.5546875,0.184082-0.7832031,0.0004883l-2.75-2.2114258v6.2158203
				c0,0.3452148-0.2797852,0.625-0.625,0.625H18.237793c-0.3452148,0-0.625-0.2797852-0.625-0.625v-6.2158203l-2.7495117,2.2109375
				c-0.2285156,0.1845703-0.5546875,0.1845703-0.7832031,0l-2.7495117-2.2109375V97.2924805z"/>
		</g>
		<g>
			<path class="st1" d="M101.8496094,98.5424805H76.6645508c-0.3452148,0-0.625-0.2797852-0.625-0.625V81.6074219
				c0-0.3452148,0.2797852-0.625,0.625-0.625h3.7661133v-6.8955078c0-0.2407227,0.1381836-0.4599609,0.3549805-0.5634766
				s0.4746094-0.0737305,0.6616211,0.0766602l3.3745117,2.7133789l3.3745117-2.7133789
				c0.1870117-0.1513672,0.4438477-0.1816406,0.6616211-0.0766602c0.2167969,0.1035156,0.3549805,0.3227539,0.3549805,0.5634766
				v6.8955078h4.4697266v-6.8955078c0-0.2407227,0.1381836-0.4599609,0.3549805-0.5634766
				c0.2177734-0.1035156,0.4741211-0.0737305,0.6616211,0.0766602l3.3745117,2.7133789l3.375-2.7138672
				c0.1875-0.1508789,0.4443359-0.1811523,0.6616211-0.0761719c0.2167969,0.1035156,0.3549805,0.3227539,0.3549805,0.5634766
				v7.4140625c0.0058594,0.034668,0.0092773,0.0703125,0.0092773,0.1064453v16.3100586
				C102.4746094,98.2626953,102.1948242,98.5424805,101.8496094,98.5424805z M77.2895508,97.2924805h23.9350586V81.7138672
				c-0.0058594-0.034668-0.0092773-0.0703125-0.0092773-0.1064453v-6.2158203l-2.75,2.2114258
				c-0.2285156,0.1835938-0.5546875,0.184082-0.7832031-0.0004883l-2.7495117-2.2109375v6.2158203
				c0,0.3452148-0.2797852,0.625-0.625,0.625h-5.7197266c-0.3452148,0-0.625-0.2797852-0.625-0.625v-6.2158203l-2.7495117,2.2109375
				c-0.2285156,0.1845703-0.5546875,0.1845703-0.7832031,0l-2.7495117-2.2109375v6.2158203c0,0.3452148-0.2797852,0.625-0.625,0.625
				h-3.7661133V97.2924805z"/>
		</g>
	</g>
	<g>
		<path class="st1" d="M76.6645508,76.4785156H35.890625c-0.3452148,0-0.625-0.2797852-0.625-0.625v-2.8071289
			c0-0.3452148,0.2797852-0.625,0.625-0.625h40.7739258c0.3452148,0,0.625,0.2797852,0.625,0.625v2.8071289
			C77.2895508,76.1987305,77.0097656,76.4785156,76.6645508,76.4785156z M36.515625,75.2285156h39.5239258v-1.5571289H36.515625
			V75.2285156z"/>
	</g>
	<g>
		<path class="st1" d="M61.8188477,98.5424805H50.7358398c-0.3452148,0-0.625-0.2797852-0.625-0.625V86.8525391
			c0-3.2387695,2.7666016-5.8735352,6.1669922-5.8735352c3.3999023,0,6.1660156,2.6347656,6.1660156,5.8735352v11.0649414
			C62.4438477,98.2626953,62.1640625,98.5424805,61.8188477,98.5424805z M51.3608398,97.2924805h9.8330078V86.8525391
			c0-2.5493164-2.2050781-4.6235352-4.9160156-4.6235352c-2.7114258,0-4.9169922,2.0742188-4.9169922,4.6235352V97.2924805z"/>
	</g>
	<g>
		<g>
			<path class="st1" d="M42.0830078,69.7880859c-0.3452148,0-0.625-0.2797852-0.625-0.625v-4.359375
				c0-0.3452148,0.2797852-0.625,0.625-0.625s0.625,0.2797852,0.625,0.625v4.359375
				C42.7080078,69.5083008,42.4282227,69.7880859,42.0830078,69.7880859z M39.8027344,69.7880859
				c-0.3452148,0-0.625-0.2797852-0.625-0.625v-4.359375c0-0.3452148,0.2797852-0.625,0.625-0.625s0.625,0.2797852,0.625,0.625
				v4.359375C40.4277344,69.5083008,40.1479492,69.7880859,39.8027344,69.7880859z"/>
		</g>
		<g>
			<path class="st1" d="M49.3969727,69.7880859c-0.3452148,0-0.625-0.2797852-0.625-0.625v-4.359375
				c0-0.3452148,0.2797852-0.625,0.625-0.625s0.625,0.2797852,0.625,0.625v4.359375
				C50.0219727,69.5083008,49.7421875,69.7880859,49.3969727,69.7880859z M47.1157227,69.7880859
				c-0.3452148,0-0.625-0.2797852-0.625-0.625v-4.359375c0-0.3452148,0.2797852-0.625,0.625-0.625s0.625,0.2797852,0.625,0.625
				v4.359375C47.7407227,69.5083008,47.4609375,69.7880859,47.1157227,69.7880859z"/>
		</g>
		<g>
			<path class="st1" d="M57.1821289,69.7880859c-0.3452148,0-0.625-0.2797852-0.625-0.625v-4.359375
				c0-0.3452148,0.2797852-0.625,0.625-0.625s0.625,0.2797852,0.625,0.625v4.359375
				C57.8071289,69.5083008,57.5273438,69.7880859,57.1821289,69.7880859z M54.9013672,69.7880859
				c-0.3452148,0-0.625-0.2797852-0.625-0.625v-4.359375c0-0.3452148,0.2797852-0.625,0.625-0.625s0.625,0.2797852,0.625,0.625
				v4.359375C55.5263672,69.5083008,55.246582,69.7880859,54.9013672,69.7880859z"/>
		</g>
		<g>
			<path class="st1" d="M64.9677734,69.7880859c-0.3452148,0-0.625-0.2797852-0.625-0.625v-4.359375
				c0-0.3452148,0.2797852-0.625,0.625-0.625s0.625,0.2797852,0.625,0.625v4.359375
				C65.5927734,69.5083008,65.3129883,69.7880859,64.9677734,69.7880859z M62.6875,69.7880859
				c-0.3452148,0-0.625-0.2797852-0.625-0.625v-4.359375c0-0.3452148,0.2797852-0.625,0.625-0.625s0.625,0.2797852,0.625,0.625
				v4.359375C63.3125,69.5083008,63.0327148,69.7880859,62.6875,69.7880859z"/>
		</g>
		<g>
			<path class="st1" d="M72.7529297,69.7880859c-0.3452148,0-0.625-0.2797852-0.625-0.625v-4.359375
				c0-0.3452148,0.2797852-0.625,0.625-0.625s0.625,0.2797852,0.625,0.625v4.359375
				C73.3779297,69.5083008,73.0981445,69.7880859,72.7529297,69.7880859z M70.472168,69.7880859
				c-0.3452148,0-0.625-0.2797852-0.625-0.625v-4.359375c0-0.3452148,0.2797852-0.625,0.625-0.625s0.625,0.2797852,0.625,0.625
				v4.359375C71.097168,69.5083008,70.8173828,69.7880859,70.472168,69.7880859z"/>
		</g>
	</g>
	<g>
		<path class="st1" d="M70.7851562,62.4052734H41.7700195c-0.3452148,0-0.625-0.2797852-0.625-0.625V36.8999023
			c0-0.3452148,0.2797852-0.625,0.625-0.625h29.0151367c0.3452148,0,0.625,0.2797852,0.625,0.625v24.8803711
			C71.4101562,62.1254883,71.1303711,62.4052734,70.7851562,62.4052734z M42.3950195,61.1552734h27.7651367V37.5249023H42.3950195
			V61.1552734z"/>
	</g>
	<g>
		<path class="st1" d="M56.2783203,57.5341797c-4.5180664,0-8.1938477-3.6757812-8.1938477-8.1938477
			s3.6757812-8.1938477,8.1938477-8.1938477s8.1933594,3.6757812,8.1933594,8.1938477S60.7963867,57.5341797,56.2783203,57.5341797z
			 M56.2783203,42.3964844c-3.8286133,0-6.9438477,3.1152344-6.9438477,6.9438477s3.1152344,6.9438477,6.9438477,6.9438477
			s6.9433594-3.1152344,6.9433594-6.9438477S60.1069336,42.3964844,56.2783203,42.3964844z"/>
	</g>
	<g>
		<path class="st1" d="M56.277832,49.8339844c-0.3452148,0-0.625-0.2797852-0.625-0.625v-4.3598633
			c0-0.3452148,0.2797852-0.625,0.625-0.625s0.625,0.2797852,0.625,0.625v4.3598633
			C56.902832,49.5541992,56.6230469,49.8339844,56.277832,49.8339844z"/>
	</g>
	<g>
		<path class="st1" d="M60.6362305,49.965332h-4.3588867c-0.3452148,0-0.625-0.2797852-0.625-0.625s0.2797852-0.625,0.625-0.625
			h4.3588867c0.3452148,0,0.625,0.2797852,0.625,0.625S60.9814453,49.965332,60.6362305,49.965332z"/>
	</g>
	<g>
		<path class="st1" d="M66.5932617,37.5253906H45.9624023c-0.3452148,0-0.625-0.2797852-0.625-0.625v-9.4404297
			c0-0.3452148,0.2797852-0.625,0.625-0.625h20.6308594c0.3452148,0,0.625,0.2797852,0.625,0.625v9.4404297
			C67.2182617,37.2456055,66.9384766,37.5253906,66.5932617,37.5253906z M46.5874023,36.2753906h19.3808594v-8.1904297H46.5874023
			V36.2753906z"/>
	</g>
	<g>
		<path class="st1" d="M64.3139648,27.9345703H48.2407227c-0.2060547,0-0.3989258-0.1015625-0.515625-0.2714844
			c-0.1166992-0.1704102-0.1416016-0.3867188-0.0673828-0.5791016L55.6948242,6.3125
			c0.1865234-0.4814453,0.9794922-0.4814453,1.1660156,0l8.0361328,20.7714844
			c0.0742188,0.1923828,0.0488281,0.4086914-0.0673828,0.5791016
			C64.7128906,27.8330078,64.5200195,27.9345703,64.3139648,27.9345703z M49.152832,26.6845703h14.2490234L56.277832,8.2700195
			L49.152832,26.6845703z"/>
	</g>
	<g>
		<path class="st1" d="M58.3759766,7.7080078c-0.0805664,0-0.1616211-0.015625-0.2387695-0.0473633l-1.859375-0.7680664
			l-1.859375,0.7680664c-0.2016602,0.0830078-0.4301758,0.0561523-0.605957-0.0717773s-0.2729492-0.3378906-0.2558594-0.5541992
			l0.1557617-2.0063477l-1.3046875-1.5307617c-0.1411133-0.1650391-0.1860352-0.3916016-0.1186523-0.5981445
			c0.0668945-0.2070312,0.2363281-0.3637695,0.4477539-0.4145508l1.9550781-0.4716797l1.0532227-1.715332
			C55.8588867,0.112793,56.0605469,0,56.277832,0l0,0c0.2172852,0,0.4189453,0.112793,0.5327148,0.2978516l1.0527344,1.715332
			l1.9555664,0.4716797c0.2114258,0.0507812,0.3808594,0.2075195,0.4477539,0.4145508
			c0.0673828,0.206543,0.0224609,0.4331055-0.1186523,0.5981445l-1.3046875,1.5307617l0.1557617,2.0063477
			c0.0170898,0.2163086-0.0800781,0.4262695-0.2558594,0.5541992C58.6347656,7.6674805,58.5058594,7.7080078,58.3759766,7.7080078z
			 M56.277832,5.5913086c0.0810547,0,0.1621094,0.015625,0.2387695,0.0473633l1.1572266,0.4780273l-0.0966797-1.2490234
			c-0.0126953-0.1645508,0.0400391-0.328125,0.1474609-0.4536133l0.8120117-0.9526367l-1.2172852-0.2939453
			c-0.1606445-0.0385742-0.2998047-0.1396484-0.3862305-0.2802734L56.277832,1.8193359L55.6220703,2.887207
			c-0.0864258,0.140625-0.2255859,0.2416992-0.3862305,0.2802734L54.019043,3.4614258l0.8120117,0.9526367
			c0.1074219,0.1254883,0.1601562,0.2890625,0.1474609,0.4536133l-0.0966797,1.2490234l1.1572266-0.4780273
			C56.1157227,5.6069336,56.1967773,5.5913086,56.277832,5.5913086z"/>
	</g>
</g>
</svg>
