<?xml version="1.0" encoding="utf-8"?>
<!-- Generator: Adobe Illustrator 22.0.1, SVG Export Plug-In . SVG Version: 6.00 Build 0)  -->
<svg version="1.1" id="Слой_1" xmlns="http://www.w3.org/2000/svg" xmlns:xlink="http://www.w3.org/1999/xlink" x="0px" y="0px"
	 viewBox="0 0 185.1 77.1" style="enable-background:new 0 0 185.1 77.1;" xml:space="preserve">
<style type="text/css">
	.st0{fill-rule:evenodd;clip-rule:evenodd;fill:#91B43E;}
	.st1{fill-rule:evenodd;clip-rule:evenodd;fill:#3E4530;}
	.st2{fill-rule:evenodd;clip-rule:evenodd;fill:#B3D349;}
	.st3{fill-rule:evenodd;clip-rule:evenodd;fill:none;stroke:#3E432F;stroke-width:1.3419;stroke-miterlimit:22.9256;}
	.st4{fill-rule:evenodd;clip-rule:evenodd;fill:#B3D349;stroke:#3E432F;stroke-width:1.7387;stroke-miterlimit:22.9256;}
	.st5{fill-rule:evenodd;clip-rule:evenodd;fill:#DDE4C9;stroke:#3E432F;stroke-width:1.6853;stroke-miterlimit:22.9256;}
</style>
<path class="st0" d="M173.2,61.9c6.3,0,11.5-5.2,11.5-11.5S179.5,39,173.2,39c-6.3,0-11.5,5.2-11.5,11.5S166.9,61.9,173.2,61.9z"/>
<path class="st1" d="M172,42.6v8.8v14v5.8h2.4v-5.8v-14v-8.8c-0.4,0-0.8-0.1-1.2-0.1C172.8,42.6,172.4,42.6,172,42.6z"/>
<path class="st1" d="M173.2,38.5c-3.3,0-6.3,1.3-8.4,3.5c-2.2,2.2-3.5,5.2-3.5,8.4c0,3.3,1.3,6.3,3.5,8.4c2.2,2.2,5.2,3.5,8.4,3.5
	c3.3,0,6.3-1.3,8.4-3.5c2.2-2.2,3.5-5.2,3.5-8.4c0-3.3-1.3-6.3-3.5-8.4C179.5,39.8,176.5,38.5,173.2,38.5L173.2,38.5z M165.4,42.7
	c2-2,4.7-3.2,7.8-3.2c3,0,5.8,1.2,7.8,3.2c2,2,3.2,4.7,3.2,7.8s-1.2,5.8-3.2,7.8c-2,2-4.7,3.2-7.8,3.2c-3,0-5.8-1.2-7.8-3.2
	c-2-2-3.2-4.7-3.2-7.8S163.4,44.7,165.4,42.7z"/>
<rect x="0.5" y="44.1" class="st2" width="18.7" height="18.7"/>
<rect x="8.6" y="47.7" class="st1" width="2.4" height="23.1"/>
<path class="st1" d="M0.5,43.6h18.7c0.3,0,0.5,0.2,0.5,0.5v18.7c0,0.3-0.2,0.5-0.5,0.5H0.5C0.2,63.2,0,63,0,62.8V44.1
	C0,43.8,0.2,43.6,0.5,43.6L0.5,43.6z M18.7,44.6H1v17.7h17.7V44.6z"/>
<polygon class="st1" points="27.6,23.3 91.4,0 155.1,23.3 154.5,25 91.4,1.9 28.2,25 "/>
<rect x="30.2" y="55.9" class="st1" width="122.5" height="21.2"/>
<polygon class="st2" points="94.7,2.7 88.1,2.7 83.2,4.5 99.5,4.5 "/>
<polygon class="st2" points="91.4,1.5 90.7,1.8 92,1.8 "/>
<path class="st2" d="M151.8,31.6v-1.8H31c0,0,0,0-0.1,0v1.8c0,0,0,0,0.1,0H151.8z"/>
<path class="st2" d="M31,54.3v1.9h120.8v-1.9H31.2C31.1,54.3,31,54.3,31,54.3z"/>
<path class="st2" d="M31,48.8v1.8c0.1,0,0.1,0,0.2,0h120.6v-1.8H31.2C31.1,48.8,31,48.8,31,48.8z"/>
<path class="st2" d="M31,51.6v1.8c0.1,0,0.1,0,0.2,0h120.6v-1.8H31.2C31.1,51.6,31,51.6,31,51.6z"/>
<path class="st2" d="M31.2,46.1c-0.1,0-0.1,0-0.2,0v1.8c0.1,0,0.1,0,0.2,0h120.6v-1.8H31.2z"/>
<path class="st2" d="M151.8,37.1v-1.8H31c0,0,0,0-0.1,0v1.8c0,0,0,0,0.1,0H151.8z"/>
<path class="st2" d="M151.8,34.4v-1.8H31c0,0,0,0-0.1,0v1.8c0,0,0,0,0.1,0H151.8z"/>
<path class="st2" d="M151.8,42.4v-1.7H31c0,0,0,0-0.1,0v1.7c0.1,0,0.1,0,0.2,0H151.8z"/>
<path class="st2" d="M151.8,39.8V38H31c0,0,0,0-0.1,0v1.8c0,0,0,0,0.1,0H151.8z"/>
<path class="st2" d="M151.8,45.2v-1.8H31.2c-0.1,0-0.1,0-0.2,0v1.8c0.1,0,0.1,0,0.2,0H151.8z"/>
<polygon class="st2" points="117.2,10.9 65.5,10.9 60.7,12.7 122.1,12.7 "/>
<polygon class="st2" points="124.7,13.6 58,13.6 52.9,15.5 129.8,15.5 "/>
<polygon class="st2" points="132.4,16.4 50.3,16.4 45.4,18.2 137.3,18.2 "/>
<path class="st2" d="M151.8,26.4v-1.8H31c0,0,0,0-0.1,0v1.8c0,0,0,0,0.1,0H151.8z"/>
<polygon class="st2" points="139.9,19.2 42.8,19.2 37.9,20.9 144.8,20.9 "/>
<path class="st2" d="M151.8,28.9v-1.6H31c0,0,0,0-0.1,0v1.6c0,0,0,0,0.1,0H151.8z"/>
<polygon class="st2" points="102.2,5.5 80.6,5.5 75.7,7.2 107,7.2 "/>
<path class="st2" d="M151.8,23.7v-0.2l-4.3-1.6H35.3L31,23.5v0.2c0,0,0,0,0.1,0H151.8z"/>
<polygon class="st2" points="109.7,8.2 73,8.2 68.2,10 114.6,10 "/>
<polygon class="st3" points="31,23.5 91.4,1.5 151.8,23.5 151.8,56.2 31,56.2 "/>
<polygon class="st4" points="131.5,25.4 121.1,25.4 91.6,25.4 91.6,51.6 121.1,51.6 131.5,51.6 146.3,51.6 146.3,25.4 "/>
<polygon class="st5" points="73.3,25.4 63.5,25.4 35.8,25.4 35.8,51.6 63.5,51.6 73.3,51.6 87.2,51.6 87.2,25.4 "/>
</svg>
