<svg width="20" height="24" viewBox="0 0 20 24" fill="none" xmlns="http://www.w3.org/2000/svg">
<path d="M20 20.4688C18.3717 20.1696 16.5899 19.7806 15.023 19.3317V19.212C17.7266 18.015 19.9078 14.783 19.9078 10.2045C19.9078 4.66833 16.4363 0 10.1382 0C3.93241 0 0 4.5187 0 10.5935C0 17.207 4.36252 20.5586 9.06298 20.8579C9.52381 20.8878 10.0154 20.9776 10.4762 21.1571C13.2719 22.2643 15.7296 23.1621 18.679 24L20 20.4688ZM9.98464 17.2369C6.82028 17.2369 4.94624 14.3042 4.94624 10.4738C4.94624 6.67332 6.78955 3.62095 9.98464 3.62095C13.1797 3.62095 14.9616 6.67332 14.9616 10.384C14.9616 14.3342 13.149 17.2369 9.98464 17.2369Z" fill="#EC6F16"/>
</svg>
