<svg width="24" height="20" viewBox="0 0 24 20" fill="none" xmlns="http://www.w3.org/2000/svg">
<path d="M24.0005 4.00002H11.6732V6.18187H24.0005V4.00002Z" fill="black"/>
<path d="M3.6 4.00002H0V6.18187H3.6V4.00002Z" fill="black"/>
<path d="M24.0005 13.8182H20.4005V16H24.0005V13.8182Z" fill="black"/>
<path d="M12.3273 13.8182H0V16H12.3273V13.8182Z" fill="black"/>
<path d="M7.6363 0.727295C5.23632 0.727295 3.27268 2.69093 3.27268 5.09097C3.27268 7.49095 5.23632 9.45459 7.6363 9.45459C10.0363 9.45459 11.9999 7.49095 11.9999 5.09097C12 2.69093 10.0363 0.727295 7.6363 0.727295ZM7.6363 7.49095C6.32721 7.49095 5.23632 6.40006 5.23632 5.09097C5.23632 3.78188 6.32721 2.69098 7.6363 2.69098C8.94539 2.69098 10.0363 3.78188 10.0363 5.09097C10.0363 6.40006 8.94539 7.49095 7.6363 7.49095Z" fill="black"/>
<path d="M16.3637 10.5455C13.9637 10.5455 12.0001 12.5091 12.0001 14.9091C12.0001 17.3091 13.9637 19.2728 16.3637 19.2728C18.7636 19.2728 20.7273 17.3091 20.7273 14.9092C20.7273 12.5092 18.7636 10.5455 16.3637 10.5455ZM16.3637 17.3091C15.0546 17.3091 13.9637 16.2183 13.9637 14.9092C13.9637 13.6001 15.0546 12.5091 16.3637 12.5091C17.6727 12.5091 18.7636 13.6 18.7636 14.9091C18.7636 16.2182 17.6727 17.3091 16.3637 17.3091Z" fill="black"/>
</svg>
