<?xml version="1.0" encoding="utf-8"?>
<!-- Generator: Adobe Illustrator 22.0.1, SVG Export Plug-In . SVG Version: 6.00 Build 0)  -->
<svg version="1.1" id="_x31_" xmlns="http://www.w3.org/2000/svg" xmlns:xlink="http://www.w3.org/1999/xlink" x="0px" y="0px"
	 viewBox="0 0 108.6 102.5" style="enable-background:new 0 0 108.6 102.5;" xml:space="preserve">
<style type="text/css">
	.st0{fill:#464731;}
	.st1{fill-rule:evenodd;clip-rule:evenodd;fill:#96B11F;}
	.st2{fill-rule:evenodd;clip-rule:evenodd;fill:#E4E8D0;}
	.st3{fill-rule:evenodd;clip-rule:evenodd;fill:#FFFFFF;}
	.st4{fill-rule:evenodd;clip-rule:evenodd;fill:#BCD031;}
</style>
<g>
	<g>
		<path class="st0" d="M108,102.5H0.6c-0.3,0-0.6-0.3-0.6-0.6s0.3-0.6,0.6-0.6H108c0.3,0,0.6,0.3,0.6,0.6S108.3,102.5,108,102.5z"/>
	</g>
	<g>
		<path class="st0" d="M98.1,99.8H10.4c-0.3,0-0.6-0.3-0.6-0.6s0.3-0.6,0.6-0.6h87.7c0.3,0,0.6,0.3,0.6,0.6S98.5,99.8,98.1,99.8z"/>
	</g>
	<g>
		<path class="st1" d="M51.6,50.5l-1.4-0.9L47,50.4l-0.8,1.4l0.7,1l-1,3.3l-1.3,1.4L42.8,60c0,0-1.6,3-1.6,3.3
			c0,0.3-0.7,4.9-0.7,4.9l-2.2-0.8l-1.3,4.6l-4.3,5.8l0.6,6.9l-2.4,1.5c0,0-1.8,0.8-2.8,2.1c-1,1.3-2.4,3.5-2.4,3.5S25.1,92,25,93.1
			c-0.1,1.1,1.9,4.5,1.9,4.5l-0.6,1.7l57.3,0l-0.3-2.7c0,0,0.2-3.6-0.5-4.7c-0.7-1.1-0.9-0.8-1.5-2s-0.6-2.3-0.6-2.3
			s-3.9-0.7-5.2-1.1c-1.3-0.4-1-1.9-1-1.9s1.6-4.1,1.7-5c0.1-0.9-3.2-5.8-3.2-5.8l1.8-3l-2.5,0.3l0.2-1.3l-3.7-2.3
			c0,0-0.9-2.7-1-3.2c-0.1-0.5-0.3-2.8-0.7-3.3c-0.3-0.6-1.7,0-1.7,0l-0.7-3.7v-3.1l-1.4-1.2L51.6,50.5z"/>
		<path class="st0" d="M26.3,99.8c-0.2,0-0.4-0.1-0.5-0.2s-0.1-0.4-0.1-0.5l0.5-1.4c-0.5-0.9-1.9-3.5-1.8-4.6c0.1-1,0.5-1.5,0.9-1.6
			c0.3-0.5,1.5-2.2,2.3-3.4c1.1-1.5,3-2.3,3.1-2.3l2.1-1.3l-0.5-6.5c0-0.1,0-0.3,0.1-0.4l4.2-5.7l1.3-4.5c0-0.2,0.2-0.3,0.3-0.4
			c0.1-0.1,0.3-0.1,0.5,0l1.5,0.5c0.2-1.7,0.5-3.8,0.6-4.1c0-0.2,0-0.5,1.7-3.6l1.8-2.5l1.3-1.4l0.9-2.9l-0.5-0.8
			c-0.1-0.2-0.1-0.4,0-0.6l0.8-1.4c0.1-0.2,0.2-0.3,0.4-0.3l3.2-0.8c0.2,0,0.3,0,0.5,0.1l1.3,0.8l11.7,2.6c0.1,0,0.2,0.1,0.3,0.1
			l1.4,1.2c0.1,0.1,0.2,0.3,0.2,0.5v3l0.5,3c0.6-0.1,1.4-0.2,1.8,0.5c0.3,0.5,0.4,1.5,0.6,2.8c0,0.3,0.1,0.6,0.1,0.7
			c0.1,0.3,0.6,1.8,0.9,2.9l3.5,2.2c0.2,0.1,0.3,0.4,0.3,0.6L73,70.4l1.7-0.2c0.2,0,0.5,0.1,0.6,0.3c0.1,0.2,0.1,0.4,0,0.6l-1.6,2.6
			c1.3,2,3.2,5,3.1,5.9c-0.1,0.9-1.4,4.5-1.7,5.1c0,0.2-0.1,0.9,0.6,1.2c1.2,0.4,5,1.1,5.1,1.1c0.3,0,0.5,0.3,0.5,0.6
			c0,0,0.1,1.1,0.6,2.1c0.3,0.6,0.4,0.7,0.7,0.9c0.2,0.2,0.5,0.5,0.8,1c0.7,1.2,0.6,4.4,0.6,5l0.3,2.6c0,0.2,0,0.3-0.2,0.5
			s-0.3,0.2-0.4,0.2L26.3,99.8z M33.4,78l0.5,6.7c0,0.2-0.1,0.4-0.3,0.6l-2.4,1.5c-0.1,0-1.8,0.8-2.7,2c-1,1.3-2.4,3.5-2.4,3.5
			c-0.1,0.1-0.2,0.2-0.4,0.3c0,0-0.1,0.2-0.2,0.7c-0.1,0.6,0.9,2.6,1.8,4.1c0.1,0.2,0.1,0.3,0.1,0.5l-0.3,0.9l55.8,0l-0.2-2
			c0.1-1.5,0-3.8-0.4-4.4c-0.3-0.4-0.4-0.6-0.6-0.8c-0.3-0.3-0.6-0.5-0.9-1.3c-0.4-0.8-0.5-1.6-0.6-2.1c-1.1-0.2-3.8-0.7-4.8-1.1
			c-1.4-0.5-1.5-1.9-1.4-2.6c0,0,0-0.1,0-0.1c0.6-1.6,1.6-4.3,1.6-4.9c0-0.5-1.7-3.2-3.1-5.4c-0.1-0.2-0.1-0.5,0-0.7l1.2-1.9
			l-1.2,0.2c-0.2,0-0.4,0-0.5-0.2c-0.1-0.1-0.2-0.3-0.2-0.5l0.2-0.9L68.5,68c-0.1-0.1-0.2-0.2-0.3-0.3c-0.1-0.3-0.9-2.7-1-3.2
			c0-0.2-0.1-0.5-0.1-0.8c-0.1-0.6-0.3-2-0.5-2.3c-0.1,0-0.6,0.1-1,0.2c-0.2,0.1-0.4,0.1-0.5,0c-0.2-0.1-0.3-0.2-0.3-0.4l-0.7-3.7
			c0,0,0-0.1,0-0.1v-2.8l-1-0.9l-11.7-2.6c-0.1,0-0.1,0-0.2-0.1l-1.1-0.7l-2.7,0.7l-0.5,0.9l0.5,0.7c0.1,0.2,0.1,0.3,0.1,0.5l-1,3.3
			c0,0.1-0.1,0.2-0.1,0.2L45,58l-1.7,2.4c-0.7,1.2-1.4,2.8-1.5,3.1c0,0.3-0.5,3.5-0.7,4.9c0,0.2-0.1,0.3-0.3,0.4
			c-0.2,0.1-0.3,0.1-0.5,0.1l-1.6-0.6l-1.2,4c0,0.1-0.1,0.1-0.1,0.2L33.4,78z"/>
	</g>
	<g>
		<path class="st2" d="M82.4,92.5H25.8c0.1,0,0.2-0.1,0.3-0.2c0,0,0.3-0.4,0.6-1h54.7c0.1,0.1,0.1,0.1,0.2,0.2
			c0.2,0.2,0.4,0.4,0.6,0.8C82.4,92.3,82.4,92.4,82.4,92.5L82.4,92.5z M26.3,95.2h56.5c0,0.5,0,1,0,1.2H26.9
			C26.7,96.1,26.5,95.7,26.3,95.2L26.3,95.2z M47.5,52.6h11.1L53,51.4h-5.9l-0.2,0.4l0.5,0.7C47.4,52.6,47.5,52.6,47.5,52.6
			L47.5,52.6z M46.1,56.8h18.1l0-1.4H46.8l-0.3,0.9c0,0.1-0.1,0.2-0.1,0.2L46.1,56.8L46.1,56.8z M43.1,60.8h21.7l-0.2-1.2H43.9
			l-0.5,0.7L43.1,60.8L43.1,60.8z M41.7,64.8h25.7c0-0.1-0.1-0.2-0.1-0.3c0-0.2-0.1-0.5-0.1-0.8l0-0.1H41.8
			C41.8,63.8,41.7,64.3,41.7,64.8L41.7,64.8z M38.6,68.7h1.5l-1.4-0.5L38.6,68.7L38.6,68.7z M40.9,68.7h28.8L68.5,68
			c-0.1-0.1-0.2-0.2-0.3-0.3l-0.1-0.2H41.3l-0.1,0.8C41.1,68.5,41,68.6,40.9,68.7L40.9,68.7z M37.3,72.7h35.5l0.7-1.2l-1.2,0.2
			c-0.2,0-0.4-0.1-0.6-0.2H37.9l-0.2,0.8c0,0.1-0.1,0.1-0.1,0.2L37.3,72.7L37.3,72.7z M34.5,76.6h39.7c-0.3-0.4-0.5-0.8-0.8-1.2h-38
			L34.5,76.6L34.5,76.6z M33.6,80.6h41.7c0.2-0.5,0.3-0.9,0.3-1.1c0,0,0-0.1,0-0.1H33.5L33.6,80.6L33.6,80.6z M33.9,84.5h40
			c0-0.1,0-0.1,0-0.1l0-0.1c0-0.1,0.2-0.5,0.4-1H33.8L33.9,84.5L33.9,84.5z M28.7,88.5h51.5c0-0.2-0.1-0.3-0.1-0.4
			c-0.8-0.1-2.5-0.5-3.8-0.8H30.2C29.7,87.6,29.2,88,28.7,88.5z"/>
	</g>
	<g>
		<path class="st0" d="M30.6,98.9c0,0-0.1,0-0.1,0c-0.3-0.1-0.5-0.4-0.5-0.7l1-5c0-0.1,0.1-0.2,0.1-0.3l5.1-6.3l0.8-5.3
			c0-0.1,0-0.1,0.1-0.2l2.4-4.9c0.1-0.1,0.1-0.2,0.2-0.2l2.4-1.5c0.1,0,0.1-0.1,0.2-0.1l2.4-0.4l22.6,0c0,0,0.1,0,0.1,0l2.1,0.4
			c0.2,0,0.3,0.1,0.4,0.3l2.1,3.9c0.2,0.3,0.1,0.7-0.2,0.8c-0.3,0.2-0.7,0.1-0.8-0.2l-2-3.7l-1.8-0.4H44.7l-2.1,0.4l-2.1,1.3
			l-2.3,4.7L37.3,87c0,0.1-0.1,0.2-0.1,0.3l-5.1,6.3l-0.9,4.9C31.2,98.7,30.9,98.9,30.6,98.9z"/>
	</g>
	<g>
		<polygon class="st3" points="54.2,14.7 55.1,14.7 57.8,14.7 58.6,14.7 59.3,46.7 57,46.7 55.8,46.7 53.5,46.7 		"/>
		<path class="st0" d="M59.3,47.3h-5.8c-0.2,0-0.3-0.1-0.4-0.2c-0.1-0.1-0.2-0.3-0.2-0.4l0.7-32c0-0.3,0.3-0.6,0.6-0.6h4.4
			c0.3,0,0.6,0.3,0.6,0.6l0.7,32c0,0.2-0.1,0.3-0.2,0.4C59.6,47.2,59.5,47.3,59.3,47.3z M54.1,46.1h4.6L58,15.3h-3.2L54.1,46.1z"/>
	</g>
	<g>
		<path class="st4" d="M53.3,46.7h6.2c0.3,0,0.6,0.3,0.6,0.6v0c0,0.3-0.3,0.6-0.6,0.6h-6.2c-0.3,0-0.6-0.3-0.6-0.6v0
			C52.8,47,53,46.7,53.3,46.7z"/>
		<path class="st0" d="M59.5,48.5h-6.2c-0.7,0-1.2-0.5-1.2-1.2s0.5-1.2,1.2-1.2h6.2c0.7,0,1.2,0.5,1.2,1.2
			C60.7,47.9,60.1,48.5,59.5,48.5z M53.3,47.3L53.3,47.3C53.3,47.3,53.3,47.3,53.3,47.3z"/>
	</g>
	<g>
		<path class="st4" d="M52.8,49.4H60c0.4,0,0.8-0.4,0.8-0.8v0c0-0.4-0.4-0.8-0.8-0.8h-7.1c-0.4,0-0.8,0.3-0.8,0.8v0
			C52.1,49.1,52.4,49.4,52.8,49.4z"/>
		<path class="st0" d="M60,50h-7.1c-0.8,0-1.4-0.6-1.4-1.4c0-0.8,0.6-1.4,1.4-1.4H60c0.8,0,1.4,0.6,1.4,1.4S60.7,50,60,50z
			 M52.8,48.5c-0.1,0-0.2,0.1-0.2,0.2s0.1,0.2,0.2,0.2H60c0.1,0,0.2-0.1,0.2-0.2c0-0.1-0.1-0.2-0.2-0.2H52.8z"/>
	</g>
	<g>
		<path class="st4" d="M54.5,13.4h3.9c0.5,0,0.9,0.4,0.9,0.9v0c0,0.5-0.4,0.9-0.9,0.9h-3.9c-0.5,0-0.9-0.4-0.9-0.9v0
			C53.5,13.8,54,13.4,54.5,13.4z"/>
		<path class="st0" d="M58.3,15.9h-3.9c-0.8,0-1.5-0.7-1.5-1.5c0-0.8,0.7-1.5,1.5-1.5h3.9c0.8,0,1.5,0.7,1.5,1.5
			C59.9,15.2,59.2,15.9,58.3,15.9z M54.5,14c-0.2,0-0.3,0.1-0.3,0.3s0.1,0.3,0.3,0.3h3.9c0.2,0,0.3-0.1,0.3-0.3S58.5,14,58.3,14
			H54.5z"/>
	</g>
	<g>
		<rect x="54.3" y="11.3" class="st4" width="4.2" height="2.1"/>
		<path class="st0" d="M58.5,14h-4.2c-0.3,0-0.6-0.3-0.6-0.6v-2.1c0-0.3,0.3-0.6,0.6-0.6h4.2c0.3,0,0.6,0.3,0.6,0.6v2.1
			C59.1,13.8,58.8,14,58.5,14z M54.9,12.8h3v-0.9h-3V12.8z"/>
	</g>
	<g>
		<rect x="52.3" y="7" class="st4" width="8.1" height="1.4"/>
		<path class="st0" d="M60.5,9h-8.1c-0.3,0-0.6-0.3-0.6-0.6V7c0-0.3,0.3-0.6,0.6-0.6h8.1c0.3,0,0.6,0.3,0.6,0.6v1.4
			C61.1,8.8,60.8,9,60.5,9z M52.9,7.8h6.9V7.6h-6.9V7.8z"/>
	</g>
	<g>
		<path class="st4" d="M53.6,54.1h9.3c0.3,0,0.6-0.3,0.6-0.6v-0.4c0-0.3-0.3-0.6-0.6-0.6h-9.3c-0.3,0-0.6,0.3-0.6,0.6v0.4
			C53,53.8,53.2,54.1,53.6,54.1z"/>
		<path class="st0" d="M62.8,54.7h-9.3c-0.6,0-1.2-0.5-1.2-1.2v-0.4c0-0.6,0.5-1.2,1.2-1.2h9.3c0.6,0,1.2,0.5,1.2,1.2v0.4
			C64,54.2,63.5,54.7,62.8,54.7z M53.6,53.5L53.6,53.5L53.6,53.5z M53.6,53.5h9.3l0-0.4l-9.3,0L53.6,53.5z"/>
	</g>
	<g>
		<path class="st4" d="M52.4,54.1h-2.8c-0.3,0-0.6-0.3-0.6-0.6v-0.4c0-0.3,0.3-0.6,0.6-0.6h2.8c0.3,0,0.6,0.3,0.6,0.6v0.4
			C53,53.8,52.7,54.1,52.4,54.1z"/>
		<path class="st0" d="M52.4,54.7h-2.8c-0.6,0-1.2-0.5-1.2-1.2v-0.4c0-0.6,0.5-1.2,1.2-1.2h2.8c0.6,0,1.2,0.5,1.2,1.2v0.4
			C53.6,54.2,53.1,54.7,52.4,54.7z M52.4,53.1l-2.8,0l0,0.4l2.7,0V53.1z M52.4,53.5L52.4,53.5L52.4,53.5z"/>
	</g>
	<g>
		<rect x="53.4" y="54.2" class="st4" width="9.3" height="11.4"/>
		<path class="st0" d="M62.8,66.3h-9.3c-0.3,0-0.6-0.3-0.6-0.6V54.2c0-0.3,0.3-0.6,0.6-0.6h9.3c0.3,0,0.6,0.3,0.6,0.6v11.4
			C63.4,66,63.1,66.3,62.8,66.3z M54,65.1h8.1V54.8H54V65.1z"/>
	</g>
	<g>
		<rect x="49.7" y="54.2" class="st4" width="3.7" height="11.4"/>
		<path class="st0" d="M53.4,66.3h-3.7c-0.3,0-0.6-0.3-0.6-0.6V54.2c0-0.3,0.3-0.6,0.6-0.6h3.7c0.3,0,0.6,0.3,0.6,0.6v11.4
			C54,66,53.8,66.3,53.4,66.3z M50.3,65.1h2.5V54.8h-2.5V65.1z"/>
	</g>
	<g>
		<path class="st4" d="M66.8,69.4c-5.1,0-10.2,0-15.3,0l2.1-3.7c3.2,0,6.4,0,9.6,0L66.8,69.4z"/>
		<path class="st0" d="M66.8,70H51.5c-0.2,0-0.4-0.1-0.5-0.3c-0.1-0.2-0.1-0.4,0-0.6l2.1-3.7c0.1-0.2,0.3-0.3,0.5-0.3h9.6
			c0.2,0,0.3,0.1,0.4,0.2l3.7,3.7c0.2,0.2,0.2,0.4,0.1,0.7S67,70,66.8,70z M52.5,68.7h12.8l-2.5-2.5h-9L52.5,68.7z"/>
	</g>
	<g>
		<polygon class="st4" points="45,69.4 51.5,69.4 53.6,65.7 49.7,65.7 		"/>
		<path class="st0" d="M51.5,70H45c-0.3,0-0.5-0.2-0.6-0.4c-0.1-0.2,0-0.5,0.2-0.7l4.7-3.7c0.1-0.1,0.2-0.1,0.4-0.1h3.8
			c0.2,0,0.4,0.1,0.5,0.3c0.1,0.2,0.1,0.4,0,0.6L52,69.6C51.9,69.8,51.7,70,51.5,70z M46.8,68.7h4.3l1.4-2.5H50L46.8,68.7z"/>
	</g>
	<g>
		<rect x="51.4" y="69.4" class="st4" width="15.6" height="5.2"/>
		<path class="st0" d="M67,75.2H51.4c-0.3,0-0.6-0.3-0.6-0.6v-5.2c0-0.3,0.3-0.6,0.6-0.6H67c0.3,0,0.6,0.3,0.6,0.6v5.2
			C67.6,75,67.3,75.2,67,75.2z M52,74h14.4v-4H52V74z"/>
	</g>
	<g>
		<rect x="44.7" y="69.4" class="st4" width="6.8" height="5.2"/>
		<path class="st0" d="M51.4,75.2h-6.8c-0.3,0-0.6-0.3-0.6-0.6v-5.2c0-0.3,0.3-0.6,0.6-0.6h6.8c0.3,0,0.6,0.3,0.6,0.6v5.2
			C52,75,51.8,75.2,51.4,75.2z M45.3,74h5.6v-4h-5.6V74z"/>
	</g>
	<g>
		<path class="st4" d="M62.6,52.5c-3.2,0-6.4,0-9.6,0l1.3-3c2,0,4,0,6,0L62.6,52.5z"/>
		<path class="st0" d="M62.6,53.1H53c-0.2,0-0.4-0.1-0.5-0.3s-0.1-0.4,0-0.6l1.3-3c0.1-0.2,0.3-0.4,0.6-0.4h6c0.2,0,0.4,0.1,0.5,0.2
			l2.3,3c0.1,0.2,0.2,0.4,0.1,0.6S62.8,53.1,62.6,53.1z M53.9,51.9h7.4L60,50.1h-5.3L53.9,51.9z"/>
	</g>
	<g>
		<polygon class="st4" points="53,52.5 49.6,52.5 52.6,49.5 54.3,49.5 		"/>
		<path class="st0" d="M53,53.1h-3.4c-0.2,0-0.5-0.1-0.6-0.4c-0.1-0.2,0-0.5,0.1-0.7l3-3c0.1-0.1,0.3-0.2,0.4-0.2h1.7
			c0.2,0,0.4,0.1,0.5,0.3c0.1,0.2,0.1,0.4,0,0.6l-1.3,3C53.5,53,53.2,53.1,53,53.1z M51.1,51.9h1.5l0.8-1.8h-0.5L51.1,51.9z"/>
	</g>
	<g>
		<path class="st4" d="M58.3,11.3c0.5,0.1,0.5-0.4,0.9-0.3c0.3,0-0.1-0.4,0.6-0.8c0.4-0.2-0.2-0.6,0.3-1c0.4-0.3,0.3-0.6,0.3-0.8
			h-8.1c0.1,0.2-0.1,0.5,0.3,0.8c0.5,0.4-0.1,0.8,0.3,1c0.6,0.3,0.3,0.8,0.6,0.8c0.4,0,0.4,0.5,0.9,0.3H58.3z"/>
		<path class="st0" d="M54.4,12c-0.4,0-0.6-0.2-0.8-0.3c0,0,0,0,0,0c-0.2,0-0.6-0.1-0.7-0.7c0-0.1,0-0.1-0.1-0.1
			c-0.3-0.1-0.6-0.4-0.5-1.1c0,0,0,0,0,0c-0.5-0.4-0.5-0.8-0.5-1.1c0-0.2,0-0.4,0.1-0.5C52,8,52.2,7.9,52.3,7.9h8.1
			c0.2,0,0.4,0.1,0.5,0.2c0.1,0.1,0.2,0.3,0.1,0.5c0,0.3,0,0.7-0.5,1.1c0.1,0.7-0.2,0.9-0.5,1.1c-0.1,0-0.1,0.1-0.1,0.1
			c-0.1,0.7-0.5,0.7-0.7,0.8c-0.2,0.2-0.5,0.4-1,0.3h-3.7C54.5,12,54.4,12,54.4,12z M54.4,10.7C54.4,10.7,54.5,10.7,54.4,10.7l3.9,0
			c0,0,0.1,0,0.1,0l-0.1,0.6l0.1-0.6c0.1-0.1,0.2-0.2,0.4-0.3c0.1-0.2,0.2-0.4,0.5-0.6c0-0.2,0-0.5,0.2-0.8h-6.2
			c0.2,0.3,0.2,0.6,0.2,0.8c0.3,0.2,0.4,0.4,0.5,0.6C54.2,10.5,54.3,10.7,54.4,10.7C54.4,10.7,54.4,10.7,54.4,10.7z M53.5,10.4
			C53.5,10.4,53.5,10.4,53.5,10.4C53.5,10.4,53.5,10.4,53.5,10.4z M59.3,10.4C59.3,10.4,59.3,10.4,59.3,10.4
			C59.3,10.4,59.3,10.4,59.3,10.4z"/>
	</g>
	<g>
		<path class="st4" d="M56.4,2.9c1.6,0,2.9,1.3,2.9,2.9c0,0.5-0.1,0.9-0.3,1.3h-5.1c-0.2-0.4-0.3-0.8-0.3-1.3
			C53.5,4.2,54.8,2.9,56.4,2.9z"/>
		<path class="st0" d="M59,7.6h-5.1c-0.2,0-0.4-0.1-0.5-0.3c-0.2-0.5-0.3-1-0.3-1.5c0-1.9,1.6-3.5,3.5-3.5s3.5,1.6,3.5,3.5
			c0,0.5-0.1,1-0.4,1.5C59.4,7.5,59.2,7.6,59,7.6z M54.2,6.4h4.3c0.1-0.2,0.1-0.4,0.1-0.7c0-1.2-1-2.3-2.3-2.3c-1.2,0-2.3,1-2.3,2.3
			C54.2,6,54.2,6.2,54.2,6.4z"/>
	</g>
	<g>
		<path class="st4" d="M56.5,0.6c0.3,0,0.5,0.2,0.5,0.5c0,0.2-0.1,0.3-0.2,0.4c0.2,0.1,0.4,0.2,0.5,0.3c0.3-0.2,0.4-0.4,0.7-0.6
			C58.4,1.1,62.9,1,62.9,1l0.7,0.8l-1,0.5l-2.2,0.2c0,0,0,0.5-0.3,0.5c-0.3,0-1.1-0.2-1.6-0.2c-0.2,0-0.4,0.1-0.7,0.3
			c0,0.6-0.4,1.1-0.9,1.2c0.6,0.2,1.1,0.9,1.1,2S57.4,7,56.5,7C55.7,7,55,7.3,55,6.3s0.5-1.8,1.1-2c-0.5-0.2-0.9-0.7-0.9-1.2
			c-0.3-0.2-0.6-0.3-0.7-0.3C54,2.7,53.2,3,52.9,3c-0.3,0-0.3-0.5-0.3-0.5l-2.2-0.2l-1-0.5L50.1,1c0,0,4.6,0.1,4.9,0.3
			c0.3,0.2,0.4,0.4,0.7,0.6c0.2-0.1,0.3-0.3,0.5-0.3C56.1,1.5,56,1.3,56,1.1C56,0.8,56.2,0.6,56.5,0.6z"/>
		<path class="st0" d="M57.4,7.6c-0.1,0-0.3,0-0.4,0c-0.3,0-0.6,0-0.9,0c-0.4,0-0.9,0.1-1.3-0.2c-0.4-0.3-0.4-0.9-0.4-1.1
			c0-0.8,0.2-1.5,0.7-2c-0.2-0.2-0.3-0.5-0.4-0.9c-0.2-0.1-0.2-0.1-0.2-0.1c-0.1,0-0.4,0.1-0.7,0.1c-0.4,0.1-0.7,0.1-0.9,0.1
			c-0.3,0-0.6-0.2-0.7-0.5l-1.8-0.2c-0.1,0-0.2,0-0.2-0.1l-1-0.5C49,2.2,48.8,2,48.8,1.9c0-0.2,0-0.4,0.2-0.5l0.7-0.8
			c0.1-0.1,0.3-0.2,0.4-0.2c4.7,0.1,5,0.3,5.2,0.4c0,0,0.1,0.1,0.1,0.1C55.6,0.4,56,0,56.5,0c0.5,0,1,0.4,1.1,0.9
			c0,0,0.1-0.1,0.1-0.1c0.2-0.1,0.4-0.3,5.2-0.4c0.2,0,0.3,0.1,0.4,0.2l0.7,0.8c0.1,0.1,0.2,0.3,0.2,0.5c0,0.2-0.1,0.3-0.3,0.4
			l-1,0.5c-0.1,0-0.2,0.1-0.2,0.1l-1.8,0.2c-0.1,0.3-0.4,0.5-0.7,0.5c-0.2,0-0.5,0-0.9-0.1c-0.3-0.1-0.6-0.1-0.7-0.1
			c0,0-0.1,0-0.2,0.1c-0.1,0.3-0.2,0.6-0.4,0.9c0.4,0.5,0.7,1.2,0.7,2c0,0.2,0,0.7-0.4,1.1C58,7.6,57.7,7.6,57.4,7.6z M56.5,6.4
			c0.2,0,0.4,0,0.6,0c0.1,0,0.2,0,0.3,0c0,0,0-0.1,0-0.1c0-0.7-0.3-1.3-0.7-1.4c-0.1,0-0.1-0.1-0.2-0.1c0,0-0.1,0.1-0.2,0.1
			c-0.4,0.2-0.7,0.7-0.7,1.4c0,0.1,0,0.1,0,0.1c0.1,0,0.2,0,0.3,0C56.1,6.4,56.3,6.4,56.5,6.4z M54.5,2.1c0.3,0,0.6,0.1,1.1,0.4
			c0.2,0.1,0.3,0.3,0.3,0.5c0,0.3,0.2,0.6,0.5,0.7c0.1,0,0.1,0.1,0.2,0.1c0.1,0,0.1-0.1,0.2-0.1C57,3.7,57.2,3.4,57.2,3
			c0-0.2,0.1-0.4,0.3-0.5c0.5-0.3,0.8-0.4,1.1-0.4c0.3,0,0.7,0.1,1,0.1c0.1,0,0.2,0,0.3,0.1c0.1-0.2,0.3-0.4,0.5-0.5l2.1-0.2
			l0.2-0.1c-1.9,0-3.9,0.1-4.3,0.2c-0.1,0-0.1,0.1-0.2,0.2c-0.1,0.1-0.3,0.3-0.5,0.4c-0.2,0.1-0.5,0.1-0.7-0.1
			c-0.1-0.1-0.2-0.1-0.3-0.2c-0.1,0-0.1,0-0.1-0.1c0,0-0.1,0-0.2,0.1c-0.1,0-0.2,0.1-0.3,0.2c-0.2,0.2-0.5,0.2-0.7,0.1
			C55.1,2.3,55,2.1,54.9,2c-0.1-0.1-0.1-0.1-0.2-0.2c-0.4-0.1-2.4-0.2-4.3-0.2l0.2,0.1l2.1,0.2c0.3,0,0.5,0.2,0.5,0.5
			c0.1,0,0.2,0,0.3-0.1C53.8,2.2,54.2,2.1,54.5,2.1z"/>
	</g>
	<g>
		<path class="st2" d="M52.4,50.6h0.8l-0.5,1.2h-1.5L52.4,50.6L52.4,50.6z M54.5,50.6h5.9l0.9,1.2H54L54.5,50.6L54.5,50.6z
			 M45.3,71.6h5.6v-1.2h-5.6V71.6L45.3,71.6z M52,71.6h14.4v-1.2H52V71.6L52,71.6z M63,66.4h-9.1l-0.7,1.2h11L63,66.4L63,66.4z
			 M52.5,66.4h-2.6l-1.6,1.2h3.5L52.5,66.4L52.5,66.4z M62.2,62.4h-8.1v1.2h8.1V62.4L62.2,62.4z M52.8,62.4h-2.5v1.2h2.5V62.4
			L52.8,62.4z M62.2,58.5h-8.1v1.2h8.1V58.5L62.2,58.5z M52.8,58.5h-2.5v1.2h2.5V58.5L52.8,58.5z M50.3,55.8h2.5v-0.9h-2.5V55.8
			L50.3,55.8z M54.1,55.8h8.1v-0.9h-8.1V55.8z"/>
	</g>
	<g>
		<path class="st2" d="M58.5,39.9h-4.1l0-1.2h4.1L58.5,39.9L58.5,39.9z M54.3,42.7h4.2l0,1.2h-4.3L54.3,42.7L54.3,42.7z M58.1,15
			l0,1.2h-3.3l0-1.2H58.1L58.1,15z M58.1,18.9l0,1.3h-3.5l0-1.3H58.1L58.1,18.9z M58.2,22.8l0,1.2h-3.6l0-1.2H58.2L58.2,22.8z
			 M58.3,26.8l0,1.2h-3.7l0-1.2H58.3L58.3,26.8z M58.3,30.7l0,1.2h-3.9l0-1.2H58.3L58.3,30.7z M58.4,34.7l0,1.2h-4l0-1.2H58.4
			L58.4,34.7z M58.6,46.6L58.6,46.6l-1.7,0h-0.9h-1.7l0,0H58.6z"/>
	</g>
</g>
</svg>
