<?xml version="1.0" encoding="utf-8"?>
<!-- Generator: Adobe Illustrator 22.0.1, SVG Export Plug-In . SVG Version: 6.00 Build 0)  -->
<svg version="1.1" id="Слой_1" xmlns="http://www.w3.org/2000/svg" xmlns:xlink="http://www.w3.org/1999/xlink" x="0px" y="0px"
	 viewBox="0 0 185.1000061 77.0999985" style="enable-background:new 0 0 185.1000061 77.0999985;" xml:space="preserve">
<style type="text/css">
	.st0{fill:#91B43E;}
	.st1{fill:#3E4530;}
	.st2{fill:#B3D349;}
</style>
<path class="st0" d="M173.1999969,61.9000015c6.3000031,0,11.5-5.2000008,11.5-11.5S179.5,39,173.1999969,39
	s-11.5,5.2000008-11.5,11.5S166.8999939,61.9000015,173.1999969,61.9000015z"/>
<path class="st1" d="M172,42.5999985v8.7999992v13.9999962v5.8000031h2.3999939v-5.8000031v-14v-8.7999992
	c-0.3999939,0-0.8000031-0.0999985-1.1999969-0.0999985C172.8000031,42.5999985,172.3999939,42.5999985,172,42.5999985z"/>
<path class="st1" d="M173.1999969,38.5c-3.3000031,0-6.3000031,1.2999992-8.3999939,3.5
	c-2.1999969,2.2000008-3.5,5.2000008-3.5,8.4000015c0,3.2999992,1.3000031,6.2999992,3.5,8.4000015
	c2.1999969,2.2000008,5.1999969,3.5,8.3999939,3.5c3.3000031,0,6.3000031-1.2999992,8.3999939-3.5
	c2.1999969-2.2000008,3.5-5.2000008,3.5-8.4000015c0-3.2999992-1.3000031-6.2999992-3.5-8.4000015
	C179.5,39.7999992,176.5,38.5,173.1999969,38.5L173.1999969,38.5z M165.3999939,42.7000008
	c2-2,4.6999969-3.2000008,7.8000031-3.2000008c3,0,5.8000031,1.2000008,7.8000031,3.2000008
	s3.1999969,4.7000008,3.1999969,7.7999992S183,56.2999992,181,58.2999992S176.3000031,61.5,173.1999969,61.5
	c-3,0-5.8000031-1.2000008-7.8000031-3.2000008S162.1999969,53.5999985,162.1999969,50.5
	S163.3999939,44.7000008,165.3999939,42.7000008z"/>
<rect x="0.5" y="44.0999985" class="st2" width="18.7000008" height="18.7000008"/>
<rect x="8.6000004" y="47.7000008" class="st1" width="2.3999996" height="23.1000023"/>
<path class="st1" d="M0.5,43.5999985h18.7000008c0.2999992,0,0.5,0.2000008,0.5,0.5v18.7000008c0,0.2999992-0.2000008,0.5-0.5,0.5
	H0.5C0.2,63.2000008,0,63,0,62.7999992V44.0999985C0,43.7999992,0.2,43.5999985,0.5,43.5999985L0.5,43.5999985z
	 M18.7000008,44.5999985H1v17.7000008h17.7000008V44.5999985z"/>
</svg>
