<svg width="26" height="19" viewBox="0 0 26 19" fill="none" xmlns="http://www.w3.org/2000/svg">
<path d="M25.4566 2.96691C25.1576 1.79902 24.2767 0.879391 23.158 0.567299C21.1302 -2.02231e-07 12.9999 0 12.9999 0C12.9999 0 4.86957 -2.02231e-07 2.84172 0.567299C1.72326 0.879391 0.842156 1.79902 0.543156 2.96691C0 5.08364 0 9.50011 0 9.50011C0 9.50011 0 13.9166 0.543156 16.0331C0.842156 17.201 1.72326 18.1208 2.84172 18.4329C4.86957 19 12.9999 19 12.9999 19C12.9999 19 21.1302 19 23.158 18.4329C24.2767 18.1208 25.1576 17.201 25.4566 16.0331C26 13.9166 26 9.50011 26 9.50011C26 9.50011 26 5.08364 25.4566 2.96691Z" fill="#ED1F24"/>
</svg>
