<?xml version="1.0" encoding="utf-8"?>
<!-- Generator: Adobe Illustrator 22.0.1, SVG Export Plug-In . SVG Version: 6.00 Build 0)  -->
<svg version="1.1" id="Capa_1" xmlns="http://www.w3.org/2000/svg" xmlns:xlink="http://www.w3.org/1999/xlink" x="0px" y="0px"
	 viewBox="0 0 18 18" style="enable-background:new 0 0 18 18;" xml:space="preserve">
<style type="text/css">
	.st0{fill:#464731;}
</style>
<path class="st0" d="M5.5329723,8.8834486h1.844326v1.8507147c0,0.4082775,0.330862,0.7402859,0.737731,0.7402859
	c0.406868,0,0.73773-0.3320084,0.73773-0.7402859V8.8834486h1.844327c0.406868,0,0.7377291-0.3320074,0.7377291-0.7402859
	c0-0.408277-0.3308611-0.7402854-0.7377291-0.7402854h-1.844327V5.5521626c0-0.4082775-0.330862-0.7402854-0.73773-0.7402854
	c-0.4068689,0-0.737731,0.3320079-0.737731,0.7402854v1.8507147h-1.844326c-0.4068685,0-0.7377305,0.3320084-0.7377305,0.7402854
	C4.7952418,8.5514412,5.1261039,8.8834486,5.5329723,8.8834486z"/>
<path class="st0" d="M17.7146358,16.4145832l-3.3165083-3.1660652c1.1723814-1.4464502,1.8319101-3.2211666,1.8319101-5.1053534
	C16.2300377,3.6529596,12.5896883,0,8.115056,0C3.6403503,0,0,3.6529596,0,8.1431646
	c0,4.4901314,3.6403503,8.1430902,8.115056,8.1430902c1.7410975,0,3.4394207-0.5742073,4.8336439-1.6149111l0.1423616-0.132143
	c1.1203947,1.0689526,2.240716,2.1379805,3.3611097,3.206933C16.6287537,17.9162102,16.8566647,18,17.0834045,18
	c0.2422428,0,0.4833126-0.0958233,0.6634769-0.28615C18.0965347,17.3461838,18.0822029,16.7642727,17.7146358,16.4145832z
	 M1.475458,8.1431646c0-3.6737242,2.9784818-6.6625962,6.6395979-6.6625962s6.6395245,2.9888716,6.6395245,6.6625962
	c0,3.6737976-2.9784088,6.6625223-6.6395245,6.6625223S1.475458,11.8169622,1.475458,8.1431646z"/>
</svg>
